  0
SECTION
  2
HEADER
  9
$ANGBASE
  50
0.0
  9
$ANGDIR
  70
1
  9
$MEASUREMENT
  70
1
  0
ENDSEC
  0
SECTION
  2
TABLES
  0
TABLE
  2
LTYPE
  70
4
  0
LTYPE
  5
40F
  2
CONTINUOUS
  70
0
  3
Solid line
  72
65
  73
0
  40
0.0
  0
LTYPE
  5
410
  2
DASHDOT
 70
0
  3
Dash Dot ____ _ ____ _
 72
65
 73
4
 40
2.0
 49
1.25
 49
-0.25
 49
0.25
 49
-0.25
  0
LTYPE
  5
411
  2
DASHED
 70
0
  3
Dashed __ __ __ __ __
 72
65
 73
2
 40
0.75
 49
0.5
 49
-0.25
  0
LTYPE
  5
43B
  2
DOTTED
 70
0
  3
Dotted .  .  .  .
 72
65
 73
2
 40
0.2
 49
0.0
 49
-0.2
  0
ENDTAB
  0
TABLE
  2
STYLE
  70
4
  0
STYLE
  2
KICAD
  70
0
  40
0
  41
1
  42
1
  50
0
  71
0
  3
isocp.shx
  0
STYLE
  2
KICADB
  70
0
  40
0
  41
1
  42
1
  50
0
  71
0
  3
isocp.shx
  0
STYLE
  2
KICADI
  70
0
  40
0
  41
1
  42
1
  50
15
  71
0
  3
isocp.shx
  0
STYLE
  2
KICADBI
  70
0
  40
0
  41
1
  42
1
  50
15
  71
0
  3
isocp.shx
  0
ENDTAB
  0
TABLE
  2
LAYER
  70
1
  0
LAYER
  2
BLACK
  70
0
  62
7
  6
CONTINUOUS
  0
ENDTAB
  0
ENDSEC
  0
SECTION
  2
ENTITIES
0
ARC
8
BLACK
10
69.04
20
-55.51
40
5
50
90
51
180
0
ARC
8
BLACK
10
69.04
20
-174.26
40
5
50
-180
51
-90
0
ARC
8
BLACK
10
380.87
20
-55.51
40
5
50
-0
51
90
0
ARC
8
BLACK
10
380.87
20
-174.26
40
5
50
-90
51
-0
0
LINE
8
BLACK
6
CONTINUOUS
10
380.87
20
-50.51
11
69.04
21
-50.51
0
LINE
8
BLACK
6
CONTINUOUS
10
385.87
20
-174.26
11
385.87
21
-55.51
0
LINE
8
BLACK
6
CONTINUOUS
10
69.04
20
-179.26
11
380.87
21
-179.26
0
LINE
8
BLACK
6
CONTINUOUS
10
64.04
20
-55.51
11
64.04
21
-174.26
0
CIRCLE
8
BLACK
10
223.51
20
-150.27
40
2.5
0
CIRCLE
8
BLACK
10
183.6
20
-150.27
40
2.5
0
CIRCLE
8
BLACK
10
291.96
20
-162.72
40
3.1
0
CIRCLE
8
BLACK
10
380.87
20
-55.51
40
3.1
0
CIRCLE
8
BLACK
10
380.87
20
-174.26
40
3.1
0
CIRCLE
8
BLACK
10
69.04
20
-174.26
40
3.1
0
CIRCLE
8
BLACK
10
69.04
20
-55.51
40
3.1
0
LINE
8
BLACK
6
CONTINUOUS
10
197.679
20
-150.65
11
197.679
21
-148.4
0
LINE
8
BLACK
6
CONTINUOUS
10
197.679
20
-148.4
11
209.179
21
-148.4
0
LINE
8
BLACK
6
CONTINUOUS
10
209.179
20
-148.4
11
209.179
21
-150.65
0
ARC
8
BLACK
10
203.429
20
-162.903
40
13.5348
50
-244.86
51
64.86
0
LINE
8
BLACK
6
CONTINUOUS
10
360.535
20
-129.75
11
360.535
21
-144.25
0
LINE
8
BLACK
6
CONTINUOUS
10
375.035
20
-144.25
11
375.035
21
-129.75
0
LINE
8
BLACK
6
CONTINUOUS
10
375.035
20
-129.75
11
360.535
21
-129.75
0
LINE
8
BLACK
6
CONTINUOUS
10
360.535
20
-144.25
11
375.035
21
-144.25
0
LINE
8
BLACK
6
CONTINUOUS
10
74.785
20
-72.6
11
74.785
21
-87.1
0
LINE
8
BLACK
6
CONTINUOUS
10
89.285
20
-87.1
11
89.285
21
-72.6
0
LINE
8
BLACK
6
CONTINUOUS
10
89.285
20
-72.6
11
74.785
21
-72.6
0
LINE
8
BLACK
6
CONTINUOUS
10
74.785
20
-87.1
11
89.285
21
-87.1
0
LINE
8
BLACK
6
CONTINUOUS
10
355.772
20
-72.6
11
355.772
21
-87.1
0
LINE
8
BLACK
6
CONTINUOUS
10
370.272
20
-72.6
11
355.772
21
-72.6
0
LINE
8
BLACK
6
CONTINUOUS
10
355.772
20
-87.1
11
370.272
21
-87.1
0
LINE
8
BLACK
6
CONTINUOUS
10
370.272
20
-87.1
11
370.272
21
-72.6
0
LINE
8
BLACK
6
CONTINUOUS
10
351.01
20
-53.55
11
351.01
21
-68.05
0
LINE
8
BLACK
6
CONTINUOUS
10
365.51
20
-53.55
11
351.01
21
-53.55
0
LINE
8
BLACK
6
CONTINUOUS
10
365.51
20
-68.05
11
365.51
21
-53.55
0
LINE
8
BLACK
6
CONTINUOUS
10
351.01
20
-68.05
11
365.51
21
-68.05
0
LINE
8
BLACK
6
CONTINUOUS
10
341.485
20
-129.75
11
341.485
21
-144.25
0
LINE
8
BLACK
6
CONTINUOUS
10
355.985
20
-144.25
11
355.985
21
-129.75
0
LINE
8
BLACK
6
CONTINUOUS
10
355.985
20
-129.75
11
341.485
21
-129.75
0
LINE
8
BLACK
6
CONTINUOUS
10
341.485
20
-144.25
11
355.985
21
-144.25
0
LINE
8
BLACK
6
CONTINUOUS
10
322.435
20
-129.75
11
322.435
21
-144.25
0
LINE
8
BLACK
6
CONTINUOUS
10
336.935
20
-144.25
11
336.935
21
-129.75
0
LINE
8
BLACK
6
CONTINUOUS
10
336.935
20
-129.75
11
322.435
21
-129.75
0
LINE
8
BLACK
6
CONTINUOUS
10
322.435
20
-144.25
11
336.935
21
-144.25
0
LINE
8
BLACK
6
CONTINUOUS
10
363.129
20
-106.15
11
363.129
21
-91.65
0
LINE
8
BLACK
6
CONTINUOUS
10
348.629
20
-106.15
11
363.129
21
-106.15
0
LINE
8
BLACK
6
CONTINUOUS
10
363.129
20
-91.65
11
348.629
21
-91.65
0
LINE
8
BLACK
6
CONTINUOUS
10
348.629
20
-91.65
11
348.629
21
-106.15
0
LINE
8
BLACK
6
CONTINUOUS
10
331.96
20
-72.6
11
331.96
21
-87.1
0
LINE
8
BLACK
6
CONTINUOUS
10
346.46
20
-87.1
11
346.46
21
-72.6
0
LINE
8
BLACK
6
CONTINUOUS
10
346.46
20
-72.6
11
331.96
21
-72.6
0
LINE
8
BLACK
6
CONTINUOUS
10
331.96
20
-87.1
11
346.46
21
-87.1
0
LINE
8
BLACK
6
CONTINUOUS
10
322.435
20
-53.55
11
322.435
21
-68.05
0
LINE
8
BLACK
6
CONTINUOUS
10
336.935
20
-68.05
11
336.935
21
-53.55
0
LINE
8
BLACK
6
CONTINUOUS
10
336.935
20
-53.55
11
322.435
21
-53.55
0
LINE
8
BLACK
6
CONTINUOUS
10
322.435
20
-68.05
11
336.935
21
-68.05
0
LINE
8
BLACK
6
CONTINUOUS
10
303.385
20
-129.75
11
303.385
21
-144.25
0
LINE
8
BLACK
6
CONTINUOUS
10
317.885
20
-144.25
11
317.885
21
-129.75
0
LINE
8
BLACK
6
CONTINUOUS
10
317.885
20
-129.75
11
303.385
21
-129.75
0
LINE
8
BLACK
6
CONTINUOUS
10
303.385
20
-144.25
11
317.885
21
-144.25
0
LINE
8
BLACK
6
CONTINUOUS
10
343.866
20
-125.2
11
358.366
21
-125.2
0
LINE
8
BLACK
6
CONTINUOUS
10
343.866
20
-110.7
11
343.866
21
-125.2
0
LINE
8
BLACK
6
CONTINUOUS
10
358.366
20
-125.2
11
358.366
21
-110.7
0
LINE
8
BLACK
6
CONTINUOUS
10
358.366
20
-110.7
11
343.866
21
-110.7
0
LINE
8
BLACK
6
CONTINUOUS
10
317.673
20
-91.65
11
317.673
21
-106.15
0
LINE
8
BLACK
6
CONTINUOUS
10
332.172
20
-106.15
11
332.172
21
-91.65
0
LINE
8
BLACK
6
CONTINUOUS
10
332.172
20
-91.65
11
317.673
21
-91.65
0
LINE
8
BLACK
6
CONTINUOUS
10
317.673
20
-106.15
11
332.172
21
-106.15
0
LINE
8
BLACK
6
CONTINUOUS
10
312.91
20
-72.6
11
312.91
21
-87.1
0
LINE
8
BLACK
6
CONTINUOUS
10
327.41
20
-87.1
11
327.41
21
-72.6
0
LINE
8
BLACK
6
CONTINUOUS
10
327.41
20
-72.6
11
312.91
21
-72.6
0
LINE
8
BLACK
6
CONTINUOUS
10
312.91
20
-87.1
11
327.41
21
-87.1
0
LINE
8
BLACK
6
CONTINUOUS
10
303.385
20
-53.55
11
303.385
21
-68.05
0
LINE
8
BLACK
6
CONTINUOUS
10
317.885
20
-68.05
11
317.885
21
-53.55
0
LINE
8
BLACK
6
CONTINUOUS
10
317.885
20
-53.55
11
303.385
21
-53.55
0
LINE
8
BLACK
6
CONTINUOUS
10
303.385
20
-68.05
11
317.885
21
-68.05
0
LINE
8
BLACK
6
CONTINUOUS
10
74.785
20
-110.7
11
74.785
21
-125.2
0
LINE
8
BLACK
6
CONTINUOUS
10
89.285
20
-125.2
11
89.285
21
-110.7
0
LINE
8
BLACK
6
CONTINUOUS
10
89.285
20
-110.7
11
74.785
21
-110.7
0
LINE
8
BLACK
6
CONTINUOUS
10
74.785
20
-125.2
11
89.285
21
-125.2
0
LINE
8
BLACK
6
CONTINUOUS
10
308.147
20
-110.7
11
308.147
21
-125.2
0
LINE
8
BLACK
6
CONTINUOUS
10
322.647
20
-125.2
11
322.647
21
-110.7
0
LINE
8
BLACK
6
CONTINUOUS
10
322.647
20
-110.7
11
308.147
21
-110.7
0
LINE
8
BLACK
6
CONTINUOUS
10
308.147
20
-125.2
11
322.647
21
-125.2
0
LINE
8
BLACK
6
CONTINUOUS
10
298.623
20
-91.65
11
298.623
21
-106.15
0
LINE
8
BLACK
6
CONTINUOUS
10
313.123
20
-106.15
11
313.123
21
-91.65
0
LINE
8
BLACK
6
CONTINUOUS
10
313.123
20
-91.65
11
298.623
21
-91.65
0
LINE
8
BLACK
6
CONTINUOUS
10
298.623
20
-106.15
11
313.123
21
-106.15
0
LINE
8
BLACK
6
CONTINUOUS
10
293.86
20
-72.6
11
293.86
21
-87.1
0
LINE
8
BLACK
6
CONTINUOUS
10
308.36
20
-87.1
11
308.36
21
-72.6
0
LINE
8
BLACK
6
CONTINUOUS
10
308.36
20
-72.6
11
293.86
21
-72.6
0
LINE
8
BLACK
6
CONTINUOUS
10
293.86
20
-87.1
11
308.36
21
-87.1
0
LINE
8
BLACK
6
CONTINUOUS
10
284.335
20
-53.55
11
284.335
21
-68.05
0
LINE
8
BLACK
6
CONTINUOUS
10
298.835
20
-68.05
11
298.835
21
-53.55
0
LINE
8
BLACK
6
CONTINUOUS
10
298.835
20
-53.55
11
284.335
21
-53.55
0
LINE
8
BLACK
6
CONTINUOUS
10
284.335
20
-68.05
11
298.835
21
-68.05
0
LINE
8
BLACK
6
CONTINUOUS
10
284.335
20
-129.75
11
284.335
21
-144.25
0
LINE
8
BLACK
6
CONTINUOUS
10
298.835
20
-144.25
11
298.835
21
-129.75
0
LINE
8
BLACK
6
CONTINUOUS
10
298.835
20
-129.75
11
284.335
21
-129.75
0
LINE
8
BLACK
6
CONTINUOUS
10
284.335
20
-144.25
11
298.835
21
-144.25
0
LINE
8
BLACK
6
CONTINUOUS
10
289.097
20
-110.7
11
289.097
21
-125.2
0
LINE
8
BLACK
6
CONTINUOUS
10
303.597
20
-125.2
11
303.597
21
-110.7
0
LINE
8
BLACK
6
CONTINUOUS
10
303.597
20
-110.7
11
289.097
21
-110.7
0
LINE
8
BLACK
6
CONTINUOUS
10
289.097
20
-125.2
11
303.597
21
-125.2
0
LINE
8
BLACK
6
CONTINUOUS
10
279.572
20
-91.65
11
279.572
21
-106.15
0
LINE
8
BLACK
6
CONTINUOUS
10
294.072
20
-106.15
11
294.072
21
-91.65
0
LINE
8
BLACK
6
CONTINUOUS
10
294.072
20
-91.65
11
279.572
21
-91.65
0
LINE
8
BLACK
6
CONTINUOUS
10
279.572
20
-106.15
11
294.072
21
-106.15
0
LINE
8
BLACK
6
CONTINUOUS
10
274.81
20
-72.6
11
274.81
21
-87.1
0
LINE
8
BLACK
6
CONTINUOUS
10
289.31
20
-87.1
11
289.31
21
-72.6
0
LINE
8
BLACK
6
CONTINUOUS
10
289.31
20
-72.6
11
274.81
21
-72.6
0
LINE
8
BLACK
6
CONTINUOUS
10
274.81
20
-87.1
11
289.31
21
-87.1
0
LINE
8
BLACK
6
CONTINUOUS
10
265.285
20
-53.55
11
265.285
21
-68.05
0
LINE
8
BLACK
6
CONTINUOUS
10
279.785
20
-68.05
11
279.785
21
-53.55
0
LINE
8
BLACK
6
CONTINUOUS
10
279.785
20
-53.55
11
265.285
21
-53.55
0
LINE
8
BLACK
6
CONTINUOUS
10
265.285
20
-68.05
11
279.785
21
-68.05
0
LINE
8
BLACK
6
CONTINUOUS
10
265.285
20
-129.75
11
265.285
21
-144.25
0
LINE
8
BLACK
6
CONTINUOUS
10
279.785
20
-144.25
11
279.785
21
-129.75
0
LINE
8
BLACK
6
CONTINUOUS
10
279.785
20
-129.75
11
265.285
21
-129.75
0
LINE
8
BLACK
6
CONTINUOUS
10
265.285
20
-144.25
11
279.785
21
-144.25
0
LINE
8
BLACK
6
CONTINUOUS
10
270.048
20
-110.7
11
270.048
21
-125.2
0
LINE
8
BLACK
6
CONTINUOUS
10
284.548
20
-125.2
11
284.548
21
-110.7
0
LINE
8
BLACK
6
CONTINUOUS
10
284.548
20
-110.7
11
270.048
21
-110.7
0
LINE
8
BLACK
6
CONTINUOUS
10
270.048
20
-125.2
11
284.548
21
-125.2
0
LINE
8
BLACK
6
CONTINUOUS
10
260.522
20
-91.65
11
260.522
21
-106.15
0
LINE
8
BLACK
6
CONTINUOUS
10
275.022
20
-106.15
11
275.022
21
-91.65
0
LINE
8
BLACK
6
CONTINUOUS
10
275.022
20
-91.65
11
260.522
21
-91.65
0
LINE
8
BLACK
6
CONTINUOUS
10
260.522
20
-106.15
11
275.022
21
-106.15
0
LINE
8
BLACK
6
CONTINUOUS
10
255.76
20
-72.6
11
255.76
21
-87.1
0
LINE
8
BLACK
6
CONTINUOUS
10
270.26
20
-87.1
11
270.26
21
-72.6
0
LINE
8
BLACK
6
CONTINUOUS
10
270.26
20
-72.6
11
255.76
21
-72.6
0
LINE
8
BLACK
6
CONTINUOUS
10
255.76
20
-87.1
11
270.26
21
-87.1
0
LINE
8
BLACK
6
CONTINUOUS
10
246.235
20
-53.55
11
246.235
21
-68.05
0
LINE
8
BLACK
6
CONTINUOUS
10
260.735
20
-68.05
11
260.735
21
-53.55
0
LINE
8
BLACK
6
CONTINUOUS
10
260.735
20
-53.55
11
246.235
21
-53.55
0
LINE
8
BLACK
6
CONTINUOUS
10
246.235
20
-68.05
11
260.735
21
-68.05
0
LINE
8
BLACK
6
CONTINUOUS
10
250.998
20
-110.7
11
250.998
21
-125.2
0
LINE
8
BLACK
6
CONTINUOUS
10
265.498
20
-125.2
11
265.498
21
-110.7
0
LINE
8
BLACK
6
CONTINUOUS
10
265.498
20
-110.7
11
250.998
21
-110.7
0
LINE
8
BLACK
6
CONTINUOUS
10
250.998
20
-125.2
11
265.498
21
-125.2
0
LINE
8
BLACK
6
CONTINUOUS
10
241.472
20
-91.65
11
241.472
21
-106.15
0
LINE
8
BLACK
6
CONTINUOUS
10
255.972
20
-106.15
11
255.972
21
-91.65
0
LINE
8
BLACK
6
CONTINUOUS
10
255.972
20
-91.65
11
241.472
21
-91.65
0
LINE
8
BLACK
6
CONTINUOUS
10
241.472
20
-106.15
11
255.972
21
-106.15
0
LINE
8
BLACK
6
CONTINUOUS
10
236.71
20
-72.6
11
236.71
21
-87.1
0
LINE
8
BLACK
6
CONTINUOUS
10
251.21
20
-87.1
11
251.21
21
-72.6
0
LINE
8
BLACK
6
CONTINUOUS
10
251.21
20
-72.6
11
236.71
21
-72.6
0
LINE
8
BLACK
6
CONTINUOUS
10
236.71
20
-87.1
11
251.21
21
-87.1
0
LINE
8
BLACK
6
CONTINUOUS
10
227.185
20
-53.55
11
227.185
21
-68.05
0
LINE
8
BLACK
6
CONTINUOUS
10
241.685
20
-68.05
11
241.685
21
-53.55
0
LINE
8
BLACK
6
CONTINUOUS
10
241.685
20
-53.55
11
227.185
21
-53.55
0
LINE
8
BLACK
6
CONTINUOUS
10
227.185
20
-68.05
11
241.685
21
-68.05
0
LINE
8
BLACK
6
CONTINUOUS
10
221.229
20
-155.75
11
221.229
21
-170.25
0
LINE
8
BLACK
6
CONTINUOUS
10
235.729
20
-170.25
11
235.729
21
-155.75
0
LINE
8
BLACK
6
CONTINUOUS
10
235.729
20
-155.75
11
221.229
21
-155.75
0
LINE
8
BLACK
6
CONTINUOUS
10
221.229
20
-170.25
11
235.729
21
-170.25
0
LINE
8
BLACK
6
CONTINUOUS
10
231.947
20
-110.7
11
231.947
21
-125.2
0
LINE
8
BLACK
6
CONTINUOUS
10
246.447
20
-125.2
11
246.447
21
-110.7
0
LINE
8
BLACK
6
CONTINUOUS
10
246.447
20
-110.7
11
231.947
21
-110.7
0
LINE
8
BLACK
6
CONTINUOUS
10
231.947
20
-125.2
11
246.447
21
-125.2
0
LINE
8
BLACK
6
CONTINUOUS
10
222.422
20
-91.65
11
222.422
21
-106.15
0
LINE
8
BLACK
6
CONTINUOUS
10
236.922
20
-106.15
11
236.922
21
-91.65
0
LINE
8
BLACK
6
CONTINUOUS
10
236.922
20
-91.65
11
222.422
21
-91.65
0
LINE
8
BLACK
6
CONTINUOUS
10
222.422
20
-106.15
11
236.922
21
-106.15
0
LINE
8
BLACK
6
CONTINUOUS
10
217.66
20
-72.6
11
217.66
21
-87.1
0
LINE
8
BLACK
6
CONTINUOUS
10
232.16
20
-87.1
11
232.16
21
-72.6
0
LINE
8
BLACK
6
CONTINUOUS
10
232.16
20
-72.6
11
217.66
21
-72.6
0
LINE
8
BLACK
6
CONTINUOUS
10
217.66
20
-87.1
11
232.16
21
-87.1
0
LINE
8
BLACK
6
CONTINUOUS
10
208.135
20
-53.55
11
208.135
21
-68.05
0
LINE
8
BLACK
6
CONTINUOUS
10
222.635
20
-68.05
11
222.635
21
-53.55
0
LINE
8
BLACK
6
CONTINUOUS
10
222.635
20
-53.55
11
208.135
21
-53.55
0
LINE
8
BLACK
6
CONTINUOUS
10
208.135
20
-68.05
11
222.635
21
-68.05
0
LINE
8
BLACK
6
CONTINUOUS
10
210.729
20
-129.75
11
196.229
21
-129.75
0
LINE
8
BLACK
6
CONTINUOUS
10
196.229
20
-129.75
11
196.229
21
-144.25
0
LINE
8
BLACK
6
CONTINUOUS
10
210.729
20
-144.25
11
210.729
21
-129.75
0
LINE
8
BLACK
6
CONTINUOUS
10
196.229
20
-144.25
11
210.729
21
-144.25
0
LINE
8
BLACK
6
CONTINUOUS
10
212.897
20
-110.7
11
212.897
21
-125.2
0
LINE
8
BLACK
6
CONTINUOUS
10
227.397
20
-125.2
11
227.397
21
-110.7
0
LINE
8
BLACK
6
CONTINUOUS
10
227.397
20
-110.7
11
212.897
21
-110.7
0
LINE
8
BLACK
6
CONTINUOUS
10
212.897
20
-125.2
11
227.397
21
-125.2
0
LINE
8
BLACK
6
CONTINUOUS
10
203.373
20
-91.65
11
203.373
21
-106.15
0
LINE
8
BLACK
6
CONTINUOUS
10
217.873
20
-106.15
11
217.873
21
-91.65
0
LINE
8
BLACK
6
CONTINUOUS
10
217.873
20
-91.65
11
203.373
21
-91.65
0
LINE
8
BLACK
6
CONTINUOUS
10
203.373
20
-106.15
11
217.873
21
-106.15
0
LINE
8
BLACK
6
CONTINUOUS
10
198.61
20
-72.6
11
198.61
21
-87.1
0
LINE
8
BLACK
6
CONTINUOUS
10
213.11
20
-87.1
11
213.11
21
-72.6
0
LINE
8
BLACK
6
CONTINUOUS
10
213.11
20
-72.6
11
198.61
21
-72.6
0
LINE
8
BLACK
6
CONTINUOUS
10
198.61
20
-87.1
11
213.11
21
-87.1
0
LINE
8
BLACK
6
CONTINUOUS
10
189.085
20
-53.55
11
189.085
21
-68.05
0
LINE
8
BLACK
6
CONTINUOUS
10
203.585
20
-68.05
11
203.585
21
-53.55
0
LINE
8
BLACK
6
CONTINUOUS
10
203.585
20
-53.55
11
189.085
21
-53.55
0
LINE
8
BLACK
6
CONTINUOUS
10
189.085
20
-68.05
11
203.585
21
-68.05
0
LINE
8
BLACK
6
CONTINUOUS
10
74.785
20
-91.65
11
74.785
21
-106.15
0
LINE
8
BLACK
6
CONTINUOUS
10
89.285
20
-106.15
11
89.285
21
-91.65
0
LINE
8
BLACK
6
CONTINUOUS
10
89.285
20
-91.65
11
74.785
21
-91.65
0
LINE
8
BLACK
6
CONTINUOUS
10
74.785
20
-106.15
11
89.285
21
-106.15
0
LINE
8
BLACK
6
CONTINUOUS
10
193.847
20
-110.7
11
193.847
21
-125.2
0
LINE
8
BLACK
6
CONTINUOUS
10
208.347
20
-125.2
11
208.347
21
-110.7
0
LINE
8
BLACK
6
CONTINUOUS
10
208.347
20
-110.7
11
193.847
21
-110.7
0
LINE
8
BLACK
6
CONTINUOUS
10
193.847
20
-125.2
11
208.347
21
-125.2
0
LINE
8
BLACK
6
CONTINUOUS
10
184.322
20
-91.65
11
184.322
21
-106.15
0
LINE
8
BLACK
6
CONTINUOUS
10
198.822
20
-106.15
11
198.822
21
-91.65
0
LINE
8
BLACK
6
CONTINUOUS
10
198.822
20
-91.65
11
184.322
21
-91.65
0
LINE
8
BLACK
6
CONTINUOUS
10
184.322
20
-106.15
11
198.822
21
-106.15
0
LINE
8
BLACK
6
CONTINUOUS
10
179.56
20
-72.6
11
179.56
21
-87.1
0
LINE
8
BLACK
6
CONTINUOUS
10
194.06
20
-87.1
11
194.06
21
-72.6
0
LINE
8
BLACK
6
CONTINUOUS
10
194.06
20
-72.6
11
179.56
21
-72.6
0
LINE
8
BLACK
6
CONTINUOUS
10
179.56
20
-87.1
11
194.06
21
-87.1
0
LINE
8
BLACK
6
CONTINUOUS
10
170.035
20
-53.55
11
170.035
21
-68.05
0
LINE
8
BLACK
6
CONTINUOUS
10
184.535
20
-68.05
11
184.535
21
-53.55
0
LINE
8
BLACK
6
CONTINUOUS
10
184.535
20
-53.55
11
170.035
21
-53.55
0
LINE
8
BLACK
6
CONTINUOUS
10
170.035
20
-68.05
11
184.535
21
-68.05
0
LINE
8
BLACK
6
CONTINUOUS
10
171.229
20
-155.75
11
171.229
21
-170.25
0
LINE
8
BLACK
6
CONTINUOUS
10
185.729
20
-170.25
11
185.729
21
-155.75
0
LINE
8
BLACK
6
CONTINUOUS
10
185.729
20
-155.75
11
171.229
21
-155.75
0
LINE
8
BLACK
6
CONTINUOUS
10
171.229
20
-170.25
11
185.729
21
-170.25
0
LINE
8
BLACK
6
CONTINUOUS
10
174.797
20
-110.7
11
174.797
21
-125.2
0
LINE
8
BLACK
6
CONTINUOUS
10
189.297
20
-125.2
11
189.297
21
-110.7
0
LINE
8
BLACK
6
CONTINUOUS
10
189.297
20
-110.7
11
174.797
21
-110.7
0
LINE
8
BLACK
6
CONTINUOUS
10
174.797
20
-125.2
11
189.297
21
-125.2
0
LINE
8
BLACK
6
CONTINUOUS
10
165.272
20
-91.65
11
165.272
21
-106.15
0
LINE
8
BLACK
6
CONTINUOUS
10
179.772
20
-106.15
11
179.772
21
-91.65
0
LINE
8
BLACK
6
CONTINUOUS
10
179.772
20
-91.65
11
165.272
21
-91.65
0
LINE
8
BLACK
6
CONTINUOUS
10
165.272
20
-106.15
11
179.772
21
-106.15
0
LINE
8
BLACK
6
CONTINUOUS
10
160.51
20
-72.6
11
160.51
21
-87.1
0
LINE
8
BLACK
6
CONTINUOUS
10
175.01
20
-87.1
11
175.01
21
-72.6
0
LINE
8
BLACK
6
CONTINUOUS
10
175.01
20
-72.6
11
160.51
21
-72.6
0
LINE
8
BLACK
6
CONTINUOUS
10
160.51
20
-87.1
11
175.01
21
-87.1
0
LINE
8
BLACK
6
CONTINUOUS
10
150.985
20
-53.55
11
150.985
21
-68.05
0
LINE
8
BLACK
6
CONTINUOUS
10
165.485
20
-68.05
11
165.485
21
-53.55
0
LINE
8
BLACK
6
CONTINUOUS
10
165.485
20
-53.55
11
150.985
21
-53.55
0
LINE
8
BLACK
6
CONTINUOUS
10
150.985
20
-68.05
11
165.485
21
-68.05
0
LINE
8
BLACK
6
CONTINUOUS
10
139.291
20
-144.25
11
139.291
21
-129.75
0
LINE
8
BLACK
6
CONTINUOUS
10
124.791
20
-129.75
11
124.791
21
-144.25
0
LINE
8
BLACK
6
CONTINUOUS
10
124.791
20
-144.25
11
139.291
21
-144.25
0
LINE
8
BLACK
6
CONTINUOUS
10
139.291
20
-129.75
11
124.791
21
-129.75
0
LINE
8
BLACK
6
CONTINUOUS
10
155.748
20
-110.7
11
155.748
21
-125.2
0
LINE
8
BLACK
6
CONTINUOUS
10
170.248
20
-125.2
11
170.248
21
-110.7
0
LINE
8
BLACK
6
CONTINUOUS
10
170.248
20
-110.7
11
155.748
21
-110.7
0
LINE
8
BLACK
6
CONTINUOUS
10
155.748
20
-125.2
11
170.248
21
-125.2
0
LINE
8
BLACK
6
CONTINUOUS
10
146.222
20
-91.65
11
146.222
21
-106.15
0
LINE
8
BLACK
6
CONTINUOUS
10
160.722
20
-106.15
11
160.722
21
-91.65
0
LINE
8
BLACK
6
CONTINUOUS
10
160.722
20
-91.65
11
146.222
21
-91.65
0
LINE
8
BLACK
6
CONTINUOUS
10
146.222
20
-106.15
11
160.722
21
-106.15
0
LINE
8
BLACK
6
CONTINUOUS
10
141.46
20
-72.6
11
141.46
21
-87.1
0
LINE
8
BLACK
6
CONTINUOUS
10
155.96
20
-87.1
11
155.96
21
-72.6
0
LINE
8
BLACK
6
CONTINUOUS
10
155.96
20
-72.6
11
141.46
21
-72.6
0
LINE
8
BLACK
6
CONTINUOUS
10
141.46
20
-87.1
11
155.96
21
-87.1
0
LINE
8
BLACK
6
CONTINUOUS
10
131.935
20
-53.55
11
131.935
21
-68.05
0
LINE
8
BLACK
6
CONTINUOUS
10
146.435
20
-68.05
11
146.435
21
-53.55
0
LINE
8
BLACK
6
CONTINUOUS
10
146.435
20
-53.55
11
131.935
21
-53.55
0
LINE
8
BLACK
6
CONTINUOUS
10
131.935
20
-68.05
11
146.435
21
-68.05
0
LINE
8
BLACK
6
CONTINUOUS
10
115.479
20
-144.25
11
115.479
21
-129.75
0
LINE
8
BLACK
6
CONTINUOUS
10
100.979
20
-129.75
11
100.979
21
-144.25
0
LINE
8
BLACK
6
CONTINUOUS
10
100.979
20
-144.25
11
115.479
21
-144.25
0
LINE
8
BLACK
6
CONTINUOUS
10
115.479
20
-129.75
11
100.979
21
-129.75
0
LINE
8
BLACK
6
CONTINUOUS
10
136.697
20
-110.7
11
136.697
21
-125.2
0
LINE
8
BLACK
6
CONTINUOUS
10
151.197
20
-125.2
11
151.197
21
-110.7
0
LINE
8
BLACK
6
CONTINUOUS
10
151.197
20
-110.7
11
136.697
21
-110.7
0
LINE
8
BLACK
6
CONTINUOUS
10
136.697
20
-125.2
11
151.197
21
-125.2
0
LINE
8
BLACK
6
CONTINUOUS
10
127.172
20
-91.65
11
127.172
21
-106.15
0
LINE
8
BLACK
6
CONTINUOUS
10
141.672
20
-106.15
11
141.672
21
-91.65
0
LINE
8
BLACK
6
CONTINUOUS
10
141.672
20
-91.65
11
127.172
21
-91.65
0
LINE
8
BLACK
6
CONTINUOUS
10
127.172
20
-106.15
11
141.672
21
-106.15
0
LINE
8
BLACK
6
CONTINUOUS
10
122.41
20
-72.6
11
122.41
21
-87.1
0
LINE
8
BLACK
6
CONTINUOUS
10
136.91
20
-87.1
11
136.91
21
-72.6
0
LINE
8
BLACK
6
CONTINUOUS
10
136.91
20
-72.6
11
122.41
21
-72.6
0
LINE
8
BLACK
6
CONTINUOUS
10
122.41
20
-87.1
11
136.91
21
-87.1
0
LINE
8
BLACK
6
CONTINUOUS
10
112.885
20
-53.55
11
112.885
21
-68.05
0
LINE
8
BLACK
6
CONTINUOUS
10
127.385
20
-68.05
11
127.385
21
-53.55
0
LINE
8
BLACK
6
CONTINUOUS
10
127.385
20
-53.55
11
112.885
21
-53.55
0
LINE
8
BLACK
6
CONTINUOUS
10
112.885
20
-68.05
11
127.385
21
-68.05
0
LINE
8
BLACK
6
CONTINUOUS
10
91.6662
20
-144.25
11
91.6662
21
-129.75
0
LINE
8
BLACK
6
CONTINUOUS
10
77.1662
20
-129.75
11
77.1662
21
-144.25
0
LINE
8
BLACK
6
CONTINUOUS
10
77.1662
20
-144.25
11
91.6662
21
-144.25
0
LINE
8
BLACK
6
CONTINUOUS
10
91.6662
20
-129.75
11
77.1662
21
-129.75
0
LINE
8
BLACK
6
CONTINUOUS
10
120.241
20
-125.2
11
120.241
21
-110.7
0
LINE
8
BLACK
6
CONTINUOUS
10
105.741
20
-125.2
11
120.241
21
-125.2
0
LINE
8
BLACK
6
CONTINUOUS
10
120.241
20
-110.7
11
105.741
21
-110.7
0
LINE
8
BLACK
6
CONTINUOUS
10
105.741
20
-110.7
11
105.741
21
-125.2
0
LINE
8
BLACK
6
CONTINUOUS
10
115.479
20
-91.65
11
100.979
21
-91.65
0
LINE
8
BLACK
6
CONTINUOUS
10
100.979
20
-106.15
11
115.479
21
-106.15
0
LINE
8
BLACK
6
CONTINUOUS
10
115.479
20
-106.15
11
115.479
21
-91.65
0
LINE
8
BLACK
6
CONTINUOUS
10
100.979
20
-91.65
11
100.979
21
-106.15
0
LINE
8
BLACK
6
CONTINUOUS
10
98.5975
20
-72.6
11
98.5975
21
-87.1
0
LINE
8
BLACK
6
CONTINUOUS
10
113.097
20
-72.6
11
98.5975
21
-72.6
0
LINE
8
BLACK
6
CONTINUOUS
10
98.5975
20
-87.1
11
113.097
21
-87.1
0
LINE
8
BLACK
6
CONTINUOUS
10
113.097
20
-87.1
11
113.097
21
-72.6
0
LINE
8
BLACK
6
CONTINUOUS
10
93.835
20
-53.55
11
93.835
21
-68.05
0
LINE
8
BLACK
6
CONTINUOUS
10
108.335
20
-68.05
11
108.335
21
-53.55
0
LINE
8
BLACK
6
CONTINUOUS
10
108.335
20
-53.55
11
93.835
21
-53.55
0
LINE
8
BLACK
6
CONTINUOUS
10
93.835
20
-68.05
11
108.335
21
-68.05
0
LINE
8
BLACK
6
CONTINUOUS
10
73.055
20
-53.12
11
73.055
21
-68.52
0
LINE
8
BLACK
6
CONTINUOUS
10
90.555
20
-68.52
11
90.555
21
-53.12
0
LINE
8
BLACK
6
CONTINUOUS
10
90.555
20
-68.52
11
73.055
21
-68.52
0
LINE
8
BLACK
6
CONTINUOUS
10
73.055
20
-53.12
11
90.555
21
-53.12
0
LINE
8
BLACK
6
CONTINUOUS
10
69.54
20
-91.76
11
72.54
21
-91.76
0
LINE
8
BLACK
6
CONTINUOUS
10
72.54
20
-91.76
11
72.54
21
-79.5
0
LINE
8
BLACK
6
CONTINUOUS
10
69.54
20
-79.5
11
69.54
21
-91.76
0
LINE
8
BLACK
6
CONTINUOUS
10
72.54
20
-79.5
11
69.54
21
-79.5
0
LINE
8
BLACK
6
CONTINUOUS
10
69.54
20
-79.46
11
72.54
21
-79.46
0
LINE
8
BLACK
6
CONTINUOUS
10
72.54
20
-79.46
11
72.54
21
-67.2
0
LINE
8
BLACK
6
CONTINUOUS
10
69.54
20
-67.2
11
69.54
21
-79.46
0
LINE
8
BLACK
6
CONTINUOUS
10
72.54
20
-67.2
11
69.54
21
-67.2
0
LINE
8
BLACK
6
CONTINUOUS
10
66.44
20
-91.76
11
69.44
21
-91.76
0
LINE
8
BLACK
6
CONTINUOUS
10
69.44
20
-91.76
11
69.44
21
-79.5
0
LINE
8
BLACK
6
CONTINUOUS
10
66.44
20
-79.5
11
66.44
21
-91.76
0
LINE
8
BLACK
6
CONTINUOUS
10
69.44
20
-79.5
11
66.44
21
-79.5
0
LINE
8
BLACK
6
CONTINUOUS
10
66.44
20
-79.46
11
69.44
21
-79.46
0
LINE
8
BLACK
6
CONTINUOUS
10
69.44
20
-79.46
11
69.44
21
-67.2
0
LINE
8
BLACK
6
CONTINUOUS
10
66.44
20
-67.2
11
66.44
21
-79.46
0
LINE
8
BLACK
6
CONTINUOUS
10
69.44
20
-67.2
11
66.44
21
-67.2
0
LINE
8
BLACK
6
CONTINUOUS
10
126.87
20
-156.22
11
126.87
21
-164.87
0
LINE
8
BLACK
6
CONTINUOUS
10
130.47
20
-156.22
11
126.87
21
-156.22
0
LINE
8
BLACK
6
CONTINUOUS
10
126.87
20
-164.87
11
130.47
21
-164.87
0
LINE
8
BLACK
6
CONTINUOUS
10
130.47
20
-164.87
11
130.47
21
-156.22
0
LINE
8
BLACK
6
CONTINUOUS
10
164.67
20
-176.63
11
164.67
21
-148.63
0
LINE
8
BLACK
6
CONTINUOUS
10
135.67
20
-176.63
11
135.67
21
-148.63
0
LINE
8
BLACK
6
CONTINUOUS
10
135.67
20
-176.63
11
164.67
21
-176.63
0
LINE
8
BLACK
6
CONTINUOUS
10
164.67
20
-148.63
11
135.67
21
-148.63
0
LINE
8
BLACK
6
CONTINUOUS
10
93.8875
20
-164.91
11
93.8875
21
-162.61
0
LINE
8
BLACK
6
CONTINUOUS
10
98.8475
20
-162.61
11
98.8475
21
-164.91
0
LINE
8
BLACK
6
CONTINUOUS
10
93.8875
20
-162.61
11
98.8475
21
-162.61
0
LINE
8
BLACK
6
CONTINUOUS
10
98.8475
20
-164.91
11
93.8875
21
-164.91
0
LINE
8
BLACK
6
CONTINUOUS
10
107.06
20
-162.61
11
107.06
21
-164.91
0
LINE
8
BLACK
6
CONTINUOUS
10
102.1
20
-164.91
11
102.1
21
-162.61
0
LINE
8
BLACK
6
CONTINUOUS
10
107.06
20
-164.91
11
102.1
21
-164.91
0
LINE
8
BLACK
6
CONTINUOUS
10
102.1
20
-162.61
11
107.06
21
-162.61
  0
ENDSEC
  0
EOF
