  0
SECTION
  2
HEADER
  9
$ANGBASE
  50
0.0
  9
$ANGDIR
  70
1
  9
$MEASUREMENT
  70
1
  0
ENDSEC
  0
SECTION
  2
TABLES
  0
TABLE
  2
LTYPE
  70
4
  0
LTYPE
  5
40F
  2
CONTINUOUS
  70
0
  3
Solid line
  72
65
  73
0
  40
0.0
  0
LTYPE
  5
410
  2
DASHDOT
 70
0
  3
Dash Dot ____ _ ____ _
 72
65
 73
4
 40
2.0
 49
1.25
 49
-0.25
 49
0.25
 49
-0.25
  0
LTYPE
  5
411
  2
DASHED
 70
0
  3
Dashed __ __ __ __ __
 72
65
 73
2
 40
0.75
 49
0.5
 49
-0.25
  0
LTYPE
  5
43B
  2
DOTTED
 70
0
  3
Dotted .  .  .  .
 72
65
 73
2
 40
0.2
 49
0.0
 49
-0.2
  0
ENDTAB
  0
TABLE
  2
STYLE
  70
4
  0
STYLE
  2
KICAD
  70
0
  40
0
  41
1
  42
1
  50
0
  71
0
  3
isocp.shx
  0
STYLE
  2
KICADB
  70
0
  40
0
  41
1
  42
1
  50
0
  71
0
  3
isocp.shx
  0
STYLE
  2
KICADI
  70
0
  40
0
  41
1
  42
1
  50
15
  71
0
  3
isocp.shx
  0
STYLE
  2
KICADBI
  70
0
  40
0
  41
1
  42
1
  50
15
  71
0
  3
isocp.shx
  0
ENDTAB
  0
TABLE
  2
LAYER
  70
1
  0
LAYER
  2
BLACK
  70
0
  62
7
  6
CONTINUOUS
  0
ENDTAB
  0
ENDSEC
  0
SECTION
  2
ENTITIES
0
LINE
8
BLACK
6
CONTINUOUS
10
95.3132
20
-162.879
11
95.3943
21
-162.933
0
LINE
8
BLACK
6
CONTINUOUS
10
95.3943
20
-162.933
11
95.4485
21
-163.014
0
LINE
8
BLACK
6
CONTINUOUS
10
95.4485
20
-163.014
11
95.4675
21
-163.11
0
LINE
8
BLACK
6
CONTINUOUS
10
95.4675
20
-163.11
11
95.4675
21
-164.41
0
LINE
8
BLACK
6
CONTINUOUS
10
95.4675
20
-164.41
11
95.4485
21
-164.506
0
LINE
8
BLACK
6
CONTINUOUS
10
95.4485
20
-164.506
11
95.3943
21
-164.587
0
LINE
8
BLACK
6
CONTINUOUS
10
95.3943
20
-164.587
11
95.3132
21
-164.641
0
LINE
8
BLACK
6
CONTINUOUS
10
95.3132
20
-164.641
11
95.2175
21
-164.66
0
LINE
8
BLACK
6
CONTINUOUS
10
95.2175
20
-164.66
11
94.3925
21
-164.66
0
LINE
8
BLACK
6
CONTINUOUS
10
94.3925
20
-164.66
11
94.2968
21
-164.641
0
LINE
8
BLACK
6
CONTINUOUS
10
94.2968
20
-164.641
11
94.2157
21
-164.587
0
LINE
8
BLACK
6
CONTINUOUS
10
94.2157
20
-164.587
11
94.1615
21
-164.506
0
LINE
8
BLACK
6
CONTINUOUS
10
94.1615
20
-164.506
11
94.1425
21
-164.41
0
LINE
8
BLACK
6
CONTINUOUS
10
94.1425
20
-164.41
11
94.1425
21
-163.11
0
LINE
8
BLACK
6
CONTINUOUS
10
94.1425
20
-163.11
11
94.1615
21
-163.014
0
LINE
8
BLACK
6
CONTINUOUS
10
94.1615
20
-163.014
11
94.2157
21
-162.933
0
LINE
8
BLACK
6
CONTINUOUS
10
94.2157
20
-162.933
11
94.2968
21
-162.879
0
LINE
8
BLACK
6
CONTINUOUS
10
94.2968
20
-162.879
11
94.3925
21
-162.86
0
LINE
8
BLACK
6
CONTINUOUS
10
94.3925
20
-162.86
11
95.2175
21
-162.86
0
LINE
8
BLACK
6
CONTINUOUS
10
95.2175
20
-162.86
11
95.3132
21
-162.879
0
LINE
8
BLACK
6
CONTINUOUS
10
98.4382
20
-162.879
11
98.5193
21
-162.933
0
LINE
8
BLACK
6
CONTINUOUS
10
98.5193
20
-162.933
11
98.5735
21
-163.014
0
LINE
8
BLACK
6
CONTINUOUS
10
98.5735
20
-163.014
11
98.5925
21
-163.11
0
LINE
8
BLACK
6
CONTINUOUS
10
98.5925
20
-163.11
11
98.5925
21
-164.41
0
LINE
8
BLACK
6
CONTINUOUS
10
98.5925
20
-164.41
11
98.5735
21
-164.506
0
LINE
8
BLACK
6
CONTINUOUS
10
98.5735
20
-164.506
11
98.5193
21
-164.587
0
LINE
8
BLACK
6
CONTINUOUS
10
98.5193
20
-164.587
11
98.4382
21
-164.641
0
LINE
8
BLACK
6
CONTINUOUS
10
98.4382
20
-164.641
11
98.3425
21
-164.66
0
LINE
8
BLACK
6
CONTINUOUS
10
98.3425
20
-164.66
11
97.5175
21
-164.66
0
LINE
8
BLACK
6
CONTINUOUS
10
97.5175
20
-164.66
11
97.4218
21
-164.641
0
LINE
8
BLACK
6
CONTINUOUS
10
97.4218
20
-164.641
11
97.3407
21
-164.587
0
LINE
8
BLACK
6
CONTINUOUS
10
97.3407
20
-164.587
11
97.2865
21
-164.506
0
LINE
8
BLACK
6
CONTINUOUS
10
97.2865
20
-164.506
11
97.2675
21
-164.41
0
LINE
8
BLACK
6
CONTINUOUS
10
97.2675
20
-164.41
11
97.2675
21
-163.11
0
LINE
8
BLACK
6
CONTINUOUS
10
97.2675
20
-163.11
11
97.2865
21
-163.014
0
LINE
8
BLACK
6
CONTINUOUS
10
97.2865
20
-163.014
11
97.3407
21
-162.933
0
LINE
8
BLACK
6
CONTINUOUS
10
97.3407
20
-162.933
11
97.4218
21
-162.879
0
LINE
8
BLACK
6
CONTINUOUS
10
97.4218
20
-162.879
11
97.5175
21
-162.86
0
LINE
8
BLACK
6
CONTINUOUS
10
97.5175
20
-162.86
11
98.3425
21
-162.86
0
LINE
8
BLACK
6
CONTINUOUS
10
98.3425
20
-162.86
11
98.4382
21
-162.879
0
LINE
8
BLACK
6
CONTINUOUS
10
106.651
20
-162.879
11
106.732
21
-162.933
0
LINE
8
BLACK
6
CONTINUOUS
10
106.732
20
-162.933
11
106.786
21
-163.014
0
LINE
8
BLACK
6
CONTINUOUS
10
106.786
20
-163.014
11
106.805
21
-163.11
0
LINE
8
BLACK
6
CONTINUOUS
10
106.805
20
-163.11
11
106.805
21
-164.41
0
LINE
8
BLACK
6
CONTINUOUS
10
106.805
20
-164.41
11
106.786
21
-164.506
0
LINE
8
BLACK
6
CONTINUOUS
10
106.786
20
-164.506
11
106.732
21
-164.587
0
LINE
8
BLACK
6
CONTINUOUS
10
106.732
20
-164.587
11
106.651
21
-164.641
0
LINE
8
BLACK
6
CONTINUOUS
10
106.651
20
-164.641
11
106.555
21
-164.66
0
LINE
8
BLACK
6
CONTINUOUS
10
106.555
20
-164.66
11
105.73
21
-164.66
0
LINE
8
BLACK
6
CONTINUOUS
10
105.73
20
-164.66
11
105.634
21
-164.641
0
LINE
8
BLACK
6
CONTINUOUS
10
105.634
20
-164.641
11
105.553
21
-164.587
0
LINE
8
BLACK
6
CONTINUOUS
10
105.553
20
-164.587
11
105.499
21
-164.506
0
LINE
8
BLACK
6
CONTINUOUS
10
105.499
20
-164.506
11
105.48
21
-164.41
0
LINE
8
BLACK
6
CONTINUOUS
10
105.48
20
-164.41
11
105.48
21
-163.11
0
LINE
8
BLACK
6
CONTINUOUS
10
105.48
20
-163.11
11
105.499
21
-163.014
0
LINE
8
BLACK
6
CONTINUOUS
10
105.499
20
-163.014
11
105.553
21
-162.933
0
LINE
8
BLACK
6
CONTINUOUS
10
105.553
20
-162.933
11
105.634
21
-162.879
0
LINE
8
BLACK
6
CONTINUOUS
10
105.634
20
-162.879
11
105.73
21
-162.86
0
LINE
8
BLACK
6
CONTINUOUS
10
105.73
20
-162.86
11
106.555
21
-162.86
0
LINE
8
BLACK
6
CONTINUOUS
10
106.555
20
-162.86
11
106.651
21
-162.879
0
LINE
8
BLACK
6
CONTINUOUS
10
103.526
20
-162.879
11
103.607
21
-162.933
0
LINE
8
BLACK
6
CONTINUOUS
10
103.607
20
-162.933
11
103.661
21
-163.014
0
LINE
8
BLACK
6
CONTINUOUS
10
103.661
20
-163.014
11
103.68
21
-163.11
0
LINE
8
BLACK
6
CONTINUOUS
10
103.68
20
-163.11
11
103.68
21
-164.41
0
LINE
8
BLACK
6
CONTINUOUS
10
103.68
20
-164.41
11
103.661
21
-164.506
0
LINE
8
BLACK
6
CONTINUOUS
10
103.661
20
-164.506
11
103.607
21
-164.587
0
LINE
8
BLACK
6
CONTINUOUS
10
103.607
20
-164.587
11
103.526
21
-164.641
0
LINE
8
BLACK
6
CONTINUOUS
10
103.526
20
-164.641
11
103.43
21
-164.66
0
LINE
8
BLACK
6
CONTINUOUS
10
103.43
20
-164.66
11
102.605
21
-164.66
0
LINE
8
BLACK
6
CONTINUOUS
10
102.605
20
-164.66
11
102.509
21
-164.641
0
LINE
8
BLACK
6
CONTINUOUS
10
102.509
20
-164.641
11
102.428
21
-164.587
0
LINE
8
BLACK
6
CONTINUOUS
10
102.428
20
-164.587
11
102.374
21
-164.506
0
LINE
8
BLACK
6
CONTINUOUS
10
102.374
20
-164.506
11
102.355
21
-164.41
0
LINE
8
BLACK
6
CONTINUOUS
10
102.355
20
-164.41
11
102.355
21
-163.11
0
LINE
8
BLACK
6
CONTINUOUS
10
102.355
20
-163.11
11
102.374
21
-163.014
0
LINE
8
BLACK
6
CONTINUOUS
10
102.374
20
-163.014
11
102.428
21
-162.933
0
LINE
8
BLACK
6
CONTINUOUS
10
102.428
20
-162.933
11
102.509
21
-162.879
0
LINE
8
BLACK
6
CONTINUOUS
10
102.509
20
-162.879
11
102.605
21
-162.86
0
LINE
8
BLACK
6
CONTINUOUS
10
102.605
20
-162.86
11
103.43
21
-162.86
0
LINE
8
BLACK
6
CONTINUOUS
10
103.43
20
-162.86
11
103.526
21
-162.879
0
LINE
8
BLACK
6
CONTINUOUS
10
68.623
20
-179.293
11
68.2088
21
-179.241
0
LINE
8
BLACK
6
CONTINUOUS
10
68.2088
20
-179.241
11
67.8003
21
-179.155
0
LINE
8
BLACK
6
CONTINUOUS
10
67.8003
20
-179.155
11
67.4003
21
-179.036
0
LINE
8
BLACK
6
CONTINUOUS
10
67.4003
20
-179.036
11
67.0114
21
-178.885
0
LINE
8
BLACK
6
CONTINUOUS
10
67.0114
20
-178.885
11
66.6365
21
-178.701
0
LINE
8
BLACK
6
CONTINUOUS
10
66.6365
20
-178.701
11
66.2779
21
-178.488
0
LINE
8
BLACK
6
CONTINUOUS
10
66.2779
20
-178.488
11
65.9382
21
-178.245
0
LINE
8
BLACK
6
CONTINUOUS
10
65.9382
20
-178.245
11
65.6197
21
-177.975
0
LINE
8
BLACK
6
CONTINUOUS
10
65.6197
20
-177.975
11
65.3246
21
-177.68
0
LINE
8
BLACK
6
CONTINUOUS
10
65.3246
20
-177.68
11
65.0548
21
-177.362
0
LINE
8
BLACK
6
CONTINUOUS
10
65.0548
20
-177.362
11
64.8123
21
-177.022
0
LINE
8
BLACK
6
CONTINUOUS
10
64.8123
20
-177.022
11
64.5987
21
-176.664
0
LINE
8
BLACK
6
CONTINUOUS
10
64.5987
20
-176.664
11
64.4153
21
-176.289
0
LINE
8
BLACK
6
CONTINUOUS
10
64.4153
20
-176.289
11
64.2636
21
-175.9
0
LINE
8
BLACK
6
CONTINUOUS
10
64.2636
20
-175.9
11
64.1445
21
-175.5
0
LINE
8
BLACK
6
CONTINUOUS
10
64.1445
20
-175.5
11
64.0589
21
-175.091
0
LINE
8
BLACK
6
CONTINUOUS
10
64.0589
20
-175.091
11
64.0072
21
-174.677
0
LINE
8
BLACK
6
CONTINUOUS
10
64.0072
20
-174.677
11
63.99
21
-174.26
0
LINE
8
BLACK
6
CONTINUOUS
10
63.99
20
-174.26
11
63.99
21
-55.51
0
LINE
8
BLACK
6
CONTINUOUS
10
63.99
20
-55.51
11
64.0072
21
-55.093
0
LINE
8
BLACK
6
CONTINUOUS
10
64.0072
20
-55.093
11
64.0589
21
-54.6788
0
LINE
8
BLACK
6
CONTINUOUS
10
64.0589
20
-54.6788
11
64.1445
21
-54.2703
0
LINE
8
BLACK
6
CONTINUOUS
10
64.1445
20
-54.2703
11
64.2636
21
-53.8703
0
LINE
8
BLACK
6
CONTINUOUS
10
64.2636
20
-53.8703
11
64.4153
21
-53.4814
0
LINE
8
BLACK
6
CONTINUOUS
10
64.4153
20
-53.4814
11
64.5987
21
-53.1065
0
LINE
8
BLACK
6
CONTINUOUS
10
64.5987
20
-53.1065
11
64.8123
21
-52.7479
0
LINE
8
BLACK
6
CONTINUOUS
10
64.8123
20
-52.7479
11
65.0548
21
-52.4082
0
LINE
8
BLACK
6
CONTINUOUS
10
65.0548
20
-52.4082
11
65.3246
21
-52.0897
0
LINE
8
BLACK
6
CONTINUOUS
10
65.3246
20
-52.0897
11
65.6197
21
-51.7946
0
LINE
8
BLACK
6
CONTINUOUS
10
65.6197
20
-51.7946
11
65.9382
21
-51.5248
0
LINE
8
BLACK
6
CONTINUOUS
10
65.9382
20
-51.5248
11
66.2779
21
-51.2823
0
LINE
8
BLACK
6
CONTINUOUS
10
66.2779
20
-51.2823
11
66.6365
21
-51.0687
0
LINE
8
BLACK
6
CONTINUOUS
10
66.6365
20
-51.0687
11
67.0114
21
-50.8853
0
LINE
8
BLACK
6
CONTINUOUS
10
67.0114
20
-50.8853
11
67.4003
21
-50.7336
0
LINE
8
BLACK
6
CONTINUOUS
10
67.4003
20
-50.7336
11
67.8003
21
-50.6145
0
LINE
8
BLACK
6
CONTINUOUS
10
67.8003
20
-50.6145
11
68.2088
21
-50.5289
0
LINE
8
BLACK
6
CONTINUOUS
10
68.2088
20
-50.5289
11
68.623
21
-50.4772
0
LINE
8
BLACK
6
CONTINUOUS
10
68.623
20
-50.4772
11
69.04
21
-50.46
0
LINE
8
BLACK
6
CONTINUOUS
10
69.04
20
-50.46
11
380.87
21
-50.46
0
LINE
8
BLACK
6
CONTINUOUS
10
380.87
20
-50.46
11
381.287
21
-50.4772
0
LINE
8
BLACK
6
CONTINUOUS
10
381.287
20
-50.4772
11
381.701
21
-50.5289
0
LINE
8
BLACK
6
CONTINUOUS
10
381.701
20
-50.5289
11
382.11
21
-50.6145
0
LINE
8
BLACK
6
CONTINUOUS
10
382.11
20
-50.6145
11
382.51
21
-50.7336
0
LINE
8
BLACK
6
CONTINUOUS
10
382.51
20
-50.7336
11
382.899
21
-50.8853
0
LINE
8
BLACK
6
CONTINUOUS
10
382.899
20
-50.8853
11
383.274
21
-51.0687
0
LINE
8
BLACK
6
CONTINUOUS
10
383.274
20
-51.0687
11
383.632
21
-51.2823
0
LINE
8
BLACK
6
CONTINUOUS
10
383.632
20
-51.2823
11
383.972
21
-51.5248
0
LINE
8
BLACK
6
CONTINUOUS
10
383.972
20
-51.5248
11
384.29
21
-51.7946
0
LINE
8
BLACK
6
CONTINUOUS
10
384.29
20
-51.7946
11
384.585
21
-52.0897
0
LINE
8
BLACK
6
CONTINUOUS
10
384.585
20
-52.0897
11
384.855
21
-52.4082
0
LINE
8
BLACK
6
CONTINUOUS
10
384.855
20
-52.4082
11
385.098
21
-52.7479
0
LINE
8
BLACK
6
CONTINUOUS
10
385.098
20
-52.7479
11
385.311
21
-53.1065
0
LINE
8
BLACK
6
CONTINUOUS
10
385.311
20
-53.1065
11
385.495
21
-53.4814
0
LINE
8
BLACK
6
CONTINUOUS
10
385.495
20
-53.4814
11
385.646
21
-53.8703
0
LINE
8
BLACK
6
CONTINUOUS
10
385.646
20
-53.8703
11
385.765
21
-54.2703
0
LINE
8
BLACK
6
CONTINUOUS
10
385.765
20
-54.2703
11
385.851
21
-54.6788
0
LINE
8
BLACK
6
CONTINUOUS
10
385.851
20
-54.6788
11
385.903
21
-55.093
0
LINE
8
BLACK
6
CONTINUOUS
10
385.903
20
-55.093
11
385.92
21
-55.51
0
LINE
8
BLACK
6
CONTINUOUS
10
385.92
20
-55.51
11
385.92
21
-174.26
0
LINE
8
BLACK
6
CONTINUOUS
10
385.92
20
-174.26
11
385.903
21
-174.677
0
LINE
8
BLACK
6
CONTINUOUS
10
385.903
20
-174.677
11
385.851
21
-175.091
0
LINE
8
BLACK
6
CONTINUOUS
10
385.851
20
-175.091
11
385.765
21
-175.5
0
LINE
8
BLACK
6
CONTINUOUS
10
385.765
20
-175.5
11
385.646
21
-175.9
0
LINE
8
BLACK
6
CONTINUOUS
10
385.646
20
-175.9
11
385.495
21
-176.289
0
LINE
8
BLACK
6
CONTINUOUS
10
385.495
20
-176.289
11
385.311
21
-176.664
0
LINE
8
BLACK
6
CONTINUOUS
10
385.311
20
-176.664
11
385.098
21
-177.022
0
LINE
8
BLACK
6
CONTINUOUS
10
385.098
20
-177.022
11
384.855
21
-177.362
0
LINE
8
BLACK
6
CONTINUOUS
10
384.855
20
-177.362
11
384.585
21
-177.68
0
LINE
8
BLACK
6
CONTINUOUS
10
384.585
20
-177.68
11
384.29
21
-177.975
0
LINE
8
BLACK
6
CONTINUOUS
10
384.29
20
-177.975
11
383.972
21
-178.245
0
LINE
8
BLACK
6
CONTINUOUS
10
383.972
20
-178.245
11
383.632
21
-178.488
0
LINE
8
BLACK
6
CONTINUOUS
10
383.632
20
-178.488
11
383.274
21
-178.701
0
LINE
8
BLACK
6
CONTINUOUS
10
383.274
20
-178.701
11
382.899
21
-178.885
0
LINE
8
BLACK
6
CONTINUOUS
10
382.899
20
-178.885
11
382.51
21
-179.036
0
LINE
8
BLACK
6
CONTINUOUS
10
382.51
20
-179.036
11
382.11
21
-179.155
0
LINE
8
BLACK
6
CONTINUOUS
10
382.11
20
-179.155
11
381.701
21
-179.241
0
LINE
8
BLACK
6
CONTINUOUS
10
381.701
20
-179.241
11
381.287
21
-179.293
0
LINE
8
BLACK
6
CONTINUOUS
10
381.287
20
-179.293
11
380.87
21
-179.31
0
LINE
8
BLACK
6
CONTINUOUS
10
380.87
20
-179.31
11
69.04
21
-179.31
0
LINE
8
BLACK
6
CONTINUOUS
10
69.04
20
-179.31
11
68.623
21
-179.293
0
LINE
8
BLACK
6
CONTINUOUS
10
69.0297
20
-50.5557
11
68.6082
21
-50.5741
0
LINE
8
BLACK
6
CONTINUOUS
10
68.6082
20
-50.5741
11
68.1796
21
-50.6306
0
LINE
8
BLACK
6
CONTINUOUS
10
68.1796
20
-50.6306
11
67.7576
21
-50.7241
0
LINE
8
BLACK
6
CONTINUOUS
10
67.7576
20
-50.7241
11
67.3454
21
-50.8541
0
LINE
8
BLACK
6
CONTINUOUS
10
67.3454
20
-50.8541
11
66.946
21
-51.0195
0
LINE
8
BLACK
6
CONTINUOUS
10
66.946
20
-51.0195
11
66.5626
21
-51.2191
0
LINE
8
BLACK
6
CONTINUOUS
10
66.5626
20
-51.2191
11
66.1981
21
-51.4513
0
LINE
8
BLACK
6
CONTINUOUS
10
66.1981
20
-51.4513
11
65.8552
21
-51.7145
0
LINE
8
BLACK
6
CONTINUOUS
10
65.8552
20
-51.7145
11
65.5365
21
-52.0065
0
LINE
8
BLACK
6
CONTINUOUS
10
65.5365
20
-52.0065
11
65.2445
21
-52.3252
0
LINE
8
BLACK
6
CONTINUOUS
10
65.2445
20
-52.3252
11
64.9813
21
-52.6681
0
LINE
8
BLACK
6
CONTINUOUS
10
64.9813
20
-52.6681
11
64.7491
21
-53.0326
0
LINE
8
BLACK
6
CONTINUOUS
10
64.7491
20
-53.0326
11
64.5495
21
-53.416
0
LINE
8
BLACK
6
CONTINUOUS
10
64.5495
20
-53.416
11
64.3841
21
-53.8154
0
LINE
8
BLACK
6
CONTINUOUS
10
64.3841
20
-53.8154
11
64.2541
21
-54.2276
0
LINE
8
BLACK
6
CONTINUOUS
10
64.2541
20
-54.2276
11
64.1606
21
-54.6496
0
LINE
8
BLACK
6
CONTINUOUS
10
64.1606
20
-54.6496
11
64.1041
21
-55.0782
0
LINE
8
BLACK
6
CONTINUOUS
10
64.1041
20
-55.0782
11
64.0857
21
-55.4997
0
LINE
8
BLACK
6
CONTINUOUS
10
64.0857
20
-55.4997
11
64.09
21
-55.51
0
LINE
8
BLACK
6
CONTINUOUS
10
64.09
20
-55.51
11
64.09
21
-174.26
0
LINE
8
BLACK
6
CONTINUOUS
10
64.09
20
-174.26
11
64.0857
21
-174.27
0
LINE
8
BLACK
6
CONTINUOUS
10
64.0857
20
-174.27
11
64.1041
21
-174.692
0
LINE
8
BLACK
6
CONTINUOUS
10
64.1041
20
-174.692
11
64.1606
21
-175.12
0
LINE
8
BLACK
6
CONTINUOUS
10
64.1606
20
-175.12
11
64.2541
21
-175.542
0
LINE
8
BLACK
6
CONTINUOUS
10
64.2541
20
-175.542
11
64.3841
21
-175.955
0
LINE
8
BLACK
6
CONTINUOUS
10
64.3841
20
-175.955
11
64.5495
21
-176.354
0
LINE
8
BLACK
6
CONTINUOUS
10
64.5495
20
-176.354
11
64.7491
21
-176.737
0
LINE
8
BLACK
6
CONTINUOUS
10
64.7491
20
-176.737
11
64.9813
21
-177.102
0
LINE
8
BLACK
6
CONTINUOUS
10
64.9813
20
-177.102
11
65.2445
21
-177.445
0
LINE
8
BLACK
6
CONTINUOUS
10
65.2445
20
-177.445
11
65.5365
21
-177.764
0
LINE
8
BLACK
6
CONTINUOUS
10
65.5365
20
-177.764
11
65.8552
21
-178.056
0
LINE
8
BLACK
6
CONTINUOUS
10
65.8552
20
-178.056
11
66.1981
21
-178.319
0
LINE
8
BLACK
6
CONTINUOUS
10
66.1981
20
-178.319
11
66.5626
21
-178.551
0
LINE
8
BLACK
6
CONTINUOUS
10
66.5626
20
-178.551
11
66.946
21
-178.75
0
LINE
8
BLACK
6
CONTINUOUS
10
66.946
20
-178.75
11
67.3454
21
-178.916
0
LINE
8
BLACK
6
CONTINUOUS
10
67.3454
20
-178.916
11
67.7576
21
-179.046
0
LINE
8
BLACK
6
CONTINUOUS
10
67.7576
20
-179.046
11
68.1796
21
-179.139
0
LINE
8
BLACK
6
CONTINUOUS
10
68.1796
20
-179.139
11
68.6082
21
-179.196
0
LINE
8
BLACK
6
CONTINUOUS
10
68.6082
20
-179.196
11
69.0297
21
-179.214
0
LINE
8
BLACK
6
CONTINUOUS
10
69.0297
20
-179.214
11
69.04
21
-179.21
0
LINE
8
BLACK
6
CONTINUOUS
10
69.04
20
-179.21
11
380.87
21
-179.21
0
LINE
8
BLACK
6
CONTINUOUS
10
380.87
20
-179.21
11
380.88
21
-179.214
0
LINE
8
BLACK
6
CONTINUOUS
10
380.88
20
-179.214
11
381.302
21
-179.196
0
LINE
8
BLACK
6
CONTINUOUS
10
381.302
20
-179.196
11
381.73
21
-179.139
0
LINE
8
BLACK
6
CONTINUOUS
10
381.73
20
-179.139
11
382.152
21
-179.046
0
LINE
8
BLACK
6
CONTINUOUS
10
382.152
20
-179.046
11
382.565
21
-178.916
0
LINE
8
BLACK
6
CONTINUOUS
10
382.565
20
-178.916
11
382.964
21
-178.75
0
LINE
8
BLACK
6
CONTINUOUS
10
382.964
20
-178.75
11
383.347
21
-178.551
0
LINE
8
BLACK
6
CONTINUOUS
10
383.347
20
-178.551
11
383.712
21
-178.319
0
LINE
8
BLACK
6
CONTINUOUS
10
383.712
20
-178.319
11
384.055
21
-178.056
0
LINE
8
BLACK
6
CONTINUOUS
10
384.055
20
-178.056
11
384.374
21
-177.764
0
LINE
8
BLACK
6
CONTINUOUS
10
384.374
20
-177.764
11
384.666
21
-177.445
0
LINE
8
BLACK
6
CONTINUOUS
10
384.666
20
-177.445
11
384.929
21
-177.102
0
LINE
8
BLACK
6
CONTINUOUS
10
384.929
20
-177.102
11
385.161
21
-176.737
0
LINE
8
BLACK
6
CONTINUOUS
10
385.161
20
-176.737
11
385.36
21
-176.354
0
LINE
8
BLACK
6
CONTINUOUS
10
385.36
20
-176.354
11
385.526
21
-175.955
0
LINE
8
BLACK
6
CONTINUOUS
10
385.526
20
-175.955
11
385.656
21
-175.542
0
LINE
8
BLACK
6
CONTINUOUS
10
385.656
20
-175.542
11
385.749
21
-175.12
0
LINE
8
BLACK
6
CONTINUOUS
10
385.749
20
-175.12
11
385.806
21
-174.692
0
LINE
8
BLACK
6
CONTINUOUS
10
385.806
20
-174.692
11
385.824
21
-174.27
0
LINE
8
BLACK
6
CONTINUOUS
10
385.824
20
-174.27
11
385.82
21
-174.26
0
LINE
8
BLACK
6
CONTINUOUS
10
385.82
20
-174.26
11
385.82
21
-55.51
0
LINE
8
BLACK
6
CONTINUOUS
10
385.82
20
-55.51
11
385.824
21
-55.4997
0
LINE
8
BLACK
6
CONTINUOUS
10
385.824
20
-55.4997
11
385.806
21
-55.0782
0
LINE
8
BLACK
6
CONTINUOUS
10
385.806
20
-55.0782
11
385.749
21
-54.6496
0
LINE
8
BLACK
6
CONTINUOUS
10
385.749
20
-54.6496
11
385.656
21
-54.2276
0
LINE
8
BLACK
6
CONTINUOUS
10
385.656
20
-54.2276
11
385.526
21
-53.8154
0
LINE
8
BLACK
6
CONTINUOUS
10
385.526
20
-53.8154
11
385.36
21
-53.416
0
LINE
8
BLACK
6
CONTINUOUS
10
385.36
20
-53.416
11
385.161
21
-53.0326
0
LINE
8
BLACK
6
CONTINUOUS
10
385.161
20
-53.0326
11
384.929
21
-52.6681
0
LINE
8
BLACK
6
CONTINUOUS
10
384.929
20
-52.6681
11
384.666
21
-52.3252
0
LINE
8
BLACK
6
CONTINUOUS
10
384.666
20
-52.3252
11
384.374
21
-52.0065
0
LINE
8
BLACK
6
CONTINUOUS
10
384.374
20
-52.0065
11
384.055
21
-51.7145
0
LINE
8
BLACK
6
CONTINUOUS
10
384.055
20
-51.7145
11
383.712
21
-51.4513
0
LINE
8
BLACK
6
CONTINUOUS
10
383.712
20
-51.4513
11
383.347
21
-51.2191
0
LINE
8
BLACK
6
CONTINUOUS
10
383.347
20
-51.2191
11
382.964
21
-51.0195
0
LINE
8
BLACK
6
CONTINUOUS
10
382.964
20
-51.0195
11
382.565
21
-50.8541
0
LINE
8
BLACK
6
CONTINUOUS
10
382.565
20
-50.8541
11
382.152
21
-50.7241
0
LINE
8
BLACK
6
CONTINUOUS
10
382.152
20
-50.7241
11
381.73
21
-50.6306
0
LINE
8
BLACK
6
CONTINUOUS
10
381.73
20
-50.6306
11
381.302
21
-50.5741
0
LINE
8
BLACK
6
CONTINUOUS
10
381.302
20
-50.5741
11
380.88
21
-50.5557
0
LINE
8
BLACK
6
CONTINUOUS
10
380.88
20
-50.5557
11
380.87
21
-50.56
0
LINE
8
BLACK
6
CONTINUOUS
10
380.87
20
-50.56
11
69.04
21
-50.56
0
LINE
8
BLACK
6
CONTINUOUS
10
69.04
20
-50.56
11
69.0297
21
-50.5557
  0
ENDSEC
  0
EOF
