  0
SECTION
  2
HEADER
  9
$ANGBASE
  50
0.0
  9
$ANGDIR
  70
1
  9
$MEASUREMENT
  70
1
  0
ENDSEC
  0
SECTION
  2
TABLES
  0
TABLE
  2
LTYPE
  70
4
  0
LTYPE
  5
40F
  2
CONTINUOUS
  70
0
  3
Solid line
  72
65
  73
0
  40
0.0
  0
LTYPE
  5
410
  2
DASHDOT
 70
0
  3
Dash Dot ____ _ ____ _
 72
65
 73
4
 40
2.0
 49
1.25
 49
-0.25
 49
0.25
 49
-0.25
  0
LTYPE
  5
411
  2
DASHED
 70
0
  3
Dashed __ __ __ __ __
 72
65
 73
2
 40
0.75
 49
0.5
 49
-0.25
  0
LTYPE
  5
43B
  2
DOTTED
 70
0
  3
Dotted .  .  .  .
 72
65
 73
2
 40
0.2
 49
0.0
 49
-0.2
  0
ENDTAB
  0
TABLE
  2
STYLE
  70
4
  0
STYLE
  2
KICAD
  70
0
  40
0
  41
1
  42
1
  50
0
  71
0
  3
isocp.shx
  0
STYLE
  2
KICADB
  70
0
  40
0
  41
1
  42
1
  50
0
  71
0
  3
isocp.shx
  0
STYLE
  2
KICADI
  70
0
  40
0
  41
1
  42
1
  50
15
  71
0
  3
isocp.shx
  0
STYLE
  2
KICADBI
  70
0
  40
0
  41
1
  42
1
  50
15
  71
0
  3
isocp.shx
  0
ENDTAB
  0
TABLE
  2
LAYER
  70
1
  0
LAYER
  2
BLACK
  70
0
  62
7
  6
CONTINUOUS
  0
ENDTAB
  0
ENDSEC
  0
SECTION
  2
ENTITIES
0
LINE
8
BLACK
6
CONTINUOUS
10
322.75
20
-67.699
11
322.75
21
-53.85
0
LINE
8
BLACK
6
CONTINUOUS
10
336.599
20
-67.699
11
322.75
21
-67.699
0
LINE
8
BLACK
6
CONTINUOUS
10
336.599
20
-53.85
11
336.599
21
-67.699
0
LINE
8
BLACK
6
CONTINUOUS
10
322.75
20
-53.85
11
336.599
21
-53.85
0
LINE
8
BLACK
6
CONTINUOUS
10
303.7
20
-67.699
11
303.7
21
-53.85
0
LINE
8
BLACK
6
CONTINUOUS
10
317.549
20
-67.699
11
303.7
21
-67.699
0
LINE
8
BLACK
6
CONTINUOUS
10
317.549
20
-53.85
11
317.549
21
-67.699
0
LINE
8
BLACK
6
CONTINUOUS
10
303.7
20
-53.85
11
317.549
21
-53.85
0
LINE
8
BLACK
6
CONTINUOUS
10
284.65
20
-67.699
11
284.65
21
-53.85
0
LINE
8
BLACK
6
CONTINUOUS
10
298.499
20
-67.699
11
284.65
21
-67.699
0
LINE
8
BLACK
6
CONTINUOUS
10
298.499
20
-53.85
11
298.499
21
-67.699
0
LINE
8
BLACK
6
CONTINUOUS
10
284.65
20
-53.85
11
298.499
21
-53.85
0
LINE
8
BLACK
6
CONTINUOUS
10
265.6
20
-67.699
11
265.6
21
-53.85
0
LINE
8
BLACK
6
CONTINUOUS
10
279.449
20
-67.699
11
265.6
21
-67.699
0
LINE
8
BLACK
6
CONTINUOUS
10
279.449
20
-53.85
11
279.449
21
-67.699
0
LINE
8
BLACK
6
CONTINUOUS
10
265.6
20
-53.85
11
279.449
21
-53.85
0
LINE
8
BLACK
6
CONTINUOUS
10
246.55
20
-67.699
11
246.55
21
-53.85
0
LINE
8
BLACK
6
CONTINUOUS
10
260.399
20
-67.699
11
246.55
21
-67.699
0
LINE
8
BLACK
6
CONTINUOUS
10
260.399
20
-53.85
11
260.399
21
-67.699
0
LINE
8
BLACK
6
CONTINUOUS
10
246.55
20
-53.85
11
260.399
21
-53.85
0
LINE
8
BLACK
6
CONTINUOUS
10
227.5
20
-67.699
11
227.5
21
-53.85
0
LINE
8
BLACK
6
CONTINUOUS
10
241.349
20
-67.699
11
227.5
21
-67.699
0
LINE
8
BLACK
6
CONTINUOUS
10
241.349
20
-53.85
11
241.349
21
-67.699
0
LINE
8
BLACK
6
CONTINUOUS
10
227.5
20
-53.85
11
241.349
21
-53.85
0
LINE
8
BLACK
6
CONTINUOUS
10
208.45
20
-67.699
11
208.45
21
-53.85
0
LINE
8
BLACK
6
CONTINUOUS
10
222.299
20
-67.699
11
208.45
21
-67.699
0
LINE
8
BLACK
6
CONTINUOUS
10
222.299
20
-53.85
11
222.299
21
-67.699
0
LINE
8
BLACK
6
CONTINUOUS
10
208.45
20
-53.85
11
222.299
21
-53.85
0
LINE
8
BLACK
6
CONTINUOUS
10
189.4
20
-67.699
11
189.4
21
-53.85
0
LINE
8
BLACK
6
CONTINUOUS
10
203.249
20
-67.699
11
189.4
21
-67.699
0
LINE
8
BLACK
6
CONTINUOUS
10
203.249
20
-53.85
11
203.249
21
-67.699
0
LINE
8
BLACK
6
CONTINUOUS
10
189.4
20
-53.85
11
203.249
21
-53.85
0
LINE
8
BLACK
6
CONTINUOUS
10
170.35
20
-67.699
11
170.35
21
-53.85
0
LINE
8
BLACK
6
CONTINUOUS
10
184.199
20
-67.699
11
170.35
21
-67.699
0
LINE
8
BLACK
6
CONTINUOUS
10
184.199
20
-53.85
11
184.199
21
-67.699
0
LINE
8
BLACK
6
CONTINUOUS
10
170.35
20
-53.85
11
184.199
21
-53.85
0
LINE
8
BLACK
6
CONTINUOUS
10
151.3
20
-67.699
11
151.3
21
-53.85
0
LINE
8
BLACK
6
CONTINUOUS
10
165.149
20
-67.699
11
151.3
21
-67.699
0
LINE
8
BLACK
6
CONTINUOUS
10
165.149
20
-53.85
11
165.149
21
-67.699
0
LINE
8
BLACK
6
CONTINUOUS
10
151.3
20
-53.85
11
165.149
21
-53.85
0
LINE
8
BLACK
6
CONTINUOUS
10
132.25
20
-67.699
11
132.25
21
-53.85
0
LINE
8
BLACK
6
CONTINUOUS
10
146.099
20
-67.699
11
132.25
21
-67.699
0
LINE
8
BLACK
6
CONTINUOUS
10
146.099
20
-53.85
11
146.099
21
-67.699
0
LINE
8
BLACK
6
CONTINUOUS
10
132.25
20
-53.85
11
146.099
21
-53.85
0
LINE
8
BLACK
6
CONTINUOUS
10
113.2
20
-67.699
11
113.2
21
-53.85
0
LINE
8
BLACK
6
CONTINUOUS
10
127.049
20
-67.699
11
113.2
21
-67.699
0
LINE
8
BLACK
6
CONTINUOUS
10
127.049
20
-53.85
11
127.049
21
-67.699
0
LINE
8
BLACK
6
CONTINUOUS
10
113.2
20
-53.85
11
127.049
21
-53.85
0
LINE
8
BLACK
6
CONTINUOUS
10
94.1499
20
-67.699
11
94.1499
21
-53.85
0
LINE
8
BLACK
6
CONTINUOUS
10
107.999
20
-67.699
11
94.1499
21
-67.699
0
LINE
8
BLACK
6
CONTINUOUS
10
107.999
20
-53.85
11
107.999
21
-67.699
0
LINE
8
BLACK
6
CONTINUOUS
10
94.1499
20
-53.85
11
107.999
21
-53.85
0
LINE
8
BLACK
6
CONTINUOUS
10
75.0999
20
-67.699
11
75.0999
21
-53.85
0
LINE
8
BLACK
6
CONTINUOUS
10
88.9492
20
-67.699
11
75.0999
21
-67.699
0
LINE
8
BLACK
6
CONTINUOUS
10
88.9492
20
-53.85
11
88.9492
21
-67.699
0
LINE
8
BLACK
6
CONTINUOUS
10
75.0999
20
-53.85
11
88.9492
21
-53.85
0
LINE
8
BLACK
6
CONTINUOUS
10
365.174
20
-53.85
11
351.325
21
-53.85
0
LINE
8
BLACK
6
CONTINUOUS
10
365.174
20
-58.549
11
365.174
21
-53.85
0
LINE
8
BLACK
6
CONTINUOUS
10
366.85
20
-58.549
11
365.174
21
-58.549
0
LINE
8
BLACK
6
CONTINUOUS
10
366.85
20
-55.319
11
366.85
21
-58.549
0
LINE
8
BLACK
6
CONTINUOUS
10
373.449
20
-55.319
11
366.85
21
-55.319
0
LINE
8
BLACK
6
CONTINUOUS
10
373.449
20
-58.549
11
373.449
21
-55.319
0
LINE
8
BLACK
6
CONTINUOUS
10
374.275
20
-58.549
11
373.449
21
-58.549
0
LINE
8
BLACK
6
CONTINUOUS
10
374.275
20
-61.1991
11
374.275
21
-58.549
0
LINE
8
BLACK
6
CONTINUOUS
10
373.449
20
-61.1991
11
374.275
21
-61.1991
0
LINE
8
BLACK
6
CONTINUOUS
10
373.449
20
-67.469
11
373.449
21
-61.1991
0
LINE
8
BLACK
6
CONTINUOUS
10
371.724
20
-67.469
11
373.449
21
-67.469
0
LINE
8
BLACK
6
CONTINUOUS
10
371.724
20
-68.6692
11
371.724
21
-67.469
0
LINE
8
BLACK
6
CONTINUOUS
10
368.575
20
-68.6692
11
371.724
21
-68.6692
0
LINE
8
BLACK
6
CONTINUOUS
10
368.575
20
-67.469
11
368.575
21
-68.6692
0
LINE
8
BLACK
6
CONTINUOUS
10
366.85
20
-67.469
11
368.575
21
-67.469
0
LINE
8
BLACK
6
CONTINUOUS
10
366.85
20
-63
11
366.85
21
-67.469
0
LINE
8
BLACK
6
CONTINUOUS
10
365.174
20
-63
11
366.85
21
-63
0
LINE
8
BLACK
6
CONTINUOUS
10
365.174
20
-67.699
11
365.174
21
-63
0
LINE
8
BLACK
6
CONTINUOUS
10
351.325
20
-67.699
11
365.174
21
-67.699
0
LINE
8
BLACK
6
CONTINUOUS
10
351.325
20
-63
11
351.325
21
-67.699
0
LINE
8
BLACK
6
CONTINUOUS
10
349.649
20
-63
11
351.325
21
-63
0
LINE
8
BLACK
6
CONTINUOUS
10
349.649
20
-67.469
11
349.649
21
-63
0
LINE
8
BLACK
6
CONTINUOUS
10
347.924
20
-67.469
11
349.649
21
-67.469
0
LINE
8
BLACK
6
CONTINUOUS
10
347.924
20
-68.6692
11
347.924
21
-67.469
0
LINE
8
BLACK
6
CONTINUOUS
10
344.775
20
-68.6692
11
347.924
21
-68.6692
0
LINE
8
BLACK
6
CONTINUOUS
10
344.775
20
-67.469
11
344.775
21
-68.6692
0
LINE
8
BLACK
6
CONTINUOUS
10
343.05
20
-67.469
11
344.775
21
-67.469
0
LINE
8
BLACK
6
CONTINUOUS
10
343.05
20
-61.1991
11
343.05
21
-67.469
0
LINE
8
BLACK
6
CONTINUOUS
10
342.224
20
-61.1991
11
343.05
21
-61.1991
0
LINE
8
BLACK
6
CONTINUOUS
10
342.224
20
-58.549
11
342.224
21
-61.1991
0
LINE
8
BLACK
6
CONTINUOUS
10
343.05
20
-58.549
11
342.224
21
-58.549
0
LINE
8
BLACK
6
CONTINUOUS
10
343.05
20
-55.319
11
343.05
21
-58.549
0
LINE
8
BLACK
6
CONTINUOUS
10
349.649
20
-55.319
11
343.05
21
-55.319
0
LINE
8
BLACK
6
CONTINUOUS
10
349.649
20
-58.549
11
349.649
21
-55.319
0
LINE
8
BLACK
6
CONTINUOUS
10
351.325
20
-58.549
11
349.649
21
-58.549
0
LINE
8
BLACK
6
CONTINUOUS
10
351.325
20
-53.85
11
351.325
21
-58.549
0
LINE
8
BLACK
6
CONTINUOUS
10
356.086
20
-86.749
11
356.086
21
-72.9
0
LINE
8
BLACK
6
CONTINUOUS
10
369.937
20
-86.749
11
356.086
21
-86.749
0
LINE
8
BLACK
6
CONTINUOUS
10
369.937
20
-72.9
11
369.937
21
-86.749
0
LINE
8
BLACK
6
CONTINUOUS
10
356.086
20
-72.9
11
369.937
21
-72.9
0
LINE
8
BLACK
6
CONTINUOUS
10
332.275
20
-86.749
11
332.275
21
-72.9
0
LINE
8
BLACK
6
CONTINUOUS
10
346.124
20
-86.749
11
332.275
21
-86.749
0
LINE
8
BLACK
6
CONTINUOUS
10
346.124
20
-72.9
11
346.124
21
-86.749
0
LINE
8
BLACK
6
CONTINUOUS
10
332.275
20
-72.9
11
346.124
21
-72.9
0
LINE
8
BLACK
6
CONTINUOUS
10
313.225
20
-86.749
11
313.225
21
-72.9
0
LINE
8
BLACK
6
CONTINUOUS
10
327.074
20
-86.749
11
313.225
21
-86.749
0
LINE
8
BLACK
6
CONTINUOUS
10
327.074
20
-72.9
11
327.074
21
-86.749
0
LINE
8
BLACK
6
CONTINUOUS
10
313.225
20
-72.9
11
327.074
21
-72.9
0
LINE
8
BLACK
6
CONTINUOUS
10
294.175
20
-86.749
11
294.175
21
-72.9
0
LINE
8
BLACK
6
CONTINUOUS
10
308.024
20
-86.749
11
294.175
21
-86.749
0
LINE
8
BLACK
6
CONTINUOUS
10
308.024
20
-72.9
11
308.024
21
-86.749
0
LINE
8
BLACK
6
CONTINUOUS
10
294.175
20
-72.9
11
308.024
21
-72.9
0
LINE
8
BLACK
6
CONTINUOUS
10
275.125
20
-86.749
11
275.125
21
-72.9
0
LINE
8
BLACK
6
CONTINUOUS
10
288.974
20
-86.749
11
275.125
21
-86.749
0
LINE
8
BLACK
6
CONTINUOUS
10
288.974
20
-72.9
11
288.974
21
-86.749
0
LINE
8
BLACK
6
CONTINUOUS
10
275.125
20
-72.9
11
288.974
21
-72.9
0
LINE
8
BLACK
6
CONTINUOUS
10
256.075
20
-86.749
11
256.075
21
-72.9
0
LINE
8
BLACK
6
CONTINUOUS
10
269.924
20
-86.749
11
256.075
21
-86.749
0
LINE
8
BLACK
6
CONTINUOUS
10
269.924
20
-72.9
11
269.924
21
-86.749
0
LINE
8
BLACK
6
CONTINUOUS
10
256.075
20
-72.9
11
269.924
21
-72.9
0
LINE
8
BLACK
6
CONTINUOUS
10
237.025
20
-86.749
11
237.025
21
-72.9
0
LINE
8
BLACK
6
CONTINUOUS
10
250.874
20
-86.749
11
237.025
21
-86.749
0
LINE
8
BLACK
6
CONTINUOUS
10
250.874
20
-72.9
11
250.874
21
-86.749
0
LINE
8
BLACK
6
CONTINUOUS
10
237.025
20
-72.9
11
250.874
21
-72.9
0
LINE
8
BLACK
6
CONTINUOUS
10
217.975
20
-86.749
11
217.975
21
-72.9
0
LINE
8
BLACK
6
CONTINUOUS
10
231.824
20
-86.749
11
217.975
21
-86.749
0
LINE
8
BLACK
6
CONTINUOUS
10
231.824
20
-72.9
11
231.824
21
-86.749
0
LINE
8
BLACK
6
CONTINUOUS
10
217.975
20
-72.9
11
231.824
21
-72.9
0
LINE
8
BLACK
6
CONTINUOUS
10
198.925
20
-86.749
11
198.925
21
-72.9
0
LINE
8
BLACK
6
CONTINUOUS
10
212.774
20
-86.749
11
198.925
21
-86.749
0
LINE
8
BLACK
6
CONTINUOUS
10
212.774
20
-72.9
11
212.774
21
-86.749
0
LINE
8
BLACK
6
CONTINUOUS
10
198.925
20
-72.9
11
212.774
21
-72.9
0
LINE
8
BLACK
6
CONTINUOUS
10
179.875
20
-86.749
11
179.875
21
-72.9
0
LINE
8
BLACK
6
CONTINUOUS
10
193.724
20
-86.749
11
179.875
21
-86.749
0
LINE
8
BLACK
6
CONTINUOUS
10
193.724
20
-72.9
11
193.724
21
-86.749
0
LINE
8
BLACK
6
CONTINUOUS
10
179.875
20
-72.9
11
193.724
21
-72.9
0
LINE
8
BLACK
6
CONTINUOUS
10
160.825
20
-86.749
11
160.825
21
-72.9
0
LINE
8
BLACK
6
CONTINUOUS
10
174.674
20
-86.749
11
160.825
21
-86.749
0
LINE
8
BLACK
6
CONTINUOUS
10
174.674
20
-72.9
11
174.674
21
-86.749
0
LINE
8
BLACK
6
CONTINUOUS
10
160.825
20
-72.9
11
174.674
21
-72.9
0
LINE
8
BLACK
6
CONTINUOUS
10
141.775
20
-86.749
11
141.775
21
-72.9
0
LINE
8
BLACK
6
CONTINUOUS
10
155.624
20
-86.749
11
141.775
21
-86.749
0
LINE
8
BLACK
6
CONTINUOUS
10
155.624
20
-72.9
11
155.624
21
-86.749
0
LINE
8
BLACK
6
CONTINUOUS
10
141.775
20
-72.9
11
155.624
21
-72.9
0
LINE
8
BLACK
6
CONTINUOUS
10
122.725
20
-86.749
11
122.725
21
-72.9
0
LINE
8
BLACK
6
CONTINUOUS
10
136.574
20
-86.749
11
122.725
21
-86.749
0
LINE
8
BLACK
6
CONTINUOUS
10
136.574
20
-72.9
11
136.574
21
-86.749
0
LINE
8
BLACK
6
CONTINUOUS
10
122.725
20
-72.9
11
136.574
21
-72.9
0
LINE
8
BLACK
6
CONTINUOUS
10
98.911
20
-86.749
11
98.911
21
-72.9
0
LINE
8
BLACK
6
CONTINUOUS
10
112.761
20
-86.749
11
98.911
21
-86.749
0
LINE
8
BLACK
6
CONTINUOUS
10
112.761
20
-72.9
11
112.761
21
-86.749
0
LINE
8
BLACK
6
CONTINUOUS
10
98.911
20
-72.9
11
112.761
21
-72.9
0
LINE
8
BLACK
6
CONTINUOUS
10
75.0999
20
-86.749
11
75.0999
21
-72.9
0
LINE
8
BLACK
6
CONTINUOUS
10
88.9492
20
-86.749
11
75.0999
21
-86.749
0
LINE
8
BLACK
6
CONTINUOUS
10
88.9492
20
-72.9
11
88.9492
21
-86.749
0
LINE
8
BLACK
6
CONTINUOUS
10
75.0999
20
-72.9
11
88.9492
21
-72.9
0
LINE
8
BLACK
6
CONTINUOUS
10
317.986
20
-105.799
11
317.986
21
-91.95
0
LINE
8
BLACK
6
CONTINUOUS
10
331.837
20
-105.799
11
317.986
21
-105.799
0
LINE
8
BLACK
6
CONTINUOUS
10
331.837
20
-91.95
11
331.837
21
-105.799
0
LINE
8
BLACK
6
CONTINUOUS
10
317.986
20
-91.95
11
331.837
21
-91.95
0
LINE
8
BLACK
6
CONTINUOUS
10
298.936
20
-105.799
11
298.936
21
-91.95
0
LINE
8
BLACK
6
CONTINUOUS
10
312.787
20
-105.799
11
298.936
21
-105.799
0
LINE
8
BLACK
6
CONTINUOUS
10
312.787
20
-91.95
11
312.787
21
-105.799
0
LINE
8
BLACK
6
CONTINUOUS
10
298.936
20
-91.95
11
312.787
21
-91.95
0
LINE
8
BLACK
6
CONTINUOUS
10
279.886
20
-105.799
11
279.886
21
-91.95
0
LINE
8
BLACK
6
CONTINUOUS
10
293.737
20
-105.799
11
279.886
21
-105.799
0
LINE
8
BLACK
6
CONTINUOUS
10
293.737
20
-91.95
11
293.737
21
-105.799
0
LINE
8
BLACK
6
CONTINUOUS
10
279.886
20
-91.95
11
293.737
21
-91.95
0
LINE
8
BLACK
6
CONTINUOUS
10
260.836
20
-105.799
11
260.836
21
-91.95
0
LINE
8
BLACK
6
CONTINUOUS
10
274.687
20
-105.799
11
260.836
21
-105.799
0
LINE
8
BLACK
6
CONTINUOUS
10
274.687
20
-91.95
11
274.687
21
-105.799
0
LINE
8
BLACK
6
CONTINUOUS
10
260.836
20
-91.95
11
274.687
21
-91.95
0
LINE
8
BLACK
6
CONTINUOUS
10
241.786
20
-105.799
11
241.786
21
-91.95
0
LINE
8
BLACK
6
CONTINUOUS
10
255.637
20
-105.799
11
241.786
21
-105.799
0
LINE
8
BLACK
6
CONTINUOUS
10
255.637
20
-91.95
11
255.637
21
-105.799
0
LINE
8
BLACK
6
CONTINUOUS
10
241.786
20
-91.95
11
255.637
21
-91.95
0
LINE
8
BLACK
6
CONTINUOUS
10
222.736
20
-105.799
11
222.736
21
-91.95
0
LINE
8
BLACK
6
CONTINUOUS
10
236.587
20
-105.799
11
222.736
21
-105.799
0
LINE
8
BLACK
6
CONTINUOUS
10
236.587
20
-91.95
11
236.587
21
-105.799
0
LINE
8
BLACK
6
CONTINUOUS
10
222.736
20
-91.95
11
236.587
21
-91.95
0
LINE
8
BLACK
6
CONTINUOUS
10
203.686
20
-105.799
11
203.686
21
-91.95
0
LINE
8
BLACK
6
CONTINUOUS
10
217.537
20
-105.799
11
203.686
21
-105.799
0
LINE
8
BLACK
6
CONTINUOUS
10
217.537
20
-91.95
11
217.537
21
-105.799
0
LINE
8
BLACK
6
CONTINUOUS
10
203.686
20
-91.95
11
217.537
21
-91.95
0
LINE
8
BLACK
6
CONTINUOUS
10
184.636
20
-105.799
11
184.636
21
-91.95
0
LINE
8
BLACK
6
CONTINUOUS
10
198.487
20
-105.799
11
184.636
21
-105.799
0
LINE
8
BLACK
6
CONTINUOUS
10
198.487
20
-91.95
11
198.487
21
-105.799
0
LINE
8
BLACK
6
CONTINUOUS
10
184.636
20
-91.95
11
198.487
21
-91.95
0
LINE
8
BLACK
6
CONTINUOUS
10
165.586
20
-105.799
11
165.586
21
-91.95
0
LINE
8
BLACK
6
CONTINUOUS
10
179.437
20
-105.799
11
165.586
21
-105.799
0
LINE
8
BLACK
6
CONTINUOUS
10
179.437
20
-91.95
11
179.437
21
-105.799
0
LINE
8
BLACK
6
CONTINUOUS
10
165.586
20
-91.95
11
179.437
21
-91.95
0
LINE
8
BLACK
6
CONTINUOUS
10
146.536
20
-105.799
11
146.536
21
-91.95
0
LINE
8
BLACK
6
CONTINUOUS
10
160.386
20
-105.799
11
146.536
21
-105.799
0
LINE
8
BLACK
6
CONTINUOUS
10
160.386
20
-91.95
11
160.386
21
-105.799
0
LINE
8
BLACK
6
CONTINUOUS
10
146.536
20
-91.95
11
160.386
21
-91.95
0
LINE
8
BLACK
6
CONTINUOUS
10
127.486
20
-105.799
11
127.486
21
-91.95
0
LINE
8
BLACK
6
CONTINUOUS
10
141.337
20
-105.799
11
127.486
21
-105.799
0
LINE
8
BLACK
6
CONTINUOUS
10
141.337
20
-91.95
11
141.337
21
-105.799
0
LINE
8
BLACK
6
CONTINUOUS
10
127.486
20
-91.95
11
141.337
21
-91.95
0
LINE
8
BLACK
6
CONTINUOUS
10
101.292
20
-105.799
11
101.292
21
-91.95
0
LINE
8
BLACK
6
CONTINUOUS
10
115.143
20
-105.799
11
101.292
21
-105.799
0
LINE
8
BLACK
6
CONTINUOUS
10
115.143
20
-91.95
11
115.143
21
-105.799
0
LINE
8
BLACK
6
CONTINUOUS
10
101.292
20
-91.95
11
115.143
21
-91.95
0
LINE
8
BLACK
6
CONTINUOUS
10
75.0999
20
-105.799
11
75.0999
21
-91.95
0
LINE
8
BLACK
6
CONTINUOUS
10
88.9492
20
-105.799
11
75.0999
21
-105.799
0
LINE
8
BLACK
6
CONTINUOUS
10
88.9492
20
-91.95
11
88.9492
21
-105.799
0
LINE
8
BLACK
6
CONTINUOUS
10
75.0999
20
-91.95
11
88.9492
21
-91.95
0
LINE
8
BLACK
6
CONTINUOUS
10
362.793
20
-91.95
11
348.942
21
-91.95
0
LINE
8
BLACK
6
CONTINUOUS
10
362.793
20
-96.649
11
362.793
21
-91.95
0
LINE
8
BLACK
6
CONTINUOUS
10
364.467
20
-96.649
11
362.793
21
-96.649
0
LINE
8
BLACK
6
CONTINUOUS
10
364.467
20
-93.419
11
364.467
21
-96.649
0
LINE
8
BLACK
6
CONTINUOUS
10
371.068
20
-93.419
11
364.467
21
-93.419
0
LINE
8
BLACK
6
CONTINUOUS
10
371.068
20
-96.649
11
371.068
21
-93.419
0
LINE
8
BLACK
6
CONTINUOUS
10
371.892
20
-96.649
11
371.068
21
-96.649
0
LINE
8
BLACK
6
CONTINUOUS
10
371.892
20
-99.2991
11
371.892
21
-96.649
0
LINE
8
BLACK
6
CONTINUOUS
10
371.068
20
-99.2991
11
371.892
21
-99.2991
0
LINE
8
BLACK
6
CONTINUOUS
10
371.068
20
-105.569
11
371.068
21
-99.2991
0
LINE
8
BLACK
6
CONTINUOUS
10
369.343
20
-105.569
11
371.068
21
-105.569
0
LINE
8
BLACK
6
CONTINUOUS
10
369.343
20
-106.769
11
369.343
21
-105.569
0
LINE
8
BLACK
6
CONTINUOUS
10
366.192
20
-106.769
11
369.343
21
-106.769
0
LINE
8
BLACK
6
CONTINUOUS
10
366.192
20
-105.569
11
366.192
21
-106.769
0
LINE
8
BLACK
6
CONTINUOUS
10
364.467
20
-105.569
11
366.192
21
-105.569
0
LINE
8
BLACK
6
CONTINUOUS
10
364.467
20
-101.1
11
364.467
21
-105.569
0
LINE
8
BLACK
6
CONTINUOUS
10
362.793
20
-101.1
11
364.467
21
-101.1
0
LINE
8
BLACK
6
CONTINUOUS
10
362.793
20
-105.799
11
362.793
21
-101.1
0
LINE
8
BLACK
6
CONTINUOUS
10
348.942
20
-105.799
11
362.793
21
-105.799
0
LINE
8
BLACK
6
CONTINUOUS
10
348.942
20
-101.1
11
348.942
21
-105.799
0
LINE
8
BLACK
6
CONTINUOUS
10
347.268
20
-101.1
11
348.942
21
-101.1
0
LINE
8
BLACK
6
CONTINUOUS
10
347.268
20
-105.569
11
347.268
21
-101.1
0
LINE
8
BLACK
6
CONTINUOUS
10
345.543
20
-105.569
11
347.268
21
-105.569
0
LINE
8
BLACK
6
CONTINUOUS
10
345.543
20
-106.769
11
345.543
21
-105.569
0
LINE
8
BLACK
6
CONTINUOUS
10
342.392
20
-106.769
11
345.543
21
-106.769
0
LINE
8
BLACK
6
CONTINUOUS
10
342.392
20
-105.569
11
342.392
21
-106.769
0
LINE
8
BLACK
6
CONTINUOUS
10
340.667
20
-105.569
11
342.392
21
-105.569
0
LINE
8
BLACK
6
CONTINUOUS
10
340.667
20
-99.2991
11
340.667
21
-105.569
0
LINE
8
BLACK
6
CONTINUOUS
10
339.843
20
-99.2991
11
340.667
21
-99.2991
0
LINE
8
BLACK
6
CONTINUOUS
10
339.843
20
-96.649
11
339.843
21
-99.2991
0
LINE
8
BLACK
6
CONTINUOUS
10
340.667
20
-96.649
11
339.843
21
-96.649
0
LINE
8
BLACK
6
CONTINUOUS
10
340.667
20
-93.419
11
340.667
21
-96.649
0
LINE
8
BLACK
6
CONTINUOUS
10
347.268
20
-93.419
11
340.667
21
-93.419
0
LINE
8
BLACK
6
CONTINUOUS
10
347.268
20
-96.649
11
347.268
21
-93.419
0
LINE
8
BLACK
6
CONTINUOUS
10
348.942
20
-96.649
11
347.268
21
-96.649
0
LINE
8
BLACK
6
CONTINUOUS
10
348.942
20
-91.95
11
348.942
21
-96.649
0
LINE
8
BLACK
6
CONTINUOUS
10
308.461
20
-124.849
11
308.461
21
-111
0
LINE
8
BLACK
6
CONTINUOUS
10
322.312
20
-124.849
11
308.461
21
-124.849
0
LINE
8
BLACK
6
CONTINUOUS
10
322.312
20
-111
11
322.312
21
-124.849
0
LINE
8
BLACK
6
CONTINUOUS
10
308.461
20
-111
11
322.312
21
-111
0
LINE
8
BLACK
6
CONTINUOUS
10
289.411
20
-124.849
11
289.411
21
-111
0
LINE
8
BLACK
6
CONTINUOUS
10
303.262
20
-124.849
11
289.411
21
-124.849
0
LINE
8
BLACK
6
CONTINUOUS
10
303.262
20
-111
11
303.262
21
-124.849
0
LINE
8
BLACK
6
CONTINUOUS
10
289.411
20
-111
11
303.262
21
-111
0
LINE
8
BLACK
6
CONTINUOUS
10
270.361
20
-124.849
11
270.361
21
-111
0
LINE
8
BLACK
6
CONTINUOUS
10
284.212
20
-124.849
11
270.361
21
-124.849
0
LINE
8
BLACK
6
CONTINUOUS
10
284.212
20
-111
11
284.212
21
-124.849
0
LINE
8
BLACK
6
CONTINUOUS
10
270.361
20
-111
11
284.212
21
-111
0
LINE
8
BLACK
6
CONTINUOUS
10
251.311
20
-124.849
11
251.311
21
-111
0
LINE
8
BLACK
6
CONTINUOUS
10
265.162
20
-124.849
11
251.311
21
-124.849
0
LINE
8
BLACK
6
CONTINUOUS
10
265.162
20
-111
11
265.162
21
-124.849
0
LINE
8
BLACK
6
CONTINUOUS
10
251.311
20
-111
11
265.162
21
-111
0
LINE
8
BLACK
6
CONTINUOUS
10
232.261
20
-124.849
11
232.261
21
-111
0
LINE
8
BLACK
6
CONTINUOUS
10
246.112
20
-124.849
11
232.261
21
-124.849
0
LINE
8
BLACK
6
CONTINUOUS
10
246.112
20
-111
11
246.112
21
-124.849
0
LINE
8
BLACK
6
CONTINUOUS
10
232.261
20
-111
11
246.112
21
-111
0
LINE
8
BLACK
6
CONTINUOUS
10
213.211
20
-124.849
11
213.211
21
-111
0
LINE
8
BLACK
6
CONTINUOUS
10
227.062
20
-124.849
11
213.211
21
-124.849
0
LINE
8
BLACK
6
CONTINUOUS
10
227.062
20
-111
11
227.062
21
-124.849
0
LINE
8
BLACK
6
CONTINUOUS
10
213.211
20
-111
11
227.062
21
-111
0
LINE
8
BLACK
6
CONTINUOUS
10
194.161
20
-124.849
11
194.161
21
-111
0
LINE
8
BLACK
6
CONTINUOUS
10
208.012
20
-124.849
11
194.161
21
-124.849
0
LINE
8
BLACK
6
CONTINUOUS
10
208.012
20
-111
11
208.012
21
-124.849
0
LINE
8
BLACK
6
CONTINUOUS
10
194.161
20
-111
11
208.012
21
-111
0
LINE
8
BLACK
6
CONTINUOUS
10
175.111
20
-124.849
11
175.111
21
-111
0
LINE
8
BLACK
6
CONTINUOUS
10
188.962
20
-124.849
11
175.111
21
-124.849
0
LINE
8
BLACK
6
CONTINUOUS
10
188.962
20
-111
11
188.962
21
-124.849
0
LINE
8
BLACK
6
CONTINUOUS
10
175.111
20
-111
11
188.962
21
-111
0
LINE
8
BLACK
6
CONTINUOUS
10
156.061
20
-124.849
11
156.061
21
-111
0
LINE
8
BLACK
6
CONTINUOUS
10
169.911
20
-124.849
11
156.061
21
-124.849
0
LINE
8
BLACK
6
CONTINUOUS
10
169.911
20
-111
11
169.911
21
-124.849
0
LINE
8
BLACK
6
CONTINUOUS
10
156.061
20
-111
11
169.911
21
-111
0
LINE
8
BLACK
6
CONTINUOUS
10
137.011
20
-124.849
11
137.011
21
-111
0
LINE
8
BLACK
6
CONTINUOUS
10
150.862
20
-124.849
11
137.011
21
-124.849
0
LINE
8
BLACK
6
CONTINUOUS
10
150.862
20
-111
11
150.862
21
-124.849
0
LINE
8
BLACK
6
CONTINUOUS
10
137.011
20
-111
11
150.862
21
-111
0
LINE
8
BLACK
6
CONTINUOUS
10
75.0999
20
-124.849
11
75.0999
21
-111
0
LINE
8
BLACK
6
CONTINUOUS
10
88.9492
20
-124.849
11
75.0999
21
-124.849
0
LINE
8
BLACK
6
CONTINUOUS
10
88.9492
20
-111
11
88.9492
21
-124.849
0
LINE
8
BLACK
6
CONTINUOUS
10
75.0999
20
-111
11
88.9492
21
-111
0
LINE
8
BLACK
6
CONTINUOUS
10
358.03
20
-111
11
344.181
21
-111
0
LINE
8
BLACK
6
CONTINUOUS
10
358.03
20
-115.699
11
358.03
21
-111
0
LINE
8
BLACK
6
CONTINUOUS
10
359.706
20
-115.699
11
358.03
21
-115.699
0
LINE
8
BLACK
6
CONTINUOUS
10
359.706
20
-112.469
11
359.706
21
-115.699
0
LINE
8
BLACK
6
CONTINUOUS
10
366.305
20
-112.469
11
359.706
21
-112.469
0
LINE
8
BLACK
6
CONTINUOUS
10
366.305
20
-115.699
11
366.305
21
-112.469
0
LINE
8
BLACK
6
CONTINUOUS
10
367.131
20
-115.699
11
366.305
21
-115.699
0
LINE
8
BLACK
6
CONTINUOUS
10
367.131
20
-118.349
11
367.131
21
-115.699
0
LINE
8
BLACK
6
CONTINUOUS
10
366.305
20
-118.349
11
367.131
21
-118.349
0
LINE
8
BLACK
6
CONTINUOUS
10
366.305
20
-124.619
11
366.305
21
-118.349
0
LINE
8
BLACK
6
CONTINUOUS
10
364.58
20
-124.619
11
366.305
21
-124.619
0
LINE
8
BLACK
6
CONTINUOUS
10
364.58
20
-125.819
11
364.58
21
-124.619
0
LINE
8
BLACK
6
CONTINUOUS
10
361.43
20
-125.819
11
364.58
21
-125.819
0
LINE
8
BLACK
6
CONTINUOUS
10
361.43
20
-124.619
11
361.43
21
-125.819
0
LINE
8
BLACK
6
CONTINUOUS
10
359.706
20
-124.619
11
361.43
21
-124.619
0
LINE
8
BLACK
6
CONTINUOUS
10
359.706
20
-120.15
11
359.706
21
-124.619
0
LINE
8
BLACK
6
CONTINUOUS
10
358.03
20
-120.15
11
359.706
21
-120.15
0
LINE
8
BLACK
6
CONTINUOUS
10
358.03
20
-124.849
11
358.03
21
-120.15
0
LINE
8
BLACK
6
CONTINUOUS
10
344.181
20
-124.849
11
358.03
21
-124.849
0
LINE
8
BLACK
6
CONTINUOUS
10
344.181
20
-120.15
11
344.181
21
-124.849
0
LINE
8
BLACK
6
CONTINUOUS
10
342.506
20
-120.15
11
344.181
21
-120.15
0
LINE
8
BLACK
6
CONTINUOUS
10
342.506
20
-124.619
11
342.506
21
-120.15
0
LINE
8
BLACK
6
CONTINUOUS
10
340.78
20
-124.619
11
342.506
21
-124.619
0
LINE
8
BLACK
6
CONTINUOUS
10
340.78
20
-125.819
11
340.78
21
-124.619
0
LINE
8
BLACK
6
CONTINUOUS
10
337.63
20
-125.819
11
340.78
21
-125.819
0
LINE
8
BLACK
6
CONTINUOUS
10
337.63
20
-124.619
11
337.63
21
-125.819
0
LINE
8
BLACK
6
CONTINUOUS
10
335.906
20
-124.619
11
337.63
21
-124.619
0
LINE
8
BLACK
6
CONTINUOUS
10
335.906
20
-118.349
11
335.906
21
-124.619
0
LINE
8
BLACK
6
CONTINUOUS
10
335.081
20
-118.349
11
335.906
21
-118.349
0
LINE
8
BLACK
6
CONTINUOUS
10
335.081
20
-115.699
11
335.081
21
-118.349
0
LINE
8
BLACK
6
CONTINUOUS
10
335.906
20
-115.699
11
335.081
21
-115.699
0
LINE
8
BLACK
6
CONTINUOUS
10
335.906
20
-112.469
11
335.906
21
-115.699
0
LINE
8
BLACK
6
CONTINUOUS
10
342.506
20
-112.469
11
335.906
21
-112.469
0
LINE
8
BLACK
6
CONTINUOUS
10
342.506
20
-115.699
11
342.506
21
-112.469
0
LINE
8
BLACK
6
CONTINUOUS
10
344.181
20
-115.699
11
342.506
21
-115.699
0
LINE
8
BLACK
6
CONTINUOUS
10
344.181
20
-111
11
344.181
21
-115.699
0
LINE
8
BLACK
6
CONTINUOUS
10
119.905
20
-111
11
106.056
21
-111
0
LINE
8
BLACK
6
CONTINUOUS
10
119.905
20
-115.699
11
119.905
21
-111
0
LINE
8
BLACK
6
CONTINUOUS
10
121.581
20
-115.699
11
119.905
21
-115.699
0
LINE
8
BLACK
6
CONTINUOUS
10
121.581
20
-112.469
11
121.581
21
-115.699
0
LINE
8
BLACK
6
CONTINUOUS
10
128.18
20
-112.469
11
121.581
21
-112.469
0
LINE
8
BLACK
6
CONTINUOUS
10
128.18
20
-115.699
11
128.18
21
-112.469
0
LINE
8
BLACK
6
CONTINUOUS
10
129.006
20
-115.699
11
128.18
21
-115.699
0
LINE
8
BLACK
6
CONTINUOUS
10
129.006
20
-118.349
11
129.006
21
-115.699
0
LINE
8
BLACK
6
CONTINUOUS
10
128.18
20
-118.349
11
129.006
21
-118.349
0
LINE
8
BLACK
6
CONTINUOUS
10
128.18
20
-124.619
11
128.18
21
-118.349
0
LINE
8
BLACK
6
CONTINUOUS
10
126.455
20
-124.619
11
128.18
21
-124.619
0
LINE
8
BLACK
6
CONTINUOUS
10
126.455
20
-125.819
11
126.455
21
-124.619
0
LINE
8
BLACK
6
CONTINUOUS
10
123.305
20
-125.819
11
126.455
21
-125.819
0
LINE
8
BLACK
6
CONTINUOUS
10
123.305
20
-124.619
11
123.305
21
-125.819
0
LINE
8
BLACK
6
CONTINUOUS
10
121.581
20
-124.619
11
123.305
21
-124.619
0
LINE
8
BLACK
6
CONTINUOUS
10
121.581
20
-120.15
11
121.581
21
-124.619
0
LINE
8
BLACK
6
CONTINUOUS
10
119.905
20
-120.15
11
121.581
21
-120.15
0
LINE
8
BLACK
6
CONTINUOUS
10
119.905
20
-124.849
11
119.905
21
-120.15
0
LINE
8
BLACK
6
CONTINUOUS
10
106.056
20
-124.849
11
119.905
21
-124.849
0
LINE
8
BLACK
6
CONTINUOUS
10
106.056
20
-120.15
11
106.056
21
-124.849
0
LINE
8
BLACK
6
CONTINUOUS
10
104.38
20
-120.15
11
106.056
21
-120.15
0
LINE
8
BLACK
6
CONTINUOUS
10
104.38
20
-124.619
11
104.38
21
-120.15
0
LINE
8
BLACK
6
CONTINUOUS
10
102.655
20
-124.619
11
104.38
21
-124.619
0
LINE
8
BLACK
6
CONTINUOUS
10
102.655
20
-125.819
11
102.655
21
-124.619
0
LINE
8
BLACK
6
CONTINUOUS
10
99.5049
20
-125.819
11
102.655
21
-125.819
0
LINE
8
BLACK
6
CONTINUOUS
10
99.5049
20
-124.619
11
99.5049
21
-125.819
0
LINE
8
BLACK
6
CONTINUOUS
10
97.781
20
-124.619
11
99.5049
21
-124.619
0
LINE
8
BLACK
6
CONTINUOUS
10
97.781
20
-118.349
11
97.781
21
-124.619
0
LINE
8
BLACK
6
CONTINUOUS
10
96.9555
20
-118.349
11
97.781
21
-118.349
0
LINE
8
BLACK
6
CONTINUOUS
10
96.9555
20
-115.699
11
96.9555
21
-118.349
0
LINE
8
BLACK
6
CONTINUOUS
10
97.781
20
-115.699
11
96.9555
21
-115.699
0
LINE
8
BLACK
6
CONTINUOUS
10
97.781
20
-112.469
11
97.781
21
-115.699
0
LINE
8
BLACK
6
CONTINUOUS
10
104.38
20
-112.469
11
97.781
21
-112.469
0
LINE
8
BLACK
6
CONTINUOUS
10
104.38
20
-115.699
11
104.38
21
-112.469
0
LINE
8
BLACK
6
CONTINUOUS
10
106.056
20
-115.699
11
104.38
21
-115.699
0
LINE
8
BLACK
6
CONTINUOUS
10
106.056
20
-111
11
106.056
21
-115.699
0
LINE
8
BLACK
6
CONTINUOUS
10
360.85
20
-143.899
11
360.85
21
-130.05
0
LINE
8
BLACK
6
CONTINUOUS
10
374.699
20
-143.899
11
360.85
21
-143.899
0
LINE
8
BLACK
6
CONTINUOUS
10
374.699
20
-130.05
11
374.699
21
-143.899
0
LINE
8
BLACK
6
CONTINUOUS
10
360.85
20
-130.05
11
374.699
21
-130.05
0
LINE
8
BLACK
6
CONTINUOUS
10
341.8
20
-143.899
11
341.8
21
-130.05
0
LINE
8
BLACK
6
CONTINUOUS
10
355.649
20
-143.899
11
341.8
21
-143.899
0
LINE
8
BLACK
6
CONTINUOUS
10
355.649
20
-130.05
11
355.649
21
-143.899
0
LINE
8
BLACK
6
CONTINUOUS
10
341.8
20
-130.05
11
355.649
21
-130.05
0
LINE
8
BLACK
6
CONTINUOUS
10
322.75
20
-143.899
11
322.75
21
-130.05
0
LINE
8
BLACK
6
CONTINUOUS
10
336.599
20
-143.899
11
322.75
21
-143.899
0
LINE
8
BLACK
6
CONTINUOUS
10
336.599
20
-130.05
11
336.599
21
-143.899
0
LINE
8
BLACK
6
CONTINUOUS
10
322.75
20
-130.05
11
336.599
21
-130.05
0
LINE
8
BLACK
6
CONTINUOUS
10
303.7
20
-143.899
11
303.7
21
-130.05
0
LINE
8
BLACK
6
CONTINUOUS
10
317.549
20
-143.899
11
303.7
21
-143.899
0
LINE
8
BLACK
6
CONTINUOUS
10
317.549
20
-130.05
11
317.549
21
-143.899
0
LINE
8
BLACK
6
CONTINUOUS
10
303.7
20
-130.05
11
317.549
21
-130.05
0
LINE
8
BLACK
6
CONTINUOUS
10
284.65
20
-143.899
11
284.65
21
-130.05
0
LINE
8
BLACK
6
CONTINUOUS
10
298.499
20
-143.899
11
284.65
21
-143.899
0
LINE
8
BLACK
6
CONTINUOUS
10
298.499
20
-130.05
11
298.499
21
-143.899
0
LINE
8
BLACK
6
CONTINUOUS
10
284.65
20
-130.05
11
298.499
21
-130.05
0
LINE
8
BLACK
6
CONTINUOUS
10
265.599
20
-143.899
11
265.599
21
-130.05
0
LINE
8
BLACK
6
CONTINUOUS
10
279.449
20
-143.899
11
265.599
21
-143.899
0
LINE
8
BLACK
6
CONTINUOUS
10
279.449
20
-130.05
11
279.449
21
-143.899
0
LINE
8
BLACK
6
CONTINUOUS
10
265.599
20
-130.05
11
279.449
21
-130.05
0
LINE
8
BLACK
6
CONTINUOUS
10
125.106
20
-143.899
11
125.106
21
-130.05
0
LINE
8
BLACK
6
CONTINUOUS
10
138.955
20
-143.899
11
125.106
21
-143.899
0
LINE
8
BLACK
6
CONTINUOUS
10
138.955
20
-130.05
11
138.955
21
-143.899
0
LINE
8
BLACK
6
CONTINUOUS
10
125.106
20
-130.05
11
138.955
21
-130.05
0
LINE
8
BLACK
6
CONTINUOUS
10
101.292
20
-143.899
11
101.292
21
-130.05
0
LINE
8
BLACK
6
CONTINUOUS
10
115.143
20
-143.899
11
101.292
21
-143.899
0
LINE
8
BLACK
6
CONTINUOUS
10
115.143
20
-130.05
11
115.143
21
-143.899
0
LINE
8
BLACK
6
CONTINUOUS
10
101.292
20
-130.05
11
115.143
21
-130.05
0
LINE
8
BLACK
6
CONTINUOUS
10
77.4811
20
-143.899
11
77.4811
21
-130.05
0
LINE
8
BLACK
6
CONTINUOUS
10
91.3304
20
-143.899
11
77.4811
21
-143.899
0
LINE
8
BLACK
6
CONTINUOUS
10
91.3304
20
-130.05
11
91.3304
21
-143.899
0
LINE
8
BLACK
6
CONTINUOUS
10
77.4811
20
-130.05
11
91.3304
21
-130.05
0
LINE
8
BLACK
6
CONTINUOUS
10
210.393
20
-130.05
11
196.542
21
-130.05
0
LINE
8
BLACK
6
CONTINUOUS
10
210.393
20
-134.749
11
210.393
21
-130.05
0
LINE
8
BLACK
6
CONTINUOUS
10
250.167
20
-134.749
11
210.393
21
-134.749
0
LINE
8
BLACK
6
CONTINUOUS
10
250.167
20
-131.519
11
250.167
21
-134.749
0
LINE
8
BLACK
6
CONTINUOUS
10
256.768
20
-131.519
11
250.167
21
-131.519
0
LINE
8
BLACK
6
CONTINUOUS
10
256.768
20
-134.749
11
256.768
21
-131.519
0
LINE
8
BLACK
6
CONTINUOUS
10
257.592
20
-134.749
11
256.768
21
-134.749
0
LINE
8
BLACK
6
CONTINUOUS
10
257.592
20
-137.399
11
257.592
21
-134.749
0
LINE
8
BLACK
6
CONTINUOUS
10
256.768
20
-137.399
11
257.592
21
-137.399
0
LINE
8
BLACK
6
CONTINUOUS
10
256.768
20
-143.669
11
256.768
21
-137.399
0
LINE
8
BLACK
6
CONTINUOUS
10
255.043
20
-143.669
11
256.768
21
-143.669
0
LINE
8
BLACK
6
CONTINUOUS
10
255.043
20
-144.869
11
255.043
21
-143.669
0
LINE
8
BLACK
6
CONTINUOUS
10
251.892
20
-144.869
11
255.043
21
-144.869
0
LINE
8
BLACK
6
CONTINUOUS
10
251.892
20
-143.669
11
251.892
21
-144.869
0
LINE
8
BLACK
6
CONTINUOUS
10
250.167
20
-143.669
11
251.892
21
-143.669
0
LINE
8
BLACK
6
CONTINUOUS
10
250.167
20
-139.199
11
250.167
21
-143.669
0
LINE
8
BLACK
6
CONTINUOUS
10
210.393
20
-139.199
11
250.167
21
-139.199
0
LINE
8
BLACK
6
CONTINUOUS
10
210.393
20
-143.899
11
210.393
21
-139.199
0
LINE
8
BLACK
6
CONTINUOUS
10
196.542
20
-143.899
11
210.393
21
-143.899
0
LINE
8
BLACK
6
CONTINUOUS
10
196.542
20
-139.199
11
196.542
21
-143.899
0
LINE
8
BLACK
6
CONTINUOUS
10
156.768
20
-139.199
11
196.542
21
-139.199
0
LINE
8
BLACK
6
CONTINUOUS
10
156.768
20
-143.669
11
156.768
21
-139.199
0
LINE
8
BLACK
6
CONTINUOUS
10
155.043
20
-143.669
11
156.768
21
-143.669
0
LINE
8
BLACK
6
CONTINUOUS
10
155.043
20
-144.869
11
155.043
21
-143.669
0
LINE
8
BLACK
6
CONTINUOUS
10
151.892
20
-144.869
11
155.043
21
-144.869
0
LINE
8
BLACK
6
CONTINUOUS
10
151.892
20
-143.669
11
151.892
21
-144.869
0
LINE
8
BLACK
6
CONTINUOUS
10
150.167
20
-143.669
11
151.892
21
-143.669
0
LINE
8
BLACK
6
CONTINUOUS
10
150.167
20
-137.399
11
150.167
21
-143.669
0
LINE
8
BLACK
6
CONTINUOUS
10
149.343
20
-137.399
11
150.167
21
-137.399
0
LINE
8
BLACK
6
CONTINUOUS
10
149.343
20
-134.749
11
149.343
21
-137.399
0
LINE
8
BLACK
6
CONTINUOUS
10
150.167
20
-134.749
11
149.343
21
-134.749
0
LINE
8
BLACK
6
CONTINUOUS
10
150.167
20
-131.519
11
150.167
21
-134.749
0
LINE
8
BLACK
6
CONTINUOUS
10
156.768
20
-131.519
11
150.167
21
-131.519
0
LINE
8
BLACK
6
CONTINUOUS
10
156.768
20
-134.749
11
156.768
21
-131.519
0
LINE
8
BLACK
6
CONTINUOUS
10
196.542
20
-134.749
11
156.768
21
-134.749
0
LINE
8
BLACK
6
CONTINUOUS
10
196.542
20
-130.05
11
196.542
21
-134.749
0
LINE
8
BLACK
6
CONTINUOUS
10
72.4251
20
-146.575
11
72.4251
21
-51.1753
0
LINE
8
BLACK
6
CONTINUOUS
10
377.375
20
-146.575
11
72.4251
21
-146.575
0
LINE
8
BLACK
6
CONTINUOUS
10
377.375
20
-51.1753
11
377.375
21
-146.575
0
LINE
8
BLACK
6
CONTINUOUS
10
72.4251
20
-51.1753
11
377.375
21
-51.1753
0
ARC
8
BLACK
10
69.04
20
-55.51
40
5
50
90
51
180
0
ARC
8
BLACK
10
69.04
20
-174.26
40
5
50
-180
51
-90
0
ARC
8
BLACK
10
380.87
20
-55.51
40
5
50
-0
51
90
0
ARC
8
BLACK
10
380.87
20
-174.26
40
5
50
-90
51
-0
0
LINE
8
BLACK
6
CONTINUOUS
10
380.87
20
-50.51
11
69.04
21
-50.51
0
LINE
8
BLACK
6
CONTINUOUS
10
385.87
20
-174.26
11
385.87
21
-55.51
0
LINE
8
BLACK
6
CONTINUOUS
10
69.04
20
-179.26
11
380.87
21
-179.26
0
LINE
8
BLACK
6
CONTINUOUS
10
64.04
20
-55.51
11
64.04
21
-174.26
  0
ENDSEC
  0
EOF
