  0
SECTION
  2
HEADER
  9
$ANGBASE
  50
0.0
  9
$ANGDIR
  70
1
  9
$MEASUREMENT
  70
1
  0
ENDSEC
  0
SECTION
  2
TABLES
  0
TABLE
  2
LTYPE
  70
4
  0
LTYPE
  5
40F
  2
CONTINUOUS
  70
0
  3
Solid line
  72
65
  73
0
  40
0.0
  0
LTYPE
  5
410
  2
DASHDOT
 70
0
  3
Dash Dot ____ _ ____ _
 72
65
 73
4
 40
2.0
 49
1.25
 49
-0.25
 49
0.25
 49
-0.25
  0
LTYPE
  5
411
  2
DASHED
 70
0
  3
Dashed __ __ __ __ __
 72
65
 73
2
 40
0.75
 49
0.5
 49
-0.25
  0
LTYPE
  5
43B
  2
DOTTED
 70
0
  3
Dotted .  .  .  .
 72
65
 73
2
 40
0.2
 49
0.0
 49
-0.2
  0
ENDTAB
  0
TABLE
  2
STYLE
  70
4
  0
STYLE
  2
KICAD
  70
0
  40
0
  41
1
  42
1
  50
0
  71
0
  3
isocp.shx
  0
STYLE
  2
KICADB
  70
0
  40
0
  41
1
  42
1
  50
0
  71
0
  3
isocp.shx
  0
STYLE
  2
KICADI
  70
0
  40
0
  41
1
  42
1
  50
15
  71
0
  3
isocp.shx
  0
STYLE
  2
KICADBI
  70
0
  40
0
  41
1
  42
1
  50
15
  71
0
  3
isocp.shx
  0
ENDTAB
  0
TABLE
  2
LAYER
  70
1
  0
LAYER
  2
BLACK
  70
0
  62
7
  6
CONTINUOUS
  0
ENDTAB
  0
ENDSEC
  0
SECTION
  2
ENTITIES
0
ARC
8
BLACK
10
69.04
20
-55.51
40
5
50
90
51
180
0
ARC
8
BLACK
10
69.04
20
-174.26
40
5
50
-180
51
-90
0
ARC
8
BLACK
10
380.87
20
-55.51
40
5
50
-0
51
90
0
ARC
8
BLACK
10
380.87
20
-174.26
40
5
50
-90
51
-0
0
LINE
8
BLACK
6
CONTINUOUS
10
380.87
20
-50.51
11
69.04
21
-50.51
0
LINE
8
BLACK
6
CONTINUOUS
10
385.87
20
-174.26
11
385.87
21
-55.51
0
LINE
8
BLACK
6
CONTINUOUS
10
69.04
20
-179.26
11
380.87
21
-179.26
0
LINE
8
BLACK
6
CONTINUOUS
10
64.04
20
-55.51
11
64.04
21
-174.26
0
LINE
8
BLACK
6
CONTINUOUS
10
203.479
20
-139
11
203.479
21
-135
0
LINE
8
BLACK
6
CONTINUOUS
10
201.479
20
-137
11
205.479
21
-137
0
LINE
8
BLACK
6
CONTINUOUS
10
351.116
20
-119.95
11
351.116
21
-115.95
0
LINE
8
BLACK
6
CONTINUOUS
10
349.116
20
-117.95
11
353.116
21
-117.95
0
LINE
8
BLACK
6
CONTINUOUS
10
112.991
20
-119.95
11
112.991
21
-115.95
0
LINE
8
BLACK
6
CONTINUOUS
10
110.991
20
-117.95
11
114.991
21
-117.95
0
LINE
8
BLACK
6
CONTINUOUS
10
355.879
20
-100.9
11
355.879
21
-96.9
0
LINE
8
BLACK
6
CONTINUOUS
10
353.879
20
-98.9
11
357.879
21
-98.9
0
LINE
8
BLACK
6
CONTINUOUS
10
358.26
20
-62.8
11
358.26
21
-58.8
0
LINE
8
BLACK
6
CONTINUOUS
10
356.26
20
-60.8
11
360.26
21
-60.8
0
LINE
8
BLACK
6
CONTINUOUS
10
82.0454
20
-156.99
11
82.06
21
-157.025
0
LINE
8
BLACK
6
CONTINUOUS
10
82.06
20
-157.025
11
82.06
21
-159.025
0
LINE
8
BLACK
6
CONTINUOUS
10
82.06
20
-159.025
11
82.0454
21
-159.06
0
LINE
8
BLACK
6
CONTINUOUS
10
82.0454
20
-159.06
11
82.01
21
-159.075
0
LINE
8
BLACK
6
CONTINUOUS
10
82.01
20
-159.075
11
80.01
21
-159.075
0
LINE
8
BLACK
6
CONTINUOUS
10
80.01
20
-159.075
11
79.9746
21
-159.06
0
LINE
8
BLACK
6
CONTINUOUS
10
79.9746
20
-159.06
11
79.96
21
-159.025
0
LINE
8
BLACK
6
CONTINUOUS
10
79.96
20
-159.025
11
79.96
21
-157.025
0
LINE
8
BLACK
6
CONTINUOUS
10
79.96
20
-157.025
11
79.9746
21
-156.99
0
LINE
8
BLACK
6
CONTINUOUS
10
79.9746
20
-156.99
11
80.01
21
-156.975
0
LINE
8
BLACK
6
CONTINUOUS
10
80.01
20
-156.975
11
82.01
21
-156.975
0
LINE
8
BLACK
6
CONTINUOUS
10
82.01
20
-156.975
11
82.0454
21
-156.99
0
LINE
8
BLACK
6
CONTINUOUS
10
87.0454
20
-156.99
11
87.06
21
-157.025
0
LINE
8
BLACK
6
CONTINUOUS
10
87.06
20
-157.025
11
87.06
21
-159.025
0
LINE
8
BLACK
6
CONTINUOUS
10
87.06
20
-159.025
11
87.0454
21
-159.06
0
LINE
8
BLACK
6
CONTINUOUS
10
87.0454
20
-159.06
11
87.01
21
-159.075
0
LINE
8
BLACK
6
CONTINUOUS
10
87.01
20
-159.075
11
85.01
21
-159.075
0
LINE
8
BLACK
6
CONTINUOUS
10
85.01
20
-159.075
11
84.9746
21
-159.06
0
LINE
8
BLACK
6
CONTINUOUS
10
84.9746
20
-159.06
11
84.96
21
-159.025
0
LINE
8
BLACK
6
CONTINUOUS
10
84.96
20
-159.025
11
84.96
21
-157.025
0
LINE
8
BLACK
6
CONTINUOUS
10
84.96
20
-157.025
11
84.9746
21
-156.99
0
LINE
8
BLACK
6
CONTINUOUS
10
84.9746
20
-156.99
11
85.01
21
-156.975
0
LINE
8
BLACK
6
CONTINUOUS
10
85.01
20
-156.975
11
87.01
21
-156.975
0
LINE
8
BLACK
6
CONTINUOUS
10
87.01
20
-156.975
11
87.0454
21
-156.99
0
LINE
8
BLACK
6
CONTINUOUS
10
78.3454
20
-156.79
11
78.36
21
-156.825
0
LINE
8
BLACK
6
CONTINUOUS
10
78.36
20
-156.825
11
78.36
21
-164.225
0
LINE
8
BLACK
6
CONTINUOUS
10
78.36
20
-164.225
11
78.3454
21
-164.26
0
LINE
8
BLACK
6
CONTINUOUS
10
78.3454
20
-164.26
11
78.31
21
-164.275
0
LINE
8
BLACK
6
CONTINUOUS
10
78.31
20
-164.275
11
73.61
21
-164.275
0
LINE
8
BLACK
6
CONTINUOUS
10
73.61
20
-164.275
11
73.5746
21
-164.26
0
LINE
8
BLACK
6
CONTINUOUS
10
73.5746
20
-164.26
11
73.56
21
-164.225
0
LINE
8
BLACK
6
CONTINUOUS
10
73.56
20
-164.225
11
73.56
21
-156.825
0
LINE
8
BLACK
6
CONTINUOUS
10
73.56
20
-156.825
11
73.5746
21
-156.79
0
LINE
8
BLACK
6
CONTINUOUS
10
73.5746
20
-156.79
11
73.61
21
-156.775
0
LINE
8
BLACK
6
CONTINUOUS
10
73.61
20
-156.775
11
78.31
21
-156.775
0
LINE
8
BLACK
6
CONTINUOUS
10
78.31
20
-156.775
11
78.3454
21
-156.79
0
LINE
8
BLACK
6
CONTINUOUS
10
84.5454
20
-156.99
11
84.56
21
-157.025
0
LINE
8
BLACK
6
CONTINUOUS
10
84.56
20
-157.025
11
84.56
21
-159.025
0
LINE
8
BLACK
6
CONTINUOUS
10
84.56
20
-159.025
11
84.5454
21
-159.06
0
LINE
8
BLACK
6
CONTINUOUS
10
84.5454
20
-159.06
11
84.51
21
-159.075
0
LINE
8
BLACK
6
CONTINUOUS
10
84.51
20
-159.075
11
82.51
21
-159.075
0
LINE
8
BLACK
6
CONTINUOUS
10
82.51
20
-159.075
11
82.4746
21
-159.06
0
LINE
8
BLACK
6
CONTINUOUS
10
82.4746
20
-159.06
11
82.46
21
-159.025
0
LINE
8
BLACK
6
CONTINUOUS
10
82.46
20
-159.025
11
82.46
21
-157.025
0
LINE
8
BLACK
6
CONTINUOUS
10
82.46
20
-157.025
11
82.4746
21
-156.99
0
LINE
8
BLACK
6
CONTINUOUS
10
82.4746
20
-156.99
11
82.51
21
-156.975
0
LINE
8
BLACK
6
CONTINUOUS
10
82.51
20
-156.975
11
84.51
21
-156.975
0
LINE
8
BLACK
6
CONTINUOUS
10
84.51
20
-156.975
11
84.5454
21
-156.99
0
LINE
8
BLACK
6
CONTINUOUS
10
377.31
20
-146.525
11
377.31
21
-127.475
0
LINE
8
BLACK
6
CONTINUOUS
10
358.26
20
-127.475
11
358.26
21
-146.525
0
LINE
8
BLACK
6
CONTINUOUS
10
358.26
20
-146.525
11
377.31
21
-146.525
0
LINE
8
BLACK
6
CONTINUOUS
10
377.31
20
-127.475
11
358.26
21
-127.475
0
LINE
8
BLACK
6
CONTINUOUS
10
91.56
20
-89.375
11
91.56
21
-70.325
0
LINE
8
BLACK
6
CONTINUOUS
10
72.51
20
-70.325
11
72.51
21
-89.375
0
LINE
8
BLACK
6
CONTINUOUS
10
72.51
20
-89.375
11
91.56
21
-89.375
0
LINE
8
BLACK
6
CONTINUOUS
10
91.56
20
-70.325
11
72.51
21
-70.325
0
LINE
8
BLACK
6
CONTINUOUS
10
377.31
20
-89.375
11
377.31
21
-70.325
0
LINE
8
BLACK
6
CONTINUOUS
10
377.31
20
-70.325
11
348.735
21
-70.325
0
LINE
8
BLACK
6
CONTINUOUS
10
348.735
20
-70.325
11
348.735
21
-89.375
0
LINE
8
BLACK
6
CONTINUOUS
10
348.735
20
-89.375
11
377.31
21
-89.375
0
LINE
8
BLACK
6
CONTINUOUS
10
339.21
20
-51.275
11
339.21
21
-70.325
0
LINE
8
BLACK
6
CONTINUOUS
10
339.21
20
-70.325
11
377.31
21
-70.325
0
LINE
8
BLACK
6
CONTINUOUS
10
377.31
20
-51.275
11
339.21
21
-51.275
0
LINE
8
BLACK
6
CONTINUOUS
10
377.31
20
-70.325
11
377.31
21
-51.275
0
LINE
8
BLACK
6
CONTINUOUS
10
358.26
20
-146.525
11
358.26
21
-127.475
0
LINE
8
BLACK
6
CONTINUOUS
10
339.21
20
-127.475
11
339.21
21
-146.525
0
LINE
8
BLACK
6
CONTINUOUS
10
339.21
20
-146.525
11
358.26
21
-146.525
0
LINE
8
BLACK
6
CONTINUOUS
10
358.26
20
-127.475
11
339.21
21
-127.475
0
LINE
8
BLACK
6
CONTINUOUS
10
339.21
20
-146.525
11
339.21
21
-127.475
0
LINE
8
BLACK
6
CONTINUOUS
10
320.16
20
-127.475
11
320.16
21
-146.525
0
LINE
8
BLACK
6
CONTINUOUS
10
320.16
20
-146.525
11
339.21
21
-146.525
0
LINE
8
BLACK
6
CONTINUOUS
10
339.21
20
-127.475
11
320.16
21
-127.475
0
LINE
8
BLACK
6
CONTINUOUS
10
377.31
20
-89.375
11
334.447
21
-89.375
0
LINE
8
BLACK
6
CONTINUOUS
10
377.31
20
-108.425
11
377.31
21
-89.375
0
LINE
8
BLACK
6
CONTINUOUS
10
334.447
20
-108.425
11
377.31
21
-108.425
0
LINE
8
BLACK
6
CONTINUOUS
10
334.447
20
-89.375
11
334.447
21
-108.425
0
LINE
8
BLACK
6
CONTINUOUS
10
348.735
20
-89.375
11
348.735
21
-70.325
0
LINE
8
BLACK
6
CONTINUOUS
10
329.685
20
-70.325
11
329.685
21
-89.375
0
LINE
8
BLACK
6
CONTINUOUS
10
329.685
20
-89.375
11
348.735
21
-89.375
0
LINE
8
BLACK
6
CONTINUOUS
10
348.735
20
-70.325
11
329.685
21
-70.325
0
LINE
8
BLACK
6
CONTINUOUS
10
339.21
20
-70.325
11
339.21
21
-51.275
0
LINE
8
BLACK
6
CONTINUOUS
10
320.16
20
-51.275
11
320.16
21
-70.325
0
LINE
8
BLACK
6
CONTINUOUS
10
320.16
20
-70.325
11
339.21
21
-70.325
0
LINE
8
BLACK
6
CONTINUOUS
10
339.21
20
-51.275
11
320.16
21
-51.275
0
LINE
8
BLACK
6
CONTINUOUS
10
320.16
20
-146.525
11
320.16
21
-127.475
0
LINE
8
BLACK
6
CONTINUOUS
10
301.11
20
-127.475
11
301.11
21
-146.525
0
LINE
8
BLACK
6
CONTINUOUS
10
301.11
20
-146.525
11
320.16
21
-146.525
0
LINE
8
BLACK
6
CONTINUOUS
10
320.16
20
-127.475
11
301.11
21
-127.475
0
LINE
8
BLACK
6
CONTINUOUS
10
324.923
20
-127.475
11
377.31
21
-127.475
0
LINE
8
BLACK
6
CONTINUOUS
10
324.923
20
-108.425
11
324.923
21
-127.475
0
LINE
8
BLACK
6
CONTINUOUS
10
377.31
20
-127.475
11
377.31
21
-108.425
0
LINE
8
BLACK
6
CONTINUOUS
10
377.31
20
-108.425
11
324.923
21
-108.425
0
LINE
8
BLACK
6
CONTINUOUS
10
334.447
20
-108.425
11
334.447
21
-89.375
0
LINE
8
BLACK
6
CONTINUOUS
10
315.397
20
-89.375
11
315.397
21
-108.425
0
LINE
8
BLACK
6
CONTINUOUS
10
315.397
20
-108.425
11
334.447
21
-108.425
0
LINE
8
BLACK
6
CONTINUOUS
10
334.447
20
-89.375
11
315.397
21
-89.375
0
LINE
8
BLACK
6
CONTINUOUS
10
329.685
20
-89.375
11
329.685
21
-70.325
0
LINE
8
BLACK
6
CONTINUOUS
10
310.635
20
-70.325
11
310.635
21
-89.375
0
LINE
8
BLACK
6
CONTINUOUS
10
310.635
20
-89.375
11
329.685
21
-89.375
0
LINE
8
BLACK
6
CONTINUOUS
10
329.685
20
-70.325
11
310.635
21
-70.325
0
LINE
8
BLACK
6
CONTINUOUS
10
320.16
20
-70.325
11
320.16
21
-51.275
0
LINE
8
BLACK
6
CONTINUOUS
10
301.11
20
-51.275
11
301.11
21
-70.325
0
LINE
8
BLACK
6
CONTINUOUS
10
301.11
20
-70.325
11
320.16
21
-70.325
0
LINE
8
BLACK
6
CONTINUOUS
10
320.16
20
-51.275
11
301.11
21
-51.275
0
LINE
8
BLACK
6
CONTINUOUS
10
91.56
20
-127.475
11
91.56
21
-108.425
0
LINE
8
BLACK
6
CONTINUOUS
10
72.51
20
-108.425
11
72.51
21
-127.475
0
LINE
8
BLACK
6
CONTINUOUS
10
72.51
20
-127.475
11
91.56
21
-127.475
0
LINE
8
BLACK
6
CONTINUOUS
10
91.56
20
-108.425
11
72.51
21
-108.425
0
LINE
8
BLACK
6
CONTINUOUS
10
324.923
20
-127.475
11
324.923
21
-108.425
0
LINE
8
BLACK
6
CONTINUOUS
10
305.873
20
-108.425
11
305.873
21
-127.475
0
LINE
8
BLACK
6
CONTINUOUS
10
305.873
20
-127.475
11
324.923
21
-127.475
0
LINE
8
BLACK
6
CONTINUOUS
10
324.923
20
-108.425
11
305.873
21
-108.425
0
LINE
8
BLACK
6
CONTINUOUS
10
315.397
20
-108.425
11
315.397
21
-89.375
0
LINE
8
BLACK
6
CONTINUOUS
10
296.347
20
-89.375
11
296.347
21
-108.425
0
LINE
8
BLACK
6
CONTINUOUS
10
296.347
20
-108.425
11
315.397
21
-108.425
0
LINE
8
BLACK
6
CONTINUOUS
10
315.397
20
-89.375
11
296.347
21
-89.375
0
LINE
8
BLACK
6
CONTINUOUS
10
310.635
20
-89.375
11
310.635
21
-70.325
0
LINE
8
BLACK
6
CONTINUOUS
10
291.585
20
-70.325
11
291.585
21
-89.375
0
LINE
8
BLACK
6
CONTINUOUS
10
291.585
20
-89.375
11
310.635
21
-89.375
0
LINE
8
BLACK
6
CONTINUOUS
10
310.635
20
-70.325
11
291.585
21
-70.325
0
LINE
8
BLACK
6
CONTINUOUS
10
301.11
20
-70.325
11
301.11
21
-51.275
0
LINE
8
BLACK
6
CONTINUOUS
10
282.06
20
-51.275
11
282.06
21
-70.325
0
LINE
8
BLACK
6
CONTINUOUS
10
282.06
20
-70.325
11
301.11
21
-70.325
0
LINE
8
BLACK
6
CONTINUOUS
10
301.11
20
-51.275
11
282.06
21
-51.275
0
LINE
8
BLACK
6
CONTINUOUS
10
301.11
20
-146.525
11
301.11
21
-127.475
0
LINE
8
BLACK
6
CONTINUOUS
10
282.06
20
-127.475
11
282.06
21
-146.525
0
LINE
8
BLACK
6
CONTINUOUS
10
282.06
20
-146.525
11
301.11
21
-146.525
0
LINE
8
BLACK
6
CONTINUOUS
10
301.11
20
-127.475
11
282.06
21
-127.475
0
LINE
8
BLACK
6
CONTINUOUS
10
305.873
20
-127.475
11
305.873
21
-108.425
0
LINE
8
BLACK
6
CONTINUOUS
10
286.822
20
-108.425
11
286.822
21
-127.475
0
LINE
8
BLACK
6
CONTINUOUS
10
286.822
20
-127.475
11
305.873
21
-127.475
0
LINE
8
BLACK
6
CONTINUOUS
10
305.873
20
-108.425
11
286.822
21
-108.425
0
LINE
8
BLACK
6
CONTINUOUS
10
296.347
20
-108.425
11
296.347
21
-89.375
0
LINE
8
BLACK
6
CONTINUOUS
10
277.298
20
-89.375
11
277.298
21
-108.425
0
LINE
8
BLACK
6
CONTINUOUS
10
277.298
20
-108.425
11
296.347
21
-108.425
0
LINE
8
BLACK
6
CONTINUOUS
10
296.347
20
-89.375
11
277.298
21
-89.375
0
LINE
8
BLACK
6
CONTINUOUS
10
291.585
20
-89.375
11
291.585
21
-70.325
0
LINE
8
BLACK
6
CONTINUOUS
10
272.535
20
-70.325
11
272.535
21
-89.375
0
LINE
8
BLACK
6
CONTINUOUS
10
272.535
20
-89.375
11
291.585
21
-89.375
0
LINE
8
BLACK
6
CONTINUOUS
10
291.585
20
-70.325
11
272.535
21
-70.325
0
LINE
8
BLACK
6
CONTINUOUS
10
282.06
20
-70.325
11
282.06
21
-51.275
0
LINE
8
BLACK
6
CONTINUOUS
10
263.01
20
-51.275
11
263.01
21
-70.325
0
LINE
8
BLACK
6
CONTINUOUS
10
263.01
20
-70.325
11
282.06
21
-70.325
0
LINE
8
BLACK
6
CONTINUOUS
10
282.06
20
-51.275
11
263.01
21
-51.275
0
LINE
8
BLACK
6
CONTINUOUS
10
282.06
20
-146.525
11
282.06
21
-127.475
0
LINE
8
BLACK
6
CONTINUOUS
10
263.01
20
-127.475
11
263.01
21
-146.525
0
LINE
8
BLACK
6
CONTINUOUS
10
263.01
20
-146.525
11
282.06
21
-146.525
0
LINE
8
BLACK
6
CONTINUOUS
10
282.06
20
-127.475
11
263.01
21
-127.475
0
LINE
8
BLACK
6
CONTINUOUS
10
286.822
20
-127.475
11
286.822
21
-108.425
0
LINE
8
BLACK
6
CONTINUOUS
10
267.772
20
-108.425
11
267.772
21
-127.475
0
LINE
8
BLACK
6
CONTINUOUS
10
267.772
20
-127.475
11
286.822
21
-127.475
0
LINE
8
BLACK
6
CONTINUOUS
10
286.822
20
-108.425
11
267.772
21
-108.425
0
LINE
8
BLACK
6
CONTINUOUS
10
277.298
20
-108.425
11
277.298
21
-89.375
0
LINE
8
BLACK
6
CONTINUOUS
10
258.248
20
-89.375
11
258.248
21
-108.425
0
LINE
8
BLACK
6
CONTINUOUS
10
258.248
20
-108.425
11
277.298
21
-108.425
0
LINE
8
BLACK
6
CONTINUOUS
10
277.298
20
-89.375
11
258.248
21
-89.375
0
LINE
8
BLACK
6
CONTINUOUS
10
272.535
20
-89.375
11
272.535
21
-70.325
0
LINE
8
BLACK
6
CONTINUOUS
10
253.485
20
-70.325
11
253.485
21
-89.375
0
LINE
8
BLACK
6
CONTINUOUS
10
253.485
20
-89.375
11
272.535
21
-89.375
0
LINE
8
BLACK
6
CONTINUOUS
10
272.535
20
-70.325
11
253.485
21
-70.325
0
LINE
8
BLACK
6
CONTINUOUS
10
263.01
20
-70.325
11
263.01
21
-51.275
0
LINE
8
BLACK
6
CONTINUOUS
10
243.96
20
-51.275
11
243.96
21
-70.325
0
LINE
8
BLACK
6
CONTINUOUS
10
243.96
20
-70.325
11
263.01
21
-70.325
0
LINE
8
BLACK
6
CONTINUOUS
10
263.01
20
-51.275
11
243.96
21
-51.275
0
LINE
8
BLACK
6
CONTINUOUS
10
267.772
20
-127.475
11
267.772
21
-108.425
0
LINE
8
BLACK
6
CONTINUOUS
10
248.722
20
-108.425
11
248.722
21
-127.475
0
LINE
8
BLACK
6
CONTINUOUS
10
248.722
20
-127.475
11
267.772
21
-127.475
0
LINE
8
BLACK
6
CONTINUOUS
10
267.772
20
-108.425
11
248.722
21
-108.425
0
LINE
8
BLACK
6
CONTINUOUS
10
258.248
20
-108.425
11
258.248
21
-89.375
0
LINE
8
BLACK
6
CONTINUOUS
10
239.197
20
-89.375
11
239.197
21
-108.425
0
LINE
8
BLACK
6
CONTINUOUS
10
239.197
20
-108.425
11
258.248
21
-108.425
0
LINE
8
BLACK
6
CONTINUOUS
10
258.248
20
-89.375
11
239.197
21
-89.375
0
LINE
8
BLACK
6
CONTINUOUS
10
253.485
20
-89.375
11
253.485
21
-70.325
0
LINE
8
BLACK
6
CONTINUOUS
10
234.435
20
-70.325
11
234.435
21
-89.375
0
LINE
8
BLACK
6
CONTINUOUS
10
234.435
20
-89.375
11
253.485
21
-89.375
0
LINE
8
BLACK
6
CONTINUOUS
10
253.485
20
-70.325
11
234.435
21
-70.325
0
LINE
8
BLACK
6
CONTINUOUS
10
243.96
20
-70.325
11
243.96
21
-51.275
0
LINE
8
BLACK
6
CONTINUOUS
10
224.91
20
-51.275
11
224.91
21
-70.325
0
LINE
8
BLACK
6
CONTINUOUS
10
224.91
20
-70.325
11
243.96
21
-70.325
0
LINE
8
BLACK
6
CONTINUOUS
10
243.96
20
-51.275
11
224.91
21
-51.275
0
LINE
8
BLACK
6
CONTINUOUS
10
238.004
20
-172.525
11
238.004
21
-153.475
0
LINE
8
BLACK
6
CONTINUOUS
10
218.954
20
-153.475
11
218.954
21
-172.525
0
LINE
8
BLACK
6
CONTINUOUS
10
218.954
20
-172.525
11
238.004
21
-172.525
0
LINE
8
BLACK
6
CONTINUOUS
10
238.004
20
-153.475
11
218.954
21
-153.475
0
LINE
8
BLACK
6
CONTINUOUS
10
248.722
20
-127.475
11
248.722
21
-108.425
0
LINE
8
BLACK
6
CONTINUOUS
10
229.672
20
-108.425
11
229.672
21
-127.475
0
LINE
8
BLACK
6
CONTINUOUS
10
229.672
20
-127.475
11
248.722
21
-127.475
0
LINE
8
BLACK
6
CONTINUOUS
10
248.722
20
-108.425
11
229.672
21
-108.425
0
LINE
8
BLACK
6
CONTINUOUS
10
239.197
20
-108.425
11
239.197
21
-89.375
0
LINE
8
BLACK
6
CONTINUOUS
10
220.147
20
-89.375
11
220.147
21
-108.425
0
LINE
8
BLACK
6
CONTINUOUS
10
220.147
20
-108.425
11
239.197
21
-108.425
0
LINE
8
BLACK
6
CONTINUOUS
10
239.197
20
-89.375
11
220.147
21
-89.375
0
LINE
8
BLACK
6
CONTINUOUS
10
234.435
20
-89.375
11
234.435
21
-70.325
0
LINE
8
BLACK
6
CONTINUOUS
10
215.385
20
-70.325
11
215.385
21
-89.375
0
LINE
8
BLACK
6
CONTINUOUS
10
215.385
20
-89.375
11
234.435
21
-89.375
0
LINE
8
BLACK
6
CONTINUOUS
10
234.435
20
-70.325
11
215.385
21
-70.325
0
LINE
8
BLACK
6
CONTINUOUS
10
224.91
20
-70.325
11
224.91
21
-51.275
0
LINE
8
BLACK
6
CONTINUOUS
10
205.86
20
-51.275
11
205.86
21
-70.325
0
LINE
8
BLACK
6
CONTINUOUS
10
205.86
20
-70.325
11
224.91
21
-70.325
0
LINE
8
BLACK
6
CONTINUOUS
10
224.91
20
-51.275
11
205.86
21
-51.275
0
LINE
8
BLACK
6
CONTINUOUS
10
143.947
20
-127.475
11
143.947
21
-146.525
0
LINE
8
BLACK
6
CONTINUOUS
10
263.01
20
-127.475
11
143.947
21
-127.475
0
LINE
8
BLACK
6
CONTINUOUS
10
263.01
20
-146.525
11
263.01
21
-127.475
0
LINE
8
BLACK
6
CONTINUOUS
10
143.947
20
-146.525
11
263.01
21
-146.525
0
LINE
8
BLACK
6
CONTINUOUS
10
229.672
20
-127.475
11
229.672
21
-108.425
0
LINE
8
BLACK
6
CONTINUOUS
10
210.623
20
-108.425
11
210.623
21
-127.475
0
LINE
8
BLACK
6
CONTINUOUS
10
210.623
20
-127.475
11
229.672
21
-127.475
0
LINE
8
BLACK
6
CONTINUOUS
10
229.672
20
-108.425
11
210.623
21
-108.425
0
LINE
8
BLACK
6
CONTINUOUS
10
220.147
20
-108.425
11
220.147
21
-89.375
0
LINE
8
BLACK
6
CONTINUOUS
10
201.097
20
-89.375
11
201.097
21
-108.425
0
LINE
8
BLACK
6
CONTINUOUS
10
201.097
20
-108.425
11
220.147
21
-108.425
0
LINE
8
BLACK
6
CONTINUOUS
10
220.147
20
-89.375
11
201.097
21
-89.375
0
LINE
8
BLACK
6
CONTINUOUS
10
215.385
20
-89.375
11
215.385
21
-70.325
0
LINE
8
BLACK
6
CONTINUOUS
10
196.335
20
-70.325
11
196.335
21
-89.375
0
LINE
8
BLACK
6
CONTINUOUS
10
196.335
20
-89.375
11
215.385
21
-89.375
0
LINE
8
BLACK
6
CONTINUOUS
10
215.385
20
-70.325
11
196.335
21
-70.325
0
LINE
8
BLACK
6
CONTINUOUS
10
205.86
20
-70.325
11
205.86
21
-51.275
0
LINE
8
BLACK
6
CONTINUOUS
10
186.81
20
-51.275
11
186.81
21
-70.325
0
LINE
8
BLACK
6
CONTINUOUS
10
186.81
20
-70.325
11
205.86
21
-70.325
0
LINE
8
BLACK
6
CONTINUOUS
10
205.86
20
-51.275
11
186.81
21
-51.275
0
LINE
8
BLACK
6
CONTINUOUS
10
91.56
20
-108.425
11
91.56
21
-89.375
0
LINE
8
BLACK
6
CONTINUOUS
10
72.51
20
-89.375
11
72.51
21
-108.425
0
LINE
8
BLACK
6
CONTINUOUS
10
72.51
20
-108.425
11
91.56
21
-108.425
0
LINE
8
BLACK
6
CONTINUOUS
10
91.56
20
-89.375
11
72.51
21
-89.375
0
LINE
8
BLACK
6
CONTINUOUS
10
210.623
20
-127.475
11
210.623
21
-108.425
0
LINE
8
BLACK
6
CONTINUOUS
10
191.572
20
-108.425
11
191.572
21
-127.475
0
LINE
8
BLACK
6
CONTINUOUS
10
191.572
20
-127.475
11
210.623
21
-127.475
0
LINE
8
BLACK
6
CONTINUOUS
10
210.623
20
-108.425
11
191.572
21
-108.425
0
LINE
8
BLACK
6
CONTINUOUS
10
201.097
20
-108.425
11
201.097
21
-89.375
0
LINE
8
BLACK
6
CONTINUOUS
10
182.047
20
-89.375
11
182.047
21
-108.425
0
LINE
8
BLACK
6
CONTINUOUS
10
182.047
20
-108.425
11
201.097
21
-108.425
0
LINE
8
BLACK
6
CONTINUOUS
10
201.097
20
-89.375
11
182.047
21
-89.375
0
LINE
8
BLACK
6
CONTINUOUS
10
196.335
20
-89.375
11
196.335
21
-70.325
0
LINE
8
BLACK
6
CONTINUOUS
10
177.285
20
-70.325
11
177.285
21
-89.375
0
LINE
8
BLACK
6
CONTINUOUS
10
177.285
20
-89.375
11
196.335
21
-89.375
0
LINE
8
BLACK
6
CONTINUOUS
10
196.335
20
-70.325
11
177.285
21
-70.325
0
LINE
8
BLACK
6
CONTINUOUS
10
186.81
20
-70.325
11
186.81
21
-51.275
0
LINE
8
BLACK
6
CONTINUOUS
10
167.76
20
-51.275
11
167.76
21
-70.325
0
LINE
8
BLACK
6
CONTINUOUS
10
167.76
20
-70.325
11
186.81
21
-70.325
0
LINE
8
BLACK
6
CONTINUOUS
10
186.81
20
-51.275
11
167.76
21
-51.275
0
LINE
8
BLACK
6
CONTINUOUS
10
188.004
20
-172.525
11
188.004
21
-153.475
0
LINE
8
BLACK
6
CONTINUOUS
10
168.954
20
-153.475
11
168.954
21
-172.525
0
LINE
8
BLACK
6
CONTINUOUS
10
168.954
20
-172.525
11
188.004
21
-172.525
0
LINE
8
BLACK
6
CONTINUOUS
10
188.004
20
-153.475
11
168.954
21
-153.475
0
LINE
8
BLACK
6
CONTINUOUS
10
191.572
20
-127.475
11
191.572
21
-108.425
0
LINE
8
BLACK
6
CONTINUOUS
10
172.522
20
-108.425
11
172.522
21
-127.475
0
LINE
8
BLACK
6
CONTINUOUS
10
172.522
20
-127.475
11
191.572
21
-127.475
0
LINE
8
BLACK
6
CONTINUOUS
10
191.572
20
-108.425
11
172.522
21
-108.425
0
LINE
8
BLACK
6
CONTINUOUS
10
182.047
20
-108.425
11
182.047
21
-89.375
0
LINE
8
BLACK
6
CONTINUOUS
10
162.998
20
-89.375
11
162.998
21
-108.425
0
LINE
8
BLACK
6
CONTINUOUS
10
162.998
20
-108.425
11
182.047
21
-108.425
0
LINE
8
BLACK
6
CONTINUOUS
10
182.047
20
-89.375
11
162.998
21
-89.375
0
LINE
8
BLACK
6
CONTINUOUS
10
177.285
20
-89.375
11
177.285
21
-70.325
0
LINE
8
BLACK
6
CONTINUOUS
10
158.235
20
-70.325
11
158.235
21
-89.375
0
LINE
8
BLACK
6
CONTINUOUS
10
158.235
20
-89.375
11
177.285
21
-89.375
0
LINE
8
BLACK
6
CONTINUOUS
10
177.285
20
-70.325
11
158.235
21
-70.325
0
LINE
8
BLACK
6
CONTINUOUS
10
167.76
20
-70.325
11
167.76
21
-51.275
0
LINE
8
BLACK
6
CONTINUOUS
10
148.71
20
-51.275
11
148.71
21
-70.325
0
LINE
8
BLACK
6
CONTINUOUS
10
148.71
20
-70.325
11
167.76
21
-70.325
0
LINE
8
BLACK
6
CONTINUOUS
10
167.76
20
-51.275
11
148.71
21
-51.275
0
LINE
8
BLACK
6
CONTINUOUS
10
143.947
20
-146.525
11
143.947
21
-127.475
0
LINE
8
BLACK
6
CONTINUOUS
10
120.135
20
-127.475
11
120.135
21
-146.525
0
LINE
8
BLACK
6
CONTINUOUS
10
120.135
20
-146.525
11
143.947
21
-146.525
0
LINE
8
BLACK
6
CONTINUOUS
10
143.947
20
-127.475
11
120.135
21
-127.475
0
LINE
8
BLACK
6
CONTINUOUS
10
172.522
20
-127.475
11
172.522
21
-108.425
0
LINE
8
BLACK
6
CONTINUOUS
10
153.472
20
-108.425
11
153.472
21
-127.475
0
LINE
8
BLACK
6
CONTINUOUS
10
153.472
20
-127.475
11
172.522
21
-127.475
0
LINE
8
BLACK
6
CONTINUOUS
10
172.522
20
-108.425
11
153.472
21
-108.425
0
LINE
8
BLACK
6
CONTINUOUS
10
162.998
20
-108.425
11
162.998
21
-89.375
0
LINE
8
BLACK
6
CONTINUOUS
10
143.947
20
-89.375
11
143.947
21
-108.425
0
LINE
8
BLACK
6
CONTINUOUS
10
143.947
20
-108.425
11
162.998
21
-108.425
0
LINE
8
BLACK
6
CONTINUOUS
10
162.998
20
-89.375
11
143.947
21
-89.375
0
LINE
8
BLACK
6
CONTINUOUS
10
158.235
20
-89.375
11
158.235
21
-70.325
0
LINE
8
BLACK
6
CONTINUOUS
10
139.185
20
-70.325
11
139.185
21
-89.375
0
LINE
8
BLACK
6
CONTINUOUS
10
139.185
20
-89.375
11
158.235
21
-89.375
0
LINE
8
BLACK
6
CONTINUOUS
10
158.235
20
-70.325
11
139.185
21
-70.325
0
LINE
8
BLACK
6
CONTINUOUS
10
148.71
20
-70.325
11
148.71
21
-51.275
0
LINE
8
BLACK
6
CONTINUOUS
10
129.66
20
-51.275
11
129.66
21
-70.325
0
LINE
8
BLACK
6
CONTINUOUS
10
129.66
20
-70.325
11
148.71
21
-70.325
0
LINE
8
BLACK
6
CONTINUOUS
10
148.71
20
-51.275
11
129.66
21
-51.275
0
LINE
8
BLACK
6
CONTINUOUS
10
120.135
20
-146.525
11
120.135
21
-127.475
0
LINE
8
BLACK
6
CONTINUOUS
10
96.3225
20
-127.475
11
96.3225
21
-146.525
0
LINE
8
BLACK
6
CONTINUOUS
10
96.3225
20
-146.525
11
120.135
21
-146.525
0
LINE
8
BLACK
6
CONTINUOUS
10
120.135
20
-127.475
11
96.3225
21
-127.475
0
LINE
8
BLACK
6
CONTINUOUS
10
153.472
20
-127.475
11
153.472
21
-108.425
0
LINE
8
BLACK
6
CONTINUOUS
10
134.422
20
-108.425
11
134.422
21
-127.475
0
LINE
8
BLACK
6
CONTINUOUS
10
134.422
20
-127.475
11
153.472
21
-127.475
0
LINE
8
BLACK
6
CONTINUOUS
10
153.472
20
-108.425
11
134.422
21
-108.425
0
LINE
8
BLACK
6
CONTINUOUS
10
143.947
20
-108.425
11
143.947
21
-89.375
0
LINE
8
BLACK
6
CONTINUOUS
10
124.897
20
-89.375
11
124.897
21
-108.425
0
LINE
8
BLACK
6
CONTINUOUS
10
124.897
20
-108.425
11
143.947
21
-108.425
0
LINE
8
BLACK
6
CONTINUOUS
10
143.947
20
-89.375
11
124.897
21
-89.375
0
LINE
8
BLACK
6
CONTINUOUS
10
139.185
20
-89.375
11
139.185
21
-70.325
0
LINE
8
BLACK
6
CONTINUOUS
10
120.135
20
-70.325
11
120.135
21
-89.375
0
LINE
8
BLACK
6
CONTINUOUS
10
120.135
20
-89.375
11
139.185
21
-89.375
0
LINE
8
BLACK
6
CONTINUOUS
10
139.185
20
-70.325
11
120.135
21
-70.325
0
LINE
8
BLACK
6
CONTINUOUS
10
129.66
20
-70.325
11
129.66
21
-51.275
0
LINE
8
BLACK
6
CONTINUOUS
10
110.61
20
-51.275
11
110.61
21
-70.325
0
LINE
8
BLACK
6
CONTINUOUS
10
110.61
20
-70.325
11
129.66
21
-70.325
0
LINE
8
BLACK
6
CONTINUOUS
10
129.66
20
-51.275
11
110.61
21
-51.275
0
LINE
8
BLACK
6
CONTINUOUS
10
96.3225
20
-146.525
11
96.3225
21
-127.475
0
LINE
8
BLACK
6
CONTINUOUS
10
72.51
20
-127.475
11
72.51
21
-146.525
0
LINE
8
BLACK
6
CONTINUOUS
10
72.51
20
-146.525
11
96.3225
21
-146.525
0
LINE
8
BLACK
6
CONTINUOUS
10
96.3225
20
-127.475
11
72.51
21
-127.475
0
LINE
8
BLACK
6
CONTINUOUS
10
134.422
20
-108.425
11
91.56
21
-108.425
0
LINE
8
BLACK
6
CONTINUOUS
10
134.422
20
-127.475
11
134.422
21
-108.425
0
LINE
8
BLACK
6
CONTINUOUS
10
91.56
20
-127.475
11
134.422
21
-127.475
0
LINE
8
BLACK
6
CONTINUOUS
10
91.56
20
-108.425
11
91.56
21
-127.475
0
LINE
8
BLACK
6
CONTINUOUS
10
124.897
20
-108.425
11
124.897
21
-89.375
0
LINE
8
BLACK
6
CONTINUOUS
10
91.56
20
-108.425
11
124.897
21
-108.425
0
LINE
8
BLACK
6
CONTINUOUS
10
124.897
20
-89.375
11
91.56
21
-89.375
0
LINE
8
BLACK
6
CONTINUOUS
10
91.56
20
-89.375
11
91.56
21
-108.425
0
LINE
8
BLACK
6
CONTINUOUS
10
120.135
20
-89.375
11
120.135
21
-70.325
0
LINE
8
BLACK
6
CONTINUOUS
10
120.135
20
-70.325
11
91.56
21
-70.325
0
LINE
8
BLACK
6
CONTINUOUS
10
91.56
20
-70.325
11
91.56
21
-89.375
0
LINE
8
BLACK
6
CONTINUOUS
10
91.56
20
-89.375
11
120.135
21
-89.375
0
LINE
8
BLACK
6
CONTINUOUS
10
110.61
20
-70.325
11
110.61
21
-51.275
0
LINE
8
BLACK
6
CONTINUOUS
10
91.56
20
-51.275
11
91.56
21
-70.325
0
LINE
8
BLACK
6
CONTINUOUS
10
91.56
20
-70.325
11
110.61
21
-70.325
0
LINE
8
BLACK
6
CONTINUOUS
10
110.61
20
-51.275
11
91.56
21
-51.275
  0
ENDSEC
  0
EOF
