<?xml version="1.0" standalone="no"?>
 <!DOCTYPE svg PUBLIC "-//W3C//DTD SVG 1.1//EN" 
 "http://www.w3.org/Graphics/SVG/1.1/DTD/svg11.dtd"> 
<svg
  xmlns:svg="http://www.w3.org/2000/svg"
  xmlns="http://www.w3.org/2000/svg"
  xmlns:xlink="http://www.w3.org/1999/xlink"
  version="1.1"
  width="32.191960cm" height="12.882880cm" viewBox="0 0 321919600 128828800">
<title>SVG Picture created as pico_keyboard_v1-User_1.svg date 2022/06/01 20:07:00 </title>
  <desc>Picture generated by PCBNEW </desc>
<g style="fill:#000000; fill-opacity:1.000000;stroke:#000000; stroke-opacity:1.000000;
stroke-linecap:round; stroke-linejoin:round;"
 transform="translate(0 0) scale(1 1)">
</g>
<g style="fill:#000000; fill-opacity:0.0; 
stroke:#000000; stroke-width:0.000000; stroke-opacity:1; 
stroke-linecap:round; stroke-linejoin:round;">
</g>
<g style="fill:#C2C2C2; fill-opacity:0.0; 
stroke:#C2C2C2; stroke-width:0.000000; stroke-opacity:1; 
stroke-linecap:round; stroke-linejoin:round;">
</g>
<g style="fill:#C2C2C2; fill-opacity:0.0; 
stroke:#C2C2C2; stroke-width:200000.000000; stroke-opacity:1; 
stroke-linecap:round; stroke-linejoin:round;">
<path d="M258760000 17239000
L258760000 3390000
" />
<path d="M272609000 17239000
L258760000 17239000
" />
<path d="M272609000 3390000
L272609000 17239000
" />
<path d="M258760000 3390000
L272609000 3390000
" />
<path d="M239710000 17239000
L239710000 3390000
" />
<path d="M253559000 17239000
L239710000 17239000
" />
<path d="M253559000 3390000
L253559000 17239000
" />
<path d="M239710000 3390000
L253559000 3390000
" />
<path d="M220660000 17239000
L220660000 3390000
" />
<path d="M234509000 17239000
L220660000 17239000
" />
<path d="M234509000 3390000
L234509000 17239000
" />
<path d="M220660000 3390000
L234509000 3390000
" />
<path d="M201610000 17239000
L201610000 3390000
" />
<path d="M215459000 17239000
L201610000 17239000
" />
<path d="M215459000 3390000
L215459000 17239000
" />
<path d="M201610000 3390000
L215459000 3390000
" />
<path d="M182560000 17239000
L182560000 3390000
" />
<path d="M196409000 17239000
L182560000 17239000
" />
<path d="M196409000 3390000
L196409000 17239000
" />
<path d="M182560000 3390000
L196409000 3390000
" />
<path d="M163510000 17239000
L163510000 3390000
" />
<path d="M177359000 17239000
L163510000 17239000
" />
<path d="M177359000 3390000
L177359000 17239000
" />
<path d="M163510000 3390000
L177359000 3390000
" />
<path d="M144460000 17239000
L144460000 3390000
" />
<path d="M158309000 17239000
L144460000 17239000
" />
<path d="M158309000 3390000
L158309000 17239000
" />
<path d="M144460000 3390000
L158309000 3390000
" />
<path d="M125410000 17239000
L125410000 3390000
" />
<path d="M139259000 17239000
L125410000 17239000
" />
<path d="M139259000 3390000
L139259000 17239000
" />
<path d="M125410000 3390000
L139259000 3390000
" />
<path d="M106360000 17239000
L106360000 3390000
" />
<path d="M120209000 17239000
L106360000 17239000
" />
<path d="M120209000 3390000
L120209000 17239000
" />
<path d="M106360000 3390000
L120209000 3390000
" />
<path d="M87310000 17239000
L87310000 3390000
" />
<path d="M101159000 17239000
L87310000 17239000
" />
<path d="M101159000 3390000
L101159000 17239000
" />
<path d="M87310000 3390000
L101159000 3390000
" />
<path d="M68260000 17239000
L68260000 3390000
" />
<path d="M82109000 17239000
L68260000 17239000
" />
<path d="M82109000 3390000
L82109000 17239000
" />
<path d="M68260000 3390000
L82109000 3390000
" />
<path d="M49210000 17239000
L49210000 3390000
" />
<path d="M63059000 17239000
L49210000 17239000
" />
<path d="M63059000 3390000
L63059000 17239000
" />
<path d="M49210000 3390000
L63059000 3390000
" />
<path d="M30159900 17239000
L30159900 3390000
" />
<path d="M44009000 17239000
L30159900 17239000
" />
<path d="M44009000 3390000
L44009000 17239000
" />
<path d="M30159900 3390000
L44009000 3390000
" />
<path d="M11109860 17239000
L11109860 3390000
" />
<path d="M24959200 17239000
L11109860 17239000
" />
<path d="M24959200 3390000
L24959200 17239000
" />
<path d="M11109860 3390000
L24959200 3390000
" />
<path d="M301184000 3390000
L287335000 3390000
" />
<path d="M301184000 8089000
L301184000 3390000
" />
<path d="M302860000 8089000
L301184000 8089000
" />
<path d="M302860000 4859000
L302860000 8089000
" />
<path d="M309459000 4859000
L302860000 4859000
" />
<path d="M309459000 8089000
L309459000 4859000
" />
<path d="M310285000 8089000
L309459000 8089000
" />
<path d="M310285000 10739100
L310285000 8089000
" />
<path d="M309459000 10739100
L310285000 10739100
" />
<path d="M309459000 17009000
L309459000 10739100
" />
<path d="M307734000 17009000
L309459000 17009000
" />
<path d="M307734000 18209200
L307734000 17009000
" />
<path d="M304585000 18209200
L307734000 18209200
" />
<path d="M304585000 17009000
L304585000 18209200
" />
<path d="M302860000 17009000
L304585000 17009000
" />
<path d="M302860000 12540000
L302860000 17009000
" />
<path d="M301184000 12540000
L302860000 12540000
" />
<path d="M301184000 17239000
L301184000 12540000
" />
<path d="M287335000 17239000
L301184000 17239000
" />
<path d="M287335000 12540000
L287335000 17239000
" />
<path d="M285659000 12540000
L287335000 12540000
" />
<path d="M285659000 17009000
L285659000 12540000
" />
<path d="M283934000 17009000
L285659000 17009000
" />
<path d="M283934000 18209200
L283934000 17009000
" />
<path d="M280785000 18209200
L283934000 18209200
" />
<path d="M280785000 17009000
L280785000 18209200
" />
<path d="M279060000 17009000
L280785000 17009000
" />
<path d="M279060000 10739100
L279060000 17009000
" />
<path d="M278234000 10739100
L279060000 10739100
" />
<path d="M278234000 8089000
L278234000 10739100
" />
<path d="M279060000 8089000
L278234000 8089000
" />
<path d="M279060000 4859000
L279060000 8089000
" />
<path d="M285659000 4859000
L279060000 4859000
" />
<path d="M285659000 8089000
L285659000 4859000
" />
<path d="M287335000 8089000
L285659000 8089000
" />
<path d="M287335000 3390000
L287335000 8089000
" />
<path d="M292096000 36289000
L292096000 22440000
" />
<path d="M305947000 36289000
L292096000 36289000
" />
<path d="M305947000 22440000
L305947000 36289000
" />
<path d="M292096000 22440000
L305947000 22440000
" />
<path d="M268285000 36289000
L268285000 22440000
" />
<path d="M282134000 36289000
L268285000 36289000
" />
<path d="M282134000 22440000
L282134000 36289000
" />
<path d="M268285000 22440000
L282134000 22440000
" />
<path d="M249235000 36289000
L249235000 22440000
" />
<path d="M263084000 36289000
L249235000 36289000
" />
<path d="M263084000 22440000
L263084000 36289000
" />
<path d="M249235000 22440000
L263084000 22440000
" />
<path d="M230185000 36289000
L230185000 22440000
" />
<path d="M244034000 36289000
L230185000 36289000
" />
<path d="M244034000 22440000
L244034000 36289000
" />
<path d="M230185000 22440000
L244034000 22440000
" />
<path d="M211135000 36289000
L211135000 22440000
" />
<path d="M224984000 36289000
L211135000 36289000
" />
<path d="M224984000 22440000
L224984000 36289000
" />
<path d="M211135000 22440000
L224984000 22440000
" />
<path d="M192085000 36289000
L192085000 22440000
" />
<path d="M205934000 36289000
L192085000 36289000
" />
<path d="M205934000 22440000
L205934000 36289000
" />
<path d="M192085000 22440000
L205934000 22440000
" />
<path d="M173035000 36289000
L173035000 22440000
" />
<path d="M186884000 36289000
L173035000 36289000
" />
<path d="M186884000 22440000
L186884000 36289000
" />
<path d="M173035000 22440000
L186884000 22440000
" />
<path d="M153985000 36289000
L153985000 22440000
" />
<path d="M167834000 36289000
L153985000 36289000
" />
<path d="M167834000 22440000
L167834000 36289000
" />
<path d="M153985000 22440000
L167834000 22440000
" />
<path d="M134935000 36289000
L134935000 22440000
" />
<path d="M148784000 36289000
L134935000 36289000
" />
<path d="M148784000 22440000
L148784000 36289000
" />
<path d="M134935000 22440000
L148784000 22440000
" />
<path d="M115885000 36289000
L115885000 22440000
" />
<path d="M129734000 36289000
L115885000 36289000
" />
<path d="M129734000 22440000
L129734000 36289000
" />
<path d="M115885000 22440000
L129734000 22440000
" />
<path d="M96835000 36289000
L96835000 22440000
" />
<path d="M110684000 36289000
L96835000 36289000
" />
<path d="M110684000 22440000
L110684000 36289000
" />
<path d="M96835000 22440000
L110684000 22440000
" />
<path d="M77785000 36289000
L77785000 22440000
" />
<path d="M91634000 36289000
L77785000 36289000
" />
<path d="M91634000 22440000
L91634000 36289000
" />
<path d="M77785000 22440000
L91634000 22440000
" />
<path d="M58735000 36289000
L58735000 22440000
" />
<path d="M72584000 36289000
L58735000 36289000
" />
<path d="M72584000 22440000
L72584000 36289000
" />
<path d="M58735000 22440000
L72584000 22440000
" />
<path d="M34921000 36289000
L34921000 22440000
" />
<path d="M48771500 36289000
L34921000 36289000
" />
<path d="M48771500 22440000
L48771500 36289000
" />
<path d="M34921000 22440000
L48771500 22440000
" />
<path d="M11109860 36289000
L11109860 22440000
" />
<path d="M24959200 36289000
L11109860 36289000
" />
<path d="M24959200 22440000
L24959200 36289000
" />
<path d="M11109860 22440000
L24959200 22440000
" />
<path d="M253996000 55339000
L253996000 41490000
" />
<path d="M267847000 55339000
L253996000 55339000
" />
<path d="M267847000 41490000
L267847000 55339000
" />
<path d="M253996000 41490000
L267847000 41490000
" />
<path d="M234946000 55339000
L234946000 41490000
" />
<path d="M248797000 55339000
L234946000 55339000
" />
<path d="M248797000 41490000
L248797000 55339000
" />
<path d="M234946000 41490000
L248797000 41490000
" />
<path d="M215896000 55339000
L215896000 41490000
" />
<path d="M229747000 55339000
L215896000 55339000
" />
<path d="M229747000 41490000
L229747000 55339000
" />
<path d="M215896000 41490000
L229747000 41490000
" />
<path d="M196846000 55339000
L196846000 41490000
" />
<path d="M210697000 55339000
L196846000 55339000
" />
<path d="M210697000 41490000
L210697000 55339000
" />
<path d="M196846000 41490000
L210697000 41490000
" />
<path d="M177796000 55339000
L177796000 41490000
" />
<path d="M191647000 55339000
L177796000 55339000
" />
<path d="M191647000 41490000
L191647000 55339000
" />
<path d="M177796000 41490000
L191647000 41490000
" />
<path d="M158746000 55339000
L158746000 41490000
" />
<path d="M172597000 55339000
L158746000 55339000
" />
<path d="M172597000 41490000
L172597000 55339000
" />
<path d="M158746000 41490000
L172597000 41490000
" />
<path d="M139696000 55339000
L139696000 41490000
" />
<path d="M153547000 55339000
L139696000 55339000
" />
<path d="M153547000 41490000
L153547000 55339000
" />
<path d="M139696000 41490000
L153547000 41490000
" />
<path d="M120646000 55339000
L120646000 41490000
" />
<path d="M134497000 55339000
L120646000 55339000
" />
<path d="M134497000 41490000
L134497000 55339000
" />
<path d="M120646000 41490000
L134497000 41490000
" />
<path d="M101596100 55339000
L101596100 41490000
" />
<path d="M115447000 55339000
L101596100 55339000
" />
<path d="M115447000 41490000
L115447000 55339000
" />
<path d="M101596100 41490000
L115447000 41490000
" />
<path d="M82546100 55339000
L82546100 41490000
" />
<path d="M96396500 55339000
L82546100 55339000
" />
<path d="M96396500 41490000
L96396500 55339000
" />
<path d="M82546100 41490000
L96396500 41490000
" />
<path d="M63496100 55339000
L63496100 41490000
" />
<path d="M77346500 55339000
L63496100 55339000
" />
<path d="M77346500 41490000
L77346500 55339000
" />
<path d="M63496100 41490000
L77346500 41490000
" />
<path d="M37302200 55339000
L37302200 41490000
" />
<path d="M51152800 55339000
L37302200 55339000
" />
<path d="M51152800 41490000
L51152800 55339000
" />
<path d="M37302200 41490000
L51152800 41490000
" />
<path d="M11109860 55339000
L11109860 41490000
" />
<path d="M24959200 55339000
L11109860 55339000
" />
<path d="M24959200 41490000
L24959200 55339000
" />
<path d="M11109860 41490000
L24959200 41490000
" />
<path d="M298803000 41490000
L284952000 41490000
" />
<path d="M298803000 46189000
L298803000 41490000
" />
<path d="M300477000 46189000
L298803000 46189000
" />
<path d="M300477000 42959000
L300477000 46189000
" />
<path d="M307078000 42959000
L300477000 42959000
" />
<path d="M307078000 46189000
L307078000 42959000
" />
<path d="M307902000 46189000
L307078000 46189000
" />
<path d="M307902000 48839100
L307902000 46189000
" />
<path d="M307078000 48839100
L307902000 48839100
" />
<path d="M307078000 55109000
L307078000 48839100
" />
<path d="M305353000 55109000
L307078000 55109000
" />
<path d="M305353000 56309200
L305353000 55109000
" />
<path d="M302202000 56309200
L305353000 56309200
" />
<path d="M302202000 55109000
L302202000 56309200
" />
<path d="M300477000 55109000
L302202000 55109000
" />
<path d="M300477000 50640000
L300477000 55109000
" />
<path d="M298803000 50640000
L300477000 50640000
" />
<path d="M298803000 55339000
L298803000 50640000
" />
<path d="M284952000 55339000
L298803000 55339000
" />
<path d="M284952000 50640000
L284952000 55339000
" />
<path d="M283278000 50640000
L284952000 50640000
" />
<path d="M283278000 55109000
L283278000 50640000
" />
<path d="M281553000 55109000
L283278000 55109000
" />
<path d="M281553000 56309200
L281553000 55109000
" />
<path d="M278402000 56309200
L281553000 56309200
" />
<path d="M278402000 55109000
L278402000 56309200
" />
<path d="M276677000 55109000
L278402000 55109000
" />
<path d="M276677000 48839100
L276677000 55109000
" />
<path d="M275853000 48839100
L276677000 48839100
" />
<path d="M275853000 46189000
L275853000 48839100
" />
<path d="M276677000 46189000
L275853000 46189000
" />
<path d="M276677000 42959000
L276677000 46189000
" />
<path d="M283278000 42959000
L276677000 42959000
" />
<path d="M283278000 46189000
L283278000 42959000
" />
<path d="M284952000 46189000
L283278000 46189000
" />
<path d="M284952000 41490000
L284952000 46189000
" />
<path d="M244471000 74389200
L244471000 60540000
" />
<path d="M258322000 74389200
L244471000 74389200
" />
<path d="M258322000 60540000
L258322000 74389200
" />
<path d="M244471000 60540000
L258322000 60540000
" />
<path d="M225421000 74389200
L225421000 60540000
" />
<path d="M239272000 74389200
L225421000 74389200
" />
<path d="M239272000 60540000
L239272000 74389200
" />
<path d="M225421000 60540000
L239272000 60540000
" />
<path d="M206371000 74389200
L206371000 60540000
" />
<path d="M220222000 74389200
L206371000 74389200
" />
<path d="M220222000 60540000
L220222000 74389200
" />
<path d="M206371000 60540000
L220222000 60540000
" />
<path d="M187321000 74389200
L187321000 60540000
" />
<path d="M201172000 74389200
L187321000 74389200
" />
<path d="M201172000 60540000
L201172000 74389200
" />
<path d="M187321000 60540000
L201172000 60540000
" />
<path d="M168271000 74389200
L168271000 60540000
" />
<path d="M182122000 74389200
L168271000 74389200
" />
<path d="M182122000 60540000
L182122000 74389200
" />
<path d="M168271000 60540000
L182122000 60540000
" />
<path d="M149221000 74389200
L149221000 60540000
" />
<path d="M163072000 74389200
L149221000 74389200
" />
<path d="M163072000 60540000
L163072000 74389200
" />
<path d="M149221000 60540000
L163072000 60540000
" />
<path d="M130171000 74389200
L130171000 60540000
" />
<path d="M144022000 74389200
L130171000 74389200
" />
<path d="M144022000 60540000
L144022000 74389200
" />
<path d="M130171000 60540000
L144022000 60540000
" />
<path d="M111121000 74389200
L111121000 60540000
" />
<path d="M124972000 74389200
L111121000 74389200
" />
<path d="M124972000 60540000
L124972000 74389200
" />
<path d="M111121000 60540000
L124972000 60540000
" />
<path d="M92071100 74389200
L92071100 60540000
" />
<path d="M105921500 74389200
L92071100 74389200
" />
<path d="M105921500 60540000
L105921500 74389200
" />
<path d="M92071100 60540000
L105921500 60540000
" />
<path d="M73021100 74389200
L73021100 60540000
" />
<path d="M86871500 74389200
L73021100 74389200
" />
<path d="M86871500 60540000
L86871500 74389200
" />
<path d="M73021100 60540000
L86871500 60540000
" />
<path d="M11109860 74389200
L11109860 60540000
" />
<path d="M24959200 74389200
L11109860 74389200
" />
<path d="M24959200 60540000
L24959200 74389200
" />
<path d="M11109860 60540000
L24959200 60540000
" />
<path d="M294040000 60540000
L280191000 60540000
" />
<path d="M294040000 65239000
L294040000 60540000
" />
<path d="M295716000 65239000
L294040000 65239000
" />
<path d="M295716000 62008900
L295716000 65239000
" />
<path d="M302315000 62008900
L295716000 62008900
" />
<path d="M302315000 65239000
L302315000 62008900
" />
<path d="M303141000 65239000
L302315000 65239000
" />
<path d="M303141000 67889000
L303141000 65239000
" />
<path d="M302315000 67889000
L303141000 67889000
" />
<path d="M302315000 74159000
L302315000 67889000
" />
<path d="M300590000 74159000
L302315000 74159000
" />
<path d="M300590000 75359300
L300590000 74159000
" />
<path d="M297440000 75359300
L300590000 75359300
" />
<path d="M297440000 74159000
L297440000 75359300
" />
<path d="M295716000 74159000
L297440000 74159000
" />
<path d="M295716000 69690100
L295716000 74159000
" />
<path d="M294040000 69690100
L295716000 69690100
" />
<path d="M294040000 74389200
L294040000 69690100
" />
<path d="M280191000 74389200
L294040000 74389200
" />
<path d="M280191000 69690100
L280191000 74389200
" />
<path d="M278516000 69690100
L280191000 69690100
" />
<path d="M278516000 74159000
L278516000 69690100
" />
<path d="M276790000 74159000
L278516000 74159000
" />
<path d="M276790000 75359300
L276790000 74159000
" />
<path d="M273640000 75359300
L276790000 75359300
" />
<path d="M273640000 74159000
L273640000 75359300
" />
<path d="M271916000 74159000
L273640000 74159000
" />
<path d="M271916000 67889000
L271916000 74159000
" />
<path d="M271091000 67889000
L271916000 67889000
" />
<path d="M271091000 65239000
L271091000 67889000
" />
<path d="M271916000 65239000
L271091000 65239000
" />
<path d="M271916000 62008900
L271916000 65239000
" />
<path d="M278516000 62008900
L271916000 62008900
" />
<path d="M278516000 65239000
L278516000 62008900
" />
<path d="M280191000 65239000
L278516000 65239000
" />
<path d="M280191000 60540000
L280191000 65239000
" />
<path d="M55915300 60540000
L42066100 60540000
" />
<path d="M55915300 65239000
L55915300 60540000
" />
<path d="M57591000 65239000
L55915300 65239000
" />
<path d="M57591000 62008900
L57591000 65239000
" />
<path d="M64190400 62008900
L57591000 62008900
" />
<path d="M64190400 65239000
L64190400 62008900
" />
<path d="M65015900 65239000
L64190400 65239000
" />
<path d="M65015900 67889000
L65015900 65239000
" />
<path d="M64190400 67889000
L65015900 67889000
" />
<path d="M64190400 74159000
L64190400 67889000
" />
<path d="M62465300 74159000
L64190400 74159000
" />
<path d="M62465300 75359300
L62465300 74159000
" />
<path d="M59315000 75359300
L62465300 75359300
" />
<path d="M59315000 74159000
L59315000 75359300
" />
<path d="M57591000 74159000
L59315000 74159000
" />
<path d="M57591000 69690100
L57591000 74159000
" />
<path d="M55915300 69690100
L57591000 69690100
" />
<path d="M55915300 74389200
L55915300 69690100
" />
<path d="M42066100 74389200
L55915300 74389200
" />
<path d="M42066100 69690100
L42066100 74389200
" />
<path d="M40390400 69690100
L42066100 69690100
" />
<path d="M40390400 74159000
L40390400 69690100
" />
<path d="M38665100 74159000
L40390400 74159000
" />
<path d="M38665100 75359300
L38665100 74159000
" />
<path d="M35514900 75359300
L38665100 75359300
" />
<path d="M35514900 74159000
L35514900 75359300
" />
<path d="M33791000 74159000
L35514900 74159000
" />
<path d="M33791000 67889000
L33791000 74159000
" />
<path d="M32965500 67889000
L33791000 67889000
" />
<path d="M32965500 65239000
L32965500 67889000
" />
<path d="M33791000 65239000
L32965500 65239000
" />
<path d="M33791000 62008900
L33791000 65239000
" />
<path d="M40390400 62008900
L33791000 62008900
" />
<path d="M40390400 65239000
L40390400 62008900
" />
<path d="M42066100 65239000
L40390400 65239000
" />
<path d="M42066100 60540000
L42066100 65239000
" />
<path d="M296860000 93439160
L296860000 79589900
" />
<path d="M310709000 93439160
L296860000 93439160
" />
<path d="M310709000 79589900
L310709000 93439160
" />
<path d="M296860000 79589900
L310709000 79589900
" />
<path d="M277810000 93439160
L277810000 79589900
" />
<path d="M291659000 93439160
L277810000 93439160
" />
<path d="M291659000 79589900
L291659000 93439160
" />
<path d="M277810000 79589900
L291659000 79589900
" />
<path d="M258760000 93439160
L258760000 79589900
" />
<path d="M272609000 93439160
L258760000 93439160
" />
<path d="M272609000 79589900
L272609000 93439160
" />
<path d="M258760000 79589900
L272609000 79589900
" />
<path d="M239710000 93439160
L239710000 79589900
" />
<path d="M253559000 93439160
L239710000 93439160
" />
<path d="M253559000 79589900
L253559000 93439160
" />
<path d="M239710000 79589900
L253559000 79589900
" />
<path d="M220660000 93439160
L220660000 79589900
" />
<path d="M234509000 93439160
L220660000 93439160
" />
<path d="M234509000 79589900
L234509000 93439160
" />
<path d="M220660000 79589900
L234509000 79589900
" />
<path d="M201609000 93439160
L201609000 79589900
" />
<path d="M215459000 93439160
L201609000 93439160
" />
<path d="M215459000 79589900
L215459000 93439160
" />
<path d="M201609000 79589900
L215459000 79589900
" />
<path d="M61116300 93439160
L61116300 79589900
" />
<path d="M74965300 93439160
L61116300 93439160
" />
<path d="M74965300 79589900
L74965300 93439160
" />
<path d="M61116300 79589900
L74965300 79589900
" />
<path d="M37302200 93439160
L37302200 79589900
" />
<path d="M51152800 93439160
L37302200 93439160
" />
<path d="M51152800 79589900
L51152800 93439160
" />
<path d="M37302200 79589900
L51152800 79589900
" />
<path d="M13491120 93439160
L13491120 79589900
" />
<path d="M27340400 93439160
L13491120 93439160
" />
<path d="M27340400 79589900
L27340400 93439160
" />
<path d="M13491120 79589900
L27340400 79589900
" />
<path d="M146403000 79589900
L132552000 79589900
" />
<path d="M146403000 84289000
L146403000 79589900
" />
<path d="M186177000 84289000
L146403000 84289000
" />
<path d="M186177000 81058900
L186177000 84289000
" />
<path d="M192778000 81058900
L186177000 81058900
" />
<path d="M192778000 84289000
L192778000 81058900
" />
<path d="M193602000 84289000
L192778000 84289000
" />
<path d="M193602000 86938960
L193602000 84289000
" />
<path d="M192778000 86938960
L193602000 86938960
" />
<path d="M192778000 93209030
L192778000 86938960
" />
<path d="M191053000 93209030
L192778000 93209030
" />
<path d="M191053000 94409300
L191053000 93209030
" />
<path d="M187902000 94409300
L191053000 94409300
" />
<path d="M187902000 93209030
L187902000 94409300
" />
<path d="M186177000 93209030
L187902000 93209030
" />
<path d="M186177000 88738690
L186177000 93209030
" />
<path d="M146403000 88738690
L186177000 88738690
" />
<path d="M146403000 93439160
L146403000 88738690
" />
<path d="M132552000 93439160
L146403000 93439160
" />
<path d="M132552000 88738690
L132552000 93439160
" />
<path d="M92778100 88738690
L132552000 88738690
" />
<path d="M92778100 93209030
L92778100 88738690
" />
<path d="M91052600 93209030
L92778100 93209030
" />
<path d="M91052600 94409300
L91052600 93209030
" />
<path d="M87902300 94409300
L91052600 94409300
" />
<path d="M87902300 93209030
L87902300 94409300
" />
<path d="M86177200 93209030
L87902300 93209030
" />
<path d="M86177200 86938960
L86177200 93209030
" />
<path d="M85353200 86938960
L86177200 86938960
" />
<path d="M85353200 84289000
L85353200 86938960
" />
<path d="M86177200 84289000
L85353200 84289000
" />
<path d="M86177200 81058900
L86177200 84289000
" />
<path d="M92778100 81058900
L86177200 81058900
" />
<path d="M92778100 84289000
L92778100 81058900
" />
<path d="M132552000 84289000
L92778100 84289000
" />
<path d="M132552000 79589900
L132552000 84289000
" />
<path d="M8435085 96115313
L8435085 715300
" />
<path d="M313385000 96115313
L8435085 96115313
" />
<path d="M313385000 715300
L313385000 96115313
" />
<path d="M8435085 715300
L313385000 715300
" />
<g >
</g>
<g >
</g>
<g >
</g>
<g >
</g>
<g >
</g>
<g >
</g>
<g >
</g>
<g >
</g>
<g >
</g>
<g >
</g>
<g >
</g>
<g >
</g>
<g >
</g>
<g >
</g>
<g >
</g>
<g >
</g>
<g >
</g>
<g >
</g>
<g >
</g>
<g >
</g>
<g >
</g>
<g >
</g>
<g >
</g>
<g >
</g>
<g >
</g>
<g >
</g>
<g >
</g>
<g >
</g>
<g >
</g>
<g >
</g>
<g >
</g>
<g >
</g>
<g >
</g>
<g >
</g>
<g >
</g>
<g >
</g>
<g >
</g>
<g >
</g>
<g >
</g>
<g >
</g>
<g >
</g>
<g >
</g>
<g >
</g>
<g >
</g>
<g >
</g>
<g >
</g>
<g >
</g>
<g >
</g>
<g >
</g>
<g >
</g>
<g >
</g>
<g >
</g>
<g >
</g>
<g >
</g>
<g >
</g>
<g >
</g>
<g >
</g>
<g >
</g>
<g >
</g>
<g >
</g>
<g >
</g>
<g >
</g>
<g >
</g>
<g >
</g>
<g >
</g>
<g >
</g>
<g >
</g>
<g >
</g>
<g >
</g>
<g >
</g>
<g >
</g>
<g >
</g>
<g >
</g>
<g >
</g>
<g >
</g>
<g >
</g>
<g >
</g>
<g >
</g>
<g >
</g>
<g >
</g>
<g >
</g>
<g >
</g>
<g >
</g>
<g >
</g>
<g >
</g>
<g >
</g>
<g >
</g>
<g >
</g>
<g >
</g>
<g >
</g>
<g >
</g>
<g >
</g>
<g >
</g>
<g >
</g>
<g >
</g>
<g >
</g>
<g >
</g>
<g >
</g>
<g >
</g>
<g >
</g>
<g >
</g>
<g >
</g>
<g >
</g>
<g >
</g>
<g >
</g>
<g >
</g>
<g >
</g>
<g >
</g>
<g >
</g>
<g >
</g>
<g >
</g>
<g >
</g>
<g >
</g>
<g >
</g>
<g >
</g>
<g >
</g>
<g >
</g>
<g >
</g>
<g >
</g>
<g >
</g>
<g >
</g>
<g >
</g>
<g >
</g>
<g >
</g>
<g >
</g>
<g >
</g>
<g >
</g>
<g >
</g>
<g >
</g>
<g >
</g>
<g >
</g>
<g >
</g>
<g >
</g>
<g >
</g>
<g >
</g>
<g >
</g>
<g >
</g>
<g >
</g>
<g >
</g>
<g >
</g>
<g >
</g>
<g >
</g>
<g >
</g>
<g >
</g>
<g >
</g>
<g >
</g>
<g >
</g>
<g >
</g>
<g >
</g>
<g >
</g>
<g >
</g>
<g >
</g>
<g >
</g>
<g >
</g>
<g >
</g>
<g >
</g>
<g >
</g>
<g >
</g>
<g >
</g>
<g >
</g>
<g >
</g>
<g >
</g>
<g >
</g>
<g >
</g>
<g >
</g>
<g >
</g>
</g>
<g style="fill:#000000; fill-opacity:0.0; 
stroke:#000000; stroke-width:200000.000000; stroke-opacity:1; 
stroke-linecap:round; stroke-linejoin:round;">
</g>
<g style="fill:#D0D2CD; fill-opacity:0.0; 
stroke:#D0D2CD; stroke-width:200000.000000; stroke-opacity:1; 
stroke-linecap:round; stroke-linejoin:round;">
</g>
<g style="fill:#D0D2CD; fill-opacity:0.0; 
stroke:#D0D2CD; stroke-width:100000.000000; stroke-opacity:1; 
stroke-linecap:round; stroke-linejoin:round;">
<path d="M5050000.000000 50000.000000 A5000000.000000 5000000.000000 0.0 0 0 50000.000000 5050000.000000" />
<path d="M50000.000000 123800000.000000 A5000000.000000 5000000.000000 0.0 0 0 5050000.000000 128800000.000000" />
<path d="M321880000.000000 5050000.000000 A5000000.000000 5000000.000000 0.0 0 0 316880000.000000 50000.000000" />
<path d="M316880000.000000 128800000.000000 A5000000.000000 5000000.000000 0.0 0 0 321880000.000000 123800000.000000" />
<path d="M316880000 50000
L5050000 50000
" />
<path d="M321880000 123800000
L321880000 5050000
" />
<path d="M5050000 128800000
L316880000 128800000
" />
<path d="M50000 5050000
L50000 123800000
" />
<g >
</g>
<g >
</g>
<g >
</g>
<g >
</g>
<g >
</g>
<g >
</g>
<g >
</g>
<g >
</g>
<g >
</g>
<g >
</g>
<g >
</g>
<g >
</g>
<g >
</g>
<g >
</g>
<g >
</g>
<g >
</g>
<g >
</g>
<g >
</g>
<g >
</g>
<g >
</g>
<g >
</g>
<g >
</g>
<g >
</g>
<g >
</g>
<g >
</g>
<g >
</g>
<g >
</g>
<g >
</g>
<g >
</g>
<g >
</g>
<g >
</g>
<g >
</g>
<g >
</g>
<g >
</g>
<g >
</g>
<g >
</g>
<g >
</g>
<g >
</g>
<g >
</g>
<g >
</g>
<g >
</g>
<g >
</g>
<g >
</g>
<g >
</g>
<g >
</g>
<g >
</g>
<g >
</g>
<g >
</g>
<g >
</g>
<g >
</g>
<g >
</g>
<g >
</g>
<g >
</g>
<g >
</g>
<g >
</g>
<g >
</g>
<g >
</g>
<g >
</g>
<g >
</g>
<g >
</g>
<g >
</g>
<g >
</g>
<g >
</g>
<g >
</g>
<g >
</g>
<g >
</g>
<g >
</g>
<g >
</g>
<g >
</g>
<g >
</g>
<g >
</g>
<g >
</g>
<g >
</g>
<g >
</g>
<g >
</g>
<g >
</g>
<g >
</g>
<g >
</g>
<g >
</g>
<g >
</g>
<g >
</g>
<g >
</g>
<g >
</g>
<g >
</g>
<g >
</g>
<g >
</g>
<g >
</g>
<g >
</g>
<g >
</g>
<g >
</g>
<g >
</g>
<g >
</g>
<g >
</g>
<g >
</g>
<g >
</g>
<g >
</g>
<g >
</g>
<g >
</g>
<g >
</g>
<g >
</g>
<g >
</g>
<g >
</g>
<g >
</g>
<g >
</g>
<g >
</g>
<g >
</g>
<g >
</g>
<g >
</g>
<g >
</g>
<g >
</g>
<g >
</g>
<g >
</g>
<g >
</g>
<g >
</g>
<g >
</g>
<g >
</g>
<g >
</g>
<g >
</g>
<g >
</g>
<g >
</g>
<g >
</g>
<g >
</g>
<g >
</g>
<g >
</g>
<g >
</g>
<g >
</g>
<g >
</g>
<g >
</g>
<g >
</g>
<g >
</g>
<g >
</g>
<g >
</g>
<g >
</g>
<g >
</g>
<g >
</g>
<g >
</g>
<g >
</g>
<g >
</g>
<g >
</g>
<g >
</g>
<g >
</g>
<g >
</g>
<g >
</g>
<g >
</g>
<g >
</g>
<g >
</g>
<g >
</g>
<g >
</g>
<g >
</g>
<g >
</g>
<g >
</g>
<g >
</g>
<g >
</g>
<g >
</g>
<g >
</g>
<g >
</g>
<g >
</g>
<g >
</g>
<g >
</g>
<g >
</g>
<g >
</g>
<g >
</g>
<g >
</g>
<g >
</g>
<g >
</g>
<g >
</g>
</g> 
</svg>
