M48
; DRILL file {KiCad (6.0.5)} date Sun Jun 12 15:36:22 2022
; FORMAT={-:-/ absolute / metric / decimal}
; #@! TF.CreationDate,2022-06-12T15:36:22-04:00
; #@! TF.GenerationSoftware,Kicad,Pcbnew,(6.0.5)
; #@! TF.FileFunction,NonPlated,1,2,NPTH
FMAT,2
METRIC
; #@! TA.AperFunction,NonPlated,NPTH,ComponentDrill
T1C1.500
; #@! TA.AperFunction,NonPlated,NPTH,ComponentDrill
T2C1.750
; #@! TA.AperFunction,NonPlated,NPTH,ComponentDrill
T3C1.800
; #@! TA.AperFunction,NonPlated,NPTH,ComponentDrill
T4C3.048
; #@! TA.AperFunction,NonPlated,NPTH,ComponentDrill
T5C3.050
; #@! TA.AperFunction,NonPlated,NPTH,ComponentDrill
T6C3.988
; #@! TA.AperFunction,NonPlated,NPTH,ComponentDrill
T7C4.000
%
G90
G05
T1
X55.03Y-186.825
X55.03Y-191.675
T2
X62.945Y-108.575
X62.945Y-127.625
X62.945Y-146.675
X65.326Y-165.725
X73.105Y-108.575
X73.105Y-127.625
X73.105Y-146.675
X75.486Y-165.725
X81.995Y-89.525
X86.757Y-108.575
X89.139Y-127.625
X89.139Y-165.725
X92.155Y-89.525
X93.901Y-146.675
X96.917Y-108.575
X99.299Y-127.625
X99.299Y-165.725
X101.045Y-89.525
X104.061Y-146.675
X110.57Y-108.575
X111.205Y-89.525
X112.951Y-165.725
X115.332Y-127.625
X120.095Y-89.525
X120.73Y-108.575
X123.111Y-165.725
X124.857Y-146.675
X125.492Y-127.625
X129.62Y-108.575
X130.255Y-89.525
X134.382Y-127.625
X135.017Y-146.675
X139.145Y-89.525
X139.78Y-108.575
X143.907Y-146.675
X144.542Y-127.625
X148.67Y-108.575
X149.305Y-89.525
X153.433Y-127.625
X154.067Y-146.675
X158.195Y-89.525
X158.83Y-108.575
X159.389Y-191.725
X162.957Y-146.675
X163.593Y-127.625
X167.72Y-108.575
X168.355Y-89.525
X169.549Y-191.725
X172.482Y-127.625
X173.117Y-146.675
X177.245Y-89.525
X177.88Y-108.575
X182.007Y-146.675
X182.642Y-127.625
X184.389Y-165.725
X186.77Y-108.575
X187.405Y-89.525
X191.532Y-127.625
X192.167Y-146.675
X194.549Y-165.725
X196.295Y-89.525
X196.93Y-108.575
X201.058Y-146.675
X201.692Y-127.625
X205.82Y-108.575
X206.455Y-89.525
X209.389Y-191.725
X210.582Y-127.625
X211.218Y-146.675
X215.345Y-89.525
X215.98Y-108.575
X219.549Y-191.725
X220.107Y-146.675
X220.742Y-127.625
X224.87Y-108.575
X225.505Y-89.525
X229.632Y-127.625
X230.267Y-146.675
X234.395Y-89.525
X235.03Y-108.575
X239.157Y-146.675
X239.792Y-127.625
X243.92Y-108.575
X244.555Y-89.525
X248.682Y-127.625
X249.317Y-146.675
X253.445Y-165.725
X253.445Y-89.525
X254.08Y-108.575
X258.207Y-146.675
X258.842Y-127.625
X262.97Y-108.575
X263.605Y-165.725
X263.605Y-89.525
X267.733Y-127.625
X268.368Y-146.675
X272.495Y-89.525
X272.495Y-165.725
X273.13Y-108.575
X277.257Y-146.675
X277.892Y-127.625
X282.02Y-108.575
X282.655Y-89.525
X282.655Y-165.725
X286.782Y-127.625
X287.417Y-146.675
X291.545Y-89.525
X291.545Y-165.725
X292.18Y-108.575
X296.308Y-146.675
X296.942Y-127.625
X301.07Y-108.575
X301.705Y-89.525
X301.705Y-165.725
X305.832Y-127.625
X306.467Y-146.675
X310.595Y-89.525
X310.595Y-165.725
X311.23Y-108.575
X315.993Y-127.625
X320.12Y-108.575
X320.755Y-89.525
X320.755Y-165.725
X329.645Y-165.725
X330.28Y-108.575
X332.026Y-146.675
X336.789Y-127.625
X339.17Y-89.525
X339.805Y-165.725
X342.186Y-146.675
X343.933Y-108.575
X346.949Y-127.625
X348.695Y-165.725
X349.33Y-89.525
X354.092Y-108.575
X358.855Y-165.725
T3
X52.0Y-186.525
X52.0Y-191.975
T4
X87.043Y-139.69
X110.919Y-139.69
X139.469Y-158.74
X239.469Y-158.74
X325.168Y-139.69
X329.931Y-120.64
X332.312Y-82.54
X349.044Y-139.69
X353.807Y-120.64
X356.188Y-82.54
T5
X64.215Y-106.035
X64.215Y-125.085
X64.215Y-144.135
X66.596Y-163.185
X70.565Y-103.495
X70.565Y-122.545
X70.565Y-141.595
X72.946Y-160.645
X83.265Y-86.985
X88.027Y-106.035
X89.615Y-84.445
X90.409Y-125.085
X90.409Y-163.185
X94.377Y-103.495
X95.171Y-144.135
X96.759Y-122.545
X96.759Y-160.645
X101.521Y-141.595
X102.315Y-86.985
X108.665Y-84.445
X111.84Y-106.035
X114.221Y-163.185
X116.602Y-125.085
X118.19Y-103.495
X120.571Y-160.645
X121.365Y-86.985
X122.953Y-122.545
X126.127Y-144.135
X127.715Y-84.445
X130.89Y-106.035
X132.477Y-141.595
X135.653Y-125.085
X137.24Y-103.495
X140.415Y-86.985
X142.002Y-122.545
X145.177Y-144.135
X146.765Y-84.445
X149.94Y-106.035
X151.528Y-141.595
X154.702Y-125.085
X156.29Y-103.495
X159.465Y-86.985
X160.659Y-189.185
X161.052Y-122.545
X164.227Y-144.135
X165.815Y-84.445
X167.009Y-186.645
X168.99Y-106.035
X170.577Y-141.595
X173.752Y-125.085
X175.34Y-103.495
X178.515Y-86.985
X180.102Y-122.545
X183.278Y-144.135
X184.865Y-84.445
X185.659Y-163.185
X188.04Y-106.035
X189.627Y-141.595
X192.009Y-160.645
X192.802Y-125.085
X194.39Y-103.495
X197.565Y-86.985
X199.153Y-122.545
X202.327Y-144.135
X203.915Y-84.445
X207.09Y-106.035
X208.677Y-141.595
X210.659Y-189.185
X211.852Y-125.085
X213.44Y-103.495
X216.615Y-86.985
X217.009Y-186.645
X218.202Y-122.545
X221.377Y-144.135
X222.965Y-84.445
X226.14Y-106.035
X227.727Y-141.595
X230.903Y-125.085
X232.49Y-103.495
X235.665Y-86.985
X237.252Y-122.545
X240.427Y-144.135
X242.015Y-84.445
X245.19Y-106.035
X246.777Y-141.595
X249.952Y-125.085
X251.54Y-103.495
X254.715Y-163.185
X254.715Y-86.985
X256.303Y-122.545
X259.477Y-144.135
X261.065Y-160.645
X261.065Y-84.445
X264.24Y-106.035
X265.827Y-141.595
X269.002Y-125.085
X270.59Y-103.495
X273.765Y-86.985
X273.765Y-163.185
X275.352Y-122.545
X278.527Y-144.135
X280.115Y-84.445
X280.115Y-160.645
X283.29Y-106.035
X284.877Y-141.595
X288.053Y-125.085
X289.64Y-103.495
X292.815Y-86.985
X292.815Y-163.185
X294.402Y-122.545
X297.577Y-144.135
X299.165Y-84.445
X299.165Y-160.645
X302.34Y-106.035
X303.928Y-141.595
X307.102Y-125.085
X308.69Y-103.495
X311.865Y-86.985
X311.865Y-163.185
X313.452Y-122.545
X318.215Y-84.445
X318.215Y-160.645
X321.39Y-106.035
X327.74Y-103.495
X330.915Y-163.185
X333.296Y-144.135
X337.265Y-160.645
X338.059Y-125.085
X339.646Y-141.595
X340.44Y-86.985
X344.409Y-122.545
X345.202Y-106.035
X346.79Y-84.445
X349.965Y-163.185
X351.553Y-103.495
X356.315Y-160.645
T6
X87.043Y-154.9
X110.919Y-154.9
X139.469Y-173.95
X239.469Y-173.95
X325.168Y-154.9
X329.931Y-135.85
X332.312Y-97.75
X349.044Y-154.9
X353.807Y-135.85
X356.188Y-97.75
T7
X68.025Y-108.575
X68.025Y-127.625
X68.025Y-146.675
X70.406Y-165.725
X87.075Y-89.525
X91.837Y-108.575
X94.219Y-127.625
X94.219Y-165.725
X98.981Y-146.675
X106.125Y-89.525
X115.65Y-108.575
X118.031Y-165.725
X120.412Y-127.625
X125.175Y-89.525
X129.938Y-146.675
X134.7Y-108.575
X139.463Y-127.625
X144.225Y-89.525
X148.987Y-146.675
X153.75Y-108.575
X158.512Y-127.625
X163.275Y-89.525
X164.469Y-191.725
X168.037Y-146.675
X172.8Y-108.575
X177.562Y-127.625
X182.325Y-89.525
X187.088Y-146.675
X189.469Y-165.725
X191.85Y-108.575
X196.612Y-127.625
X201.375Y-89.525
X206.137Y-146.675
X210.9Y-108.575
X214.469Y-191.725
X215.662Y-127.625
X220.425Y-89.525
X225.188Y-146.675
X229.95Y-108.575
X234.712Y-127.625
X239.475Y-89.525
X244.237Y-146.675
X249.0Y-108.575
X253.762Y-127.625
X258.525Y-165.725
X258.525Y-89.525
X263.287Y-146.675
X268.05Y-108.575
X272.812Y-127.625
X277.575Y-89.525
X277.575Y-165.725
X282.337Y-146.675
X287.1Y-108.575
X291.863Y-127.625
X296.625Y-89.525
X296.625Y-165.725
X301.387Y-146.675
X306.15Y-108.575
X310.912Y-127.625
X315.675Y-89.525
X315.675Y-165.725
X325.2Y-108.575
X334.725Y-165.725
X337.106Y-146.675
X341.869Y-127.625
X344.25Y-89.525
X349.012Y-108.575
X353.775Y-165.725
T0
M30
