%TF.GenerationSoftware,KiCad,Pcbnew,(6.0.5)*%
%TF.CreationDate,2022-05-31T00:14:22-04:00*%
%TF.ProjectId,pico_keyboard_v1,7069636f-5f6b-4657-9962-6f6172645f76,rev?*%
%TF.SameCoordinates,Original*%
%TF.FileFunction,Legend,Top*%
%TF.FilePolarity,Positive*%
%FSLAX46Y46*%
G04 Gerber Fmt 4.6, Leading zero omitted, Abs format (unit mm)*
G04 Created by KiCad (PCBNEW (6.0.5)) date 2022-05-31 00:14:22*
%MOMM*%
%LPD*%
G01*
G04 APERTURE LIST*
%ADD10C,0.150000*%
%ADD11C,0.120000*%
%ADD12C,0.127000*%
%ADD13C,0.200000*%
G04 APERTURE END LIST*
D10*
X301431428Y-191368571D02*
X301431428Y-189868571D01*
X302074285Y-191368571D02*
X302074285Y-190582857D01*
X302002857Y-190440000D01*
X301860000Y-190368571D01*
X301645714Y-190368571D01*
X301502857Y-190440000D01*
X301431428Y-190511428D01*
X302574285Y-190368571D02*
X303145714Y-190368571D01*
X302788571Y-189868571D02*
X302788571Y-191154285D01*
X302860000Y-191297142D01*
X303002857Y-191368571D01*
X303145714Y-191368571D01*
X303431428Y-190368571D02*
X304002857Y-190368571D01*
X303645714Y-189868571D02*
X303645714Y-191154285D01*
X303717142Y-191297142D01*
X303860000Y-191368571D01*
X304002857Y-191368571D01*
X304502857Y-190368571D02*
X304502857Y-191868571D01*
X304502857Y-190440000D02*
X304645714Y-190368571D01*
X304931428Y-190368571D01*
X305074285Y-190440000D01*
X305145714Y-190511428D01*
X305217142Y-190654285D01*
X305217142Y-191082857D01*
X305145714Y-191225714D01*
X305074285Y-191297142D01*
X304931428Y-191368571D01*
X304645714Y-191368571D01*
X304502857Y-191297142D01*
X305788571Y-191297142D02*
X305931428Y-191368571D01*
X306217142Y-191368571D01*
X306360000Y-191297142D01*
X306431428Y-191154285D01*
X306431428Y-191082857D01*
X306360000Y-190940000D01*
X306217142Y-190868571D01*
X306002857Y-190868571D01*
X305860000Y-190797142D01*
X305788571Y-190654285D01*
X305788571Y-190582857D01*
X305860000Y-190440000D01*
X306002857Y-190368571D01*
X306217142Y-190368571D01*
X306360000Y-190440000D01*
X307074285Y-191225714D02*
X307145714Y-191297142D01*
X307074285Y-191368571D01*
X307002857Y-191297142D01*
X307074285Y-191225714D01*
X307074285Y-191368571D01*
X307074285Y-190440000D02*
X307145714Y-190511428D01*
X307074285Y-190582857D01*
X307002857Y-190511428D01*
X307074285Y-190440000D01*
X307074285Y-190582857D01*
X308860000Y-189797142D02*
X307574285Y-191725714D01*
X310431428Y-189797142D02*
X309145714Y-191725714D01*
X311574285Y-190368571D02*
X311574285Y-191582857D01*
X311502857Y-191725714D01*
X311431428Y-191797142D01*
X311288571Y-191868571D01*
X311074285Y-191868571D01*
X310931428Y-191797142D01*
X311574285Y-191297142D02*
X311431428Y-191368571D01*
X311145714Y-191368571D01*
X311002857Y-191297142D01*
X310931428Y-191225714D01*
X310860000Y-191082857D01*
X310860000Y-190654285D01*
X310931428Y-190511428D01*
X311002857Y-190440000D01*
X311145714Y-190368571D01*
X311431428Y-190368571D01*
X311574285Y-190440000D01*
X312288571Y-191368571D02*
X312288571Y-190368571D01*
X312288571Y-189868571D02*
X312217142Y-189940000D01*
X312288571Y-190011428D01*
X312360000Y-189940000D01*
X312288571Y-189868571D01*
X312288571Y-190011428D01*
X312788571Y-190368571D02*
X313360000Y-190368571D01*
X313002857Y-189868571D02*
X313002857Y-191154285D01*
X313074285Y-191297142D01*
X313217142Y-191368571D01*
X313360000Y-191368571D01*
X313860000Y-191368571D02*
X313860000Y-189868571D01*
X314502857Y-191368571D02*
X314502857Y-190582857D01*
X314431428Y-190440000D01*
X314288571Y-190368571D01*
X314074285Y-190368571D01*
X313931428Y-190440000D01*
X313860000Y-190511428D01*
X315860000Y-190368571D02*
X315860000Y-191368571D01*
X315217142Y-190368571D02*
X315217142Y-191154285D01*
X315288571Y-191297142D01*
X315431428Y-191368571D01*
X315645714Y-191368571D01*
X315788571Y-191297142D01*
X315860000Y-191225714D01*
X316574285Y-191368571D02*
X316574285Y-189868571D01*
X316574285Y-190440000D02*
X316717142Y-190368571D01*
X317002857Y-190368571D01*
X317145714Y-190440000D01*
X317217142Y-190511428D01*
X317288571Y-190654285D01*
X317288571Y-191082857D01*
X317217142Y-191225714D01*
X317145714Y-191297142D01*
X317002857Y-191368571D01*
X316717142Y-191368571D01*
X316574285Y-191297142D01*
X317931428Y-191225714D02*
X318002857Y-191297142D01*
X317931428Y-191368571D01*
X317860000Y-191297142D01*
X317931428Y-191225714D01*
X317931428Y-191368571D01*
X319288571Y-191297142D02*
X319145714Y-191368571D01*
X318860000Y-191368571D01*
X318717142Y-191297142D01*
X318645714Y-191225714D01*
X318574285Y-191082857D01*
X318574285Y-190654285D01*
X318645714Y-190511428D01*
X318717142Y-190440000D01*
X318860000Y-190368571D01*
X319145714Y-190368571D01*
X319288571Y-190440000D01*
X320145714Y-191368571D02*
X320002857Y-191297142D01*
X319931428Y-191225714D01*
X319860000Y-191082857D01*
X319860000Y-190654285D01*
X319931428Y-190511428D01*
X320002857Y-190440000D01*
X320145714Y-190368571D01*
X320360000Y-190368571D01*
X320502857Y-190440000D01*
X320574285Y-190511428D01*
X320645714Y-190654285D01*
X320645714Y-191082857D01*
X320574285Y-191225714D01*
X320502857Y-191297142D01*
X320360000Y-191368571D01*
X320145714Y-191368571D01*
X321288571Y-191368571D02*
X321288571Y-190368571D01*
X321288571Y-190511428D02*
X321360000Y-190440000D01*
X321502857Y-190368571D01*
X321717142Y-190368571D01*
X321860000Y-190440000D01*
X321931428Y-190582857D01*
X321931428Y-191368571D01*
X321931428Y-190582857D02*
X322002857Y-190440000D01*
X322145714Y-190368571D01*
X322360000Y-190368571D01*
X322502857Y-190440000D01*
X322574285Y-190582857D01*
X322574285Y-191368571D01*
X324360000Y-189797142D02*
X323074285Y-191725714D01*
X324717142Y-190368571D02*
X325502857Y-190368571D01*
X324717142Y-191368571D01*
X325502857Y-191368571D01*
X326288571Y-191368571D02*
X326145714Y-191297142D01*
X326074285Y-191154285D01*
X326074285Y-189868571D01*
X326860000Y-191368571D02*
X326860000Y-190368571D01*
X326860000Y-189868571D02*
X326788571Y-189940000D01*
X326860000Y-190011428D01*
X326931428Y-189940000D01*
X326860000Y-189868571D01*
X326860000Y-190011428D01*
X328360000Y-191368571D02*
X327502857Y-191368571D01*
X327931428Y-191368571D02*
X327931428Y-189868571D01*
X327788571Y-190082857D01*
X327645714Y-190225714D01*
X327502857Y-190297142D01*
X329788571Y-191368571D02*
X328931428Y-191368571D01*
X329360000Y-191368571D02*
X329360000Y-189868571D01*
X329217142Y-190082857D01*
X329074285Y-190225714D01*
X328931428Y-190297142D01*
X330288571Y-189868571D02*
X331288571Y-189868571D01*
X330645714Y-191368571D01*
X332931428Y-189797142D02*
X331645714Y-191725714D01*
X333431428Y-191368571D02*
X333431428Y-189868571D01*
X334002857Y-189868571D01*
X334145714Y-189940000D01*
X334217142Y-190011428D01*
X334288571Y-190154285D01*
X334288571Y-190368571D01*
X334217142Y-190511428D01*
X334145714Y-190582857D01*
X334002857Y-190654285D01*
X333431428Y-190654285D01*
X334931428Y-191368571D02*
X334931428Y-190368571D01*
X334931428Y-189868571D02*
X334860000Y-189940000D01*
X334931428Y-190011428D01*
X335002857Y-189940000D01*
X334931428Y-189868571D01*
X334931428Y-190011428D01*
X336288571Y-191297142D02*
X336145714Y-191368571D01*
X335860000Y-191368571D01*
X335717142Y-191297142D01*
X335645714Y-191225714D01*
X335574285Y-191082857D01*
X335574285Y-190654285D01*
X335645714Y-190511428D01*
X335717142Y-190440000D01*
X335860000Y-190368571D01*
X336145714Y-190368571D01*
X336288571Y-190440000D01*
X337145714Y-191368571D02*
X337002857Y-191297142D01*
X336931428Y-191225714D01*
X336860000Y-191082857D01*
X336860000Y-190654285D01*
X336931428Y-190511428D01*
X337002857Y-190440000D01*
X337145714Y-190368571D01*
X337360000Y-190368571D01*
X337502857Y-190440000D01*
X337574285Y-190511428D01*
X337645714Y-190654285D01*
X337645714Y-191082857D01*
X337574285Y-191225714D01*
X337502857Y-191297142D01*
X337360000Y-191368571D01*
X337145714Y-191368571D01*
X338288571Y-190797142D02*
X339431428Y-190797142D01*
X340145714Y-191368571D02*
X340145714Y-189868571D01*
X341002857Y-191368571D02*
X340360000Y-190511428D01*
X341002857Y-189868571D02*
X340145714Y-190725714D01*
X342217142Y-191297142D02*
X342074285Y-191368571D01*
X341788571Y-191368571D01*
X341645714Y-191297142D01*
X341574285Y-191154285D01*
X341574285Y-190582857D01*
X341645714Y-190440000D01*
X341788571Y-190368571D01*
X342074285Y-190368571D01*
X342217142Y-190440000D01*
X342288571Y-190582857D01*
X342288571Y-190725714D01*
X341574285Y-190868571D01*
X342788571Y-190368571D02*
X343145714Y-191368571D01*
X343502857Y-190368571D02*
X343145714Y-191368571D01*
X343002857Y-191725714D01*
X342931428Y-191797142D01*
X342788571Y-191868571D01*
X344074285Y-191368571D02*
X344074285Y-189868571D01*
X344074285Y-190440000D02*
X344217142Y-190368571D01*
X344502857Y-190368571D01*
X344645714Y-190440000D01*
X344717142Y-190511428D01*
X344788571Y-190654285D01*
X344788571Y-191082857D01*
X344717142Y-191225714D01*
X344645714Y-191297142D01*
X344502857Y-191368571D01*
X344217142Y-191368571D01*
X344074285Y-191297142D01*
X345645714Y-191368571D02*
X345502857Y-191297142D01*
X345431428Y-191225714D01*
X345360000Y-191082857D01*
X345360000Y-190654285D01*
X345431428Y-190511428D01*
X345502857Y-190440000D01*
X345645714Y-190368571D01*
X345860000Y-190368571D01*
X346002857Y-190440000D01*
X346074285Y-190511428D01*
X346145714Y-190654285D01*
X346145714Y-191082857D01*
X346074285Y-191225714D01*
X346002857Y-191297142D01*
X345860000Y-191368571D01*
X345645714Y-191368571D01*
X347431428Y-191368571D02*
X347431428Y-190582857D01*
X347360000Y-190440000D01*
X347217142Y-190368571D01*
X346931428Y-190368571D01*
X346788571Y-190440000D01*
X347431428Y-191297142D02*
X347288571Y-191368571D01*
X346931428Y-191368571D01*
X346788571Y-191297142D01*
X346717142Y-191154285D01*
X346717142Y-191011428D01*
X346788571Y-190868571D01*
X346931428Y-190797142D01*
X347288571Y-190797142D01*
X347431428Y-190725714D01*
X348145714Y-191368571D02*
X348145714Y-190368571D01*
X348145714Y-190654285D02*
X348217142Y-190511428D01*
X348288571Y-190440000D01*
X348431428Y-190368571D01*
X348574285Y-190368571D01*
X349717142Y-191368571D02*
X349717142Y-189868571D01*
X349717142Y-191297142D02*
X349574285Y-191368571D01*
X349288571Y-191368571D01*
X349145714Y-191297142D01*
X349074285Y-191225714D01*
X349002857Y-191082857D01*
X349002857Y-190654285D01*
X349074285Y-190511428D01*
X349145714Y-190440000D01*
X349288571Y-190368571D01*
X349574285Y-190368571D01*
X349717142Y-190440000D01*
X350431428Y-190797142D02*
X351574285Y-190797142D01*
X352074285Y-189868571D02*
X352574285Y-191368571D01*
X353074285Y-189868571D01*
X354360000Y-191368571D02*
X353502857Y-191368571D01*
X353931428Y-191368571D02*
X353931428Y-189868571D01*
X353788571Y-190082857D01*
X353645714Y-190225714D01*
X353502857Y-190297142D01*
X320904285Y-59073571D02*
X320904285Y-57573571D01*
X321475714Y-57573571D01*
X321618571Y-57645000D01*
X321690000Y-57716428D01*
X321761428Y-57859285D01*
X321761428Y-58073571D01*
X321690000Y-58216428D01*
X321618571Y-58287857D01*
X321475714Y-58359285D01*
X320904285Y-58359285D01*
X322404285Y-59073571D02*
X322404285Y-58073571D01*
X322404285Y-57573571D02*
X322332857Y-57645000D01*
X322404285Y-57716428D01*
X322475714Y-57645000D01*
X322404285Y-57573571D01*
X322404285Y-57716428D01*
X323761428Y-59002142D02*
X323618571Y-59073571D01*
X323332857Y-59073571D01*
X323190000Y-59002142D01*
X323118571Y-58930714D01*
X323047142Y-58787857D01*
X323047142Y-58359285D01*
X323118571Y-58216428D01*
X323190000Y-58145000D01*
X323332857Y-58073571D01*
X323618571Y-58073571D01*
X323761428Y-58145000D01*
X324618571Y-59073571D02*
X324475714Y-59002142D01*
X324404285Y-58930714D01*
X324332857Y-58787857D01*
X324332857Y-58359285D01*
X324404285Y-58216428D01*
X324475714Y-58145000D01*
X324618571Y-58073571D01*
X324832857Y-58073571D01*
X324975714Y-58145000D01*
X325047142Y-58216428D01*
X325118571Y-58359285D01*
X325118571Y-58787857D01*
X325047142Y-58930714D01*
X324975714Y-59002142D01*
X324832857Y-59073571D01*
X324618571Y-59073571D01*
X326904285Y-59073571D02*
X326904285Y-57573571D01*
X327475714Y-57573571D01*
X327618571Y-57645000D01*
X327690000Y-57716428D01*
X327761428Y-57859285D01*
X327761428Y-58073571D01*
X327690000Y-58216428D01*
X327618571Y-58287857D01*
X327475714Y-58359285D01*
X326904285Y-58359285D01*
X328404285Y-59073571D02*
X328404285Y-58073571D01*
X328404285Y-58359285D02*
X328475714Y-58216428D01*
X328547142Y-58145000D01*
X328690000Y-58073571D01*
X328832857Y-58073571D01*
X329547142Y-59073571D02*
X329404285Y-59002142D01*
X329332857Y-58930714D01*
X329261428Y-58787857D01*
X329261428Y-58359285D01*
X329332857Y-58216428D01*
X329404285Y-58145000D01*
X329547142Y-58073571D01*
X329761428Y-58073571D01*
X329904285Y-58145000D01*
X329975714Y-58216428D01*
X330047142Y-58359285D01*
X330047142Y-58787857D01*
X329975714Y-58930714D01*
X329904285Y-59002142D01*
X329761428Y-59073571D01*
X329547142Y-59073571D01*
X330475714Y-58073571D02*
X331047142Y-58073571D01*
X330690000Y-57573571D02*
X330690000Y-58859285D01*
X330761428Y-59002142D01*
X330904285Y-59073571D01*
X331047142Y-59073571D01*
X331761428Y-59073571D02*
X331618571Y-59002142D01*
X331547142Y-58930714D01*
X331475714Y-58787857D01*
X331475714Y-58359285D01*
X331547142Y-58216428D01*
X331618571Y-58145000D01*
X331761428Y-58073571D01*
X331975714Y-58073571D01*
X332118571Y-58145000D01*
X332190000Y-58216428D01*
X332261428Y-58359285D01*
X332261428Y-58787857D01*
X332190000Y-58930714D01*
X332118571Y-59002142D01*
X331975714Y-59073571D01*
X331761428Y-59073571D01*
X332690000Y-58073571D02*
X333261428Y-58073571D01*
X332904285Y-57573571D02*
X332904285Y-58859285D01*
X332975714Y-59002142D01*
X333118571Y-59073571D01*
X333261428Y-59073571D01*
X333618571Y-58073571D02*
X333975714Y-59073571D01*
X334332857Y-58073571D02*
X333975714Y-59073571D01*
X333832857Y-59430714D01*
X333761428Y-59502142D01*
X333618571Y-59573571D01*
X334904285Y-58073571D02*
X334904285Y-59573571D01*
X334904285Y-58145000D02*
X335047142Y-58073571D01*
X335332857Y-58073571D01*
X335475714Y-58145000D01*
X335547142Y-58216428D01*
X335618571Y-58359285D01*
X335618571Y-58787857D01*
X335547142Y-58930714D01*
X335475714Y-59002142D01*
X335332857Y-59073571D01*
X335047142Y-59073571D01*
X334904285Y-59002142D01*
X336832857Y-59002142D02*
X336690000Y-59073571D01*
X336404285Y-59073571D01*
X336261428Y-59002142D01*
X336190000Y-58859285D01*
X336190000Y-58287857D01*
X336261428Y-58145000D01*
X336404285Y-58073571D01*
X336690000Y-58073571D01*
X336832857Y-58145000D01*
X336904285Y-58287857D01*
X336904285Y-58430714D01*
X336190000Y-58573571D01*
X338690000Y-59073571D02*
X338690000Y-57573571D01*
X339547142Y-59073571D02*
X338904285Y-58216428D01*
X339547142Y-57573571D02*
X338690000Y-58430714D01*
X340761428Y-59002142D02*
X340618571Y-59073571D01*
X340332857Y-59073571D01*
X340190000Y-59002142D01*
X340118571Y-58859285D01*
X340118571Y-58287857D01*
X340190000Y-58145000D01*
X340332857Y-58073571D01*
X340618571Y-58073571D01*
X340761428Y-58145000D01*
X340832857Y-58287857D01*
X340832857Y-58430714D01*
X340118571Y-58573571D01*
X341332857Y-58073571D02*
X341690000Y-59073571D01*
X342047142Y-58073571D02*
X341690000Y-59073571D01*
X341547142Y-59430714D01*
X341475714Y-59502142D01*
X341332857Y-59573571D01*
X342618571Y-59073571D02*
X342618571Y-57573571D01*
X342618571Y-58145000D02*
X342761428Y-58073571D01*
X343047142Y-58073571D01*
X343190000Y-58145000D01*
X343261428Y-58216428D01*
X343332857Y-58359285D01*
X343332857Y-58787857D01*
X343261428Y-58930714D01*
X343190000Y-59002142D01*
X343047142Y-59073571D01*
X342761428Y-59073571D01*
X342618571Y-59002142D01*
X344190000Y-59073571D02*
X344047142Y-59002142D01*
X343975714Y-58930714D01*
X343904285Y-58787857D01*
X343904285Y-58359285D01*
X343975714Y-58216428D01*
X344047142Y-58145000D01*
X344190000Y-58073571D01*
X344404285Y-58073571D01*
X344547142Y-58145000D01*
X344618571Y-58216428D01*
X344690000Y-58359285D01*
X344690000Y-58787857D01*
X344618571Y-58930714D01*
X344547142Y-59002142D01*
X344404285Y-59073571D01*
X344190000Y-59073571D01*
X345975714Y-59073571D02*
X345975714Y-58287857D01*
X345904285Y-58145000D01*
X345761428Y-58073571D01*
X345475714Y-58073571D01*
X345332857Y-58145000D01*
X345975714Y-59002142D02*
X345832857Y-59073571D01*
X345475714Y-59073571D01*
X345332857Y-59002142D01*
X345261428Y-58859285D01*
X345261428Y-58716428D01*
X345332857Y-58573571D01*
X345475714Y-58502142D01*
X345832857Y-58502142D01*
X345975714Y-58430714D01*
X346690000Y-59073571D02*
X346690000Y-58073571D01*
X346690000Y-58359285D02*
X346761428Y-58216428D01*
X346832857Y-58145000D01*
X346975714Y-58073571D01*
X347118571Y-58073571D01*
X348261428Y-59073571D02*
X348261428Y-57573571D01*
X348261428Y-59002142D02*
X348118571Y-59073571D01*
X347832857Y-59073571D01*
X347690000Y-59002142D01*
X347618571Y-58930714D01*
X347547142Y-58787857D01*
X347547142Y-58359285D01*
X347618571Y-58216428D01*
X347690000Y-58145000D01*
X347832857Y-58073571D01*
X348118571Y-58073571D01*
X348261428Y-58145000D01*
X350761428Y-57573571D02*
X350475714Y-57573571D01*
X350332857Y-57645000D01*
X350261428Y-57716428D01*
X350118571Y-57930714D01*
X350047142Y-58216428D01*
X350047142Y-58787857D01*
X350118571Y-58930714D01*
X350190000Y-59002142D01*
X350332857Y-59073571D01*
X350618571Y-59073571D01*
X350761428Y-59002142D01*
X350832857Y-58930714D01*
X350904285Y-58787857D01*
X350904285Y-58430714D01*
X350832857Y-58287857D01*
X350761428Y-58216428D01*
X350618571Y-58145000D01*
X350332857Y-58145000D01*
X350190000Y-58216428D01*
X350118571Y-58287857D01*
X350047142Y-58430714D01*
X352261428Y-57573571D02*
X351547142Y-57573571D01*
X351475714Y-58287857D01*
X351547142Y-58216428D01*
X351690000Y-58145000D01*
X352047142Y-58145000D01*
X352190000Y-58216428D01*
X352261428Y-58287857D01*
X352332857Y-58430714D01*
X352332857Y-58787857D01*
X352261428Y-58930714D01*
X352190000Y-59002142D01*
X352047142Y-59073571D01*
X351690000Y-59073571D01*
X351547142Y-59002142D01*
X351475714Y-58930714D01*
X352904285Y-59073571D02*
X354047142Y-57573571D01*
X353118571Y-57573571D02*
X353261428Y-57645000D01*
X353332857Y-57787857D01*
X353261428Y-57930714D01*
X353118571Y-58002142D01*
X352975714Y-57930714D01*
X352904285Y-57787857D01*
X352975714Y-57645000D01*
X353118571Y-57573571D01*
X353975714Y-59002142D02*
X354047142Y-58859285D01*
X353975714Y-58716428D01*
X353832857Y-58645000D01*
X353690000Y-58716428D01*
X353618571Y-58859285D01*
X353690000Y-59002142D01*
X353832857Y-59073571D01*
X353975714Y-59002142D01*
X333475714Y-59988571D02*
X333975714Y-61488571D01*
X334475714Y-59988571D01*
X335547142Y-61417142D02*
X335404285Y-61488571D01*
X335118571Y-61488571D01*
X334975714Y-61417142D01*
X334904285Y-61274285D01*
X334904285Y-60702857D01*
X334975714Y-60560000D01*
X335118571Y-60488571D01*
X335404285Y-60488571D01*
X335547142Y-60560000D01*
X335618571Y-60702857D01*
X335618571Y-60845714D01*
X334904285Y-60988571D01*
X336261428Y-61488571D02*
X336261428Y-60488571D01*
X336261428Y-60774285D02*
X336332857Y-60631428D01*
X336404285Y-60560000D01*
X336547142Y-60488571D01*
X336690000Y-60488571D01*
X338618571Y-59988571D02*
X338761428Y-59988571D01*
X338904285Y-60060000D01*
X338975714Y-60131428D01*
X339047142Y-60274285D01*
X339118571Y-60560000D01*
X339118571Y-60917142D01*
X339047142Y-61202857D01*
X338975714Y-61345714D01*
X338904285Y-61417142D01*
X338761428Y-61488571D01*
X338618571Y-61488571D01*
X338475714Y-61417142D01*
X338404285Y-61345714D01*
X338332857Y-61202857D01*
X338261428Y-60917142D01*
X338261428Y-60560000D01*
X338332857Y-60274285D01*
X338404285Y-60131428D01*
X338475714Y-60060000D01*
X338618571Y-59988571D01*
X339761428Y-61345714D02*
X339832857Y-61417142D01*
X339761428Y-61488571D01*
X339690000Y-61417142D01*
X339761428Y-61345714D01*
X339761428Y-61488571D01*
X340404285Y-60131428D02*
X340475714Y-60060000D01*
X340618571Y-59988571D01*
X340975714Y-59988571D01*
X341118571Y-60060000D01*
X341190000Y-60131428D01*
X341261428Y-60274285D01*
X341261428Y-60417142D01*
X341190000Y-60631428D01*
X340332857Y-61488571D01*
X341261428Y-61488571D01*
X330190000Y-63760714D02*
X330118571Y-63832142D01*
X329904285Y-63903571D01*
X329761428Y-63903571D01*
X329547142Y-63832142D01*
X329404285Y-63689285D01*
X329332857Y-63546428D01*
X329261428Y-63260714D01*
X329261428Y-63046428D01*
X329332857Y-62760714D01*
X329404285Y-62617857D01*
X329547142Y-62475000D01*
X329761428Y-62403571D01*
X329904285Y-62403571D01*
X330118571Y-62475000D01*
X330190000Y-62546428D01*
X331690000Y-63760714D02*
X331618571Y-63832142D01*
X331404285Y-63903571D01*
X331261428Y-63903571D01*
X331047142Y-63832142D01*
X330904285Y-63689285D01*
X330832857Y-63546428D01*
X330761428Y-63260714D01*
X330761428Y-63046428D01*
X330832857Y-62760714D01*
X330904285Y-62617857D01*
X331047142Y-62475000D01*
X331261428Y-62403571D01*
X331404285Y-62403571D01*
X331618571Y-62475000D01*
X331690000Y-62546428D01*
X332332857Y-63332142D02*
X333475714Y-63332142D01*
X334690000Y-63117857D02*
X334904285Y-63189285D01*
X334975714Y-63260714D01*
X335047142Y-63403571D01*
X335047142Y-63617857D01*
X334975714Y-63760714D01*
X334904285Y-63832142D01*
X334761428Y-63903571D01*
X334190000Y-63903571D01*
X334190000Y-62403571D01*
X334690000Y-62403571D01*
X334832857Y-62475000D01*
X334904285Y-62546428D01*
X334975714Y-62689285D01*
X334975714Y-62832142D01*
X334904285Y-62975000D01*
X334832857Y-63046428D01*
X334690000Y-63117857D01*
X334190000Y-63117857D01*
X335975714Y-63189285D02*
X335975714Y-63903571D01*
X335475714Y-62403571D02*
X335975714Y-63189285D01*
X336475714Y-62403571D01*
X336975714Y-63332142D02*
X338118571Y-63332142D01*
X338761428Y-63832142D02*
X338975714Y-63903571D01*
X339332857Y-63903571D01*
X339475714Y-63832142D01*
X339547142Y-63760714D01*
X339618571Y-63617857D01*
X339618571Y-63475000D01*
X339547142Y-63332142D01*
X339475714Y-63260714D01*
X339332857Y-63189285D01*
X339047142Y-63117857D01*
X338904285Y-63046428D01*
X338832857Y-62975000D01*
X338761428Y-62832142D01*
X338761428Y-62689285D01*
X338832857Y-62546428D01*
X338904285Y-62475000D01*
X339047142Y-62403571D01*
X339404285Y-62403571D01*
X339618571Y-62475000D01*
X340190000Y-63475000D02*
X340904285Y-63475000D01*
X340047142Y-63903571D02*
X340547142Y-62403571D01*
X341047142Y-63903571D01*
X343332857Y-62903571D02*
X343332857Y-63903571D01*
X342975714Y-62332142D02*
X342618571Y-63403571D01*
X343547142Y-63403571D01*
X344118571Y-63760714D02*
X344190000Y-63832142D01*
X344118571Y-63903571D01*
X344047142Y-63832142D01*
X344118571Y-63760714D01*
X344118571Y-63903571D01*
X345118571Y-62403571D02*
X345261428Y-62403571D01*
X345404285Y-62475000D01*
X345475714Y-62546428D01*
X345547142Y-62689285D01*
X345618571Y-62975000D01*
X345618571Y-63332142D01*
X345547142Y-63617857D01*
X345475714Y-63760714D01*
X345404285Y-63832142D01*
X345261428Y-63903571D01*
X345118571Y-63903571D01*
X344975714Y-63832142D01*
X344904285Y-63760714D01*
X344832857Y-63617857D01*
X344761428Y-63332142D01*
X344761428Y-62975000D01*
X344832857Y-62689285D01*
X344904285Y-62546428D01*
X344975714Y-62475000D01*
X345118571Y-62403571D01*
%TO.C,SW8*%
X107016666Y-103249761D02*
X107159523Y-103297380D01*
X107397619Y-103297380D01*
X107492857Y-103249761D01*
X107540476Y-103202142D01*
X107588095Y-103106904D01*
X107588095Y-103011666D01*
X107540476Y-102916428D01*
X107492857Y-102868809D01*
X107397619Y-102821190D01*
X107207142Y-102773571D01*
X107111904Y-102725952D01*
X107064285Y-102678333D01*
X107016666Y-102583095D01*
X107016666Y-102487857D01*
X107064285Y-102392619D01*
X107111904Y-102345000D01*
X107207142Y-102297380D01*
X107445238Y-102297380D01*
X107588095Y-102345000D01*
X107921428Y-102297380D02*
X108159523Y-103297380D01*
X108350000Y-102583095D01*
X108540476Y-103297380D01*
X108778571Y-102297380D01*
X109302380Y-102725952D02*
X109207142Y-102678333D01*
X109159523Y-102630714D01*
X109111904Y-102535476D01*
X109111904Y-102487857D01*
X109159523Y-102392619D01*
X109207142Y-102345000D01*
X109302380Y-102297380D01*
X109492857Y-102297380D01*
X109588095Y-102345000D01*
X109635714Y-102392619D01*
X109683333Y-102487857D01*
X109683333Y-102535476D01*
X109635714Y-102630714D01*
X109588095Y-102678333D01*
X109492857Y-102725952D01*
X109302380Y-102725952D01*
X109207142Y-102773571D01*
X109159523Y-102821190D01*
X109111904Y-102916428D01*
X109111904Y-103106904D01*
X109159523Y-103202142D01*
X109207142Y-103249761D01*
X109302380Y-103297380D01*
X109492857Y-103297380D01*
X109588095Y-103249761D01*
X109635714Y-103202142D01*
X109683333Y-103106904D01*
X109683333Y-102916428D01*
X109635714Y-102821190D01*
X109588095Y-102773571D01*
X109492857Y-102725952D01*
%TO.C,R1*%
X327743333Y-178632380D02*
X327410000Y-178156190D01*
X327171904Y-178632380D02*
X327171904Y-177632380D01*
X327552857Y-177632380D01*
X327648095Y-177680000D01*
X327695714Y-177727619D01*
X327743333Y-177822857D01*
X327743333Y-177965714D01*
X327695714Y-178060952D01*
X327648095Y-178108571D01*
X327552857Y-178156190D01*
X327171904Y-178156190D01*
X328695714Y-178632380D02*
X328124285Y-178632380D01*
X328410000Y-178632380D02*
X328410000Y-177632380D01*
X328314761Y-177775238D01*
X328219523Y-177870476D01*
X328124285Y-177918095D01*
%TO.C,SW41*%
X230365476Y-84199761D02*
X230508333Y-84247380D01*
X230746428Y-84247380D01*
X230841666Y-84199761D01*
X230889285Y-84152142D01*
X230936904Y-84056904D01*
X230936904Y-83961666D01*
X230889285Y-83866428D01*
X230841666Y-83818809D01*
X230746428Y-83771190D01*
X230555952Y-83723571D01*
X230460714Y-83675952D01*
X230413095Y-83628333D01*
X230365476Y-83533095D01*
X230365476Y-83437857D01*
X230413095Y-83342619D01*
X230460714Y-83295000D01*
X230555952Y-83247380D01*
X230794047Y-83247380D01*
X230936904Y-83295000D01*
X231270238Y-83247380D02*
X231508333Y-84247380D01*
X231698809Y-83533095D01*
X231889285Y-84247380D01*
X232127380Y-83247380D01*
X232936904Y-83580714D02*
X232936904Y-84247380D01*
X232698809Y-83199761D02*
X232460714Y-83914047D01*
X233079761Y-83914047D01*
X233984523Y-84247380D02*
X233413095Y-84247380D01*
X233698809Y-84247380D02*
X233698809Y-83247380D01*
X233603571Y-83390238D01*
X233508333Y-83485476D01*
X233413095Y-83533095D01*
%TO.C,SW61*%
X306565476Y-84199761D02*
X306708333Y-84247380D01*
X306946428Y-84247380D01*
X307041666Y-84199761D01*
X307089285Y-84152142D01*
X307136904Y-84056904D01*
X307136904Y-83961666D01*
X307089285Y-83866428D01*
X307041666Y-83818809D01*
X306946428Y-83771190D01*
X306755952Y-83723571D01*
X306660714Y-83675952D01*
X306613095Y-83628333D01*
X306565476Y-83533095D01*
X306565476Y-83437857D01*
X306613095Y-83342619D01*
X306660714Y-83295000D01*
X306755952Y-83247380D01*
X306994047Y-83247380D01*
X307136904Y-83295000D01*
X307470238Y-83247380D02*
X307708333Y-84247380D01*
X307898809Y-83533095D01*
X308089285Y-84247380D01*
X308327380Y-83247380D01*
X309136904Y-83247380D02*
X308946428Y-83247380D01*
X308851190Y-83295000D01*
X308803571Y-83342619D01*
X308708333Y-83485476D01*
X308660714Y-83675952D01*
X308660714Y-84056904D01*
X308708333Y-84152142D01*
X308755952Y-84199761D01*
X308851190Y-84247380D01*
X309041666Y-84247380D01*
X309136904Y-84199761D01*
X309184523Y-84152142D01*
X309232142Y-84056904D01*
X309232142Y-83818809D01*
X309184523Y-83723571D01*
X309136904Y-83675952D01*
X309041666Y-83628333D01*
X308851190Y-83628333D01*
X308755952Y-83675952D01*
X308708333Y-83723571D01*
X308660714Y-83818809D01*
X310184523Y-84247380D02*
X309613095Y-84247380D01*
X309898809Y-84247380D02*
X309898809Y-83247380D01*
X309803571Y-83390238D01*
X309708333Y-83485476D01*
X309613095Y-83533095D01*
%TO.C,SW57*%
X297040476Y-103249761D02*
X297183333Y-103297380D01*
X297421428Y-103297380D01*
X297516666Y-103249761D01*
X297564285Y-103202142D01*
X297611904Y-103106904D01*
X297611904Y-103011666D01*
X297564285Y-102916428D01*
X297516666Y-102868809D01*
X297421428Y-102821190D01*
X297230952Y-102773571D01*
X297135714Y-102725952D01*
X297088095Y-102678333D01*
X297040476Y-102583095D01*
X297040476Y-102487857D01*
X297088095Y-102392619D01*
X297135714Y-102345000D01*
X297230952Y-102297380D01*
X297469047Y-102297380D01*
X297611904Y-102345000D01*
X297945238Y-102297380D02*
X298183333Y-103297380D01*
X298373809Y-102583095D01*
X298564285Y-103297380D01*
X298802380Y-102297380D01*
X299659523Y-102297380D02*
X299183333Y-102297380D01*
X299135714Y-102773571D01*
X299183333Y-102725952D01*
X299278571Y-102678333D01*
X299516666Y-102678333D01*
X299611904Y-102725952D01*
X299659523Y-102773571D01*
X299707142Y-102868809D01*
X299707142Y-103106904D01*
X299659523Y-103202142D01*
X299611904Y-103249761D01*
X299516666Y-103297380D01*
X299278571Y-103297380D01*
X299183333Y-103249761D01*
X299135714Y-103202142D01*
X300040476Y-102297380D02*
X300707142Y-102297380D01*
X300278571Y-103297380D01*
%TO.C,SW39*%
X225602976Y-122299761D02*
X225745833Y-122347380D01*
X225983928Y-122347380D01*
X226079166Y-122299761D01*
X226126785Y-122252142D01*
X226174404Y-122156904D01*
X226174404Y-122061666D01*
X226126785Y-121966428D01*
X226079166Y-121918809D01*
X225983928Y-121871190D01*
X225793452Y-121823571D01*
X225698214Y-121775952D01*
X225650595Y-121728333D01*
X225602976Y-121633095D01*
X225602976Y-121537857D01*
X225650595Y-121442619D01*
X225698214Y-121395000D01*
X225793452Y-121347380D01*
X226031547Y-121347380D01*
X226174404Y-121395000D01*
X226507738Y-121347380D02*
X226745833Y-122347380D01*
X226936309Y-121633095D01*
X227126785Y-122347380D01*
X227364880Y-121347380D01*
X227650595Y-121347380D02*
X228269642Y-121347380D01*
X227936309Y-121728333D01*
X228079166Y-121728333D01*
X228174404Y-121775952D01*
X228222023Y-121823571D01*
X228269642Y-121918809D01*
X228269642Y-122156904D01*
X228222023Y-122252142D01*
X228174404Y-122299761D01*
X228079166Y-122347380D01*
X227793452Y-122347380D01*
X227698214Y-122299761D01*
X227650595Y-122252142D01*
X228745833Y-122347380D02*
X228936309Y-122347380D01*
X229031547Y-122299761D01*
X229079166Y-122252142D01*
X229174404Y-122109285D01*
X229222023Y-121918809D01*
X229222023Y-121537857D01*
X229174404Y-121442619D01*
X229126785Y-121395000D01*
X229031547Y-121347380D01*
X228841071Y-121347380D01*
X228745833Y-121395000D01*
X228698214Y-121442619D01*
X228650595Y-121537857D01*
X228650595Y-121775952D01*
X228698214Y-121871190D01*
X228745833Y-121918809D01*
X228841071Y-121966428D01*
X229031547Y-121966428D01*
X229126785Y-121918809D01*
X229174404Y-121871190D01*
X229222023Y-121775952D01*
%TO.C,SW19*%
X149402975Y-122299761D02*
X149545832Y-122347380D01*
X149783927Y-122347380D01*
X149879165Y-122299761D01*
X149926784Y-122252142D01*
X149974403Y-122156904D01*
X149974403Y-122061666D01*
X149926784Y-121966428D01*
X149879165Y-121918809D01*
X149783927Y-121871190D01*
X149593451Y-121823571D01*
X149498213Y-121775952D01*
X149450594Y-121728333D01*
X149402975Y-121633095D01*
X149402975Y-121537857D01*
X149450594Y-121442619D01*
X149498213Y-121395000D01*
X149593451Y-121347380D01*
X149831546Y-121347380D01*
X149974403Y-121395000D01*
X150307737Y-121347380D02*
X150545832Y-122347380D01*
X150736308Y-121633095D01*
X150926784Y-122347380D01*
X151164879Y-121347380D01*
X152069641Y-122347380D02*
X151498213Y-122347380D01*
X151783927Y-122347380D02*
X151783927Y-121347380D01*
X151688689Y-121490238D01*
X151593451Y-121585476D01*
X151498213Y-121633095D01*
X152545832Y-122347380D02*
X152736308Y-122347380D01*
X152831546Y-122299761D01*
X152879165Y-122252142D01*
X152974403Y-122109285D01*
X153022022Y-121918809D01*
X153022022Y-121537857D01*
X152974403Y-121442619D01*
X152926784Y-121395000D01*
X152831546Y-121347380D01*
X152641070Y-121347380D01*
X152545832Y-121395000D01*
X152498213Y-121442619D01*
X152450594Y-121537857D01*
X152450594Y-121775952D01*
X152498213Y-121871190D01*
X152545832Y-121918809D01*
X152641070Y-121966428D01*
X152831546Y-121966428D01*
X152926784Y-121918809D01*
X152974403Y-121871190D01*
X153022022Y-121775952D01*
%TO.C,SW18*%
X144640476Y-103249761D02*
X144783333Y-103297380D01*
X145021428Y-103297380D01*
X145116666Y-103249761D01*
X145164285Y-103202142D01*
X145211904Y-103106904D01*
X145211904Y-103011666D01*
X145164285Y-102916428D01*
X145116666Y-102868809D01*
X145021428Y-102821190D01*
X144830952Y-102773571D01*
X144735714Y-102725952D01*
X144688095Y-102678333D01*
X144640476Y-102583095D01*
X144640476Y-102487857D01*
X144688095Y-102392619D01*
X144735714Y-102345000D01*
X144830952Y-102297380D01*
X145069047Y-102297380D01*
X145211904Y-102345000D01*
X145545238Y-102297380D02*
X145783333Y-103297380D01*
X145973809Y-102583095D01*
X146164285Y-103297380D01*
X146402380Y-102297380D01*
X147307142Y-103297380D02*
X146735714Y-103297380D01*
X147021428Y-103297380D02*
X147021428Y-102297380D01*
X146926190Y-102440238D01*
X146830952Y-102535476D01*
X146735714Y-102583095D01*
X147878571Y-102725952D02*
X147783333Y-102678333D01*
X147735714Y-102630714D01*
X147688095Y-102535476D01*
X147688095Y-102487857D01*
X147735714Y-102392619D01*
X147783333Y-102345000D01*
X147878571Y-102297380D01*
X148069047Y-102297380D01*
X148164285Y-102345000D01*
X148211904Y-102392619D01*
X148259523Y-102487857D01*
X148259523Y-102535476D01*
X148211904Y-102630714D01*
X148164285Y-102678333D01*
X148069047Y-102725952D01*
X147878571Y-102725952D01*
X147783333Y-102773571D01*
X147735714Y-102821190D01*
X147688095Y-102916428D01*
X147688095Y-103106904D01*
X147735714Y-103202142D01*
X147783333Y-103249761D01*
X147878571Y-103297380D01*
X148069047Y-103297380D01*
X148164285Y-103249761D01*
X148211904Y-103202142D01*
X148259523Y-103106904D01*
X148259523Y-102916428D01*
X148211904Y-102821190D01*
X148164285Y-102773571D01*
X148069047Y-102725952D01*
%TO.C,SW45*%
X268465476Y-160399761D02*
X268608333Y-160447380D01*
X268846428Y-160447380D01*
X268941666Y-160399761D01*
X268989285Y-160352142D01*
X269036904Y-160256904D01*
X269036904Y-160161666D01*
X268989285Y-160066428D01*
X268941666Y-160018809D01*
X268846428Y-159971190D01*
X268655952Y-159923571D01*
X268560714Y-159875952D01*
X268513095Y-159828333D01*
X268465476Y-159733095D01*
X268465476Y-159637857D01*
X268513095Y-159542619D01*
X268560714Y-159495000D01*
X268655952Y-159447380D01*
X268894047Y-159447380D01*
X269036904Y-159495000D01*
X269370238Y-159447380D02*
X269608333Y-160447380D01*
X269798809Y-159733095D01*
X269989285Y-160447380D01*
X270227380Y-159447380D01*
X271036904Y-159780714D02*
X271036904Y-160447380D01*
X270798809Y-159399761D02*
X270560714Y-160114047D01*
X271179761Y-160114047D01*
X272036904Y-159447380D02*
X271560714Y-159447380D01*
X271513095Y-159923571D01*
X271560714Y-159875952D01*
X271655952Y-159828333D01*
X271894047Y-159828333D01*
X271989285Y-159875952D01*
X272036904Y-159923571D01*
X272084523Y-160018809D01*
X272084523Y-160256904D01*
X272036904Y-160352142D01*
X271989285Y-160399761D01*
X271894047Y-160447380D01*
X271655952Y-160447380D01*
X271560714Y-160399761D01*
X271513095Y-160352142D01*
%TO.C,C2*%
X338590833Y-170997142D02*
X338543214Y-171044761D01*
X338400357Y-171092380D01*
X338305119Y-171092380D01*
X338162261Y-171044761D01*
X338067023Y-170949523D01*
X338019404Y-170854285D01*
X337971785Y-170663809D01*
X337971785Y-170520952D01*
X338019404Y-170330476D01*
X338067023Y-170235238D01*
X338162261Y-170140000D01*
X338305119Y-170092380D01*
X338400357Y-170092380D01*
X338543214Y-170140000D01*
X338590833Y-170187619D01*
X338971785Y-170187619D02*
X339019404Y-170140000D01*
X339114642Y-170092380D01*
X339352738Y-170092380D01*
X339447976Y-170140000D01*
X339495595Y-170187619D01*
X339543214Y-170282857D01*
X339543214Y-170378095D01*
X339495595Y-170520952D01*
X338924166Y-171092380D01*
X339543214Y-171092380D01*
%TO.C,SW65*%
X344665476Y-160399761D02*
X344808333Y-160447380D01*
X345046428Y-160447380D01*
X345141666Y-160399761D01*
X345189285Y-160352142D01*
X345236904Y-160256904D01*
X345236904Y-160161666D01*
X345189285Y-160066428D01*
X345141666Y-160018809D01*
X345046428Y-159971190D01*
X344855952Y-159923571D01*
X344760714Y-159875952D01*
X344713095Y-159828333D01*
X344665476Y-159733095D01*
X344665476Y-159637857D01*
X344713095Y-159542619D01*
X344760714Y-159495000D01*
X344855952Y-159447380D01*
X345094047Y-159447380D01*
X345236904Y-159495000D01*
X345570238Y-159447380D02*
X345808333Y-160447380D01*
X345998809Y-159733095D01*
X346189285Y-160447380D01*
X346427380Y-159447380D01*
X347236904Y-159447380D02*
X347046428Y-159447380D01*
X346951190Y-159495000D01*
X346903571Y-159542619D01*
X346808333Y-159685476D01*
X346760714Y-159875952D01*
X346760714Y-160256904D01*
X346808333Y-160352142D01*
X346855952Y-160399761D01*
X346951190Y-160447380D01*
X347141666Y-160447380D01*
X347236904Y-160399761D01*
X347284523Y-160352142D01*
X347332142Y-160256904D01*
X347332142Y-160018809D01*
X347284523Y-159923571D01*
X347236904Y-159875952D01*
X347141666Y-159828333D01*
X346951190Y-159828333D01*
X346855952Y-159875952D01*
X346808333Y-159923571D01*
X346760714Y-160018809D01*
X348236904Y-159447380D02*
X347760714Y-159447380D01*
X347713095Y-159923571D01*
X347760714Y-159875952D01*
X347855952Y-159828333D01*
X348094047Y-159828333D01*
X348189285Y-159875952D01*
X348236904Y-159923571D01*
X348284523Y-160018809D01*
X348284523Y-160256904D01*
X348236904Y-160352142D01*
X348189285Y-160399761D01*
X348094047Y-160447380D01*
X347855952Y-160447380D01*
X347760714Y-160399761D01*
X347713095Y-160352142D01*
%TO.C,SW60*%
X306565476Y-160399761D02*
X306708333Y-160447380D01*
X306946428Y-160447380D01*
X307041666Y-160399761D01*
X307089285Y-160352142D01*
X307136904Y-160256904D01*
X307136904Y-160161666D01*
X307089285Y-160066428D01*
X307041666Y-160018809D01*
X306946428Y-159971190D01*
X306755952Y-159923571D01*
X306660714Y-159875952D01*
X306613095Y-159828333D01*
X306565476Y-159733095D01*
X306565476Y-159637857D01*
X306613095Y-159542619D01*
X306660714Y-159495000D01*
X306755952Y-159447380D01*
X306994047Y-159447380D01*
X307136904Y-159495000D01*
X307470238Y-159447380D02*
X307708333Y-160447380D01*
X307898809Y-159733095D01*
X308089285Y-160447380D01*
X308327380Y-159447380D01*
X309136904Y-159447380D02*
X308946428Y-159447380D01*
X308851190Y-159495000D01*
X308803571Y-159542619D01*
X308708333Y-159685476D01*
X308660714Y-159875952D01*
X308660714Y-160256904D01*
X308708333Y-160352142D01*
X308755952Y-160399761D01*
X308851190Y-160447380D01*
X309041666Y-160447380D01*
X309136904Y-160399761D01*
X309184523Y-160352142D01*
X309232142Y-160256904D01*
X309232142Y-160018809D01*
X309184523Y-159923571D01*
X309136904Y-159875952D01*
X309041666Y-159828333D01*
X308851190Y-159828333D01*
X308755952Y-159875952D01*
X308708333Y-159923571D01*
X308660714Y-160018809D01*
X309851190Y-159447380D02*
X309946428Y-159447380D01*
X310041666Y-159495000D01*
X310089285Y-159542619D01*
X310136904Y-159637857D01*
X310184523Y-159828333D01*
X310184523Y-160066428D01*
X310136904Y-160256904D01*
X310089285Y-160352142D01*
X310041666Y-160399761D01*
X309946428Y-160447380D01*
X309851190Y-160447380D01*
X309755952Y-160399761D01*
X309708333Y-160352142D01*
X309660714Y-160256904D01*
X309613095Y-160066428D01*
X309613095Y-159828333D01*
X309660714Y-159637857D01*
X309708333Y-159542619D01*
X309755952Y-159495000D01*
X309851190Y-159447380D01*
%TO.C,SW49*%
X273227976Y-141349761D02*
X273370833Y-141397380D01*
X273608928Y-141397380D01*
X273704166Y-141349761D01*
X273751785Y-141302142D01*
X273799404Y-141206904D01*
X273799404Y-141111666D01*
X273751785Y-141016428D01*
X273704166Y-140968809D01*
X273608928Y-140921190D01*
X273418452Y-140873571D01*
X273323214Y-140825952D01*
X273275595Y-140778333D01*
X273227976Y-140683095D01*
X273227976Y-140587857D01*
X273275595Y-140492619D01*
X273323214Y-140445000D01*
X273418452Y-140397380D01*
X273656547Y-140397380D01*
X273799404Y-140445000D01*
X274132738Y-140397380D02*
X274370833Y-141397380D01*
X274561309Y-140683095D01*
X274751785Y-141397380D01*
X274989880Y-140397380D01*
X275799404Y-140730714D02*
X275799404Y-141397380D01*
X275561309Y-140349761D02*
X275323214Y-141064047D01*
X275942261Y-141064047D01*
X276370833Y-141397380D02*
X276561309Y-141397380D01*
X276656547Y-141349761D01*
X276704166Y-141302142D01*
X276799404Y-141159285D01*
X276847023Y-140968809D01*
X276847023Y-140587857D01*
X276799404Y-140492619D01*
X276751785Y-140445000D01*
X276656547Y-140397380D01*
X276466071Y-140397380D01*
X276370833Y-140445000D01*
X276323214Y-140492619D01*
X276275595Y-140587857D01*
X276275595Y-140825952D01*
X276323214Y-140921190D01*
X276370833Y-140968809D01*
X276466071Y-141016428D01*
X276656547Y-141016428D01*
X276751785Y-140968809D01*
X276799404Y-140921190D01*
X276847023Y-140825952D01*
%TO.C,J1*%
X360026666Y-175842380D02*
X360026666Y-176556666D01*
X359979047Y-176699523D01*
X359883809Y-176794761D01*
X359740952Y-176842380D01*
X359645714Y-176842380D01*
X361026666Y-176842380D02*
X360455238Y-176842380D01*
X360740952Y-176842380D02*
X360740952Y-175842380D01*
X360645714Y-175985238D01*
X360550476Y-176080476D01*
X360455238Y-176128095D01*
X362064761Y-168630476D02*
X362112380Y-168487619D01*
X362112380Y-168249523D01*
X362064761Y-168154285D01*
X362017142Y-168106666D01*
X361921904Y-168059047D01*
X361826666Y-168059047D01*
X361731428Y-168106666D01*
X361683809Y-168154285D01*
X361636190Y-168249523D01*
X361588571Y-168440000D01*
X361540952Y-168535238D01*
X361493333Y-168582857D01*
X361398095Y-168630476D01*
X361302857Y-168630476D01*
X361207619Y-168582857D01*
X361160000Y-168535238D01*
X361112380Y-168440000D01*
X361112380Y-168201904D01*
X361160000Y-168059047D01*
X362017142Y-167059047D02*
X362064761Y-167106666D01*
X362112380Y-167249523D01*
X362112380Y-167344761D01*
X362064761Y-167487619D01*
X361969523Y-167582857D01*
X361874285Y-167630476D01*
X361683809Y-167678095D01*
X361540952Y-167678095D01*
X361350476Y-167630476D01*
X361255238Y-167582857D01*
X361160000Y-167487619D01*
X361112380Y-167344761D01*
X361112380Y-167249523D01*
X361160000Y-167106666D01*
X361207619Y-167059047D01*
X362112380Y-166154285D02*
X362112380Y-166630476D01*
X361112380Y-166630476D01*
X356162380Y-168823333D02*
X357162380Y-168490000D01*
X356162380Y-168156666D01*
X357067142Y-167251904D02*
X357114761Y-167299523D01*
X357162380Y-167442380D01*
X357162380Y-167537619D01*
X357114761Y-167680476D01*
X357019523Y-167775714D01*
X356924285Y-167823333D01*
X356733809Y-167870952D01*
X356590952Y-167870952D01*
X356400476Y-167823333D01*
X356305238Y-167775714D01*
X356210000Y-167680476D01*
X356162380Y-167537619D01*
X356162380Y-167442380D01*
X356210000Y-167299523D01*
X356257619Y-167251904D01*
X357067142Y-166251904D02*
X357114761Y-166299523D01*
X357162380Y-166442380D01*
X357162380Y-166537619D01*
X357114761Y-166680476D01*
X357019523Y-166775714D01*
X356924285Y-166823333D01*
X356733809Y-166870952D01*
X356590952Y-166870952D01*
X356400476Y-166823333D01*
X356305238Y-166775714D01*
X356210000Y-166680476D01*
X356162380Y-166537619D01*
X356162380Y-166442380D01*
X356210000Y-166299523D01*
X356257619Y-166251904D01*
X364664761Y-168854285D02*
X364712380Y-168711428D01*
X364712380Y-168473333D01*
X364664761Y-168378095D01*
X364617142Y-168330476D01*
X364521904Y-168282857D01*
X364426666Y-168282857D01*
X364331428Y-168330476D01*
X364283809Y-168378095D01*
X364236190Y-168473333D01*
X364188571Y-168663809D01*
X364140952Y-168759047D01*
X364093333Y-168806666D01*
X363998095Y-168854285D01*
X363902857Y-168854285D01*
X363807619Y-168806666D01*
X363760000Y-168759047D01*
X363712380Y-168663809D01*
X363712380Y-168425714D01*
X363760000Y-168282857D01*
X364712380Y-167854285D02*
X363712380Y-167854285D01*
X363712380Y-167616190D01*
X363760000Y-167473333D01*
X363855238Y-167378095D01*
X363950476Y-167330476D01*
X364140952Y-167282857D01*
X364283809Y-167282857D01*
X364474285Y-167330476D01*
X364569523Y-167378095D01*
X364664761Y-167473333D01*
X364712380Y-167616190D01*
X364712380Y-167854285D01*
X364426666Y-166901904D02*
X364426666Y-166425714D01*
X364712380Y-166997142D02*
X363712380Y-166663809D01*
X364712380Y-166330476D01*
X358810000Y-168351904D02*
X358762380Y-168447142D01*
X358762380Y-168590000D01*
X358810000Y-168732857D01*
X358905238Y-168828095D01*
X359000476Y-168875714D01*
X359190952Y-168923333D01*
X359333809Y-168923333D01*
X359524285Y-168875714D01*
X359619523Y-168828095D01*
X359714761Y-168732857D01*
X359762380Y-168590000D01*
X359762380Y-168494761D01*
X359714761Y-168351904D01*
X359667142Y-168304285D01*
X359333809Y-168304285D01*
X359333809Y-168494761D01*
X359762380Y-167875714D02*
X358762380Y-167875714D01*
X359762380Y-167304285D01*
X358762380Y-167304285D01*
X359762380Y-166828095D02*
X358762380Y-166828095D01*
X358762380Y-166590000D01*
X358810000Y-166447142D01*
X358905238Y-166351904D01*
X359000476Y-166304285D01*
X359190952Y-166256666D01*
X359333809Y-166256666D01*
X359524285Y-166304285D01*
X359619523Y-166351904D01*
X359714761Y-166447142D01*
X359762380Y-166590000D01*
X359762380Y-166828095D01*
%TO.C,SW48*%
X263702976Y-122299761D02*
X263845833Y-122347380D01*
X264083928Y-122347380D01*
X264179166Y-122299761D01*
X264226785Y-122252142D01*
X264274404Y-122156904D01*
X264274404Y-122061666D01*
X264226785Y-121966428D01*
X264179166Y-121918809D01*
X264083928Y-121871190D01*
X263893452Y-121823571D01*
X263798214Y-121775952D01*
X263750595Y-121728333D01*
X263702976Y-121633095D01*
X263702976Y-121537857D01*
X263750595Y-121442619D01*
X263798214Y-121395000D01*
X263893452Y-121347380D01*
X264131547Y-121347380D01*
X264274404Y-121395000D01*
X264607738Y-121347380D02*
X264845833Y-122347380D01*
X265036309Y-121633095D01*
X265226785Y-122347380D01*
X265464880Y-121347380D01*
X266274404Y-121680714D02*
X266274404Y-122347380D01*
X266036309Y-121299761D02*
X265798214Y-122014047D01*
X266417261Y-122014047D01*
X266941071Y-121775952D02*
X266845833Y-121728333D01*
X266798214Y-121680714D01*
X266750595Y-121585476D01*
X266750595Y-121537857D01*
X266798214Y-121442619D01*
X266845833Y-121395000D01*
X266941071Y-121347380D01*
X267131547Y-121347380D01*
X267226785Y-121395000D01*
X267274404Y-121442619D01*
X267322023Y-121537857D01*
X267322023Y-121585476D01*
X267274404Y-121680714D01*
X267226785Y-121728333D01*
X267131547Y-121775952D01*
X266941071Y-121775952D01*
X266845833Y-121823571D01*
X266798214Y-121871190D01*
X266750595Y-121966428D01*
X266750595Y-122156904D01*
X266798214Y-122252142D01*
X266845833Y-122299761D01*
X266941071Y-122347380D01*
X267131547Y-122347380D01*
X267226785Y-122299761D01*
X267274404Y-122252142D01*
X267322023Y-122156904D01*
X267322023Y-121966428D01*
X267274404Y-121871190D01*
X267226785Y-121823571D01*
X267131547Y-121775952D01*
%TO.C,SW7*%
X97491666Y-84199761D02*
X97634523Y-84247380D01*
X97872619Y-84247380D01*
X97967857Y-84199761D01*
X98015476Y-84152142D01*
X98063095Y-84056904D01*
X98063095Y-83961666D01*
X98015476Y-83866428D01*
X97967857Y-83818809D01*
X97872619Y-83771190D01*
X97682142Y-83723571D01*
X97586904Y-83675952D01*
X97539285Y-83628333D01*
X97491666Y-83533095D01*
X97491666Y-83437857D01*
X97539285Y-83342619D01*
X97586904Y-83295000D01*
X97682142Y-83247380D01*
X97920238Y-83247380D01*
X98063095Y-83295000D01*
X98396428Y-83247380D02*
X98634523Y-84247380D01*
X98825000Y-83533095D01*
X99015476Y-84247380D01*
X99253571Y-83247380D01*
X99539285Y-83247380D02*
X100205952Y-83247380D01*
X99777380Y-84247380D01*
%TO.C,SW5*%
X90347916Y-141349761D02*
X90490773Y-141397380D01*
X90728869Y-141397380D01*
X90824107Y-141349761D01*
X90871726Y-141302142D01*
X90919345Y-141206904D01*
X90919345Y-141111666D01*
X90871726Y-141016428D01*
X90824107Y-140968809D01*
X90728869Y-140921190D01*
X90538392Y-140873571D01*
X90443154Y-140825952D01*
X90395535Y-140778333D01*
X90347916Y-140683095D01*
X90347916Y-140587857D01*
X90395535Y-140492619D01*
X90443154Y-140445000D01*
X90538392Y-140397380D01*
X90776488Y-140397380D01*
X90919345Y-140445000D01*
X91252678Y-140397380D02*
X91490773Y-141397380D01*
X91681250Y-140683095D01*
X91871726Y-141397380D01*
X92109821Y-140397380D01*
X92966964Y-140397380D02*
X92490773Y-140397380D01*
X92443154Y-140873571D01*
X92490773Y-140825952D01*
X92586011Y-140778333D01*
X92824107Y-140778333D01*
X92919345Y-140825952D01*
X92966964Y-140873571D01*
X93014583Y-140968809D01*
X93014583Y-141206904D01*
X92966964Y-141302142D01*
X92919345Y-141349761D01*
X92824107Y-141397380D01*
X92586011Y-141397380D01*
X92490773Y-141349761D01*
X92443154Y-141302142D01*
%TO.C,SW17*%
X135115476Y-84199761D02*
X135258333Y-84247380D01*
X135496428Y-84247380D01*
X135591666Y-84199761D01*
X135639285Y-84152142D01*
X135686904Y-84056904D01*
X135686904Y-83961666D01*
X135639285Y-83866428D01*
X135591666Y-83818809D01*
X135496428Y-83771190D01*
X135305952Y-83723571D01*
X135210714Y-83675952D01*
X135163095Y-83628333D01*
X135115476Y-83533095D01*
X135115476Y-83437857D01*
X135163095Y-83342619D01*
X135210714Y-83295000D01*
X135305952Y-83247380D01*
X135544047Y-83247380D01*
X135686904Y-83295000D01*
X136020238Y-83247380D02*
X136258333Y-84247380D01*
X136448809Y-83533095D01*
X136639285Y-84247380D01*
X136877380Y-83247380D01*
X137782142Y-84247380D02*
X137210714Y-84247380D01*
X137496428Y-84247380D02*
X137496428Y-83247380D01*
X137401190Y-83390238D01*
X137305952Y-83485476D01*
X137210714Y-83533095D01*
X138115476Y-83247380D02*
X138782142Y-83247380D01*
X138353571Y-84247380D01*
%TO.C,SW66*%
X335140476Y-84199761D02*
X335283333Y-84247380D01*
X335521428Y-84247380D01*
X335616666Y-84199761D01*
X335664285Y-84152142D01*
X335711904Y-84056904D01*
X335711904Y-83961666D01*
X335664285Y-83866428D01*
X335616666Y-83818809D01*
X335521428Y-83771190D01*
X335330952Y-83723571D01*
X335235714Y-83675952D01*
X335188095Y-83628333D01*
X335140476Y-83533095D01*
X335140476Y-83437857D01*
X335188095Y-83342619D01*
X335235714Y-83295000D01*
X335330952Y-83247380D01*
X335569047Y-83247380D01*
X335711904Y-83295000D01*
X336045238Y-83247380D02*
X336283333Y-84247380D01*
X336473809Y-83533095D01*
X336664285Y-84247380D01*
X336902380Y-83247380D01*
X337711904Y-83247380D02*
X337521428Y-83247380D01*
X337426190Y-83295000D01*
X337378571Y-83342619D01*
X337283333Y-83485476D01*
X337235714Y-83675952D01*
X337235714Y-84056904D01*
X337283333Y-84152142D01*
X337330952Y-84199761D01*
X337426190Y-84247380D01*
X337616666Y-84247380D01*
X337711904Y-84199761D01*
X337759523Y-84152142D01*
X337807142Y-84056904D01*
X337807142Y-83818809D01*
X337759523Y-83723571D01*
X337711904Y-83675952D01*
X337616666Y-83628333D01*
X337426190Y-83628333D01*
X337330952Y-83675952D01*
X337283333Y-83723571D01*
X337235714Y-83818809D01*
X338664285Y-83247380D02*
X338473809Y-83247380D01*
X338378571Y-83295000D01*
X338330952Y-83342619D01*
X338235714Y-83485476D01*
X338188095Y-83675952D01*
X338188095Y-84056904D01*
X338235714Y-84152142D01*
X338283333Y-84199761D01*
X338378571Y-84247380D01*
X338569047Y-84247380D01*
X338664285Y-84199761D01*
X338711904Y-84152142D01*
X338759523Y-84056904D01*
X338759523Y-83818809D01*
X338711904Y-83723571D01*
X338664285Y-83675952D01*
X338569047Y-83628333D01*
X338378571Y-83628333D01*
X338283333Y-83675952D01*
X338235714Y-83723571D01*
X338188095Y-83818809D01*
%TO.C,SW23*%
X163690476Y-103249761D02*
X163833333Y-103297380D01*
X164071428Y-103297380D01*
X164166666Y-103249761D01*
X164214285Y-103202142D01*
X164261904Y-103106904D01*
X164261904Y-103011666D01*
X164214285Y-102916428D01*
X164166666Y-102868809D01*
X164071428Y-102821190D01*
X163880952Y-102773571D01*
X163785714Y-102725952D01*
X163738095Y-102678333D01*
X163690476Y-102583095D01*
X163690476Y-102487857D01*
X163738095Y-102392619D01*
X163785714Y-102345000D01*
X163880952Y-102297380D01*
X164119047Y-102297380D01*
X164261904Y-102345000D01*
X164595238Y-102297380D02*
X164833333Y-103297380D01*
X165023809Y-102583095D01*
X165214285Y-103297380D01*
X165452380Y-102297380D01*
X165785714Y-102392619D02*
X165833333Y-102345000D01*
X165928571Y-102297380D01*
X166166666Y-102297380D01*
X166261904Y-102345000D01*
X166309523Y-102392619D01*
X166357142Y-102487857D01*
X166357142Y-102583095D01*
X166309523Y-102725952D01*
X165738095Y-103297380D01*
X166357142Y-103297380D01*
X166690476Y-102297380D02*
X167309523Y-102297380D01*
X166976190Y-102678333D01*
X167119047Y-102678333D01*
X167214285Y-102725952D01*
X167261904Y-102773571D01*
X167309523Y-102868809D01*
X167309523Y-103106904D01*
X167261904Y-103202142D01*
X167214285Y-103249761D01*
X167119047Y-103297380D01*
X166833333Y-103297380D01*
X166738095Y-103249761D01*
X166690476Y-103202142D01*
%TO.C,R4*%
X327693333Y-172332380D02*
X327360000Y-171856190D01*
X327121904Y-172332380D02*
X327121904Y-171332380D01*
X327502857Y-171332380D01*
X327598095Y-171380000D01*
X327645714Y-171427619D01*
X327693333Y-171522857D01*
X327693333Y-171665714D01*
X327645714Y-171760952D01*
X327598095Y-171808571D01*
X327502857Y-171856190D01*
X327121904Y-171856190D01*
X328550476Y-171665714D02*
X328550476Y-172332380D01*
X328312380Y-171284761D02*
X328074285Y-171999047D01*
X328693333Y-171999047D01*
%TO.C,SW26*%
X363715476Y-122299761D02*
X363858333Y-122347380D01*
X364096428Y-122347380D01*
X364191666Y-122299761D01*
X364239285Y-122252142D01*
X364286904Y-122156904D01*
X364286904Y-122061666D01*
X364239285Y-121966428D01*
X364191666Y-121918809D01*
X364096428Y-121871190D01*
X363905952Y-121823571D01*
X363810714Y-121775952D01*
X363763095Y-121728333D01*
X363715476Y-121633095D01*
X363715476Y-121537857D01*
X363763095Y-121442619D01*
X363810714Y-121395000D01*
X363905952Y-121347380D01*
X364144047Y-121347380D01*
X364286904Y-121395000D01*
X364620238Y-121347380D02*
X364858333Y-122347380D01*
X365048809Y-121633095D01*
X365239285Y-122347380D01*
X365477380Y-121347380D01*
X365810714Y-121442619D02*
X365858333Y-121395000D01*
X365953571Y-121347380D01*
X366191666Y-121347380D01*
X366286904Y-121395000D01*
X366334523Y-121442619D01*
X366382142Y-121537857D01*
X366382142Y-121633095D01*
X366334523Y-121775952D01*
X365763095Y-122347380D01*
X366382142Y-122347380D01*
X367239285Y-121347380D02*
X367048809Y-121347380D01*
X366953571Y-121395000D01*
X366905952Y-121442619D01*
X366810714Y-121585476D01*
X366763095Y-121775952D01*
X366763095Y-122156904D01*
X366810714Y-122252142D01*
X366858333Y-122299761D01*
X366953571Y-122347380D01*
X367144047Y-122347380D01*
X367239285Y-122299761D01*
X367286904Y-122252142D01*
X367334523Y-122156904D01*
X367334523Y-121918809D01*
X367286904Y-121823571D01*
X367239285Y-121775952D01*
X367144047Y-121728333D01*
X366953571Y-121728333D01*
X366858333Y-121775952D01*
X366810714Y-121823571D01*
X366763095Y-121918809D01*
%TO.C,SW32*%
X192265475Y-84199761D02*
X192408332Y-84247380D01*
X192646427Y-84247380D01*
X192741665Y-84199761D01*
X192789284Y-84152142D01*
X192836903Y-84056904D01*
X192836903Y-83961666D01*
X192789284Y-83866428D01*
X192741665Y-83818809D01*
X192646427Y-83771190D01*
X192455951Y-83723571D01*
X192360713Y-83675952D01*
X192313094Y-83628333D01*
X192265475Y-83533095D01*
X192265475Y-83437857D01*
X192313094Y-83342619D01*
X192360713Y-83295000D01*
X192455951Y-83247380D01*
X192694046Y-83247380D01*
X192836903Y-83295000D01*
X193170237Y-83247380D02*
X193408332Y-84247380D01*
X193598808Y-83533095D01*
X193789284Y-84247380D01*
X194027379Y-83247380D01*
X194313094Y-83247380D02*
X194932141Y-83247380D01*
X194598808Y-83628333D01*
X194741665Y-83628333D01*
X194836903Y-83675952D01*
X194884522Y-83723571D01*
X194932141Y-83818809D01*
X194932141Y-84056904D01*
X194884522Y-84152142D01*
X194836903Y-84199761D01*
X194741665Y-84247380D01*
X194455951Y-84247380D01*
X194360713Y-84199761D01*
X194313094Y-84152142D01*
X195313094Y-83342619D02*
X195360713Y-83295000D01*
X195455951Y-83247380D01*
X195694046Y-83247380D01*
X195789284Y-83295000D01*
X195836903Y-83342619D01*
X195884522Y-83437857D01*
X195884522Y-83533095D01*
X195836903Y-83675952D01*
X195265475Y-84247380D01*
X195884522Y-84247380D01*
%TO.C,SW16*%
X127971726Y-160399761D02*
X128114583Y-160447380D01*
X128352678Y-160447380D01*
X128447916Y-160399761D01*
X128495535Y-160352142D01*
X128543154Y-160256904D01*
X128543154Y-160161666D01*
X128495535Y-160066428D01*
X128447916Y-160018809D01*
X128352678Y-159971190D01*
X128162202Y-159923571D01*
X128066964Y-159875952D01*
X128019345Y-159828333D01*
X127971726Y-159733095D01*
X127971726Y-159637857D01*
X128019345Y-159542619D01*
X128066964Y-159495000D01*
X128162202Y-159447380D01*
X128400297Y-159447380D01*
X128543154Y-159495000D01*
X128876488Y-159447380D02*
X129114583Y-160447380D01*
X129305059Y-159733095D01*
X129495535Y-160447380D01*
X129733630Y-159447380D01*
X130638392Y-160447380D02*
X130066964Y-160447380D01*
X130352678Y-160447380D02*
X130352678Y-159447380D01*
X130257440Y-159590238D01*
X130162202Y-159685476D01*
X130066964Y-159733095D01*
X131495535Y-159447380D02*
X131305059Y-159447380D01*
X131209821Y-159495000D01*
X131162202Y-159542619D01*
X131066964Y-159685476D01*
X131019345Y-159875952D01*
X131019345Y-160256904D01*
X131066964Y-160352142D01*
X131114583Y-160399761D01*
X131209821Y-160447380D01*
X131400297Y-160447380D01*
X131495535Y-160399761D01*
X131543154Y-160352142D01*
X131590773Y-160256904D01*
X131590773Y-160018809D01*
X131543154Y-159923571D01*
X131495535Y-159875952D01*
X131400297Y-159828333D01*
X131209821Y-159828333D01*
X131114583Y-159875952D01*
X131066964Y-159923571D01*
X131019345Y-160018809D01*
%TO.C,R3*%
X327693333Y-175542380D02*
X327360000Y-175066190D01*
X327121904Y-175542380D02*
X327121904Y-174542380D01*
X327502857Y-174542380D01*
X327598095Y-174590000D01*
X327645714Y-174637619D01*
X327693333Y-174732857D01*
X327693333Y-174875714D01*
X327645714Y-174970952D01*
X327598095Y-175018571D01*
X327502857Y-175066190D01*
X327121904Y-175066190D01*
X328026666Y-174542380D02*
X328645714Y-174542380D01*
X328312380Y-174923333D01*
X328455238Y-174923333D01*
X328550476Y-174970952D01*
X328598095Y-175018571D01*
X328645714Y-175113809D01*
X328645714Y-175351904D01*
X328598095Y-175447142D01*
X328550476Y-175494761D01*
X328455238Y-175542380D01*
X328169523Y-175542380D01*
X328074285Y-175494761D01*
X328026666Y-175447142D01*
%TO.C,SW28*%
X182740476Y-103249761D02*
X182883333Y-103297380D01*
X183121428Y-103297380D01*
X183216666Y-103249761D01*
X183264285Y-103202142D01*
X183311904Y-103106904D01*
X183311904Y-103011666D01*
X183264285Y-102916428D01*
X183216666Y-102868809D01*
X183121428Y-102821190D01*
X182930952Y-102773571D01*
X182835714Y-102725952D01*
X182788095Y-102678333D01*
X182740476Y-102583095D01*
X182740476Y-102487857D01*
X182788095Y-102392619D01*
X182835714Y-102345000D01*
X182930952Y-102297380D01*
X183169047Y-102297380D01*
X183311904Y-102345000D01*
X183645238Y-102297380D02*
X183883333Y-103297380D01*
X184073809Y-102583095D01*
X184264285Y-103297380D01*
X184502380Y-102297380D01*
X184835714Y-102392619D02*
X184883333Y-102345000D01*
X184978571Y-102297380D01*
X185216666Y-102297380D01*
X185311904Y-102345000D01*
X185359523Y-102392619D01*
X185407142Y-102487857D01*
X185407142Y-102583095D01*
X185359523Y-102725952D01*
X184788095Y-103297380D01*
X185407142Y-103297380D01*
X185978571Y-102725952D02*
X185883333Y-102678333D01*
X185835714Y-102630714D01*
X185788095Y-102535476D01*
X185788095Y-102487857D01*
X185835714Y-102392619D01*
X185883333Y-102345000D01*
X185978571Y-102297380D01*
X186169047Y-102297380D01*
X186264285Y-102345000D01*
X186311904Y-102392619D01*
X186359523Y-102487857D01*
X186359523Y-102535476D01*
X186311904Y-102630714D01*
X186264285Y-102678333D01*
X186169047Y-102725952D01*
X185978571Y-102725952D01*
X185883333Y-102773571D01*
X185835714Y-102821190D01*
X185788095Y-102916428D01*
X185788095Y-103106904D01*
X185835714Y-103202142D01*
X185883333Y-103249761D01*
X185978571Y-103297380D01*
X186169047Y-103297380D01*
X186264285Y-103249761D01*
X186311904Y-103202142D01*
X186359523Y-103106904D01*
X186359523Y-102916428D01*
X186311904Y-102821190D01*
X186264285Y-102773571D01*
X186169047Y-102725952D01*
%TO.C,SW53*%
X282752976Y-122299761D02*
X282895833Y-122347380D01*
X283133928Y-122347380D01*
X283229166Y-122299761D01*
X283276785Y-122252142D01*
X283324404Y-122156904D01*
X283324404Y-122061666D01*
X283276785Y-121966428D01*
X283229166Y-121918809D01*
X283133928Y-121871190D01*
X282943452Y-121823571D01*
X282848214Y-121775952D01*
X282800595Y-121728333D01*
X282752976Y-121633095D01*
X282752976Y-121537857D01*
X282800595Y-121442619D01*
X282848214Y-121395000D01*
X282943452Y-121347380D01*
X283181547Y-121347380D01*
X283324404Y-121395000D01*
X283657738Y-121347380D02*
X283895833Y-122347380D01*
X284086309Y-121633095D01*
X284276785Y-122347380D01*
X284514880Y-121347380D01*
X285372023Y-121347380D02*
X284895833Y-121347380D01*
X284848214Y-121823571D01*
X284895833Y-121775952D01*
X284991071Y-121728333D01*
X285229166Y-121728333D01*
X285324404Y-121775952D01*
X285372023Y-121823571D01*
X285419642Y-121918809D01*
X285419642Y-122156904D01*
X285372023Y-122252142D01*
X285324404Y-122299761D01*
X285229166Y-122347380D01*
X284991071Y-122347380D01*
X284895833Y-122299761D01*
X284848214Y-122252142D01*
X285752976Y-121347380D02*
X286372023Y-121347380D01*
X286038690Y-121728333D01*
X286181547Y-121728333D01*
X286276785Y-121775952D01*
X286324404Y-121823571D01*
X286372023Y-121918809D01*
X286372023Y-122156904D01*
X286324404Y-122252142D01*
X286276785Y-122299761D01*
X286181547Y-122347380D01*
X285895833Y-122347380D01*
X285800595Y-122299761D01*
X285752976Y-122252142D01*
%TO.C,SW58*%
X301802976Y-122299761D02*
X301945833Y-122347380D01*
X302183928Y-122347380D01*
X302279166Y-122299761D01*
X302326785Y-122252142D01*
X302374404Y-122156904D01*
X302374404Y-122061666D01*
X302326785Y-121966428D01*
X302279166Y-121918809D01*
X302183928Y-121871190D01*
X301993452Y-121823571D01*
X301898214Y-121775952D01*
X301850595Y-121728333D01*
X301802976Y-121633095D01*
X301802976Y-121537857D01*
X301850595Y-121442619D01*
X301898214Y-121395000D01*
X301993452Y-121347380D01*
X302231547Y-121347380D01*
X302374404Y-121395000D01*
X302707738Y-121347380D02*
X302945833Y-122347380D01*
X303136309Y-121633095D01*
X303326785Y-122347380D01*
X303564880Y-121347380D01*
X304422023Y-121347380D02*
X303945833Y-121347380D01*
X303898214Y-121823571D01*
X303945833Y-121775952D01*
X304041071Y-121728333D01*
X304279166Y-121728333D01*
X304374404Y-121775952D01*
X304422023Y-121823571D01*
X304469642Y-121918809D01*
X304469642Y-122156904D01*
X304422023Y-122252142D01*
X304374404Y-122299761D01*
X304279166Y-122347380D01*
X304041071Y-122347380D01*
X303945833Y-122299761D01*
X303898214Y-122252142D01*
X305041071Y-121775952D02*
X304945833Y-121728333D01*
X304898214Y-121680714D01*
X304850595Y-121585476D01*
X304850595Y-121537857D01*
X304898214Y-121442619D01*
X304945833Y-121395000D01*
X305041071Y-121347380D01*
X305231547Y-121347380D01*
X305326785Y-121395000D01*
X305374404Y-121442619D01*
X305422023Y-121537857D01*
X305422023Y-121585476D01*
X305374404Y-121680714D01*
X305326785Y-121728333D01*
X305231547Y-121775952D01*
X305041071Y-121775952D01*
X304945833Y-121823571D01*
X304898214Y-121871190D01*
X304850595Y-121966428D01*
X304850595Y-122156904D01*
X304898214Y-122252142D01*
X304945833Y-122299761D01*
X305041071Y-122347380D01*
X305231547Y-122347380D01*
X305326785Y-122299761D01*
X305374404Y-122252142D01*
X305422023Y-122156904D01*
X305422023Y-121966428D01*
X305374404Y-121871190D01*
X305326785Y-121823571D01*
X305231547Y-121775952D01*
%TO.C,SW25*%
X177977976Y-141349761D02*
X178120833Y-141397380D01*
X178358928Y-141397380D01*
X178454166Y-141349761D01*
X178501785Y-141302142D01*
X178549404Y-141206904D01*
X178549404Y-141111666D01*
X178501785Y-141016428D01*
X178454166Y-140968809D01*
X178358928Y-140921190D01*
X178168452Y-140873571D01*
X178073214Y-140825952D01*
X178025595Y-140778333D01*
X177977976Y-140683095D01*
X177977976Y-140587857D01*
X178025595Y-140492619D01*
X178073214Y-140445000D01*
X178168452Y-140397380D01*
X178406547Y-140397380D01*
X178549404Y-140445000D01*
X178882738Y-140397380D02*
X179120833Y-141397380D01*
X179311309Y-140683095D01*
X179501785Y-141397380D01*
X179739880Y-140397380D01*
X180073214Y-140492619D02*
X180120833Y-140445000D01*
X180216071Y-140397380D01*
X180454166Y-140397380D01*
X180549404Y-140445000D01*
X180597023Y-140492619D01*
X180644642Y-140587857D01*
X180644642Y-140683095D01*
X180597023Y-140825952D01*
X180025595Y-141397380D01*
X180644642Y-141397380D01*
X181549404Y-140397380D02*
X181073214Y-140397380D01*
X181025595Y-140873571D01*
X181073214Y-140825952D01*
X181168452Y-140778333D01*
X181406547Y-140778333D01*
X181501785Y-140825952D01*
X181549404Y-140873571D01*
X181597023Y-140968809D01*
X181597023Y-141206904D01*
X181549404Y-141302142D01*
X181501785Y-141349761D01*
X181406547Y-141397380D01*
X181168452Y-141397380D01*
X181073214Y-141349761D01*
X181025595Y-141302142D01*
%TO.C,SW51*%
X268465476Y-84199761D02*
X268608333Y-84247380D01*
X268846428Y-84247380D01*
X268941666Y-84199761D01*
X268989285Y-84152142D01*
X269036904Y-84056904D01*
X269036904Y-83961666D01*
X268989285Y-83866428D01*
X268941666Y-83818809D01*
X268846428Y-83771190D01*
X268655952Y-83723571D01*
X268560714Y-83675952D01*
X268513095Y-83628333D01*
X268465476Y-83533095D01*
X268465476Y-83437857D01*
X268513095Y-83342619D01*
X268560714Y-83295000D01*
X268655952Y-83247380D01*
X268894047Y-83247380D01*
X269036904Y-83295000D01*
X269370238Y-83247380D02*
X269608333Y-84247380D01*
X269798809Y-83533095D01*
X269989285Y-84247380D01*
X270227380Y-83247380D01*
X271084523Y-83247380D02*
X270608333Y-83247380D01*
X270560714Y-83723571D01*
X270608333Y-83675952D01*
X270703571Y-83628333D01*
X270941666Y-83628333D01*
X271036904Y-83675952D01*
X271084523Y-83723571D01*
X271132142Y-83818809D01*
X271132142Y-84056904D01*
X271084523Y-84152142D01*
X271036904Y-84199761D01*
X270941666Y-84247380D01*
X270703571Y-84247380D01*
X270608333Y-84199761D01*
X270560714Y-84152142D01*
X272084523Y-84247380D02*
X271513095Y-84247380D01*
X271798809Y-84247380D02*
X271798809Y-83247380D01*
X271703571Y-83390238D01*
X271608333Y-83485476D01*
X271513095Y-83533095D01*
%TO.C,SW10*%
X120827976Y-141349761D02*
X120970833Y-141397380D01*
X121208928Y-141397380D01*
X121304166Y-141349761D01*
X121351785Y-141302142D01*
X121399404Y-141206904D01*
X121399404Y-141111666D01*
X121351785Y-141016428D01*
X121304166Y-140968809D01*
X121208928Y-140921190D01*
X121018452Y-140873571D01*
X120923214Y-140825952D01*
X120875595Y-140778333D01*
X120827976Y-140683095D01*
X120827976Y-140587857D01*
X120875595Y-140492619D01*
X120923214Y-140445000D01*
X121018452Y-140397380D01*
X121256547Y-140397380D01*
X121399404Y-140445000D01*
X121732738Y-140397380D02*
X121970833Y-141397380D01*
X122161309Y-140683095D01*
X122351785Y-141397380D01*
X122589880Y-140397380D01*
X123494642Y-141397380D02*
X122923214Y-141397380D01*
X123208928Y-141397380D02*
X123208928Y-140397380D01*
X123113690Y-140540238D01*
X123018452Y-140635476D01*
X122923214Y-140683095D01*
X124113690Y-140397380D02*
X124208928Y-140397380D01*
X124304166Y-140445000D01*
X124351785Y-140492619D01*
X124399404Y-140587857D01*
X124447023Y-140778333D01*
X124447023Y-141016428D01*
X124399404Y-141206904D01*
X124351785Y-141302142D01*
X124304166Y-141349761D01*
X124208928Y-141397380D01*
X124113690Y-141397380D01*
X124018452Y-141349761D01*
X123970833Y-141302142D01*
X123923214Y-141206904D01*
X123875595Y-141016428D01*
X123875595Y-140778333D01*
X123923214Y-140587857D01*
X123970833Y-140492619D01*
X124018452Y-140445000D01*
X124113690Y-140397380D01*
%TO.C,U1*%
X197831845Y-162212380D02*
X197831845Y-163021904D01*
X197879464Y-163117142D01*
X197927083Y-163164761D01*
X198022321Y-163212380D01*
X198212797Y-163212380D01*
X198308035Y-163164761D01*
X198355654Y-163117142D01*
X198403273Y-163021904D01*
X198403273Y-162212380D01*
X199403273Y-163212380D02*
X198831845Y-163212380D01*
X199117559Y-163212380D02*
X199117559Y-162212380D01*
X199022321Y-162355238D01*
X198927083Y-162450476D01*
X198831845Y-162498095D01*
%TO.C,SW33*%
X201790476Y-103249761D02*
X201933333Y-103297380D01*
X202171428Y-103297380D01*
X202266666Y-103249761D01*
X202314285Y-103202142D01*
X202361904Y-103106904D01*
X202361904Y-103011666D01*
X202314285Y-102916428D01*
X202266666Y-102868809D01*
X202171428Y-102821190D01*
X201980952Y-102773571D01*
X201885714Y-102725952D01*
X201838095Y-102678333D01*
X201790476Y-102583095D01*
X201790476Y-102487857D01*
X201838095Y-102392619D01*
X201885714Y-102345000D01*
X201980952Y-102297380D01*
X202219047Y-102297380D01*
X202361904Y-102345000D01*
X202695238Y-102297380D02*
X202933333Y-103297380D01*
X203123809Y-102583095D01*
X203314285Y-103297380D01*
X203552380Y-102297380D01*
X203838095Y-102297380D02*
X204457142Y-102297380D01*
X204123809Y-102678333D01*
X204266666Y-102678333D01*
X204361904Y-102725952D01*
X204409523Y-102773571D01*
X204457142Y-102868809D01*
X204457142Y-103106904D01*
X204409523Y-103202142D01*
X204361904Y-103249761D01*
X204266666Y-103297380D01*
X203980952Y-103297380D01*
X203885714Y-103249761D01*
X203838095Y-103202142D01*
X204790476Y-102297380D02*
X205409523Y-102297380D01*
X205076190Y-102678333D01*
X205219047Y-102678333D01*
X205314285Y-102725952D01*
X205361904Y-102773571D01*
X205409523Y-102868809D01*
X205409523Y-103106904D01*
X205361904Y-103202142D01*
X205314285Y-103249761D01*
X205219047Y-103297380D01*
X204933333Y-103297380D01*
X204838095Y-103249761D01*
X204790476Y-103202142D01*
%TO.C,SW21*%
X174409226Y-186399761D02*
X174552083Y-186447380D01*
X174790178Y-186447380D01*
X174885416Y-186399761D01*
X174933035Y-186352142D01*
X174980654Y-186256904D01*
X174980654Y-186161666D01*
X174933035Y-186066428D01*
X174885416Y-186018809D01*
X174790178Y-185971190D01*
X174599702Y-185923571D01*
X174504464Y-185875952D01*
X174456845Y-185828333D01*
X174409226Y-185733095D01*
X174409226Y-185637857D01*
X174456845Y-185542619D01*
X174504464Y-185495000D01*
X174599702Y-185447380D01*
X174837797Y-185447380D01*
X174980654Y-185495000D01*
X175313988Y-185447380D02*
X175552083Y-186447380D01*
X175742559Y-185733095D01*
X175933035Y-186447380D01*
X176171130Y-185447380D01*
X176504464Y-185542619D02*
X176552083Y-185495000D01*
X176647321Y-185447380D01*
X176885416Y-185447380D01*
X176980654Y-185495000D01*
X177028273Y-185542619D01*
X177075892Y-185637857D01*
X177075892Y-185733095D01*
X177028273Y-185875952D01*
X176456845Y-186447380D01*
X177075892Y-186447380D01*
X178028273Y-186447380D02*
X177456845Y-186447380D01*
X177742559Y-186447380D02*
X177742559Y-185447380D01*
X177647321Y-185590238D01*
X177552083Y-185685476D01*
X177456845Y-185733095D01*
%TO.C,SW68*%
X363715476Y-103249761D02*
X363858333Y-103297380D01*
X364096428Y-103297380D01*
X364191666Y-103249761D01*
X364239285Y-103202142D01*
X364286904Y-103106904D01*
X364286904Y-103011666D01*
X364239285Y-102916428D01*
X364191666Y-102868809D01*
X364096428Y-102821190D01*
X363905952Y-102773571D01*
X363810714Y-102725952D01*
X363763095Y-102678333D01*
X363715476Y-102583095D01*
X363715476Y-102487857D01*
X363763095Y-102392619D01*
X363810714Y-102345000D01*
X363905952Y-102297380D01*
X364144047Y-102297380D01*
X364286904Y-102345000D01*
X364620238Y-102297380D02*
X364858333Y-103297380D01*
X365048809Y-102583095D01*
X365239285Y-103297380D01*
X365477380Y-102297380D01*
X366286904Y-102297380D02*
X366096428Y-102297380D01*
X366001190Y-102345000D01*
X365953571Y-102392619D01*
X365858333Y-102535476D01*
X365810714Y-102725952D01*
X365810714Y-103106904D01*
X365858333Y-103202142D01*
X365905952Y-103249761D01*
X366001190Y-103297380D01*
X366191666Y-103297380D01*
X366286904Y-103249761D01*
X366334523Y-103202142D01*
X366382142Y-103106904D01*
X366382142Y-102868809D01*
X366334523Y-102773571D01*
X366286904Y-102725952D01*
X366191666Y-102678333D01*
X366001190Y-102678333D01*
X365905952Y-102725952D01*
X365858333Y-102773571D01*
X365810714Y-102868809D01*
X366953571Y-102725952D02*
X366858333Y-102678333D01*
X366810714Y-102630714D01*
X366763095Y-102535476D01*
X366763095Y-102487857D01*
X366810714Y-102392619D01*
X366858333Y-102345000D01*
X366953571Y-102297380D01*
X367144047Y-102297380D01*
X367239285Y-102345000D01*
X367286904Y-102392619D01*
X367334523Y-102487857D01*
X367334523Y-102535476D01*
X367286904Y-102630714D01*
X367239285Y-102678333D01*
X367144047Y-102725952D01*
X366953571Y-102725952D01*
X366858333Y-102773571D01*
X366810714Y-102821190D01*
X366763095Y-102916428D01*
X366763095Y-103106904D01*
X366810714Y-103202142D01*
X366858333Y-103249761D01*
X366953571Y-103297380D01*
X367144047Y-103297380D01*
X367239285Y-103249761D01*
X367286904Y-103202142D01*
X367334523Y-103106904D01*
X367334523Y-102916428D01*
X367286904Y-102821190D01*
X367239285Y-102773571D01*
X367144047Y-102725952D01*
%TO.C,SW31*%
X199409226Y-160399761D02*
X199552083Y-160447380D01*
X199790178Y-160447380D01*
X199885416Y-160399761D01*
X199933035Y-160352142D01*
X199980654Y-160256904D01*
X199980654Y-160161666D01*
X199933035Y-160066428D01*
X199885416Y-160018809D01*
X199790178Y-159971190D01*
X199599702Y-159923571D01*
X199504464Y-159875952D01*
X199456845Y-159828333D01*
X199409226Y-159733095D01*
X199409226Y-159637857D01*
X199456845Y-159542619D01*
X199504464Y-159495000D01*
X199599702Y-159447380D01*
X199837797Y-159447380D01*
X199980654Y-159495000D01*
X200313988Y-159447380D02*
X200552083Y-160447380D01*
X200742559Y-159733095D01*
X200933035Y-160447380D01*
X201171130Y-159447380D01*
X201456845Y-159447380D02*
X202075892Y-159447380D01*
X201742559Y-159828333D01*
X201885416Y-159828333D01*
X201980654Y-159875952D01*
X202028273Y-159923571D01*
X202075892Y-160018809D01*
X202075892Y-160256904D01*
X202028273Y-160352142D01*
X201980654Y-160399761D01*
X201885416Y-160447380D01*
X201599702Y-160447380D01*
X201504464Y-160399761D01*
X201456845Y-160352142D01*
X203028273Y-160447380D02*
X202456845Y-160447380D01*
X202742559Y-160447380D02*
X202742559Y-159447380D01*
X202647321Y-159590238D01*
X202552083Y-159685476D01*
X202456845Y-159733095D01*
%TO.C,SW42*%
X239890476Y-103249761D02*
X240033333Y-103297380D01*
X240271428Y-103297380D01*
X240366666Y-103249761D01*
X240414285Y-103202142D01*
X240461904Y-103106904D01*
X240461904Y-103011666D01*
X240414285Y-102916428D01*
X240366666Y-102868809D01*
X240271428Y-102821190D01*
X240080952Y-102773571D01*
X239985714Y-102725952D01*
X239938095Y-102678333D01*
X239890476Y-102583095D01*
X239890476Y-102487857D01*
X239938095Y-102392619D01*
X239985714Y-102345000D01*
X240080952Y-102297380D01*
X240319047Y-102297380D01*
X240461904Y-102345000D01*
X240795238Y-102297380D02*
X241033333Y-103297380D01*
X241223809Y-102583095D01*
X241414285Y-103297380D01*
X241652380Y-102297380D01*
X242461904Y-102630714D02*
X242461904Y-103297380D01*
X242223809Y-102249761D02*
X241985714Y-102964047D01*
X242604761Y-102964047D01*
X242938095Y-102392619D02*
X242985714Y-102345000D01*
X243080952Y-102297380D01*
X243319047Y-102297380D01*
X243414285Y-102345000D01*
X243461904Y-102392619D01*
X243509523Y-102487857D01*
X243509523Y-102583095D01*
X243461904Y-102725952D01*
X242890476Y-103297380D01*
X243509523Y-103297380D01*
%TO.C,SW4*%
X85585416Y-122299761D02*
X85728273Y-122347380D01*
X85966369Y-122347380D01*
X86061607Y-122299761D01*
X86109226Y-122252142D01*
X86156845Y-122156904D01*
X86156845Y-122061666D01*
X86109226Y-121966428D01*
X86061607Y-121918809D01*
X85966369Y-121871190D01*
X85775892Y-121823571D01*
X85680654Y-121775952D01*
X85633035Y-121728333D01*
X85585416Y-121633095D01*
X85585416Y-121537857D01*
X85633035Y-121442619D01*
X85680654Y-121395000D01*
X85775892Y-121347380D01*
X86013988Y-121347380D01*
X86156845Y-121395000D01*
X86490178Y-121347380D02*
X86728273Y-122347380D01*
X86918750Y-121633095D01*
X87109226Y-122347380D01*
X87347321Y-121347380D01*
X88156845Y-121680714D02*
X88156845Y-122347380D01*
X87918750Y-121299761D02*
X87680654Y-122014047D01*
X88299702Y-122014047D01*
%TO.C,SW59*%
X327996726Y-141349761D02*
X328139583Y-141397380D01*
X328377678Y-141397380D01*
X328472916Y-141349761D01*
X328520535Y-141302142D01*
X328568154Y-141206904D01*
X328568154Y-141111666D01*
X328520535Y-141016428D01*
X328472916Y-140968809D01*
X328377678Y-140921190D01*
X328187202Y-140873571D01*
X328091964Y-140825952D01*
X328044345Y-140778333D01*
X327996726Y-140683095D01*
X327996726Y-140587857D01*
X328044345Y-140492619D01*
X328091964Y-140445000D01*
X328187202Y-140397380D01*
X328425297Y-140397380D01*
X328568154Y-140445000D01*
X328901488Y-140397380D02*
X329139583Y-141397380D01*
X329330059Y-140683095D01*
X329520535Y-141397380D01*
X329758630Y-140397380D01*
X330615773Y-140397380D02*
X330139583Y-140397380D01*
X330091964Y-140873571D01*
X330139583Y-140825952D01*
X330234821Y-140778333D01*
X330472916Y-140778333D01*
X330568154Y-140825952D01*
X330615773Y-140873571D01*
X330663392Y-140968809D01*
X330663392Y-141206904D01*
X330615773Y-141302142D01*
X330568154Y-141349761D01*
X330472916Y-141397380D01*
X330234821Y-141397380D01*
X330139583Y-141349761D01*
X330091964Y-141302142D01*
X331139583Y-141397380D02*
X331330059Y-141397380D01*
X331425297Y-141349761D01*
X331472916Y-141302142D01*
X331568154Y-141159285D01*
X331615773Y-140968809D01*
X331615773Y-140587857D01*
X331568154Y-140492619D01*
X331520535Y-140445000D01*
X331425297Y-140397380D01*
X331234821Y-140397380D01*
X331139583Y-140445000D01*
X331091964Y-140492619D01*
X331044345Y-140587857D01*
X331044345Y-140825952D01*
X331091964Y-140921190D01*
X331139583Y-140968809D01*
X331234821Y-141016428D01*
X331425297Y-141016428D01*
X331520535Y-140968809D01*
X331568154Y-140921190D01*
X331615773Y-140825952D01*
%TO.C,SW15*%
X139877976Y-141349761D02*
X140020833Y-141397380D01*
X140258928Y-141397380D01*
X140354166Y-141349761D01*
X140401785Y-141302142D01*
X140449404Y-141206904D01*
X140449404Y-141111666D01*
X140401785Y-141016428D01*
X140354166Y-140968809D01*
X140258928Y-140921190D01*
X140068452Y-140873571D01*
X139973214Y-140825952D01*
X139925595Y-140778333D01*
X139877976Y-140683095D01*
X139877976Y-140587857D01*
X139925595Y-140492619D01*
X139973214Y-140445000D01*
X140068452Y-140397380D01*
X140306547Y-140397380D01*
X140449404Y-140445000D01*
X140782738Y-140397380D02*
X141020833Y-141397380D01*
X141211309Y-140683095D01*
X141401785Y-141397380D01*
X141639880Y-140397380D01*
X142544642Y-141397380D02*
X141973214Y-141397380D01*
X142258928Y-141397380D02*
X142258928Y-140397380D01*
X142163690Y-140540238D01*
X142068452Y-140635476D01*
X141973214Y-140683095D01*
X143449404Y-140397380D02*
X142973214Y-140397380D01*
X142925595Y-140873571D01*
X142973214Y-140825952D01*
X143068452Y-140778333D01*
X143306547Y-140778333D01*
X143401785Y-140825952D01*
X143449404Y-140873571D01*
X143497023Y-140968809D01*
X143497023Y-141206904D01*
X143449404Y-141302142D01*
X143401785Y-141349761D01*
X143306547Y-141397380D01*
X143068452Y-141397380D01*
X142973214Y-141349761D01*
X142925595Y-141302142D01*
%TO.C,SW35*%
X216077976Y-141349761D02*
X216220833Y-141397380D01*
X216458928Y-141397380D01*
X216554166Y-141349761D01*
X216601785Y-141302142D01*
X216649404Y-141206904D01*
X216649404Y-141111666D01*
X216601785Y-141016428D01*
X216554166Y-140968809D01*
X216458928Y-140921190D01*
X216268452Y-140873571D01*
X216173214Y-140825952D01*
X216125595Y-140778333D01*
X216077976Y-140683095D01*
X216077976Y-140587857D01*
X216125595Y-140492619D01*
X216173214Y-140445000D01*
X216268452Y-140397380D01*
X216506547Y-140397380D01*
X216649404Y-140445000D01*
X216982738Y-140397380D02*
X217220833Y-141397380D01*
X217411309Y-140683095D01*
X217601785Y-141397380D01*
X217839880Y-140397380D01*
X218125595Y-140397380D02*
X218744642Y-140397380D01*
X218411309Y-140778333D01*
X218554166Y-140778333D01*
X218649404Y-140825952D01*
X218697023Y-140873571D01*
X218744642Y-140968809D01*
X218744642Y-141206904D01*
X218697023Y-141302142D01*
X218649404Y-141349761D01*
X218554166Y-141397380D01*
X218268452Y-141397380D01*
X218173214Y-141349761D01*
X218125595Y-141302142D01*
X219649404Y-140397380D02*
X219173214Y-140397380D01*
X219125595Y-140873571D01*
X219173214Y-140825952D01*
X219268452Y-140778333D01*
X219506547Y-140778333D01*
X219601785Y-140825952D01*
X219649404Y-140873571D01*
X219697023Y-140968809D01*
X219697023Y-141206904D01*
X219649404Y-141302142D01*
X219601785Y-141349761D01*
X219506547Y-141397380D01*
X219268452Y-141397380D01*
X219173214Y-141349761D01*
X219125595Y-141302142D01*
%TO.C,SW29*%
X187502975Y-122299761D02*
X187645832Y-122347380D01*
X187883927Y-122347380D01*
X187979165Y-122299761D01*
X188026784Y-122252142D01*
X188074403Y-122156904D01*
X188074403Y-122061666D01*
X188026784Y-121966428D01*
X187979165Y-121918809D01*
X187883927Y-121871190D01*
X187693451Y-121823571D01*
X187598213Y-121775952D01*
X187550594Y-121728333D01*
X187502975Y-121633095D01*
X187502975Y-121537857D01*
X187550594Y-121442619D01*
X187598213Y-121395000D01*
X187693451Y-121347380D01*
X187931546Y-121347380D01*
X188074403Y-121395000D01*
X188407737Y-121347380D02*
X188645832Y-122347380D01*
X188836308Y-121633095D01*
X189026784Y-122347380D01*
X189264879Y-121347380D01*
X189598213Y-121442619D02*
X189645832Y-121395000D01*
X189741070Y-121347380D01*
X189979165Y-121347380D01*
X190074403Y-121395000D01*
X190122022Y-121442619D01*
X190169641Y-121537857D01*
X190169641Y-121633095D01*
X190122022Y-121775952D01*
X189550594Y-122347380D01*
X190169641Y-122347380D01*
X190645832Y-122347380D02*
X190836308Y-122347380D01*
X190931546Y-122299761D01*
X190979165Y-122252142D01*
X191074403Y-122109285D01*
X191122022Y-121918809D01*
X191122022Y-121537857D01*
X191074403Y-121442619D01*
X191026784Y-121395000D01*
X190931546Y-121347380D01*
X190741070Y-121347380D01*
X190645832Y-121395000D01*
X190598213Y-121442619D01*
X190550594Y-121537857D01*
X190550594Y-121775952D01*
X190598213Y-121871190D01*
X190645832Y-121918809D01*
X190741070Y-121966428D01*
X190931546Y-121966428D01*
X191026784Y-121918809D01*
X191074403Y-121871190D01*
X191122022Y-121775952D01*
%TO.C,SW43*%
X244652976Y-122299761D02*
X244795833Y-122347380D01*
X245033928Y-122347380D01*
X245129166Y-122299761D01*
X245176785Y-122252142D01*
X245224404Y-122156904D01*
X245224404Y-122061666D01*
X245176785Y-121966428D01*
X245129166Y-121918809D01*
X245033928Y-121871190D01*
X244843452Y-121823571D01*
X244748214Y-121775952D01*
X244700595Y-121728333D01*
X244652976Y-121633095D01*
X244652976Y-121537857D01*
X244700595Y-121442619D01*
X244748214Y-121395000D01*
X244843452Y-121347380D01*
X245081547Y-121347380D01*
X245224404Y-121395000D01*
X245557738Y-121347380D02*
X245795833Y-122347380D01*
X245986309Y-121633095D01*
X246176785Y-122347380D01*
X246414880Y-121347380D01*
X247224404Y-121680714D02*
X247224404Y-122347380D01*
X246986309Y-121299761D02*
X246748214Y-122014047D01*
X247367261Y-122014047D01*
X247652976Y-121347380D02*
X248272023Y-121347380D01*
X247938690Y-121728333D01*
X248081547Y-121728333D01*
X248176785Y-121775952D01*
X248224404Y-121823571D01*
X248272023Y-121918809D01*
X248272023Y-122156904D01*
X248224404Y-122252142D01*
X248176785Y-122299761D01*
X248081547Y-122347380D01*
X247795833Y-122347380D01*
X247700595Y-122299761D01*
X247652976Y-122252142D01*
%TO.C,SW34*%
X206552975Y-122299761D02*
X206695832Y-122347380D01*
X206933927Y-122347380D01*
X207029165Y-122299761D01*
X207076784Y-122252142D01*
X207124403Y-122156904D01*
X207124403Y-122061666D01*
X207076784Y-121966428D01*
X207029165Y-121918809D01*
X206933927Y-121871190D01*
X206743451Y-121823571D01*
X206648213Y-121775952D01*
X206600594Y-121728333D01*
X206552975Y-121633095D01*
X206552975Y-121537857D01*
X206600594Y-121442619D01*
X206648213Y-121395000D01*
X206743451Y-121347380D01*
X206981546Y-121347380D01*
X207124403Y-121395000D01*
X207457737Y-121347380D02*
X207695832Y-122347380D01*
X207886308Y-121633095D01*
X208076784Y-122347380D01*
X208314879Y-121347380D01*
X208600594Y-121347380D02*
X209219641Y-121347380D01*
X208886308Y-121728333D01*
X209029165Y-121728333D01*
X209124403Y-121775952D01*
X209172022Y-121823571D01*
X209219641Y-121918809D01*
X209219641Y-122156904D01*
X209172022Y-122252142D01*
X209124403Y-122299761D01*
X209029165Y-122347380D01*
X208743451Y-122347380D01*
X208648213Y-122299761D01*
X208600594Y-122252142D01*
X210076784Y-121680714D02*
X210076784Y-122347380D01*
X209838689Y-121299761D02*
X209600594Y-122014047D01*
X210219641Y-122014047D01*
%TO.C,SW11*%
X104159226Y-160399761D02*
X104302083Y-160447380D01*
X104540178Y-160447380D01*
X104635416Y-160399761D01*
X104683035Y-160352142D01*
X104730654Y-160256904D01*
X104730654Y-160161666D01*
X104683035Y-160066428D01*
X104635416Y-160018809D01*
X104540178Y-159971190D01*
X104349702Y-159923571D01*
X104254464Y-159875952D01*
X104206845Y-159828333D01*
X104159226Y-159733095D01*
X104159226Y-159637857D01*
X104206845Y-159542619D01*
X104254464Y-159495000D01*
X104349702Y-159447380D01*
X104587797Y-159447380D01*
X104730654Y-159495000D01*
X105063988Y-159447380D02*
X105302083Y-160447380D01*
X105492559Y-159733095D01*
X105683035Y-160447380D01*
X105921130Y-159447380D01*
X106825892Y-160447380D02*
X106254464Y-160447380D01*
X106540178Y-160447380D02*
X106540178Y-159447380D01*
X106444940Y-159590238D01*
X106349702Y-159685476D01*
X106254464Y-159733095D01*
X107778273Y-160447380D02*
X107206845Y-160447380D01*
X107492559Y-160447380D02*
X107492559Y-159447380D01*
X107397321Y-159590238D01*
X107302083Y-159685476D01*
X107206845Y-159733095D01*
%TO.C,SW2*%
X78441666Y-84199761D02*
X78584523Y-84247380D01*
X78822619Y-84247380D01*
X78917857Y-84199761D01*
X78965476Y-84152142D01*
X79013095Y-84056904D01*
X79013095Y-83961666D01*
X78965476Y-83866428D01*
X78917857Y-83818809D01*
X78822619Y-83771190D01*
X78632142Y-83723571D01*
X78536904Y-83675952D01*
X78489285Y-83628333D01*
X78441666Y-83533095D01*
X78441666Y-83437857D01*
X78489285Y-83342619D01*
X78536904Y-83295000D01*
X78632142Y-83247380D01*
X78870238Y-83247380D01*
X79013095Y-83295000D01*
X79346428Y-83247380D02*
X79584523Y-84247380D01*
X79775000Y-83533095D01*
X79965476Y-84247380D01*
X80203571Y-83247380D01*
X80536904Y-83342619D02*
X80584523Y-83295000D01*
X80679761Y-83247380D01*
X80917857Y-83247380D01*
X81013095Y-83295000D01*
X81060714Y-83342619D01*
X81108333Y-83437857D01*
X81108333Y-83533095D01*
X81060714Y-83675952D01*
X80489285Y-84247380D01*
X81108333Y-84247380D01*
%TO.C,SW44*%
X254177976Y-141349761D02*
X254320833Y-141397380D01*
X254558928Y-141397380D01*
X254654166Y-141349761D01*
X254701785Y-141302142D01*
X254749404Y-141206904D01*
X254749404Y-141111666D01*
X254701785Y-141016428D01*
X254654166Y-140968809D01*
X254558928Y-140921190D01*
X254368452Y-140873571D01*
X254273214Y-140825952D01*
X254225595Y-140778333D01*
X254177976Y-140683095D01*
X254177976Y-140587857D01*
X254225595Y-140492619D01*
X254273214Y-140445000D01*
X254368452Y-140397380D01*
X254606547Y-140397380D01*
X254749404Y-140445000D01*
X255082738Y-140397380D02*
X255320833Y-141397380D01*
X255511309Y-140683095D01*
X255701785Y-141397380D01*
X255939880Y-140397380D01*
X256749404Y-140730714D02*
X256749404Y-141397380D01*
X256511309Y-140349761D02*
X256273214Y-141064047D01*
X256892261Y-141064047D01*
X257701785Y-140730714D02*
X257701785Y-141397380D01*
X257463690Y-140349761D02*
X257225595Y-141064047D01*
X257844642Y-141064047D01*
%TO.C,SW24*%
X168452975Y-122299761D02*
X168595832Y-122347380D01*
X168833927Y-122347380D01*
X168929165Y-122299761D01*
X168976784Y-122252142D01*
X169024403Y-122156904D01*
X169024403Y-122061666D01*
X168976784Y-121966428D01*
X168929165Y-121918809D01*
X168833927Y-121871190D01*
X168643451Y-121823571D01*
X168548213Y-121775952D01*
X168500594Y-121728333D01*
X168452975Y-121633095D01*
X168452975Y-121537857D01*
X168500594Y-121442619D01*
X168548213Y-121395000D01*
X168643451Y-121347380D01*
X168881546Y-121347380D01*
X169024403Y-121395000D01*
X169357737Y-121347380D02*
X169595832Y-122347380D01*
X169786308Y-121633095D01*
X169976784Y-122347380D01*
X170214879Y-121347380D01*
X170548213Y-121442619D02*
X170595832Y-121395000D01*
X170691070Y-121347380D01*
X170929165Y-121347380D01*
X171024403Y-121395000D01*
X171072022Y-121442619D01*
X171119641Y-121537857D01*
X171119641Y-121633095D01*
X171072022Y-121775952D01*
X170500594Y-122347380D01*
X171119641Y-122347380D01*
X171976784Y-121680714D02*
X171976784Y-122347380D01*
X171738689Y-121299761D02*
X171500594Y-122014047D01*
X172119641Y-122014047D01*
%TO.C,SW54*%
X292277976Y-141349761D02*
X292420833Y-141397380D01*
X292658928Y-141397380D01*
X292754166Y-141349761D01*
X292801785Y-141302142D01*
X292849404Y-141206904D01*
X292849404Y-141111666D01*
X292801785Y-141016428D01*
X292754166Y-140968809D01*
X292658928Y-140921190D01*
X292468452Y-140873571D01*
X292373214Y-140825952D01*
X292325595Y-140778333D01*
X292277976Y-140683095D01*
X292277976Y-140587857D01*
X292325595Y-140492619D01*
X292373214Y-140445000D01*
X292468452Y-140397380D01*
X292706547Y-140397380D01*
X292849404Y-140445000D01*
X293182738Y-140397380D02*
X293420833Y-141397380D01*
X293611309Y-140683095D01*
X293801785Y-141397380D01*
X294039880Y-140397380D01*
X294897023Y-140397380D02*
X294420833Y-140397380D01*
X294373214Y-140873571D01*
X294420833Y-140825952D01*
X294516071Y-140778333D01*
X294754166Y-140778333D01*
X294849404Y-140825952D01*
X294897023Y-140873571D01*
X294944642Y-140968809D01*
X294944642Y-141206904D01*
X294897023Y-141302142D01*
X294849404Y-141349761D01*
X294754166Y-141397380D01*
X294516071Y-141397380D01*
X294420833Y-141349761D01*
X294373214Y-141302142D01*
X295801785Y-140730714D02*
X295801785Y-141397380D01*
X295563690Y-140349761D02*
X295325595Y-141064047D01*
X295944642Y-141064047D01*
%TO.C,SW3*%
X83204166Y-103249761D02*
X83347023Y-103297380D01*
X83585119Y-103297380D01*
X83680357Y-103249761D01*
X83727976Y-103202142D01*
X83775595Y-103106904D01*
X83775595Y-103011666D01*
X83727976Y-102916428D01*
X83680357Y-102868809D01*
X83585119Y-102821190D01*
X83394642Y-102773571D01*
X83299404Y-102725952D01*
X83251785Y-102678333D01*
X83204166Y-102583095D01*
X83204166Y-102487857D01*
X83251785Y-102392619D01*
X83299404Y-102345000D01*
X83394642Y-102297380D01*
X83632738Y-102297380D01*
X83775595Y-102345000D01*
X84108928Y-102297380D02*
X84347023Y-103297380D01*
X84537500Y-102583095D01*
X84727976Y-103297380D01*
X84966071Y-102297380D01*
X85251785Y-102297380D02*
X85870833Y-102297380D01*
X85537500Y-102678333D01*
X85680357Y-102678333D01*
X85775595Y-102725952D01*
X85823214Y-102773571D01*
X85870833Y-102868809D01*
X85870833Y-103106904D01*
X85823214Y-103202142D01*
X85775595Y-103249761D01*
X85680357Y-103297380D01*
X85394642Y-103297380D01*
X85299404Y-103249761D01*
X85251785Y-103202142D01*
%TO.C,SW30*%
X197027976Y-141349761D02*
X197170833Y-141397380D01*
X197408928Y-141397380D01*
X197504166Y-141349761D01*
X197551785Y-141302142D01*
X197599404Y-141206904D01*
X197599404Y-141111666D01*
X197551785Y-141016428D01*
X197504166Y-140968809D01*
X197408928Y-140921190D01*
X197218452Y-140873571D01*
X197123214Y-140825952D01*
X197075595Y-140778333D01*
X197027976Y-140683095D01*
X197027976Y-140587857D01*
X197075595Y-140492619D01*
X197123214Y-140445000D01*
X197218452Y-140397380D01*
X197456547Y-140397380D01*
X197599404Y-140445000D01*
X197932738Y-140397380D02*
X198170833Y-141397380D01*
X198361309Y-140683095D01*
X198551785Y-141397380D01*
X198789880Y-140397380D01*
X199075595Y-140397380D02*
X199694642Y-140397380D01*
X199361309Y-140778333D01*
X199504166Y-140778333D01*
X199599404Y-140825952D01*
X199647023Y-140873571D01*
X199694642Y-140968809D01*
X199694642Y-141206904D01*
X199647023Y-141302142D01*
X199599404Y-141349761D01*
X199504166Y-141397380D01*
X199218452Y-141397380D01*
X199123214Y-141349761D01*
X199075595Y-141302142D01*
X200313690Y-140397380D02*
X200408928Y-140397380D01*
X200504166Y-140445000D01*
X200551785Y-140492619D01*
X200599404Y-140587857D01*
X200647023Y-140778333D01*
X200647023Y-141016428D01*
X200599404Y-141206904D01*
X200551785Y-141302142D01*
X200504166Y-141349761D01*
X200408928Y-141397380D01*
X200313690Y-141397380D01*
X200218452Y-141349761D01*
X200170833Y-141302142D01*
X200123214Y-141206904D01*
X200075595Y-141016428D01*
X200075595Y-140778333D01*
X200123214Y-140587857D01*
X200170833Y-140492619D01*
X200218452Y-140445000D01*
X200313690Y-140397380D01*
%TO.C,SW22*%
X154165476Y-84199761D02*
X154308333Y-84247380D01*
X154546428Y-84247380D01*
X154641666Y-84199761D01*
X154689285Y-84152142D01*
X154736904Y-84056904D01*
X154736904Y-83961666D01*
X154689285Y-83866428D01*
X154641666Y-83818809D01*
X154546428Y-83771190D01*
X154355952Y-83723571D01*
X154260714Y-83675952D01*
X154213095Y-83628333D01*
X154165476Y-83533095D01*
X154165476Y-83437857D01*
X154213095Y-83342619D01*
X154260714Y-83295000D01*
X154355952Y-83247380D01*
X154594047Y-83247380D01*
X154736904Y-83295000D01*
X155070238Y-83247380D02*
X155308333Y-84247380D01*
X155498809Y-83533095D01*
X155689285Y-84247380D01*
X155927380Y-83247380D01*
X156260714Y-83342619D02*
X156308333Y-83295000D01*
X156403571Y-83247380D01*
X156641666Y-83247380D01*
X156736904Y-83295000D01*
X156784523Y-83342619D01*
X156832142Y-83437857D01*
X156832142Y-83533095D01*
X156784523Y-83675952D01*
X156213095Y-84247380D01*
X156832142Y-84247380D01*
X157213095Y-83342619D02*
X157260714Y-83295000D01*
X157355952Y-83247380D01*
X157594047Y-83247380D01*
X157689285Y-83295000D01*
X157736904Y-83342619D01*
X157784523Y-83437857D01*
X157784523Y-83533095D01*
X157736904Y-83675952D01*
X157165476Y-84247380D01*
X157784523Y-84247380D01*
%TO.C,SW6*%
X80822916Y-160399761D02*
X80965773Y-160447380D01*
X81203869Y-160447380D01*
X81299107Y-160399761D01*
X81346726Y-160352142D01*
X81394345Y-160256904D01*
X81394345Y-160161666D01*
X81346726Y-160066428D01*
X81299107Y-160018809D01*
X81203869Y-159971190D01*
X81013392Y-159923571D01*
X80918154Y-159875952D01*
X80870535Y-159828333D01*
X80822916Y-159733095D01*
X80822916Y-159637857D01*
X80870535Y-159542619D01*
X80918154Y-159495000D01*
X81013392Y-159447380D01*
X81251488Y-159447380D01*
X81394345Y-159495000D01*
X81727678Y-159447380D02*
X81965773Y-160447380D01*
X82156250Y-159733095D01*
X82346726Y-160447380D01*
X82584821Y-159447380D01*
X83394345Y-159447380D02*
X83203869Y-159447380D01*
X83108630Y-159495000D01*
X83061011Y-159542619D01*
X82965773Y-159685476D01*
X82918154Y-159875952D01*
X82918154Y-160256904D01*
X82965773Y-160352142D01*
X83013392Y-160399761D01*
X83108630Y-160447380D01*
X83299107Y-160447380D01*
X83394345Y-160399761D01*
X83441964Y-160352142D01*
X83489583Y-160256904D01*
X83489583Y-160018809D01*
X83441964Y-159923571D01*
X83394345Y-159875952D01*
X83299107Y-159828333D01*
X83108630Y-159828333D01*
X83013392Y-159875952D01*
X82965773Y-159923571D01*
X82918154Y-160018809D01*
%TO.C,SW55*%
X363715476Y-141349761D02*
X363858333Y-141397380D01*
X364096428Y-141397380D01*
X364191666Y-141349761D01*
X364239285Y-141302142D01*
X364286904Y-141206904D01*
X364286904Y-141111666D01*
X364239285Y-141016428D01*
X364191666Y-140968809D01*
X364096428Y-140921190D01*
X363905952Y-140873571D01*
X363810714Y-140825952D01*
X363763095Y-140778333D01*
X363715476Y-140683095D01*
X363715476Y-140587857D01*
X363763095Y-140492619D01*
X363810714Y-140445000D01*
X363905952Y-140397380D01*
X364144047Y-140397380D01*
X364286904Y-140445000D01*
X364620238Y-140397380D02*
X364858333Y-141397380D01*
X365048809Y-140683095D01*
X365239285Y-141397380D01*
X365477380Y-140397380D01*
X366334523Y-140397380D02*
X365858333Y-140397380D01*
X365810714Y-140873571D01*
X365858333Y-140825952D01*
X365953571Y-140778333D01*
X366191666Y-140778333D01*
X366286904Y-140825952D01*
X366334523Y-140873571D01*
X366382142Y-140968809D01*
X366382142Y-141206904D01*
X366334523Y-141302142D01*
X366286904Y-141349761D01*
X366191666Y-141397380D01*
X365953571Y-141397380D01*
X365858333Y-141349761D01*
X365810714Y-141302142D01*
X367286904Y-140397380D02*
X366810714Y-140397380D01*
X366763095Y-140873571D01*
X366810714Y-140825952D01*
X366905952Y-140778333D01*
X367144047Y-140778333D01*
X367239285Y-140825952D01*
X367286904Y-140873571D01*
X367334523Y-140968809D01*
X367334523Y-141206904D01*
X367286904Y-141302142D01*
X367239285Y-141349761D01*
X367144047Y-141397380D01*
X366905952Y-141397380D01*
X366810714Y-141349761D01*
X366763095Y-141302142D01*
%TO.C,SW9*%
X111779166Y-122299761D02*
X111922023Y-122347380D01*
X112160119Y-122347380D01*
X112255357Y-122299761D01*
X112302976Y-122252142D01*
X112350595Y-122156904D01*
X112350595Y-122061666D01*
X112302976Y-121966428D01*
X112255357Y-121918809D01*
X112160119Y-121871190D01*
X111969642Y-121823571D01*
X111874404Y-121775952D01*
X111826785Y-121728333D01*
X111779166Y-121633095D01*
X111779166Y-121537857D01*
X111826785Y-121442619D01*
X111874404Y-121395000D01*
X111969642Y-121347380D01*
X112207738Y-121347380D01*
X112350595Y-121395000D01*
X112683928Y-121347380D02*
X112922023Y-122347380D01*
X113112500Y-121633095D01*
X113302976Y-122347380D01*
X113541071Y-121347380D01*
X113969642Y-122347380D02*
X114160119Y-122347380D01*
X114255357Y-122299761D01*
X114302976Y-122252142D01*
X114398214Y-122109285D01*
X114445833Y-121918809D01*
X114445833Y-121537857D01*
X114398214Y-121442619D01*
X114350595Y-121395000D01*
X114255357Y-121347380D01*
X114064880Y-121347380D01*
X113969642Y-121395000D01*
X113922023Y-121442619D01*
X113874404Y-121537857D01*
X113874404Y-121775952D01*
X113922023Y-121871190D01*
X113969642Y-121918809D01*
X114064880Y-121966428D01*
X114255357Y-121966428D01*
X114350595Y-121918809D01*
X114398214Y-121871190D01*
X114445833Y-121775952D01*
%TO.C,SW13*%
X125590476Y-103249761D02*
X125733333Y-103297380D01*
X125971428Y-103297380D01*
X126066666Y-103249761D01*
X126114285Y-103202142D01*
X126161904Y-103106904D01*
X126161904Y-103011666D01*
X126114285Y-102916428D01*
X126066666Y-102868809D01*
X125971428Y-102821190D01*
X125780952Y-102773571D01*
X125685714Y-102725952D01*
X125638095Y-102678333D01*
X125590476Y-102583095D01*
X125590476Y-102487857D01*
X125638095Y-102392619D01*
X125685714Y-102345000D01*
X125780952Y-102297380D01*
X126019047Y-102297380D01*
X126161904Y-102345000D01*
X126495238Y-102297380D02*
X126733333Y-103297380D01*
X126923809Y-102583095D01*
X127114285Y-103297380D01*
X127352380Y-102297380D01*
X128257142Y-103297380D02*
X127685714Y-103297380D01*
X127971428Y-103297380D02*
X127971428Y-102297380D01*
X127876190Y-102440238D01*
X127780952Y-102535476D01*
X127685714Y-102583095D01*
X128590476Y-102297380D02*
X129209523Y-102297380D01*
X128876190Y-102678333D01*
X129019047Y-102678333D01*
X129114285Y-102725952D01*
X129161904Y-102773571D01*
X129209523Y-102868809D01*
X129209523Y-103106904D01*
X129161904Y-103202142D01*
X129114285Y-103249761D01*
X129019047Y-103297380D01*
X128733333Y-103297380D01*
X128638095Y-103249761D01*
X128590476Y-103202142D01*
%TO.C,SW50*%
X287515476Y-160399761D02*
X287658333Y-160447380D01*
X287896428Y-160447380D01*
X287991666Y-160399761D01*
X288039285Y-160352142D01*
X288086904Y-160256904D01*
X288086904Y-160161666D01*
X288039285Y-160066428D01*
X287991666Y-160018809D01*
X287896428Y-159971190D01*
X287705952Y-159923571D01*
X287610714Y-159875952D01*
X287563095Y-159828333D01*
X287515476Y-159733095D01*
X287515476Y-159637857D01*
X287563095Y-159542619D01*
X287610714Y-159495000D01*
X287705952Y-159447380D01*
X287944047Y-159447380D01*
X288086904Y-159495000D01*
X288420238Y-159447380D02*
X288658333Y-160447380D01*
X288848809Y-159733095D01*
X289039285Y-160447380D01*
X289277380Y-159447380D01*
X290134523Y-159447380D02*
X289658333Y-159447380D01*
X289610714Y-159923571D01*
X289658333Y-159875952D01*
X289753571Y-159828333D01*
X289991666Y-159828333D01*
X290086904Y-159875952D01*
X290134523Y-159923571D01*
X290182142Y-160018809D01*
X290182142Y-160256904D01*
X290134523Y-160352142D01*
X290086904Y-160399761D01*
X289991666Y-160447380D01*
X289753571Y-160447380D01*
X289658333Y-160399761D01*
X289610714Y-160352142D01*
X290801190Y-159447380D02*
X290896428Y-159447380D01*
X290991666Y-159495000D01*
X291039285Y-159542619D01*
X291086904Y-159637857D01*
X291134523Y-159828333D01*
X291134523Y-160066428D01*
X291086904Y-160256904D01*
X291039285Y-160352142D01*
X290991666Y-160399761D01*
X290896428Y-160447380D01*
X290801190Y-160447380D01*
X290705952Y-160399761D01*
X290658333Y-160352142D01*
X290610714Y-160256904D01*
X290563095Y-160066428D01*
X290563095Y-159828333D01*
X290610714Y-159637857D01*
X290658333Y-159542619D01*
X290705952Y-159495000D01*
X290801190Y-159447380D01*
%TO.C,SW14*%
X130352975Y-122299761D02*
X130495832Y-122347380D01*
X130733927Y-122347380D01*
X130829165Y-122299761D01*
X130876784Y-122252142D01*
X130924403Y-122156904D01*
X130924403Y-122061666D01*
X130876784Y-121966428D01*
X130829165Y-121918809D01*
X130733927Y-121871190D01*
X130543451Y-121823571D01*
X130448213Y-121775952D01*
X130400594Y-121728333D01*
X130352975Y-121633095D01*
X130352975Y-121537857D01*
X130400594Y-121442619D01*
X130448213Y-121395000D01*
X130543451Y-121347380D01*
X130781546Y-121347380D01*
X130924403Y-121395000D01*
X131257737Y-121347380D02*
X131495832Y-122347380D01*
X131686308Y-121633095D01*
X131876784Y-122347380D01*
X132114879Y-121347380D01*
X133019641Y-122347380D02*
X132448213Y-122347380D01*
X132733927Y-122347380D02*
X132733927Y-121347380D01*
X132638689Y-121490238D01*
X132543451Y-121585476D01*
X132448213Y-121633095D01*
X133876784Y-121680714D02*
X133876784Y-122347380D01*
X133638689Y-121299761D02*
X133400594Y-122014047D01*
X134019641Y-122014047D01*
%TO.C,R2*%
X327673333Y-169222380D02*
X327340000Y-168746190D01*
X327101904Y-169222380D02*
X327101904Y-168222380D01*
X327482857Y-168222380D01*
X327578095Y-168270000D01*
X327625714Y-168317619D01*
X327673333Y-168412857D01*
X327673333Y-168555714D01*
X327625714Y-168650952D01*
X327578095Y-168698571D01*
X327482857Y-168746190D01*
X327101904Y-168746190D01*
X328054285Y-168317619D02*
X328101904Y-168270000D01*
X328197142Y-168222380D01*
X328435238Y-168222380D01*
X328530476Y-168270000D01*
X328578095Y-168317619D01*
X328625714Y-168412857D01*
X328625714Y-168508095D01*
X328578095Y-168650952D01*
X328006666Y-169222380D01*
X328625714Y-169222380D01*
%TO.C,SW38*%
X220840476Y-103249761D02*
X220983333Y-103297380D01*
X221221428Y-103297380D01*
X221316666Y-103249761D01*
X221364285Y-103202142D01*
X221411904Y-103106904D01*
X221411904Y-103011666D01*
X221364285Y-102916428D01*
X221316666Y-102868809D01*
X221221428Y-102821190D01*
X221030952Y-102773571D01*
X220935714Y-102725952D01*
X220888095Y-102678333D01*
X220840476Y-102583095D01*
X220840476Y-102487857D01*
X220888095Y-102392619D01*
X220935714Y-102345000D01*
X221030952Y-102297380D01*
X221269047Y-102297380D01*
X221411904Y-102345000D01*
X221745238Y-102297380D02*
X221983333Y-103297380D01*
X222173809Y-102583095D01*
X222364285Y-103297380D01*
X222602380Y-102297380D01*
X222888095Y-102297380D02*
X223507142Y-102297380D01*
X223173809Y-102678333D01*
X223316666Y-102678333D01*
X223411904Y-102725952D01*
X223459523Y-102773571D01*
X223507142Y-102868809D01*
X223507142Y-103106904D01*
X223459523Y-103202142D01*
X223411904Y-103249761D01*
X223316666Y-103297380D01*
X223030952Y-103297380D01*
X222935714Y-103249761D01*
X222888095Y-103202142D01*
X224078571Y-102725952D02*
X223983333Y-102678333D01*
X223935714Y-102630714D01*
X223888095Y-102535476D01*
X223888095Y-102487857D01*
X223935714Y-102392619D01*
X223983333Y-102345000D01*
X224078571Y-102297380D01*
X224269047Y-102297380D01*
X224364285Y-102345000D01*
X224411904Y-102392619D01*
X224459523Y-102487857D01*
X224459523Y-102535476D01*
X224411904Y-102630714D01*
X224364285Y-102678333D01*
X224269047Y-102725952D01*
X224078571Y-102725952D01*
X223983333Y-102773571D01*
X223935714Y-102821190D01*
X223888095Y-102916428D01*
X223888095Y-103106904D01*
X223935714Y-103202142D01*
X223983333Y-103249761D01*
X224078571Y-103297380D01*
X224269047Y-103297380D01*
X224364285Y-103249761D01*
X224411904Y-103202142D01*
X224459523Y-103106904D01*
X224459523Y-102916428D01*
X224411904Y-102821190D01*
X224364285Y-102773571D01*
X224269047Y-102725952D01*
%TO.C,SW67*%
X339902976Y-103249761D02*
X340045833Y-103297380D01*
X340283928Y-103297380D01*
X340379166Y-103249761D01*
X340426785Y-103202142D01*
X340474404Y-103106904D01*
X340474404Y-103011666D01*
X340426785Y-102916428D01*
X340379166Y-102868809D01*
X340283928Y-102821190D01*
X340093452Y-102773571D01*
X339998214Y-102725952D01*
X339950595Y-102678333D01*
X339902976Y-102583095D01*
X339902976Y-102487857D01*
X339950595Y-102392619D01*
X339998214Y-102345000D01*
X340093452Y-102297380D01*
X340331547Y-102297380D01*
X340474404Y-102345000D01*
X340807738Y-102297380D02*
X341045833Y-103297380D01*
X341236309Y-102583095D01*
X341426785Y-103297380D01*
X341664880Y-102297380D01*
X342474404Y-102297380D02*
X342283928Y-102297380D01*
X342188690Y-102345000D01*
X342141071Y-102392619D01*
X342045833Y-102535476D01*
X341998214Y-102725952D01*
X341998214Y-103106904D01*
X342045833Y-103202142D01*
X342093452Y-103249761D01*
X342188690Y-103297380D01*
X342379166Y-103297380D01*
X342474404Y-103249761D01*
X342522023Y-103202142D01*
X342569642Y-103106904D01*
X342569642Y-102868809D01*
X342522023Y-102773571D01*
X342474404Y-102725952D01*
X342379166Y-102678333D01*
X342188690Y-102678333D01*
X342093452Y-102725952D01*
X342045833Y-102773571D01*
X341998214Y-102868809D01*
X342902976Y-102297380D02*
X343569642Y-102297380D01*
X343141071Y-103297380D01*
%TO.C,SW64*%
X325615476Y-160399761D02*
X325758333Y-160447380D01*
X325996428Y-160447380D01*
X326091666Y-160399761D01*
X326139285Y-160352142D01*
X326186904Y-160256904D01*
X326186904Y-160161666D01*
X326139285Y-160066428D01*
X326091666Y-160018809D01*
X325996428Y-159971190D01*
X325805952Y-159923571D01*
X325710714Y-159875952D01*
X325663095Y-159828333D01*
X325615476Y-159733095D01*
X325615476Y-159637857D01*
X325663095Y-159542619D01*
X325710714Y-159495000D01*
X325805952Y-159447380D01*
X326044047Y-159447380D01*
X326186904Y-159495000D01*
X326520238Y-159447380D02*
X326758333Y-160447380D01*
X326948809Y-159733095D01*
X327139285Y-160447380D01*
X327377380Y-159447380D01*
X328186904Y-159447380D02*
X327996428Y-159447380D01*
X327901190Y-159495000D01*
X327853571Y-159542619D01*
X327758333Y-159685476D01*
X327710714Y-159875952D01*
X327710714Y-160256904D01*
X327758333Y-160352142D01*
X327805952Y-160399761D01*
X327901190Y-160447380D01*
X328091666Y-160447380D01*
X328186904Y-160399761D01*
X328234523Y-160352142D01*
X328282142Y-160256904D01*
X328282142Y-160018809D01*
X328234523Y-159923571D01*
X328186904Y-159875952D01*
X328091666Y-159828333D01*
X327901190Y-159828333D01*
X327805952Y-159875952D01*
X327758333Y-159923571D01*
X327710714Y-160018809D01*
X329139285Y-159780714D02*
X329139285Y-160447380D01*
X328901190Y-159399761D02*
X328663095Y-160114047D01*
X329282142Y-160114047D01*
%TO.C,SW12*%
X116065476Y-84199761D02*
X116208333Y-84247380D01*
X116446428Y-84247380D01*
X116541666Y-84199761D01*
X116589285Y-84152142D01*
X116636904Y-84056904D01*
X116636904Y-83961666D01*
X116589285Y-83866428D01*
X116541666Y-83818809D01*
X116446428Y-83771190D01*
X116255952Y-83723571D01*
X116160714Y-83675952D01*
X116113095Y-83628333D01*
X116065476Y-83533095D01*
X116065476Y-83437857D01*
X116113095Y-83342619D01*
X116160714Y-83295000D01*
X116255952Y-83247380D01*
X116494047Y-83247380D01*
X116636904Y-83295000D01*
X116970238Y-83247380D02*
X117208333Y-84247380D01*
X117398809Y-83533095D01*
X117589285Y-84247380D01*
X117827380Y-83247380D01*
X118732142Y-84247380D02*
X118160714Y-84247380D01*
X118446428Y-84247380D02*
X118446428Y-83247380D01*
X118351190Y-83390238D01*
X118255952Y-83485476D01*
X118160714Y-83533095D01*
X119113095Y-83342619D02*
X119160714Y-83295000D01*
X119255952Y-83247380D01*
X119494047Y-83247380D01*
X119589285Y-83295000D01*
X119636904Y-83342619D01*
X119684523Y-83437857D01*
X119684523Y-83533095D01*
X119636904Y-83675952D01*
X119065476Y-84247380D01*
X119684523Y-84247380D01*
%TO.C,SW37*%
X211315476Y-84199761D02*
X211458333Y-84247380D01*
X211696428Y-84247380D01*
X211791666Y-84199761D01*
X211839285Y-84152142D01*
X211886904Y-84056904D01*
X211886904Y-83961666D01*
X211839285Y-83866428D01*
X211791666Y-83818809D01*
X211696428Y-83771190D01*
X211505952Y-83723571D01*
X211410714Y-83675952D01*
X211363095Y-83628333D01*
X211315476Y-83533095D01*
X211315476Y-83437857D01*
X211363095Y-83342619D01*
X211410714Y-83295000D01*
X211505952Y-83247380D01*
X211744047Y-83247380D01*
X211886904Y-83295000D01*
X212220238Y-83247380D02*
X212458333Y-84247380D01*
X212648809Y-83533095D01*
X212839285Y-84247380D01*
X213077380Y-83247380D01*
X213363095Y-83247380D02*
X213982142Y-83247380D01*
X213648809Y-83628333D01*
X213791666Y-83628333D01*
X213886904Y-83675952D01*
X213934523Y-83723571D01*
X213982142Y-83818809D01*
X213982142Y-84056904D01*
X213934523Y-84152142D01*
X213886904Y-84199761D01*
X213791666Y-84247380D01*
X213505952Y-84247380D01*
X213410714Y-84199761D01*
X213363095Y-84152142D01*
X214315476Y-83247380D02*
X214982142Y-83247380D01*
X214553571Y-84247380D01*
%TO.C,SW36*%
X224409226Y-186399761D02*
X224552083Y-186447380D01*
X224790178Y-186447380D01*
X224885416Y-186399761D01*
X224933035Y-186352142D01*
X224980654Y-186256904D01*
X224980654Y-186161666D01*
X224933035Y-186066428D01*
X224885416Y-186018809D01*
X224790178Y-185971190D01*
X224599702Y-185923571D01*
X224504464Y-185875952D01*
X224456845Y-185828333D01*
X224409226Y-185733095D01*
X224409226Y-185637857D01*
X224456845Y-185542619D01*
X224504464Y-185495000D01*
X224599702Y-185447380D01*
X224837797Y-185447380D01*
X224980654Y-185495000D01*
X225313988Y-185447380D02*
X225552083Y-186447380D01*
X225742559Y-185733095D01*
X225933035Y-186447380D01*
X226171130Y-185447380D01*
X226456845Y-185447380D02*
X227075892Y-185447380D01*
X226742559Y-185828333D01*
X226885416Y-185828333D01*
X226980654Y-185875952D01*
X227028273Y-185923571D01*
X227075892Y-186018809D01*
X227075892Y-186256904D01*
X227028273Y-186352142D01*
X226980654Y-186399761D01*
X226885416Y-186447380D01*
X226599702Y-186447380D01*
X226504464Y-186399761D01*
X226456845Y-186352142D01*
X227933035Y-185447380D02*
X227742559Y-185447380D01*
X227647321Y-185495000D01*
X227599702Y-185542619D01*
X227504464Y-185685476D01*
X227456845Y-185875952D01*
X227456845Y-186256904D01*
X227504464Y-186352142D01*
X227552083Y-186399761D01*
X227647321Y-186447380D01*
X227837797Y-186447380D01*
X227933035Y-186399761D01*
X227980654Y-186352142D01*
X228028273Y-186256904D01*
X228028273Y-186018809D01*
X227980654Y-185923571D01*
X227933035Y-185875952D01*
X227837797Y-185828333D01*
X227647321Y-185828333D01*
X227552083Y-185875952D01*
X227504464Y-185923571D01*
X227456845Y-186018809D01*
%TO.C,SW1*%
X359511666Y-69019760D02*
X359654523Y-69067379D01*
X359892619Y-69067379D01*
X359987857Y-69019760D01*
X360035476Y-68972141D01*
X360083095Y-68876903D01*
X360083095Y-68781665D01*
X360035476Y-68686427D01*
X359987857Y-68638808D01*
X359892619Y-68591189D01*
X359702142Y-68543570D01*
X359606904Y-68495951D01*
X359559285Y-68448332D01*
X359511666Y-68353094D01*
X359511666Y-68257856D01*
X359559285Y-68162618D01*
X359606904Y-68114999D01*
X359702142Y-68067379D01*
X359940238Y-68067379D01*
X360083095Y-68114999D01*
X360416428Y-68067379D02*
X360654523Y-69067379D01*
X360845000Y-68353094D01*
X361035476Y-69067379D01*
X361273571Y-68067379D01*
X362178333Y-69067379D02*
X361606904Y-69067379D01*
X361892619Y-69067379D02*
X361892619Y-68067379D01*
X361797380Y-68210237D01*
X361702142Y-68305475D01*
X361606904Y-68353094D01*
%TO.C,SW20*%
X158927976Y-141349761D02*
X159070833Y-141397380D01*
X159308928Y-141397380D01*
X159404166Y-141349761D01*
X159451785Y-141302142D01*
X159499404Y-141206904D01*
X159499404Y-141111666D01*
X159451785Y-141016428D01*
X159404166Y-140968809D01*
X159308928Y-140921190D01*
X159118452Y-140873571D01*
X159023214Y-140825952D01*
X158975595Y-140778333D01*
X158927976Y-140683095D01*
X158927976Y-140587857D01*
X158975595Y-140492619D01*
X159023214Y-140445000D01*
X159118452Y-140397380D01*
X159356547Y-140397380D01*
X159499404Y-140445000D01*
X159832738Y-140397380D02*
X160070833Y-141397380D01*
X160261309Y-140683095D01*
X160451785Y-141397380D01*
X160689880Y-140397380D01*
X161023214Y-140492619D02*
X161070833Y-140445000D01*
X161166071Y-140397380D01*
X161404166Y-140397380D01*
X161499404Y-140445000D01*
X161547023Y-140492619D01*
X161594642Y-140587857D01*
X161594642Y-140683095D01*
X161547023Y-140825952D01*
X160975595Y-141397380D01*
X161594642Y-141397380D01*
X162213690Y-140397380D02*
X162308928Y-140397380D01*
X162404166Y-140445000D01*
X162451785Y-140492619D01*
X162499404Y-140587857D01*
X162547023Y-140778333D01*
X162547023Y-141016428D01*
X162499404Y-141206904D01*
X162451785Y-141302142D01*
X162404166Y-141349761D01*
X162308928Y-141397380D01*
X162213690Y-141397380D01*
X162118452Y-141349761D01*
X162070833Y-141302142D01*
X162023214Y-141206904D01*
X161975595Y-141016428D01*
X161975595Y-140778333D01*
X162023214Y-140587857D01*
X162070833Y-140492619D01*
X162118452Y-140445000D01*
X162213690Y-140397380D01*
%TO.C,SW52*%
X277990476Y-103249761D02*
X278133333Y-103297380D01*
X278371428Y-103297380D01*
X278466666Y-103249761D01*
X278514285Y-103202142D01*
X278561904Y-103106904D01*
X278561904Y-103011666D01*
X278514285Y-102916428D01*
X278466666Y-102868809D01*
X278371428Y-102821190D01*
X278180952Y-102773571D01*
X278085714Y-102725952D01*
X278038095Y-102678333D01*
X277990476Y-102583095D01*
X277990476Y-102487857D01*
X278038095Y-102392619D01*
X278085714Y-102345000D01*
X278180952Y-102297380D01*
X278419047Y-102297380D01*
X278561904Y-102345000D01*
X278895238Y-102297380D02*
X279133333Y-103297380D01*
X279323809Y-102583095D01*
X279514285Y-103297380D01*
X279752380Y-102297380D01*
X280609523Y-102297380D02*
X280133333Y-102297380D01*
X280085714Y-102773571D01*
X280133333Y-102725952D01*
X280228571Y-102678333D01*
X280466666Y-102678333D01*
X280561904Y-102725952D01*
X280609523Y-102773571D01*
X280657142Y-102868809D01*
X280657142Y-103106904D01*
X280609523Y-103202142D01*
X280561904Y-103249761D01*
X280466666Y-103297380D01*
X280228571Y-103297380D01*
X280133333Y-103249761D01*
X280085714Y-103202142D01*
X281038095Y-102392619D02*
X281085714Y-102345000D01*
X281180952Y-102297380D01*
X281419047Y-102297380D01*
X281514285Y-102345000D01*
X281561904Y-102392619D01*
X281609523Y-102487857D01*
X281609523Y-102583095D01*
X281561904Y-102725952D01*
X280990476Y-103297380D01*
X281609523Y-103297380D01*
%TO.C,SW69*%
X363715476Y-160399761D02*
X363858333Y-160447380D01*
X364096428Y-160447380D01*
X364191666Y-160399761D01*
X364239285Y-160352142D01*
X364286904Y-160256904D01*
X364286904Y-160161666D01*
X364239285Y-160066428D01*
X364191666Y-160018809D01*
X364096428Y-159971190D01*
X363905952Y-159923571D01*
X363810714Y-159875952D01*
X363763095Y-159828333D01*
X363715476Y-159733095D01*
X363715476Y-159637857D01*
X363763095Y-159542619D01*
X363810714Y-159495000D01*
X363905952Y-159447380D01*
X364144047Y-159447380D01*
X364286904Y-159495000D01*
X364620238Y-159447380D02*
X364858333Y-160447380D01*
X365048809Y-159733095D01*
X365239285Y-160447380D01*
X365477380Y-159447380D01*
X366286904Y-159447380D02*
X366096428Y-159447380D01*
X366001190Y-159495000D01*
X365953571Y-159542619D01*
X365858333Y-159685476D01*
X365810714Y-159875952D01*
X365810714Y-160256904D01*
X365858333Y-160352142D01*
X365905952Y-160399761D01*
X366001190Y-160447380D01*
X366191666Y-160447380D01*
X366286904Y-160399761D01*
X366334523Y-160352142D01*
X366382142Y-160256904D01*
X366382142Y-160018809D01*
X366334523Y-159923571D01*
X366286904Y-159875952D01*
X366191666Y-159828333D01*
X366001190Y-159828333D01*
X365905952Y-159875952D01*
X365858333Y-159923571D01*
X365810714Y-160018809D01*
X366858333Y-160447380D02*
X367048809Y-160447380D01*
X367144047Y-160399761D01*
X367191666Y-160352142D01*
X367286904Y-160209285D01*
X367334523Y-160018809D01*
X367334523Y-159637857D01*
X367286904Y-159542619D01*
X367239285Y-159495000D01*
X367144047Y-159447380D01*
X366953571Y-159447380D01*
X366858333Y-159495000D01*
X366810714Y-159542619D01*
X366763095Y-159637857D01*
X366763095Y-159875952D01*
X366810714Y-159971190D01*
X366858333Y-160018809D01*
X366953571Y-160066428D01*
X367144047Y-160066428D01*
X367239285Y-160018809D01*
X367286904Y-159971190D01*
X367334523Y-159875952D01*
%TO.C,SW27*%
X173215475Y-84199761D02*
X173358332Y-84247380D01*
X173596427Y-84247380D01*
X173691665Y-84199761D01*
X173739284Y-84152142D01*
X173786903Y-84056904D01*
X173786903Y-83961666D01*
X173739284Y-83866428D01*
X173691665Y-83818809D01*
X173596427Y-83771190D01*
X173405951Y-83723571D01*
X173310713Y-83675952D01*
X173263094Y-83628333D01*
X173215475Y-83533095D01*
X173215475Y-83437857D01*
X173263094Y-83342619D01*
X173310713Y-83295000D01*
X173405951Y-83247380D01*
X173644046Y-83247380D01*
X173786903Y-83295000D01*
X174120237Y-83247380D02*
X174358332Y-84247380D01*
X174548808Y-83533095D01*
X174739284Y-84247380D01*
X174977379Y-83247380D01*
X175310713Y-83342619D02*
X175358332Y-83295000D01*
X175453570Y-83247380D01*
X175691665Y-83247380D01*
X175786903Y-83295000D01*
X175834522Y-83342619D01*
X175882141Y-83437857D01*
X175882141Y-83533095D01*
X175834522Y-83675952D01*
X175263094Y-84247380D01*
X175882141Y-84247380D01*
X176215475Y-83247380D02*
X176882141Y-83247380D01*
X176453570Y-84247380D01*
%TO.C,SW56*%
X287515476Y-84199761D02*
X287658333Y-84247380D01*
X287896428Y-84247380D01*
X287991666Y-84199761D01*
X288039285Y-84152142D01*
X288086904Y-84056904D01*
X288086904Y-83961666D01*
X288039285Y-83866428D01*
X287991666Y-83818809D01*
X287896428Y-83771190D01*
X287705952Y-83723571D01*
X287610714Y-83675952D01*
X287563095Y-83628333D01*
X287515476Y-83533095D01*
X287515476Y-83437857D01*
X287563095Y-83342619D01*
X287610714Y-83295000D01*
X287705952Y-83247380D01*
X287944047Y-83247380D01*
X288086904Y-83295000D01*
X288420238Y-83247380D02*
X288658333Y-84247380D01*
X288848809Y-83533095D01*
X289039285Y-84247380D01*
X289277380Y-83247380D01*
X290134523Y-83247380D02*
X289658333Y-83247380D01*
X289610714Y-83723571D01*
X289658333Y-83675952D01*
X289753571Y-83628333D01*
X289991666Y-83628333D01*
X290086904Y-83675952D01*
X290134523Y-83723571D01*
X290182142Y-83818809D01*
X290182142Y-84056904D01*
X290134523Y-84152142D01*
X290086904Y-84199761D01*
X289991666Y-84247380D01*
X289753571Y-84247380D01*
X289658333Y-84199761D01*
X289610714Y-84152142D01*
X291039285Y-83247380D02*
X290848809Y-83247380D01*
X290753571Y-83295000D01*
X290705952Y-83342619D01*
X290610714Y-83485476D01*
X290563095Y-83675952D01*
X290563095Y-84056904D01*
X290610714Y-84152142D01*
X290658333Y-84199761D01*
X290753571Y-84247380D01*
X290944047Y-84247380D01*
X291039285Y-84199761D01*
X291086904Y-84152142D01*
X291134523Y-84056904D01*
X291134523Y-83818809D01*
X291086904Y-83723571D01*
X291039285Y-83675952D01*
X290944047Y-83628333D01*
X290753571Y-83628333D01*
X290658333Y-83675952D01*
X290610714Y-83723571D01*
X290563095Y-83818809D01*
%TO.C,SW40*%
X235127976Y-141349761D02*
X235270833Y-141397380D01*
X235508928Y-141397380D01*
X235604166Y-141349761D01*
X235651785Y-141302142D01*
X235699404Y-141206904D01*
X235699404Y-141111666D01*
X235651785Y-141016428D01*
X235604166Y-140968809D01*
X235508928Y-140921190D01*
X235318452Y-140873571D01*
X235223214Y-140825952D01*
X235175595Y-140778333D01*
X235127976Y-140683095D01*
X235127976Y-140587857D01*
X235175595Y-140492619D01*
X235223214Y-140445000D01*
X235318452Y-140397380D01*
X235556547Y-140397380D01*
X235699404Y-140445000D01*
X236032738Y-140397380D02*
X236270833Y-141397380D01*
X236461309Y-140683095D01*
X236651785Y-141397380D01*
X236889880Y-140397380D01*
X237699404Y-140730714D02*
X237699404Y-141397380D01*
X237461309Y-140349761D02*
X237223214Y-141064047D01*
X237842261Y-141064047D01*
X238413690Y-140397380D02*
X238508928Y-140397380D01*
X238604166Y-140445000D01*
X238651785Y-140492619D01*
X238699404Y-140587857D01*
X238747023Y-140778333D01*
X238747023Y-141016428D01*
X238699404Y-141206904D01*
X238651785Y-141302142D01*
X238604166Y-141349761D01*
X238508928Y-141397380D01*
X238413690Y-141397380D01*
X238318452Y-141349761D01*
X238270833Y-141302142D01*
X238223214Y-141206904D01*
X238175595Y-141016428D01*
X238175595Y-140778333D01*
X238223214Y-140587857D01*
X238270833Y-140492619D01*
X238318452Y-140445000D01*
X238413690Y-140397380D01*
%TO.C,SW62*%
X316090476Y-103249761D02*
X316233333Y-103297380D01*
X316471428Y-103297380D01*
X316566666Y-103249761D01*
X316614285Y-103202142D01*
X316661904Y-103106904D01*
X316661904Y-103011666D01*
X316614285Y-102916428D01*
X316566666Y-102868809D01*
X316471428Y-102821190D01*
X316280952Y-102773571D01*
X316185714Y-102725952D01*
X316138095Y-102678333D01*
X316090476Y-102583095D01*
X316090476Y-102487857D01*
X316138095Y-102392619D01*
X316185714Y-102345000D01*
X316280952Y-102297380D01*
X316519047Y-102297380D01*
X316661904Y-102345000D01*
X316995238Y-102297380D02*
X317233333Y-103297380D01*
X317423809Y-102583095D01*
X317614285Y-103297380D01*
X317852380Y-102297380D01*
X318661904Y-102297380D02*
X318471428Y-102297380D01*
X318376190Y-102345000D01*
X318328571Y-102392619D01*
X318233333Y-102535476D01*
X318185714Y-102725952D01*
X318185714Y-103106904D01*
X318233333Y-103202142D01*
X318280952Y-103249761D01*
X318376190Y-103297380D01*
X318566666Y-103297380D01*
X318661904Y-103249761D01*
X318709523Y-103202142D01*
X318757142Y-103106904D01*
X318757142Y-102868809D01*
X318709523Y-102773571D01*
X318661904Y-102725952D01*
X318566666Y-102678333D01*
X318376190Y-102678333D01*
X318280952Y-102725952D01*
X318233333Y-102773571D01*
X318185714Y-102868809D01*
X319138095Y-102392619D02*
X319185714Y-102345000D01*
X319280952Y-102297380D01*
X319519047Y-102297380D01*
X319614285Y-102345000D01*
X319661904Y-102392619D01*
X319709523Y-102487857D01*
X319709523Y-102583095D01*
X319661904Y-102725952D01*
X319090476Y-103297380D01*
X319709523Y-103297380D01*
%TO.C,SW63*%
X332759226Y-122299761D02*
X332902083Y-122347380D01*
X333140178Y-122347380D01*
X333235416Y-122299761D01*
X333283035Y-122252142D01*
X333330654Y-122156904D01*
X333330654Y-122061666D01*
X333283035Y-121966428D01*
X333235416Y-121918809D01*
X333140178Y-121871190D01*
X332949702Y-121823571D01*
X332854464Y-121775952D01*
X332806845Y-121728333D01*
X332759226Y-121633095D01*
X332759226Y-121537857D01*
X332806845Y-121442619D01*
X332854464Y-121395000D01*
X332949702Y-121347380D01*
X333187797Y-121347380D01*
X333330654Y-121395000D01*
X333663988Y-121347380D02*
X333902083Y-122347380D01*
X334092559Y-121633095D01*
X334283035Y-122347380D01*
X334521130Y-121347380D01*
X335330654Y-121347380D02*
X335140178Y-121347380D01*
X335044940Y-121395000D01*
X334997321Y-121442619D01*
X334902083Y-121585476D01*
X334854464Y-121775952D01*
X334854464Y-122156904D01*
X334902083Y-122252142D01*
X334949702Y-122299761D01*
X335044940Y-122347380D01*
X335235416Y-122347380D01*
X335330654Y-122299761D01*
X335378273Y-122252142D01*
X335425892Y-122156904D01*
X335425892Y-121918809D01*
X335378273Y-121823571D01*
X335330654Y-121775952D01*
X335235416Y-121728333D01*
X335044940Y-121728333D01*
X334949702Y-121775952D01*
X334902083Y-121823571D01*
X334854464Y-121918809D01*
X335759226Y-121347380D02*
X336378273Y-121347380D01*
X336044940Y-121728333D01*
X336187797Y-121728333D01*
X336283035Y-121775952D01*
X336330654Y-121823571D01*
X336378273Y-121918809D01*
X336378273Y-122156904D01*
X336330654Y-122252142D01*
X336283035Y-122299761D01*
X336187797Y-122347380D01*
X335902083Y-122347380D01*
X335806845Y-122299761D01*
X335759226Y-122252142D01*
%TO.C,SW47*%
X258940476Y-103249761D02*
X259083333Y-103297380D01*
X259321428Y-103297380D01*
X259416666Y-103249761D01*
X259464285Y-103202142D01*
X259511904Y-103106904D01*
X259511904Y-103011666D01*
X259464285Y-102916428D01*
X259416666Y-102868809D01*
X259321428Y-102821190D01*
X259130952Y-102773571D01*
X259035714Y-102725952D01*
X258988095Y-102678333D01*
X258940476Y-102583095D01*
X258940476Y-102487857D01*
X258988095Y-102392619D01*
X259035714Y-102345000D01*
X259130952Y-102297380D01*
X259369047Y-102297380D01*
X259511904Y-102345000D01*
X259845238Y-102297380D02*
X260083333Y-103297380D01*
X260273809Y-102583095D01*
X260464285Y-103297380D01*
X260702380Y-102297380D01*
X261511904Y-102630714D02*
X261511904Y-103297380D01*
X261273809Y-102249761D02*
X261035714Y-102964047D01*
X261654761Y-102964047D01*
X261940476Y-102297380D02*
X262607142Y-102297380D01*
X262178571Y-103297380D01*
%TO.C,C1*%
X338590833Y-176697142D02*
X338543214Y-176744761D01*
X338400357Y-176792380D01*
X338305119Y-176792380D01*
X338162261Y-176744761D01*
X338067023Y-176649523D01*
X338019404Y-176554285D01*
X337971785Y-176363809D01*
X337971785Y-176220952D01*
X338019404Y-176030476D01*
X338067023Y-175935238D01*
X338162261Y-175840000D01*
X338305119Y-175792380D01*
X338400357Y-175792380D01*
X338543214Y-175840000D01*
X338590833Y-175887619D01*
X339543214Y-176792380D02*
X338971785Y-176792380D01*
X339257500Y-176792380D02*
X339257500Y-175792380D01*
X339162261Y-175935238D01*
X339067023Y-176030476D01*
X338971785Y-176078095D01*
%TO.C,SW46*%
X249415476Y-84199761D02*
X249558333Y-84247380D01*
X249796428Y-84247380D01*
X249891666Y-84199761D01*
X249939285Y-84152142D01*
X249986904Y-84056904D01*
X249986904Y-83961666D01*
X249939285Y-83866428D01*
X249891666Y-83818809D01*
X249796428Y-83771190D01*
X249605952Y-83723571D01*
X249510714Y-83675952D01*
X249463095Y-83628333D01*
X249415476Y-83533095D01*
X249415476Y-83437857D01*
X249463095Y-83342619D01*
X249510714Y-83295000D01*
X249605952Y-83247380D01*
X249844047Y-83247380D01*
X249986904Y-83295000D01*
X250320238Y-83247380D02*
X250558333Y-84247380D01*
X250748809Y-83533095D01*
X250939285Y-84247380D01*
X251177380Y-83247380D01*
X251986904Y-83580714D02*
X251986904Y-84247380D01*
X251748809Y-83199761D02*
X251510714Y-83914047D01*
X252129761Y-83914047D01*
X252939285Y-83247380D02*
X252748809Y-83247380D01*
X252653571Y-83295000D01*
X252605952Y-83342619D01*
X252510714Y-83485476D01*
X252463095Y-83675952D01*
X252463095Y-84056904D01*
X252510714Y-84152142D01*
X252558333Y-84199761D01*
X252653571Y-84247380D01*
X252844047Y-84247380D01*
X252939285Y-84199761D01*
X252986904Y-84152142D01*
X253034523Y-84056904D01*
X253034523Y-83818809D01*
X252986904Y-83723571D01*
X252939285Y-83675952D01*
X252844047Y-83628333D01*
X252653571Y-83628333D01*
X252558333Y-83675952D01*
X252510714Y-83723571D01*
X252463095Y-83818809D01*
D11*
%TO.C,SW8*%
X115450000Y-101945000D02*
X115450000Y-87745000D01*
X101250000Y-101945000D02*
X115450000Y-101945000D01*
X101250000Y-87745000D02*
X101250000Y-101945000D01*
X115450000Y-87745000D02*
X101250000Y-87745000D01*
%TO.C,R1*%
X331900000Y-178190000D02*
X331130000Y-178190000D01*
X331130000Y-176820000D02*
X324590000Y-176820000D01*
X324590000Y-179560000D02*
X331130000Y-179560000D01*
X331130000Y-179560000D02*
X331130000Y-176820000D01*
X323820000Y-178190000D02*
X324590000Y-178190000D01*
X324590000Y-176820000D02*
X324590000Y-179560000D01*
%TO.C,SW41*%
X225075000Y-82895000D02*
X239275000Y-82895000D01*
X239275000Y-82895000D02*
X239275000Y-68695000D01*
X239275000Y-68695000D02*
X225075000Y-68695000D01*
X225075000Y-68695000D02*
X225075000Y-82895000D01*
%TO.C,SW61*%
X315475000Y-68695000D02*
X301275000Y-68695000D01*
X301275000Y-82895000D02*
X315475000Y-82895000D01*
X301275000Y-68695000D02*
X301275000Y-82895000D01*
X315475000Y-82895000D02*
X315475000Y-68695000D01*
%TO.C,SW57*%
X291750000Y-101945000D02*
X305950000Y-101945000D01*
X305950000Y-101945000D02*
X305950000Y-87745000D01*
X305950000Y-87745000D02*
X291750000Y-87745000D01*
X291750000Y-87745000D02*
X291750000Y-101945000D01*
%TO.C,SW39*%
X220312500Y-106795000D02*
X220312500Y-120995000D01*
X234512500Y-106795000D02*
X220312500Y-106795000D01*
X220312500Y-120995000D02*
X234512500Y-120995000D01*
X234512500Y-120995000D02*
X234512500Y-106795000D01*
%TO.C,SW19*%
X144112499Y-120995000D02*
X158312499Y-120995000D01*
X158312499Y-120995000D02*
X158312499Y-106795000D01*
X144112499Y-106795000D02*
X144112499Y-120995000D01*
X158312499Y-106795000D02*
X144112499Y-106795000D01*
%TO.C,SW18*%
X153550000Y-101945000D02*
X153550000Y-87745000D01*
X153550000Y-87745000D02*
X139350000Y-87745000D01*
X139350000Y-101945000D02*
X153550000Y-101945000D01*
X139350000Y-87745000D02*
X139350000Y-101945000D01*
%TO.C,SW45*%
X277375000Y-144895000D02*
X263175000Y-144895000D01*
X277375000Y-159095000D02*
X277375000Y-144895000D01*
X263175000Y-144895000D02*
X263175000Y-159095000D01*
X263175000Y-159095000D02*
X277375000Y-159095000D01*
%TO.C,C2*%
X339468752Y-167880000D02*
X338046248Y-167880000D01*
X339468752Y-169700000D02*
X338046248Y-169700000D01*
%TO.C,SW65*%
X353575000Y-144895000D02*
X339375000Y-144895000D01*
X339375000Y-159095000D02*
X353575000Y-159095000D01*
X353575000Y-159095000D02*
X353575000Y-144895000D01*
X339375000Y-144895000D02*
X339375000Y-159095000D01*
%TO.C,SW60*%
X315475000Y-159095000D02*
X315475000Y-144895000D01*
X315475000Y-144895000D02*
X301275000Y-144895000D01*
X301275000Y-159095000D02*
X315475000Y-159095000D01*
X301275000Y-144895000D02*
X301275000Y-159095000D01*
%TO.C,SW49*%
X267937500Y-140045000D02*
X282137500Y-140045000D01*
X282137500Y-140045000D02*
X282137500Y-125845000D01*
X282137500Y-125845000D02*
X267937500Y-125845000D01*
X267937500Y-125845000D02*
X267937500Y-140045000D01*
%TO.C,J1*%
X346010000Y-162540000D02*
X374710000Y-162540000D01*
X374710000Y-162540000D02*
X374710000Y-190240000D01*
X374710000Y-190240000D02*
X346010000Y-190240000D01*
X346010000Y-190240000D02*
X346010000Y-162540000D01*
%TO.C,SW48*%
X272612500Y-120995000D02*
X272612500Y-106795000D01*
X258412500Y-120995000D02*
X272612500Y-120995000D01*
X272612500Y-106795000D02*
X258412500Y-106795000D01*
X258412500Y-106795000D02*
X258412500Y-120995000D01*
%TO.C,SW7*%
X91725000Y-82895000D02*
X105925000Y-82895000D01*
X105925000Y-68695000D02*
X91725000Y-68695000D01*
X91725000Y-68695000D02*
X91725000Y-82895000D01*
X105925000Y-82895000D02*
X105925000Y-68695000D01*
%TO.C,SW5*%
X84581250Y-140045000D02*
X98781250Y-140045000D01*
X98781250Y-125845000D02*
X84581250Y-125845000D01*
X98781250Y-140045000D02*
X98781250Y-125845000D01*
X84581250Y-125845000D02*
X84581250Y-140045000D01*
%TO.C,SW17*%
X144025000Y-68695000D02*
X129825000Y-68695000D01*
X144025000Y-82895000D02*
X144025000Y-68695000D01*
X129825000Y-68695000D02*
X129825000Y-82895000D01*
X129825000Y-82895000D02*
X144025000Y-82895000D01*
%TO.C,SW66*%
X329850000Y-82895000D02*
X344050000Y-82895000D01*
X344050000Y-68695000D02*
X329850000Y-68695000D01*
X329850000Y-68695000D02*
X329850000Y-82895000D01*
X344050000Y-82895000D02*
X344050000Y-68695000D01*
%TO.C,SW23*%
X158400000Y-101945000D02*
X172600000Y-101945000D01*
X158400000Y-87745000D02*
X158400000Y-101945000D01*
X172600000Y-87745000D02*
X158400000Y-87745000D01*
X172600000Y-101945000D02*
X172600000Y-87745000D01*
%TO.C,R4*%
X323820000Y-171923333D02*
X324590000Y-171923333D01*
X331130000Y-173293333D02*
X331130000Y-170553333D01*
X324590000Y-170553333D02*
X324590000Y-173293333D01*
X331900000Y-171923333D02*
X331130000Y-171923333D01*
X331130000Y-170553333D02*
X324590000Y-170553333D01*
X324590000Y-173293333D02*
X331130000Y-173293333D01*
%TO.C,SW26*%
X372625000Y-106795000D02*
X358425000Y-106795000D01*
X372625000Y-120995000D02*
X372625000Y-106795000D01*
X358425000Y-120995000D02*
X372625000Y-120995000D01*
X358425000Y-106795000D02*
X358425000Y-120995000D01*
%TO.C,SW32*%
X201174999Y-68695000D02*
X186974999Y-68695000D01*
X186974999Y-68695000D02*
X186974999Y-82895000D01*
X201174999Y-82895000D02*
X201174999Y-68695000D01*
X186974999Y-82895000D02*
X201174999Y-82895000D01*
%TO.C,SW16*%
X136881250Y-159095000D02*
X136881250Y-144895000D01*
X122681250Y-159095000D02*
X136881250Y-159095000D01*
X122681250Y-144895000D02*
X122681250Y-159095000D01*
X136881250Y-144895000D02*
X122681250Y-144895000D01*
%TO.C,R3*%
X331130000Y-173686666D02*
X324590000Y-173686666D01*
X324590000Y-173686666D02*
X324590000Y-176426666D01*
X323820000Y-175056666D02*
X324590000Y-175056666D01*
X331130000Y-176426666D02*
X331130000Y-173686666D01*
X331900000Y-175056666D02*
X331130000Y-175056666D01*
X324590000Y-176426666D02*
X331130000Y-176426666D01*
%TO.C,SW28*%
X191650000Y-87745000D02*
X177450000Y-87745000D01*
X177450000Y-87745000D02*
X177450000Y-101945000D01*
X191650000Y-101945000D02*
X191650000Y-87745000D01*
X177450000Y-101945000D02*
X191650000Y-101945000D01*
%TO.C,SW53*%
X291662500Y-106795000D02*
X277462500Y-106795000D01*
X291662500Y-120995000D02*
X291662500Y-106795000D01*
X277462500Y-106795000D02*
X277462500Y-120995000D01*
X277462500Y-120995000D02*
X291662500Y-120995000D01*
%TO.C,SW58*%
X310712500Y-120995000D02*
X310712500Y-106795000D01*
X296512500Y-120995000D02*
X310712500Y-120995000D01*
X296512500Y-106795000D02*
X296512500Y-120995000D01*
X310712500Y-106795000D02*
X296512500Y-106795000D01*
%TO.C,SW25*%
X186887500Y-125845000D02*
X172687500Y-125845000D01*
X172687500Y-140045000D02*
X186887500Y-140045000D01*
X172687500Y-125845000D02*
X172687500Y-140045000D01*
X186887500Y-140045000D02*
X186887500Y-125845000D01*
%TO.C,SW51*%
X263175000Y-82895000D02*
X277375000Y-82895000D01*
X263175000Y-68695000D02*
X263175000Y-82895000D01*
X277375000Y-68695000D02*
X263175000Y-68695000D01*
X277375000Y-82895000D02*
X277375000Y-68695000D01*
%TO.C,SW10*%
X115537500Y-140045000D02*
X129737500Y-140045000D01*
X129737500Y-140045000D02*
X129737500Y-125845000D01*
X129737500Y-125845000D02*
X115537500Y-125845000D01*
X115537500Y-125845000D02*
X115537500Y-140045000D01*
D12*
%TO.C,U1*%
X190118750Y-182895000D02*
X190118750Y-173095000D01*
X193268750Y-182895000D02*
X190118750Y-182895000D01*
X206668750Y-169995000D02*
X207298750Y-169995000D01*
X210718750Y-181995000D02*
X209168750Y-181995000D01*
X210718750Y-173895000D02*
X210718750Y-181995000D01*
X209168750Y-173895000D02*
X210718750Y-173895000D01*
X195148750Y-169995000D02*
X195768750Y-169995000D01*
X195768750Y-169995000D02*
X195768750Y-163695000D01*
X196368750Y-185895000D02*
X195148750Y-185895000D01*
X193268750Y-183165000D02*
X193268750Y-182895000D01*
X196368750Y-189095000D02*
X196368750Y-185895000D01*
X209168750Y-181995000D02*
X209168750Y-183115000D01*
X207298750Y-185895000D02*
X206068750Y-185895000D01*
X195768750Y-163695000D02*
X206668750Y-163695000D01*
X190118750Y-173095000D02*
X193268750Y-173095000D01*
X206068750Y-185895000D02*
X206068750Y-189095000D01*
X206668750Y-163695000D02*
X206668750Y-169995000D01*
D13*
X195268750Y-164645000D02*
G75*
G03*
X195268750Y-164645000I-100000J0D01*
G01*
D11*
%TO.C,SW33*%
X210700000Y-87745000D02*
X196500000Y-87745000D01*
X196500000Y-87745000D02*
X196500000Y-101945000D01*
X196500000Y-101945000D02*
X210700000Y-101945000D01*
X210700000Y-101945000D02*
X210700000Y-87745000D01*
%TO.C,SW21*%
X169118750Y-170895000D02*
X169118750Y-185095000D01*
X183318750Y-170895000D02*
X169118750Y-170895000D01*
X169118750Y-185095000D02*
X183318750Y-185095000D01*
X183318750Y-185095000D02*
X183318750Y-170895000D01*
%TO.C,SW68*%
X358425000Y-101945000D02*
X372625000Y-101945000D01*
X372625000Y-101945000D02*
X372625000Y-87745000D01*
X358425000Y-87745000D02*
X358425000Y-101945000D01*
X372625000Y-87745000D02*
X358425000Y-87745000D01*
%TO.C,SW31*%
X194118750Y-159095000D02*
X208318750Y-159095000D01*
X208318750Y-159095000D02*
X208318750Y-144895000D01*
X208318750Y-144895000D02*
X194118750Y-144895000D01*
X194118750Y-144895000D02*
X194118750Y-159095000D01*
%TO.C,SW42*%
X248800000Y-101945000D02*
X248800000Y-87745000D01*
X248800000Y-87745000D02*
X234600000Y-87745000D01*
X234600000Y-101945000D02*
X248800000Y-101945000D01*
X234600000Y-87745000D02*
X234600000Y-101945000D01*
%TO.C,SW4*%
X94018750Y-106795000D02*
X79818750Y-106795000D01*
X79818750Y-120995000D02*
X94018750Y-120995000D01*
X79818750Y-106795000D02*
X79818750Y-120995000D01*
X94018750Y-120995000D02*
X94018750Y-106795000D01*
%TO.C,SW59*%
X336906250Y-140045000D02*
X336906250Y-125845000D01*
X322706250Y-125845000D02*
X322706250Y-140045000D01*
X322706250Y-140045000D02*
X336906250Y-140045000D01*
X336906250Y-125845000D02*
X322706250Y-125845000D01*
%TO.C,SW15*%
X148787500Y-140045000D02*
X148787500Y-125845000D01*
X134587500Y-125845000D02*
X134587500Y-140045000D01*
X134587500Y-140045000D02*
X148787500Y-140045000D01*
X148787500Y-125845000D02*
X134587500Y-125845000D01*
%TO.C,SW35*%
X210787500Y-140045000D02*
X224987500Y-140045000D01*
X224987500Y-125845000D02*
X210787500Y-125845000D01*
X224987500Y-140045000D02*
X224987500Y-125845000D01*
X210787500Y-125845000D02*
X210787500Y-140045000D01*
%TO.C,SW29*%
X196412499Y-106795000D02*
X182212499Y-106795000D01*
X182212499Y-106795000D02*
X182212499Y-120995000D01*
X196412499Y-120995000D02*
X196412499Y-106795000D01*
X182212499Y-120995000D02*
X196412499Y-120995000D01*
%TO.C,SW43*%
X239362500Y-120995000D02*
X253562500Y-120995000D01*
X253562500Y-106795000D02*
X239362500Y-106795000D01*
X239362500Y-106795000D02*
X239362500Y-120995000D01*
X253562500Y-120995000D02*
X253562500Y-106795000D01*
%TO.C,SW34*%
X201262499Y-120995000D02*
X215462499Y-120995000D01*
X201262499Y-106795000D02*
X201262499Y-120995000D01*
X215462499Y-106795000D02*
X201262499Y-106795000D01*
X215462499Y-120995000D02*
X215462499Y-106795000D01*
%TO.C,SW11*%
X98868750Y-144895000D02*
X98868750Y-159095000D01*
X98868750Y-159095000D02*
X113068750Y-159095000D01*
X113068750Y-144895000D02*
X98868750Y-144895000D01*
X113068750Y-159095000D02*
X113068750Y-144895000D01*
%TO.C,SW2*%
X72675000Y-82895000D02*
X86875000Y-82895000D01*
X86875000Y-68695000D02*
X72675000Y-68695000D01*
X72675000Y-68695000D02*
X72675000Y-82895000D01*
X86875000Y-82895000D02*
X86875000Y-68695000D01*
%TO.C,SW44*%
X248887500Y-140045000D02*
X263087500Y-140045000D01*
X248887500Y-125845000D02*
X248887500Y-140045000D01*
X263087500Y-125845000D02*
X248887500Y-125845000D01*
X263087500Y-140045000D02*
X263087500Y-125845000D01*
%TO.C,SW24*%
X177362499Y-106795000D02*
X163162499Y-106795000D01*
X177362499Y-120995000D02*
X177362499Y-106795000D01*
X163162499Y-120995000D02*
X177362499Y-120995000D01*
X163162499Y-106795000D02*
X163162499Y-120995000D01*
%TO.C,SW54*%
X301187500Y-140045000D02*
X301187500Y-125845000D01*
X286987500Y-140045000D02*
X301187500Y-140045000D01*
X286987500Y-125845000D02*
X286987500Y-140045000D01*
X301187500Y-125845000D02*
X286987500Y-125845000D01*
%TO.C,SW3*%
X77437500Y-87745000D02*
X77437500Y-101945000D01*
X77437500Y-101945000D02*
X91637500Y-101945000D01*
X91637500Y-101945000D02*
X91637500Y-87745000D01*
X91637500Y-87745000D02*
X77437500Y-87745000D01*
%TO.C,SW30*%
X191737500Y-140045000D02*
X205937500Y-140045000D01*
X205937500Y-125845000D02*
X191737500Y-125845000D01*
X191737500Y-125845000D02*
X191737500Y-140045000D01*
X205937500Y-140045000D02*
X205937500Y-125845000D01*
%TO.C,SW22*%
X148875000Y-68695000D02*
X148875000Y-82895000D01*
X148875000Y-82895000D02*
X163075000Y-82895000D01*
X163075000Y-82895000D02*
X163075000Y-68695000D01*
X163075000Y-68695000D02*
X148875000Y-68695000D01*
%TO.C,SW6*%
X75056250Y-159095000D02*
X89256250Y-159095000D01*
X89256250Y-159095000D02*
X89256250Y-144895000D01*
X75056250Y-144895000D02*
X75056250Y-159095000D01*
X89256250Y-144895000D02*
X75056250Y-144895000D01*
%TO.C,SW55*%
X358425000Y-125845000D02*
X358425000Y-140045000D01*
X358425000Y-140045000D02*
X372625000Y-140045000D01*
X372625000Y-140045000D02*
X372625000Y-125845000D01*
X372625000Y-125845000D02*
X358425000Y-125845000D01*
%TO.C,SW9*%
X120212500Y-120995000D02*
X120212500Y-106795000D01*
X106012500Y-120995000D02*
X120212500Y-120995000D01*
X120212500Y-106795000D02*
X106012500Y-106795000D01*
X106012500Y-106795000D02*
X106012500Y-120995000D01*
%TO.C,SW13*%
X134500000Y-101945000D02*
X134500000Y-87745000D01*
X134500000Y-87745000D02*
X120300000Y-87745000D01*
X120300000Y-101945000D02*
X134500000Y-101945000D01*
X120300000Y-87745000D02*
X120300000Y-101945000D01*
%TO.C,SW50*%
X296425000Y-159095000D02*
X296425000Y-144895000D01*
X296425000Y-144895000D02*
X282225000Y-144895000D01*
X282225000Y-159095000D02*
X296425000Y-159095000D01*
X282225000Y-144895000D02*
X282225000Y-159095000D01*
%TO.C,SW14*%
X125062499Y-120995000D02*
X139262499Y-120995000D01*
X125062499Y-106795000D02*
X125062499Y-120995000D01*
X139262499Y-106795000D02*
X125062499Y-106795000D01*
X139262499Y-120995000D02*
X139262499Y-106795000D01*
%TO.C,R2*%
X323820000Y-168790000D02*
X324590000Y-168790000D01*
X331130000Y-167420000D02*
X324590000Y-167420000D01*
X324590000Y-167420000D02*
X324590000Y-170160000D01*
X331130000Y-170160000D02*
X331130000Y-167420000D01*
X331900000Y-168790000D02*
X331130000Y-168790000D01*
X324590000Y-170160000D02*
X331130000Y-170160000D01*
%TO.C,SW38*%
X229750000Y-101945000D02*
X229750000Y-87745000D01*
X215550000Y-87745000D02*
X215550000Y-101945000D01*
X215550000Y-101945000D02*
X229750000Y-101945000D01*
X229750000Y-87745000D02*
X215550000Y-87745000D01*
%TO.C,SW67*%
X334612500Y-87745000D02*
X334612500Y-101945000D01*
X334612500Y-101945000D02*
X348812500Y-101945000D01*
X348812500Y-87745000D02*
X334612500Y-87745000D01*
X348812500Y-101945000D02*
X348812500Y-87745000D01*
%TO.C,SW64*%
X334525000Y-159095000D02*
X334525000Y-144895000D01*
X320325000Y-144895000D02*
X320325000Y-159095000D01*
X320325000Y-159095000D02*
X334525000Y-159095000D01*
X334525000Y-144895000D02*
X320325000Y-144895000D01*
%TO.C,SW12*%
X124975000Y-82895000D02*
X124975000Y-68695000D01*
X124975000Y-68695000D02*
X110775000Y-68695000D01*
X110775000Y-82895000D02*
X124975000Y-82895000D01*
X110775000Y-68695000D02*
X110775000Y-82895000D01*
%TO.C,SW37*%
X206025000Y-68695000D02*
X206025000Y-82895000D01*
X220225000Y-68695000D02*
X206025000Y-68695000D01*
X220225000Y-82895000D02*
X220225000Y-68695000D01*
X206025000Y-82895000D02*
X220225000Y-82895000D01*
%TO.C,SW36*%
X219118750Y-185095000D02*
X233318750Y-185095000D01*
X233318750Y-170895000D02*
X219118750Y-170895000D01*
X233318750Y-185095000D02*
X233318750Y-170895000D01*
X219118750Y-170895000D02*
X219118750Y-185095000D01*
%TO.C,SW1*%
X365545000Y-75314999D02*
X365545000Y-76314999D01*
X358345000Y-71714999D02*
X358045000Y-72014999D01*
X367545000Y-69914999D02*
X371645000Y-69914999D01*
X371645000Y-74514999D02*
X371645000Y-77114999D01*
X363545000Y-81714999D02*
X359445000Y-81714999D01*
X363545000Y-69914999D02*
X359445000Y-69914999D01*
X359445000Y-69914999D02*
X359445000Y-81714999D01*
X358045000Y-72014999D02*
X357745000Y-71714999D01*
X371645000Y-79314999D02*
X371645000Y-81714999D01*
X371645000Y-81714999D02*
X367545000Y-81714999D01*
X357745000Y-71714999D02*
X358345000Y-71714999D01*
X371645000Y-69914999D02*
X371645000Y-72314999D01*
X365045000Y-75814999D02*
X366045000Y-75814999D01*
X368545000Y-75814999D02*
G75*
G03*
X368545000Y-75814999I-3000000J0D01*
G01*
%TO.C,SW20*%
X153637500Y-125845000D02*
X153637500Y-140045000D01*
X167837500Y-125845000D02*
X153637500Y-125845000D01*
X167837500Y-140045000D02*
X167837500Y-125845000D01*
X153637500Y-140045000D02*
X167837500Y-140045000D01*
%TO.C,SW52*%
X272700000Y-87745000D02*
X272700000Y-101945000D01*
X286900000Y-87745000D02*
X272700000Y-87745000D01*
X272700000Y-101945000D02*
X286900000Y-101945000D01*
X286900000Y-101945000D02*
X286900000Y-87745000D01*
%TO.C,SW69*%
X358425000Y-144895000D02*
X358425000Y-159095000D01*
X358425000Y-159095000D02*
X372625000Y-159095000D01*
X372625000Y-144895000D02*
X358425000Y-144895000D01*
X372625000Y-159095000D02*
X372625000Y-144895000D01*
%TO.C,SW27*%
X182124999Y-68695000D02*
X167924999Y-68695000D01*
X182124999Y-82895000D02*
X182124999Y-68695000D01*
X167924999Y-82895000D02*
X182124999Y-82895000D01*
X167924999Y-68695000D02*
X167924999Y-82895000D01*
%TO.C,SW56*%
X282225000Y-68695000D02*
X282225000Y-82895000D01*
X296425000Y-68695000D02*
X282225000Y-68695000D01*
X296425000Y-82895000D02*
X296425000Y-68695000D01*
X282225000Y-82895000D02*
X296425000Y-82895000D01*
%TO.C,SW40*%
X229837500Y-140045000D02*
X244037500Y-140045000D01*
X244037500Y-125845000D02*
X229837500Y-125845000D01*
X244037500Y-140045000D02*
X244037500Y-125845000D01*
X229837500Y-125845000D02*
X229837500Y-140045000D01*
%TO.C,SW62*%
X325000000Y-101945000D02*
X325000000Y-87745000D01*
X310800000Y-87745000D02*
X310800000Y-101945000D01*
X325000000Y-87745000D02*
X310800000Y-87745000D01*
X310800000Y-101945000D02*
X325000000Y-101945000D01*
%TO.C,SW63*%
X341668750Y-106795000D02*
X327468750Y-106795000D01*
X327468750Y-106795000D02*
X327468750Y-120995000D01*
X327468750Y-120995000D02*
X341668750Y-120995000D01*
X341668750Y-120995000D02*
X341668750Y-106795000D01*
%TO.C,SW47*%
X267850000Y-87745000D02*
X253650000Y-87745000D01*
X253650000Y-101945000D02*
X267850000Y-101945000D01*
X267850000Y-101945000D02*
X267850000Y-87745000D01*
X253650000Y-87745000D02*
X253650000Y-101945000D01*
%TO.C,C1*%
X338046248Y-179100000D02*
X339468752Y-179100000D01*
X338046248Y-177280000D02*
X339468752Y-177280000D01*
%TO.C,SW46*%
X244125000Y-68695000D02*
X244125000Y-82895000D01*
X244125000Y-82895000D02*
X258325000Y-82895000D01*
X258325000Y-68695000D02*
X244125000Y-68695000D01*
X258325000Y-82895000D02*
X258325000Y-68695000D01*
%TD*%
M02*
