M48
; DRILL file {KiCad (6.0.5)} date Tue May 31 00:14:33 2022
; FORMAT={-:-/ absolute / inch / decimal}
; #@! TF.CreationDate,2022-05-31T00:14:33-04:00
; #@! TF.GenerationSoftware,Kicad,Pcbnew,(6.0.5)
; #@! TF.FileFunction,NonPlated,1,2,NPTH
FMAT,2
INCH
; #@! TA.AperFunction,NonPlated,NPTH,ComponentDrill
T1C0.0591
; #@! TA.AperFunction,NonPlated,NPTH,ComponentDrill
T2C0.0689
; #@! TA.AperFunction,NonPlated,NPTH,ComponentDrill
T3C0.0709
; #@! TA.AperFunction,NonPlated,NPTH,ComponentDrill
T4C0.1200
; #@! TA.AperFunction,NonPlated,NPTH,ComponentDrill
T5C0.1201
; #@! TA.AperFunction,NonPlated,NPTH,ComponentDrill
T6C0.1570
; #@! TA.AperFunction,NonPlated,NPTH,ComponentDrill
T7C0.1575
%
G90
G05
T1
X2.9638Y-6.8148
X2.9638Y-7.0057
T2
X2.9407Y-2.9841
X3.0345Y-5.9841
X3.1282Y-3.7341
X3.222Y-4.4841
X3.3407Y-2.9841
X3.4095Y-5.2341
X3.4345Y-5.9841
X3.5282Y-3.7341
X3.622Y-4.4841
X3.6907Y-2.9841
X3.8095Y-5.2341
X3.972Y-5.9841
X4.0657Y-3.7341
X4.0907Y-2.9841
X4.2532Y-4.4841
X4.372Y-5.9841
X4.4407Y-2.9841
X4.4657Y-3.7341
X4.6282Y-5.2341
X4.6532Y-4.4841
X4.8157Y-3.7341
X4.8407Y-2.9841
X4.9095Y-5.9841
X5.0032Y-4.4841
X5.0282Y-5.2341
X5.1907Y-2.9841
X5.2157Y-3.7341
X5.3095Y-5.9841
X5.3782Y-5.2341
X5.4032Y-4.4841
X5.5657Y-3.7341
X5.5907Y-2.9841
X5.7532Y-4.4841
X5.7782Y-5.2341
X5.9407Y-2.9841
X5.9657Y-3.7341
X6.1282Y-5.2341
X6.1532Y-4.4841
X6.3157Y-3.7341
X6.3407Y-2.9841
X6.5032Y-4.4841
X6.5282Y-5.2341
X6.6907Y-2.9841
X6.7157Y-3.7341
X6.7377Y-7.0077
X6.8782Y-5.2341
X6.9032Y-4.4841
X7.0657Y-3.7341
X7.0907Y-2.9841
X7.1377Y-7.0077
X7.2532Y-4.4841
X7.2782Y-5.2341
X7.4407Y-2.9841
X7.4657Y-3.7341
X7.6282Y-5.2341
X7.6532Y-4.4841
X7.722Y-5.9841
X7.8157Y-3.7341
X7.8407Y-2.9841
X8.0032Y-4.4841
X8.0282Y-5.2341
X8.122Y-5.9841
X8.1907Y-2.9841
X8.2157Y-3.7341
X8.3782Y-5.2341
X8.4032Y-4.4841
X8.5657Y-3.7341
X8.5907Y-2.9841
X8.7062Y-7.0077
X8.7532Y-4.4841
X8.7782Y-5.2341
X8.9407Y-2.9841
X8.9657Y-3.7341
X9.1062Y-7.0077
X9.1282Y-5.2341
X9.1532Y-4.4841
X9.3157Y-3.7341
X9.3407Y-2.9841
X9.5032Y-4.4841
X9.5282Y-5.2341
X9.6907Y-2.9841
X9.7157Y-3.7341
X9.8782Y-5.2341
X9.9032Y-4.4841
X10.0657Y-3.7341
X10.0907Y-2.9841
X10.2532Y-4.4841
X10.2782Y-5.2341
X10.4407Y-2.9841
X10.4407Y-5.9841
X10.4657Y-3.7341
X10.6282Y-5.2341
X10.6532Y-4.4841
X10.8157Y-3.7341
X10.8407Y-2.9841
X10.8407Y-5.9841
X11.0032Y-4.4841
X11.0282Y-5.2341
X11.1907Y-2.9841
X11.1907Y-5.9841
X11.2157Y-3.7341
X11.3782Y-5.2341
X11.4032Y-4.4841
X11.5657Y-3.7341
X11.5907Y-2.9841
X11.5907Y-5.9841
X11.7532Y-4.4841
X11.7782Y-5.2341
X11.9407Y-2.9841
X11.9407Y-5.9841
X11.9657Y-3.7341
X12.1532Y-4.4841
X12.3157Y-3.7341
X12.3407Y-2.9841
X12.3407Y-5.9841
X12.6907Y-5.9841
X12.7157Y-3.7341
X12.7845Y-5.2341
X12.972Y-4.4841
X13.0657Y-2.9841
X13.0907Y-5.9841
X13.1845Y-5.2341
X13.2532Y-3.7341
X13.372Y-4.4841
X13.4407Y-5.9841
X13.4657Y-2.9841
X13.6532Y-3.7341
X13.8407Y-5.9841
X14.1907Y-3.7341
X14.1907Y-4.4841
X14.1907Y-5.2341
X14.1907Y-5.9841
X14.5907Y-3.7341
X14.5907Y-4.4841
X14.5907Y-5.2341
X14.5907Y-5.9841
T3
X2.8445Y-6.803
X2.8445Y-7.0175
T4
X3.1395Y-5.5091
X4.0795Y-5.5091
X5.9535Y-6.2591
X9.8905Y-6.2591
X12.5145Y-5.5091
X12.702Y-4.7591
X12.7957Y-3.2591
X13.4545Y-5.5091
X13.642Y-4.7591
X13.7357Y-3.2591
T5
X3.0407Y-3.1841
X3.1345Y-6.1841
X3.2282Y-3.9341
X3.2907Y-3.0841
X3.322Y-4.6841
X3.3845Y-6.0841
X3.4782Y-3.8341
X3.5095Y-5.4341
X3.572Y-4.5841
X3.7595Y-5.3341
X3.7907Y-3.1841
X4.0407Y-3.0841
X4.072Y-6.1841
X4.1657Y-3.9341
X4.322Y-6.0841
X4.3532Y-4.6841
X4.4157Y-3.8341
X4.5407Y-3.1841
X4.6032Y-4.5841
X4.7282Y-5.4341
X4.7907Y-3.0841
X4.9157Y-3.9341
X4.9782Y-5.3341
X5.0095Y-6.1841
X5.1032Y-4.6841
X5.1657Y-3.8341
X5.2595Y-6.0841
X5.2907Y-3.1841
X5.3532Y-4.5841
X5.4782Y-5.4341
X5.5407Y-3.0841
X5.6657Y-3.9341
X5.7282Y-5.3341
X5.8532Y-4.6841
X5.9157Y-3.8341
X6.0407Y-3.1841
X6.1032Y-4.5841
X6.2282Y-5.4341
X6.2907Y-3.0841
X6.4157Y-3.9341
X6.4782Y-5.3341
X6.6032Y-4.6841
X6.6657Y-3.8341
X6.7907Y-3.1841
X6.8377Y-7.2077
X6.8532Y-4.5841
X6.9782Y-5.4341
X7.0407Y-3.0841
X7.0877Y-7.1077
X7.1657Y-3.9341
X7.2282Y-5.3341
X7.3532Y-4.6841
X7.4157Y-3.8341
X7.5407Y-3.1841
X7.6032Y-4.5841
X7.7282Y-5.4341
X7.7907Y-3.0841
X7.822Y-6.1841
X7.9157Y-3.9341
X7.9782Y-5.3341
X8.072Y-6.0841
X8.1032Y-4.6841
X8.1657Y-3.8341
X8.2907Y-3.1841
X8.3532Y-4.5841
X8.4782Y-5.4341
X8.5407Y-3.0841
X8.6657Y-3.9341
X8.7282Y-5.3341
X8.8063Y-7.2077
X8.8532Y-4.6841
X8.9157Y-3.8341
X9.0407Y-3.1841
X9.0563Y-7.1077
X9.1032Y-4.5841
X9.2282Y-5.4341
X9.2907Y-3.0841
X9.4157Y-3.9341
X9.4782Y-5.3341
X9.6032Y-4.6841
X9.6657Y-3.8341
X9.7907Y-3.1841
X9.8532Y-4.5841
X9.9782Y-5.4341
X10.0407Y-3.0841
X10.1657Y-3.9341
X10.2282Y-5.3341
X10.3532Y-4.6841
X10.4157Y-3.8341
X10.5407Y-3.1841
X10.5407Y-6.1841
X10.6032Y-4.5841
X10.7282Y-5.4341
X10.7907Y-3.0841
X10.7907Y-6.0841
X10.9157Y-3.9341
X10.9782Y-5.3341
X11.1032Y-4.6841
X11.1657Y-3.8341
X11.2907Y-3.1841
X11.2907Y-6.1841
X11.3532Y-4.5841
X11.4782Y-5.4341
X11.5407Y-3.0841
X11.5407Y-6.0841
X11.6657Y-3.9341
X11.7282Y-5.3341
X11.8532Y-4.6841
X11.9157Y-3.8341
X12.0407Y-3.1841
X12.0407Y-6.1841
X12.1032Y-4.5841
X12.2907Y-3.0841
X12.2907Y-6.0841
X12.4157Y-3.9341
X12.6657Y-3.8341
X12.7907Y-6.1841
X12.8845Y-5.4341
X13.0407Y-6.0841
X13.072Y-4.6841
X13.1345Y-5.3341
X13.1657Y-3.1841
X13.322Y-4.5841
X13.3532Y-3.9341
X13.4157Y-3.0841
X13.5407Y-6.1841
X13.6032Y-3.8341
X13.7907Y-6.0841
X14.2907Y-3.9341
X14.2907Y-4.6841
X14.2907Y-5.4341
X14.2907Y-6.1841
X14.5407Y-3.8341
X14.5407Y-4.5841
X14.5407Y-5.3341
X14.5407Y-6.0841
T6
X3.1395Y-4.9102
X4.0795Y-4.9102
X5.9535Y-5.6602
X9.8905Y-5.6602
X12.5145Y-4.9102
X12.702Y-4.1602
X12.7957Y-2.6602
X13.4545Y-4.9102
X13.642Y-4.1602
X13.7357Y-2.6602
T7
X3.1407Y-2.9841
X3.2345Y-5.9841
X3.3282Y-3.7341
X3.422Y-4.4841
X3.6095Y-5.2341
X3.8907Y-2.9841
X4.172Y-5.9841
X4.2657Y-3.7341
X4.4532Y-4.4841
X4.6407Y-2.9841
X4.8282Y-5.2341
X5.0157Y-3.7341
X5.1095Y-5.9841
X5.2032Y-4.4841
X5.3907Y-2.9841
X5.5782Y-5.2341
X5.7657Y-3.7341
X5.9532Y-4.4841
X6.1407Y-2.9841
X6.3282Y-5.2341
X6.5157Y-3.7341
X6.7032Y-4.4841
X6.8907Y-2.9841
X6.9377Y-7.0077
X7.0782Y-5.2341
X7.2657Y-3.7341
X7.4532Y-4.4841
X7.6407Y-2.9841
X7.8282Y-5.2341
X7.922Y-5.9841
X8.0157Y-3.7341
X8.2032Y-4.4841
X8.3907Y-2.9841
X8.5782Y-5.2341
X8.7657Y-3.7341
X8.9062Y-7.0077
X8.9532Y-4.4841
X9.1407Y-2.9841
X9.3282Y-5.2341
X9.5157Y-3.7341
X9.7032Y-4.4841
X9.8907Y-2.9841
X10.0782Y-5.2341
X10.2657Y-3.7341
X10.4532Y-4.4841
X10.6407Y-2.9841
X10.6407Y-5.9841
X10.8282Y-5.2341
X11.0157Y-3.7341
X11.2032Y-4.4841
X11.3907Y-2.9841
X11.3907Y-5.9841
X11.5782Y-5.2341
X11.7657Y-3.7341
X11.9532Y-4.4841
X12.1407Y-2.9841
X12.1407Y-5.9841
X12.5157Y-3.7341
X12.8907Y-5.9841
X12.9845Y-5.2341
X13.172Y-4.4841
X13.2657Y-2.9841
X13.4532Y-3.7341
X13.6407Y-5.9841
X14.3907Y-3.7341
X14.3907Y-4.4841
X14.3907Y-5.2341
X14.3907Y-5.9841
T0
M30
