M48
; DRILL file {KiCad (6.0.5)} date Sun May 29 22:26:53 2022
; FORMAT={-:-/ absolute / inch / decimal}
; #@! TF.CreationDate,2022-05-29T22:26:53-04:00
; #@! TF.GenerationSoftware,Kicad,Pcbnew,(6.0.5)
; #@! TF.FileFunction,Plated,1,2,PTH
FMAT,2
INCH
; #@! TA.AperFunction,Plated,PTH,ViaDrill
T1C0.0157
; #@! TA.AperFunction,Plated,PTH,ComponentDrill
T2C0.0315
; #@! TA.AperFunction,Plated,PTH,ComponentDrill
T3C0.0350
; #@! TA.AperFunction,Plated,PTH,ComponentDrill
T4C0.0354
; #@! TA.AperFunction,Plated,PTH,ComponentDrill
T5C0.0394
; #@! TA.AperFunction,Plated,PTH,ComponentDrill
T6C0.0402
; #@! TA.AperFunction,Plated,PTH,ComponentDrill
T7C0.0550
; #@! TA.AperFunction,Plated,PTH,ComponentDrill
T8C0.1024
%
G90
G05
T1
X1.4831Y-2.974
X1.4831Y-3.1335
X1.4831Y-3.2931
X1.4831Y-3.4526
X1.4831Y-3.6122
X1.4831Y-3.7717
X1.4831Y-3.9312
X1.4831Y-4.0908
X1.4831Y-4.2503
X1.4831Y-4.4098
X1.4831Y-4.5694
X1.4831Y-4.7289
X1.4831Y-4.8884
X1.4831Y-5.048
X1.4831Y-5.2075
X1.4831Y-5.367
X1.4831Y-5.5266
X1.4831Y-5.6861
X1.4831Y-5.8456
X1.4831Y-6.0052
X1.4831Y-6.1647
X1.4831Y-6.3242
X1.4831Y-6.4838
X1.4831Y-6.6433
X1.4831Y-6.8028
X1.4831Y-6.9624
X1.4831Y-7.1219
X1.4831Y-7.2814
X1.4831Y-7.441
X1.4831Y-7.6005
X1.4831Y-7.76
X1.4831Y-7.9196
X1.4831Y-8.0791
X1.4831Y-8.2386
X1.4831Y-8.3982
X1.4831Y-8.5577
X1.4831Y-8.7172
X1.4831Y-8.8768
X1.613Y-2.9421
X1.6382Y-8.8768
X1.7657Y-7.0531
X1.8256Y-2.9421
X1.8599Y-8.8768
X1.872Y-3.913
X2.0382Y-2.9421
X2.0817Y-8.8768
X2.2507Y-2.9421
X2.3034Y-8.8768
X2.3616Y-4.3294
X2.4633Y-2.9421
X2.4813Y-4.7718
X2.5252Y-8.8768
X2.6759Y-2.9421
X2.7469Y-8.8768
X2.8885Y-2.9421
X2.9686Y-8.8768
X3.1011Y-2.9421
X3.1904Y-8.8768
X3.3137Y-2.9421
X3.4121Y-8.8768
X3.5263Y-2.9421
X3.6339Y-8.8768
X3.7388Y-2.9421
X3.8Y-6.9423
X3.8556Y-8.8768
X3.9514Y-2.9421
X4.0773Y-8.8768
X4.164Y-2.9421
X4.2991Y-8.8768
X4.3766Y-2.9421
X4.4846Y-6.8709
X4.5208Y-8.8768
X4.5892Y-2.9421
X4.7426Y-8.8768
X4.8018Y-2.9421
X4.9643Y-8.8768
X5.0144Y-2.9421
X5.186Y-8.8768
X5.2269Y-2.9421
X5.4078Y-8.8768
X5.4224Y-6.8476
X5.4395Y-2.9421
X5.6295Y-8.8768
X5.6521Y-2.9421
X5.8513Y-8.8768
X5.8647Y-2.9421
X6.073Y-8.8768
X6.0773Y-2.9421
X6.2899Y-2.9421
X6.2948Y-8.8768
X6.362Y-6.8478
X6.362Y-7.1073
X6.5025Y-2.9421
X6.5165Y-8.8768
X6.715Y-2.9421
X6.7382Y-8.8768
X6.9276Y-2.9421
X6.96Y-8.8768
X7.1402Y-2.9421
X7.1817Y-8.8768
X7.3528Y-2.9421
X7.4035Y-8.8768
X7.5654Y-2.9421
X7.6252Y-8.8768
X7.778Y-2.9421
X7.8469Y-8.8768
X7.9906Y-2.9421
X8.0687Y-8.8768
X8.2031Y-2.9421
X8.2904Y-8.8768
X8.4157Y-2.9421
X8.5122Y-8.8768
X8.6283Y-2.9421
X8.7339Y-8.8768
X8.8409Y-2.9421
X8.9556Y-8.8768
X9.0535Y-2.9421
X9.1774Y-8.8768
X9.2661Y-2.9421
X9.3991Y-8.8768
X9.4787Y-2.9421
X9.6209Y-8.8768
X9.6912Y-2.9421
X9.8426Y-8.8768
X9.9038Y-2.9421
X10.0644Y-8.8768
X10.1164Y-2.9421
X10.2861Y-8.8768
X10.329Y-2.9421
X10.5078Y-8.8768
X10.5416Y-2.9421
X10.7296Y-8.8768
X10.7542Y-2.9421
X10.9513Y-8.8768
X10.9668Y-2.9421
X11.0402Y-6.8992
X11.1731Y-8.8768
X11.1793Y-2.9421
X11.3783Y-3.9098
X11.3919Y-2.9421
X11.3948Y-8.8768
X11.6045Y-2.9421
X11.6165Y-8.8768
X11.8171Y-2.9421
X11.8383Y-8.8768
X12.0091Y-7.4791
X12.0297Y-2.9421
X12.06Y-8.8768
X12.0819Y-7.176
X12.2423Y-2.9421
X12.2818Y-8.8768
X12.3311Y-5.8969
X12.4549Y-2.9421
X12.5035Y-8.8768
X12.6674Y-2.9421
X12.6815Y-3.9618
X12.7252Y-8.8768
X12.7831Y-3.7449
X12.7831Y-3.9323
X12.8461Y-3.9307
X12.8783Y-4.302
X12.88Y-2.9421
X12.947Y-8.8768
X12.9591Y-7.5701
X13.0224Y-7.5768
X13.0386Y-6.0287
X13.0386Y-6.2807
X13.0677Y-3.9484
X13.0926Y-2.9421
X13.0993Y-7.5836
X13.1687Y-8.8768
X13.2866Y-4.7102
X13.3008Y-5.6012
X13.3052Y-2.9421
X13.3905Y-8.8768
X13.4799Y-4.7606
X13.5178Y-2.9421
X13.6122Y-8.8768
X13.7304Y-2.9421
X13.8339Y-8.8768
X13.887Y-3.9799
X13.943Y-2.9421
X14.0539Y-5.6969
X14.0557Y-8.8768
X14.1555Y-2.9421
X14.2185Y-5.532
X14.2774Y-8.8768
X14.3681Y-2.9421
X14.4992Y-8.8768
X14.5807Y-2.9421
X14.7209Y-8.8768
X14.7933Y-2.9421
T2
X2.2795Y-3.3461
X2.2795Y-3.6461
X2.2795Y-4.0961
X2.2795Y-4.3961
X2.2795Y-7.8461
X2.2795Y-8.1461
X2.3733Y-7.0961
X2.3733Y-7.3961
X2.3819Y-6.1307
X2.467Y-4.8461
X2.467Y-5.1461
X2.5608Y-5.5961
X2.5608Y-5.8961
X2.6819Y-6.1307
X3.0295Y-4.0961
X3.0295Y-4.3961
X3.0295Y-7.8461
X3.0295Y-8.1461
X3.3108Y-7.0961
X3.3108Y-7.3961
X3.4045Y-4.8461
X3.4045Y-5.1461
X3.592Y-5.5961
X3.592Y-5.8961
X3.7795Y-4.0961
X3.7795Y-4.3961
X3.7795Y-7.8461
X3.7795Y-8.1461
X3.967Y-6.3461
X3.967Y-6.6461
X4.1545Y-4.8461
X4.1545Y-5.1461
X4.2483Y-7.0961
X4.2483Y-7.3961
X4.342Y-5.5961
X4.342Y-5.8961
X4.5295Y-4.0961
X4.5295Y-4.3961
X4.717Y-6.3461
X4.717Y-6.6461
X4.9045Y-4.8461
X4.9045Y-5.1461
X5.092Y-5.5961
X5.092Y-5.8961
X5.2795Y-4.0961
X5.2795Y-4.3961
X5.467Y-6.3461
X5.467Y-6.6461
X5.6545Y-4.8461
X5.6545Y-5.1461
X5.842Y-5.5961
X5.842Y-5.8961
X6.0295Y-4.0961
X6.0295Y-4.3961
X6.217Y-6.3461
X6.217Y-6.6461
X6.4045Y-4.8461
X6.4045Y-5.1461
X6.592Y-5.5961
X6.592Y-5.8961
X6.7795Y-4.0961
X6.7795Y-4.3961
X6.967Y-6.3461
X6.967Y-6.6461
X7.0608Y-7.0961
X7.0608Y-7.3961
X7.1545Y-4.8461
X7.1545Y-5.1461
X7.2197Y-7.7469
X7.2197Y-8.0469
X7.342Y-5.5961
X7.342Y-5.8961
X7.5295Y-4.0961
X7.5295Y-4.3961
X7.717Y-6.3461
X7.717Y-6.6461
X7.9045Y-4.8461
X7.9045Y-5.1461
X8.092Y-5.5961
X8.092Y-5.8961
X8.2795Y-4.0961
X8.2795Y-4.3961
X8.467Y-6.3461
X8.467Y-6.6461
X8.6545Y-4.8461
X8.6545Y-5.1461
X8.842Y-5.5961
X8.842Y-5.8961
X9.0295Y-4.0961
X9.0295Y-4.3961
X9.217Y-6.3461
X9.217Y-6.6461
X9.4045Y-4.8461
X9.4045Y-5.1461
X9.592Y-5.5961
X9.592Y-5.8961
X9.7795Y-4.0961
X9.7795Y-4.3961
X9.7795Y-7.0961
X9.7795Y-7.3961
X9.967Y-6.3461
X9.967Y-6.6461
X10.1545Y-4.8461
X10.1545Y-5.1461
X10.342Y-5.5961
X10.342Y-5.8961
X10.5295Y-4.0961
X10.5295Y-4.3961
X10.5295Y-7.0961
X10.5295Y-7.3961
X10.717Y-6.3461
X10.717Y-6.6461
X10.9045Y-4.8461
X10.9045Y-5.1461
X11.092Y-5.5961
X11.092Y-5.8961
X11.2795Y-4.0961
X11.2795Y-4.3961
X11.2795Y-7.0961
X11.2795Y-7.3961
X11.5594Y-3.3827
X11.5594Y-3.5024
X11.5594Y-3.6209
X11.5594Y-3.7394
X11.6545Y-4.8461
X11.6545Y-5.1461
X11.7483Y-6.3461
X11.7483Y-6.6461
X11.9594Y-3.3827
X11.9594Y-3.5024
X11.9594Y-3.6209
X11.9594Y-3.7394
X12.0295Y-7.0961
X12.0295Y-7.3961
X12.592Y-4.8461
X12.592Y-5.1461
X12.6311Y-5.5961
X12.6311Y-5.8961
X12.7193Y-4.0969
X12.7193Y-4.3969
X12.7791Y-5.8287
X12.7791Y-6.1287
X12.7795Y-6.3461
X12.7795Y-6.6461
X12.7795Y-7.0961
X12.7795Y-7.3961
T3
X6.289Y-8.2645
X6.289Y-8.3645
X6.289Y-8.4645
X6.589Y-7.9645
X6.689Y-7.9645
X6.789Y-7.9645
T4
X6.989Y-8.2395
X6.989Y-8.4895
X7.189Y-8.2395
X7.189Y-8.4895
T5
X12.11Y-3.4453
X12.11Y-3.5437
X12.11Y-3.6421
X12.6809Y-3.4453
X12.6809Y-3.6421
X13.887Y-5.9616
X13.9348Y-5.4797
X13.987Y-5.9616
X14.0348Y-5.4797
X14.087Y-5.9616
X14.1348Y-5.4797
X14.187Y-5.9616
T6
X13.685Y-3.3022
X13.685Y-3.4022
X13.685Y-3.5022
X13.685Y-3.6022
X13.685Y-3.7022
X13.685Y-3.8022
X13.685Y-3.9022
X13.685Y-4.0022
X13.685Y-4.1022
X13.685Y-4.2022
X13.685Y-4.3022
X13.685Y-4.4022
X13.685Y-4.5022
X13.685Y-4.6022
X13.685Y-4.7022
X13.685Y-4.8022
X13.685Y-4.9022
X13.685Y-5.0022
X13.685Y-5.1022
X13.685Y-5.2022
X13.935Y-5.1931
X14.035Y-5.1931
X14.135Y-5.1931
X14.385Y-3.3022
X14.385Y-3.4022
X14.385Y-3.5022
X14.385Y-3.6022
X14.385Y-3.7022
X14.385Y-3.8022
X14.385Y-3.9022
X14.385Y-4.0022
X14.385Y-4.1022
X14.385Y-4.2022
X14.385Y-4.3022
X14.385Y-4.4022
X14.385Y-4.5022
X14.385Y-4.6022
X14.385Y-4.7022
X14.385Y-4.8022
X14.385Y-4.9022
X14.385Y-5.0022
X14.385Y-5.1022
X14.385Y-5.2022
T7
X6.4265Y-8.0645
X6.4265Y-8.6645
X6.9515Y-8.0645
X6.9515Y-8.6645
T8
X12.4053Y-3.3232
X12.4053Y-3.7642
T0
M30
