M48
; DRILL file {KiCad (6.0.5)} date Tue May 31 00:14:33 2022
; FORMAT={-:-/ absolute / inch / decimal}
; #@! TF.CreationDate,2022-05-31T00:14:33-04:00
; #@! TF.GenerationSoftware,Kicad,Pcbnew,(6.0.5)
; #@! TF.FileFunction,Plated,1,2,PTH
FMAT,2
INCH
; #@! TA.AperFunction,Plated,PTH,ViaDrill
T1C0.0157
; #@! TA.AperFunction,Plated,PTH,ComponentDrill
T2C0.0315
; #@! TA.AperFunction,Plated,PTH,ComponentDrill
T3C0.0350
; #@! TA.AperFunction,Plated,PTH,ComponentDrill
T4C0.0354
; #@! TA.AperFunction,Plated,PTH,ComponentDrill
T5C0.0394
; #@! TA.AperFunction,Plated,PTH,ComponentDrill
T6C0.0402
; #@! TA.AperFunction,Plated,PTH,ComponentDrill
T7C0.0550
; #@! TA.AperFunction,Plated,PTH,ComponentDrill
T8C0.1024
; #@! TA.AperFunction,Plated,PTH,ComponentDrill
T9C0.1260
%
G90
G05
T1
X3.5028Y-7.587
X3.5894Y-6.4098
X3.7654Y-6.7681
X3.9929Y-6.3669
X4.0927Y-5.7872
X4.1094Y-6.9591
X4.1362Y-6.7118
X4.165Y-7.5492
X4.4197Y-6.7144
X4.4618Y-6.6502
X4.4654Y-7.4547
X4.4661Y-6.9591
X4.4787Y-6.8571
X4.5213Y-7.6421
X4.5417Y-7.548
X4.6394Y-7.587
X4.6673Y-7.1472
X4.6764Y-6.0122
X4.8087Y-7.5154
X4.8709Y-7.5193
X4.8965Y-7.4134
X4.9142Y-5.7016
X4.9201Y-7.1472
X4.9378Y-7.4547
X5.1205Y-7.4551
X5.387Y-7.4862
X5.5217Y-6.3496
X5.5445Y-7.5496
X5.6614Y-6.163
X5.7413Y-6.0244
X6.0425Y-6.615
X6.1583Y-5.9831
X6.1894Y-6.163
X6.3988Y-6.6142
X6.5138Y-6.111
X6.7272Y-5.9559
X6.7431Y-6.2412
X6.9555Y-6.8555
X7.0311Y-6.5292
X7.1587Y-6.1606
X7.3902Y-6.1622
X7.65Y-6.6142
X8.7661Y-6.6126
X9.3012Y-4.8563
X9.5854Y-4.8705
X10.363Y-7.0311
X11.2272Y-5.5559
X12.6965Y-5.5913
X12.9134Y-7.3197
X13.2811Y-4.8563
X13.2945Y-6.9496
X13.2988Y-6.8469
X13.4425Y-7.1657
X13.6933Y-6.7327
X14.1154Y-6.9496
X14.1165Y-6.8469
X14.2504Y-4.2689
X14.2701Y-3.6756
X14.3386Y-6.9701
T2
X3.5157Y-2.7872
X3.5157Y-3.0872
X3.6095Y-5.7872
X3.6095Y-6.0872
X3.7032Y-3.5372
X3.7032Y-3.8372
X3.797Y-4.2872
X3.797Y-4.5872
X4.2657Y-2.7872
X4.2657Y-3.0872
X4.352Y-5.0362
X4.352Y-5.3362
X4.547Y-5.7872
X4.547Y-6.0872
X4.6407Y-3.5372
X4.6407Y-3.8372
X4.8282Y-4.2872
X4.8282Y-4.5872
X5.0157Y-2.7872
X5.0157Y-3.0872
X5.2032Y-5.0372
X5.2032Y-5.3372
X5.2217Y-6.9059
X5.2217Y-7.3059
X5.3907Y-3.5372
X5.3907Y-3.8372
X5.4845Y-5.7872
X5.4845Y-6.0872
X5.5782Y-4.2872
X5.5782Y-4.5872
X5.7657Y-2.7872
X5.7657Y-3.0872
X5.9532Y-5.0372
X5.9532Y-5.3372
X6.1407Y-3.5372
X6.1407Y-3.8372
X6.3282Y-4.2872
X6.3282Y-4.5872
X6.5157Y-2.7872
X6.5157Y-3.0872
X6.7032Y-5.0372
X6.7032Y-5.3372
X6.8907Y-3.5372
X6.8907Y-3.8372
X7.0782Y-4.2872
X7.0782Y-4.5872
X7.2657Y-2.7872
X7.2657Y-3.0872
X7.3127Y-6.8108
X7.3127Y-7.1108
X7.4532Y-5.0372
X7.4532Y-5.3372
X7.6407Y-3.5372
X7.6407Y-3.8372
X7.7713Y-6.3543
X7.8282Y-4.2872
X7.8282Y-4.5872
X8.0157Y-2.7872
X8.0157Y-3.0872
X8.0713Y-6.3543
X8.2032Y-5.0372
X8.2032Y-5.3372
X8.297Y-5.7872
X8.297Y-6.0872
X8.3907Y-3.5372
X8.3907Y-3.8372
X8.5782Y-4.2872
X8.5782Y-4.5872
X8.7657Y-2.7872
X8.7657Y-3.0872
X8.9532Y-5.0372
X8.9532Y-5.3372
X9.1407Y-3.5372
X9.1407Y-3.8372
X9.2812Y-6.8108
X9.2812Y-7.1108
X9.3282Y-4.2872
X9.3282Y-4.5872
X9.5157Y-2.7872
X9.5157Y-3.0872
X9.7032Y-5.0372
X9.7032Y-5.3372
X9.8907Y-3.5372
X9.8907Y-3.8372
X10.0782Y-4.2872
X10.0782Y-4.5872
X10.2657Y-2.7872
X10.2657Y-3.0872
X10.4532Y-5.0372
X10.4532Y-5.3372
X10.6407Y-3.5372
X10.6407Y-3.8372
X10.8282Y-4.2872
X10.8282Y-4.5872
X11.0157Y-2.7872
X11.0157Y-3.0872
X11.0157Y-5.7872
X11.0157Y-6.0872
X11.2032Y-5.0372
X11.2032Y-5.3372
X11.3907Y-3.5372
X11.3907Y-3.8372
X11.5782Y-4.2872
X11.5782Y-4.5872
X11.7657Y-2.7872
X11.7657Y-3.0872
X11.7657Y-5.7872
X11.7657Y-6.0872
X11.9532Y-5.0372
X11.9532Y-5.3372
X12.1407Y-3.5372
X12.1407Y-3.8372
X12.3282Y-4.2872
X12.3282Y-4.5872
X12.5157Y-2.7872
X12.5157Y-3.0872
X12.5157Y-5.7872
X12.5157Y-6.0872
X12.7079Y-6.6453
X12.7079Y-6.7686
X12.7079Y-6.892
X12.7079Y-7.0154
X12.8907Y-3.5372
X12.8907Y-3.8372
X13.1079Y-6.6453
X13.1079Y-6.7686
X13.1079Y-6.892
X13.1079Y-7.0154
X13.2657Y-5.7872
X13.2657Y-6.0872
X13.7744Y-5.0358
X13.7744Y-5.3358
X13.8282Y-3.5372
X13.8282Y-3.8372
X13.8551Y-4.2846
X13.8551Y-4.5846
X13.9354Y-2.7872
X13.9354Y-3.0872
X14.015Y-3.5331
X14.015Y-3.8331
X14.0157Y-5.7872
X14.0157Y-6.0872
X14.0181Y-5.0343
X14.0181Y-5.3343
X14.2449Y-3.3583
X14.2472Y-4.1079
X14.2547Y-5.6079
X14.5449Y-3.3583
X14.5472Y-4.1079
X14.5547Y-5.6079
T3
X7.522Y-6.9077
X7.522Y-7.0077
X7.522Y-7.1077
X7.822Y-7.4077
X7.922Y-7.4077
X8.022Y-7.4077
T4
X7.797Y-6.5077
X7.797Y-6.7077
X8.047Y-6.5077
X8.047Y-6.7077
T5
X4.9787Y-6.81
X4.9787Y-6.91
X4.9787Y-7.01
X5.4012Y-6.8118
X5.4012Y-6.9118
X5.4012Y-7.0118
X14.0386Y-6.4917
X14.0963Y-2.8864
X14.0963Y-2.9848
X14.0963Y-3.0833
X14.1386Y-6.4917
X14.2386Y-6.4917
X14.3386Y-6.4917
X14.6671Y-2.8864
X14.6671Y-3.0833
T6
X2.8394Y-6.5602
X2.8394Y-7.2602
X2.9394Y-6.5602
X2.9394Y-7.2602
X3.0394Y-6.5602
X3.0394Y-7.2602
X3.1394Y-6.5602
X3.1394Y-7.2602
X3.2394Y-6.5602
X3.2394Y-7.2602
X3.3394Y-6.5602
X3.3394Y-7.2602
X3.4394Y-6.5602
X3.4394Y-7.2602
X3.5394Y-6.5602
X3.5394Y-7.2602
X3.6394Y-6.5602
X3.6394Y-7.2602
X3.7394Y-6.5602
X3.7394Y-7.2602
X3.8394Y-6.5602
X3.8394Y-7.2602
X3.9394Y-6.5602
X3.9394Y-7.2602
X4.0394Y-6.5602
X4.0394Y-7.2602
X4.1394Y-6.5602
X4.1394Y-7.2602
X4.2394Y-6.5602
X4.2394Y-7.2602
X4.3394Y-6.5602
X4.3394Y-7.2602
X4.4394Y-6.5602
X4.4394Y-7.2602
X4.5394Y-6.5602
X4.5394Y-7.2602
X4.6394Y-6.5602
X4.6394Y-7.2602
X4.7303Y-6.8102
X4.7303Y-6.9102
X4.7303Y-7.0102
X4.7394Y-6.5602
X4.7394Y-7.2602
T7
X7.622Y-6.7452
X7.622Y-7.2702
X8.222Y-6.7452
X8.222Y-7.2702
T8
X14.3915Y-2.7644
X14.3915Y-3.2053
T9
X3.1407Y-2.3941
X5.9295Y-7.165
X11.7236Y-6.8378
X14.3907Y-2.3941
T0
M30
