%TF.GenerationSoftware,KiCad,Pcbnew,(6.0.5)*%
%TF.CreationDate,2022-05-29T22:26:07-04:00*%
%TF.ProjectId,pico_keyboard_v1,7069636f-5f6b-4657-9962-6f6172645f76,rev?*%
%TF.SameCoordinates,Original*%
%TF.FileFunction,Soldermask,Top*%
%TF.FilePolarity,Negative*%
%FSLAX46Y46*%
G04 Gerber Fmt 4.6, Leading zero omitted, Abs format (unit mm)*
G04 Created by KiCad (PCBNEW (6.0.5)) date 2022-05-29 22:26:07*
%MOMM*%
%LPD*%
G01*
G04 APERTURE LIST*
G04 Aperture macros list*
%AMRoundRect*
0 Rectangle with rounded corners*
0 $1 Rounding radius*
0 $2 $3 $4 $5 $6 $7 $8 $9 X,Y pos of 4 corners*
0 Add a 4 corners polygon primitive as box body*
4,1,4,$2,$3,$4,$5,$6,$7,$8,$9,$2,$3,0*
0 Add four circle primitives for the rounded corners*
1,1,$1+$1,$2,$3*
1,1,$1+$1,$4,$5*
1,1,$1+$1,$6,$7*
1,1,$1+$1,$8,$9*
0 Add four rect primitives between the rounded corners*
20,1,$1+$1,$2,$3,$4,$5,0*
20,1,$1+$1,$4,$5,$6,$7,0*
20,1,$1+$1,$6,$7,$8,$9,0*
20,1,$1+$1,$8,$9,$2,$3,0*%
G04 Aperture macros list end*
%ADD10O,1.600000X1.600000*%
%ADD11C,1.600000*%
%ADD12C,1.750000*%
%ADD13C,3.050000*%
%ADD14C,4.000000*%
%ADD15RoundRect,0.250000X0.412500X0.650000X-0.412500X0.650000X-0.412500X-0.650000X0.412500X-0.650000X0*%
%ADD16C,3.048000*%
%ADD17C,3.987800*%
%ADD18O,1.500000X1.500000*%
%ADD19O,1.800000X1.800000*%
%ADD20O,1.700000X1.700000*%
%ADD21R,3.500000X1.700000*%
%ADD22R,1.700000X1.700000*%
%ADD23R,1.700000X3.500000*%
%ADD24R,2.000000X2.000000*%
%ADD25C,2.000000*%
%ADD26C,3.200000*%
%ADD27RoundRect,0.250000X-0.412500X-0.650000X0.412500X-0.650000X0.412500X0.650000X-0.412500X0.650000X0*%
%ADD28C,1.778000*%
%ADD29C,2.286000*%
%ADD30R,1.600000X1.600000*%
G04 APERTURE END LIST*
D10*
%TO.C,R1*%
X303770000Y-94980000D03*
D11*
X293610000Y-94980000D03*
%TD*%
%TO.C,R2*%
X293610000Y-91970000D03*
D10*
X303770000Y-91970000D03*
%TD*%
D11*
%TO.C,R4*%
X303770000Y-88960000D03*
D10*
X293610000Y-88960000D03*
%TD*%
D11*
%TO.C,R3*%
X303770000Y-85920000D03*
D10*
X293610000Y-85920000D03*
%TD*%
D12*
%TO.C,SW68*%
X43295000Y-89990000D03*
D13*
X52185000Y-92530000D03*
D12*
X53455000Y-89990000D03*
D13*
X45835000Y-95070000D03*
D14*
X48375000Y-89990000D03*
%TD*%
D12*
%TO.C,SW41*%
X195695000Y-109040000D03*
D13*
X204585000Y-111580000D03*
D14*
X200775000Y-109040000D03*
D12*
X205855000Y-109040000D03*
D13*
X198235000Y-114120000D03*
%TD*%
%TO.C,SW57*%
X271260000Y-130630000D03*
D12*
X262370000Y-128090000D03*
D13*
X264910000Y-133170000D03*
D12*
X272530000Y-128090000D03*
D14*
X267450000Y-128090000D03*
%TD*%
D13*
%TO.C,SW24*%
X142672499Y-149680000D03*
D12*
X143942499Y-147140000D03*
D14*
X138862499Y-147140000D03*
D13*
X136322499Y-152220000D03*
D12*
X133782499Y-147140000D03*
%TD*%
D14*
%TO.C,SW48*%
X234112500Y-147140000D03*
D13*
X237922500Y-149680000D03*
D12*
X229032500Y-147140000D03*
X239192500Y-147140000D03*
D13*
X231572500Y-152220000D03*
%TD*%
D12*
%TO.C,SW59*%
X283801250Y-166190000D03*
D14*
X288881250Y-166190000D03*
D13*
X286341250Y-171270000D03*
D12*
X293961250Y-166190000D03*
D13*
X292691250Y-168730000D03*
%TD*%
D15*
%TO.C,C2*%
X375322500Y-111740000D03*
X372197500Y-111740000D03*
%TD*%
D12*
%TO.C,SW60*%
X271895000Y-185240000D03*
D14*
X276975000Y-185240000D03*
D13*
X280785000Y-187780000D03*
D12*
X282055000Y-185240000D03*
D13*
X274435000Y-190320000D03*
%TD*%
D16*
%TO.C,REF\u002A\u002A*%
X293612000Y-116025000D03*
X317488000Y-116025000D03*
D17*
X317488000Y-100815000D03*
X293612000Y-100815000D03*
%TD*%
D14*
%TO.C,SW53*%
X253162500Y-147140000D03*
D12*
X248082500Y-147140000D03*
D13*
X250622500Y-152220000D03*
X256972500Y-149680000D03*
D12*
X258242500Y-147140000D03*
%TD*%
D14*
%TO.C,SW31*%
X169818750Y-185240000D03*
D13*
X167278750Y-190320000D03*
D12*
X164738750Y-185240000D03*
D13*
X173628750Y-187780000D03*
D12*
X174898750Y-185240000D03*
%TD*%
D13*
%TO.C,SW7*%
X71235000Y-111580000D03*
D12*
X62345000Y-109040000D03*
X72505000Y-109040000D03*
D14*
X67425000Y-109040000D03*
D13*
X64885000Y-114120000D03*
%TD*%
D12*
%TO.C,SW15*%
X105207500Y-166190000D03*
X115367500Y-166190000D03*
D14*
X110287500Y-166190000D03*
D13*
X114097500Y-168730000D03*
X107747500Y-171270000D03*
%TD*%
D18*
%TO.C,U2*%
X358915000Y-87035000D03*
D19*
X359215000Y-84005000D03*
D18*
X354065000Y-87035000D03*
D19*
X353765000Y-84005000D03*
D20*
X347600000Y-83875000D03*
D21*
X346700000Y-83875000D03*
X346700000Y-86415000D03*
D20*
X347600000Y-86415000D03*
D21*
X346700000Y-88955000D03*
D22*
X347600000Y-88955000D03*
D20*
X347600000Y-91495000D03*
D21*
X346700000Y-91495000D03*
D20*
X347600000Y-94035000D03*
D21*
X346700000Y-94035000D03*
D20*
X347600000Y-96575000D03*
D21*
X346700000Y-96575000D03*
D20*
X347600000Y-99115000D03*
D21*
X346700000Y-99115000D03*
X346700000Y-101655000D03*
D22*
X347600000Y-101655000D03*
D20*
X347600000Y-104195000D03*
D21*
X346700000Y-104195000D03*
X346700000Y-106735000D03*
D20*
X347600000Y-106735000D03*
D21*
X346700000Y-109275000D03*
D20*
X347600000Y-109275000D03*
X347600000Y-111815000D03*
D21*
X346700000Y-111815000D03*
D22*
X347600000Y-114355000D03*
D21*
X346700000Y-114355000D03*
D20*
X347600000Y-116895000D03*
D21*
X346700000Y-116895000D03*
D20*
X347600000Y-119435000D03*
D21*
X346700000Y-119435000D03*
X346700000Y-121975000D03*
D20*
X347600000Y-121975000D03*
D21*
X346700000Y-124515000D03*
D20*
X347600000Y-124515000D03*
D21*
X346700000Y-127055000D03*
D22*
X347600000Y-127055000D03*
D21*
X346700000Y-129595000D03*
D20*
X347600000Y-129595000D03*
X347600000Y-132135000D03*
D21*
X346700000Y-132135000D03*
X366280000Y-132135000D03*
D20*
X365380000Y-132135000D03*
D21*
X366280000Y-129595000D03*
D20*
X365380000Y-129595000D03*
D22*
X365380000Y-127055000D03*
D21*
X366280000Y-127055000D03*
X366280000Y-124515000D03*
D20*
X365380000Y-124515000D03*
X365380000Y-121975000D03*
D21*
X366280000Y-121975000D03*
X366280000Y-119435000D03*
D20*
X365380000Y-119435000D03*
X365380000Y-116895000D03*
D21*
X366280000Y-116895000D03*
D22*
X365380000Y-114355000D03*
D21*
X366280000Y-114355000D03*
X366280000Y-111815000D03*
D20*
X365380000Y-111815000D03*
D21*
X366280000Y-109275000D03*
D20*
X365380000Y-109275000D03*
D21*
X366280000Y-106735000D03*
D20*
X365380000Y-106735000D03*
X365380000Y-104195000D03*
D21*
X366280000Y-104195000D03*
D22*
X365380000Y-101655000D03*
D21*
X366280000Y-101655000D03*
D20*
X365380000Y-99115000D03*
D21*
X366280000Y-99115000D03*
D20*
X365380000Y-96575000D03*
D21*
X366280000Y-96575000D03*
D20*
X365380000Y-94035000D03*
D21*
X366280000Y-94035000D03*
D20*
X365380000Y-91495000D03*
D21*
X366280000Y-91495000D03*
X366280000Y-88955000D03*
D22*
X365380000Y-88955000D03*
D20*
X365380000Y-86415000D03*
D21*
X366280000Y-86415000D03*
X366280000Y-83875000D03*
D20*
X365380000Y-83875000D03*
X353950000Y-131905000D03*
D23*
X353950000Y-132805000D03*
D22*
X356490000Y-131905000D03*
D23*
X356490000Y-132805000D03*
D20*
X359030000Y-131905000D03*
D23*
X359030000Y-132805000D03*
%TD*%
D12*
%TO.C,SW54*%
X267767500Y-166190000D03*
D13*
X260147500Y-171270000D03*
D14*
X262687500Y-166190000D03*
D13*
X266497500Y-168730000D03*
D12*
X257607500Y-166190000D03*
%TD*%
D14*
%TO.C,SW50*%
X257925000Y-185240000D03*
D12*
X252845000Y-185240000D03*
D13*
X255385000Y-190320000D03*
D12*
X263005000Y-185240000D03*
D13*
X261735000Y-187780000D03*
%TD*%
%TO.C,SW32*%
X166484999Y-111580000D03*
D14*
X162674999Y-109040000D03*
D12*
X157594999Y-109040000D03*
D13*
X160134999Y-114120000D03*
D12*
X167754999Y-109040000D03*
%TD*%
%TO.C,SW46*%
X214745000Y-109040000D03*
D13*
X217285000Y-114120000D03*
D12*
X224905000Y-109040000D03*
D13*
X223635000Y-111580000D03*
D14*
X219825000Y-109040000D03*
%TD*%
D13*
%TO.C,SW69*%
X318885000Y-187780000D03*
D14*
X315075000Y-185240000D03*
D12*
X309995000Y-185240000D03*
D13*
X312535000Y-190320000D03*
D12*
X320155000Y-185240000D03*
%TD*%
D16*
%TO.C,REF\u002A\u002A*%
X315106750Y-154125000D03*
X291230750Y-154125000D03*
D17*
X291230750Y-138915000D03*
X315106750Y-138915000D03*
%TD*%
D13*
%TO.C,SW2*%
X45835000Y-114120000D03*
D12*
X43295000Y-109040000D03*
X53455000Y-109040000D03*
D13*
X52185000Y-111580000D03*
D14*
X48375000Y-109040000D03*
%TD*%
%TO.C,SW29*%
X157912499Y-147140000D03*
D12*
X152832499Y-147140000D03*
X162992499Y-147140000D03*
D13*
X155372499Y-152220000D03*
X161722499Y-149680000D03*
%TD*%
%TO.C,SW16*%
X95841250Y-190320000D03*
D12*
X103461250Y-185240000D03*
X93301250Y-185240000D03*
D14*
X98381250Y-185240000D03*
D13*
X102191250Y-187780000D03*
%TD*%
%TO.C,SW63*%
X306978750Y-149680000D03*
X300628750Y-152220000D03*
D14*
X303168750Y-147140000D03*
D12*
X308248750Y-147140000D03*
X298088750Y-147140000D03*
%TD*%
D16*
%TO.C,REF\u002A\u002A*%
X119818750Y-192225000D03*
D17*
X119818750Y-177015000D03*
X219818750Y-177015000D03*
D16*
X219818750Y-192225000D03*
%TD*%
D14*
%TO.C,SW12*%
X86475000Y-109040000D03*
D12*
X81395000Y-109040000D03*
D13*
X83935000Y-114120000D03*
X90285000Y-111580000D03*
D12*
X91555000Y-109040000D03*
%TD*%
D24*
%TO.C,SW1*%
X307595000Y-87509999D03*
D25*
X307595000Y-92509999D03*
X307595000Y-90009999D03*
D26*
X315095000Y-84409999D03*
X315095000Y-95609999D03*
D25*
X322095000Y-92509999D03*
X322095000Y-87509999D03*
%TD*%
D13*
%TO.C,SW64*%
X318885000Y-168730000D03*
D12*
X320155000Y-166190000D03*
X309995000Y-166190000D03*
D13*
X312535000Y-171270000D03*
D14*
X315075000Y-166190000D03*
%TD*%
%TO.C,SW36*%
X86475000Y-204290000D03*
D12*
X81395000Y-204290000D03*
D13*
X90285000Y-206830000D03*
X83935000Y-209370000D03*
D12*
X91555000Y-204290000D03*
%TD*%
%TO.C,SW13*%
X101080000Y-128090000D03*
D13*
X99810000Y-130630000D03*
D14*
X96000000Y-128090000D03*
D12*
X90920000Y-128090000D03*
D13*
X93460000Y-133170000D03*
%TD*%
D14*
%TO.C,SW10*%
X91237500Y-166190000D03*
D12*
X86157500Y-166190000D03*
D13*
X88697500Y-171270000D03*
D12*
X96317500Y-166190000D03*
D13*
X95047500Y-168730000D03*
%TD*%
D12*
%TO.C,SW66*%
X300470000Y-109040000D03*
D13*
X303010000Y-114120000D03*
D12*
X310630000Y-109040000D03*
D13*
X309360000Y-111580000D03*
D14*
X305550000Y-109040000D03*
%TD*%
D12*
%TO.C,SW42*%
X215380000Y-128090000D03*
D13*
X214110000Y-130630000D03*
D12*
X205220000Y-128090000D03*
D14*
X210300000Y-128090000D03*
D13*
X207760000Y-133170000D03*
%TD*%
%TO.C,SW65*%
X293485000Y-190320000D03*
X299835000Y-187780000D03*
D12*
X301105000Y-185240000D03*
D14*
X296025000Y-185240000D03*
D12*
X290945000Y-185240000D03*
%TD*%
D13*
%TO.C,SW61*%
X274435000Y-114120000D03*
D12*
X282055000Y-109040000D03*
X271895000Y-109040000D03*
D13*
X280785000Y-111580000D03*
D14*
X276975000Y-109040000D03*
%TD*%
D12*
%TO.C,SW3*%
X48057500Y-128090000D03*
D13*
X50597500Y-133170000D03*
X56947500Y-130630000D03*
D12*
X58217500Y-128090000D03*
D14*
X53137500Y-128090000D03*
%TD*%
D13*
%TO.C,SW26*%
X71235000Y-206830000D03*
X64885000Y-209370000D03*
D12*
X72505000Y-204290000D03*
X62345000Y-204290000D03*
D14*
X67425000Y-204290000D03*
%TD*%
D13*
%TO.C,SW30*%
X171247500Y-168730000D03*
D14*
X167437500Y-166190000D03*
D13*
X164897500Y-171270000D03*
D12*
X172517500Y-166190000D03*
X162357500Y-166190000D03*
%TD*%
%TO.C,SW9*%
X76632500Y-147140000D03*
D13*
X85522500Y-149680000D03*
D14*
X81712500Y-147140000D03*
D13*
X79172500Y-152220000D03*
D12*
X86792500Y-147140000D03*
%TD*%
%TO.C,SW56*%
X263005000Y-109040000D03*
X252845000Y-109040000D03*
D14*
X257925000Y-109040000D03*
D13*
X261735000Y-111580000D03*
X255385000Y-114120000D03*
%TD*%
D14*
%TO.C,SW28*%
X153150000Y-128090000D03*
D12*
X148070000Y-128090000D03*
X158230000Y-128090000D03*
D13*
X156960000Y-130630000D03*
X150610000Y-133170000D03*
%TD*%
%TO.C,SW19*%
X117272499Y-152220000D03*
D14*
X119812499Y-147140000D03*
D12*
X114732499Y-147140000D03*
D13*
X123622499Y-149680000D03*
D12*
X124892499Y-147140000D03*
%TD*%
%TO.C,SW44*%
X229667500Y-166190000D03*
D13*
X228397500Y-168730000D03*
D12*
X219507500Y-166190000D03*
D13*
X222047500Y-171270000D03*
D14*
X224587500Y-166190000D03*
%TD*%
D12*
%TO.C,SW35*%
X191567500Y-166190000D03*
D13*
X183947500Y-171270000D03*
X190297500Y-168730000D03*
D12*
X181407500Y-166190000D03*
D14*
X186487500Y-166190000D03*
%TD*%
D12*
%TO.C,SW43*%
X220142500Y-147140000D03*
D13*
X218872500Y-149680000D03*
X212522500Y-152220000D03*
D14*
X215062500Y-147140000D03*
D12*
X209982500Y-147140000D03*
%TD*%
%TO.C,SW8*%
X82030000Y-128090000D03*
D13*
X74410000Y-133170000D03*
X80760000Y-130630000D03*
D14*
X76950000Y-128090000D03*
D12*
X71870000Y-128090000D03*
%TD*%
D13*
%TO.C,SW18*%
X112510000Y-133170000D03*
X118860000Y-130630000D03*
D12*
X120130000Y-128090000D03*
X109970000Y-128090000D03*
D14*
X115050000Y-128090000D03*
%TD*%
D13*
%TO.C,SW34*%
X174422499Y-152220000D03*
D12*
X171882499Y-147140000D03*
X182042499Y-147140000D03*
D14*
X176962499Y-147140000D03*
D13*
X180772499Y-149680000D03*
%TD*%
D14*
%TO.C,SW40*%
X205537500Y-166190000D03*
D12*
X210617500Y-166190000D03*
D13*
X209347500Y-168730000D03*
D12*
X200457500Y-166190000D03*
D13*
X202997500Y-171270000D03*
%TD*%
D14*
%TO.C,SW4*%
X55518750Y-147140000D03*
D12*
X50438750Y-147140000D03*
D13*
X52978750Y-152220000D03*
X59328750Y-149680000D03*
D12*
X60598750Y-147140000D03*
%TD*%
D13*
%TO.C,SW49*%
X241097500Y-171270000D03*
D12*
X238557500Y-166190000D03*
D14*
X243637500Y-166190000D03*
D12*
X248717500Y-166190000D03*
D13*
X247447500Y-168730000D03*
%TD*%
D14*
%TO.C,SW45*%
X238875000Y-185240000D03*
D13*
X242685000Y-187780000D03*
D12*
X233795000Y-185240000D03*
X243955000Y-185240000D03*
D13*
X236335000Y-190320000D03*
%TD*%
D22*
%TO.C,J1*%
X352730000Y-151425000D03*
D20*
X355270000Y-151425000D03*
X357810000Y-151425000D03*
X360350000Y-151425000D03*
%TD*%
D12*
%TO.C,SW58*%
X267132500Y-147140000D03*
D13*
X269672500Y-152220000D03*
D12*
X277292500Y-147140000D03*
D13*
X276022500Y-149680000D03*
D14*
X272212500Y-147140000D03*
%TD*%
D13*
%TO.C,SW22*%
X128385000Y-111580000D03*
D14*
X124575000Y-109040000D03*
D12*
X129655000Y-109040000D03*
D13*
X122035000Y-114120000D03*
D12*
X119495000Y-109040000D03*
%TD*%
D13*
%TO.C,SW23*%
X131560000Y-133170000D03*
X137910000Y-130630000D03*
D12*
X139180000Y-128090000D03*
D14*
X134100000Y-128090000D03*
D12*
X129020000Y-128090000D03*
%TD*%
D14*
%TO.C,SW21*%
X48375000Y-204290000D03*
D12*
X43295000Y-204290000D03*
D13*
X45835000Y-209370000D03*
D12*
X53455000Y-204290000D03*
D13*
X52185000Y-206830000D03*
%TD*%
D27*
%TO.C,C1*%
X372267500Y-121940000D03*
X375392500Y-121940000D03*
%TD*%
D12*
%TO.C,SW51*%
X233795000Y-109040000D03*
D13*
X242685000Y-111580000D03*
D14*
X238875000Y-109040000D03*
D12*
X243955000Y-109040000D03*
D13*
X236335000Y-114120000D03*
%TD*%
%TO.C,SW67*%
X314122500Y-130630000D03*
D12*
X315392500Y-128090000D03*
D13*
X307772500Y-133170000D03*
D12*
X305232500Y-128090000D03*
D14*
X310312500Y-128090000D03*
%TD*%
D13*
%TO.C,SW5*%
X64091250Y-168730000D03*
D12*
X65361250Y-166190000D03*
X55201250Y-166190000D03*
D13*
X57741250Y-171270000D03*
D14*
X60281250Y-166190000D03*
%TD*%
D12*
%TO.C,SW11*%
X79648750Y-185240000D03*
D14*
X74568750Y-185240000D03*
D13*
X72028750Y-190320000D03*
X78378750Y-187780000D03*
D12*
X69488750Y-185240000D03*
%TD*%
D22*
%TO.C,J2*%
X359025000Y-139185000D03*
D20*
X356485000Y-139185000D03*
X353945000Y-139185000D03*
%TD*%
D12*
%TO.C,SW38*%
X186170000Y-128090000D03*
D14*
X191250000Y-128090000D03*
D13*
X195060000Y-130630000D03*
X188710000Y-133170000D03*
D12*
X196330000Y-128090000D03*
%TD*%
D28*
%TO.C,U1*%
X182600000Y-209283719D03*
X182600000Y-215633719D03*
X177520000Y-209283719D03*
X177520000Y-215633719D03*
X159740000Y-209918719D03*
X159740000Y-212458719D03*
X159740000Y-214998719D03*
D29*
X176567500Y-204838719D03*
X163232500Y-204838719D03*
X163232500Y-220078719D03*
X176567500Y-220078719D03*
D28*
X172440000Y-202298719D03*
X169900000Y-202298719D03*
X167360000Y-202298719D03*
%TD*%
D17*
%TO.C,REF\u002A\u002A*%
X48343250Y-157965000D03*
D16*
X48343250Y-173175000D03*
D17*
X72219250Y-157965000D03*
D16*
X72219250Y-173175000D03*
%TD*%
D14*
%TO.C,SW47*%
X229350000Y-128090000D03*
D13*
X233160000Y-130630000D03*
D12*
X224270000Y-128090000D03*
D13*
X226810000Y-133170000D03*
D12*
X234430000Y-128090000D03*
%TD*%
D14*
%TO.C,SW27*%
X143624999Y-109040000D03*
D13*
X141084999Y-114120000D03*
D12*
X148704999Y-109040000D03*
D13*
X147434999Y-111580000D03*
D12*
X138544999Y-109040000D03*
%TD*%
%TO.C,SW33*%
X167120000Y-128090000D03*
D13*
X169660000Y-133170000D03*
D14*
X172200000Y-128090000D03*
D13*
X176010000Y-130630000D03*
D12*
X177280000Y-128090000D03*
%TD*%
D13*
%TO.C,SW62*%
X283960000Y-133170000D03*
D12*
X281420000Y-128090000D03*
D14*
X286500000Y-128090000D03*
D13*
X290310000Y-130630000D03*
D12*
X291580000Y-128090000D03*
%TD*%
D14*
%TO.C,SW52*%
X248400000Y-128090000D03*
D13*
X245860000Y-133170000D03*
X252210000Y-130630000D03*
D12*
X253480000Y-128090000D03*
X243320000Y-128090000D03*
%TD*%
D14*
%TO.C,SW37*%
X181725000Y-109040000D03*
D12*
X176645000Y-109040000D03*
D13*
X179185000Y-114120000D03*
X185535000Y-111580000D03*
D12*
X186805000Y-109040000D03*
%TD*%
D13*
%TO.C,SW6*%
X54566250Y-187780000D03*
D12*
X55836250Y-185240000D03*
D13*
X48216250Y-190320000D03*
D12*
X45676250Y-185240000D03*
D14*
X50756250Y-185240000D03*
%TD*%
D12*
%TO.C,SW25*%
X143307500Y-166190000D03*
X153467500Y-166190000D03*
D14*
X148387500Y-166190000D03*
D13*
X145847500Y-171270000D03*
X152197500Y-168730000D03*
%TD*%
%TO.C,SW14*%
X104572499Y-149680000D03*
D14*
X100762499Y-147140000D03*
D12*
X95682499Y-147140000D03*
X105842499Y-147140000D03*
D13*
X98222499Y-152220000D03*
%TD*%
%TO.C,SW17*%
X102985000Y-114120000D03*
D12*
X100445000Y-109040000D03*
D13*
X109335000Y-111580000D03*
D12*
X110605000Y-109040000D03*
D14*
X105525000Y-109040000D03*
%TD*%
D13*
%TO.C,SW39*%
X199822500Y-149680000D03*
X193472500Y-152220000D03*
D12*
X201092500Y-147140000D03*
X190932500Y-147140000D03*
D14*
X196012500Y-147140000D03*
%TD*%
D13*
%TO.C,SW20*%
X126797500Y-171270000D03*
D12*
X134417500Y-166190000D03*
D13*
X133147500Y-168730000D03*
D14*
X129337500Y-166190000D03*
D12*
X124257500Y-166190000D03*
%TD*%
D30*
%TO.C,D40*%
X205537500Y-142140000D03*
D10*
X205537500Y-149760000D03*
%TD*%
D30*
%TO.C,D5*%
X65043750Y-142140000D03*
D10*
X65043750Y-149760000D03*
%TD*%
D30*
%TO.C,D22*%
X57900000Y-199290000D03*
D10*
X57900000Y-206910000D03*
%TD*%
D30*
%TO.C,D55*%
X272212500Y-161190000D03*
D10*
X272212500Y-168810000D03*
%TD*%
D30*
%TO.C,D63*%
X296025000Y-123090000D03*
D10*
X296025000Y-130710000D03*
%TD*%
D30*
%TO.C,D31*%
X176962500Y-161190000D03*
D10*
X176962500Y-168810000D03*
%TD*%
D30*
%TO.C,D43*%
X219825000Y-123090000D03*
D10*
X219825000Y-130710000D03*
%TD*%
D30*
%TO.C,D18*%
X115050000Y-104040000D03*
D10*
X115050000Y-111660000D03*
%TD*%
D30*
%TO.C,D2*%
X324590000Y-155670000D03*
D10*
X324590000Y-148050000D03*
%TD*%
D30*
%TO.C,D51*%
X267450000Y-180240000D03*
D10*
X267450000Y-187860000D03*
%TD*%
D30*
%TO.C,D12*%
X84093750Y-180240000D03*
D10*
X84093750Y-187860000D03*
%TD*%
D30*
%TO.C,D42*%
X210300000Y-104040000D03*
D10*
X210300000Y-111660000D03*
%TD*%
D30*
%TO.C,D53*%
X257925000Y-123090000D03*
D10*
X257925000Y-130710000D03*
%TD*%
D30*
%TO.C,D58*%
X276975000Y-123090000D03*
D10*
X276975000Y-130710000D03*
%TD*%
D30*
%TO.C,D9*%
X86475000Y-123090000D03*
D10*
X86475000Y-130710000D03*
%TD*%
D30*
%TO.C,D49*%
X243637500Y-142140000D03*
D10*
X243637500Y-149760000D03*
%TD*%
D30*
%TO.C,D7*%
X60281250Y-180240000D03*
D10*
X60281250Y-187860000D03*
%TD*%
D30*
%TO.C,D11*%
X100762500Y-161190000D03*
D10*
X100762500Y-168810000D03*
%TD*%
D30*
%TO.C,D70*%
X324600000Y-180240000D03*
D10*
X324600000Y-187860000D03*
%TD*%
D30*
%TO.C,D25*%
X148387500Y-142140000D03*
D10*
X148387500Y-149760000D03*
%TD*%
D30*
%TO.C,D61*%
X286500000Y-180240000D03*
D10*
X286500000Y-187860000D03*
%TD*%
D30*
%TO.C,D21*%
X138862500Y-161190000D03*
D10*
X138862500Y-168810000D03*
%TD*%
D30*
%TO.C,D6*%
X68120000Y-155720000D03*
D10*
X60500000Y-155720000D03*
%TD*%
D30*
%TO.C,D8*%
X76950000Y-104040000D03*
D10*
X76950000Y-111660000D03*
%TD*%
D30*
%TO.C,D52*%
X248400000Y-104040000D03*
D10*
X248400000Y-111660000D03*
%TD*%
D30*
%TO.C,D27*%
X76950000Y-199290000D03*
D10*
X76950000Y-206910000D03*
%TD*%
D30*
%TO.C,D36*%
X196012500Y-161190000D03*
D10*
X196012500Y-168810000D03*
%TD*%
D30*
%TO.C,D69*%
X57900000Y-84990000D03*
D10*
X57900000Y-92610000D03*
%TD*%
D30*
%TO.C,D1*%
X183380000Y-196770000D03*
D10*
X183380000Y-204390000D03*
%TD*%
D30*
%TO.C,D68*%
X319837500Y-123090000D03*
D10*
X319837500Y-130710000D03*
%TD*%
D30*
%TO.C,D13*%
X96000000Y-104040000D03*
D10*
X96000000Y-111660000D03*
%TD*%
D30*
%TO.C,D50*%
X253162500Y-161190000D03*
D10*
X253162500Y-168810000D03*
%TD*%
D30*
%TO.C,D28*%
X153150000Y-104040000D03*
D10*
X153150000Y-111660000D03*
%TD*%
D30*
%TO.C,D26*%
X157912500Y-161190000D03*
D10*
X157912500Y-168810000D03*
%TD*%
D30*
%TO.C,D46*%
X248400000Y-180240000D03*
D10*
X248400000Y-187860000D03*
%TD*%
D30*
%TO.C,D34*%
X181725000Y-123090000D03*
D10*
X181725000Y-130710000D03*
%TD*%
D30*
%TO.C,D17*%
X107906250Y-180240000D03*
D10*
X107906250Y-187860000D03*
%TD*%
D30*
%TO.C,D23*%
X134100000Y-104040000D03*
D10*
X134100000Y-111660000D03*
%TD*%
D30*
%TO.C,D24*%
X143625000Y-123090000D03*
D10*
X143625000Y-130710000D03*
%TD*%
D30*
%TO.C,D20*%
X129337500Y-142140000D03*
D10*
X129337500Y-149760000D03*
%TD*%
D30*
%TO.C,D33*%
X172200000Y-104040000D03*
D10*
X172200000Y-111660000D03*
%TD*%
D30*
%TO.C,D64*%
X320830000Y-142140000D03*
D10*
X320830000Y-149760000D03*
%TD*%
D30*
%TO.C,D32*%
X179343750Y-180240000D03*
D10*
X179343750Y-187860000D03*
%TD*%
D30*
%TO.C,D66*%
X305550000Y-180240000D03*
D10*
X305550000Y-187860000D03*
%TD*%
D30*
%TO.C,D44*%
X224587500Y-142140000D03*
D10*
X224587500Y-149760000D03*
%TD*%
D30*
%TO.C,D15*%
X110287500Y-142140000D03*
D10*
X110287500Y-149760000D03*
%TD*%
D30*
%TO.C,D62*%
X286500000Y-104040000D03*
D10*
X286500000Y-111660000D03*
%TD*%
D30*
%TO.C,D67*%
X323070000Y-104060000D03*
D10*
X323070000Y-111680000D03*
%TD*%
D30*
%TO.C,D54*%
X262687500Y-142140000D03*
D10*
X262687500Y-149760000D03*
%TD*%
D30*
%TO.C,D37*%
X96000000Y-199290000D03*
D10*
X96000000Y-206910000D03*
%TD*%
D30*
%TO.C,D14*%
X105525000Y-123090000D03*
D10*
X105525000Y-130710000D03*
%TD*%
D30*
%TO.C,D45*%
X234112500Y-161190000D03*
D10*
X234112500Y-168810000D03*
%TD*%
D30*
%TO.C,D19*%
X124575000Y-123090000D03*
D10*
X124575000Y-130710000D03*
%TD*%
D30*
%TO.C,D41*%
X215062500Y-161190000D03*
D10*
X215062500Y-168810000D03*
%TD*%
D30*
%TO.C,D60*%
X298406250Y-161190000D03*
D10*
X298406250Y-168810000D03*
%TD*%
D30*
%TO.C,D57*%
X267450000Y-104040000D03*
D10*
X267450000Y-111660000D03*
%TD*%
D30*
%TO.C,D35*%
X186487500Y-142140000D03*
D10*
X186487500Y-149760000D03*
%TD*%
D30*
%TO.C,D3*%
X57900000Y-104040000D03*
D10*
X57900000Y-111660000D03*
%TD*%
D30*
%TO.C,D29*%
X162675000Y-123090000D03*
D10*
X162675000Y-130710000D03*
%TD*%
D30*
%TO.C,D59*%
X281737500Y-142140000D03*
D10*
X281737500Y-149760000D03*
%TD*%
D30*
%TO.C,D30*%
X167437499Y-142140000D03*
D10*
X167437499Y-149760000D03*
%TD*%
D30*
%TO.C,D47*%
X229350000Y-104040000D03*
D10*
X229350000Y-111660000D03*
%TD*%
D30*
%TO.C,D16*%
X119812500Y-161190000D03*
D10*
X119812500Y-168810000D03*
%TD*%
D30*
%TO.C,D48*%
X238875000Y-123090000D03*
D10*
X238875000Y-130710000D03*
%TD*%
D30*
%TO.C,D65*%
X324600000Y-161190000D03*
D10*
X324600000Y-168810000D03*
%TD*%
D30*
%TO.C,D39*%
X200775000Y-123090000D03*
D10*
X200775000Y-130710000D03*
%TD*%
D30*
%TO.C,D4*%
X62662500Y-123090000D03*
D10*
X62662500Y-130710000D03*
%TD*%
D30*
%TO.C,D38*%
X191250000Y-104040000D03*
D10*
X191250000Y-111660000D03*
%TD*%
D30*
%TO.C,D10*%
X91237499Y-142140000D03*
D10*
X91237499Y-149760000D03*
%TD*%
M02*
