%TF.GenerationSoftware,KiCad,Pcbnew,(6.0.5)*%
%TF.CreationDate,2022-06-12T15:36:10-04:00*%
%TF.ProjectId,pico_keyboard_v1,7069636f-5f6b-4657-9962-6f6172645f76,rev?*%
%TF.SameCoordinates,Original*%
%TF.FileFunction,Soldermask,Top*%
%TF.FilePolarity,Negative*%
%FSLAX46Y46*%
G04 Gerber Fmt 4.6, Leading zero omitted, Abs format (unit mm)*
G04 Created by KiCad (PCBNEW (6.0.5)) date 2022-06-12 15:36:10*
%MOMM*%
%LPD*%
G01*
G04 APERTURE LIST*
G04 Aperture macros list*
%AMRoundRect*
0 Rectangle with rounded corners*
0 $1 Rounding radius*
0 $2 $3 $4 $5 $6 $7 $8 $9 X,Y pos of 4 corners*
0 Add a 4 corners polygon primitive as box body*
4,1,4,$2,$3,$4,$5,$6,$7,$8,$9,$2,$3,0*
0 Add four circle primitives for the rounded corners*
1,1,$1+$1,$2,$3*
1,1,$1+$1,$4,$5*
1,1,$1+$1,$6,$7*
1,1,$1+$1,$8,$9*
0 Add four rect primitives between the rounded corners*
20,1,$1+$1,$2,$3,$4,$5,0*
20,1,$1+$1,$4,$5,$6,$7,0*
20,1,$1+$1,$6,$7,$8,$9,0*
20,1,$1+$1,$8,$9,$2,$3,0*%
G04 Aperture macros list end*
%ADD10C,4.500000*%
%ADD11C,5.700000*%
%ADD12C,3.048000*%
%ADD13C,3.987800*%
%ADD14O,1.800000X1.800000*%
%ADD15O,1.500000X1.500000*%
%ADD16O,1.700000X1.700000*%
%ADD17R,1.700000X1.700000*%
%ADD18C,1.778000*%
%ADD19C,2.286000*%
%ADD20C,1.750000*%
%ADD21C,4.000000*%
%ADD22C,3.050000*%
%ADD23R,2.000000X2.000000*%
%ADD24C,2.000000*%
%ADD25C,3.200000*%
%ADD26C,1.600000*%
%ADD27O,1.600000X1.600000*%
%ADD28R,1.600000X1.600000*%
%ADD29RoundRect,0.250000X0.412500X0.650000X-0.412500X0.650000X-0.412500X-0.650000X0.412500X-0.650000X0*%
G04 APERTURE END LIST*
D10*
X204950000Y-181300000D03*
X174000000Y-181300000D03*
D11*
X55000000Y-204250000D03*
X366800000Y-204250000D03*
X366800000Y-85000000D03*
X55000000Y-85000000D03*
D12*
X139468750Y-158740000D03*
X239468750Y-158740000D03*
D13*
X139468750Y-173950000D03*
X239468750Y-173950000D03*
D12*
X325168250Y-139690000D03*
X349044250Y-139690000D03*
D13*
X325168250Y-154900000D03*
X349044250Y-154900000D03*
D12*
X87043250Y-139690000D03*
X110919250Y-139690000D03*
D13*
X87043250Y-154900000D03*
X110919250Y-154900000D03*
D12*
X329930750Y-120640000D03*
X353806750Y-120640000D03*
D13*
X329930750Y-135850000D03*
X353806750Y-135850000D03*
D12*
X332312000Y-82540000D03*
X356188000Y-82540000D03*
D13*
X332312000Y-97750000D03*
X356188000Y-97750000D03*
D14*
X52000000Y-191975000D03*
X52000000Y-186525000D03*
D15*
X55030000Y-186825000D03*
X55030000Y-191675000D03*
D16*
X51870000Y-180360000D03*
X54410000Y-180360000D03*
D17*
X56950000Y-180360000D03*
D16*
X59490000Y-180360000D03*
X62030000Y-180360000D03*
X64570000Y-180360000D03*
X67110000Y-180360000D03*
D17*
X69650000Y-180360000D03*
D16*
X72190000Y-180360000D03*
X74730000Y-180360000D03*
X77270000Y-180360000D03*
X79810000Y-180360000D03*
D17*
X82350000Y-180360000D03*
D16*
X84890000Y-180360000D03*
X87430000Y-180360000D03*
X89970000Y-180360000D03*
X92510000Y-180360000D03*
D17*
X95050000Y-180360000D03*
D16*
X97590000Y-180360000D03*
X100130000Y-180360000D03*
X100130000Y-198140000D03*
X97590000Y-198140000D03*
D17*
X95050000Y-198140000D03*
D16*
X92510000Y-198140000D03*
X89970000Y-198140000D03*
X87430000Y-198140000D03*
X84890000Y-198140000D03*
D17*
X82350000Y-198140000D03*
D16*
X79810000Y-198140000D03*
X77270000Y-198140000D03*
X74730000Y-198140000D03*
X72190000Y-198140000D03*
D17*
X69650000Y-198140000D03*
D16*
X67110000Y-198140000D03*
X64570000Y-198140000D03*
X62030000Y-198140000D03*
X59490000Y-198140000D03*
D17*
X56950000Y-198140000D03*
D16*
X54410000Y-198140000D03*
X51870000Y-198140000D03*
X99900000Y-186710000D03*
D17*
X99900000Y-189250000D03*
D16*
X99900000Y-191790000D03*
D18*
X186293750Y-179025000D03*
X192643750Y-179025000D03*
X186293750Y-184105000D03*
X192643750Y-184105000D03*
X186928750Y-201885000D03*
X189468750Y-201885000D03*
X192008750Y-201885000D03*
D19*
X181848750Y-185057500D03*
X181848750Y-198392500D03*
X197088750Y-198392500D03*
X197088750Y-185057500D03*
D18*
X179308750Y-189185000D03*
X179308750Y-191725000D03*
X179308750Y-194265000D03*
D20*
X358855000Y-165725000D03*
D21*
X353775000Y-165725000D03*
D22*
X349965000Y-163185000D03*
X356315000Y-160645000D03*
D20*
X348695000Y-165725000D03*
X73105000Y-108575000D03*
D21*
X68025000Y-108575000D03*
D22*
X64215000Y-106035000D03*
X70565000Y-103495000D03*
D20*
X62945000Y-108575000D03*
D22*
X351552500Y-103495000D03*
D20*
X343932500Y-108575000D03*
D22*
X345202500Y-106035000D03*
D21*
X349012500Y-108575000D03*
D20*
X354092500Y-108575000D03*
X339170000Y-89525000D03*
D22*
X340440000Y-86985000D03*
D21*
X344250000Y-89525000D03*
D22*
X346790000Y-84445000D03*
D20*
X349330000Y-89525000D03*
X339805000Y-165725000D03*
D21*
X334725000Y-165725000D03*
D22*
X330915000Y-163185000D03*
X337265000Y-160645000D03*
D20*
X329645000Y-165725000D03*
X320755000Y-165725000D03*
D21*
X315675000Y-165725000D03*
D22*
X311865000Y-163185000D03*
X318215000Y-160645000D03*
D20*
X310595000Y-165725000D03*
D22*
X338058750Y-125085000D03*
D20*
X336788750Y-127625000D03*
D22*
X344408750Y-122545000D03*
D20*
X346948750Y-127625000D03*
D21*
X341868750Y-127625000D03*
D20*
X330280000Y-108575000D03*
D21*
X325200000Y-108575000D03*
D22*
X321390000Y-106035000D03*
X327740000Y-103495000D03*
D20*
X320120000Y-108575000D03*
X320755000Y-89525000D03*
D21*
X315675000Y-89525000D03*
D22*
X311865000Y-86985000D03*
X318215000Y-84445000D03*
D20*
X310595000Y-89525000D03*
X301705000Y-165725000D03*
D21*
X296625000Y-165725000D03*
D22*
X292815000Y-163185000D03*
X299165000Y-160645000D03*
D20*
X291545000Y-165725000D03*
D21*
X337106250Y-146675000D03*
D20*
X342186250Y-146675000D03*
D22*
X339646250Y-141595000D03*
X333296250Y-144135000D03*
D20*
X332026250Y-146675000D03*
X315992500Y-127625000D03*
D21*
X310912500Y-127625000D03*
D22*
X307102500Y-125085000D03*
X313452500Y-122545000D03*
D20*
X305832500Y-127625000D03*
X311230000Y-108575000D03*
D21*
X306150000Y-108575000D03*
D22*
X302340000Y-106035000D03*
X308690000Y-103495000D03*
D20*
X301070000Y-108575000D03*
X301705000Y-89525000D03*
D21*
X296625000Y-89525000D03*
D22*
X292815000Y-86985000D03*
X299165000Y-84445000D03*
D20*
X291545000Y-89525000D03*
X73105000Y-146675000D03*
D21*
X68025000Y-146675000D03*
D22*
X64215000Y-144135000D03*
X70565000Y-141595000D03*
D20*
X62945000Y-146675000D03*
X306467500Y-146675000D03*
D21*
X301387500Y-146675000D03*
D22*
X297577500Y-144135000D03*
X303927500Y-141595000D03*
D20*
X296307500Y-146675000D03*
X296942500Y-127625000D03*
D21*
X291862500Y-127625000D03*
D22*
X288052500Y-125085000D03*
X294402500Y-122545000D03*
D20*
X286782500Y-127625000D03*
X292180000Y-108575000D03*
D21*
X287100000Y-108575000D03*
D22*
X283290000Y-106035000D03*
X289640000Y-103495000D03*
D20*
X282020000Y-108575000D03*
X282655000Y-89525000D03*
D21*
X277575000Y-89525000D03*
D22*
X273765000Y-86985000D03*
X280115000Y-84445000D03*
D20*
X272495000Y-89525000D03*
X282655000Y-165725000D03*
D21*
X277575000Y-165725000D03*
D22*
X273765000Y-163185000D03*
X280115000Y-160645000D03*
D20*
X272495000Y-165725000D03*
X287417500Y-146675000D03*
D21*
X282337500Y-146675000D03*
D22*
X278527500Y-144135000D03*
X284877500Y-141595000D03*
D20*
X277257500Y-146675000D03*
X277892500Y-127625000D03*
D21*
X272812500Y-127625000D03*
D22*
X269002500Y-125085000D03*
X275352500Y-122545000D03*
D20*
X267732500Y-127625000D03*
X273130000Y-108575000D03*
D21*
X268050000Y-108575000D03*
D22*
X264240000Y-106035000D03*
X270590000Y-103495000D03*
D20*
X262970000Y-108575000D03*
X263605000Y-89525000D03*
D21*
X258525000Y-89525000D03*
D22*
X254715000Y-86985000D03*
X261065000Y-84445000D03*
D20*
X253445000Y-89525000D03*
X263604999Y-165725000D03*
D21*
X258524999Y-165725000D03*
D22*
X254714999Y-163185000D03*
X261064999Y-160645000D03*
D20*
X253444999Y-165725000D03*
X268367500Y-146675000D03*
D21*
X263287500Y-146675000D03*
D22*
X259477500Y-144135000D03*
X265827500Y-141595000D03*
D20*
X258207500Y-146675000D03*
X258842500Y-127625000D03*
D21*
X253762500Y-127625000D03*
D22*
X249952500Y-125085000D03*
X256302500Y-122545000D03*
D20*
X248682500Y-127625000D03*
X254080000Y-108575000D03*
D21*
X249000000Y-108575000D03*
D22*
X245190000Y-106035000D03*
X251540000Y-103495000D03*
D20*
X243920000Y-108575000D03*
X244555000Y-89525000D03*
D21*
X239475000Y-89525000D03*
D22*
X235665000Y-86985000D03*
X242015000Y-84445000D03*
D20*
X234395000Y-89525000D03*
X249317500Y-146675000D03*
D21*
X244237500Y-146675000D03*
D22*
X240427500Y-144135000D03*
X246777500Y-141595000D03*
D20*
X239157500Y-146675000D03*
X239792500Y-127625000D03*
D21*
X234712500Y-127625000D03*
D22*
X230902500Y-125085000D03*
X237252500Y-122545000D03*
D20*
X229632500Y-127625000D03*
X235030000Y-108575000D03*
D21*
X229950000Y-108575000D03*
D22*
X226140000Y-106035000D03*
X232490000Y-103495000D03*
D20*
X224870000Y-108575000D03*
X225505000Y-89525000D03*
D21*
X220425000Y-89525000D03*
D22*
X216615000Y-86985000D03*
X222965000Y-84445000D03*
D20*
X215345000Y-89525000D03*
X219548750Y-191725000D03*
D21*
X214468750Y-191725000D03*
D22*
X210658750Y-189185000D03*
X217008750Y-186645000D03*
D20*
X209388750Y-191725000D03*
X230267500Y-146675000D03*
D21*
X225187500Y-146675000D03*
D22*
X221377500Y-144135000D03*
X227727500Y-141595000D03*
D20*
X220107500Y-146675000D03*
X220742500Y-127625000D03*
D21*
X215662500Y-127625000D03*
D22*
X211852500Y-125085000D03*
X218202500Y-122545000D03*
D20*
X210582500Y-127625000D03*
X215980000Y-108575000D03*
D21*
X210900000Y-108575000D03*
D22*
X207090000Y-106035000D03*
X213440000Y-103495000D03*
D20*
X205820000Y-108575000D03*
X206455000Y-89525000D03*
D21*
X201375000Y-89525000D03*
D22*
X197565000Y-86985000D03*
X203915000Y-84445000D03*
D20*
X196295000Y-89525000D03*
D22*
X192008750Y-160645000D03*
D21*
X189468750Y-165725000D03*
D20*
X184388750Y-165725000D03*
D22*
X185658750Y-163185000D03*
D20*
X194548750Y-165725000D03*
X211217500Y-146675000D03*
D21*
X206137500Y-146675000D03*
D22*
X202327500Y-144135000D03*
X208677500Y-141595000D03*
D20*
X201057500Y-146675000D03*
X201692500Y-127625000D03*
D21*
X196612500Y-127625000D03*
D22*
X192802500Y-125085000D03*
X199152500Y-122545000D03*
D20*
X191532500Y-127625000D03*
X196930000Y-108575000D03*
D21*
X191850000Y-108575000D03*
D22*
X188040000Y-106035000D03*
X194390000Y-103495000D03*
D20*
X186770000Y-108575000D03*
X187405000Y-89525000D03*
D21*
X182325000Y-89525000D03*
D22*
X178515000Y-86985000D03*
X184865000Y-84445000D03*
D20*
X177245000Y-89525000D03*
X73105000Y-127625000D03*
D21*
X68025000Y-127625000D03*
D22*
X64215000Y-125085000D03*
X70565000Y-122545000D03*
D20*
X62945000Y-127625000D03*
X192167500Y-146675000D03*
D21*
X187087500Y-146675000D03*
D22*
X183277500Y-144135000D03*
X189627500Y-141595000D03*
D20*
X182007500Y-146675000D03*
X182642500Y-127625000D03*
D21*
X177562500Y-127625000D03*
D22*
X173752500Y-125085000D03*
X180102500Y-122545000D03*
D20*
X172482500Y-127625000D03*
X177880000Y-108575000D03*
D21*
X172800000Y-108575000D03*
D22*
X168990000Y-106035000D03*
X175340000Y-103495000D03*
D20*
X167720000Y-108575000D03*
X168355000Y-89525000D03*
D21*
X163275000Y-89525000D03*
D22*
X159465000Y-86985000D03*
X165815000Y-84445000D03*
D20*
X158195000Y-89525000D03*
X169548750Y-191725000D03*
D21*
X164468750Y-191725000D03*
D22*
X160658750Y-189185000D03*
X167008750Y-186645000D03*
D20*
X159388750Y-191725000D03*
X173117500Y-146675000D03*
D21*
X168037500Y-146675000D03*
D22*
X164227500Y-144135000D03*
X170577500Y-141595000D03*
D20*
X162957500Y-146675000D03*
X163592500Y-127625000D03*
D21*
X158512500Y-127625000D03*
D22*
X154702500Y-125085000D03*
X161052500Y-122545000D03*
D20*
X153432500Y-127625000D03*
X158830000Y-108575000D03*
D21*
X153750000Y-108575000D03*
D22*
X149940000Y-106035000D03*
X156290000Y-103495000D03*
D20*
X148670000Y-108575000D03*
X149305000Y-89525000D03*
D21*
X144225000Y-89525000D03*
D22*
X140415000Y-86985000D03*
X146765000Y-84445000D03*
D20*
X139145000Y-89525000D03*
X123111250Y-165725000D03*
D21*
X118031250Y-165725000D03*
D22*
X120571250Y-160645000D03*
X114221250Y-163185000D03*
D20*
X112951250Y-165725000D03*
X154067500Y-146675000D03*
D21*
X148987500Y-146675000D03*
D22*
X145177500Y-144135000D03*
X151527500Y-141595000D03*
D20*
X143907500Y-146675000D03*
X144542500Y-127625000D03*
D21*
X139462500Y-127625000D03*
D22*
X135652500Y-125085000D03*
X142002500Y-122545000D03*
D20*
X134382500Y-127625000D03*
X139780000Y-108575000D03*
D21*
X134700000Y-108575000D03*
D22*
X130890000Y-106035000D03*
X137240000Y-103495000D03*
D20*
X129620000Y-108575000D03*
X130255000Y-89525000D03*
D21*
X125175000Y-89525000D03*
D22*
X121365000Y-86985000D03*
X127715000Y-84445000D03*
D20*
X120095000Y-89525000D03*
X99298750Y-165725000D03*
D21*
X94218750Y-165725000D03*
D22*
X96758750Y-160645000D03*
X90408750Y-163185000D03*
D20*
X89138750Y-165725000D03*
X135017500Y-146675000D03*
D21*
X129937500Y-146675000D03*
D22*
X126127500Y-144135000D03*
X132477500Y-141595000D03*
D20*
X124857500Y-146675000D03*
X125492500Y-127625000D03*
D21*
X120412500Y-127625000D03*
D22*
X116602500Y-125085000D03*
X122952500Y-122545000D03*
D20*
X115332500Y-127625000D03*
X120730000Y-108575000D03*
D21*
X115650000Y-108575000D03*
D22*
X111840000Y-106035000D03*
X118190000Y-103495000D03*
D20*
X110570000Y-108575000D03*
X111205000Y-89525000D03*
D21*
X106125000Y-89525000D03*
D22*
X102315000Y-86985000D03*
X108665000Y-84445000D03*
D20*
X101045000Y-89525000D03*
X75486250Y-165725000D03*
D21*
X70406250Y-165725000D03*
D22*
X72946250Y-160645000D03*
X66596250Y-163185000D03*
D20*
X65326250Y-165725000D03*
D21*
X98981250Y-146675000D03*
D20*
X104061250Y-146675000D03*
D22*
X101521250Y-141595000D03*
D20*
X93901250Y-146675000D03*
D22*
X95171250Y-144135000D03*
D21*
X94218750Y-127625000D03*
D20*
X99298750Y-127625000D03*
X89138750Y-127625000D03*
D22*
X96758750Y-122545000D03*
X90408750Y-125085000D03*
X94377500Y-103495000D03*
D20*
X86757500Y-108575000D03*
D22*
X88027500Y-106035000D03*
D21*
X91837500Y-108575000D03*
D20*
X96917500Y-108575000D03*
X92155000Y-89525000D03*
D21*
X87075000Y-89525000D03*
D22*
X83265000Y-86985000D03*
X89615000Y-84445000D03*
D20*
X81995000Y-89525000D03*
D23*
X60545000Y-87045000D03*
D24*
X60545000Y-92045000D03*
X60545000Y-89545000D03*
D25*
X68045000Y-83945000D03*
X68045000Y-95145000D03*
D24*
X75045000Y-92045000D03*
X75045000Y-87045000D03*
D26*
X237250000Y-197380000D03*
D27*
X237250000Y-187220000D03*
D26*
X53350000Y-92070000D03*
D27*
X53350000Y-102230000D03*
D26*
X53350000Y-104586666D03*
D27*
X53350000Y-114746666D03*
D26*
X53350000Y-117103332D03*
D27*
X53350000Y-127263332D03*
D26*
X53350000Y-139780000D03*
D27*
X53350000Y-129620000D03*
D17*
X241000000Y-189670000D03*
D16*
X241000000Y-192210000D03*
X241000000Y-194750000D03*
D17*
X104450000Y-191775000D03*
D16*
X104450000Y-189235000D03*
X104450000Y-186695000D03*
D17*
X125688750Y-180225000D03*
D16*
X128228750Y-180225000D03*
X130768750Y-180225000D03*
X133308750Y-180225000D03*
D28*
X344250000Y-170805000D03*
D27*
X344250000Y-163185000D03*
D28*
X58500000Y-113655000D03*
D27*
X58500000Y-106035000D03*
D28*
X339487500Y-113655000D03*
D27*
X339487500Y-106035000D03*
D28*
X327150000Y-94610000D03*
D27*
X327150000Y-86990000D03*
D28*
X325200000Y-170805000D03*
D27*
X325200000Y-163185000D03*
D28*
X306150000Y-170805000D03*
D27*
X306150000Y-163185000D03*
D28*
X323850000Y-132705000D03*
D27*
X323850000Y-125085000D03*
D28*
X315675000Y-113655000D03*
D27*
X315675000Y-106035000D03*
D28*
X306150000Y-94605000D03*
D27*
X306150000Y-86985000D03*
D28*
X287100000Y-170805000D03*
D27*
X287100000Y-163185000D03*
D28*
X317300000Y-151755000D03*
D27*
X317300000Y-144135000D03*
D28*
X301387500Y-132705000D03*
D27*
X301387500Y-125085000D03*
D28*
X296625000Y-113655000D03*
D27*
X296625000Y-106035000D03*
D28*
X287100000Y-94605000D03*
D27*
X287100000Y-86985000D03*
D28*
X58500000Y-151755000D03*
D27*
X58500000Y-144135000D03*
D28*
X291862500Y-151755000D03*
D27*
X291862500Y-144135000D03*
D28*
X282337500Y-132705000D03*
D27*
X282337500Y-125085000D03*
D28*
X277575000Y-113655000D03*
D27*
X277575000Y-106035000D03*
D28*
X268050000Y-94605000D03*
D27*
X268050000Y-86985000D03*
D28*
X268050000Y-170805000D03*
D27*
X268050000Y-163185000D03*
D28*
X272812500Y-151755000D03*
D27*
X272812500Y-144135000D03*
D28*
X263287500Y-132705000D03*
D27*
X263287500Y-125085000D03*
D28*
X258525000Y-113655000D03*
D27*
X258525000Y-106035000D03*
D28*
X249000000Y-94605000D03*
D27*
X249000000Y-86985000D03*
D28*
X248999999Y-170805000D03*
D27*
X248999999Y-163185000D03*
D28*
X253762500Y-151755000D03*
D27*
X253762500Y-144135000D03*
D28*
X244237500Y-132705000D03*
D27*
X244237500Y-125085000D03*
D28*
X239475000Y-113655000D03*
D27*
X239475000Y-106035000D03*
D28*
X229950000Y-94605000D03*
D27*
X229950000Y-86985000D03*
D28*
X234712500Y-151755000D03*
D27*
X234712500Y-144135000D03*
D28*
X225187500Y-132705000D03*
D27*
X225187500Y-125085000D03*
D28*
X220425000Y-113655000D03*
D27*
X220425000Y-106035000D03*
D28*
X210900000Y-94605000D03*
D27*
X210900000Y-86985000D03*
D28*
X204943750Y-196805000D03*
D27*
X204943750Y-189185000D03*
D28*
X215662500Y-151755000D03*
D27*
X215662500Y-144135000D03*
D28*
X206137500Y-132705000D03*
D27*
X206137500Y-125085000D03*
D28*
X201375000Y-113655000D03*
D27*
X201375000Y-106035000D03*
D28*
X191850000Y-94605000D03*
D27*
X191850000Y-86985000D03*
D28*
X179943750Y-170805000D03*
D27*
X179943750Y-163185000D03*
D28*
X196612500Y-151755000D03*
D27*
X196612500Y-144135000D03*
D28*
X187087500Y-132705000D03*
D27*
X187087500Y-125085000D03*
D28*
X182325000Y-113655000D03*
D27*
X182325000Y-106035000D03*
D28*
X172800000Y-94605000D03*
D27*
X172800000Y-86985000D03*
D28*
X58500000Y-132705000D03*
D27*
X58500000Y-125085000D03*
D28*
X177562500Y-151755000D03*
D27*
X177562500Y-144135000D03*
D28*
X168037500Y-132705000D03*
D27*
X168037500Y-125085000D03*
D28*
X163275000Y-113655000D03*
D27*
X163275000Y-106035000D03*
D28*
X153750000Y-94605000D03*
D27*
X153750000Y-86985000D03*
D28*
X154943750Y-196805000D03*
D27*
X154943750Y-189185000D03*
D28*
X158512500Y-151755000D03*
D27*
X158512500Y-144135000D03*
D28*
X148987500Y-132705000D03*
D27*
X148987500Y-125085000D03*
D28*
X144225000Y-113655000D03*
D27*
X144225000Y-106035000D03*
D28*
X134700000Y-94605000D03*
D27*
X134700000Y-86985000D03*
D28*
X108506250Y-170805000D03*
D27*
X108506250Y-163185000D03*
D28*
X139462500Y-151755000D03*
D27*
X139462500Y-144135000D03*
D28*
X129937500Y-132705000D03*
D27*
X129937500Y-125085000D03*
D28*
X125175000Y-113655000D03*
D27*
X125175000Y-106035000D03*
D28*
X115649999Y-94605000D03*
D27*
X115649999Y-86985000D03*
D28*
X84693750Y-170805000D03*
D27*
X84693750Y-163185000D03*
D28*
X120412500Y-151755000D03*
D27*
X120412500Y-144135000D03*
D28*
X110887499Y-132705000D03*
D27*
X110887499Y-125085000D03*
D28*
X106125000Y-113655000D03*
D27*
X106125000Y-106035000D03*
D28*
X96600000Y-94605000D03*
D27*
X96600000Y-86985000D03*
D28*
X60881250Y-170805000D03*
D27*
X60881250Y-163185000D03*
X80750000Y-144135000D03*
D28*
X80750000Y-151755000D03*
X84693750Y-132705000D03*
D27*
X84693750Y-125085000D03*
D28*
X82312500Y-113655000D03*
D27*
X82312500Y-106035000D03*
D28*
X87650000Y-99100000D03*
D27*
X80030000Y-99100000D03*
D28*
X72000000Y-99050000D03*
D27*
X64380000Y-99050000D03*
D28*
X207360000Y-203950000D03*
D27*
X199740000Y-203950000D03*
D29*
X82912500Y-193100000D03*
X79787500Y-193100000D03*
X89962500Y-193100000D03*
X86837500Y-193100000D03*
M02*
