%TF.GenerationSoftware,KiCad,Pcbnew,(6.0.5)*%
%TF.CreationDate,2022-05-31T00:14:22-04:00*%
%TF.ProjectId,pico_keyboard_v1,7069636f-5f6b-4657-9962-6f6172645f76,rev?*%
%TF.SameCoordinates,Original*%
%TF.FileFunction,Paste,Bot*%
%TF.FilePolarity,Positive*%
%FSLAX46Y46*%
G04 Gerber Fmt 4.6, Leading zero omitted, Abs format (unit mm)*
G04 Created by KiCad (PCBNEW (6.0.5)) date 2022-05-31 00:14:22*
%MOMM*%
%LPD*%
G01*
G04 APERTURE LIST*
G04 Aperture macros list*
%AMRoundRect*
0 Rectangle with rounded corners*
0 $1 Rounding radius*
0 $2 $3 $4 $5 $6 $7 $8 $9 X,Y pos of 4 corners*
0 Add a 4 corners polygon primitive as box body*
4,1,4,$2,$3,$4,$5,$6,$7,$8,$9,$2,$3,0*
0 Add four circle primitives for the rounded corners*
1,1,$1+$1,$2,$3*
1,1,$1+$1,$4,$5*
1,1,$1+$1,$6,$7*
1,1,$1+$1,$8,$9*
0 Add four rect primitives between the rounded corners*
20,1,$1+$1,$2,$3,$4,$5,0*
20,1,$1+$1,$4,$5,$6,$7,0*
20,1,$1+$1,$6,$7,$8,$9,0*
20,1,$1+$1,$8,$9,$2,$3,0*%
G04 Aperture macros list end*
%ADD10RoundRect,0.250000X1.025000X1.000000X-1.025000X1.000000X-1.025000X-1.000000X1.025000X-1.000000X0*%
G04 APERTURE END LIST*
D10*
%TO.C,SW8*%
X115435000Y-97385000D03*
X102508000Y-99925000D03*
%TD*%
%TO.C,SW41*%
X239260000Y-78335000D03*
X226333000Y-80875000D03*
%TD*%
%TO.C,SW61*%
X315460000Y-78335000D03*
X302533000Y-80875000D03*
%TD*%
%TO.C,SW57*%
X305935000Y-97385000D03*
X293008000Y-99925000D03*
%TD*%
%TO.C,SW39*%
X234497500Y-116435000D03*
X221570500Y-118975000D03*
%TD*%
%TO.C,SW19*%
X158297499Y-116435000D03*
X145370499Y-118975000D03*
%TD*%
%TO.C,SW18*%
X153535000Y-97385000D03*
X140608000Y-99925000D03*
%TD*%
%TO.C,SW45*%
X277360000Y-154535000D03*
X264433000Y-157075000D03*
%TD*%
%TO.C,SW65*%
X353560000Y-154535000D03*
X340633000Y-157075000D03*
%TD*%
%TO.C,SW60*%
X315460000Y-154535000D03*
X302533000Y-157075000D03*
%TD*%
%TO.C,SW49*%
X282122500Y-135485000D03*
X269195500Y-138025000D03*
%TD*%
%TO.C,SW48*%
X272597500Y-116435000D03*
X259670500Y-118975000D03*
%TD*%
%TO.C,SW7*%
X105910000Y-78335000D03*
X92983000Y-80875000D03*
%TD*%
%TO.C,SW5*%
X98766250Y-135485000D03*
X85839250Y-138025000D03*
%TD*%
%TO.C,SW17*%
X144010000Y-78335000D03*
X131083000Y-80875000D03*
%TD*%
%TO.C,SW66*%
X344035000Y-78335000D03*
X331108000Y-80875000D03*
%TD*%
%TO.C,SW23*%
X172585000Y-97385000D03*
X159658000Y-99925000D03*
%TD*%
%TO.C,SW26*%
X372610000Y-116435000D03*
X359683000Y-118975000D03*
%TD*%
%TO.C,SW32*%
X201159999Y-78335000D03*
X188232999Y-80875000D03*
%TD*%
%TO.C,SW16*%
X136866250Y-154535000D03*
X123939250Y-157075000D03*
%TD*%
%TO.C,SW28*%
X191635000Y-97385000D03*
X178708000Y-99925000D03*
%TD*%
%TO.C,SW53*%
X291647500Y-116435000D03*
X278720500Y-118975000D03*
%TD*%
%TO.C,SW58*%
X310697500Y-116435000D03*
X297770500Y-118975000D03*
%TD*%
%TO.C,SW25*%
X186872500Y-135485000D03*
X173945500Y-138025000D03*
%TD*%
%TO.C,SW51*%
X277360000Y-78335000D03*
X264433000Y-80875000D03*
%TD*%
%TO.C,SW10*%
X129722500Y-135485000D03*
X116795500Y-138025000D03*
%TD*%
%TO.C,SW33*%
X210685000Y-97385000D03*
X197758000Y-99925000D03*
%TD*%
%TO.C,SW21*%
X183303750Y-180535000D03*
X170376750Y-183075000D03*
%TD*%
%TO.C,SW68*%
X372610000Y-97385000D03*
X359683000Y-99925000D03*
%TD*%
%TO.C,SW31*%
X208303750Y-154535000D03*
X195376750Y-157075000D03*
%TD*%
%TO.C,SW42*%
X248785000Y-97385000D03*
X235858000Y-99925000D03*
%TD*%
%TO.C,SW4*%
X94003750Y-116435000D03*
X81076750Y-118975000D03*
%TD*%
%TO.C,SW59*%
X336891250Y-135485000D03*
X323964250Y-138025000D03*
%TD*%
%TO.C,SW15*%
X148772500Y-135485000D03*
X135845500Y-138025000D03*
%TD*%
%TO.C,SW35*%
X224972500Y-135485000D03*
X212045500Y-138025000D03*
%TD*%
%TO.C,SW29*%
X196397499Y-116435000D03*
X183470499Y-118975000D03*
%TD*%
%TO.C,SW43*%
X253547500Y-116435000D03*
X240620500Y-118975000D03*
%TD*%
%TO.C,SW34*%
X215447499Y-116435000D03*
X202520499Y-118975000D03*
%TD*%
%TO.C,SW11*%
X113053750Y-154535000D03*
X100126750Y-157075000D03*
%TD*%
%TO.C,SW2*%
X86860000Y-78335000D03*
X73933000Y-80875000D03*
%TD*%
%TO.C,SW44*%
X263072500Y-135485000D03*
X250145500Y-138025000D03*
%TD*%
%TO.C,SW24*%
X177347499Y-116435000D03*
X164420499Y-118975000D03*
%TD*%
%TO.C,SW54*%
X301172500Y-135485000D03*
X288245500Y-138025000D03*
%TD*%
%TO.C,SW3*%
X91622500Y-97385000D03*
X78695500Y-99925000D03*
%TD*%
%TO.C,SW30*%
X205922500Y-135485000D03*
X192995500Y-138025000D03*
%TD*%
%TO.C,SW22*%
X163060000Y-78335000D03*
X150133000Y-80875000D03*
%TD*%
%TO.C,SW6*%
X89241250Y-154535000D03*
X76314250Y-157075000D03*
%TD*%
%TO.C,SW55*%
X372610000Y-135485000D03*
X359683000Y-138025000D03*
%TD*%
%TO.C,SW9*%
X120197500Y-116435000D03*
X107270500Y-118975000D03*
%TD*%
%TO.C,SW13*%
X134485000Y-97385000D03*
X121558000Y-99925000D03*
%TD*%
%TO.C,SW50*%
X296410000Y-154535000D03*
X283483000Y-157075000D03*
%TD*%
%TO.C,SW14*%
X139247499Y-116435000D03*
X126320499Y-118975000D03*
%TD*%
%TO.C,SW38*%
X229735000Y-97385000D03*
X216808000Y-99925000D03*
%TD*%
%TO.C,SW67*%
X348797500Y-97385000D03*
X335870500Y-99925000D03*
%TD*%
%TO.C,SW64*%
X334510000Y-154535000D03*
X321583000Y-157075000D03*
%TD*%
%TO.C,SW12*%
X124960000Y-78335000D03*
X112033000Y-80875000D03*
%TD*%
%TO.C,SW37*%
X220210000Y-78335000D03*
X207283000Y-80875000D03*
%TD*%
%TO.C,SW36*%
X233303750Y-180535000D03*
X220376750Y-183075000D03*
%TD*%
%TO.C,SW20*%
X167822500Y-135485000D03*
X154895500Y-138025000D03*
%TD*%
%TO.C,SW52*%
X286885000Y-97385000D03*
X273958000Y-99925000D03*
%TD*%
%TO.C,SW69*%
X372610000Y-154535000D03*
X359683000Y-157075000D03*
%TD*%
%TO.C,SW27*%
X182109999Y-78335000D03*
X169182999Y-80875000D03*
%TD*%
%TO.C,SW56*%
X296410000Y-78335000D03*
X283483000Y-80875000D03*
%TD*%
%TO.C,SW40*%
X244022500Y-135485000D03*
X231095500Y-138025000D03*
%TD*%
%TO.C,SW62*%
X324985000Y-97385000D03*
X312058000Y-99925000D03*
%TD*%
%TO.C,SW63*%
X341653750Y-116435000D03*
X328726750Y-118975000D03*
%TD*%
%TO.C,SW47*%
X267835000Y-97385000D03*
X254908000Y-99925000D03*
%TD*%
%TO.C,SW46*%
X258310000Y-78335000D03*
X245383000Y-80875000D03*
%TD*%
M02*
