%FSLAX45Y45*%
G04 Gerber Fmt 4.5, Leading zero omitted, Abs format (unit mm)*
G04 Created by KiCad (PCBNEW (6.0.5)) date 2022-06-12 15:36:24*
%MOMM*%
%LPD*%
G01*
G04 APERTURE LIST*
%TA.AperFunction,Profile*%
%ADD10C,0.100000*%
%TD*%
%ADD11C,0.200000*%
%ADD12C,0.040000*%
%ADD13C,0.080000*%
%ADD14C,0.088900*%
%ADD15C,0.090000*%
%ADD16C,0.100000*%
%ADD17C,0.102000*%
%ADD18C,0.139700*%
%ADD19C,0.260000*%
%ADD20C,0.270000*%
%ADD21C,0.320000*%
G04 APERTURE END LIST*
D10*
X5000000Y-8500000D02*
X5000000Y-20425000D01*
X37180000Y-8500000D02*
X37180000Y-20425000D01*
X5500000Y-8000000D02*
X36680000Y-8000000D01*
X5500000Y-20925000D02*
X36680000Y-20925000D01*
X5500000Y-8000000D02*
G75*
G03*
X5000000Y-8500000I0J-500000D01*
G01*
X37180000Y-8500000D02*
G75*
G03*
X36680000Y-8000000I-500000J0D01*
G01*
X36680000Y-20925000D02*
G75*
G03*
X37180000Y-20425000I0J500000D01*
G01*
X5000000Y-20425000D02*
G75*
G03*
X5500000Y-20925000I500000J0D01*
G01*
D11*
D12*
X5538451Y-14086549D02*
X5578451Y-14126549D01*
X5578451Y-14086549D02*
X5538451Y-14126549D01*
X5538451Y-15446549D02*
X5578451Y-15486549D01*
X5578451Y-15446549D02*
X5538451Y-15486549D01*
X5800000Y-16785000D02*
X5840000Y-16825000D01*
X5840000Y-16785000D02*
X5800000Y-16825000D01*
X5803000Y-19094000D02*
X5843000Y-19134000D01*
X5843000Y-19094000D02*
X5803000Y-19134000D01*
X5949500Y-19094000D02*
X5989500Y-19134000D01*
X5989500Y-19094000D02*
X5949500Y-19134000D01*
X6096000Y-19094000D02*
X6136000Y-19134000D01*
X6136000Y-19094000D02*
X6096000Y-19134000D01*
X6868000Y-18553000D02*
X6908000Y-18593000D01*
X6908000Y-18553000D02*
X6868000Y-18593000D01*
X6977000Y-19054000D02*
X7017000Y-19094000D01*
X7017000Y-19054000D02*
X6977000Y-19094000D01*
X7111000Y-18553000D02*
X7151000Y-18593000D01*
X7151000Y-18553000D02*
X7111000Y-18593000D01*
X7179000Y-19054000D02*
X7219000Y-19094000D01*
X7219000Y-19054000D02*
X7179000Y-19094000D01*
X7354000Y-18553000D02*
X7394000Y-18593000D01*
X7394000Y-18553000D02*
X7354000Y-18593000D01*
X7381000Y-19054000D02*
X7421000Y-19094000D01*
X7421000Y-19054000D02*
X7381000Y-19094000D01*
X7597000Y-18553000D02*
X7637000Y-18593000D01*
X7637000Y-18553000D02*
X7597000Y-18593000D01*
X7840000Y-18553000D02*
X7880000Y-18593000D01*
X7880000Y-18553000D02*
X7840000Y-18593000D01*
X8083000Y-18553000D02*
X8123000Y-18593000D01*
X8123000Y-18553000D02*
X8083000Y-18593000D01*
X8135000Y-17145000D02*
X8175000Y-17185000D01*
X8175000Y-17145000D02*
X8135000Y-17185000D01*
X8326000Y-18553000D02*
X8366000Y-18593000D01*
X8366000Y-18553000D02*
X8326000Y-18593000D01*
X9905000Y-17165000D02*
X9945000Y-17205000D01*
X9945000Y-17165000D02*
X9905000Y-17205000D01*
X10210000Y-17165000D02*
X10250000Y-17205000D01*
X10250000Y-17165000D02*
X10210000Y-17205000D01*
X10420000Y-20310000D02*
X10460000Y-20350000D01*
X10460000Y-20310000D02*
X10420000Y-20350000D01*
X11225000Y-19038000D02*
X11265000Y-19078000D01*
X11265000Y-19038000D02*
X11225000Y-19078000D01*
X11493667Y-19038000D02*
X11533667Y-19078000D01*
X11533667Y-19038000D02*
X11493667Y-19078000D01*
X11762333Y-19038000D02*
X11802333Y-19078000D01*
X11802333Y-19038000D02*
X11762333Y-19078000D01*
X11980000Y-20310000D02*
X12020000Y-20350000D01*
X12020000Y-20310000D02*
X11980000Y-20350000D01*
X12031000Y-19038000D02*
X12071000Y-19078000D01*
X12071000Y-19038000D02*
X12031000Y-19078000D01*
X12180000Y-19945000D02*
X12220000Y-19985000D01*
X12220000Y-19945000D02*
X12180000Y-19985000D01*
X12180000Y-20070000D02*
X12220000Y-20110000D01*
X12220000Y-20070000D02*
X12180000Y-20110000D01*
X12305000Y-17185000D02*
X12345000Y-17225000D01*
X12345000Y-17185000D02*
X12305000Y-17225000D01*
X12935000Y-20070000D02*
X12975000Y-20110000D01*
X12975000Y-20070000D02*
X12935000Y-20110000D01*
X12940000Y-19945000D02*
X12980000Y-19985000D01*
X12980000Y-19945000D02*
X12940000Y-19985000D01*
X13057000Y-18800000D02*
X13097000Y-18840000D01*
X13097000Y-18800000D02*
X13057000Y-18840000D01*
X13311000Y-18790000D02*
X13351000Y-18830000D01*
X13351000Y-18790000D02*
X13311000Y-18830000D01*
X17974375Y-18390625D02*
X18014375Y-18430625D01*
X18014375Y-18390625D02*
X17974375Y-18430625D01*
X18385000Y-15290000D02*
X18425000Y-15330000D01*
X18425000Y-15290000D02*
X18385000Y-15330000D01*
X19511075Y-16044500D02*
X19551075Y-16084500D01*
X19551075Y-16044500D02*
X19511075Y-16084500D01*
X20297334Y-16480000D02*
X20337334Y-16520000D01*
X20337334Y-16480000D02*
X20297334Y-16520000D01*
X20517167Y-16480000D02*
X20557167Y-16520000D01*
X20557167Y-16480000D02*
X20517167Y-16520000D01*
X20737000Y-16480000D02*
X20777000Y-16520000D01*
X20777000Y-16480000D02*
X20737000Y-16520000D01*
X20956834Y-16480000D02*
X20996834Y-16520000D01*
X20996834Y-16480000D02*
X20956834Y-16520000D01*
X21176667Y-16480000D02*
X21216667Y-16520000D01*
X21216667Y-16480000D02*
X21176667Y-16520000D01*
X21396500Y-16480000D02*
X21436500Y-16520000D01*
X21436500Y-16480000D02*
X21396500Y-16520000D01*
X21616333Y-16480000D02*
X21656333Y-16520000D01*
X21656333Y-16480000D02*
X21616333Y-16520000D01*
X21780000Y-15479853D02*
X21820000Y-15519853D01*
X21820000Y-15479853D02*
X21780000Y-15519853D01*
X21836167Y-16480000D02*
X21876167Y-16520000D01*
X21876167Y-16480000D02*
X21836167Y-16520000D01*
X21895000Y-15552303D02*
X21935000Y-15592303D01*
X21935000Y-15552303D02*
X21895000Y-15592303D01*
X22050000Y-15624753D02*
X22090000Y-15664753D01*
X22090000Y-15624753D02*
X22050000Y-15664753D01*
X22056000Y-16480000D02*
X22096000Y-16520000D01*
X22096000Y-16480000D02*
X22056000Y-16520000D01*
X22210000Y-15700000D02*
X22250000Y-15740000D01*
X22250000Y-15700000D02*
X22210000Y-15740000D01*
X22275833Y-16480000D02*
X22315833Y-16520000D01*
X22315833Y-16480000D02*
X22275833Y-16520000D01*
X22495667Y-16480000D02*
X22535667Y-16520000D01*
X22535667Y-16480000D02*
X22495667Y-16520000D01*
X22715500Y-16480000D02*
X22755500Y-16520000D01*
X22755500Y-16480000D02*
X22715500Y-16520000D01*
X22935333Y-16480000D02*
X22975333Y-16520000D01*
X22975333Y-16480000D02*
X22935333Y-16520000D01*
X23155166Y-16480000D02*
X23195166Y-16520000D01*
X23195166Y-16480000D02*
X23155166Y-16520000D01*
X23280000Y-13695000D02*
X23320000Y-13735000D01*
X23320000Y-13695000D02*
X23280000Y-13735000D01*
X23375000Y-16480000D02*
X23415000Y-16520000D01*
X23415000Y-16480000D02*
X23375000Y-16520000D01*
X23594833Y-16480000D02*
X23634833Y-16520000D01*
X23634833Y-16480000D02*
X23594833Y-16520000D01*
X23814666Y-16480000D02*
X23854666Y-16520000D01*
X23854666Y-16480000D02*
X23814666Y-16520000D01*
X24034500Y-16480000D02*
X24074500Y-16520000D01*
X24074500Y-16480000D02*
X24034500Y-16520000D01*
X24254334Y-16480000D02*
X24294334Y-16520000D01*
X24294334Y-16480000D02*
X24254334Y-16520000D01*
X24350000Y-13695000D02*
X24390000Y-13735000D01*
X24390000Y-13695000D02*
X24350000Y-13735000D01*
X24744000Y-20492000D02*
X24784000Y-20532000D01*
X24784000Y-20492000D02*
X24744000Y-20532000D01*
X24987950Y-14139500D02*
X25027950Y-14179500D01*
X25027950Y-14139500D02*
X24987950Y-14179500D01*
X25127448Y-20492000D02*
X25167448Y-20532000D01*
X25167448Y-20492000D02*
X25127448Y-20532000D01*
X25205000Y-13695000D02*
X25245000Y-13735000D01*
X25245000Y-13695000D02*
X25205000Y-13735000D01*
X25510896Y-20492000D02*
X25550896Y-20532000D01*
X25550896Y-20492000D02*
X25510896Y-20532000D01*
X25894345Y-20492000D02*
X25934345Y-20532000D01*
X25934345Y-20492000D02*
X25894345Y-20532000D01*
X26240000Y-13695000D02*
X26280000Y-13735000D01*
X26280000Y-13695000D02*
X26240000Y-13735000D01*
X26277793Y-20492000D02*
X26317793Y-20532000D01*
X26317793Y-20492000D02*
X26277793Y-20532000D01*
X26661241Y-20492000D02*
X26701241Y-20532000D01*
X26701241Y-20492000D02*
X26661241Y-20532000D01*
X26892950Y-14139500D02*
X26932950Y-14179500D01*
X26932950Y-14139500D02*
X26892950Y-14179500D01*
X27044689Y-20492000D02*
X27084689Y-20532000D01*
X27084689Y-20492000D02*
X27044689Y-20532000D01*
X27428137Y-20492000D02*
X27468137Y-20532000D01*
X27468137Y-20492000D02*
X27428137Y-20532000D01*
X27811586Y-20492000D02*
X27851586Y-20532000D01*
X27851586Y-20492000D02*
X27811586Y-20532000D01*
X28195034Y-20492000D02*
X28235034Y-20532000D01*
X28235034Y-20492000D02*
X28195034Y-20532000D01*
X28578482Y-20492000D02*
X28618482Y-20532000D01*
X28618482Y-20492000D02*
X28578482Y-20532000D01*
X28797950Y-14139500D02*
X28837950Y-14179500D01*
X28837950Y-14139500D02*
X28797950Y-14179500D01*
X28961930Y-20492000D02*
X29001930Y-20532000D01*
X29001930Y-20492000D02*
X28961930Y-20532000D01*
X29345378Y-20492000D02*
X29385378Y-20532000D01*
X29385378Y-20492000D02*
X29345378Y-20532000D01*
X29728827Y-20492000D02*
X29768827Y-20532000D01*
X29768827Y-20492000D02*
X29728827Y-20532000D01*
X30112275Y-20492000D02*
X30152275Y-20532000D01*
X30152275Y-20492000D02*
X30112275Y-20532000D01*
X30495723Y-20492000D02*
X30535723Y-20532000D01*
X30535723Y-20492000D02*
X30495723Y-20532000D01*
X30702950Y-14139500D02*
X30742950Y-14179500D01*
X30742950Y-14139500D02*
X30702950Y-14179500D01*
X30879171Y-20492000D02*
X30919171Y-20532000D01*
X30919171Y-20492000D02*
X30879171Y-20532000D01*
X31262619Y-20492000D02*
X31302619Y-20532000D01*
X31302619Y-20492000D02*
X31262619Y-20532000D01*
X31646068Y-20492000D02*
X31686068Y-20532000D01*
X31686068Y-20492000D02*
X31646068Y-20532000D01*
X32029516Y-20492000D02*
X32069516Y-20532000D01*
X32069516Y-20492000D02*
X32029516Y-20532000D01*
X32412964Y-20492000D02*
X32452964Y-20532000D01*
X32452964Y-20492000D02*
X32412964Y-20532000D01*
X32796412Y-20492000D02*
X32836412Y-20532000D01*
X32836412Y-20492000D02*
X32796412Y-20532000D01*
X33179860Y-20492000D02*
X33219860Y-20532000D01*
X33219860Y-20492000D02*
X33179860Y-20532000D01*
X33563309Y-20492000D02*
X33603309Y-20532000D01*
X33603309Y-20492000D02*
X33563309Y-20532000D01*
X33946757Y-20492000D02*
X33986757Y-20532000D01*
X33986757Y-20492000D02*
X33946757Y-20532000D01*
X34330205Y-20492000D02*
X34370205Y-20532000D01*
X34370205Y-20492000D02*
X34330205Y-20532000D01*
X34713653Y-20492000D02*
X34753653Y-20532000D01*
X34753653Y-20492000D02*
X34713653Y-20532000D01*
X35097101Y-20492000D02*
X35137101Y-20532000D01*
X35137101Y-20492000D02*
X35097101Y-20532000D01*
X35480550Y-20492000D02*
X35520550Y-20532000D01*
X35520550Y-20492000D02*
X35480550Y-20532000D01*
X35864000Y-20492000D02*
X35904000Y-20532000D01*
X35904000Y-20492000D02*
X35864000Y-20532000D01*
X36712000Y-9157430D02*
X36752000Y-9197430D01*
X36752000Y-9157430D02*
X36712000Y-9197430D01*
X36712000Y-9531609D02*
X36752000Y-9571609D01*
X36752000Y-9531609D02*
X36712000Y-9571609D01*
X36712000Y-9905787D02*
X36752000Y-9945787D01*
X36752000Y-9905787D02*
X36712000Y-9945787D01*
X36712000Y-10279966D02*
X36752000Y-10319966D01*
X36752000Y-10279966D02*
X36712000Y-10319966D01*
X36712000Y-10654144D02*
X36752000Y-10694144D01*
X36752000Y-10654144D02*
X36712000Y-10694144D01*
X36712000Y-11028323D02*
X36752000Y-11068323D01*
X36752000Y-11028323D02*
X36712000Y-11068323D01*
X36712000Y-11402501D02*
X36752000Y-11442501D01*
X36752000Y-11402501D02*
X36712000Y-11442501D01*
X36712000Y-11776679D02*
X36752000Y-11816679D01*
X36752000Y-11776679D02*
X36712000Y-11816679D01*
X36712000Y-12150858D02*
X36752000Y-12190858D01*
X36752000Y-12150858D02*
X36712000Y-12190858D01*
X36712000Y-12525036D02*
X36752000Y-12565036D01*
X36752000Y-12525036D02*
X36712000Y-12565036D01*
X36712000Y-12899215D02*
X36752000Y-12939215D01*
X36752000Y-12899215D02*
X36712000Y-12939215D01*
X36712000Y-13273393D02*
X36752000Y-13313393D01*
X36752000Y-13273393D02*
X36712000Y-13313393D01*
X36712000Y-13647572D02*
X36752000Y-13687572D01*
X36752000Y-13647572D02*
X36712000Y-13687572D01*
X36712000Y-14021750D02*
X36752000Y-14061750D01*
X36752000Y-14021750D02*
X36712000Y-14061750D01*
X36712000Y-14395929D02*
X36752000Y-14435929D01*
X36752000Y-14395929D02*
X36712000Y-14435929D01*
X36712000Y-14770107D02*
X36752000Y-14810107D01*
X36752000Y-14770107D02*
X36712000Y-14810107D01*
X36712000Y-15144286D02*
X36752000Y-15184286D01*
X36752000Y-15144286D02*
X36712000Y-15184286D01*
X36712000Y-15518464D02*
X36752000Y-15558464D01*
X36752000Y-15518464D02*
X36712000Y-15558464D01*
X36712000Y-15892643D02*
X36752000Y-15932643D01*
X36752000Y-15892643D02*
X36712000Y-15932643D01*
X36712000Y-16266821D02*
X36752000Y-16306821D01*
X36752000Y-16266821D02*
X36712000Y-16306821D01*
X36712000Y-16641000D02*
X36752000Y-16681000D01*
X36752000Y-16641000D02*
X36712000Y-16681000D01*
X36712000Y-17015179D02*
X36752000Y-17055179D01*
X36752000Y-17015179D02*
X36712000Y-17055179D01*
X36712000Y-17389357D02*
X36752000Y-17429357D01*
X36752000Y-17389357D02*
X36712000Y-17429357D01*
X36712000Y-17763536D02*
X36752000Y-17803536D01*
X36752000Y-17763536D02*
X36712000Y-17803536D01*
X36712000Y-18137714D02*
X36752000Y-18177714D01*
X36752000Y-18137714D02*
X36712000Y-18177714D01*
X36712000Y-18511893D02*
X36752000Y-18551893D01*
X36752000Y-18511893D02*
X36712000Y-18551893D01*
X36712000Y-18886071D02*
X36752000Y-18926071D01*
X36752000Y-18886071D02*
X36712000Y-18926071D01*
X36712000Y-19260250D02*
X36752000Y-19300250D01*
X36752000Y-19260250D02*
X36712000Y-19300250D01*
X36712000Y-19634430D02*
X36752000Y-19674430D01*
X36752000Y-19634430D02*
X36712000Y-19674430D01*
D13*
X5375000Y-9207000D02*
G75*
G03*
X5375000Y-9207000I-40000J0D01*
G01*
X5375000Y-10223000D02*
G75*
G03*
X5375000Y-10223000I-40000J0D01*
G01*
X5375000Y-10458667D02*
G75*
G03*
X5375000Y-10458667I-40000J0D01*
G01*
X5375000Y-11474667D02*
G75*
G03*
X5375000Y-11474667I-40000J0D01*
G01*
X5375000Y-11710333D02*
G75*
G03*
X5375000Y-11710333I-40000J0D01*
G01*
X5375000Y-12726333D02*
G75*
G03*
X5375000Y-12726333I-40000J0D01*
G01*
X5375000Y-12962000D02*
G75*
G03*
X5375000Y-12962000I-40000J0D01*
G01*
X5375000Y-13978000D02*
G75*
G03*
X5375000Y-13978000I-40000J0D01*
G01*
X5890000Y-10603500D02*
G75*
G03*
X5890000Y-10603500I-40000J0D01*
G01*
X5890000Y-11365500D02*
G75*
G03*
X5890000Y-11365500I-40000J0D01*
G01*
X5890000Y-12508500D02*
G75*
G03*
X5890000Y-12508500I-40000J0D01*
G01*
X5890000Y-13270500D02*
G75*
G03*
X5890000Y-13270500I-40000J0D01*
G01*
X5890000Y-14413500D02*
G75*
G03*
X5890000Y-14413500I-40000J0D01*
G01*
X5890000Y-15175500D02*
G75*
G03*
X5890000Y-15175500I-40000J0D01*
G01*
X6128125Y-16318500D02*
G75*
G03*
X6128125Y-16318500I-40000J0D01*
G01*
X6128125Y-17080500D02*
G75*
G03*
X6128125Y-17080500I-40000J0D01*
G01*
X6478000Y-9905000D02*
G75*
G03*
X6478000Y-9905000I-40000J0D01*
G01*
X7240000Y-9905000D02*
G75*
G03*
X7240000Y-9905000I-40000J0D01*
G01*
X8043000Y-9910000D02*
G75*
G03*
X8043000Y-9910000I-40000J0D01*
G01*
X8115000Y-14413500D02*
G75*
G03*
X8115000Y-14413500I-40000J0D01*
G01*
X8115000Y-15175500D02*
G75*
G03*
X8115000Y-15175500I-40000J0D01*
G01*
X8271250Y-10603500D02*
G75*
G03*
X8271250Y-10603500I-40000J0D01*
G01*
X8271250Y-11365500D02*
G75*
G03*
X8271250Y-11365500I-40000J0D01*
G01*
X8509375Y-12508500D02*
G75*
G03*
X8509375Y-12508500I-40000J0D01*
G01*
X8509375Y-13270500D02*
G75*
G03*
X8509375Y-13270500I-40000J0D01*
G01*
X8509375Y-16318500D02*
G75*
G03*
X8509375Y-16318500I-40000J0D01*
G01*
X8509375Y-17080500D02*
G75*
G03*
X8509375Y-17080500I-40000J0D01*
G01*
X8805000Y-9910000D02*
G75*
G03*
X8805000Y-9910000I-40000J0D01*
G01*
X9700000Y-8698500D02*
G75*
G03*
X9700000Y-8698500I-40000J0D01*
G01*
X9700000Y-9460500D02*
G75*
G03*
X9700000Y-9460500I-40000J0D01*
G01*
X10652500Y-10603500D02*
G75*
G03*
X10652500Y-10603500I-40000J0D01*
G01*
X10652500Y-11365500D02*
G75*
G03*
X10652500Y-11365500I-40000J0D01*
G01*
X10890625Y-16318500D02*
G75*
G03*
X10890625Y-16318500I-40000J0D01*
G01*
X10890625Y-17080500D02*
G75*
G03*
X10890625Y-17080500I-40000J0D01*
G01*
X11128750Y-12508500D02*
G75*
G03*
X11128750Y-12508500I-40000J0D01*
G01*
X11128750Y-13270500D02*
G75*
G03*
X11128750Y-13270500I-40000J0D01*
G01*
X11605000Y-8698500D02*
G75*
G03*
X11605000Y-8698500I-40000J0D01*
G01*
X11605000Y-9460500D02*
G75*
G03*
X11605000Y-9460500I-40000J0D01*
G01*
X12081250Y-14413500D02*
G75*
G03*
X12081250Y-14413500I-40000J0D01*
G01*
X12081250Y-15175500D02*
G75*
G03*
X12081250Y-15175500I-40000J0D01*
G01*
X12557500Y-10603500D02*
G75*
G03*
X12557500Y-10603500I-40000J0D01*
G01*
X12557500Y-11365500D02*
G75*
G03*
X12557500Y-11365500I-40000J0D01*
G01*
X13033750Y-12508500D02*
G75*
G03*
X13033750Y-12508500I-40000J0D01*
G01*
X13033750Y-13270500D02*
G75*
G03*
X13033750Y-13270500I-40000J0D01*
G01*
X13510000Y-8698500D02*
G75*
G03*
X13510000Y-8698500I-40000J0D01*
G01*
X13510000Y-9460500D02*
G75*
G03*
X13510000Y-9460500I-40000J0D01*
G01*
X13986250Y-14413500D02*
G75*
G03*
X13986250Y-14413500I-40000J0D01*
G01*
X13986250Y-15175500D02*
G75*
G03*
X13986250Y-15175500I-40000J0D01*
G01*
X14462500Y-10603500D02*
G75*
G03*
X14462500Y-10603500I-40000J0D01*
G01*
X14462500Y-11365500D02*
G75*
G03*
X14462500Y-11365500I-40000J0D01*
G01*
X14938750Y-12508500D02*
G75*
G03*
X14938750Y-12508500I-40000J0D01*
G01*
X14938750Y-13270500D02*
G75*
G03*
X14938750Y-13270500I-40000J0D01*
G01*
X15415000Y-8698500D02*
G75*
G03*
X15415000Y-8698500I-40000J0D01*
G01*
X15415000Y-9460500D02*
G75*
G03*
X15415000Y-9460500I-40000J0D01*
G01*
X15534375Y-18918500D02*
G75*
G03*
X15534375Y-18918500I-40000J0D01*
G01*
X15534375Y-19680500D02*
G75*
G03*
X15534375Y-19680500I-40000J0D01*
G01*
X15891250Y-14413500D02*
G75*
G03*
X15891250Y-14413500I-40000J0D01*
G01*
X15891250Y-15175500D02*
G75*
G03*
X15891250Y-15175500I-40000J0D01*
G01*
X16367500Y-10603500D02*
G75*
G03*
X16367500Y-10603500I-40000J0D01*
G01*
X16367500Y-11365500D02*
G75*
G03*
X16367500Y-11365500I-40000J0D01*
G01*
X16843750Y-12508500D02*
G75*
G03*
X16843750Y-12508500I-40000J0D01*
G01*
X16843750Y-13270500D02*
G75*
G03*
X16843750Y-13270500I-40000J0D01*
G01*
X17320000Y-8698500D02*
G75*
G03*
X17320000Y-8698500I-40000J0D01*
G01*
X17320000Y-9460500D02*
G75*
G03*
X17320000Y-9460500I-40000J0D01*
G01*
X17796250Y-14413500D02*
G75*
G03*
X17796250Y-14413500I-40000J0D01*
G01*
X17796250Y-15175500D02*
G75*
G03*
X17796250Y-15175500I-40000J0D01*
G01*
X18034375Y-16318500D02*
G75*
G03*
X18034375Y-16318500I-40000J0D01*
G01*
X18034375Y-17080500D02*
G75*
G03*
X18034375Y-17080500I-40000J0D01*
G01*
X18272500Y-10603500D02*
G75*
G03*
X18272500Y-10603500I-40000J0D01*
G01*
X18272500Y-11365500D02*
G75*
G03*
X18272500Y-11365500I-40000J0D01*
G01*
X18748750Y-12508500D02*
G75*
G03*
X18748750Y-12508500I-40000J0D01*
G01*
X18748750Y-13270500D02*
G75*
G03*
X18748750Y-13270500I-40000J0D01*
G01*
X19225000Y-8698500D02*
G75*
G03*
X19225000Y-8698500I-40000J0D01*
G01*
X19225000Y-9460500D02*
G75*
G03*
X19225000Y-9460500I-40000J0D01*
G01*
X19701250Y-14413500D02*
G75*
G03*
X19701250Y-14413500I-40000J0D01*
G01*
X19701250Y-15175500D02*
G75*
G03*
X19701250Y-15175500I-40000J0D01*
G01*
X20014000Y-20395000D02*
G75*
G03*
X20014000Y-20395000I-40000J0D01*
G01*
X20177500Y-10603500D02*
G75*
G03*
X20177500Y-10603500I-40000J0D01*
G01*
X20177500Y-11365500D02*
G75*
G03*
X20177500Y-11365500I-40000J0D01*
G01*
X20534375Y-18918500D02*
G75*
G03*
X20534375Y-18918500I-40000J0D01*
G01*
X20534375Y-19680500D02*
G75*
G03*
X20534375Y-19680500I-40000J0D01*
G01*
X20653750Y-12508500D02*
G75*
G03*
X20653750Y-12508500I-40000J0D01*
G01*
X20653750Y-13270500D02*
G75*
G03*
X20653750Y-13270500I-40000J0D01*
G01*
X20776000Y-20395000D02*
G75*
G03*
X20776000Y-20395000I-40000J0D01*
G01*
X21130000Y-8698500D02*
G75*
G03*
X21130000Y-8698500I-40000J0D01*
G01*
X21130000Y-9460500D02*
G75*
G03*
X21130000Y-9460500I-40000J0D01*
G01*
X21606250Y-14413500D02*
G75*
G03*
X21606250Y-14413500I-40000J0D01*
G01*
X21606250Y-15175500D02*
G75*
G03*
X21606250Y-15175500I-40000J0D01*
G01*
X22082500Y-10603500D02*
G75*
G03*
X22082500Y-10603500I-40000J0D01*
G01*
X22082500Y-11365500D02*
G75*
G03*
X22082500Y-11365500I-40000J0D01*
G01*
X22558750Y-12508500D02*
G75*
G03*
X22558750Y-12508500I-40000J0D01*
G01*
X22558750Y-13270500D02*
G75*
G03*
X22558750Y-13270500I-40000J0D01*
G01*
X23035000Y-8698500D02*
G75*
G03*
X23035000Y-8698500I-40000J0D01*
G01*
X23035000Y-9460500D02*
G75*
G03*
X23035000Y-9460500I-40000J0D01*
G01*
X23511250Y-14413500D02*
G75*
G03*
X23511250Y-14413500I-40000J0D01*
G01*
X23511250Y-15175500D02*
G75*
G03*
X23511250Y-15175500I-40000J0D01*
G01*
X23765000Y-18722000D02*
G75*
G03*
X23765000Y-18722000I-40000J0D01*
G01*
X23765000Y-19738000D02*
G75*
G03*
X23765000Y-19738000I-40000J0D01*
G01*
X23987500Y-10603500D02*
G75*
G03*
X23987500Y-10603500I-40000J0D01*
G01*
X23987500Y-11365500D02*
G75*
G03*
X23987500Y-11365500I-40000J0D01*
G01*
X24463750Y-12508500D02*
G75*
G03*
X24463750Y-12508500I-40000J0D01*
G01*
X24463750Y-13270500D02*
G75*
G03*
X24463750Y-13270500I-40000J0D01*
G01*
X24940000Y-16318500D02*
G75*
G03*
X24940000Y-16318500I-40000J0D01*
G01*
X24940000Y-17080500D02*
G75*
G03*
X24940000Y-17080500I-40000J0D01*
G01*
X24940000Y-8698500D02*
G75*
G03*
X24940000Y-8698500I-40000J0D01*
G01*
X24940000Y-9460500D02*
G75*
G03*
X24940000Y-9460500I-40000J0D01*
G01*
X25416250Y-14413500D02*
G75*
G03*
X25416250Y-14413500I-40000J0D01*
G01*
X25416250Y-15175500D02*
G75*
G03*
X25416250Y-15175500I-40000J0D01*
G01*
X25892500Y-10603500D02*
G75*
G03*
X25892500Y-10603500I-40000J0D01*
G01*
X25892500Y-11365500D02*
G75*
G03*
X25892500Y-11365500I-40000J0D01*
G01*
X26368750Y-12508500D02*
G75*
G03*
X26368750Y-12508500I-40000J0D01*
G01*
X26368750Y-13270500D02*
G75*
G03*
X26368750Y-13270500I-40000J0D01*
G01*
X26845000Y-8698500D02*
G75*
G03*
X26845000Y-8698500I-40000J0D01*
G01*
X26845000Y-9460500D02*
G75*
G03*
X26845000Y-9460500I-40000J0D01*
G01*
X26845000Y-16318500D02*
G75*
G03*
X26845000Y-16318500I-40000J0D01*
G01*
X26845000Y-17080500D02*
G75*
G03*
X26845000Y-17080500I-40000J0D01*
G01*
X27321250Y-14413500D02*
G75*
G03*
X27321250Y-14413500I-40000J0D01*
G01*
X27321250Y-15175500D02*
G75*
G03*
X27321250Y-15175500I-40000J0D01*
G01*
X27797500Y-10603500D02*
G75*
G03*
X27797500Y-10603500I-40000J0D01*
G01*
X27797500Y-11365500D02*
G75*
G03*
X27797500Y-11365500I-40000J0D01*
G01*
X28273750Y-12508500D02*
G75*
G03*
X28273750Y-12508500I-40000J0D01*
G01*
X28273750Y-13270500D02*
G75*
G03*
X28273750Y-13270500I-40000J0D01*
G01*
X28750000Y-8698500D02*
G75*
G03*
X28750000Y-8698500I-40000J0D01*
G01*
X28750000Y-9460500D02*
G75*
G03*
X28750000Y-9460500I-40000J0D01*
G01*
X28750000Y-16318500D02*
G75*
G03*
X28750000Y-16318500I-40000J0D01*
G01*
X28750000Y-17080500D02*
G75*
G03*
X28750000Y-17080500I-40000J0D01*
G01*
X29226250Y-14413500D02*
G75*
G03*
X29226250Y-14413500I-40000J0D01*
G01*
X29226250Y-15175500D02*
G75*
G03*
X29226250Y-15175500I-40000J0D01*
G01*
X29702500Y-10603500D02*
G75*
G03*
X29702500Y-10603500I-40000J0D01*
G01*
X29702500Y-11365500D02*
G75*
G03*
X29702500Y-11365500I-40000J0D01*
G01*
X30178750Y-12508500D02*
G75*
G03*
X30178750Y-12508500I-40000J0D01*
G01*
X30178750Y-13270500D02*
G75*
G03*
X30178750Y-13270500I-40000J0D01*
G01*
X30655000Y-8698500D02*
G75*
G03*
X30655000Y-8698500I-40000J0D01*
G01*
X30655000Y-9460500D02*
G75*
G03*
X30655000Y-9460500I-40000J0D01*
G01*
X30655000Y-16318500D02*
G75*
G03*
X30655000Y-16318500I-40000J0D01*
G01*
X30655000Y-17080500D02*
G75*
G03*
X30655000Y-17080500I-40000J0D01*
G01*
X31607500Y-10603500D02*
G75*
G03*
X31607500Y-10603500I-40000J0D01*
G01*
X31607500Y-11365500D02*
G75*
G03*
X31607500Y-11365500I-40000J0D01*
G01*
X31770000Y-14413500D02*
G75*
G03*
X31770000Y-14413500I-40000J0D01*
G01*
X31770000Y-15175500D02*
G75*
G03*
X31770000Y-15175500I-40000J0D01*
G01*
X32425000Y-12508500D02*
G75*
G03*
X32425000Y-12508500I-40000J0D01*
G01*
X32425000Y-13270500D02*
G75*
G03*
X32425000Y-13270500I-40000J0D01*
G01*
X32560000Y-16318500D02*
G75*
G03*
X32560000Y-16318500I-40000J0D01*
G01*
X32560000Y-17080500D02*
G75*
G03*
X32560000Y-17080500I-40000J0D01*
G01*
X32755000Y-8699000D02*
G75*
G03*
X32755000Y-8699000I-40000J0D01*
G01*
X32755000Y-9461000D02*
G75*
G03*
X32755000Y-9461000I-40000J0D01*
G01*
X33988750Y-10603500D02*
G75*
G03*
X33988750Y-10603500I-40000J0D01*
G01*
X33988750Y-11365500D02*
G75*
G03*
X33988750Y-11365500I-40000J0D01*
G01*
X34465000Y-16318500D02*
G75*
G03*
X34465000Y-16318500I-40000J0D01*
G01*
X34465000Y-17080500D02*
G75*
G03*
X34465000Y-17080500I-40000J0D01*
G01*
D14*
X17930875Y-18874050D02*
X17930875Y-18962950D01*
X17886425Y-18918500D02*
X17975325Y-18918500D01*
X17930875Y-19128050D02*
X17930875Y-19216950D01*
X17886425Y-19172500D02*
X17975325Y-19172500D01*
X17930875Y-19382050D02*
X17930875Y-19470950D01*
X17886425Y-19426500D02*
X17975325Y-19426500D01*
X18692875Y-20144050D02*
X18692875Y-20232950D01*
X18648425Y-20188500D02*
X18737325Y-20188500D01*
X18946875Y-20144050D02*
X18946875Y-20232950D01*
X18902425Y-20188500D02*
X18991325Y-20188500D01*
X19200875Y-20144050D02*
X19200875Y-20232950D01*
X19156425Y-20188500D02*
X19245325Y-20188500D01*
D15*
X18661195Y-17934320D02*
X18661195Y-17870680D01*
X18597555Y-17870680D01*
X18597555Y-17934320D01*
X18661195Y-17934320D01*
X18661195Y-18442320D02*
X18661195Y-18378680D01*
X18597555Y-18378680D01*
X18597555Y-18442320D01*
X18661195Y-18442320D01*
X19296195Y-17934320D02*
X19296195Y-17870680D01*
X19232555Y-17870680D01*
X19232555Y-17934320D01*
X19296195Y-17934320D01*
X19296195Y-18442320D02*
X19296195Y-18378680D01*
X19232555Y-18378680D01*
X19232555Y-18442320D01*
X19296195Y-18442320D01*
D16*
X6054500Y-8754500D02*
X6104500Y-8704500D01*
X6054500Y-8654500D01*
X6004500Y-8704500D01*
X6054500Y-8754500D01*
X6054500Y-9004500D02*
X6104500Y-8954500D01*
X6054500Y-8904500D01*
X6004500Y-8954500D01*
X6054500Y-9004500D01*
X6054500Y-9254500D02*
X6104500Y-9204500D01*
X6054500Y-9154500D01*
X6004500Y-9204500D01*
X6054500Y-9254500D01*
X7504500Y-8754500D02*
X7554500Y-8704500D01*
X7504500Y-8654500D01*
X7454500Y-8704500D01*
X7504500Y-8754500D01*
X7504500Y-9254500D02*
X7554500Y-9204500D01*
X7504500Y-9154500D01*
X7454500Y-9204500D01*
X7504500Y-9254500D01*
X10445000Y-18719500D02*
X10495000Y-18669500D01*
X10445000Y-18619500D01*
X10395000Y-18669500D01*
X10445000Y-18719500D01*
X10445000Y-18973500D02*
X10495000Y-18923500D01*
X10445000Y-18873500D01*
X10395000Y-18923500D01*
X10445000Y-18973500D01*
X10445000Y-19227500D02*
X10495000Y-19177500D01*
X10445000Y-19127500D01*
X10395000Y-19177500D01*
X10445000Y-19227500D01*
X12568875Y-18072500D02*
X12618875Y-18022500D01*
X12568875Y-17972500D01*
X12518875Y-18022500D01*
X12568875Y-18072500D01*
X12822875Y-18072500D02*
X12872875Y-18022500D01*
X12822875Y-17972500D01*
X12772875Y-18022500D01*
X12822875Y-18072500D01*
X13076875Y-18072500D02*
X13126875Y-18022500D01*
X13076875Y-17972500D01*
X13026875Y-18022500D01*
X13076875Y-18072500D01*
X13330875Y-18072500D02*
X13380875Y-18022500D01*
X13330875Y-17972500D01*
X13280875Y-18022500D01*
X13330875Y-18072500D01*
X24100000Y-19017000D02*
X24150000Y-18967000D01*
X24100000Y-18917000D01*
X24050000Y-18967000D01*
X24100000Y-19017000D01*
X24100000Y-19271000D02*
X24150000Y-19221000D01*
X24100000Y-19171000D01*
X24050000Y-19221000D01*
X24100000Y-19271000D01*
X24100000Y-19525000D02*
X24150000Y-19475000D01*
X24100000Y-19425000D01*
X24050000Y-19475000D01*
X24100000Y-19525000D01*
D17*
X5136000Y-17985000D02*
X5238000Y-18087000D01*
X5238000Y-17985000D02*
X5136000Y-18087000D01*
X5238000Y-18036000D02*
G75*
G03*
X5238000Y-18036000I-51000J0D01*
G01*
X5136000Y-19763000D02*
X5238000Y-19865000D01*
X5238000Y-19763000D02*
X5136000Y-19865000D01*
X5238000Y-19814000D02*
G75*
G03*
X5238000Y-19814000I-51000J0D01*
G01*
X5390000Y-17985000D02*
X5492000Y-18087000D01*
X5492000Y-17985000D02*
X5390000Y-18087000D01*
X5492000Y-18036000D02*
G75*
G03*
X5492000Y-18036000I-51000J0D01*
G01*
X5390000Y-19763000D02*
X5492000Y-19865000D01*
X5492000Y-19763000D02*
X5390000Y-19865000D01*
X5492000Y-19814000D02*
G75*
G03*
X5492000Y-19814000I-51000J0D01*
G01*
X5644000Y-17985000D02*
X5746000Y-18087000D01*
X5746000Y-17985000D02*
X5644000Y-18087000D01*
X5746000Y-18036000D02*
G75*
G03*
X5746000Y-18036000I-51000J0D01*
G01*
X5644000Y-19763000D02*
X5746000Y-19865000D01*
X5746000Y-19763000D02*
X5644000Y-19865000D01*
X5746000Y-19814000D02*
G75*
G03*
X5746000Y-19814000I-51000J0D01*
G01*
X5898000Y-17985000D02*
X6000000Y-18087000D01*
X6000000Y-17985000D02*
X5898000Y-18087000D01*
X6000000Y-18036000D02*
G75*
G03*
X6000000Y-18036000I-51000J0D01*
G01*
X5898000Y-19763000D02*
X6000000Y-19865000D01*
X6000000Y-19763000D02*
X5898000Y-19865000D01*
X6000000Y-19814000D02*
G75*
G03*
X6000000Y-19814000I-51000J0D01*
G01*
X6152000Y-17985000D02*
X6254000Y-18087000D01*
X6254000Y-17985000D02*
X6152000Y-18087000D01*
X6254000Y-18036000D02*
G75*
G03*
X6254000Y-18036000I-51000J0D01*
G01*
X6152000Y-19763000D02*
X6254000Y-19865000D01*
X6254000Y-19763000D02*
X6152000Y-19865000D01*
X6254000Y-19814000D02*
G75*
G03*
X6254000Y-19814000I-51000J0D01*
G01*
X6406000Y-17985000D02*
X6508000Y-18087000D01*
X6508000Y-17985000D02*
X6406000Y-18087000D01*
X6508000Y-18036000D02*
G75*
G03*
X6508000Y-18036000I-51000J0D01*
G01*
X6406000Y-19763000D02*
X6508000Y-19865000D01*
X6508000Y-19763000D02*
X6406000Y-19865000D01*
X6508000Y-19814000D02*
G75*
G03*
X6508000Y-19814000I-51000J0D01*
G01*
X6660000Y-17985000D02*
X6762000Y-18087000D01*
X6762000Y-17985000D02*
X6660000Y-18087000D01*
X6762000Y-18036000D02*
G75*
G03*
X6762000Y-18036000I-51000J0D01*
G01*
X6660000Y-19763000D02*
X6762000Y-19865000D01*
X6762000Y-19763000D02*
X6660000Y-19865000D01*
X6762000Y-19814000D02*
G75*
G03*
X6762000Y-19814000I-51000J0D01*
G01*
X6914000Y-17985000D02*
X7016000Y-18087000D01*
X7016000Y-17985000D02*
X6914000Y-18087000D01*
X7016000Y-18036000D02*
G75*
G03*
X7016000Y-18036000I-51000J0D01*
G01*
X6914000Y-19763000D02*
X7016000Y-19865000D01*
X7016000Y-19763000D02*
X6914000Y-19865000D01*
X7016000Y-19814000D02*
G75*
G03*
X7016000Y-19814000I-51000J0D01*
G01*
X7168000Y-17985000D02*
X7270000Y-18087000D01*
X7270000Y-17985000D02*
X7168000Y-18087000D01*
X7270000Y-18036000D02*
G75*
G03*
X7270000Y-18036000I-51000J0D01*
G01*
X7168000Y-19763000D02*
X7270000Y-19865000D01*
X7270000Y-19763000D02*
X7168000Y-19865000D01*
X7270000Y-19814000D02*
G75*
G03*
X7270000Y-19814000I-51000J0D01*
G01*
X7422000Y-17985000D02*
X7524000Y-18087000D01*
X7524000Y-17985000D02*
X7422000Y-18087000D01*
X7524000Y-18036000D02*
G75*
G03*
X7524000Y-18036000I-51000J0D01*
G01*
X7422000Y-19763000D02*
X7524000Y-19865000D01*
X7524000Y-19763000D02*
X7422000Y-19865000D01*
X7524000Y-19814000D02*
G75*
G03*
X7524000Y-19814000I-51000J0D01*
G01*
X7676000Y-17985000D02*
X7778000Y-18087000D01*
X7778000Y-17985000D02*
X7676000Y-18087000D01*
X7778000Y-18036000D02*
G75*
G03*
X7778000Y-18036000I-51000J0D01*
G01*
X7676000Y-19763000D02*
X7778000Y-19865000D01*
X7778000Y-19763000D02*
X7676000Y-19865000D01*
X7778000Y-19814000D02*
G75*
G03*
X7778000Y-19814000I-51000J0D01*
G01*
X7930000Y-17985000D02*
X8032000Y-18087000D01*
X8032000Y-17985000D02*
X7930000Y-18087000D01*
X8032000Y-18036000D02*
G75*
G03*
X8032000Y-18036000I-51000J0D01*
G01*
X7930000Y-19763000D02*
X8032000Y-19865000D01*
X8032000Y-19763000D02*
X7930000Y-19865000D01*
X8032000Y-19814000D02*
G75*
G03*
X8032000Y-19814000I-51000J0D01*
G01*
X8184000Y-17985000D02*
X8286000Y-18087000D01*
X8286000Y-17985000D02*
X8184000Y-18087000D01*
X8286000Y-18036000D02*
G75*
G03*
X8286000Y-18036000I-51000J0D01*
G01*
X8184000Y-19763000D02*
X8286000Y-19865000D01*
X8286000Y-19763000D02*
X8184000Y-19865000D01*
X8286000Y-19814000D02*
G75*
G03*
X8286000Y-19814000I-51000J0D01*
G01*
X8438000Y-17985000D02*
X8540000Y-18087000D01*
X8540000Y-17985000D02*
X8438000Y-18087000D01*
X8540000Y-18036000D02*
G75*
G03*
X8540000Y-18036000I-51000J0D01*
G01*
X8438000Y-19763000D02*
X8540000Y-19865000D01*
X8540000Y-19763000D02*
X8438000Y-19865000D01*
X8540000Y-19814000D02*
G75*
G03*
X8540000Y-19814000I-51000J0D01*
G01*
X8692000Y-17985000D02*
X8794000Y-18087000D01*
X8794000Y-17985000D02*
X8692000Y-18087000D01*
X8794000Y-18036000D02*
G75*
G03*
X8794000Y-18036000I-51000J0D01*
G01*
X8692000Y-19763000D02*
X8794000Y-19865000D01*
X8794000Y-19763000D02*
X8692000Y-19865000D01*
X8794000Y-19814000D02*
G75*
G03*
X8794000Y-19814000I-51000J0D01*
G01*
X8946000Y-17985000D02*
X9048000Y-18087000D01*
X9048000Y-17985000D02*
X8946000Y-18087000D01*
X9048000Y-18036000D02*
G75*
G03*
X9048000Y-18036000I-51000J0D01*
G01*
X8946000Y-19763000D02*
X9048000Y-19865000D01*
X9048000Y-19763000D02*
X8946000Y-19865000D01*
X9048000Y-19814000D02*
G75*
G03*
X9048000Y-19814000I-51000J0D01*
G01*
X9200000Y-17985000D02*
X9302000Y-18087000D01*
X9302000Y-17985000D02*
X9200000Y-18087000D01*
X9302000Y-18036000D02*
G75*
G03*
X9302000Y-18036000I-51000J0D01*
G01*
X9200000Y-19763000D02*
X9302000Y-19865000D01*
X9302000Y-19763000D02*
X9200000Y-19865000D01*
X9302000Y-19814000D02*
G75*
G03*
X9302000Y-19814000I-51000J0D01*
G01*
X9454000Y-17985000D02*
X9556000Y-18087000D01*
X9556000Y-17985000D02*
X9454000Y-18087000D01*
X9556000Y-18036000D02*
G75*
G03*
X9556000Y-18036000I-51000J0D01*
G01*
X9454000Y-19763000D02*
X9556000Y-19865000D01*
X9556000Y-19763000D02*
X9454000Y-19865000D01*
X9556000Y-19814000D02*
G75*
G03*
X9556000Y-19814000I-51000J0D01*
G01*
X9708000Y-17985000D02*
X9810000Y-18087000D01*
X9810000Y-17985000D02*
X9708000Y-18087000D01*
X9810000Y-18036000D02*
G75*
G03*
X9810000Y-18036000I-51000J0D01*
G01*
X9708000Y-19763000D02*
X9810000Y-19865000D01*
X9810000Y-19763000D02*
X9708000Y-19865000D01*
X9810000Y-19814000D02*
G75*
G03*
X9810000Y-19814000I-51000J0D01*
G01*
X9939000Y-18620000D02*
X10041000Y-18722000D01*
X10041000Y-18620000D02*
X9939000Y-18722000D01*
X10041000Y-18671000D02*
G75*
G03*
X10041000Y-18671000I-51000J0D01*
G01*
X9939000Y-18874000D02*
X10041000Y-18976000D01*
X10041000Y-18874000D02*
X9939000Y-18976000D01*
X10041000Y-18925000D02*
G75*
G03*
X10041000Y-18925000I-51000J0D01*
G01*
X9939000Y-19128000D02*
X10041000Y-19230000D01*
X10041000Y-19128000D02*
X9939000Y-19230000D01*
X10041000Y-19179000D02*
G75*
G03*
X10041000Y-19179000I-51000J0D01*
G01*
X9962000Y-17985000D02*
X10064000Y-18087000D01*
X10064000Y-17985000D02*
X9962000Y-18087000D01*
X10064000Y-18036000D02*
G75*
G03*
X10064000Y-18036000I-51000J0D01*
G01*
X9962000Y-19763000D02*
X10064000Y-19865000D01*
X10064000Y-19763000D02*
X9962000Y-19865000D01*
X10064000Y-19814000D02*
G75*
G03*
X10064000Y-19814000I-51000J0D01*
G01*
D18*
X18115025Y-18435900D02*
X18254725Y-18575600D01*
X18254725Y-18435900D02*
X18115025Y-18575600D01*
X18184875Y-18435900D02*
X18184875Y-18575600D01*
X18115025Y-18505750D02*
X18254725Y-18505750D01*
X18115025Y-19769400D02*
X18254725Y-19909100D01*
X18254725Y-19769400D02*
X18115025Y-19909100D01*
X18184875Y-19769400D02*
X18184875Y-19909100D01*
X18115025Y-19839250D02*
X18254725Y-19839250D01*
X19639025Y-18435900D02*
X19778725Y-18575600D01*
X19778725Y-18435900D02*
X19639025Y-18575600D01*
X19708875Y-18435900D02*
X19708875Y-18575600D01*
X19639025Y-18505750D02*
X19778725Y-18505750D01*
X19639025Y-19769400D02*
X19778725Y-19909100D01*
X19778725Y-19769400D02*
X19639025Y-19909100D01*
X19708875Y-19769400D02*
X19708875Y-19909100D01*
X19639025Y-19839250D02*
X19778725Y-19839250D01*
D19*
X6674500Y-8264500D02*
X6934500Y-8524500D01*
X6934500Y-8264500D02*
X6674500Y-8524500D01*
X6896425Y-8486425D02*
X6896425Y-8302575D01*
X6712575Y-8302575D01*
X6712575Y-8486425D01*
X6896425Y-8486425D01*
X6674500Y-9384500D02*
X6934500Y-9644500D01*
X6934500Y-9384500D02*
X6674500Y-9644500D01*
X6896425Y-9606425D02*
X6896425Y-9422575D01*
X6712575Y-9422575D01*
X6712575Y-9606425D01*
X6896425Y-9606425D01*
D20*
X17265000Y-17995000D02*
X17535000Y-18265000D01*
X17535000Y-17995000D02*
X17265000Y-18265000D01*
X17400000Y-18265000D02*
X17535000Y-18130000D01*
X17400000Y-17995000D01*
X17265000Y-18130000D01*
X17400000Y-18265000D01*
X20360000Y-17995000D02*
X20630000Y-18265000D01*
X20630000Y-17995000D02*
X20360000Y-18265000D01*
X20495000Y-18265000D02*
X20630000Y-18130000D01*
X20495000Y-17995000D01*
X20360000Y-18130000D01*
X20495000Y-18265000D01*
D21*
X5500000Y-8340000D02*
X5500000Y-8660000D01*
X5340000Y-8500000D02*
X5660000Y-8500000D01*
X5660000Y-8500000D02*
G75*
G03*
X5660000Y-8500000I-160000J0D01*
G01*
X5500000Y-20265000D02*
X5500000Y-20585000D01*
X5340000Y-20425000D02*
X5660000Y-20425000D01*
X5660000Y-20425000D02*
G75*
G03*
X5660000Y-20425000I-160000J0D01*
G01*
X36680000Y-8340000D02*
X36680000Y-8660000D01*
X36520000Y-8500000D02*
X36840000Y-8500000D01*
X36840000Y-8500000D02*
G75*
G03*
X36840000Y-8500000I-160000J0D01*
G01*
X36680000Y-20265000D02*
X36680000Y-20585000D01*
X36520000Y-20425000D02*
X36840000Y-20425000D01*
X36840000Y-20425000D02*
G75*
G03*
X36840000Y-20425000I-160000J0D01*
G01*
D11*
X5252619Y-21240476D02*
X5252619Y-21040476D01*
X5300238Y-21040476D01*
X5328810Y-21050000D01*
X5347857Y-21069048D01*
X5357381Y-21088095D01*
X5366905Y-21126190D01*
X5366905Y-21154762D01*
X5357381Y-21192857D01*
X5347857Y-21211905D01*
X5328810Y-21230952D01*
X5300238Y-21240476D01*
X5252619Y-21240476D01*
X5452619Y-21240476D02*
X5452619Y-21107143D01*
X5452619Y-21145238D02*
X5462143Y-21126190D01*
X5471667Y-21116667D01*
X5490714Y-21107143D01*
X5509762Y-21107143D01*
X5576429Y-21240476D02*
X5576429Y-21107143D01*
X5576429Y-21040476D02*
X5566905Y-21050000D01*
X5576429Y-21059524D01*
X5585952Y-21050000D01*
X5576429Y-21040476D01*
X5576429Y-21059524D01*
X5700238Y-21240476D02*
X5681190Y-21230952D01*
X5671667Y-21211905D01*
X5671667Y-21040476D01*
X5805000Y-21240476D02*
X5785952Y-21230952D01*
X5776428Y-21211905D01*
X5776428Y-21040476D01*
X6033571Y-21240476D02*
X6033571Y-21040476D01*
X6100238Y-21183333D01*
X6166905Y-21040476D01*
X6166905Y-21240476D01*
X6347857Y-21240476D02*
X6347857Y-21135714D01*
X6338333Y-21116667D01*
X6319286Y-21107143D01*
X6281190Y-21107143D01*
X6262143Y-21116667D01*
X6347857Y-21230952D02*
X6328809Y-21240476D01*
X6281190Y-21240476D01*
X6262143Y-21230952D01*
X6252619Y-21211905D01*
X6252619Y-21192857D01*
X6262143Y-21173810D01*
X6281190Y-21164286D01*
X6328809Y-21164286D01*
X6347857Y-21154762D01*
X6443095Y-21107143D02*
X6443095Y-21307143D01*
X6443095Y-21116667D02*
X6462143Y-21107143D01*
X6500238Y-21107143D01*
X6519286Y-21116667D01*
X6528809Y-21126190D01*
X6538333Y-21145238D01*
X6538333Y-21202381D01*
X6528809Y-21221429D01*
X6519286Y-21230952D01*
X6500238Y-21240476D01*
X6462143Y-21240476D01*
X6443095Y-21230952D01*
X6624048Y-21221429D02*
X6633571Y-21230952D01*
X6624048Y-21240476D01*
X6614524Y-21230952D01*
X6624048Y-21221429D01*
X6624048Y-21240476D01*
X6624048Y-21116667D02*
X6633571Y-21126190D01*
X6624048Y-21135714D01*
X6614524Y-21126190D01*
X6624048Y-21116667D01*
X6624048Y-21135714D01*
D12*
X4955000Y-21550000D02*
X4995000Y-21590000D01*
X4995000Y-21550000D02*
X4955000Y-21590000D01*
D11*
X5290714Y-21460476D02*
X5309762Y-21460476D01*
X5328810Y-21470000D01*
X5338333Y-21479524D01*
X5347857Y-21498571D01*
X5357381Y-21536667D01*
X5357381Y-21584286D01*
X5347857Y-21622381D01*
X5338333Y-21641429D01*
X5328810Y-21650952D01*
X5309762Y-21660476D01*
X5290714Y-21660476D01*
X5271667Y-21650952D01*
X5262143Y-21641429D01*
X5252619Y-21622381D01*
X5243095Y-21584286D01*
X5243095Y-21536667D01*
X5252619Y-21498571D01*
X5262143Y-21479524D01*
X5271667Y-21470000D01*
X5290714Y-21460476D01*
X5443095Y-21641429D02*
X5452619Y-21650952D01*
X5443095Y-21660476D01*
X5433571Y-21650952D01*
X5443095Y-21641429D01*
X5443095Y-21660476D01*
X5624048Y-21527143D02*
X5624048Y-21660476D01*
X5576429Y-21450952D02*
X5528810Y-21593810D01*
X5652619Y-21593810D01*
X5766905Y-21460476D02*
X5785952Y-21460476D01*
X5805000Y-21470000D01*
X5814524Y-21479524D01*
X5824048Y-21498571D01*
X5833571Y-21536667D01*
X5833571Y-21584286D01*
X5824048Y-21622381D01*
X5814524Y-21641429D01*
X5805000Y-21650952D01*
X5785952Y-21660476D01*
X5766905Y-21660476D01*
X5747857Y-21650952D01*
X5738333Y-21641429D01*
X5728809Y-21622381D01*
X5719286Y-21584286D01*
X5719286Y-21536667D01*
X5728809Y-21498571D01*
X5738333Y-21479524D01*
X5747857Y-21470000D01*
X5766905Y-21460476D01*
X5957381Y-21460476D02*
X5976428Y-21460476D01*
X5995476Y-21470000D01*
X6005000Y-21479524D01*
X6014524Y-21498571D01*
X6024048Y-21536667D01*
X6024048Y-21584286D01*
X6014524Y-21622381D01*
X6005000Y-21641429D01*
X5995476Y-21650952D01*
X5976428Y-21660476D01*
X5957381Y-21660476D01*
X5938333Y-21650952D01*
X5928809Y-21641429D01*
X5919286Y-21622381D01*
X5909762Y-21584286D01*
X5909762Y-21536667D01*
X5919286Y-21498571D01*
X5928809Y-21479524D01*
X5938333Y-21470000D01*
X5957381Y-21460476D01*
X6109762Y-21660476D02*
X6109762Y-21527143D01*
X6109762Y-21546190D02*
X6119286Y-21536667D01*
X6138333Y-21527143D01*
X6166905Y-21527143D01*
X6185952Y-21536667D01*
X6195476Y-21555714D01*
X6195476Y-21660476D01*
X6195476Y-21555714D02*
X6205000Y-21536667D01*
X6224048Y-21527143D01*
X6252619Y-21527143D01*
X6271667Y-21536667D01*
X6281190Y-21555714D01*
X6281190Y-21660476D01*
X6376428Y-21660476D02*
X6376428Y-21527143D01*
X6376428Y-21546190D02*
X6385952Y-21536667D01*
X6405000Y-21527143D01*
X6433571Y-21527143D01*
X6452619Y-21536667D01*
X6462143Y-21555714D01*
X6462143Y-21660476D01*
X6462143Y-21555714D02*
X6471667Y-21536667D01*
X6490714Y-21527143D01*
X6519286Y-21527143D01*
X6538333Y-21536667D01*
X6547857Y-21555714D01*
X6547857Y-21660476D01*
X6938333Y-21450952D02*
X6766905Y-21708095D01*
X7195476Y-21460476D02*
X7214524Y-21460476D01*
X7233571Y-21470000D01*
X7243095Y-21479524D01*
X7252619Y-21498571D01*
X7262143Y-21536667D01*
X7262143Y-21584286D01*
X7252619Y-21622381D01*
X7243095Y-21641429D01*
X7233571Y-21650952D01*
X7214524Y-21660476D01*
X7195476Y-21660476D01*
X7176428Y-21650952D01*
X7166905Y-21641429D01*
X7157381Y-21622381D01*
X7147857Y-21584286D01*
X7147857Y-21536667D01*
X7157381Y-21498571D01*
X7166905Y-21479524D01*
X7176428Y-21470000D01*
X7195476Y-21460476D01*
X7347857Y-21641429D02*
X7357381Y-21650952D01*
X7347857Y-21660476D01*
X7338333Y-21650952D01*
X7347857Y-21641429D01*
X7347857Y-21660476D01*
X7481190Y-21460476D02*
X7500238Y-21460476D01*
X7519286Y-21470000D01*
X7528809Y-21479524D01*
X7538333Y-21498571D01*
X7547857Y-21536667D01*
X7547857Y-21584286D01*
X7538333Y-21622381D01*
X7528809Y-21641429D01*
X7519286Y-21650952D01*
X7500238Y-21660476D01*
X7481190Y-21660476D01*
X7462143Y-21650952D01*
X7452619Y-21641429D01*
X7443095Y-21622381D01*
X7433571Y-21584286D01*
X7433571Y-21536667D01*
X7443095Y-21498571D01*
X7452619Y-21479524D01*
X7462143Y-21470000D01*
X7481190Y-21460476D01*
X7738333Y-21660476D02*
X7624048Y-21660476D01*
X7681190Y-21660476D02*
X7681190Y-21460476D01*
X7662143Y-21489048D01*
X7643095Y-21508095D01*
X7624048Y-21517619D01*
X7919286Y-21460476D02*
X7824048Y-21460476D01*
X7814524Y-21555714D01*
X7824048Y-21546190D01*
X7843095Y-21536667D01*
X7890714Y-21536667D01*
X7909762Y-21546190D01*
X7919286Y-21555714D01*
X7928809Y-21574762D01*
X7928809Y-21622381D01*
X7919286Y-21641429D01*
X7909762Y-21650952D01*
X7890714Y-21660476D01*
X7843095Y-21660476D01*
X7824048Y-21650952D01*
X7814524Y-21641429D01*
X7995476Y-21460476D02*
X8128809Y-21460476D01*
X8043095Y-21660476D01*
X8195476Y-21460476D02*
X8195476Y-21498571D01*
X8271667Y-21460476D02*
X8271667Y-21498571D01*
X8566905Y-21736667D02*
X8557381Y-21727143D01*
X8538333Y-21698571D01*
X8528810Y-21679524D01*
X8519286Y-21650952D01*
X8509762Y-21603333D01*
X8509762Y-21565238D01*
X8519286Y-21517619D01*
X8528810Y-21489048D01*
X8538333Y-21470000D01*
X8557381Y-21441429D01*
X8566905Y-21431905D01*
X8747857Y-21660476D02*
X8633571Y-21660476D01*
X8690714Y-21660476D02*
X8690714Y-21460476D01*
X8671667Y-21489048D01*
X8652619Y-21508095D01*
X8633571Y-21517619D01*
X8824048Y-21479524D02*
X8833571Y-21470000D01*
X8852619Y-21460476D01*
X8900238Y-21460476D01*
X8919286Y-21470000D01*
X8928810Y-21479524D01*
X8938333Y-21498571D01*
X8938333Y-21517619D01*
X8928810Y-21546190D01*
X8814524Y-21660476D01*
X8938333Y-21660476D01*
X9119286Y-21460476D02*
X9024048Y-21460476D01*
X9014524Y-21555714D01*
X9024048Y-21546190D01*
X9043095Y-21536667D01*
X9090714Y-21536667D01*
X9109762Y-21546190D01*
X9119286Y-21555714D01*
X9128810Y-21574762D01*
X9128810Y-21622381D01*
X9119286Y-21641429D01*
X9109762Y-21650952D01*
X9090714Y-21660476D01*
X9043095Y-21660476D01*
X9024048Y-21650952D01*
X9014524Y-21641429D01*
X9366905Y-21660476D02*
X9366905Y-21460476D01*
X9452619Y-21660476D02*
X9452619Y-21555714D01*
X9443095Y-21536667D01*
X9424048Y-21527143D01*
X9395476Y-21527143D01*
X9376429Y-21536667D01*
X9366905Y-21546190D01*
X9576429Y-21660476D02*
X9557381Y-21650952D01*
X9547857Y-21641429D01*
X9538333Y-21622381D01*
X9538333Y-21565238D01*
X9547857Y-21546190D01*
X9557381Y-21536667D01*
X9576429Y-21527143D01*
X9605000Y-21527143D01*
X9624048Y-21536667D01*
X9633571Y-21546190D01*
X9643095Y-21565238D01*
X9643095Y-21622381D01*
X9633571Y-21641429D01*
X9624048Y-21650952D01*
X9605000Y-21660476D01*
X9576429Y-21660476D01*
X9757381Y-21660476D02*
X9738333Y-21650952D01*
X9728810Y-21631905D01*
X9728810Y-21460476D01*
X9909762Y-21650952D02*
X9890714Y-21660476D01*
X9852619Y-21660476D01*
X9833571Y-21650952D01*
X9824048Y-21631905D01*
X9824048Y-21555714D01*
X9833571Y-21536667D01*
X9852619Y-21527143D01*
X9890714Y-21527143D01*
X9909762Y-21536667D01*
X9919286Y-21555714D01*
X9919286Y-21574762D01*
X9824048Y-21593810D01*
X9995476Y-21650952D02*
X10014524Y-21660476D01*
X10052619Y-21660476D01*
X10071667Y-21650952D01*
X10081190Y-21631905D01*
X10081190Y-21622381D01*
X10071667Y-21603333D01*
X10052619Y-21593810D01*
X10024048Y-21593810D01*
X10005000Y-21584286D01*
X9995476Y-21565238D01*
X9995476Y-21555714D01*
X10005000Y-21536667D01*
X10024048Y-21527143D01*
X10052619Y-21527143D01*
X10071667Y-21536667D01*
X10147857Y-21736667D02*
X10157381Y-21727143D01*
X10176429Y-21698571D01*
X10185952Y-21679524D01*
X10195476Y-21650952D01*
X10205000Y-21603333D01*
X10205000Y-21565238D01*
X10195476Y-21517619D01*
X10185952Y-21489048D01*
X10176429Y-21470000D01*
X10157381Y-21441429D01*
X10147857Y-21431905D01*
D13*
X4995000Y-21834000D02*
G75*
G03*
X4995000Y-21834000I-40000J0D01*
G01*
D11*
X5290714Y-21724476D02*
X5309762Y-21724476D01*
X5328810Y-21734000D01*
X5338333Y-21743524D01*
X5347857Y-21762571D01*
X5357381Y-21800667D01*
X5357381Y-21848286D01*
X5347857Y-21886381D01*
X5338333Y-21905429D01*
X5328810Y-21914952D01*
X5309762Y-21924476D01*
X5290714Y-21924476D01*
X5271667Y-21914952D01*
X5262143Y-21905429D01*
X5252619Y-21886381D01*
X5243095Y-21848286D01*
X5243095Y-21800667D01*
X5252619Y-21762571D01*
X5262143Y-21743524D01*
X5271667Y-21734000D01*
X5290714Y-21724476D01*
X5443095Y-21905429D02*
X5452619Y-21914952D01*
X5443095Y-21924476D01*
X5433571Y-21914952D01*
X5443095Y-21905429D01*
X5443095Y-21924476D01*
X5566905Y-21810190D02*
X5547857Y-21800667D01*
X5538333Y-21791143D01*
X5528810Y-21772095D01*
X5528810Y-21762571D01*
X5538333Y-21743524D01*
X5547857Y-21734000D01*
X5566905Y-21724476D01*
X5605000Y-21724476D01*
X5624048Y-21734000D01*
X5633571Y-21743524D01*
X5643095Y-21762571D01*
X5643095Y-21772095D01*
X5633571Y-21791143D01*
X5624048Y-21800667D01*
X5605000Y-21810190D01*
X5566905Y-21810190D01*
X5547857Y-21819714D01*
X5538333Y-21829238D01*
X5528810Y-21848286D01*
X5528810Y-21886381D01*
X5538333Y-21905429D01*
X5547857Y-21914952D01*
X5566905Y-21924476D01*
X5605000Y-21924476D01*
X5624048Y-21914952D01*
X5633571Y-21905429D01*
X5643095Y-21886381D01*
X5643095Y-21848286D01*
X5633571Y-21829238D01*
X5624048Y-21819714D01*
X5605000Y-21810190D01*
X5766905Y-21724476D02*
X5785952Y-21724476D01*
X5805000Y-21734000D01*
X5814524Y-21743524D01*
X5824048Y-21762571D01*
X5833571Y-21800667D01*
X5833571Y-21848286D01*
X5824048Y-21886381D01*
X5814524Y-21905429D01*
X5805000Y-21914952D01*
X5785952Y-21924476D01*
X5766905Y-21924476D01*
X5747857Y-21914952D01*
X5738333Y-21905429D01*
X5728809Y-21886381D01*
X5719286Y-21848286D01*
X5719286Y-21800667D01*
X5728809Y-21762571D01*
X5738333Y-21743524D01*
X5747857Y-21734000D01*
X5766905Y-21724476D01*
X5957381Y-21724476D02*
X5976428Y-21724476D01*
X5995476Y-21734000D01*
X6005000Y-21743524D01*
X6014524Y-21762571D01*
X6024048Y-21800667D01*
X6024048Y-21848286D01*
X6014524Y-21886381D01*
X6005000Y-21905429D01*
X5995476Y-21914952D01*
X5976428Y-21924476D01*
X5957381Y-21924476D01*
X5938333Y-21914952D01*
X5928809Y-21905429D01*
X5919286Y-21886381D01*
X5909762Y-21848286D01*
X5909762Y-21800667D01*
X5919286Y-21762571D01*
X5928809Y-21743524D01*
X5938333Y-21734000D01*
X5957381Y-21724476D01*
X6109762Y-21924476D02*
X6109762Y-21791143D01*
X6109762Y-21810190D02*
X6119286Y-21800667D01*
X6138333Y-21791143D01*
X6166905Y-21791143D01*
X6185952Y-21800667D01*
X6195476Y-21819714D01*
X6195476Y-21924476D01*
X6195476Y-21819714D02*
X6205000Y-21800667D01*
X6224048Y-21791143D01*
X6252619Y-21791143D01*
X6271667Y-21800667D01*
X6281190Y-21819714D01*
X6281190Y-21924476D01*
X6376428Y-21924476D02*
X6376428Y-21791143D01*
X6376428Y-21810190D02*
X6385952Y-21800667D01*
X6405000Y-21791143D01*
X6433571Y-21791143D01*
X6452619Y-21800667D01*
X6462143Y-21819714D01*
X6462143Y-21924476D01*
X6462143Y-21819714D02*
X6471667Y-21800667D01*
X6490714Y-21791143D01*
X6519286Y-21791143D01*
X6538333Y-21800667D01*
X6547857Y-21819714D01*
X6547857Y-21924476D01*
X6938333Y-21714952D02*
X6766905Y-21972095D01*
X7195476Y-21724476D02*
X7214524Y-21724476D01*
X7233571Y-21734000D01*
X7243095Y-21743524D01*
X7252619Y-21762571D01*
X7262143Y-21800667D01*
X7262143Y-21848286D01*
X7252619Y-21886381D01*
X7243095Y-21905429D01*
X7233571Y-21914952D01*
X7214524Y-21924476D01*
X7195476Y-21924476D01*
X7176428Y-21914952D01*
X7166905Y-21905429D01*
X7157381Y-21886381D01*
X7147857Y-21848286D01*
X7147857Y-21800667D01*
X7157381Y-21762571D01*
X7166905Y-21743524D01*
X7176428Y-21734000D01*
X7195476Y-21724476D01*
X7347857Y-21905429D02*
X7357381Y-21914952D01*
X7347857Y-21924476D01*
X7338333Y-21914952D01*
X7347857Y-21905429D01*
X7347857Y-21924476D01*
X7481190Y-21724476D02*
X7500238Y-21724476D01*
X7519286Y-21734000D01*
X7528809Y-21743524D01*
X7538333Y-21762571D01*
X7547857Y-21800667D01*
X7547857Y-21848286D01*
X7538333Y-21886381D01*
X7528809Y-21905429D01*
X7519286Y-21914952D01*
X7500238Y-21924476D01*
X7481190Y-21924476D01*
X7462143Y-21914952D01*
X7452619Y-21905429D01*
X7443095Y-21886381D01*
X7433571Y-21848286D01*
X7433571Y-21800667D01*
X7443095Y-21762571D01*
X7452619Y-21743524D01*
X7462143Y-21734000D01*
X7481190Y-21724476D01*
X7614524Y-21724476D02*
X7738333Y-21724476D01*
X7671667Y-21800667D01*
X7700238Y-21800667D01*
X7719286Y-21810190D01*
X7728809Y-21819714D01*
X7738333Y-21838762D01*
X7738333Y-21886381D01*
X7728809Y-21905429D01*
X7719286Y-21914952D01*
X7700238Y-21924476D01*
X7643095Y-21924476D01*
X7624048Y-21914952D01*
X7614524Y-21905429D01*
X7928809Y-21924476D02*
X7814524Y-21924476D01*
X7871667Y-21924476D02*
X7871667Y-21724476D01*
X7852619Y-21753048D01*
X7833571Y-21772095D01*
X7814524Y-21781619D01*
X8109762Y-21724476D02*
X8014524Y-21724476D01*
X8005000Y-21819714D01*
X8014524Y-21810190D01*
X8033571Y-21800667D01*
X8081190Y-21800667D01*
X8100238Y-21810190D01*
X8109762Y-21819714D01*
X8119286Y-21838762D01*
X8119286Y-21886381D01*
X8109762Y-21905429D01*
X8100238Y-21914952D01*
X8081190Y-21924476D01*
X8033571Y-21924476D01*
X8014524Y-21914952D01*
X8005000Y-21905429D01*
X8195476Y-21724476D02*
X8195476Y-21762571D01*
X8271667Y-21724476D02*
X8271667Y-21762571D01*
X8566905Y-22000667D02*
X8557381Y-21991143D01*
X8538333Y-21962571D01*
X8528810Y-21943524D01*
X8519286Y-21914952D01*
X8509762Y-21867333D01*
X8509762Y-21829238D01*
X8519286Y-21781619D01*
X8528810Y-21753048D01*
X8538333Y-21734000D01*
X8557381Y-21705429D01*
X8566905Y-21695905D01*
X8747857Y-21924476D02*
X8633571Y-21924476D01*
X8690714Y-21924476D02*
X8690714Y-21724476D01*
X8671667Y-21753048D01*
X8652619Y-21772095D01*
X8633571Y-21781619D01*
X8928810Y-21724476D02*
X8833571Y-21724476D01*
X8824048Y-21819714D01*
X8833571Y-21810190D01*
X8852619Y-21800667D01*
X8900238Y-21800667D01*
X8919286Y-21810190D01*
X8928810Y-21819714D01*
X8938333Y-21838762D01*
X8938333Y-21886381D01*
X8928810Y-21905429D01*
X8919286Y-21914952D01*
X8900238Y-21924476D01*
X8852619Y-21924476D01*
X8833571Y-21914952D01*
X8824048Y-21905429D01*
X9062143Y-21724476D02*
X9081190Y-21724476D01*
X9100238Y-21734000D01*
X9109762Y-21743524D01*
X9119286Y-21762571D01*
X9128810Y-21800667D01*
X9128810Y-21848286D01*
X9119286Y-21886381D01*
X9109762Y-21905429D01*
X9100238Y-21914952D01*
X9081190Y-21924476D01*
X9062143Y-21924476D01*
X9043095Y-21914952D01*
X9033571Y-21905429D01*
X9024048Y-21886381D01*
X9014524Y-21848286D01*
X9014524Y-21800667D01*
X9024048Y-21762571D01*
X9033571Y-21743524D01*
X9043095Y-21734000D01*
X9062143Y-21724476D01*
X9366905Y-21924476D02*
X9366905Y-21724476D01*
X9452619Y-21924476D02*
X9452619Y-21819714D01*
X9443095Y-21800667D01*
X9424048Y-21791143D01*
X9395476Y-21791143D01*
X9376429Y-21800667D01*
X9366905Y-21810190D01*
X9576429Y-21924476D02*
X9557381Y-21914952D01*
X9547857Y-21905429D01*
X9538333Y-21886381D01*
X9538333Y-21829238D01*
X9547857Y-21810190D01*
X9557381Y-21800667D01*
X9576429Y-21791143D01*
X9605000Y-21791143D01*
X9624048Y-21800667D01*
X9633571Y-21810190D01*
X9643095Y-21829238D01*
X9643095Y-21886381D01*
X9633571Y-21905429D01*
X9624048Y-21914952D01*
X9605000Y-21924476D01*
X9576429Y-21924476D01*
X9757381Y-21924476D02*
X9738333Y-21914952D01*
X9728810Y-21895905D01*
X9728810Y-21724476D01*
X9909762Y-21914952D02*
X9890714Y-21924476D01*
X9852619Y-21924476D01*
X9833571Y-21914952D01*
X9824048Y-21895905D01*
X9824048Y-21819714D01*
X9833571Y-21800667D01*
X9852619Y-21791143D01*
X9890714Y-21791143D01*
X9909762Y-21800667D01*
X9919286Y-21819714D01*
X9919286Y-21838762D01*
X9824048Y-21857810D01*
X9995476Y-21914952D02*
X10014524Y-21924476D01*
X10052619Y-21924476D01*
X10071667Y-21914952D01*
X10081190Y-21895905D01*
X10081190Y-21886381D01*
X10071667Y-21867333D01*
X10052619Y-21857810D01*
X10024048Y-21857810D01*
X10005000Y-21848286D01*
X9995476Y-21829238D01*
X9995476Y-21819714D01*
X10005000Y-21800667D01*
X10024048Y-21791143D01*
X10052619Y-21791143D01*
X10071667Y-21800667D01*
X10147857Y-22000667D02*
X10157381Y-21991143D01*
X10176429Y-21962571D01*
X10185952Y-21943524D01*
X10195476Y-21914952D01*
X10205000Y-21867333D01*
X10205000Y-21829238D01*
X10195476Y-21781619D01*
X10185952Y-21753048D01*
X10176429Y-21734000D01*
X10157381Y-21705429D01*
X10147857Y-21695905D01*
D14*
X4950550Y-22053550D02*
X4950550Y-22142450D01*
X4906100Y-22098000D02*
X4995000Y-22098000D01*
D11*
X5290714Y-21988476D02*
X5309762Y-21988476D01*
X5328810Y-21998000D01*
X5338333Y-22007524D01*
X5347857Y-22026571D01*
X5357381Y-22064667D01*
X5357381Y-22112286D01*
X5347857Y-22150381D01*
X5338333Y-22169429D01*
X5328810Y-22178952D01*
X5309762Y-22188476D01*
X5290714Y-22188476D01*
X5271667Y-22178952D01*
X5262143Y-22169429D01*
X5252619Y-22150381D01*
X5243095Y-22112286D01*
X5243095Y-22064667D01*
X5252619Y-22026571D01*
X5262143Y-22007524D01*
X5271667Y-21998000D01*
X5290714Y-21988476D01*
X5443095Y-22169429D02*
X5452619Y-22178952D01*
X5443095Y-22188476D01*
X5433571Y-22178952D01*
X5443095Y-22169429D01*
X5443095Y-22188476D01*
X5566905Y-22074190D02*
X5547857Y-22064667D01*
X5538333Y-22055143D01*
X5528810Y-22036095D01*
X5528810Y-22026571D01*
X5538333Y-22007524D01*
X5547857Y-21998000D01*
X5566905Y-21988476D01*
X5605000Y-21988476D01*
X5624048Y-21998000D01*
X5633571Y-22007524D01*
X5643095Y-22026571D01*
X5643095Y-22036095D01*
X5633571Y-22055143D01*
X5624048Y-22064667D01*
X5605000Y-22074190D01*
X5566905Y-22074190D01*
X5547857Y-22083714D01*
X5538333Y-22093238D01*
X5528810Y-22112286D01*
X5528810Y-22150381D01*
X5538333Y-22169429D01*
X5547857Y-22178952D01*
X5566905Y-22188476D01*
X5605000Y-22188476D01*
X5624048Y-22178952D01*
X5633571Y-22169429D01*
X5643095Y-22150381D01*
X5643095Y-22112286D01*
X5633571Y-22093238D01*
X5624048Y-22083714D01*
X5605000Y-22074190D01*
X5757381Y-22074190D02*
X5738333Y-22064667D01*
X5728809Y-22055143D01*
X5719286Y-22036095D01*
X5719286Y-22026571D01*
X5728809Y-22007524D01*
X5738333Y-21998000D01*
X5757381Y-21988476D01*
X5795476Y-21988476D01*
X5814524Y-21998000D01*
X5824048Y-22007524D01*
X5833571Y-22026571D01*
X5833571Y-22036095D01*
X5824048Y-22055143D01*
X5814524Y-22064667D01*
X5795476Y-22074190D01*
X5757381Y-22074190D01*
X5738333Y-22083714D01*
X5728809Y-22093238D01*
X5719286Y-22112286D01*
X5719286Y-22150381D01*
X5728809Y-22169429D01*
X5738333Y-22178952D01*
X5757381Y-22188476D01*
X5795476Y-22188476D01*
X5814524Y-22178952D01*
X5824048Y-22169429D01*
X5833571Y-22150381D01*
X5833571Y-22112286D01*
X5824048Y-22093238D01*
X5814524Y-22083714D01*
X5795476Y-22074190D01*
X5928809Y-22188476D02*
X5966905Y-22188476D01*
X5985952Y-22178952D01*
X5995476Y-22169429D01*
X6014524Y-22140857D01*
X6024048Y-22102762D01*
X6024048Y-22026571D01*
X6014524Y-22007524D01*
X6005000Y-21998000D01*
X5985952Y-21988476D01*
X5947857Y-21988476D01*
X5928809Y-21998000D01*
X5919286Y-22007524D01*
X5909762Y-22026571D01*
X5909762Y-22074190D01*
X5919286Y-22093238D01*
X5928809Y-22102762D01*
X5947857Y-22112286D01*
X5985952Y-22112286D01*
X6005000Y-22102762D01*
X6014524Y-22093238D01*
X6024048Y-22074190D01*
X6109762Y-22188476D02*
X6109762Y-22055143D01*
X6109762Y-22074190D02*
X6119286Y-22064667D01*
X6138333Y-22055143D01*
X6166905Y-22055143D01*
X6185952Y-22064667D01*
X6195476Y-22083714D01*
X6195476Y-22188476D01*
X6195476Y-22083714D02*
X6205000Y-22064667D01*
X6224048Y-22055143D01*
X6252619Y-22055143D01*
X6271667Y-22064667D01*
X6281190Y-22083714D01*
X6281190Y-22188476D01*
X6376428Y-22188476D02*
X6376428Y-22055143D01*
X6376428Y-22074190D02*
X6385952Y-22064667D01*
X6405000Y-22055143D01*
X6433571Y-22055143D01*
X6452619Y-22064667D01*
X6462143Y-22083714D01*
X6462143Y-22188476D01*
X6462143Y-22083714D02*
X6471667Y-22064667D01*
X6490714Y-22055143D01*
X6519286Y-22055143D01*
X6538333Y-22064667D01*
X6547857Y-22083714D01*
X6547857Y-22188476D01*
X6938333Y-21978952D02*
X6766905Y-22236095D01*
X7195476Y-21988476D02*
X7214524Y-21988476D01*
X7233571Y-21998000D01*
X7243095Y-22007524D01*
X7252619Y-22026571D01*
X7262143Y-22064667D01*
X7262143Y-22112286D01*
X7252619Y-22150381D01*
X7243095Y-22169429D01*
X7233571Y-22178952D01*
X7214524Y-22188476D01*
X7195476Y-22188476D01*
X7176428Y-22178952D01*
X7166905Y-22169429D01*
X7157381Y-22150381D01*
X7147857Y-22112286D01*
X7147857Y-22064667D01*
X7157381Y-22026571D01*
X7166905Y-22007524D01*
X7176428Y-21998000D01*
X7195476Y-21988476D01*
X7347857Y-22169429D02*
X7357381Y-22178952D01*
X7347857Y-22188476D01*
X7338333Y-22178952D01*
X7347857Y-22169429D01*
X7347857Y-22188476D01*
X7481190Y-21988476D02*
X7500238Y-21988476D01*
X7519286Y-21998000D01*
X7528809Y-22007524D01*
X7538333Y-22026571D01*
X7547857Y-22064667D01*
X7547857Y-22112286D01*
X7538333Y-22150381D01*
X7528809Y-22169429D01*
X7519286Y-22178952D01*
X7500238Y-22188476D01*
X7481190Y-22188476D01*
X7462143Y-22178952D01*
X7452619Y-22169429D01*
X7443095Y-22150381D01*
X7433571Y-22112286D01*
X7433571Y-22064667D01*
X7443095Y-22026571D01*
X7452619Y-22007524D01*
X7462143Y-21998000D01*
X7481190Y-21988476D01*
X7614524Y-21988476D02*
X7738333Y-21988476D01*
X7671667Y-22064667D01*
X7700238Y-22064667D01*
X7719286Y-22074190D01*
X7728809Y-22083714D01*
X7738333Y-22102762D01*
X7738333Y-22150381D01*
X7728809Y-22169429D01*
X7719286Y-22178952D01*
X7700238Y-22188476D01*
X7643095Y-22188476D01*
X7624048Y-22178952D01*
X7614524Y-22169429D01*
X7919286Y-21988476D02*
X7824048Y-21988476D01*
X7814524Y-22083714D01*
X7824048Y-22074190D01*
X7843095Y-22064667D01*
X7890714Y-22064667D01*
X7909762Y-22074190D01*
X7919286Y-22083714D01*
X7928809Y-22102762D01*
X7928809Y-22150381D01*
X7919286Y-22169429D01*
X7909762Y-22178952D01*
X7890714Y-22188476D01*
X7843095Y-22188476D01*
X7824048Y-22178952D01*
X7814524Y-22169429D01*
X8052619Y-21988476D02*
X8071667Y-21988476D01*
X8090714Y-21998000D01*
X8100238Y-22007524D01*
X8109762Y-22026571D01*
X8119286Y-22064667D01*
X8119286Y-22112286D01*
X8109762Y-22150381D01*
X8100238Y-22169429D01*
X8090714Y-22178952D01*
X8071667Y-22188476D01*
X8052619Y-22188476D01*
X8033571Y-22178952D01*
X8024048Y-22169429D01*
X8014524Y-22150381D01*
X8005000Y-22112286D01*
X8005000Y-22064667D01*
X8014524Y-22026571D01*
X8024048Y-22007524D01*
X8033571Y-21998000D01*
X8052619Y-21988476D01*
X8195476Y-21988476D02*
X8195476Y-22026571D01*
X8271667Y-21988476D02*
X8271667Y-22026571D01*
X8566905Y-22264667D02*
X8557381Y-22255143D01*
X8538333Y-22226571D01*
X8528810Y-22207524D01*
X8519286Y-22178952D01*
X8509762Y-22131333D01*
X8509762Y-22093238D01*
X8519286Y-22045619D01*
X8528810Y-22017048D01*
X8538333Y-21998000D01*
X8557381Y-21969429D01*
X8566905Y-21959905D01*
X8728810Y-21988476D02*
X8690714Y-21988476D01*
X8671667Y-21998000D01*
X8662143Y-22007524D01*
X8643095Y-22036095D01*
X8633571Y-22074190D01*
X8633571Y-22150381D01*
X8643095Y-22169429D01*
X8652619Y-22178952D01*
X8671667Y-22188476D01*
X8709762Y-22188476D01*
X8728810Y-22178952D01*
X8738333Y-22169429D01*
X8747857Y-22150381D01*
X8747857Y-22102762D01*
X8738333Y-22083714D01*
X8728810Y-22074190D01*
X8709762Y-22064667D01*
X8671667Y-22064667D01*
X8652619Y-22074190D01*
X8643095Y-22083714D01*
X8633571Y-22102762D01*
X8985952Y-22188476D02*
X8985952Y-21988476D01*
X9071667Y-22188476D02*
X9071667Y-22083714D01*
X9062143Y-22064667D01*
X9043095Y-22055143D01*
X9014524Y-22055143D01*
X8995476Y-22064667D01*
X8985952Y-22074190D01*
X9195476Y-22188476D02*
X9176429Y-22178952D01*
X9166905Y-22169429D01*
X9157381Y-22150381D01*
X9157381Y-22093238D01*
X9166905Y-22074190D01*
X9176429Y-22064667D01*
X9195476Y-22055143D01*
X9224048Y-22055143D01*
X9243095Y-22064667D01*
X9252619Y-22074190D01*
X9262143Y-22093238D01*
X9262143Y-22150381D01*
X9252619Y-22169429D01*
X9243095Y-22178952D01*
X9224048Y-22188476D01*
X9195476Y-22188476D01*
X9376429Y-22188476D02*
X9357381Y-22178952D01*
X9347857Y-22159905D01*
X9347857Y-21988476D01*
X9528810Y-22178952D02*
X9509762Y-22188476D01*
X9471667Y-22188476D01*
X9452619Y-22178952D01*
X9443095Y-22159905D01*
X9443095Y-22083714D01*
X9452619Y-22064667D01*
X9471667Y-22055143D01*
X9509762Y-22055143D01*
X9528810Y-22064667D01*
X9538333Y-22083714D01*
X9538333Y-22102762D01*
X9443095Y-22121810D01*
X9614524Y-22178952D02*
X9633571Y-22188476D01*
X9671667Y-22188476D01*
X9690714Y-22178952D01*
X9700238Y-22159905D01*
X9700238Y-22150381D01*
X9690714Y-22131333D01*
X9671667Y-22121810D01*
X9643095Y-22121810D01*
X9624048Y-22112286D01*
X9614524Y-22093238D01*
X9614524Y-22083714D01*
X9624048Y-22064667D01*
X9643095Y-22055143D01*
X9671667Y-22055143D01*
X9690714Y-22064667D01*
X9766905Y-22264667D02*
X9776429Y-22255143D01*
X9795476Y-22226571D01*
X9805000Y-22207524D01*
X9814524Y-22178952D01*
X9824048Y-22131333D01*
X9824048Y-22093238D01*
X9814524Y-22045619D01*
X9805000Y-22017048D01*
X9795476Y-21998000D01*
X9776429Y-21969429D01*
X9766905Y-21959905D01*
D15*
X4981820Y-22393820D02*
X4981820Y-22330180D01*
X4918180Y-22330180D01*
X4918180Y-22393820D01*
X4981820Y-22393820D01*
D11*
X5290714Y-22252476D02*
X5309762Y-22252476D01*
X5328810Y-22262000D01*
X5338333Y-22271524D01*
X5347857Y-22290571D01*
X5357381Y-22328667D01*
X5357381Y-22376286D01*
X5347857Y-22414381D01*
X5338333Y-22433428D01*
X5328810Y-22442952D01*
X5309762Y-22452476D01*
X5290714Y-22452476D01*
X5271667Y-22442952D01*
X5262143Y-22433428D01*
X5252619Y-22414381D01*
X5243095Y-22376286D01*
X5243095Y-22328667D01*
X5252619Y-22290571D01*
X5262143Y-22271524D01*
X5271667Y-22262000D01*
X5290714Y-22252476D01*
X5443095Y-22433428D02*
X5452619Y-22442952D01*
X5443095Y-22452476D01*
X5433571Y-22442952D01*
X5443095Y-22433428D01*
X5443095Y-22452476D01*
X5547857Y-22452476D02*
X5585952Y-22452476D01*
X5605000Y-22442952D01*
X5614524Y-22433428D01*
X5633571Y-22404857D01*
X5643095Y-22366762D01*
X5643095Y-22290571D01*
X5633571Y-22271524D01*
X5624048Y-22262000D01*
X5605000Y-22252476D01*
X5566905Y-22252476D01*
X5547857Y-22262000D01*
X5538333Y-22271524D01*
X5528810Y-22290571D01*
X5528810Y-22338190D01*
X5538333Y-22357238D01*
X5547857Y-22366762D01*
X5566905Y-22376286D01*
X5605000Y-22376286D01*
X5624048Y-22366762D01*
X5633571Y-22357238D01*
X5643095Y-22338190D01*
X5766905Y-22252476D02*
X5785952Y-22252476D01*
X5805000Y-22262000D01*
X5814524Y-22271524D01*
X5824048Y-22290571D01*
X5833571Y-22328667D01*
X5833571Y-22376286D01*
X5824048Y-22414381D01*
X5814524Y-22433428D01*
X5805000Y-22442952D01*
X5785952Y-22452476D01*
X5766905Y-22452476D01*
X5747857Y-22442952D01*
X5738333Y-22433428D01*
X5728809Y-22414381D01*
X5719286Y-22376286D01*
X5719286Y-22328667D01*
X5728809Y-22290571D01*
X5738333Y-22271524D01*
X5747857Y-22262000D01*
X5766905Y-22252476D01*
X5957381Y-22252476D02*
X5976428Y-22252476D01*
X5995476Y-22262000D01*
X6005000Y-22271524D01*
X6014524Y-22290571D01*
X6024048Y-22328667D01*
X6024048Y-22376286D01*
X6014524Y-22414381D01*
X6005000Y-22433428D01*
X5995476Y-22442952D01*
X5976428Y-22452476D01*
X5957381Y-22452476D01*
X5938333Y-22442952D01*
X5928809Y-22433428D01*
X5919286Y-22414381D01*
X5909762Y-22376286D01*
X5909762Y-22328667D01*
X5919286Y-22290571D01*
X5928809Y-22271524D01*
X5938333Y-22262000D01*
X5957381Y-22252476D01*
X6109762Y-22452476D02*
X6109762Y-22319143D01*
X6109762Y-22338190D02*
X6119286Y-22328667D01*
X6138333Y-22319143D01*
X6166905Y-22319143D01*
X6185952Y-22328667D01*
X6195476Y-22347714D01*
X6195476Y-22452476D01*
X6195476Y-22347714D02*
X6205000Y-22328667D01*
X6224048Y-22319143D01*
X6252619Y-22319143D01*
X6271667Y-22328667D01*
X6281190Y-22347714D01*
X6281190Y-22452476D01*
X6376428Y-22452476D02*
X6376428Y-22319143D01*
X6376428Y-22338190D02*
X6385952Y-22328667D01*
X6405000Y-22319143D01*
X6433571Y-22319143D01*
X6452619Y-22328667D01*
X6462143Y-22347714D01*
X6462143Y-22452476D01*
X6462143Y-22347714D02*
X6471667Y-22328667D01*
X6490714Y-22319143D01*
X6519286Y-22319143D01*
X6538333Y-22328667D01*
X6547857Y-22347714D01*
X6547857Y-22452476D01*
X6938333Y-22242952D02*
X6766905Y-22500095D01*
X7195476Y-22252476D02*
X7214524Y-22252476D01*
X7233571Y-22262000D01*
X7243095Y-22271524D01*
X7252619Y-22290571D01*
X7262143Y-22328667D01*
X7262143Y-22376286D01*
X7252619Y-22414381D01*
X7243095Y-22433428D01*
X7233571Y-22442952D01*
X7214524Y-22452476D01*
X7195476Y-22452476D01*
X7176428Y-22442952D01*
X7166905Y-22433428D01*
X7157381Y-22414381D01*
X7147857Y-22376286D01*
X7147857Y-22328667D01*
X7157381Y-22290571D01*
X7166905Y-22271524D01*
X7176428Y-22262000D01*
X7195476Y-22252476D01*
X7347857Y-22433428D02*
X7357381Y-22442952D01*
X7347857Y-22452476D01*
X7338333Y-22442952D01*
X7347857Y-22433428D01*
X7347857Y-22452476D01*
X7481190Y-22252476D02*
X7500238Y-22252476D01*
X7519286Y-22262000D01*
X7528809Y-22271524D01*
X7538333Y-22290571D01*
X7547857Y-22328667D01*
X7547857Y-22376286D01*
X7538333Y-22414381D01*
X7528809Y-22433428D01*
X7519286Y-22442952D01*
X7500238Y-22452476D01*
X7481190Y-22452476D01*
X7462143Y-22442952D01*
X7452619Y-22433428D01*
X7443095Y-22414381D01*
X7433571Y-22376286D01*
X7433571Y-22328667D01*
X7443095Y-22290571D01*
X7452619Y-22271524D01*
X7462143Y-22262000D01*
X7481190Y-22252476D01*
X7614524Y-22252476D02*
X7738333Y-22252476D01*
X7671667Y-22328667D01*
X7700238Y-22328667D01*
X7719286Y-22338190D01*
X7728809Y-22347714D01*
X7738333Y-22366762D01*
X7738333Y-22414381D01*
X7728809Y-22433428D01*
X7719286Y-22442952D01*
X7700238Y-22452476D01*
X7643095Y-22452476D01*
X7624048Y-22442952D01*
X7614524Y-22433428D01*
X7919286Y-22252476D02*
X7824048Y-22252476D01*
X7814524Y-22347714D01*
X7824048Y-22338190D01*
X7843095Y-22328667D01*
X7890714Y-22328667D01*
X7909762Y-22338190D01*
X7919286Y-22347714D01*
X7928809Y-22366762D01*
X7928809Y-22414381D01*
X7919286Y-22433428D01*
X7909762Y-22442952D01*
X7890714Y-22452476D01*
X7843095Y-22452476D01*
X7824048Y-22442952D01*
X7814524Y-22433428D01*
X8100238Y-22319143D02*
X8100238Y-22452476D01*
X8052619Y-22242952D02*
X8005000Y-22385809D01*
X8128809Y-22385809D01*
X8195476Y-22252476D02*
X8195476Y-22290571D01*
X8271667Y-22252476D02*
X8271667Y-22290571D01*
X8566905Y-22528667D02*
X8557381Y-22519143D01*
X8538333Y-22490571D01*
X8528810Y-22471524D01*
X8519286Y-22442952D01*
X8509762Y-22395333D01*
X8509762Y-22357238D01*
X8519286Y-22309619D01*
X8528810Y-22281048D01*
X8538333Y-22262000D01*
X8557381Y-22233429D01*
X8566905Y-22223905D01*
X8728810Y-22319143D02*
X8728810Y-22452476D01*
X8681190Y-22242952D02*
X8633571Y-22385809D01*
X8757381Y-22385809D01*
X8985952Y-22452476D02*
X8985952Y-22252476D01*
X9071667Y-22452476D02*
X9071667Y-22347714D01*
X9062143Y-22328667D01*
X9043095Y-22319143D01*
X9014524Y-22319143D01*
X8995476Y-22328667D01*
X8985952Y-22338190D01*
X9195476Y-22452476D02*
X9176429Y-22442952D01*
X9166905Y-22433428D01*
X9157381Y-22414381D01*
X9157381Y-22357238D01*
X9166905Y-22338190D01*
X9176429Y-22328667D01*
X9195476Y-22319143D01*
X9224048Y-22319143D01*
X9243095Y-22328667D01*
X9252619Y-22338190D01*
X9262143Y-22357238D01*
X9262143Y-22414381D01*
X9252619Y-22433428D01*
X9243095Y-22442952D01*
X9224048Y-22452476D01*
X9195476Y-22452476D01*
X9376429Y-22452476D02*
X9357381Y-22442952D01*
X9347857Y-22423905D01*
X9347857Y-22252476D01*
X9528810Y-22442952D02*
X9509762Y-22452476D01*
X9471667Y-22452476D01*
X9452619Y-22442952D01*
X9443095Y-22423905D01*
X9443095Y-22347714D01*
X9452619Y-22328667D01*
X9471667Y-22319143D01*
X9509762Y-22319143D01*
X9528810Y-22328667D01*
X9538333Y-22347714D01*
X9538333Y-22366762D01*
X9443095Y-22385809D01*
X9614524Y-22442952D02*
X9633571Y-22452476D01*
X9671667Y-22452476D01*
X9690714Y-22442952D01*
X9700238Y-22423905D01*
X9700238Y-22414381D01*
X9690714Y-22395333D01*
X9671667Y-22385809D01*
X9643095Y-22385809D01*
X9624048Y-22376286D01*
X9614524Y-22357238D01*
X9614524Y-22347714D01*
X9624048Y-22328667D01*
X9643095Y-22319143D01*
X9671667Y-22319143D01*
X9690714Y-22328667D01*
X9766905Y-22528667D02*
X9776429Y-22519143D01*
X9795476Y-22490571D01*
X9805000Y-22471524D01*
X9814524Y-22442952D01*
X9824048Y-22395333D01*
X9824048Y-22357238D01*
X9814524Y-22309619D01*
X9805000Y-22281048D01*
X9795476Y-22262000D01*
X9776429Y-22233429D01*
X9766905Y-22223905D01*
D16*
X4945000Y-22676000D02*
X4995000Y-22626000D01*
X4945000Y-22576000D01*
X4895000Y-22626000D01*
X4945000Y-22676000D01*
D11*
X5357381Y-22716476D02*
X5243095Y-22716476D01*
X5300238Y-22716476D02*
X5300238Y-22516476D01*
X5281190Y-22545048D01*
X5262143Y-22564095D01*
X5243095Y-22573619D01*
X5443095Y-22697428D02*
X5452619Y-22706952D01*
X5443095Y-22716476D01*
X5433571Y-22706952D01*
X5443095Y-22697428D01*
X5443095Y-22716476D01*
X5576429Y-22516476D02*
X5595476Y-22516476D01*
X5614524Y-22526000D01*
X5624048Y-22535524D01*
X5633571Y-22554571D01*
X5643095Y-22592667D01*
X5643095Y-22640286D01*
X5633571Y-22678381D01*
X5624048Y-22697428D01*
X5614524Y-22706952D01*
X5595476Y-22716476D01*
X5576429Y-22716476D01*
X5557381Y-22706952D01*
X5547857Y-22697428D01*
X5538333Y-22678381D01*
X5528810Y-22640286D01*
X5528810Y-22592667D01*
X5538333Y-22554571D01*
X5547857Y-22535524D01*
X5557381Y-22526000D01*
X5576429Y-22516476D01*
X5766905Y-22516476D02*
X5785952Y-22516476D01*
X5805000Y-22526000D01*
X5814524Y-22535524D01*
X5824048Y-22554571D01*
X5833571Y-22592667D01*
X5833571Y-22640286D01*
X5824048Y-22678381D01*
X5814524Y-22697428D01*
X5805000Y-22706952D01*
X5785952Y-22716476D01*
X5766905Y-22716476D01*
X5747857Y-22706952D01*
X5738333Y-22697428D01*
X5728809Y-22678381D01*
X5719286Y-22640286D01*
X5719286Y-22592667D01*
X5728809Y-22554571D01*
X5738333Y-22535524D01*
X5747857Y-22526000D01*
X5766905Y-22516476D01*
X5957381Y-22516476D02*
X5976428Y-22516476D01*
X5995476Y-22526000D01*
X6005000Y-22535524D01*
X6014524Y-22554571D01*
X6024048Y-22592667D01*
X6024048Y-22640286D01*
X6014524Y-22678381D01*
X6005000Y-22697428D01*
X5995476Y-22706952D01*
X5976428Y-22716476D01*
X5957381Y-22716476D01*
X5938333Y-22706952D01*
X5928809Y-22697428D01*
X5919286Y-22678381D01*
X5909762Y-22640286D01*
X5909762Y-22592667D01*
X5919286Y-22554571D01*
X5928809Y-22535524D01*
X5938333Y-22526000D01*
X5957381Y-22516476D01*
X6109762Y-22716476D02*
X6109762Y-22583143D01*
X6109762Y-22602190D02*
X6119286Y-22592667D01*
X6138333Y-22583143D01*
X6166905Y-22583143D01*
X6185952Y-22592667D01*
X6195476Y-22611714D01*
X6195476Y-22716476D01*
X6195476Y-22611714D02*
X6205000Y-22592667D01*
X6224048Y-22583143D01*
X6252619Y-22583143D01*
X6271667Y-22592667D01*
X6281190Y-22611714D01*
X6281190Y-22716476D01*
X6376428Y-22716476D02*
X6376428Y-22583143D01*
X6376428Y-22602190D02*
X6385952Y-22592667D01*
X6405000Y-22583143D01*
X6433571Y-22583143D01*
X6452619Y-22592667D01*
X6462143Y-22611714D01*
X6462143Y-22716476D01*
X6462143Y-22611714D02*
X6471667Y-22592667D01*
X6490714Y-22583143D01*
X6519286Y-22583143D01*
X6538333Y-22592667D01*
X6547857Y-22611714D01*
X6547857Y-22716476D01*
X6938333Y-22506952D02*
X6766905Y-22764095D01*
X7195476Y-22516476D02*
X7214524Y-22516476D01*
X7233571Y-22526000D01*
X7243095Y-22535524D01*
X7252619Y-22554571D01*
X7262143Y-22592667D01*
X7262143Y-22640286D01*
X7252619Y-22678381D01*
X7243095Y-22697428D01*
X7233571Y-22706952D01*
X7214524Y-22716476D01*
X7195476Y-22716476D01*
X7176428Y-22706952D01*
X7166905Y-22697428D01*
X7157381Y-22678381D01*
X7147857Y-22640286D01*
X7147857Y-22592667D01*
X7157381Y-22554571D01*
X7166905Y-22535524D01*
X7176428Y-22526000D01*
X7195476Y-22516476D01*
X7347857Y-22697428D02*
X7357381Y-22706952D01*
X7347857Y-22716476D01*
X7338333Y-22706952D01*
X7347857Y-22697428D01*
X7347857Y-22716476D01*
X7481190Y-22516476D02*
X7500238Y-22516476D01*
X7519286Y-22526000D01*
X7528809Y-22535524D01*
X7538333Y-22554571D01*
X7547857Y-22592667D01*
X7547857Y-22640286D01*
X7538333Y-22678381D01*
X7528809Y-22697428D01*
X7519286Y-22706952D01*
X7500238Y-22716476D01*
X7481190Y-22716476D01*
X7462143Y-22706952D01*
X7452619Y-22697428D01*
X7443095Y-22678381D01*
X7433571Y-22640286D01*
X7433571Y-22592667D01*
X7443095Y-22554571D01*
X7452619Y-22535524D01*
X7462143Y-22526000D01*
X7481190Y-22516476D01*
X7614524Y-22516476D02*
X7738333Y-22516476D01*
X7671667Y-22592667D01*
X7700238Y-22592667D01*
X7719286Y-22602190D01*
X7728809Y-22611714D01*
X7738333Y-22630762D01*
X7738333Y-22678381D01*
X7728809Y-22697428D01*
X7719286Y-22706952D01*
X7700238Y-22716476D01*
X7643095Y-22716476D01*
X7624048Y-22706952D01*
X7614524Y-22697428D01*
X7833571Y-22716476D02*
X7871667Y-22716476D01*
X7890714Y-22706952D01*
X7900238Y-22697428D01*
X7919286Y-22668857D01*
X7928809Y-22630762D01*
X7928809Y-22554571D01*
X7919286Y-22535524D01*
X7909762Y-22526000D01*
X7890714Y-22516476D01*
X7852619Y-22516476D01*
X7833571Y-22526000D01*
X7824048Y-22535524D01*
X7814524Y-22554571D01*
X7814524Y-22602190D01*
X7824048Y-22621238D01*
X7833571Y-22630762D01*
X7852619Y-22640286D01*
X7890714Y-22640286D01*
X7909762Y-22630762D01*
X7919286Y-22621238D01*
X7928809Y-22602190D01*
X8100238Y-22583143D02*
X8100238Y-22716476D01*
X8052619Y-22506952D02*
X8005000Y-22649809D01*
X8128809Y-22649809D01*
X8195476Y-22516476D02*
X8195476Y-22554571D01*
X8271667Y-22516476D02*
X8271667Y-22554571D01*
X8566905Y-22792667D02*
X8557381Y-22783143D01*
X8538333Y-22754571D01*
X8528810Y-22735524D01*
X8519286Y-22706952D01*
X8509762Y-22659333D01*
X8509762Y-22621238D01*
X8519286Y-22573619D01*
X8528810Y-22545048D01*
X8538333Y-22526000D01*
X8557381Y-22497428D01*
X8566905Y-22487905D01*
X8747857Y-22716476D02*
X8633571Y-22716476D01*
X8690714Y-22716476D02*
X8690714Y-22516476D01*
X8671667Y-22545048D01*
X8652619Y-22564095D01*
X8633571Y-22573619D01*
X8928810Y-22516476D02*
X8833571Y-22516476D01*
X8824048Y-22611714D01*
X8833571Y-22602190D01*
X8852619Y-22592667D01*
X8900238Y-22592667D01*
X8919286Y-22602190D01*
X8928810Y-22611714D01*
X8938333Y-22630762D01*
X8938333Y-22678381D01*
X8928810Y-22697428D01*
X8919286Y-22706952D01*
X8900238Y-22716476D01*
X8852619Y-22716476D01*
X8833571Y-22706952D01*
X8824048Y-22697428D01*
X9176429Y-22716476D02*
X9176429Y-22516476D01*
X9262143Y-22716476D02*
X9262143Y-22611714D01*
X9252619Y-22592667D01*
X9233571Y-22583143D01*
X9205000Y-22583143D01*
X9185952Y-22592667D01*
X9176429Y-22602190D01*
X9385952Y-22716476D02*
X9366905Y-22706952D01*
X9357381Y-22697428D01*
X9347857Y-22678381D01*
X9347857Y-22621238D01*
X9357381Y-22602190D01*
X9366905Y-22592667D01*
X9385952Y-22583143D01*
X9414524Y-22583143D01*
X9433571Y-22592667D01*
X9443095Y-22602190D01*
X9452619Y-22621238D01*
X9452619Y-22678381D01*
X9443095Y-22697428D01*
X9433571Y-22706952D01*
X9414524Y-22716476D01*
X9385952Y-22716476D01*
X9566905Y-22716476D02*
X9547857Y-22706952D01*
X9538333Y-22687905D01*
X9538333Y-22516476D01*
X9719286Y-22706952D02*
X9700238Y-22716476D01*
X9662143Y-22716476D01*
X9643095Y-22706952D01*
X9633571Y-22687905D01*
X9633571Y-22611714D01*
X9643095Y-22592667D01*
X9662143Y-22583143D01*
X9700238Y-22583143D01*
X9719286Y-22592667D01*
X9728810Y-22611714D01*
X9728810Y-22630762D01*
X9633571Y-22649809D01*
X9805000Y-22706952D02*
X9824048Y-22716476D01*
X9862143Y-22716476D01*
X9881190Y-22706952D01*
X9890714Y-22687905D01*
X9890714Y-22678381D01*
X9881190Y-22659333D01*
X9862143Y-22649809D01*
X9833571Y-22649809D01*
X9814524Y-22640286D01*
X9805000Y-22621238D01*
X9805000Y-22611714D01*
X9814524Y-22592667D01*
X9833571Y-22583143D01*
X9862143Y-22583143D01*
X9881190Y-22592667D01*
X9957381Y-22792667D02*
X9966905Y-22783143D01*
X9985952Y-22754571D01*
X9995476Y-22735524D01*
X10005000Y-22706952D01*
X10014524Y-22659333D01*
X10014524Y-22621238D01*
X10005000Y-22573619D01*
X9995476Y-22545048D01*
X9985952Y-22526000D01*
X9966905Y-22497428D01*
X9957381Y-22487905D01*
D17*
X4893000Y-22839000D02*
X4995000Y-22941000D01*
X4995000Y-22839000D02*
X4893000Y-22941000D01*
X4995000Y-22890000D02*
G75*
G03*
X4995000Y-22890000I-51000J0D01*
G01*
D11*
X5357381Y-22980476D02*
X5243095Y-22980476D01*
X5300238Y-22980476D02*
X5300238Y-22780476D01*
X5281190Y-22809048D01*
X5262143Y-22828095D01*
X5243095Y-22837619D01*
X5443095Y-22961428D02*
X5452619Y-22970952D01*
X5443095Y-22980476D01*
X5433571Y-22970952D01*
X5443095Y-22961428D01*
X5443095Y-22980476D01*
X5576429Y-22780476D02*
X5595476Y-22780476D01*
X5614524Y-22790000D01*
X5624048Y-22799524D01*
X5633571Y-22818571D01*
X5643095Y-22856667D01*
X5643095Y-22904286D01*
X5633571Y-22942381D01*
X5624048Y-22961428D01*
X5614524Y-22970952D01*
X5595476Y-22980476D01*
X5576429Y-22980476D01*
X5557381Y-22970952D01*
X5547857Y-22961428D01*
X5538333Y-22942381D01*
X5528810Y-22904286D01*
X5528810Y-22856667D01*
X5538333Y-22818571D01*
X5547857Y-22799524D01*
X5557381Y-22790000D01*
X5576429Y-22780476D01*
X5719286Y-22799524D02*
X5728809Y-22790000D01*
X5747857Y-22780476D01*
X5795476Y-22780476D01*
X5814524Y-22790000D01*
X5824048Y-22799524D01*
X5833571Y-22818571D01*
X5833571Y-22837619D01*
X5824048Y-22866190D01*
X5709762Y-22980476D01*
X5833571Y-22980476D01*
X5957381Y-22780476D02*
X5976428Y-22780476D01*
X5995476Y-22790000D01*
X6005000Y-22799524D01*
X6014524Y-22818571D01*
X6024048Y-22856667D01*
X6024048Y-22904286D01*
X6014524Y-22942381D01*
X6005000Y-22961428D01*
X5995476Y-22970952D01*
X5976428Y-22980476D01*
X5957381Y-22980476D01*
X5938333Y-22970952D01*
X5928809Y-22961428D01*
X5919286Y-22942381D01*
X5909762Y-22904286D01*
X5909762Y-22856667D01*
X5919286Y-22818571D01*
X5928809Y-22799524D01*
X5938333Y-22790000D01*
X5957381Y-22780476D01*
X6109762Y-22980476D02*
X6109762Y-22847143D01*
X6109762Y-22866190D02*
X6119286Y-22856667D01*
X6138333Y-22847143D01*
X6166905Y-22847143D01*
X6185952Y-22856667D01*
X6195476Y-22875714D01*
X6195476Y-22980476D01*
X6195476Y-22875714D02*
X6205000Y-22856667D01*
X6224048Y-22847143D01*
X6252619Y-22847143D01*
X6271667Y-22856667D01*
X6281190Y-22875714D01*
X6281190Y-22980476D01*
X6376428Y-22980476D02*
X6376428Y-22847143D01*
X6376428Y-22866190D02*
X6385952Y-22856667D01*
X6405000Y-22847143D01*
X6433571Y-22847143D01*
X6452619Y-22856667D01*
X6462143Y-22875714D01*
X6462143Y-22980476D01*
X6462143Y-22875714D02*
X6471667Y-22856667D01*
X6490714Y-22847143D01*
X6519286Y-22847143D01*
X6538333Y-22856667D01*
X6547857Y-22875714D01*
X6547857Y-22980476D01*
X6938333Y-22770952D02*
X6766905Y-23028095D01*
X7195476Y-22780476D02*
X7214524Y-22780476D01*
X7233571Y-22790000D01*
X7243095Y-22799524D01*
X7252619Y-22818571D01*
X7262143Y-22856667D01*
X7262143Y-22904286D01*
X7252619Y-22942381D01*
X7243095Y-22961428D01*
X7233571Y-22970952D01*
X7214524Y-22980476D01*
X7195476Y-22980476D01*
X7176428Y-22970952D01*
X7166905Y-22961428D01*
X7157381Y-22942381D01*
X7147857Y-22904286D01*
X7147857Y-22856667D01*
X7157381Y-22818571D01*
X7166905Y-22799524D01*
X7176428Y-22790000D01*
X7195476Y-22780476D01*
X7347857Y-22961428D02*
X7357381Y-22970952D01*
X7347857Y-22980476D01*
X7338333Y-22970952D01*
X7347857Y-22961428D01*
X7347857Y-22980476D01*
X7481190Y-22780476D02*
X7500238Y-22780476D01*
X7519286Y-22790000D01*
X7528809Y-22799524D01*
X7538333Y-22818571D01*
X7547857Y-22856667D01*
X7547857Y-22904286D01*
X7538333Y-22942381D01*
X7528809Y-22961428D01*
X7519286Y-22970952D01*
X7500238Y-22980476D01*
X7481190Y-22980476D01*
X7462143Y-22970952D01*
X7452619Y-22961428D01*
X7443095Y-22942381D01*
X7433571Y-22904286D01*
X7433571Y-22856667D01*
X7443095Y-22818571D01*
X7452619Y-22799524D01*
X7462143Y-22790000D01*
X7481190Y-22780476D01*
X7719286Y-22847143D02*
X7719286Y-22980476D01*
X7671667Y-22770952D02*
X7624048Y-22913809D01*
X7747857Y-22913809D01*
X7862143Y-22780476D02*
X7881190Y-22780476D01*
X7900238Y-22790000D01*
X7909762Y-22799524D01*
X7919286Y-22818571D01*
X7928809Y-22856667D01*
X7928809Y-22904286D01*
X7919286Y-22942381D01*
X7909762Y-22961428D01*
X7900238Y-22970952D01*
X7881190Y-22980476D01*
X7862143Y-22980476D01*
X7843095Y-22970952D01*
X7833571Y-22961428D01*
X7824048Y-22942381D01*
X7814524Y-22904286D01*
X7814524Y-22856667D01*
X7824048Y-22818571D01*
X7833571Y-22799524D01*
X7843095Y-22790000D01*
X7862143Y-22780476D01*
X8005000Y-22799524D02*
X8014524Y-22790000D01*
X8033571Y-22780476D01*
X8081190Y-22780476D01*
X8100238Y-22790000D01*
X8109762Y-22799524D01*
X8119286Y-22818571D01*
X8119286Y-22837619D01*
X8109762Y-22866190D01*
X7995476Y-22980476D01*
X8119286Y-22980476D01*
X8195476Y-22780476D02*
X8195476Y-22818571D01*
X8271667Y-22780476D02*
X8271667Y-22818571D01*
X8566905Y-23056667D02*
X8557381Y-23047143D01*
X8538333Y-23018571D01*
X8528810Y-22999524D01*
X8519286Y-22970952D01*
X8509762Y-22923333D01*
X8509762Y-22885238D01*
X8519286Y-22837619D01*
X8528810Y-22809048D01*
X8538333Y-22790000D01*
X8557381Y-22761428D01*
X8566905Y-22751905D01*
X8728810Y-22847143D02*
X8728810Y-22980476D01*
X8681190Y-22770952D02*
X8633571Y-22913809D01*
X8757381Y-22913809D01*
X8814524Y-22780476D02*
X8938333Y-22780476D01*
X8871667Y-22856667D01*
X8900238Y-22856667D01*
X8919286Y-22866190D01*
X8928810Y-22875714D01*
X8938333Y-22894762D01*
X8938333Y-22942381D01*
X8928810Y-22961428D01*
X8919286Y-22970952D01*
X8900238Y-22980476D01*
X8843095Y-22980476D01*
X8824048Y-22970952D01*
X8814524Y-22961428D01*
X9176429Y-22980476D02*
X9176429Y-22780476D01*
X9262143Y-22980476D02*
X9262143Y-22875714D01*
X9252619Y-22856667D01*
X9233571Y-22847143D01*
X9205000Y-22847143D01*
X9185952Y-22856667D01*
X9176429Y-22866190D01*
X9385952Y-22980476D02*
X9366905Y-22970952D01*
X9357381Y-22961428D01*
X9347857Y-22942381D01*
X9347857Y-22885238D01*
X9357381Y-22866190D01*
X9366905Y-22856667D01*
X9385952Y-22847143D01*
X9414524Y-22847143D01*
X9433571Y-22856667D01*
X9443095Y-22866190D01*
X9452619Y-22885238D01*
X9452619Y-22942381D01*
X9443095Y-22961428D01*
X9433571Y-22970952D01*
X9414524Y-22980476D01*
X9385952Y-22980476D01*
X9566905Y-22980476D02*
X9547857Y-22970952D01*
X9538333Y-22951905D01*
X9538333Y-22780476D01*
X9719286Y-22970952D02*
X9700238Y-22980476D01*
X9662143Y-22980476D01*
X9643095Y-22970952D01*
X9633571Y-22951905D01*
X9633571Y-22875714D01*
X9643095Y-22856667D01*
X9662143Y-22847143D01*
X9700238Y-22847143D01*
X9719286Y-22856667D01*
X9728810Y-22875714D01*
X9728810Y-22894762D01*
X9633571Y-22913809D01*
X9805000Y-22970952D02*
X9824048Y-22980476D01*
X9862143Y-22980476D01*
X9881190Y-22970952D01*
X9890714Y-22951905D01*
X9890714Y-22942381D01*
X9881190Y-22923333D01*
X9862143Y-22913809D01*
X9833571Y-22913809D01*
X9814524Y-22904286D01*
X9805000Y-22885238D01*
X9805000Y-22875714D01*
X9814524Y-22856667D01*
X9833571Y-22847143D01*
X9862143Y-22847143D01*
X9881190Y-22856667D01*
X9957381Y-23056667D02*
X9966905Y-23047143D01*
X9985952Y-23018571D01*
X9995476Y-22999524D01*
X10005000Y-22970952D01*
X10014524Y-22923333D01*
X10014524Y-22885238D01*
X10005000Y-22837619D01*
X9995476Y-22809048D01*
X9985952Y-22790000D01*
X9966905Y-22761428D01*
X9957381Y-22751905D01*
D18*
X4855300Y-23084150D02*
X4995000Y-23223850D01*
X4995000Y-23084150D02*
X4855300Y-23223850D01*
X4925150Y-23084150D02*
X4925150Y-23223850D01*
X4855300Y-23154000D02*
X4995000Y-23154000D01*
D11*
X5357381Y-23244476D02*
X5243095Y-23244476D01*
X5300238Y-23244476D02*
X5300238Y-23044476D01*
X5281190Y-23073048D01*
X5262143Y-23092095D01*
X5243095Y-23101619D01*
X5443095Y-23225428D02*
X5452619Y-23234952D01*
X5443095Y-23244476D01*
X5433571Y-23234952D01*
X5443095Y-23225428D01*
X5443095Y-23244476D01*
X5519286Y-23044476D02*
X5643095Y-23044476D01*
X5576429Y-23120667D01*
X5605000Y-23120667D01*
X5624048Y-23130190D01*
X5633571Y-23139714D01*
X5643095Y-23158762D01*
X5643095Y-23206381D01*
X5633571Y-23225428D01*
X5624048Y-23234952D01*
X5605000Y-23244476D01*
X5547857Y-23244476D01*
X5528810Y-23234952D01*
X5519286Y-23225428D01*
X5738333Y-23244476D02*
X5776428Y-23244476D01*
X5795476Y-23234952D01*
X5805000Y-23225428D01*
X5824048Y-23196857D01*
X5833571Y-23158762D01*
X5833571Y-23082571D01*
X5824048Y-23063524D01*
X5814524Y-23054000D01*
X5795476Y-23044476D01*
X5757381Y-23044476D01*
X5738333Y-23054000D01*
X5728809Y-23063524D01*
X5719286Y-23082571D01*
X5719286Y-23130190D01*
X5728809Y-23149238D01*
X5738333Y-23158762D01*
X5757381Y-23168286D01*
X5795476Y-23168286D01*
X5814524Y-23158762D01*
X5824048Y-23149238D01*
X5833571Y-23130190D01*
X5900238Y-23044476D02*
X6033571Y-23044476D01*
X5947857Y-23244476D01*
X6109762Y-23244476D02*
X6109762Y-23111143D01*
X6109762Y-23130190D02*
X6119286Y-23120667D01*
X6138333Y-23111143D01*
X6166905Y-23111143D01*
X6185952Y-23120667D01*
X6195476Y-23139714D01*
X6195476Y-23244476D01*
X6195476Y-23139714D02*
X6205000Y-23120667D01*
X6224048Y-23111143D01*
X6252619Y-23111143D01*
X6271667Y-23120667D01*
X6281190Y-23139714D01*
X6281190Y-23244476D01*
X6376428Y-23244476D02*
X6376428Y-23111143D01*
X6376428Y-23130190D02*
X6385952Y-23120667D01*
X6405000Y-23111143D01*
X6433571Y-23111143D01*
X6452619Y-23120667D01*
X6462143Y-23139714D01*
X6462143Y-23244476D01*
X6462143Y-23139714D02*
X6471667Y-23120667D01*
X6490714Y-23111143D01*
X6519286Y-23111143D01*
X6538333Y-23120667D01*
X6547857Y-23139714D01*
X6547857Y-23244476D01*
X6938333Y-23034952D02*
X6766905Y-23292095D01*
X7195476Y-23044476D02*
X7214524Y-23044476D01*
X7233571Y-23054000D01*
X7243095Y-23063524D01*
X7252619Y-23082571D01*
X7262143Y-23120667D01*
X7262143Y-23168286D01*
X7252619Y-23206381D01*
X7243095Y-23225428D01*
X7233571Y-23234952D01*
X7214524Y-23244476D01*
X7195476Y-23244476D01*
X7176428Y-23234952D01*
X7166905Y-23225428D01*
X7157381Y-23206381D01*
X7147857Y-23168286D01*
X7147857Y-23120667D01*
X7157381Y-23082571D01*
X7166905Y-23063524D01*
X7176428Y-23054000D01*
X7195476Y-23044476D01*
X7347857Y-23225428D02*
X7357381Y-23234952D01*
X7347857Y-23244476D01*
X7338333Y-23234952D01*
X7347857Y-23225428D01*
X7347857Y-23244476D01*
X7481190Y-23044476D02*
X7500238Y-23044476D01*
X7519286Y-23054000D01*
X7528809Y-23063524D01*
X7538333Y-23082571D01*
X7547857Y-23120667D01*
X7547857Y-23168286D01*
X7538333Y-23206381D01*
X7528809Y-23225428D01*
X7519286Y-23234952D01*
X7500238Y-23244476D01*
X7481190Y-23244476D01*
X7462143Y-23234952D01*
X7452619Y-23225428D01*
X7443095Y-23206381D01*
X7433571Y-23168286D01*
X7433571Y-23120667D01*
X7443095Y-23082571D01*
X7452619Y-23063524D01*
X7462143Y-23054000D01*
X7481190Y-23044476D01*
X7728809Y-23044476D02*
X7633571Y-23044476D01*
X7624048Y-23139714D01*
X7633571Y-23130190D01*
X7652619Y-23120667D01*
X7700238Y-23120667D01*
X7719286Y-23130190D01*
X7728809Y-23139714D01*
X7738333Y-23158762D01*
X7738333Y-23206381D01*
X7728809Y-23225428D01*
X7719286Y-23234952D01*
X7700238Y-23244476D01*
X7652619Y-23244476D01*
X7633571Y-23234952D01*
X7624048Y-23225428D01*
X7919286Y-23044476D02*
X7824048Y-23044476D01*
X7814524Y-23139714D01*
X7824048Y-23130190D01*
X7843095Y-23120667D01*
X7890714Y-23120667D01*
X7909762Y-23130190D01*
X7919286Y-23139714D01*
X7928809Y-23158762D01*
X7928809Y-23206381D01*
X7919286Y-23225428D01*
X7909762Y-23234952D01*
X7890714Y-23244476D01*
X7843095Y-23244476D01*
X7824048Y-23234952D01*
X7814524Y-23225428D01*
X8052619Y-23044476D02*
X8071667Y-23044476D01*
X8090714Y-23054000D01*
X8100238Y-23063524D01*
X8109762Y-23082571D01*
X8119286Y-23120667D01*
X8119286Y-23168286D01*
X8109762Y-23206381D01*
X8100238Y-23225428D01*
X8090714Y-23234952D01*
X8071667Y-23244476D01*
X8052619Y-23244476D01*
X8033571Y-23234952D01*
X8024048Y-23225428D01*
X8014524Y-23206381D01*
X8005000Y-23168286D01*
X8005000Y-23120667D01*
X8014524Y-23082571D01*
X8024048Y-23063524D01*
X8033571Y-23054000D01*
X8052619Y-23044476D01*
X8195476Y-23044476D02*
X8195476Y-23082571D01*
X8271667Y-23044476D02*
X8271667Y-23082571D01*
X8566905Y-23320667D02*
X8557381Y-23311143D01*
X8538333Y-23282571D01*
X8528810Y-23263524D01*
X8519286Y-23234952D01*
X8509762Y-23187333D01*
X8509762Y-23149238D01*
X8519286Y-23101619D01*
X8528810Y-23073048D01*
X8538333Y-23054000D01*
X8557381Y-23025428D01*
X8566905Y-23015905D01*
X8728810Y-23111143D02*
X8728810Y-23244476D01*
X8681190Y-23034952D02*
X8633571Y-23177809D01*
X8757381Y-23177809D01*
X8985952Y-23244476D02*
X8985952Y-23044476D01*
X9071667Y-23244476D02*
X9071667Y-23139714D01*
X9062143Y-23120667D01*
X9043095Y-23111143D01*
X9014524Y-23111143D01*
X8995476Y-23120667D01*
X8985952Y-23130190D01*
X9195476Y-23244476D02*
X9176429Y-23234952D01*
X9166905Y-23225428D01*
X9157381Y-23206381D01*
X9157381Y-23149238D01*
X9166905Y-23130190D01*
X9176429Y-23120667D01*
X9195476Y-23111143D01*
X9224048Y-23111143D01*
X9243095Y-23120667D01*
X9252619Y-23130190D01*
X9262143Y-23149238D01*
X9262143Y-23206381D01*
X9252619Y-23225428D01*
X9243095Y-23234952D01*
X9224048Y-23244476D01*
X9195476Y-23244476D01*
X9376429Y-23244476D02*
X9357381Y-23234952D01*
X9347857Y-23215905D01*
X9347857Y-23044476D01*
X9528810Y-23234952D02*
X9509762Y-23244476D01*
X9471667Y-23244476D01*
X9452619Y-23234952D01*
X9443095Y-23215905D01*
X9443095Y-23139714D01*
X9452619Y-23120667D01*
X9471667Y-23111143D01*
X9509762Y-23111143D01*
X9528810Y-23120667D01*
X9538333Y-23139714D01*
X9538333Y-23158762D01*
X9443095Y-23177809D01*
X9614524Y-23234952D02*
X9633571Y-23244476D01*
X9671667Y-23244476D01*
X9690714Y-23234952D01*
X9700238Y-23215905D01*
X9700238Y-23206381D01*
X9690714Y-23187333D01*
X9671667Y-23177809D01*
X9643095Y-23177809D01*
X9624048Y-23168286D01*
X9614524Y-23149238D01*
X9614524Y-23139714D01*
X9624048Y-23120667D01*
X9643095Y-23111143D01*
X9671667Y-23111143D01*
X9690714Y-23120667D01*
X9766905Y-23320667D02*
X9776429Y-23311143D01*
X9795476Y-23282571D01*
X9805000Y-23263524D01*
X9814524Y-23234952D01*
X9824048Y-23187333D01*
X9824048Y-23149238D01*
X9814524Y-23101619D01*
X9805000Y-23073048D01*
X9795476Y-23054000D01*
X9776429Y-23025428D01*
X9766905Y-23015905D01*
X4795000Y-23318000D02*
X4995000Y-23518000D01*
X4995000Y-23318000D02*
X4795000Y-23518000D01*
X4965711Y-23488711D02*
X4965711Y-23347289D01*
X4824289Y-23347289D01*
X4824289Y-23488711D01*
X4965711Y-23488711D01*
X5243095Y-23327524D02*
X5252619Y-23318000D01*
X5271667Y-23308476D01*
X5319286Y-23308476D01*
X5338333Y-23318000D01*
X5347857Y-23327524D01*
X5357381Y-23346571D01*
X5357381Y-23365619D01*
X5347857Y-23394190D01*
X5233571Y-23508476D01*
X5357381Y-23508476D01*
X5443095Y-23489428D02*
X5452619Y-23498952D01*
X5443095Y-23508476D01*
X5433571Y-23498952D01*
X5443095Y-23489428D01*
X5443095Y-23508476D01*
X5624048Y-23308476D02*
X5585952Y-23308476D01*
X5566905Y-23318000D01*
X5557381Y-23327524D01*
X5538333Y-23356095D01*
X5528810Y-23394190D01*
X5528810Y-23470381D01*
X5538333Y-23489428D01*
X5547857Y-23498952D01*
X5566905Y-23508476D01*
X5605000Y-23508476D01*
X5624048Y-23498952D01*
X5633571Y-23489428D01*
X5643095Y-23470381D01*
X5643095Y-23422762D01*
X5633571Y-23403714D01*
X5624048Y-23394190D01*
X5605000Y-23384667D01*
X5566905Y-23384667D01*
X5547857Y-23394190D01*
X5538333Y-23403714D01*
X5528810Y-23422762D01*
X5766905Y-23308476D02*
X5785952Y-23308476D01*
X5805000Y-23318000D01*
X5814524Y-23327524D01*
X5824048Y-23346571D01*
X5833571Y-23384667D01*
X5833571Y-23432286D01*
X5824048Y-23470381D01*
X5814524Y-23489428D01*
X5805000Y-23498952D01*
X5785952Y-23508476D01*
X5766905Y-23508476D01*
X5747857Y-23498952D01*
X5738333Y-23489428D01*
X5728809Y-23470381D01*
X5719286Y-23432286D01*
X5719286Y-23384667D01*
X5728809Y-23346571D01*
X5738333Y-23327524D01*
X5747857Y-23318000D01*
X5766905Y-23308476D01*
X5957381Y-23308476D02*
X5976428Y-23308476D01*
X5995476Y-23318000D01*
X6005000Y-23327524D01*
X6014524Y-23346571D01*
X6024048Y-23384667D01*
X6024048Y-23432286D01*
X6014524Y-23470381D01*
X6005000Y-23489428D01*
X5995476Y-23498952D01*
X5976428Y-23508476D01*
X5957381Y-23508476D01*
X5938333Y-23498952D01*
X5928809Y-23489428D01*
X5919286Y-23470381D01*
X5909762Y-23432286D01*
X5909762Y-23384667D01*
X5919286Y-23346571D01*
X5928809Y-23327524D01*
X5938333Y-23318000D01*
X5957381Y-23308476D01*
X6109762Y-23508476D02*
X6109762Y-23375143D01*
X6109762Y-23394190D02*
X6119286Y-23384667D01*
X6138333Y-23375143D01*
X6166905Y-23375143D01*
X6185952Y-23384667D01*
X6195476Y-23403714D01*
X6195476Y-23508476D01*
X6195476Y-23403714D02*
X6205000Y-23384667D01*
X6224048Y-23375143D01*
X6252619Y-23375143D01*
X6271667Y-23384667D01*
X6281190Y-23403714D01*
X6281190Y-23508476D01*
X6376428Y-23508476D02*
X6376428Y-23375143D01*
X6376428Y-23394190D02*
X6385952Y-23384667D01*
X6405000Y-23375143D01*
X6433571Y-23375143D01*
X6452619Y-23384667D01*
X6462143Y-23403714D01*
X6462143Y-23508476D01*
X6462143Y-23403714D02*
X6471667Y-23384667D01*
X6490714Y-23375143D01*
X6519286Y-23375143D01*
X6538333Y-23384667D01*
X6547857Y-23403714D01*
X6547857Y-23508476D01*
X6938333Y-23298952D02*
X6766905Y-23556095D01*
X7195476Y-23308476D02*
X7214524Y-23308476D01*
X7233571Y-23318000D01*
X7243095Y-23327524D01*
X7252619Y-23346571D01*
X7262143Y-23384667D01*
X7262143Y-23432286D01*
X7252619Y-23470381D01*
X7243095Y-23489428D01*
X7233571Y-23498952D01*
X7214524Y-23508476D01*
X7195476Y-23508476D01*
X7176428Y-23498952D01*
X7166905Y-23489428D01*
X7157381Y-23470381D01*
X7147857Y-23432286D01*
X7147857Y-23384667D01*
X7157381Y-23346571D01*
X7166905Y-23327524D01*
X7176428Y-23318000D01*
X7195476Y-23308476D01*
X7347857Y-23489428D02*
X7357381Y-23498952D01*
X7347857Y-23508476D01*
X7338333Y-23498952D01*
X7347857Y-23489428D01*
X7347857Y-23508476D01*
X7547857Y-23508476D02*
X7433571Y-23508476D01*
X7490714Y-23508476D02*
X7490714Y-23308476D01*
X7471667Y-23337048D01*
X7452619Y-23356095D01*
X7433571Y-23365619D01*
X7671667Y-23308476D02*
X7690714Y-23308476D01*
X7709762Y-23318000D01*
X7719286Y-23327524D01*
X7728809Y-23346571D01*
X7738333Y-23384667D01*
X7738333Y-23432286D01*
X7728809Y-23470381D01*
X7719286Y-23489428D01*
X7709762Y-23498952D01*
X7690714Y-23508476D01*
X7671667Y-23508476D01*
X7652619Y-23498952D01*
X7643095Y-23489428D01*
X7633571Y-23470381D01*
X7624048Y-23432286D01*
X7624048Y-23384667D01*
X7633571Y-23346571D01*
X7643095Y-23327524D01*
X7652619Y-23318000D01*
X7671667Y-23308476D01*
X7814524Y-23327524D02*
X7824048Y-23318000D01*
X7843095Y-23308476D01*
X7890714Y-23308476D01*
X7909762Y-23318000D01*
X7919286Y-23327524D01*
X7928809Y-23346571D01*
X7928809Y-23365619D01*
X7919286Y-23394190D01*
X7805000Y-23508476D01*
X7928809Y-23508476D01*
X8100238Y-23375143D02*
X8100238Y-23508476D01*
X8052619Y-23298952D02*
X8005000Y-23441809D01*
X8128809Y-23441809D01*
X8195476Y-23308476D02*
X8195476Y-23346571D01*
X8271667Y-23308476D02*
X8271667Y-23346571D01*
X8566905Y-23584667D02*
X8557381Y-23575143D01*
X8538333Y-23546571D01*
X8528810Y-23527524D01*
X8519286Y-23498952D01*
X8509762Y-23451333D01*
X8509762Y-23413238D01*
X8519286Y-23365619D01*
X8528810Y-23337048D01*
X8538333Y-23318000D01*
X8557381Y-23289428D01*
X8566905Y-23279905D01*
X8633571Y-23327524D02*
X8643095Y-23318000D01*
X8662143Y-23308476D01*
X8709762Y-23308476D01*
X8728810Y-23318000D01*
X8738333Y-23327524D01*
X8747857Y-23346571D01*
X8747857Y-23365619D01*
X8738333Y-23394190D01*
X8624048Y-23508476D01*
X8747857Y-23508476D01*
X8985952Y-23508476D02*
X8985952Y-23308476D01*
X9071667Y-23508476D02*
X9071667Y-23403714D01*
X9062143Y-23384667D01*
X9043095Y-23375143D01*
X9014524Y-23375143D01*
X8995476Y-23384667D01*
X8985952Y-23394190D01*
X9195476Y-23508476D02*
X9176429Y-23498952D01*
X9166905Y-23489428D01*
X9157381Y-23470381D01*
X9157381Y-23413238D01*
X9166905Y-23394190D01*
X9176429Y-23384667D01*
X9195476Y-23375143D01*
X9224048Y-23375143D01*
X9243095Y-23384667D01*
X9252619Y-23394190D01*
X9262143Y-23413238D01*
X9262143Y-23470381D01*
X9252619Y-23489428D01*
X9243095Y-23498952D01*
X9224048Y-23508476D01*
X9195476Y-23508476D01*
X9376429Y-23508476D02*
X9357381Y-23498952D01*
X9347857Y-23479905D01*
X9347857Y-23308476D01*
X9528810Y-23498952D02*
X9509762Y-23508476D01*
X9471667Y-23508476D01*
X9452619Y-23498952D01*
X9443095Y-23479905D01*
X9443095Y-23403714D01*
X9452619Y-23384667D01*
X9471667Y-23375143D01*
X9509762Y-23375143D01*
X9528810Y-23384667D01*
X9538333Y-23403714D01*
X9538333Y-23422762D01*
X9443095Y-23441809D01*
X9614524Y-23498952D02*
X9633571Y-23508476D01*
X9671667Y-23508476D01*
X9690714Y-23498952D01*
X9700238Y-23479905D01*
X9700238Y-23470381D01*
X9690714Y-23451333D01*
X9671667Y-23441809D01*
X9643095Y-23441809D01*
X9624048Y-23432286D01*
X9614524Y-23413238D01*
X9614524Y-23403714D01*
X9624048Y-23384667D01*
X9643095Y-23375143D01*
X9671667Y-23375143D01*
X9690714Y-23384667D01*
X9766905Y-23584667D02*
X9776429Y-23575143D01*
X9795476Y-23546571D01*
X9805000Y-23527524D01*
X9814524Y-23498952D01*
X9824048Y-23451333D01*
X9824048Y-23413238D01*
X9814524Y-23365619D01*
X9805000Y-23337048D01*
X9795476Y-23318000D01*
X9776429Y-23289428D01*
X9766905Y-23279905D01*
X4795000Y-23638000D02*
X4995000Y-23838000D01*
X4995000Y-23638000D02*
X4795000Y-23838000D01*
X4895000Y-23838000D02*
X4995000Y-23738000D01*
X4895000Y-23638000D01*
X4795000Y-23738000D01*
X4895000Y-23838000D01*
X5243095Y-23647524D02*
X5252619Y-23638000D01*
X5271667Y-23628476D01*
X5319286Y-23628476D01*
X5338333Y-23638000D01*
X5347857Y-23647524D01*
X5357381Y-23666571D01*
X5357381Y-23685619D01*
X5347857Y-23714190D01*
X5233571Y-23828476D01*
X5357381Y-23828476D01*
X5443095Y-23809428D02*
X5452619Y-23818952D01*
X5443095Y-23828476D01*
X5433571Y-23818952D01*
X5443095Y-23809428D01*
X5443095Y-23828476D01*
X5519286Y-23628476D02*
X5652619Y-23628476D01*
X5566905Y-23828476D01*
X5766905Y-23628476D02*
X5785952Y-23628476D01*
X5805000Y-23638000D01*
X5814524Y-23647524D01*
X5824048Y-23666571D01*
X5833571Y-23704667D01*
X5833571Y-23752286D01*
X5824048Y-23790381D01*
X5814524Y-23809428D01*
X5805000Y-23818952D01*
X5785952Y-23828476D01*
X5766905Y-23828476D01*
X5747857Y-23818952D01*
X5738333Y-23809428D01*
X5728809Y-23790381D01*
X5719286Y-23752286D01*
X5719286Y-23704667D01*
X5728809Y-23666571D01*
X5738333Y-23647524D01*
X5747857Y-23638000D01*
X5766905Y-23628476D01*
X5957381Y-23628476D02*
X5976428Y-23628476D01*
X5995476Y-23638000D01*
X6005000Y-23647524D01*
X6014524Y-23666571D01*
X6024048Y-23704667D01*
X6024048Y-23752286D01*
X6014524Y-23790381D01*
X6005000Y-23809428D01*
X5995476Y-23818952D01*
X5976428Y-23828476D01*
X5957381Y-23828476D01*
X5938333Y-23818952D01*
X5928809Y-23809428D01*
X5919286Y-23790381D01*
X5909762Y-23752286D01*
X5909762Y-23704667D01*
X5919286Y-23666571D01*
X5928809Y-23647524D01*
X5938333Y-23638000D01*
X5957381Y-23628476D01*
X6109762Y-23828476D02*
X6109762Y-23695143D01*
X6109762Y-23714190D02*
X6119286Y-23704667D01*
X6138333Y-23695143D01*
X6166905Y-23695143D01*
X6185952Y-23704667D01*
X6195476Y-23723714D01*
X6195476Y-23828476D01*
X6195476Y-23723714D02*
X6205000Y-23704667D01*
X6224048Y-23695143D01*
X6252619Y-23695143D01*
X6271667Y-23704667D01*
X6281190Y-23723714D01*
X6281190Y-23828476D01*
X6376428Y-23828476D02*
X6376428Y-23695143D01*
X6376428Y-23714190D02*
X6385952Y-23704667D01*
X6405000Y-23695143D01*
X6433571Y-23695143D01*
X6452619Y-23704667D01*
X6462143Y-23723714D01*
X6462143Y-23828476D01*
X6462143Y-23723714D02*
X6471667Y-23704667D01*
X6490714Y-23695143D01*
X6519286Y-23695143D01*
X6538333Y-23704667D01*
X6547857Y-23723714D01*
X6547857Y-23828476D01*
X6938333Y-23618952D02*
X6766905Y-23876095D01*
X7195476Y-23628476D02*
X7214524Y-23628476D01*
X7233571Y-23638000D01*
X7243095Y-23647524D01*
X7252619Y-23666571D01*
X7262143Y-23704667D01*
X7262143Y-23752286D01*
X7252619Y-23790381D01*
X7243095Y-23809428D01*
X7233571Y-23818952D01*
X7214524Y-23828476D01*
X7195476Y-23828476D01*
X7176428Y-23818952D01*
X7166905Y-23809428D01*
X7157381Y-23790381D01*
X7147857Y-23752286D01*
X7147857Y-23704667D01*
X7157381Y-23666571D01*
X7166905Y-23647524D01*
X7176428Y-23638000D01*
X7195476Y-23628476D01*
X7347857Y-23809428D02*
X7357381Y-23818952D01*
X7347857Y-23828476D01*
X7338333Y-23818952D01*
X7347857Y-23809428D01*
X7347857Y-23828476D01*
X7547857Y-23828476D02*
X7433571Y-23828476D01*
X7490714Y-23828476D02*
X7490714Y-23628476D01*
X7471667Y-23657048D01*
X7452619Y-23676095D01*
X7433571Y-23685619D01*
X7671667Y-23628476D02*
X7690714Y-23628476D01*
X7709762Y-23638000D01*
X7719286Y-23647524D01*
X7728809Y-23666571D01*
X7738333Y-23704667D01*
X7738333Y-23752286D01*
X7728809Y-23790381D01*
X7719286Y-23809428D01*
X7709762Y-23818952D01*
X7690714Y-23828476D01*
X7671667Y-23828476D01*
X7652619Y-23818952D01*
X7643095Y-23809428D01*
X7633571Y-23790381D01*
X7624048Y-23752286D01*
X7624048Y-23704667D01*
X7633571Y-23666571D01*
X7643095Y-23647524D01*
X7652619Y-23638000D01*
X7671667Y-23628476D01*
X7909762Y-23628476D02*
X7871667Y-23628476D01*
X7852619Y-23638000D01*
X7843095Y-23647524D01*
X7824048Y-23676095D01*
X7814524Y-23714190D01*
X7814524Y-23790381D01*
X7824048Y-23809428D01*
X7833571Y-23818952D01*
X7852619Y-23828476D01*
X7890714Y-23828476D01*
X7909762Y-23818952D01*
X7919286Y-23809428D01*
X7928809Y-23790381D01*
X7928809Y-23742762D01*
X7919286Y-23723714D01*
X7909762Y-23714190D01*
X7890714Y-23704667D01*
X7852619Y-23704667D01*
X7833571Y-23714190D01*
X7824048Y-23723714D01*
X7814524Y-23742762D01*
X7995476Y-23628476D02*
X8119286Y-23628476D01*
X8052619Y-23704667D01*
X8081190Y-23704667D01*
X8100238Y-23714190D01*
X8109762Y-23723714D01*
X8119286Y-23742762D01*
X8119286Y-23790381D01*
X8109762Y-23809428D01*
X8100238Y-23818952D01*
X8081190Y-23828476D01*
X8024048Y-23828476D01*
X8005000Y-23818952D01*
X7995476Y-23809428D01*
X8195476Y-23628476D02*
X8195476Y-23666571D01*
X8271667Y-23628476D02*
X8271667Y-23666571D01*
X8566905Y-23904667D02*
X8557381Y-23895143D01*
X8538333Y-23866571D01*
X8528810Y-23847524D01*
X8519286Y-23818952D01*
X8509762Y-23771333D01*
X8509762Y-23733238D01*
X8519286Y-23685619D01*
X8528810Y-23657048D01*
X8538333Y-23638000D01*
X8557381Y-23609428D01*
X8566905Y-23599905D01*
X8633571Y-23647524D02*
X8643095Y-23638000D01*
X8662143Y-23628476D01*
X8709762Y-23628476D01*
X8728810Y-23638000D01*
X8738333Y-23647524D01*
X8747857Y-23666571D01*
X8747857Y-23685619D01*
X8738333Y-23714190D01*
X8624048Y-23828476D01*
X8747857Y-23828476D01*
X8985952Y-23828476D02*
X8985952Y-23628476D01*
X9071667Y-23828476D02*
X9071667Y-23723714D01*
X9062143Y-23704667D01*
X9043095Y-23695143D01*
X9014524Y-23695143D01*
X8995476Y-23704667D01*
X8985952Y-23714190D01*
X9195476Y-23828476D02*
X9176429Y-23818952D01*
X9166905Y-23809428D01*
X9157381Y-23790381D01*
X9157381Y-23733238D01*
X9166905Y-23714190D01*
X9176429Y-23704667D01*
X9195476Y-23695143D01*
X9224048Y-23695143D01*
X9243095Y-23704667D01*
X9252619Y-23714190D01*
X9262143Y-23733238D01*
X9262143Y-23790381D01*
X9252619Y-23809428D01*
X9243095Y-23818952D01*
X9224048Y-23828476D01*
X9195476Y-23828476D01*
X9376429Y-23828476D02*
X9357381Y-23818952D01*
X9347857Y-23799905D01*
X9347857Y-23628476D01*
X9528810Y-23818952D02*
X9509762Y-23828476D01*
X9471667Y-23828476D01*
X9452619Y-23818952D01*
X9443095Y-23799905D01*
X9443095Y-23723714D01*
X9452619Y-23704667D01*
X9471667Y-23695143D01*
X9509762Y-23695143D01*
X9528810Y-23704667D01*
X9538333Y-23723714D01*
X9538333Y-23742762D01*
X9443095Y-23761809D01*
X9614524Y-23818952D02*
X9633571Y-23828476D01*
X9671667Y-23828476D01*
X9690714Y-23818952D01*
X9700238Y-23799905D01*
X9700238Y-23790381D01*
X9690714Y-23771333D01*
X9671667Y-23761809D01*
X9643095Y-23761809D01*
X9624048Y-23752286D01*
X9614524Y-23733238D01*
X9614524Y-23723714D01*
X9624048Y-23704667D01*
X9643095Y-23695143D01*
X9671667Y-23695143D01*
X9690714Y-23704667D01*
X9766905Y-23904667D02*
X9776429Y-23895143D01*
X9795476Y-23866571D01*
X9805000Y-23847524D01*
X9814524Y-23818952D01*
X9824048Y-23771333D01*
X9824048Y-23733238D01*
X9814524Y-23685619D01*
X9805000Y-23657048D01*
X9795476Y-23638000D01*
X9776429Y-23609428D01*
X9766905Y-23599905D01*
X4895000Y-23958000D02*
X4895000Y-24158000D01*
X4795000Y-24058000D02*
X4995000Y-24058000D01*
X4995000Y-24058000D02*
G75*
G03*
X4995000Y-24058000I-100000J0D01*
G01*
X5233571Y-23948476D02*
X5357381Y-23948476D01*
X5290714Y-24024667D01*
X5319286Y-24024667D01*
X5338333Y-24034190D01*
X5347857Y-24043714D01*
X5357381Y-24062762D01*
X5357381Y-24110381D01*
X5347857Y-24129428D01*
X5338333Y-24138952D01*
X5319286Y-24148476D01*
X5262143Y-24148476D01*
X5243095Y-24138952D01*
X5233571Y-24129428D01*
X5443095Y-24129428D02*
X5452619Y-24138952D01*
X5443095Y-24148476D01*
X5433571Y-24138952D01*
X5443095Y-24129428D01*
X5443095Y-24148476D01*
X5528810Y-23967524D02*
X5538333Y-23958000D01*
X5557381Y-23948476D01*
X5605000Y-23948476D01*
X5624048Y-23958000D01*
X5633571Y-23967524D01*
X5643095Y-23986571D01*
X5643095Y-24005619D01*
X5633571Y-24034190D01*
X5519286Y-24148476D01*
X5643095Y-24148476D01*
X5766905Y-23948476D02*
X5785952Y-23948476D01*
X5805000Y-23958000D01*
X5814524Y-23967524D01*
X5824048Y-23986571D01*
X5833571Y-24024667D01*
X5833571Y-24072286D01*
X5824048Y-24110381D01*
X5814524Y-24129428D01*
X5805000Y-24138952D01*
X5785952Y-24148476D01*
X5766905Y-24148476D01*
X5747857Y-24138952D01*
X5738333Y-24129428D01*
X5728809Y-24110381D01*
X5719286Y-24072286D01*
X5719286Y-24024667D01*
X5728809Y-23986571D01*
X5738333Y-23967524D01*
X5747857Y-23958000D01*
X5766905Y-23948476D01*
X5957381Y-23948476D02*
X5976428Y-23948476D01*
X5995476Y-23958000D01*
X6005000Y-23967524D01*
X6014524Y-23986571D01*
X6024048Y-24024667D01*
X6024048Y-24072286D01*
X6014524Y-24110381D01*
X6005000Y-24129428D01*
X5995476Y-24138952D01*
X5976428Y-24148476D01*
X5957381Y-24148476D01*
X5938333Y-24138952D01*
X5928809Y-24129428D01*
X5919286Y-24110381D01*
X5909762Y-24072286D01*
X5909762Y-24024667D01*
X5919286Y-23986571D01*
X5928809Y-23967524D01*
X5938333Y-23958000D01*
X5957381Y-23948476D01*
X6109762Y-24148476D02*
X6109762Y-24015143D01*
X6109762Y-24034190D02*
X6119286Y-24024667D01*
X6138333Y-24015143D01*
X6166905Y-24015143D01*
X6185952Y-24024667D01*
X6195476Y-24043714D01*
X6195476Y-24148476D01*
X6195476Y-24043714D02*
X6205000Y-24024667D01*
X6224048Y-24015143D01*
X6252619Y-24015143D01*
X6271667Y-24024667D01*
X6281190Y-24043714D01*
X6281190Y-24148476D01*
X6376428Y-24148476D02*
X6376428Y-24015143D01*
X6376428Y-24034190D02*
X6385952Y-24024667D01*
X6405000Y-24015143D01*
X6433571Y-24015143D01*
X6452619Y-24024667D01*
X6462143Y-24043714D01*
X6462143Y-24148476D01*
X6462143Y-24043714D02*
X6471667Y-24024667D01*
X6490714Y-24015143D01*
X6519286Y-24015143D01*
X6538333Y-24024667D01*
X6547857Y-24043714D01*
X6547857Y-24148476D01*
X6938333Y-23938952D02*
X6766905Y-24196095D01*
X7195476Y-23948476D02*
X7214524Y-23948476D01*
X7233571Y-23958000D01*
X7243095Y-23967524D01*
X7252619Y-23986571D01*
X7262143Y-24024667D01*
X7262143Y-24072286D01*
X7252619Y-24110381D01*
X7243095Y-24129428D01*
X7233571Y-24138952D01*
X7214524Y-24148476D01*
X7195476Y-24148476D01*
X7176428Y-24138952D01*
X7166905Y-24129428D01*
X7157381Y-24110381D01*
X7147857Y-24072286D01*
X7147857Y-24024667D01*
X7157381Y-23986571D01*
X7166905Y-23967524D01*
X7176428Y-23958000D01*
X7195476Y-23948476D01*
X7347857Y-24129428D02*
X7357381Y-24138952D01*
X7347857Y-24148476D01*
X7338333Y-24138952D01*
X7347857Y-24129428D01*
X7347857Y-24148476D01*
X7547857Y-24148476D02*
X7433571Y-24148476D01*
X7490714Y-24148476D02*
X7490714Y-23948476D01*
X7471667Y-23977048D01*
X7452619Y-23996095D01*
X7433571Y-24005619D01*
X7624048Y-23967524D02*
X7633571Y-23958000D01*
X7652619Y-23948476D01*
X7700238Y-23948476D01*
X7719286Y-23958000D01*
X7728809Y-23967524D01*
X7738333Y-23986571D01*
X7738333Y-24005619D01*
X7728809Y-24034190D01*
X7614524Y-24148476D01*
X7738333Y-24148476D01*
X7909762Y-23948476D02*
X7871667Y-23948476D01*
X7852619Y-23958000D01*
X7843095Y-23967524D01*
X7824048Y-23996095D01*
X7814524Y-24034190D01*
X7814524Y-24110381D01*
X7824048Y-24129428D01*
X7833571Y-24138952D01*
X7852619Y-24148476D01*
X7890714Y-24148476D01*
X7909762Y-24138952D01*
X7919286Y-24129428D01*
X7928809Y-24110381D01*
X7928809Y-24062762D01*
X7919286Y-24043714D01*
X7909762Y-24034190D01*
X7890714Y-24024667D01*
X7852619Y-24024667D01*
X7833571Y-24034190D01*
X7824048Y-24043714D01*
X7814524Y-24062762D01*
X8052619Y-23948476D02*
X8071667Y-23948476D01*
X8090714Y-23958000D01*
X8100238Y-23967524D01*
X8109762Y-23986571D01*
X8119286Y-24024667D01*
X8119286Y-24072286D01*
X8109762Y-24110381D01*
X8100238Y-24129428D01*
X8090714Y-24138952D01*
X8071667Y-24148476D01*
X8052619Y-24148476D01*
X8033571Y-24138952D01*
X8024048Y-24129428D01*
X8014524Y-24110381D01*
X8005000Y-24072286D01*
X8005000Y-24024667D01*
X8014524Y-23986571D01*
X8024048Y-23967524D01*
X8033571Y-23958000D01*
X8052619Y-23948476D01*
X8195476Y-23948476D02*
X8195476Y-23986571D01*
X8271667Y-23948476D02*
X8271667Y-23986571D01*
X8566905Y-24224667D02*
X8557381Y-24215143D01*
X8538333Y-24186571D01*
X8528810Y-24167524D01*
X8519286Y-24138952D01*
X8509762Y-24091333D01*
X8509762Y-24053238D01*
X8519286Y-24005619D01*
X8528810Y-23977048D01*
X8538333Y-23958000D01*
X8557381Y-23929428D01*
X8566905Y-23919905D01*
X8728810Y-24015143D02*
X8728810Y-24148476D01*
X8681190Y-23938952D02*
X8633571Y-24081809D01*
X8757381Y-24081809D01*
X8985952Y-24148476D02*
X8985952Y-23948476D01*
X9071667Y-24148476D02*
X9071667Y-24043714D01*
X9062143Y-24024667D01*
X9043095Y-24015143D01*
X9014524Y-24015143D01*
X8995476Y-24024667D01*
X8985952Y-24034190D01*
X9195476Y-24148476D02*
X9176429Y-24138952D01*
X9166905Y-24129428D01*
X9157381Y-24110381D01*
X9157381Y-24053238D01*
X9166905Y-24034190D01*
X9176429Y-24024667D01*
X9195476Y-24015143D01*
X9224048Y-24015143D01*
X9243095Y-24024667D01*
X9252619Y-24034190D01*
X9262143Y-24053238D01*
X9262143Y-24110381D01*
X9252619Y-24129428D01*
X9243095Y-24138952D01*
X9224048Y-24148476D01*
X9195476Y-24148476D01*
X9376429Y-24148476D02*
X9357381Y-24138952D01*
X9347857Y-24119905D01*
X9347857Y-23948476D01*
X9528810Y-24138952D02*
X9509762Y-24148476D01*
X9471667Y-24148476D01*
X9452619Y-24138952D01*
X9443095Y-24119905D01*
X9443095Y-24043714D01*
X9452619Y-24024667D01*
X9471667Y-24015143D01*
X9509762Y-24015143D01*
X9528810Y-24024667D01*
X9538333Y-24043714D01*
X9538333Y-24062762D01*
X9443095Y-24081809D01*
X9614524Y-24138952D02*
X9633571Y-24148476D01*
X9671667Y-24148476D01*
X9690714Y-24138952D01*
X9700238Y-24119905D01*
X9700238Y-24110381D01*
X9690714Y-24091333D01*
X9671667Y-24081809D01*
X9643095Y-24081809D01*
X9624048Y-24072286D01*
X9614524Y-24053238D01*
X9614524Y-24043714D01*
X9624048Y-24024667D01*
X9643095Y-24015143D01*
X9671667Y-24015143D01*
X9690714Y-24024667D01*
X9766905Y-24224667D02*
X9776429Y-24215143D01*
X9795476Y-24186571D01*
X9805000Y-24167524D01*
X9814524Y-24138952D01*
X9824048Y-24091333D01*
X9824048Y-24053238D01*
X9814524Y-24005619D01*
X9805000Y-23977048D01*
X9795476Y-23958000D01*
X9776429Y-23929428D01*
X9766905Y-23919905D01*
M02*
