%TF.GenerationSoftware,KiCad,Pcbnew,(6.0.5)*%
%TF.CreationDate,2022-06-12T15:36:10-04:00*%
%TF.ProjectId,pico_keyboard_v1,7069636f-5f6b-4657-9962-6f6172645f76,rev?*%
%TF.SameCoordinates,Original*%
%TF.FileFunction,Soldermask,Bot*%
%TF.FilePolarity,Negative*%
%FSLAX46Y46*%
G04 Gerber Fmt 4.6, Leading zero omitted, Abs format (unit mm)*
G04 Created by KiCad (PCBNEW (6.0.5)) date 2022-06-12 15:36:10*
%MOMM*%
%LPD*%
G01*
G04 APERTURE LIST*
G04 Aperture macros list*
%AMRoundRect*
0 Rectangle with rounded corners*
0 $1 Rounding radius*
0 $2 $3 $4 $5 $6 $7 $8 $9 X,Y pos of 4 corners*
0 Add a 4 corners polygon primitive as box body*
4,1,4,$2,$3,$4,$5,$6,$7,$8,$9,$2,$3,0*
0 Add four circle primitives for the rounded corners*
1,1,$1+$1,$2,$3*
1,1,$1+$1,$4,$5*
1,1,$1+$1,$6,$7*
1,1,$1+$1,$8,$9*
0 Add four rect primitives between the rounded corners*
20,1,$1+$1,$2,$3,$4,$5,0*
20,1,$1+$1,$4,$5,$6,$7,0*
20,1,$1+$1,$6,$7,$8,$9,0*
20,1,$1+$1,$8,$9,$2,$3,0*%
G04 Aperture macros list end*
%ADD10C,4.500000*%
%ADD11C,5.700000*%
%ADD12C,3.048000*%
%ADD13C,3.987800*%
%ADD14O,1.800000X1.800000*%
%ADD15O,1.500000X1.500000*%
%ADD16O,1.700000X1.700000*%
%ADD17R,1.700000X3.500000*%
%ADD18R,1.700000X1.700000*%
%ADD19R,3.500000X1.700000*%
%ADD20C,1.778000*%
%ADD21C,2.286000*%
%ADD22C,1.750000*%
%ADD23C,4.000000*%
%ADD24C,3.050000*%
%ADD25RoundRect,0.250000X-1.025000X-1.000000X1.025000X-1.000000X1.025000X1.000000X-1.025000X1.000000X0*%
%ADD26R,2.000000X2.000000*%
%ADD27C,2.000000*%
%ADD28C,3.200000*%
%ADD29C,1.600000*%
%ADD30O,1.600000X1.600000*%
%ADD31R,1.600000X1.600000*%
G04 APERTURE END LIST*
D10*
X204950000Y-181300000D03*
X174000000Y-181300000D03*
D11*
X55000000Y-204250000D03*
X366800000Y-204250000D03*
X366800000Y-85000000D03*
X55000000Y-85000000D03*
D12*
X139468750Y-158740000D03*
X239468750Y-158740000D03*
D13*
X139468750Y-173950000D03*
X239468750Y-173950000D03*
D12*
X325168250Y-139690000D03*
X349044250Y-139690000D03*
D13*
X325168250Y-154900000D03*
X349044250Y-154900000D03*
D12*
X87043250Y-139690000D03*
X110919250Y-139690000D03*
D13*
X87043250Y-154900000D03*
X110919250Y-154900000D03*
D12*
X329930750Y-120640000D03*
X353806750Y-120640000D03*
D13*
X329930750Y-135850000D03*
X353806750Y-135850000D03*
D12*
X332312000Y-82540000D03*
X356188000Y-82540000D03*
D13*
X332312000Y-97750000D03*
X356188000Y-97750000D03*
D14*
X52000000Y-191975000D03*
X52000000Y-186525000D03*
D15*
X55030000Y-186825000D03*
X55030000Y-191675000D03*
D16*
X51870000Y-180360000D03*
D17*
X51870000Y-179460000D03*
D16*
X54410000Y-180360000D03*
D17*
X54410000Y-179460000D03*
X56950000Y-179460000D03*
D18*
X56950000Y-180360000D03*
D16*
X59490000Y-180360000D03*
D17*
X59490000Y-179460000D03*
D16*
X62030000Y-180360000D03*
D17*
X62030000Y-179460000D03*
D16*
X64570000Y-180360000D03*
D17*
X64570000Y-179460000D03*
X67110000Y-179460000D03*
D16*
X67110000Y-180360000D03*
D18*
X69650000Y-180360000D03*
D17*
X69650000Y-179460000D03*
X72190000Y-179460000D03*
D16*
X72190000Y-180360000D03*
X74730000Y-180360000D03*
D17*
X74730000Y-179460000D03*
X77270000Y-179460000D03*
D16*
X77270000Y-180360000D03*
X79810000Y-180360000D03*
D17*
X79810000Y-179460000D03*
D18*
X82350000Y-180360000D03*
D17*
X82350000Y-179460000D03*
X84890000Y-179460000D03*
D16*
X84890000Y-180360000D03*
X87430000Y-180360000D03*
D17*
X87430000Y-179460000D03*
X89970000Y-179460000D03*
D16*
X89970000Y-180360000D03*
D17*
X92510000Y-179460000D03*
D16*
X92510000Y-180360000D03*
D17*
X95050000Y-179460000D03*
D18*
X95050000Y-180360000D03*
D16*
X97590000Y-180360000D03*
D17*
X97590000Y-179460000D03*
X100130000Y-179460000D03*
D16*
X100130000Y-180360000D03*
D17*
X100130000Y-199040000D03*
D16*
X100130000Y-198140000D03*
D17*
X97590000Y-199040000D03*
D16*
X97590000Y-198140000D03*
D17*
X95050000Y-199040000D03*
D18*
X95050000Y-198140000D03*
D16*
X92510000Y-198140000D03*
D17*
X92510000Y-199040000D03*
X89970000Y-199040000D03*
D16*
X89970000Y-198140000D03*
D17*
X87430000Y-199040000D03*
D16*
X87430000Y-198140000D03*
X84890000Y-198140000D03*
D17*
X84890000Y-199040000D03*
D18*
X82350000Y-198140000D03*
D17*
X82350000Y-199040000D03*
D16*
X79810000Y-198140000D03*
D17*
X79810000Y-199040000D03*
X77270000Y-199040000D03*
D16*
X77270000Y-198140000D03*
X74730000Y-198140000D03*
D17*
X74730000Y-199040000D03*
D16*
X72190000Y-198140000D03*
D17*
X72190000Y-199040000D03*
X69650000Y-199040000D03*
D18*
X69650000Y-198140000D03*
D17*
X67110000Y-199040000D03*
D16*
X67110000Y-198140000D03*
D17*
X64570000Y-199040000D03*
D16*
X64570000Y-198140000D03*
X62030000Y-198140000D03*
D17*
X62030000Y-199040000D03*
X59490000Y-199040000D03*
D16*
X59490000Y-198140000D03*
D17*
X56950000Y-199040000D03*
D18*
X56950000Y-198140000D03*
D17*
X54410000Y-199040000D03*
D16*
X54410000Y-198140000D03*
X51870000Y-198140000D03*
D17*
X51870000Y-199040000D03*
D19*
X100800000Y-186710000D03*
D16*
X99900000Y-186710000D03*
D18*
X99900000Y-189250000D03*
D19*
X100800000Y-189250000D03*
D16*
X99900000Y-191790000D03*
D19*
X100800000Y-191790000D03*
D20*
X186293750Y-179025000D03*
X192643750Y-179025000D03*
X186293750Y-184105000D03*
X192643750Y-184105000D03*
X186928750Y-201885000D03*
X189468750Y-201885000D03*
X192008750Y-201885000D03*
D21*
X181848750Y-185057500D03*
X181848750Y-198392500D03*
X197088750Y-198392500D03*
X197088750Y-185057500D03*
D20*
X179308750Y-189185000D03*
X179308750Y-191725000D03*
X179308750Y-194265000D03*
D22*
X358855000Y-165725000D03*
D23*
X353775000Y-165725000D03*
D24*
X349965000Y-163185000D03*
X356315000Y-160645000D03*
D22*
X348695000Y-165725000D03*
D25*
X346690000Y-163185000D03*
X359617000Y-160645000D03*
D22*
X73105000Y-108575000D03*
D23*
X68025000Y-108575000D03*
D24*
X64215000Y-106035000D03*
X70565000Y-103495000D03*
D22*
X62945000Y-108575000D03*
D25*
X60940000Y-106035000D03*
X73867000Y-103495000D03*
D24*
X351552500Y-103495000D03*
D22*
X343932500Y-108575000D03*
D24*
X345202500Y-106035000D03*
D23*
X349012500Y-108575000D03*
D22*
X354092500Y-108575000D03*
D25*
X341927500Y-106035000D03*
X354854500Y-103495000D03*
D22*
X339170000Y-89525000D03*
D24*
X340440000Y-86985000D03*
D23*
X344250000Y-89525000D03*
D24*
X346790000Y-84445000D03*
D22*
X349330000Y-89525000D03*
D25*
X337165000Y-86985000D03*
X350092000Y-84445000D03*
D22*
X339805000Y-165725000D03*
D23*
X334725000Y-165725000D03*
D24*
X330915000Y-163185000D03*
X337265000Y-160645000D03*
D22*
X329645000Y-165725000D03*
D25*
X327640000Y-163185000D03*
X340567000Y-160645000D03*
D22*
X320755000Y-165725000D03*
D23*
X315675000Y-165725000D03*
D24*
X311865000Y-163185000D03*
X318215000Y-160645000D03*
D22*
X310595000Y-165725000D03*
D25*
X308590000Y-163185000D03*
X321517000Y-160645000D03*
D24*
X338058750Y-125085000D03*
D22*
X336788750Y-127625000D03*
D24*
X344408750Y-122545000D03*
D22*
X346948750Y-127625000D03*
D23*
X341868750Y-127625000D03*
D25*
X334783750Y-125085000D03*
X347710750Y-122545000D03*
D22*
X330280000Y-108575000D03*
D23*
X325200000Y-108575000D03*
D24*
X321390000Y-106035000D03*
X327740000Y-103495000D03*
D22*
X320120000Y-108575000D03*
D25*
X318115000Y-106035000D03*
X331042000Y-103495000D03*
D22*
X320755000Y-89525000D03*
D23*
X315675000Y-89525000D03*
D24*
X311865000Y-86985000D03*
X318215000Y-84445000D03*
D22*
X310595000Y-89525000D03*
D25*
X308590000Y-86985000D03*
X321517000Y-84445000D03*
D22*
X301705000Y-165725000D03*
D23*
X296625000Y-165725000D03*
D24*
X292815000Y-163185000D03*
X299165000Y-160645000D03*
D22*
X291545000Y-165725000D03*
D25*
X289540000Y-163185000D03*
X302467000Y-160645000D03*
D23*
X337106250Y-146675000D03*
D22*
X342186250Y-146675000D03*
D24*
X339646250Y-141595000D03*
X333296250Y-144135000D03*
D22*
X332026250Y-146675000D03*
D25*
X330021250Y-144135000D03*
X342948250Y-141595000D03*
D22*
X315992500Y-127625000D03*
D23*
X310912500Y-127625000D03*
D24*
X307102500Y-125085000D03*
X313452500Y-122545000D03*
D22*
X305832500Y-127625000D03*
D25*
X303827500Y-125085000D03*
X316754500Y-122545000D03*
D22*
X311230000Y-108575000D03*
D23*
X306150000Y-108575000D03*
D24*
X302340000Y-106035000D03*
X308690000Y-103495000D03*
D22*
X301070000Y-108575000D03*
D25*
X299065000Y-106035000D03*
X311992000Y-103495000D03*
D22*
X301705000Y-89525000D03*
D23*
X296625000Y-89525000D03*
D24*
X292815000Y-86985000D03*
X299165000Y-84445000D03*
D22*
X291545000Y-89525000D03*
D25*
X289540000Y-86985000D03*
X302467000Y-84445000D03*
D22*
X73105000Y-146675000D03*
D23*
X68025000Y-146675000D03*
D24*
X64215000Y-144135000D03*
X70565000Y-141595000D03*
D22*
X62945000Y-146675000D03*
D25*
X60940000Y-144135000D03*
X73867000Y-141595000D03*
D22*
X306467500Y-146675000D03*
D23*
X301387500Y-146675000D03*
D24*
X297577500Y-144135000D03*
X303927500Y-141595000D03*
D22*
X296307500Y-146675000D03*
D25*
X294302500Y-144135000D03*
X307229500Y-141595000D03*
D22*
X296942500Y-127625000D03*
D23*
X291862500Y-127625000D03*
D24*
X288052500Y-125085000D03*
X294402500Y-122545000D03*
D22*
X286782500Y-127625000D03*
D25*
X284777500Y-125085000D03*
X297704500Y-122545000D03*
D22*
X292180000Y-108575000D03*
D23*
X287100000Y-108575000D03*
D24*
X283290000Y-106035000D03*
X289640000Y-103495000D03*
D22*
X282020000Y-108575000D03*
D25*
X280015000Y-106035000D03*
X292942000Y-103495000D03*
D22*
X282655000Y-89525000D03*
D23*
X277575000Y-89525000D03*
D24*
X273765000Y-86985000D03*
X280115000Y-84445000D03*
D22*
X272495000Y-89525000D03*
D25*
X270490000Y-86985000D03*
X283417000Y-84445000D03*
D22*
X282655000Y-165725000D03*
D23*
X277575000Y-165725000D03*
D24*
X273765000Y-163185000D03*
X280115000Y-160645000D03*
D22*
X272495000Y-165725000D03*
D25*
X270490000Y-163185000D03*
X283417000Y-160645000D03*
D22*
X287417500Y-146675000D03*
D23*
X282337500Y-146675000D03*
D24*
X278527500Y-144135000D03*
X284877500Y-141595000D03*
D22*
X277257500Y-146675000D03*
D25*
X275252500Y-144135000D03*
X288179500Y-141595000D03*
D22*
X277892500Y-127625000D03*
D23*
X272812500Y-127625000D03*
D24*
X269002500Y-125085000D03*
X275352500Y-122545000D03*
D22*
X267732500Y-127625000D03*
D25*
X265727500Y-125085000D03*
X278654500Y-122545000D03*
D22*
X273130000Y-108575000D03*
D23*
X268050000Y-108575000D03*
D24*
X264240000Y-106035000D03*
X270590000Y-103495000D03*
D22*
X262970000Y-108575000D03*
D25*
X260965000Y-106035000D03*
X273892000Y-103495000D03*
D22*
X263605000Y-89525000D03*
D23*
X258525000Y-89525000D03*
D24*
X254715000Y-86985000D03*
X261065000Y-84445000D03*
D22*
X253445000Y-89525000D03*
D25*
X251440000Y-86985000D03*
X264367000Y-84445000D03*
D22*
X263604999Y-165725000D03*
D23*
X258524999Y-165725000D03*
D24*
X254714999Y-163185000D03*
X261064999Y-160645000D03*
D22*
X253444999Y-165725000D03*
D25*
X251439999Y-163185000D03*
X264366999Y-160645000D03*
D22*
X268367500Y-146675000D03*
D23*
X263287500Y-146675000D03*
D24*
X259477500Y-144135000D03*
X265827500Y-141595000D03*
D22*
X258207500Y-146675000D03*
D25*
X256202500Y-144135000D03*
X269129500Y-141595000D03*
D22*
X258842500Y-127625000D03*
D23*
X253762500Y-127625000D03*
D24*
X249952500Y-125085000D03*
X256302500Y-122545000D03*
D22*
X248682500Y-127625000D03*
D25*
X246677500Y-125085000D03*
X259604500Y-122545000D03*
D22*
X254080000Y-108575000D03*
D23*
X249000000Y-108575000D03*
D24*
X245190000Y-106035000D03*
X251540000Y-103495000D03*
D22*
X243920000Y-108575000D03*
D25*
X241915000Y-106035000D03*
X254842000Y-103495000D03*
D22*
X244555000Y-89525000D03*
D23*
X239475000Y-89525000D03*
D24*
X235665000Y-86985000D03*
X242015000Y-84445000D03*
D22*
X234395000Y-89525000D03*
D25*
X232390000Y-86985000D03*
X245317000Y-84445000D03*
D22*
X249317500Y-146675000D03*
D23*
X244237500Y-146675000D03*
D24*
X240427500Y-144135000D03*
X246777500Y-141595000D03*
D22*
X239157500Y-146675000D03*
D25*
X237152500Y-144135000D03*
X250079500Y-141595000D03*
D22*
X239792500Y-127625000D03*
D23*
X234712500Y-127625000D03*
D24*
X230902500Y-125085000D03*
X237252500Y-122545000D03*
D22*
X229632500Y-127625000D03*
D25*
X227627500Y-125085000D03*
X240554500Y-122545000D03*
D22*
X235030000Y-108575000D03*
D23*
X229950000Y-108575000D03*
D24*
X226140000Y-106035000D03*
X232490000Y-103495000D03*
D22*
X224870000Y-108575000D03*
D25*
X222865000Y-106035000D03*
X235792000Y-103495000D03*
D22*
X225505000Y-89525000D03*
D23*
X220425000Y-89525000D03*
D24*
X216615000Y-86985000D03*
X222965000Y-84445000D03*
D22*
X215345000Y-89525000D03*
D25*
X213340000Y-86985000D03*
X226267000Y-84445000D03*
D22*
X219548750Y-191725000D03*
D23*
X214468750Y-191725000D03*
D24*
X210658750Y-189185000D03*
X217008750Y-186645000D03*
D22*
X209388750Y-191725000D03*
D25*
X207383750Y-189185000D03*
X220310750Y-186645000D03*
D22*
X230267500Y-146675000D03*
D23*
X225187500Y-146675000D03*
D24*
X221377500Y-144135000D03*
X227727500Y-141595000D03*
D22*
X220107500Y-146675000D03*
D25*
X218102500Y-144135000D03*
X231029500Y-141595000D03*
D22*
X220742500Y-127625000D03*
D23*
X215662500Y-127625000D03*
D24*
X211852500Y-125085000D03*
X218202500Y-122545000D03*
D22*
X210582500Y-127625000D03*
D25*
X208577500Y-125085000D03*
X221504500Y-122545000D03*
D22*
X215980000Y-108575000D03*
D23*
X210900000Y-108575000D03*
D24*
X207090000Y-106035000D03*
X213440000Y-103495000D03*
D22*
X205820000Y-108575000D03*
D25*
X203815000Y-106035000D03*
X216742000Y-103495000D03*
D22*
X206455000Y-89525000D03*
D23*
X201375000Y-89525000D03*
D24*
X197565000Y-86985000D03*
X203915000Y-84445000D03*
D22*
X196295000Y-89525000D03*
D25*
X194290000Y-86985000D03*
X207217000Y-84445000D03*
D24*
X192008750Y-160645000D03*
D23*
X189468750Y-165725000D03*
D22*
X184388750Y-165725000D03*
D24*
X185658750Y-163185000D03*
D22*
X194548750Y-165725000D03*
D25*
X182383750Y-163185000D03*
X195310750Y-160645000D03*
D22*
X211217500Y-146675000D03*
D23*
X206137500Y-146675000D03*
D24*
X202327500Y-144135000D03*
X208677500Y-141595000D03*
D22*
X201057500Y-146675000D03*
D25*
X199052500Y-144135000D03*
X211979500Y-141595000D03*
D22*
X201692500Y-127625000D03*
D23*
X196612500Y-127625000D03*
D24*
X192802500Y-125085000D03*
X199152500Y-122545000D03*
D22*
X191532500Y-127625000D03*
D25*
X189527500Y-125085000D03*
X202454500Y-122545000D03*
D22*
X196930000Y-108575000D03*
D23*
X191850000Y-108575000D03*
D24*
X188040000Y-106035000D03*
X194390000Y-103495000D03*
D22*
X186770000Y-108575000D03*
D25*
X184765000Y-106035000D03*
X197692000Y-103495000D03*
D22*
X187405000Y-89525000D03*
D23*
X182325000Y-89525000D03*
D24*
X178515000Y-86985000D03*
X184865000Y-84445000D03*
D22*
X177245000Y-89525000D03*
D25*
X175240000Y-86985000D03*
X188167000Y-84445000D03*
D22*
X73105000Y-127625000D03*
D23*
X68025000Y-127625000D03*
D24*
X64215000Y-125085000D03*
X70565000Y-122545000D03*
D22*
X62945000Y-127625000D03*
D25*
X60940000Y-125085000D03*
X73867000Y-122545000D03*
D22*
X192167500Y-146675000D03*
D23*
X187087500Y-146675000D03*
D24*
X183277500Y-144135000D03*
X189627500Y-141595000D03*
D22*
X182007500Y-146675000D03*
D25*
X180002500Y-144135000D03*
X192929500Y-141595000D03*
D22*
X182642500Y-127625000D03*
D23*
X177562500Y-127625000D03*
D24*
X173752500Y-125085000D03*
X180102500Y-122545000D03*
D22*
X172482500Y-127625000D03*
D25*
X170477500Y-125085000D03*
X183404500Y-122545000D03*
D22*
X177880000Y-108575000D03*
D23*
X172800000Y-108575000D03*
D24*
X168990000Y-106035000D03*
X175340000Y-103495000D03*
D22*
X167720000Y-108575000D03*
D25*
X165715000Y-106035000D03*
X178642000Y-103495000D03*
D22*
X168355000Y-89525000D03*
D23*
X163275000Y-89525000D03*
D24*
X159465000Y-86985000D03*
X165815000Y-84445000D03*
D22*
X158195000Y-89525000D03*
D25*
X156190000Y-86985000D03*
X169117000Y-84445000D03*
D22*
X169548750Y-191725000D03*
D23*
X164468750Y-191725000D03*
D24*
X160658750Y-189185000D03*
X167008750Y-186645000D03*
D22*
X159388750Y-191725000D03*
D25*
X157383750Y-189185000D03*
X170310750Y-186645000D03*
D22*
X173117500Y-146675000D03*
D23*
X168037500Y-146675000D03*
D24*
X164227500Y-144135000D03*
X170577500Y-141595000D03*
D22*
X162957500Y-146675000D03*
D25*
X160952500Y-144135000D03*
X173879500Y-141595000D03*
D22*
X163592500Y-127625000D03*
D23*
X158512500Y-127625000D03*
D24*
X154702500Y-125085000D03*
X161052500Y-122545000D03*
D22*
X153432500Y-127625000D03*
D25*
X151427500Y-125085000D03*
X164354500Y-122545000D03*
D22*
X158830000Y-108575000D03*
D23*
X153750000Y-108575000D03*
D24*
X149940000Y-106035000D03*
X156290000Y-103495000D03*
D22*
X148670000Y-108575000D03*
D25*
X146665000Y-106035000D03*
X159592000Y-103495000D03*
D22*
X149305000Y-89525000D03*
D23*
X144225000Y-89525000D03*
D24*
X140415000Y-86985000D03*
X146765000Y-84445000D03*
D22*
X139145000Y-89525000D03*
D25*
X137140000Y-86985000D03*
X150067000Y-84445000D03*
D22*
X123111250Y-165725000D03*
D23*
X118031250Y-165725000D03*
D24*
X120571250Y-160645000D03*
X114221250Y-163185000D03*
D22*
X112951250Y-165725000D03*
D25*
X110946250Y-163185000D03*
X123873250Y-160645000D03*
D22*
X154067500Y-146675000D03*
D23*
X148987500Y-146675000D03*
D24*
X145177500Y-144135000D03*
X151527500Y-141595000D03*
D22*
X143907500Y-146675000D03*
D25*
X141902500Y-144135000D03*
X154829500Y-141595000D03*
D22*
X144542500Y-127625000D03*
D23*
X139462500Y-127625000D03*
D24*
X135652500Y-125085000D03*
X142002500Y-122545000D03*
D22*
X134382500Y-127625000D03*
D25*
X132377500Y-125085000D03*
X145304500Y-122545000D03*
D22*
X139780000Y-108575000D03*
D23*
X134700000Y-108575000D03*
D24*
X130890000Y-106035000D03*
X137240000Y-103495000D03*
D22*
X129620000Y-108575000D03*
D25*
X127615000Y-106035000D03*
X140542000Y-103495000D03*
D22*
X130255000Y-89525000D03*
D23*
X125175000Y-89525000D03*
D24*
X121365000Y-86985000D03*
X127715000Y-84445000D03*
D22*
X120095000Y-89525000D03*
D25*
X118090000Y-86985000D03*
X131017000Y-84445000D03*
D22*
X99298750Y-165725000D03*
D23*
X94218750Y-165725000D03*
D24*
X96758750Y-160645000D03*
X90408750Y-163185000D03*
D22*
X89138750Y-165725000D03*
D25*
X87133750Y-163185000D03*
X100060750Y-160645000D03*
D22*
X135017500Y-146675000D03*
D23*
X129937500Y-146675000D03*
D24*
X126127500Y-144135000D03*
X132477500Y-141595000D03*
D22*
X124857500Y-146675000D03*
D25*
X122852500Y-144135000D03*
X135779500Y-141595000D03*
D22*
X125492500Y-127625000D03*
D23*
X120412500Y-127625000D03*
D24*
X116602500Y-125085000D03*
X122952500Y-122545000D03*
D22*
X115332500Y-127625000D03*
D25*
X113327500Y-125085000D03*
X126254500Y-122545000D03*
D22*
X120730000Y-108575000D03*
D23*
X115650000Y-108575000D03*
D24*
X111840000Y-106035000D03*
X118190000Y-103495000D03*
D22*
X110570000Y-108575000D03*
D25*
X108565000Y-106035000D03*
X121492000Y-103495000D03*
D22*
X111205000Y-89525000D03*
D23*
X106125000Y-89525000D03*
D24*
X102315000Y-86985000D03*
X108665000Y-84445000D03*
D22*
X101045000Y-89525000D03*
D25*
X99040000Y-86985000D03*
X111967000Y-84445000D03*
D22*
X75486250Y-165725000D03*
D23*
X70406250Y-165725000D03*
D24*
X72946250Y-160645000D03*
X66596250Y-163185000D03*
D22*
X65326250Y-165725000D03*
D25*
X63321250Y-163185000D03*
X76248250Y-160645000D03*
X104823250Y-141595000D03*
X91896250Y-144135000D03*
D23*
X98981250Y-146675000D03*
D22*
X104061250Y-146675000D03*
D24*
X101521250Y-141595000D03*
D22*
X93901250Y-146675000D03*
D24*
X95171250Y-144135000D03*
D23*
X94218750Y-127625000D03*
D22*
X99298750Y-127625000D03*
X89138750Y-127625000D03*
D24*
X96758750Y-122545000D03*
X90408750Y-125085000D03*
D25*
X87133750Y-125085000D03*
X100060750Y-122545000D03*
D24*
X94377500Y-103495000D03*
D22*
X86757500Y-108575000D03*
D24*
X88027500Y-106035000D03*
D23*
X91837500Y-108575000D03*
D22*
X96917500Y-108575000D03*
D25*
X84752500Y-106035000D03*
X97679500Y-103495000D03*
D22*
X92155000Y-89525000D03*
D23*
X87075000Y-89525000D03*
D24*
X83265000Y-86985000D03*
X89615000Y-84445000D03*
D22*
X81995000Y-89525000D03*
D25*
X79990000Y-86985000D03*
X92917000Y-84445000D03*
D26*
X60545000Y-87045000D03*
D27*
X60545000Y-92045000D03*
X60545000Y-89545000D03*
D28*
X68045000Y-83945000D03*
X68045000Y-95145000D03*
D27*
X75045000Y-92045000D03*
X75045000Y-87045000D03*
D29*
X237250000Y-197380000D03*
D30*
X237250000Y-187220000D03*
D29*
X53350000Y-92070000D03*
D30*
X53350000Y-102230000D03*
D29*
X53350000Y-104586666D03*
D30*
X53350000Y-114746666D03*
D29*
X53350000Y-117103332D03*
D30*
X53350000Y-127263332D03*
D29*
X53350000Y-139780000D03*
D30*
X53350000Y-129620000D03*
D18*
X241000000Y-189670000D03*
D16*
X241000000Y-192210000D03*
X241000000Y-194750000D03*
D18*
X104450000Y-191775000D03*
D16*
X104450000Y-189235000D03*
X104450000Y-186695000D03*
D18*
X125688750Y-180225000D03*
D16*
X128228750Y-180225000D03*
X130768750Y-180225000D03*
X133308750Y-180225000D03*
D31*
X344250000Y-170805000D03*
D30*
X344250000Y-163185000D03*
D31*
X58500000Y-113655000D03*
D30*
X58500000Y-106035000D03*
D31*
X339487500Y-113655000D03*
D30*
X339487500Y-106035000D03*
D31*
X327150000Y-94610000D03*
D30*
X327150000Y-86990000D03*
D31*
X325200000Y-170805000D03*
D30*
X325200000Y-163185000D03*
D31*
X306150000Y-170805000D03*
D30*
X306150000Y-163185000D03*
D31*
X323850000Y-132705000D03*
D30*
X323850000Y-125085000D03*
D31*
X315675000Y-113655000D03*
D30*
X315675000Y-106035000D03*
D31*
X306150000Y-94605000D03*
D30*
X306150000Y-86985000D03*
D31*
X287100000Y-170805000D03*
D30*
X287100000Y-163185000D03*
D31*
X317300000Y-151755000D03*
D30*
X317300000Y-144135000D03*
D31*
X301387500Y-132705000D03*
D30*
X301387500Y-125085000D03*
D31*
X296625000Y-113655000D03*
D30*
X296625000Y-106035000D03*
D31*
X287100000Y-94605000D03*
D30*
X287100000Y-86985000D03*
D31*
X58500000Y-151755000D03*
D30*
X58500000Y-144135000D03*
D31*
X291862500Y-151755000D03*
D30*
X291862500Y-144135000D03*
D31*
X282337500Y-132705000D03*
D30*
X282337500Y-125085000D03*
D31*
X277575000Y-113655000D03*
D30*
X277575000Y-106035000D03*
D31*
X268050000Y-94605000D03*
D30*
X268050000Y-86985000D03*
D31*
X268050000Y-170805000D03*
D30*
X268050000Y-163185000D03*
D31*
X272812500Y-151755000D03*
D30*
X272812500Y-144135000D03*
D31*
X263287500Y-132705000D03*
D30*
X263287500Y-125085000D03*
D31*
X258525000Y-113655000D03*
D30*
X258525000Y-106035000D03*
D31*
X249000000Y-94605000D03*
D30*
X249000000Y-86985000D03*
D31*
X248999999Y-170805000D03*
D30*
X248999999Y-163185000D03*
D31*
X253762500Y-151755000D03*
D30*
X253762500Y-144135000D03*
D31*
X244237500Y-132705000D03*
D30*
X244237500Y-125085000D03*
D31*
X239475000Y-113655000D03*
D30*
X239475000Y-106035000D03*
D31*
X229950000Y-94605000D03*
D30*
X229950000Y-86985000D03*
D31*
X234712500Y-151755000D03*
D30*
X234712500Y-144135000D03*
D31*
X225187500Y-132705000D03*
D30*
X225187500Y-125085000D03*
D31*
X220425000Y-113655000D03*
D30*
X220425000Y-106035000D03*
D31*
X210900000Y-94605000D03*
D30*
X210900000Y-86985000D03*
D31*
X204943750Y-196805000D03*
D30*
X204943750Y-189185000D03*
D31*
X215662500Y-151755000D03*
D30*
X215662500Y-144135000D03*
D31*
X206137500Y-132705000D03*
D30*
X206137500Y-125085000D03*
D31*
X201375000Y-113655000D03*
D30*
X201375000Y-106035000D03*
D31*
X191850000Y-94605000D03*
D30*
X191850000Y-86985000D03*
D31*
X179943750Y-170805000D03*
D30*
X179943750Y-163185000D03*
D31*
X196612500Y-151755000D03*
D30*
X196612500Y-144135000D03*
D31*
X187087500Y-132705000D03*
D30*
X187087500Y-125085000D03*
D31*
X182325000Y-113655000D03*
D30*
X182325000Y-106035000D03*
D31*
X172800000Y-94605000D03*
D30*
X172800000Y-86985000D03*
D31*
X58500000Y-132705000D03*
D30*
X58500000Y-125085000D03*
D31*
X177562500Y-151755000D03*
D30*
X177562500Y-144135000D03*
D31*
X168037500Y-132705000D03*
D30*
X168037500Y-125085000D03*
D31*
X163275000Y-113655000D03*
D30*
X163275000Y-106035000D03*
D31*
X153750000Y-94605000D03*
D30*
X153750000Y-86985000D03*
D31*
X154943750Y-196805000D03*
D30*
X154943750Y-189185000D03*
D31*
X158512500Y-151755000D03*
D30*
X158512500Y-144135000D03*
D31*
X148987500Y-132705000D03*
D30*
X148987500Y-125085000D03*
D31*
X144225000Y-113655000D03*
D30*
X144225000Y-106035000D03*
D31*
X134700000Y-94605000D03*
D30*
X134700000Y-86985000D03*
D31*
X108506250Y-170805000D03*
D30*
X108506250Y-163185000D03*
D31*
X139462500Y-151755000D03*
D30*
X139462500Y-144135000D03*
D31*
X129937500Y-132705000D03*
D30*
X129937500Y-125085000D03*
D31*
X125175000Y-113655000D03*
D30*
X125175000Y-106035000D03*
D31*
X115649999Y-94605000D03*
D30*
X115649999Y-86985000D03*
D31*
X84693750Y-170805000D03*
D30*
X84693750Y-163185000D03*
D31*
X120412500Y-151755000D03*
D30*
X120412500Y-144135000D03*
D31*
X110887499Y-132705000D03*
D30*
X110887499Y-125085000D03*
D31*
X106125000Y-113655000D03*
D30*
X106125000Y-106035000D03*
D31*
X96600000Y-94605000D03*
D30*
X96600000Y-86985000D03*
D31*
X60881250Y-170805000D03*
D30*
X60881250Y-163185000D03*
X80750000Y-144135000D03*
D31*
X80750000Y-151755000D03*
X84693750Y-132705000D03*
D30*
X84693750Y-125085000D03*
D31*
X82312500Y-113655000D03*
D30*
X82312500Y-106035000D03*
D31*
X87650000Y-99100000D03*
D30*
X80030000Y-99100000D03*
D31*
X72000000Y-99050000D03*
D30*
X64380000Y-99050000D03*
D31*
X207360000Y-203950000D03*
D30*
X199740000Y-203950000D03*
M02*
