M48
; DRILL file {KiCad (6.0.5)} date Sun May 29 22:26:53 2022
; FORMAT={-:-/ absolute / inch / decimal}
; #@! TF.CreationDate,2022-05-29T22:26:53-04:00
; #@! TF.GenerationSoftware,Kicad,Pcbnew,(6.0.5)
; #@! TF.FileFunction,NonPlated,1,2,NPTH
FMAT,2
INCH
; #@! TA.AperFunction,NonPlated,NPTH,ComponentDrill
T1C0.0591
; #@! TA.AperFunction,NonPlated,NPTH,ComponentDrill
T2C0.0689
; #@! TA.AperFunction,NonPlated,NPTH,ComponentDrill
T3C0.0709
; #@! TA.AperFunction,NonPlated,NPTH,ComponentDrill
T4C0.1200
; #@! TA.AperFunction,NonPlated,NPTH,ComponentDrill
T5C0.1201
; #@! TA.AperFunction,NonPlated,NPTH,ComponentDrill
T6C0.1570
; #@! TA.AperFunction,NonPlated,NPTH,ComponentDrill
T7C0.1575
%
G90
G05
T1
X13.9396Y-3.4266
X14.1305Y-3.4266
T2
X1.7045Y-3.5429
X1.7045Y-4.2929
X1.7045Y-8.0429
X1.7983Y-7.2929
X1.892Y-5.0429
X1.9858Y-5.7929
X2.1045Y-3.5429
X2.1045Y-4.2929
X2.1045Y-8.0429
X2.1733Y-6.5429
X2.1983Y-7.2929
X2.292Y-5.0429
X2.3858Y-5.7929
X2.4545Y-4.2929
X2.4545Y-8.0429
X2.5733Y-6.5429
X2.7358Y-7.2929
X2.8295Y-5.0429
X2.8545Y-4.2929
X2.8545Y-8.0429
X3.017Y-5.7929
X3.1358Y-7.2929
X3.2045Y-4.2929
X3.2045Y-8.0429
X3.2295Y-5.0429
X3.392Y-6.5429
X3.417Y-5.7929
X3.5795Y-5.0429
X3.6045Y-4.2929
X3.6045Y-8.0429
X3.6733Y-7.2929
X3.767Y-5.7929
X3.792Y-6.5429
X3.9545Y-4.2929
X3.9795Y-5.0429
X4.0733Y-7.2929
X4.142Y-6.5429
X4.167Y-5.7929
X4.3295Y-5.0429
X4.3545Y-4.2929
X4.517Y-5.7929
X4.542Y-6.5429
X4.7045Y-4.2929
X4.7295Y-5.0429
X4.892Y-6.5429
X4.917Y-5.7929
X5.0795Y-5.0429
X5.1045Y-4.2929
X5.267Y-5.7929
X5.292Y-6.5429
X5.4545Y-4.2929
X5.4795Y-5.0429
X5.642Y-6.5429
X5.667Y-5.7929
X5.8295Y-5.0429
X5.8545Y-4.2929
X6.017Y-5.7929
X6.042Y-6.5429
X6.2045Y-4.2929
X6.2295Y-5.0429
X6.392Y-6.5429
X6.417Y-5.7929
X6.4858Y-7.2929
X6.5795Y-5.0429
X6.6045Y-4.2929
X6.767Y-5.7929
X6.792Y-6.5429
X6.8858Y-7.2929
X6.9545Y-4.2929
X6.9795Y-5.0429
X7.142Y-6.5429
X7.167Y-5.7929
X7.3295Y-5.0429
X7.3545Y-4.2929
X7.517Y-5.7929
X7.542Y-6.5429
X7.7045Y-4.2929
X7.7295Y-5.0429
X7.892Y-6.5429
X7.917Y-5.7929
X8.0795Y-5.0429
X8.1045Y-4.2929
X8.267Y-5.7929
X8.292Y-6.5429
X8.4545Y-4.2929
X8.4795Y-5.0429
X8.642Y-6.5429
X8.667Y-5.7929
X8.8295Y-5.0429
X8.8545Y-4.2929
X9.017Y-5.7929
X9.042Y-6.5429
X9.2045Y-4.2929
X9.2045Y-7.2929
X9.2295Y-5.0429
X9.392Y-6.5429
X9.417Y-5.7929
X9.5795Y-5.0429
X9.6045Y-4.2929
X9.6045Y-7.2929
X9.767Y-5.7929
X9.792Y-6.5429
X9.9545Y-4.2929
X9.9545Y-7.2929
X9.9795Y-5.0429
X10.142Y-6.5429
X10.167Y-5.7929
X10.3295Y-5.0429
X10.3545Y-4.2929
X10.3545Y-7.2929
X10.517Y-5.7929
X10.542Y-6.5429
X10.7045Y-4.2929
X10.7045Y-7.2929
X10.7295Y-5.0429
X10.917Y-5.7929
X11.0795Y-5.0429
X11.1045Y-4.2929
X11.1045Y-7.2929
X11.1733Y-6.5429
X11.4545Y-7.2929
X11.4795Y-5.0429
X11.5733Y-6.5429
X11.7358Y-5.7929
X11.8295Y-4.2929
X11.8545Y-7.2929
X12.017Y-5.0429
X12.1358Y-5.7929
X12.2045Y-6.5429
X12.2045Y-7.2929
X12.2295Y-4.2929
X12.417Y-5.0429
X12.6045Y-6.5429
X12.6045Y-7.2929
T3
X13.9278Y-3.3073
X14.1423Y-3.3073
T4
X1.9033Y-6.8179
X2.8433Y-6.8179
X4.7173Y-7.5679
X8.6543Y-7.5679
X11.4658Y-6.0679
X11.5595Y-4.5679
X12.4058Y-6.0679
X12.4995Y-4.5679
T5
X1.8045Y-3.7429
X1.8045Y-4.4929
X1.8045Y-8.2429
X1.8983Y-7.4929
X1.992Y-5.2429
X2.0545Y-3.6429
X2.0545Y-4.3929
X2.0545Y-8.1429
X2.0858Y-5.9929
X2.1483Y-7.3929
X2.242Y-5.1429
X2.2733Y-6.7429
X2.3358Y-5.8929
X2.5233Y-6.6429
X2.5545Y-4.4929
X2.5545Y-8.2429
X2.8045Y-4.3929
X2.8045Y-8.1429
X2.8358Y-7.4929
X2.9295Y-5.2429
X3.0858Y-7.3929
X3.117Y-5.9929
X3.1795Y-5.1429
X3.3045Y-4.4929
X3.3045Y-8.2429
X3.367Y-5.8929
X3.492Y-6.7429
X3.5545Y-4.3929
X3.5545Y-8.1429
X3.6795Y-5.2429
X3.742Y-6.6429
X3.7733Y-7.4929
X3.867Y-5.9929
X3.9295Y-5.1429
X4.0233Y-7.3929
X4.0545Y-4.4929
X4.117Y-5.8929
X4.242Y-6.7429
X4.3045Y-4.3929
X4.4295Y-5.2429
X4.492Y-6.6429
X4.617Y-5.9929
X4.6795Y-5.1429
X4.8045Y-4.4929
X4.867Y-5.8929
X4.992Y-6.7429
X5.0545Y-4.3929
X5.1795Y-5.2429
X5.242Y-6.6429
X5.367Y-5.9929
X5.4295Y-5.1429
X5.5545Y-4.4929
X5.617Y-5.8929
X5.742Y-6.7429
X5.8045Y-4.3929
X5.9295Y-5.2429
X5.992Y-6.6429
X6.117Y-5.9929
X6.1795Y-5.1429
X6.3045Y-4.4929
X6.367Y-5.8929
X6.492Y-6.7429
X6.5545Y-4.3929
X6.5858Y-7.4929
X6.6795Y-5.2429
X6.742Y-6.6429
X6.8358Y-7.3929
X6.867Y-5.9929
X6.9295Y-5.1429
X7.0545Y-4.4929
X7.117Y-5.8929
X7.242Y-6.7429
X7.3045Y-4.3929
X7.4295Y-5.2429
X7.492Y-6.6429
X7.617Y-5.9929
X7.6795Y-5.1429
X7.8045Y-4.4929
X7.867Y-5.8929
X7.992Y-6.7429
X8.0545Y-4.3929
X8.1795Y-5.2429
X8.242Y-6.6429
X8.367Y-5.9929
X8.4295Y-5.1429
X8.5545Y-4.4929
X8.617Y-5.8929
X8.742Y-6.7429
X8.8045Y-4.3929
X8.9295Y-5.2429
X8.992Y-6.6429
X9.117Y-5.9929
X9.1795Y-5.1429
X9.3045Y-4.4929
X9.3045Y-7.4929
X9.367Y-5.8929
X9.492Y-6.7429
X9.5545Y-4.3929
X9.5545Y-7.3929
X9.6795Y-5.2429
X9.742Y-6.6429
X9.867Y-5.9929
X9.9295Y-5.1429
X10.0545Y-4.4929
X10.0545Y-7.4929
X10.117Y-5.8929
X10.242Y-6.7429
X10.3045Y-4.3929
X10.3045Y-7.3929
X10.4295Y-5.2429
X10.492Y-6.6429
X10.617Y-5.9929
X10.6795Y-5.1429
X10.8045Y-4.4929
X10.8045Y-7.4929
X10.867Y-5.8929
X11.0545Y-4.3929
X11.0545Y-7.3929
X11.1795Y-5.2429
X11.2733Y-6.7429
X11.4295Y-5.1429
X11.5233Y-6.6429
X11.5545Y-7.4929
X11.8045Y-7.3929
X11.8358Y-5.9929
X11.9295Y-4.4929
X12.0858Y-5.8929
X12.117Y-5.2429
X12.1795Y-4.3929
X12.3045Y-6.7429
X12.3045Y-7.4929
X12.367Y-5.1429
X12.5545Y-6.6429
X12.5545Y-7.3929
T6
X1.9033Y-6.2191
X2.8433Y-6.2191
X4.7173Y-6.9691
X8.6543Y-6.9691
X11.4658Y-5.4691
X11.5595Y-3.9691
X12.4058Y-5.4691
X12.4995Y-3.9691
T7
X1.9045Y-3.5429
X1.9045Y-4.2929
X1.9045Y-8.0429
X1.9983Y-7.2929
X2.092Y-5.0429
X2.1858Y-5.7929
X2.3733Y-6.5429
X2.6545Y-4.2929
X2.6545Y-8.0429
X2.9358Y-7.2929
X3.0295Y-5.0429
X3.217Y-5.7929
X3.4045Y-4.2929
X3.4045Y-8.0429
X3.592Y-6.5429
X3.7795Y-5.0429
X3.8733Y-7.2929
X3.967Y-5.7929
X4.1545Y-4.2929
X4.342Y-6.5429
X4.5295Y-5.0429
X4.717Y-5.7929
X4.9045Y-4.2929
X5.092Y-6.5429
X5.2795Y-5.0429
X5.467Y-5.7929
X5.6545Y-4.2929
X5.842Y-6.5429
X6.0295Y-5.0429
X6.217Y-5.7929
X6.4045Y-4.2929
X6.592Y-6.5429
X6.6858Y-7.2929
X6.7795Y-5.0429
X6.967Y-5.7929
X7.1545Y-4.2929
X7.342Y-6.5429
X7.5295Y-5.0429
X7.717Y-5.7929
X7.9045Y-4.2929
X8.092Y-6.5429
X8.2795Y-5.0429
X8.467Y-5.7929
X8.6545Y-4.2929
X8.842Y-6.5429
X9.0295Y-5.0429
X9.217Y-5.7929
X9.4045Y-4.2929
X9.4045Y-7.2929
X9.592Y-6.5429
X9.7795Y-5.0429
X9.967Y-5.7929
X10.1545Y-4.2929
X10.1545Y-7.2929
X10.342Y-6.5429
X10.5295Y-5.0429
X10.717Y-5.7929
X10.9045Y-4.2929
X10.9045Y-7.2929
X11.2795Y-5.0429
X11.3733Y-6.5429
X11.6545Y-7.2929
X11.9358Y-5.7929
X12.0295Y-4.2929
X12.217Y-5.0429
X12.4045Y-6.5429
X12.4045Y-7.2929
T0
M30
