M48
; DRILL file {KiCad (6.0.5)} date Sun Jun 26 11:07:11 2022
; FORMAT={-:-/ absolute / metric / decimal}
; #@! TF.CreationDate,2022-06-26T11:07:11-04:00
; #@! TF.GenerationSoftware,Kicad,Pcbnew,(6.0.5)
; #@! TF.FileFunction,Plated,1,2,PTH
FMAT,2
METRIC
; #@! TA.AperFunction,Plated,PTH,ViaDrill
T1C0.400
; #@! TA.AperFunction,Plated,PTH,ComponentDrill
T2C0.800
; #@! TA.AperFunction,Plated,PTH,ComponentDrill
T3C0.889
; #@! TA.AperFunction,Plated,PTH,ComponentDrill
T4C0.900
; #@! TA.AperFunction,Plated,PTH,ComponentDrill
T5C1.000
; #@! TA.AperFunction,Plated,PTH,ComponentDrill
T6C1.020
; #@! TA.AperFunction,Plated,PTH,ComponentDrill
T7C1.397
; #@! TA.AperFunction,Plated,PTH,ComponentDrill
T8C2.600
; #@! TA.AperFunction,Plated,PTH,ComponentDrill
T9C2.700
; #@! TA.AperFunction,Plated,PTH,ComponentDrill
T10C3.200
%
G90
G05
T1
X55.585Y-141.065
X55.585Y-154.665
X56.66Y-184.271
X58.2Y-168.05
X58.23Y-191.14
X59.695Y-191.14
X61.16Y-191.14
X68.88Y-185.73
X69.97Y-190.74
X71.31Y-185.73
X71.99Y-190.74
X73.74Y-185.73
X74.01Y-190.74
X76.17Y-185.73
X78.6Y-185.73
X81.03Y-185.73
X81.55Y-171.65
X83.46Y-185.73
X99.25Y-171.85
X102.3Y-171.85
X104.4Y-203.3
X112.45Y-190.58
X115.137Y-190.58
X117.823Y-190.58
X120.0Y-203.3
X120.51Y-190.58
X122.0Y-199.65
X122.0Y-200.9
X123.25Y-172.05
X129.55Y-200.9
X129.6Y-199.65
X130.77Y-188.2
X133.31Y-188.1
X179.944Y-184.106
X184.05Y-153.1
X195.311Y-160.645
X203.173Y-165.0
X205.372Y-165.0
X207.57Y-165.0
X209.768Y-165.0
X211.967Y-165.0
X214.165Y-165.0
X216.363Y-165.0
X218.0Y-154.999
X218.562Y-165.0
X219.15Y-155.723
X220.7Y-156.448
X220.76Y-165.0
X222.3Y-157.2
X222.958Y-165.0
X225.157Y-165.0
X227.355Y-165.0
X229.553Y-165.0
X231.752Y-165.0
X233.0Y-137.15
X233.95Y-165.0
X236.148Y-165.0
X238.347Y-165.0
X240.545Y-165.0
X242.743Y-165.0
X243.7Y-137.15
X247.64Y-205.12
X250.079Y-141.595
X251.474Y-205.12
X252.25Y-137.15
X255.309Y-205.12
X259.143Y-205.12
X262.6Y-137.15
X262.978Y-205.12
X266.812Y-205.12
X269.13Y-141.595
X270.647Y-205.12
X274.481Y-205.12
X278.316Y-205.12
X282.15Y-205.12
X285.985Y-205.12
X288.179Y-141.595
X289.819Y-205.12
X293.654Y-205.12
X297.488Y-205.12
X301.323Y-205.12
X305.157Y-205.12
X307.229Y-141.595
X308.992Y-205.12
X312.826Y-205.12
X316.661Y-205.12
X320.495Y-205.12
X324.33Y-205.12
X328.164Y-205.12
X331.999Y-205.12
X335.833Y-205.12
X339.668Y-205.12
X343.502Y-205.12
X347.337Y-205.12
X351.171Y-205.12
X355.005Y-205.12
X358.84Y-205.12
X367.32Y-91.774
X367.32Y-95.516
X367.32Y-99.258
X367.32Y-103.0
X367.32Y-106.741
X367.32Y-110.483
X367.32Y-114.225
X367.32Y-117.967
X367.32Y-121.709
X367.32Y-125.45
X367.32Y-129.192
X367.32Y-132.934
X367.32Y-136.676
X367.32Y-140.418
X367.32Y-144.159
X367.32Y-147.901
X367.32Y-151.643
X367.32Y-155.385
X367.32Y-159.126
X367.32Y-162.868
X367.32Y-166.61
X367.32Y-170.352
X367.32Y-174.094
X367.32Y-177.835
X367.32Y-181.577
X367.32Y-185.319
X367.32Y-189.061
X367.32Y-192.802
X367.32Y-196.544
T2
X53.35Y-92.07
X53.35Y-102.23
X53.35Y-104.587
X53.35Y-114.747
X53.35Y-117.103
X53.35Y-127.263
X53.35Y-129.62
X53.35Y-139.78
X58.5Y-106.035
X58.5Y-113.655
X58.5Y-125.085
X58.5Y-132.705
X58.5Y-144.135
X58.5Y-151.755
X60.881Y-163.185
X60.881Y-170.805
X64.38Y-99.05
X72.0Y-99.05
X80.03Y-99.1
X80.75Y-144.135
X80.75Y-151.755
X82.312Y-106.035
X82.312Y-113.655
X84.694Y-125.085
X84.694Y-132.705
X84.694Y-163.185
X84.694Y-170.805
X87.65Y-99.1
X96.6Y-86.985
X96.6Y-94.605
X106.125Y-106.035
X106.125Y-113.655
X108.506Y-163.185
X108.506Y-170.805
X110.887Y-125.085
X110.887Y-132.705
X115.65Y-86.985
X115.65Y-94.605
X120.412Y-144.135
X120.412Y-151.755
X125.175Y-106.035
X125.175Y-113.655
X129.938Y-125.085
X129.938Y-132.705
X134.7Y-86.985
X134.7Y-94.605
X139.463Y-144.135
X139.463Y-151.755
X144.225Y-106.035
X144.225Y-113.655
X148.987Y-125.085
X148.987Y-132.705
X153.75Y-86.985
X153.75Y-94.605
X154.944Y-189.185
X154.944Y-196.805
X158.512Y-144.135
X158.512Y-151.755
X163.275Y-106.035
X163.275Y-113.655
X168.037Y-125.085
X168.037Y-132.705
X172.8Y-86.985
X172.8Y-94.605
X177.562Y-144.135
X177.562Y-151.755
X179.944Y-163.185
X179.944Y-170.805
X182.325Y-106.035
X182.325Y-113.655
X187.088Y-125.085
X187.088Y-132.705
X191.85Y-86.985
X191.85Y-94.605
X196.612Y-144.135
X196.612Y-151.755
X199.74Y-203.95
X201.375Y-106.035
X201.375Y-113.655
X204.944Y-189.185
X204.944Y-196.805
X206.137Y-125.085
X206.137Y-132.705
X207.36Y-203.95
X210.9Y-86.985
X210.9Y-94.605
X215.662Y-144.135
X215.662Y-151.755
X220.425Y-106.035
X220.425Y-113.655
X225.188Y-125.085
X225.188Y-132.705
X229.95Y-86.985
X229.95Y-94.605
X234.712Y-144.135
X234.712Y-151.755
X237.25Y-187.22
X237.25Y-197.38
X239.475Y-106.035
X239.475Y-113.655
X244.237Y-125.085
X244.237Y-132.705
X249.0Y-163.185
X249.0Y-170.805
X249.0Y-86.985
X249.0Y-94.605
X253.762Y-144.135
X253.762Y-151.755
X258.525Y-106.035
X258.525Y-113.655
X263.287Y-125.085
X263.287Y-132.705
X268.05Y-86.985
X268.05Y-94.605
X268.05Y-163.185
X268.05Y-170.805
X272.812Y-144.135
X272.812Y-151.755
X277.575Y-106.035
X277.575Y-113.655
X282.337Y-125.085
X282.337Y-132.705
X287.1Y-86.985
X287.1Y-94.605
X287.1Y-163.185
X287.1Y-170.805
X291.863Y-144.135
X291.863Y-151.755
X296.625Y-106.035
X296.625Y-113.655
X301.387Y-125.085
X301.387Y-132.705
X306.15Y-86.985
X306.15Y-94.605
X306.15Y-163.185
X306.15Y-170.805
X315.675Y-106.035
X315.675Y-113.655
X317.3Y-144.135
X317.3Y-151.755
X323.85Y-125.085
X323.85Y-132.705
X325.2Y-163.185
X325.2Y-170.805
X327.15Y-86.99
X327.15Y-94.61
X339.488Y-106.035
X339.488Y-113.655
X344.25Y-163.185
X344.25Y-170.805
T3
X179.309Y-189.185
X179.309Y-191.725
X179.309Y-194.265
X186.929Y-201.885
X189.469Y-201.885
X192.009Y-201.885
T4
X186.294Y-179.025
X186.294Y-184.105
X192.644Y-179.025
X192.644Y-184.105
T5
X60.545Y-87.045
X60.545Y-89.545
X60.545Y-92.045
X75.045Y-87.045
X75.045Y-92.045
X104.45Y-186.695
X104.45Y-189.235
X104.45Y-191.775
X125.689Y-180.225
X128.229Y-180.225
X130.769Y-180.225
X133.309Y-180.225
X241.0Y-189.67
X241.0Y-192.21
X241.0Y-194.75
T6
X51.87Y-180.36
X51.87Y-198.14
X54.41Y-180.36
X54.41Y-198.14
X56.95Y-180.36
X56.95Y-198.14
X59.49Y-180.36
X59.49Y-198.14
X62.03Y-180.36
X62.03Y-198.14
X64.57Y-180.36
X64.57Y-198.14
X67.11Y-180.36
X67.11Y-198.14
X69.65Y-180.36
X69.65Y-198.14
X72.19Y-180.36
X72.19Y-198.14
X74.73Y-180.36
X74.73Y-198.14
X77.27Y-180.36
X77.27Y-198.14
X79.81Y-180.36
X79.81Y-198.14
X82.35Y-180.36
X82.35Y-198.14
X84.89Y-180.36
X84.89Y-198.14
X87.43Y-180.36
X87.43Y-198.14
X89.97Y-180.36
X89.97Y-198.14
X92.51Y-180.36
X92.51Y-198.14
X95.05Y-180.36
X95.05Y-198.14
X97.59Y-180.36
X97.59Y-198.14
X99.9Y-186.71
X99.9Y-189.25
X99.9Y-191.79
X100.13Y-180.36
X100.13Y-198.14
T7
X181.849Y-185.058
X181.849Y-198.392
X197.089Y-185.058
X197.089Y-198.392
T8
X68.045Y-83.945
X68.045Y-95.145
T9
X174.0Y-181.3
X204.95Y-181.3
T10
X55.0Y-85.0
X55.0Y-204.25
X366.8Y-85.0
X366.8Y-204.25
T0
M30
