G04 #@! TF.GenerationSoftware,KiCad,Pcbnew,(6.0.5)*
G04 #@! TF.CreationDate,2022-07-01T23:31:22-04:00*
G04 #@! TF.ProjectId,pico_keyboard_v1,7069636f-5f6b-4657-9962-6f6172645f76,rev?*
G04 #@! TF.SameCoordinates,Original*
G04 #@! TF.FileFunction,Soldermask,Top*
G04 #@! TF.FilePolarity,Negative*
%FSLAX46Y46*%
G04 Gerber Fmt 4.6, Leading zero omitted, Abs format (unit mm)*
G04 Created by KiCad (PCBNEW (6.0.5)) date 2022-07-01 23:31:22*
%MOMM*%
%LPD*%
G01*
G04 APERTURE LIST*
G04 Aperture macros list*
%AMRoundRect*
0 Rectangle with rounded corners*
0 $1 Rounding radius*
0 $2 $3 $4 $5 $6 $7 $8 $9 X,Y pos of 4 corners*
0 Add a 4 corners polygon primitive as box body*
4,1,4,$2,$3,$4,$5,$6,$7,$8,$9,$2,$3,0*
0 Add four circle primitives for the rounded corners*
1,1,$1+$1,$2,$3*
1,1,$1+$1,$4,$5*
1,1,$1+$1,$6,$7*
1,1,$1+$1,$8,$9*
0 Add four rect primitives between the rounded corners*
20,1,$1+$1,$2,$3,$4,$5,0*
20,1,$1+$1,$4,$5,$6,$7,0*
20,1,$1+$1,$6,$7,$8,$9,0*
20,1,$1+$1,$8,$9,$2,$3,0*%
G04 Aperture macros list end*
%ADD10C,3.987800*%
%ADD11C,3.048000*%
%ADD12C,3.050000*%
%ADD13C,1.750000*%
%ADD14C,4.000000*%
%ADD15C,4.500000*%
%ADD16C,5.700000*%
%ADD17RoundRect,0.250000X-0.412500X-0.650000X0.412500X-0.650000X0.412500X0.650000X-0.412500X0.650000X0*%
%ADD18C,1.778000*%
%ADD19C,2.286000*%
%ADD20R,1.700000X1.700000*%
%ADD21O,1.700000X1.700000*%
%ADD22R,2.000000X2.000000*%
%ADD23C,2.000000*%
%ADD24C,3.200000*%
%ADD25R,1.600000X1.600000*%
%ADD26O,1.600000X1.600000*%
%ADD27C,1.600000*%
%ADD28O,1.800000X1.800000*%
%ADD29O,1.500000X1.500000*%
G04 APERTURE END LIST*
D10*
X353806750Y-135850000D03*
D11*
X329930750Y-120640000D03*
X353806750Y-120640000D03*
D10*
X329930750Y-135850000D03*
D12*
X273765000Y-86985000D03*
D13*
X272495000Y-89525000D03*
D14*
X277575000Y-89525000D03*
D13*
X282655000Y-89525000D03*
D12*
X280115000Y-84445000D03*
D15*
X204950000Y-181300000D03*
D13*
X169548750Y-191725000D03*
D14*
X164468750Y-191725000D03*
D13*
X159388750Y-191725000D03*
D12*
X160658750Y-189185000D03*
X167008750Y-186645000D03*
D13*
X263605000Y-89525000D03*
D14*
X258525000Y-89525000D03*
D12*
X254715000Y-86985000D03*
X261065000Y-84445000D03*
D13*
X253445000Y-89525000D03*
X291545000Y-165725000D03*
X301705000Y-165725000D03*
D12*
X299165000Y-160645000D03*
D14*
X296625000Y-165725000D03*
D12*
X292815000Y-163185000D03*
D15*
X174000000Y-181300000D03*
D13*
X148670000Y-108575000D03*
D12*
X156290000Y-103495000D03*
X149940000Y-106035000D03*
D14*
X153750000Y-108575000D03*
D13*
X158830000Y-108575000D03*
X277257500Y-146675000D03*
D12*
X284877500Y-141595000D03*
D13*
X287417500Y-146675000D03*
D14*
X282337500Y-146675000D03*
D12*
X278527500Y-144135000D03*
D14*
X315675000Y-89525000D03*
D12*
X318215000Y-84445000D03*
D13*
X310595000Y-89525000D03*
D12*
X311865000Y-86985000D03*
D13*
X320755000Y-89525000D03*
D14*
X191850000Y-108575000D03*
D13*
X196930000Y-108575000D03*
X186770000Y-108575000D03*
D12*
X194390000Y-103495000D03*
X188040000Y-106035000D03*
D14*
X148987500Y-146675000D03*
D13*
X154067500Y-146675000D03*
D12*
X145177500Y-144135000D03*
D13*
X143907500Y-146675000D03*
D12*
X151527500Y-141595000D03*
D11*
X349044250Y-139690000D03*
D10*
X349044250Y-154900000D03*
X325168250Y-154900000D03*
D11*
X325168250Y-139690000D03*
D12*
X126127500Y-144135000D03*
D13*
X135017500Y-146675000D03*
D12*
X132477500Y-141595000D03*
D13*
X124857500Y-146675000D03*
D14*
X129937500Y-146675000D03*
D13*
X291545000Y-89525000D03*
X301705000Y-89525000D03*
D12*
X292815000Y-86985000D03*
D14*
X296625000Y-89525000D03*
D12*
X299165000Y-84445000D03*
D13*
X343932500Y-108575000D03*
D12*
X345202500Y-106035000D03*
D14*
X349012500Y-108575000D03*
D13*
X354092500Y-108575000D03*
D12*
X351552500Y-103495000D03*
D16*
X55000000Y-85000000D03*
D17*
X79787500Y-193100000D03*
X82912500Y-193100000D03*
D13*
X320755000Y-165725000D03*
D12*
X311865000Y-163185000D03*
D13*
X310595000Y-165725000D03*
D14*
X315675000Y-165725000D03*
D12*
X318215000Y-160645000D03*
D14*
X214468750Y-191725000D03*
D13*
X219548750Y-191725000D03*
X209388750Y-191725000D03*
D12*
X217008750Y-186645000D03*
X210658750Y-189185000D03*
X114221250Y-163185000D03*
D13*
X123111250Y-165725000D03*
X112951250Y-165725000D03*
D14*
X118031250Y-165725000D03*
D12*
X120571250Y-160645000D03*
D13*
X96917500Y-108575000D03*
D12*
X88027500Y-106035000D03*
X94377500Y-103495000D03*
D13*
X86757500Y-108575000D03*
D14*
X91837500Y-108575000D03*
D12*
X227727500Y-141595000D03*
D14*
X225187500Y-146675000D03*
D13*
X220107500Y-146675000D03*
D12*
X221377500Y-144135000D03*
D13*
X230267500Y-146675000D03*
D16*
X55000000Y-204250000D03*
D12*
X288052500Y-125085000D03*
D14*
X291862500Y-127625000D03*
D13*
X296942500Y-127625000D03*
D12*
X294402500Y-122545000D03*
D13*
X286782500Y-127625000D03*
D12*
X90408750Y-125085000D03*
D13*
X89138750Y-127625000D03*
D14*
X94218750Y-127625000D03*
D13*
X99298750Y-127625000D03*
D12*
X96758750Y-122545000D03*
D18*
X186293750Y-179025000D03*
X192643750Y-179025000D03*
X186293750Y-184105000D03*
X192643750Y-184105000D03*
X186928750Y-201885000D03*
X189468750Y-201885000D03*
X192008750Y-201885000D03*
D19*
X181848750Y-185057500D03*
X181848750Y-198392500D03*
X197088750Y-198392500D03*
X197088750Y-185057500D03*
D18*
X179308750Y-189185000D03*
X179308750Y-191725000D03*
X179308750Y-194265000D03*
D13*
X263604999Y-165725000D03*
X253444999Y-165725000D03*
D12*
X261064999Y-160645000D03*
D14*
X258524999Y-165725000D03*
D12*
X254714999Y-163185000D03*
D14*
X206137500Y-146675000D03*
D12*
X202327500Y-144135000D03*
D13*
X201057500Y-146675000D03*
X211217500Y-146675000D03*
D12*
X208677500Y-141595000D03*
D13*
X315992500Y-127625000D03*
X305832500Y-127625000D03*
D14*
X310912500Y-127625000D03*
D12*
X307102500Y-125085000D03*
X313452500Y-122545000D03*
D14*
X244237500Y-146675000D03*
D12*
X246777500Y-141595000D03*
D13*
X239157500Y-146675000D03*
D12*
X240427500Y-144135000D03*
D13*
X249317500Y-146675000D03*
D12*
X245190000Y-106035000D03*
D13*
X243920000Y-108575000D03*
X254080000Y-108575000D03*
D12*
X251540000Y-103495000D03*
D14*
X249000000Y-108575000D03*
D13*
X225505000Y-89525000D03*
D12*
X216615000Y-86985000D03*
D14*
X220425000Y-89525000D03*
D12*
X222965000Y-84445000D03*
D13*
X215345000Y-89525000D03*
X339805000Y-165725000D03*
D14*
X334725000Y-165725000D03*
D12*
X337265000Y-160645000D03*
X330915000Y-163185000D03*
D13*
X329645000Y-165725000D03*
D10*
X139468750Y-173950000D03*
D11*
X239468750Y-158740000D03*
X139468750Y-158740000D03*
D10*
X239468750Y-173950000D03*
D13*
X267732500Y-127625000D03*
D12*
X269002500Y-125085000D03*
D14*
X272812500Y-127625000D03*
D12*
X275352500Y-122545000D03*
D13*
X277892500Y-127625000D03*
D14*
X263287500Y-146675000D03*
D12*
X265827500Y-141595000D03*
D13*
X258207500Y-146675000D03*
D12*
X259477500Y-144135000D03*
D13*
X268367500Y-146675000D03*
X330280000Y-108575000D03*
D12*
X327740000Y-103495000D03*
X321390000Y-106035000D03*
D13*
X320120000Y-108575000D03*
D14*
X325200000Y-108575000D03*
D12*
X192008750Y-160645000D03*
D13*
X184388750Y-165725000D03*
X194548750Y-165725000D03*
D12*
X185658750Y-163185000D03*
D14*
X189468750Y-165725000D03*
D20*
X125688750Y-180225000D03*
D21*
X128228750Y-180225000D03*
X130768750Y-180225000D03*
X133308750Y-180225000D03*
D20*
X104450000Y-191775000D03*
D21*
X104450000Y-189235000D03*
X104450000Y-186695000D03*
D13*
X258842500Y-127625000D03*
X248682500Y-127625000D03*
D12*
X256302500Y-122545000D03*
X249952500Y-125085000D03*
D14*
X253762500Y-127625000D03*
D13*
X62945000Y-108575000D03*
D12*
X64215000Y-106035000D03*
D13*
X73105000Y-108575000D03*
D12*
X70565000Y-103495000D03*
D14*
X68025000Y-108575000D03*
D12*
X207090000Y-106035000D03*
X213440000Y-103495000D03*
D13*
X205820000Y-108575000D03*
D14*
X210900000Y-108575000D03*
D13*
X215980000Y-108575000D03*
X110570000Y-108575000D03*
D14*
X115650000Y-108575000D03*
D12*
X118190000Y-103495000D03*
D13*
X120730000Y-108575000D03*
D12*
X111840000Y-106035000D03*
D14*
X229950000Y-108575000D03*
D12*
X232490000Y-103495000D03*
X226140000Y-106035000D03*
D13*
X224870000Y-108575000D03*
X235030000Y-108575000D03*
D14*
X120412500Y-127625000D03*
D12*
X122952500Y-122545000D03*
D13*
X125492500Y-127625000D03*
X115332500Y-127625000D03*
D12*
X116602500Y-125085000D03*
X338058750Y-125085000D03*
D13*
X346948750Y-127625000D03*
D14*
X341868750Y-127625000D03*
D12*
X344408750Y-122545000D03*
D13*
X336788750Y-127625000D03*
D11*
X356188000Y-82540000D03*
D10*
X356188000Y-97750000D03*
X332312000Y-97750000D03*
D11*
X332312000Y-82540000D03*
D17*
X86837500Y-193100000D03*
X89962500Y-193100000D03*
D13*
X272495000Y-165725000D03*
D12*
X273765000Y-163185000D03*
D14*
X277575000Y-165725000D03*
D12*
X280115000Y-160645000D03*
D13*
X282655000Y-165725000D03*
D12*
X218202500Y-122545000D03*
X211852500Y-125085000D03*
D13*
X220742500Y-127625000D03*
D14*
X215662500Y-127625000D03*
D13*
X210582500Y-127625000D03*
D10*
X87043250Y-154900000D03*
D11*
X87043250Y-139690000D03*
D10*
X110919250Y-154900000D03*
D11*
X110919250Y-139690000D03*
D13*
X177880000Y-108575000D03*
D12*
X175340000Y-103495000D03*
X168990000Y-106035000D03*
D14*
X172800000Y-108575000D03*
D13*
X167720000Y-108575000D03*
D16*
X366800000Y-204250000D03*
D13*
X187405000Y-89525000D03*
D12*
X184865000Y-84445000D03*
D13*
X177245000Y-89525000D03*
D14*
X182325000Y-89525000D03*
D12*
X178515000Y-86985000D03*
X349965000Y-163185000D03*
D14*
X353775000Y-165725000D03*
D13*
X348695000Y-165725000D03*
D12*
X356315000Y-160645000D03*
D13*
X358855000Y-165725000D03*
D12*
X308690000Y-103495000D03*
D14*
X306150000Y-108575000D03*
D12*
X302340000Y-106035000D03*
D13*
X301070000Y-108575000D03*
X311230000Y-108575000D03*
X282020000Y-108575000D03*
D12*
X289640000Y-103495000D03*
D14*
X287100000Y-108575000D03*
D13*
X292180000Y-108575000D03*
D12*
X283290000Y-106035000D03*
X164227500Y-144135000D03*
D14*
X168037500Y-146675000D03*
D12*
X170577500Y-141595000D03*
D13*
X162957500Y-146675000D03*
X173117500Y-146675000D03*
X262970000Y-108575000D03*
X273130000Y-108575000D03*
D12*
X270590000Y-103495000D03*
D14*
X268050000Y-108575000D03*
D12*
X264240000Y-106035000D03*
X95171250Y-144135000D03*
D13*
X104061250Y-146675000D03*
D14*
X98981250Y-146675000D03*
D12*
X101521250Y-141595000D03*
D13*
X93901250Y-146675000D03*
D12*
X127715000Y-84445000D03*
D13*
X130255000Y-89525000D03*
X120095000Y-89525000D03*
D14*
X125175000Y-89525000D03*
D12*
X121365000Y-86985000D03*
D14*
X177562500Y-127625000D03*
D12*
X180102500Y-122545000D03*
X173752500Y-125085000D03*
D13*
X172482500Y-127625000D03*
X182642500Y-127625000D03*
D12*
X199152500Y-122545000D03*
D13*
X191532500Y-127625000D03*
D14*
X196612500Y-127625000D03*
D13*
X201692500Y-127625000D03*
D12*
X192802500Y-125085000D03*
X64215000Y-144135000D03*
X70565000Y-141595000D03*
D14*
X68025000Y-146675000D03*
D13*
X73105000Y-146675000D03*
X62945000Y-146675000D03*
D14*
X134700000Y-108575000D03*
D12*
X130890000Y-106035000D03*
X137240000Y-103495000D03*
D13*
X129620000Y-108575000D03*
X139780000Y-108575000D03*
X182007500Y-146675000D03*
D12*
X183277500Y-144135000D03*
X189627500Y-141595000D03*
D14*
X187087500Y-146675000D03*
D13*
X192167500Y-146675000D03*
D12*
X161052500Y-122545000D03*
D13*
X163592500Y-127625000D03*
D12*
X154702500Y-125085000D03*
D13*
X153432500Y-127625000D03*
D14*
X158512500Y-127625000D03*
X163275000Y-89525000D03*
D12*
X165815000Y-84445000D03*
D13*
X168355000Y-89525000D03*
D12*
X159465000Y-86985000D03*
D13*
X158195000Y-89525000D03*
X89138750Y-165725000D03*
D14*
X94218750Y-165725000D03*
D13*
X99298750Y-165725000D03*
D12*
X90408750Y-163185000D03*
X96758750Y-160645000D03*
D22*
X60545000Y-87045000D03*
D23*
X60545000Y-92045000D03*
X60545000Y-89545000D03*
D24*
X68045000Y-83945000D03*
X68045000Y-95145000D03*
D23*
X75045000Y-92045000D03*
X75045000Y-87045000D03*
D14*
X234712500Y-127625000D03*
D13*
X239792500Y-127625000D03*
D12*
X230902500Y-125085000D03*
X237252500Y-122545000D03*
D13*
X229632500Y-127625000D03*
D12*
X346790000Y-84445000D03*
X340440000Y-86985000D03*
D13*
X339170000Y-89525000D03*
X349330000Y-89525000D03*
D14*
X344250000Y-89525000D03*
D13*
X296307500Y-146675000D03*
X306467500Y-146675000D03*
D12*
X303927500Y-141595000D03*
X297577500Y-144135000D03*
D14*
X301387500Y-146675000D03*
D16*
X366800000Y-85000000D03*
D13*
X62945000Y-127625000D03*
X73105000Y-127625000D03*
D12*
X70565000Y-122545000D03*
X64215000Y-125085000D03*
D14*
X68025000Y-127625000D03*
D12*
X235665000Y-86985000D03*
X242015000Y-84445000D03*
D13*
X244555000Y-89525000D03*
X234395000Y-89525000D03*
D14*
X239475000Y-89525000D03*
D12*
X146765000Y-84445000D03*
D13*
X149305000Y-89525000D03*
D12*
X140415000Y-86985000D03*
D13*
X139145000Y-89525000D03*
D14*
X144225000Y-89525000D03*
D13*
X342186250Y-146675000D03*
X332026250Y-146675000D03*
D14*
X337106250Y-146675000D03*
D12*
X339646250Y-141595000D03*
X333296250Y-144135000D03*
X203915000Y-84445000D03*
D14*
X201375000Y-89525000D03*
D13*
X196295000Y-89525000D03*
X206455000Y-89525000D03*
D12*
X197565000Y-86985000D03*
D13*
X111205000Y-89525000D03*
D14*
X106125000Y-89525000D03*
D12*
X108665000Y-84445000D03*
X102315000Y-86985000D03*
D13*
X101045000Y-89525000D03*
D12*
X83265000Y-86985000D03*
D14*
X87075000Y-89525000D03*
D13*
X81995000Y-89525000D03*
X92155000Y-89525000D03*
D12*
X89615000Y-84445000D03*
X142002500Y-122545000D03*
D13*
X134382500Y-127625000D03*
D14*
X139462500Y-127625000D03*
D12*
X135652500Y-125085000D03*
D13*
X144542500Y-127625000D03*
D14*
X70406250Y-165725000D03*
D13*
X75486250Y-165725000D03*
X65326250Y-165725000D03*
D12*
X66596250Y-163185000D03*
X72946250Y-160645000D03*
D25*
X84693750Y-132705000D03*
D26*
X84693750Y-125085000D03*
D25*
X272812500Y-151755000D03*
D26*
X272812500Y-144135000D03*
D25*
X58500000Y-132705000D03*
D26*
X58500000Y-125085000D03*
D25*
X225187500Y-132705000D03*
D26*
X225187500Y-125085000D03*
D25*
X215662500Y-151755000D03*
D26*
X215662500Y-144135000D03*
D25*
X177562500Y-151755000D03*
D26*
X177562500Y-144135000D03*
D25*
X268050000Y-94605000D03*
D26*
X268050000Y-86985000D03*
D25*
X339487500Y-113655000D03*
D26*
X339487500Y-106035000D03*
D25*
X172800000Y-94605000D03*
D26*
X172800000Y-86985000D03*
D25*
X168037500Y-132705000D03*
D26*
X168037500Y-125085000D03*
D25*
X58500000Y-151755000D03*
D26*
X58500000Y-144135000D03*
D25*
X306150000Y-94605000D03*
D26*
X306150000Y-86985000D03*
D25*
X287100000Y-170805000D03*
D26*
X287100000Y-163185000D03*
D25*
X296625000Y-113655000D03*
D26*
X296625000Y-106035000D03*
D25*
X134700000Y-94605000D03*
D26*
X134700000Y-86985000D03*
D25*
X201375000Y-113655000D03*
D26*
X201375000Y-106035000D03*
D25*
X277575000Y-113655000D03*
D26*
X277575000Y-106035000D03*
D25*
X258525000Y-113655000D03*
D26*
X258525000Y-106035000D03*
D25*
X158512500Y-151755000D03*
D26*
X158512500Y-144135000D03*
D27*
X54090000Y-92100000D03*
D26*
X54090000Y-102260000D03*
D27*
X237250000Y-197380000D03*
D26*
X237250000Y-187220000D03*
D25*
X163275000Y-113655000D03*
D26*
X163275000Y-106035000D03*
D25*
X220425000Y-113655000D03*
D26*
X220425000Y-106035000D03*
D25*
X120412500Y-151755000D03*
D26*
X120412500Y-144135000D03*
D27*
X54090000Y-143770000D03*
D26*
X54090000Y-133610000D03*
D25*
X282337500Y-132705000D03*
D26*
X282337500Y-125085000D03*
D25*
X248999999Y-170805000D03*
D26*
X248999999Y-163185000D03*
D25*
X204943750Y-196805000D03*
D26*
X204943750Y-189185000D03*
D20*
X241000000Y-189670000D03*
D21*
X241000000Y-192210000D03*
X241000000Y-194750000D03*
D25*
X229950000Y-94605000D03*
D26*
X229950000Y-86985000D03*
D25*
X287100000Y-94605000D03*
D26*
X287100000Y-86985000D03*
D25*
X187087500Y-132705000D03*
D26*
X187087500Y-125085000D03*
D25*
X153750000Y-94605000D03*
D26*
X153750000Y-86985000D03*
D27*
X54090000Y-119773332D03*
D26*
X54090000Y-129933332D03*
D25*
X96600000Y-94605000D03*
D26*
X96600000Y-86985000D03*
D25*
X301387500Y-132705000D03*
D26*
X301387500Y-125085000D03*
D25*
X206137500Y-132705000D03*
D26*
X206137500Y-125085000D03*
D25*
X58500000Y-113655000D03*
D26*
X58500000Y-106035000D03*
D25*
X317300000Y-151755000D03*
D26*
X317300000Y-144135000D03*
D25*
X106125000Y-113655000D03*
D26*
X106125000Y-106035000D03*
D25*
X249000000Y-94605000D03*
D26*
X249000000Y-86985000D03*
D25*
X72000000Y-99050000D03*
D26*
X64380000Y-99050000D03*
D25*
X327150000Y-94610000D03*
D26*
X327150000Y-86990000D03*
D25*
X179943750Y-170805000D03*
D26*
X179943750Y-163185000D03*
D25*
X234712500Y-151755000D03*
D26*
X234712500Y-144135000D03*
D25*
X325200000Y-170805000D03*
D26*
X325200000Y-163185000D03*
D25*
X196612500Y-151755000D03*
D26*
X196612500Y-144135000D03*
D25*
X315675000Y-113655000D03*
D26*
X315675000Y-106035000D03*
D25*
X191850000Y-94605000D03*
D26*
X191850000Y-86985000D03*
D25*
X139462500Y-151755000D03*
D26*
X139462500Y-144135000D03*
D25*
X344250000Y-170805000D03*
D26*
X344250000Y-163185000D03*
D25*
X115649999Y-94605000D03*
D26*
X115649999Y-86985000D03*
D25*
X108506250Y-170805000D03*
D26*
X108506250Y-163185000D03*
D25*
X207360000Y-203950000D03*
D26*
X199740000Y-203950000D03*
D25*
X80750000Y-151755000D03*
D26*
X80750000Y-144135000D03*
D25*
X268050000Y-170805000D03*
D26*
X268050000Y-163185000D03*
D25*
X154943750Y-196805000D03*
D26*
X154943750Y-189185000D03*
D28*
X52000000Y-191975000D03*
X52000000Y-186525000D03*
D29*
X55030000Y-186825000D03*
X55030000Y-191675000D03*
D21*
X51870000Y-180360000D03*
X54410000Y-180360000D03*
D20*
X56950000Y-180360000D03*
D21*
X59490000Y-180360000D03*
X62030000Y-180360000D03*
X64570000Y-180360000D03*
X67110000Y-180360000D03*
D20*
X69650000Y-180360000D03*
D21*
X72190000Y-180360000D03*
X74730000Y-180360000D03*
X77270000Y-180360000D03*
X79810000Y-180360000D03*
D20*
X82350000Y-180360000D03*
D21*
X84890000Y-180360000D03*
X87430000Y-180360000D03*
X89970000Y-180360000D03*
X92510000Y-180360000D03*
D20*
X95050000Y-180360000D03*
D21*
X97590000Y-180360000D03*
X100130000Y-180360000D03*
X100130000Y-198140000D03*
X97590000Y-198140000D03*
D20*
X95050000Y-198140000D03*
D21*
X92510000Y-198140000D03*
X89970000Y-198140000D03*
X87430000Y-198140000D03*
X84890000Y-198140000D03*
D20*
X82350000Y-198140000D03*
D21*
X79810000Y-198140000D03*
X77270000Y-198140000D03*
X74730000Y-198140000D03*
X72190000Y-198140000D03*
D20*
X69650000Y-198140000D03*
D21*
X67110000Y-198140000D03*
X64570000Y-198140000D03*
X62030000Y-198140000D03*
X59490000Y-198140000D03*
D20*
X56950000Y-198140000D03*
D21*
X54410000Y-198140000D03*
X51870000Y-198140000D03*
X99900000Y-186710000D03*
D20*
X99900000Y-189250000D03*
D21*
X99900000Y-191790000D03*
D25*
X244237500Y-132705000D03*
D26*
X244237500Y-125085000D03*
D27*
X54090000Y-105936666D03*
D26*
X54090000Y-116096666D03*
D25*
X87650000Y-99100000D03*
D26*
X80030000Y-99100000D03*
D25*
X182325000Y-113655000D03*
D26*
X182325000Y-106035000D03*
D25*
X291862500Y-151755000D03*
D26*
X291862500Y-144135000D03*
D25*
X253762500Y-151755000D03*
D26*
X253762500Y-144135000D03*
D25*
X239475000Y-113655000D03*
D26*
X239475000Y-106035000D03*
D25*
X129937500Y-132705000D03*
D26*
X129937500Y-125085000D03*
D25*
X306150000Y-170805000D03*
D26*
X306150000Y-163185000D03*
D25*
X82312500Y-113655000D03*
D26*
X82312500Y-106035000D03*
D25*
X125175000Y-113655000D03*
D26*
X125175000Y-106035000D03*
D25*
X323850000Y-132705000D03*
D26*
X323850000Y-125085000D03*
D25*
X263287500Y-132705000D03*
D26*
X263287500Y-125085000D03*
D25*
X60881250Y-170805000D03*
D26*
X60881250Y-163185000D03*
D25*
X110887499Y-132705000D03*
D26*
X110887499Y-125085000D03*
D25*
X144225000Y-113655000D03*
D26*
X144225000Y-106035000D03*
D25*
X84693750Y-170805000D03*
D26*
X84693750Y-163185000D03*
D25*
X148987500Y-132705000D03*
D26*
X148987500Y-125085000D03*
D25*
X210900000Y-94605000D03*
D26*
X210900000Y-86985000D03*
M02*
