%FSLAX45Y45*%
G04 Gerber Fmt 4.5, Leading zero omitted, Abs format (unit mm)*
G04 Created by KiCad (PCBNEW (6.0.5)) date 2022-07-01 23:31:45*
%MOMM*%
%LPD*%
G01*
G04 APERTURE LIST*
%TA.AperFunction,Profile*%
%ADD10C,0.100000*%
%TD*%
%ADD11C,0.200000*%
%ADD12C,0.150000*%
%ADD13C,0.175000*%
%ADD14C,0.180000*%
%ADD15C,0.304800*%
%ADD16C,0.305000*%
%ADD17C,0.398780*%
%ADD18C,0.400000*%
G04 APERTURE END LIST*
D10*
X5500000Y-8000000D02*
G75*
G03*
X5000000Y-8500000I0J-500000D01*
G01*
X5500000Y-20925000D02*
X36680000Y-20925000D01*
X36680000Y-20925000D02*
G75*
G03*
X37180000Y-20425000I0J500000D01*
G01*
X37180000Y-8500000D02*
G75*
G03*
X36680000Y-8000000I-500000J0D01*
G01*
X5000000Y-8500000D02*
X5000000Y-20425000D01*
X5000000Y-20425000D02*
G75*
G03*
X5500000Y-20925000I500000J0D01*
G01*
X5500000Y-8000000D02*
X36680000Y-8000000D01*
X37180000Y-8500000D02*
X37180000Y-20425000D01*
D11*
D12*
X5428000Y-18607500D02*
X5578000Y-18757500D01*
X5578000Y-18607500D02*
X5428000Y-18757500D01*
X5428000Y-19092500D02*
X5578000Y-19242500D01*
X5578000Y-19092500D02*
X5428000Y-19242500D01*
D13*
X6382000Y-10857500D02*
G75*
G03*
X6382000Y-10857500I-87500J0D01*
G01*
X6382000Y-12762500D02*
G75*
G03*
X6382000Y-12762500I-87500J0D01*
G01*
X6382000Y-14667500D02*
G75*
G03*
X6382000Y-14667500I-87500J0D01*
G01*
X6620125Y-16572500D02*
G75*
G03*
X6620125Y-16572500I-87500J0D01*
G01*
X7398000Y-10857500D02*
G75*
G03*
X7398000Y-10857500I-87500J0D01*
G01*
X7398000Y-12762500D02*
G75*
G03*
X7398000Y-12762500I-87500J0D01*
G01*
X7398000Y-14667500D02*
G75*
G03*
X7398000Y-14667500I-87500J0D01*
G01*
X7636125Y-16572500D02*
G75*
G03*
X7636125Y-16572500I-87500J0D01*
G01*
X8287000Y-8952500D02*
G75*
G03*
X8287000Y-8952500I-87500J0D01*
G01*
X8763250Y-10857500D02*
G75*
G03*
X8763250Y-10857500I-87500J0D01*
G01*
X9001375Y-12762500D02*
G75*
G03*
X9001375Y-12762500I-87500J0D01*
G01*
X9001375Y-16572500D02*
G75*
G03*
X9001375Y-16572500I-87500J0D01*
G01*
X9303000Y-8952500D02*
G75*
G03*
X9303000Y-8952500I-87500J0D01*
G01*
X9477625Y-14667500D02*
G75*
G03*
X9477625Y-14667500I-87500J0D01*
G01*
X9779250Y-10857500D02*
G75*
G03*
X9779250Y-10857500I-87500J0D01*
G01*
X10017375Y-12762500D02*
G75*
G03*
X10017375Y-12762500I-87500J0D01*
G01*
X10017375Y-16572500D02*
G75*
G03*
X10017375Y-16572500I-87500J0D01*
G01*
X10192000Y-8952500D02*
G75*
G03*
X10192000Y-8952500I-87500J0D01*
G01*
X10493625Y-14667500D02*
G75*
G03*
X10493625Y-14667500I-87500J0D01*
G01*
X11144500Y-10857500D02*
G75*
G03*
X11144500Y-10857500I-87500J0D01*
G01*
X11208000Y-8952500D02*
G75*
G03*
X11208000Y-8952500I-87500J0D01*
G01*
X11382625Y-16572500D02*
G75*
G03*
X11382625Y-16572500I-87500J0D01*
G01*
X11620750Y-12762500D02*
G75*
G03*
X11620750Y-12762500I-87500J0D01*
G01*
X12097000Y-8952500D02*
G75*
G03*
X12097000Y-8952500I-87500J0D01*
G01*
X12160500Y-10857500D02*
G75*
G03*
X12160500Y-10857500I-87500J0D01*
G01*
X12398625Y-16572500D02*
G75*
G03*
X12398625Y-16572500I-87500J0D01*
G01*
X12573250Y-14667500D02*
G75*
G03*
X12573250Y-14667500I-87500J0D01*
G01*
X12636750Y-12762500D02*
G75*
G03*
X12636750Y-12762500I-87500J0D01*
G01*
X13049500Y-10857500D02*
G75*
G03*
X13049500Y-10857500I-87500J0D01*
G01*
X13113000Y-8952500D02*
G75*
G03*
X13113000Y-8952500I-87500J0D01*
G01*
X13525750Y-12762500D02*
G75*
G03*
X13525750Y-12762500I-87500J0D01*
G01*
X13589250Y-14667500D02*
G75*
G03*
X13589250Y-14667500I-87500J0D01*
G01*
X14002000Y-8952500D02*
G75*
G03*
X14002000Y-8952500I-87500J0D01*
G01*
X14065500Y-10857500D02*
G75*
G03*
X14065500Y-10857500I-87500J0D01*
G01*
X14478250Y-14667500D02*
G75*
G03*
X14478250Y-14667500I-87500J0D01*
G01*
X14541750Y-12762500D02*
G75*
G03*
X14541750Y-12762500I-87500J0D01*
G01*
X14954500Y-10857500D02*
G75*
G03*
X14954500Y-10857500I-87500J0D01*
G01*
X15018000Y-8952500D02*
G75*
G03*
X15018000Y-8952500I-87500J0D01*
G01*
X15430750Y-12762500D02*
G75*
G03*
X15430750Y-12762500I-87500J0D01*
G01*
X15494250Y-14667500D02*
G75*
G03*
X15494250Y-14667500I-87500J0D01*
G01*
X15907000Y-8952500D02*
G75*
G03*
X15907000Y-8952500I-87500J0D01*
G01*
X15970500Y-10857500D02*
G75*
G03*
X15970500Y-10857500I-87500J0D01*
G01*
X16026375Y-19172500D02*
G75*
G03*
X16026375Y-19172500I-87500J0D01*
G01*
X16383250Y-14667500D02*
G75*
G03*
X16383250Y-14667500I-87500J0D01*
G01*
X16446750Y-12762500D02*
G75*
G03*
X16446750Y-12762500I-87500J0D01*
G01*
X16859500Y-10857500D02*
G75*
G03*
X16859500Y-10857500I-87500J0D01*
G01*
X16923000Y-8952500D02*
G75*
G03*
X16923000Y-8952500I-87500J0D01*
G01*
X17042375Y-19172500D02*
G75*
G03*
X17042375Y-19172500I-87500J0D01*
G01*
X17335750Y-12762500D02*
G75*
G03*
X17335750Y-12762500I-87500J0D01*
G01*
X17399250Y-14667500D02*
G75*
G03*
X17399250Y-14667500I-87500J0D01*
G01*
X17812000Y-8952500D02*
G75*
G03*
X17812000Y-8952500I-87500J0D01*
G01*
X17875500Y-10857500D02*
G75*
G03*
X17875500Y-10857500I-87500J0D01*
G01*
X18288250Y-14667500D02*
G75*
G03*
X18288250Y-14667500I-87500J0D01*
G01*
X18351750Y-12762500D02*
G75*
G03*
X18351750Y-12762500I-87500J0D01*
G01*
X18526375Y-16572500D02*
G75*
G03*
X18526375Y-16572500I-87500J0D01*
G01*
X18764500Y-10857500D02*
G75*
G03*
X18764500Y-10857500I-87500J0D01*
G01*
X18828000Y-8952500D02*
G75*
G03*
X18828000Y-8952500I-87500J0D01*
G01*
X19240750Y-12762500D02*
G75*
G03*
X19240750Y-12762500I-87500J0D01*
G01*
X19304250Y-14667500D02*
G75*
G03*
X19304250Y-14667500I-87500J0D01*
G01*
X19542375Y-16572500D02*
G75*
G03*
X19542375Y-16572500I-87500J0D01*
G01*
X19717000Y-8952500D02*
G75*
G03*
X19717000Y-8952500I-87500J0D01*
G01*
X19780500Y-10857500D02*
G75*
G03*
X19780500Y-10857500I-87500J0D01*
G01*
X20193250Y-14667500D02*
G75*
G03*
X20193250Y-14667500I-87500J0D01*
G01*
X20256750Y-12762500D02*
G75*
G03*
X20256750Y-12762500I-87500J0D01*
G01*
X20669500Y-10857500D02*
G75*
G03*
X20669500Y-10857500I-87500J0D01*
G01*
X20733000Y-8952500D02*
G75*
G03*
X20733000Y-8952500I-87500J0D01*
G01*
X21026375Y-19172500D02*
G75*
G03*
X21026375Y-19172500I-87500J0D01*
G01*
X21145750Y-12762500D02*
G75*
G03*
X21145750Y-12762500I-87500J0D01*
G01*
X21209250Y-14667500D02*
G75*
G03*
X21209250Y-14667500I-87500J0D01*
G01*
X21622000Y-8952500D02*
G75*
G03*
X21622000Y-8952500I-87500J0D01*
G01*
X21685500Y-10857500D02*
G75*
G03*
X21685500Y-10857500I-87500J0D01*
G01*
X22042375Y-19172500D02*
G75*
G03*
X22042375Y-19172500I-87500J0D01*
G01*
X22098250Y-14667500D02*
G75*
G03*
X22098250Y-14667500I-87500J0D01*
G01*
X22161750Y-12762500D02*
G75*
G03*
X22161750Y-12762500I-87500J0D01*
G01*
X22574500Y-10857500D02*
G75*
G03*
X22574500Y-10857500I-87500J0D01*
G01*
X22638000Y-8952500D02*
G75*
G03*
X22638000Y-8952500I-87500J0D01*
G01*
X23050750Y-12762500D02*
G75*
G03*
X23050750Y-12762500I-87500J0D01*
G01*
X23114250Y-14667500D02*
G75*
G03*
X23114250Y-14667500I-87500J0D01*
G01*
X23527000Y-8952500D02*
G75*
G03*
X23527000Y-8952500I-87500J0D01*
G01*
X23590500Y-10857500D02*
G75*
G03*
X23590500Y-10857500I-87500J0D01*
G01*
X24003250Y-14667500D02*
G75*
G03*
X24003250Y-14667500I-87500J0D01*
G01*
X24066750Y-12762500D02*
G75*
G03*
X24066750Y-12762500I-87500J0D01*
G01*
X24479500Y-10857500D02*
G75*
G03*
X24479500Y-10857500I-87500J0D01*
G01*
X24543000Y-8952500D02*
G75*
G03*
X24543000Y-8952500I-87500J0D01*
G01*
X24955750Y-12762500D02*
G75*
G03*
X24955750Y-12762500I-87500J0D01*
G01*
X25019250Y-14667500D02*
G75*
G03*
X25019250Y-14667500I-87500J0D01*
G01*
X25432000Y-16572500D02*
G75*
G03*
X25432000Y-16572500I-87500J0D01*
G01*
X25432000Y-8952500D02*
G75*
G03*
X25432000Y-8952500I-87500J0D01*
G01*
X25495500Y-10857500D02*
G75*
G03*
X25495500Y-10857500I-87500J0D01*
G01*
X25908250Y-14667500D02*
G75*
G03*
X25908250Y-14667500I-87500J0D01*
G01*
X25971750Y-12762500D02*
G75*
G03*
X25971750Y-12762500I-87500J0D01*
G01*
X26384500Y-10857500D02*
G75*
G03*
X26384500Y-10857500I-87500J0D01*
G01*
X26448000Y-16572500D02*
G75*
G03*
X26448000Y-16572500I-87500J0D01*
G01*
X26448000Y-8952500D02*
G75*
G03*
X26448000Y-8952500I-87500J0D01*
G01*
X26860750Y-12762500D02*
G75*
G03*
X26860750Y-12762500I-87500J0D01*
G01*
X26924250Y-14667500D02*
G75*
G03*
X26924250Y-14667500I-87500J0D01*
G01*
X27337000Y-8952500D02*
G75*
G03*
X27337000Y-8952500I-87500J0D01*
G01*
X27337000Y-16572500D02*
G75*
G03*
X27337000Y-16572500I-87500J0D01*
G01*
X27400500Y-10857500D02*
G75*
G03*
X27400500Y-10857500I-87500J0D01*
G01*
X27813250Y-14667500D02*
G75*
G03*
X27813250Y-14667500I-87500J0D01*
G01*
X27876750Y-12762500D02*
G75*
G03*
X27876750Y-12762500I-87500J0D01*
G01*
X28289500Y-10857500D02*
G75*
G03*
X28289500Y-10857500I-87500J0D01*
G01*
X28353000Y-8952500D02*
G75*
G03*
X28353000Y-8952500I-87500J0D01*
G01*
X28353000Y-16572500D02*
G75*
G03*
X28353000Y-16572500I-87500J0D01*
G01*
X28765750Y-12762500D02*
G75*
G03*
X28765750Y-12762500I-87500J0D01*
G01*
X28829250Y-14667500D02*
G75*
G03*
X28829250Y-14667500I-87500J0D01*
G01*
X29242000Y-8952500D02*
G75*
G03*
X29242000Y-8952500I-87500J0D01*
G01*
X29242000Y-16572500D02*
G75*
G03*
X29242000Y-16572500I-87500J0D01*
G01*
X29305500Y-10857500D02*
G75*
G03*
X29305500Y-10857500I-87500J0D01*
G01*
X29718250Y-14667500D02*
G75*
G03*
X29718250Y-14667500I-87500J0D01*
G01*
X29781750Y-12762500D02*
G75*
G03*
X29781750Y-12762500I-87500J0D01*
G01*
X30194500Y-10857500D02*
G75*
G03*
X30194500Y-10857500I-87500J0D01*
G01*
X30258000Y-8952500D02*
G75*
G03*
X30258000Y-8952500I-87500J0D01*
G01*
X30258000Y-16572500D02*
G75*
G03*
X30258000Y-16572500I-87500J0D01*
G01*
X30670750Y-12762500D02*
G75*
G03*
X30670750Y-12762500I-87500J0D01*
G01*
X30734250Y-14667500D02*
G75*
G03*
X30734250Y-14667500I-87500J0D01*
G01*
X31147000Y-8952500D02*
G75*
G03*
X31147000Y-8952500I-87500J0D01*
G01*
X31147000Y-16572500D02*
G75*
G03*
X31147000Y-16572500I-87500J0D01*
G01*
X31210500Y-10857500D02*
G75*
G03*
X31210500Y-10857500I-87500J0D01*
G01*
X31686750Y-12762500D02*
G75*
G03*
X31686750Y-12762500I-87500J0D01*
G01*
X32099500Y-10857500D02*
G75*
G03*
X32099500Y-10857500I-87500J0D01*
G01*
X32163000Y-8952500D02*
G75*
G03*
X32163000Y-8952500I-87500J0D01*
G01*
X32163000Y-16572500D02*
G75*
G03*
X32163000Y-16572500I-87500J0D01*
G01*
X33052000Y-16572500D02*
G75*
G03*
X33052000Y-16572500I-87500J0D01*
G01*
X33115500Y-10857500D02*
G75*
G03*
X33115500Y-10857500I-87500J0D01*
G01*
X33290125Y-14667500D02*
G75*
G03*
X33290125Y-14667500I-87500J0D01*
G01*
X33766375Y-12762500D02*
G75*
G03*
X33766375Y-12762500I-87500J0D01*
G01*
X34004500Y-8952500D02*
G75*
G03*
X34004500Y-8952500I-87500J0D01*
G01*
X34068000Y-16572500D02*
G75*
G03*
X34068000Y-16572500I-87500J0D01*
G01*
X34306125Y-14667500D02*
G75*
G03*
X34306125Y-14667500I-87500J0D01*
G01*
X34480750Y-10857500D02*
G75*
G03*
X34480750Y-10857500I-87500J0D01*
G01*
X34782375Y-12762500D02*
G75*
G03*
X34782375Y-12762500I-87500J0D01*
G01*
X34957000Y-16572500D02*
G75*
G03*
X34957000Y-16572500I-87500J0D01*
G01*
X35020500Y-8952500D02*
G75*
G03*
X35020500Y-8952500I-87500J0D01*
G01*
X35496750Y-10857500D02*
G75*
G03*
X35496750Y-10857500I-87500J0D01*
G01*
X35973000Y-16572500D02*
G75*
G03*
X35973000Y-16572500I-87500J0D01*
G01*
D14*
X5200000Y-18562500D02*
X5200000Y-18742500D01*
X5110000Y-18652500D02*
X5290000Y-18652500D01*
X5200000Y-19107500D02*
X5200000Y-19287500D01*
X5110000Y-19197500D02*
X5290000Y-19197500D01*
D15*
X8812089Y-14076764D02*
X8812089Y-13861236D01*
X8596561Y-13861236D01*
X8596561Y-14076764D01*
X8812089Y-14076764D01*
X11199689Y-14076764D02*
X11199689Y-13861236D01*
X10984161Y-13861236D01*
X10984161Y-14076764D01*
X11199689Y-14076764D01*
X14054639Y-15981764D02*
X14054639Y-15766236D01*
X13839111Y-15766236D01*
X13839111Y-15981764D01*
X14054639Y-15981764D01*
X24054639Y-15981764D02*
X24054639Y-15766236D01*
X23839111Y-15766236D01*
X23839111Y-15981764D01*
X24054639Y-15981764D01*
X32624589Y-14076764D02*
X32624589Y-13861236D01*
X32409061Y-13861236D01*
X32409061Y-14076764D01*
X32624589Y-14076764D01*
X33100839Y-12171764D02*
X33100839Y-11956236D01*
X32885311Y-11956236D01*
X32885311Y-12171764D01*
X33100839Y-12171764D01*
X33338964Y-8361764D02*
X33338964Y-8146236D01*
X33123436Y-8146236D01*
X33123436Y-8361764D01*
X33338964Y-8361764D01*
X35012189Y-14076764D02*
X35012189Y-13861236D01*
X34796661Y-13861236D01*
X34796661Y-14076764D01*
X35012189Y-14076764D01*
X35488439Y-12171764D02*
X35488439Y-11956236D01*
X35272911Y-11956236D01*
X35272911Y-12171764D01*
X35488439Y-12171764D01*
X35726564Y-8361764D02*
X35726564Y-8146236D01*
X35511036Y-8146236D01*
X35511036Y-8361764D01*
X35726564Y-8361764D01*
D16*
X6421500Y-10756000D02*
X6574000Y-10603500D01*
X6421500Y-10451000D01*
X6269000Y-10603500D01*
X6421500Y-10756000D01*
X6421500Y-12661000D02*
X6574000Y-12508500D01*
X6421500Y-12356000D01*
X6269000Y-12508500D01*
X6421500Y-12661000D01*
X6421500Y-14566000D02*
X6574000Y-14413500D01*
X6421500Y-14261000D01*
X6269000Y-14413500D01*
X6421500Y-14566000D01*
X6659625Y-16471000D02*
X6812125Y-16318500D01*
X6659625Y-16166000D01*
X6507125Y-16318500D01*
X6659625Y-16471000D01*
X7056500Y-10502000D02*
X7209000Y-10349500D01*
X7056500Y-10197000D01*
X6904000Y-10349500D01*
X7056500Y-10502000D01*
X7056500Y-12407000D02*
X7209000Y-12254500D01*
X7056500Y-12102000D01*
X6904000Y-12254500D01*
X7056500Y-12407000D01*
X7056500Y-14312000D02*
X7209000Y-14159500D01*
X7056500Y-14007000D01*
X6904000Y-14159500D01*
X7056500Y-14312000D01*
X7294625Y-16217000D02*
X7447125Y-16064500D01*
X7294625Y-15912000D01*
X7142125Y-16064500D01*
X7294625Y-16217000D01*
X8326500Y-8851000D02*
X8479000Y-8698500D01*
X8326500Y-8546000D01*
X8174000Y-8698500D01*
X8326500Y-8851000D01*
X8802750Y-10756000D02*
X8955250Y-10603500D01*
X8802750Y-10451000D01*
X8650250Y-10603500D01*
X8802750Y-10756000D01*
X8961500Y-8597000D02*
X9114000Y-8444500D01*
X8961500Y-8292000D01*
X8809000Y-8444500D01*
X8961500Y-8597000D01*
X9040875Y-12661000D02*
X9193375Y-12508500D01*
X9040875Y-12356000D01*
X8888375Y-12508500D01*
X9040875Y-12661000D01*
X9040875Y-16471000D02*
X9193375Y-16318500D01*
X9040875Y-16166000D01*
X8888375Y-16318500D01*
X9040875Y-16471000D01*
X9437750Y-10502000D02*
X9590250Y-10349500D01*
X9437750Y-10197000D01*
X9285250Y-10349500D01*
X9437750Y-10502000D01*
X9517125Y-14566000D02*
X9669625Y-14413500D01*
X9517125Y-14261000D01*
X9364625Y-14413500D01*
X9517125Y-14566000D01*
X9675875Y-12407000D02*
X9828375Y-12254500D01*
X9675875Y-12102000D01*
X9523375Y-12254500D01*
X9675875Y-12407000D01*
X9675875Y-16217000D02*
X9828375Y-16064500D01*
X9675875Y-15912000D01*
X9523375Y-16064500D01*
X9675875Y-16217000D01*
X10152125Y-14312000D02*
X10304625Y-14159500D01*
X10152125Y-14007000D01*
X9999625Y-14159500D01*
X10152125Y-14312000D01*
X10231500Y-8851000D02*
X10384000Y-8698500D01*
X10231500Y-8546000D01*
X10079000Y-8698500D01*
X10231500Y-8851000D01*
X10866500Y-8597000D02*
X11019000Y-8444500D01*
X10866500Y-8292000D01*
X10714000Y-8444500D01*
X10866500Y-8597000D01*
X11184000Y-10756000D02*
X11336500Y-10603500D01*
X11184000Y-10451000D01*
X11031500Y-10603500D01*
X11184000Y-10756000D01*
X11422125Y-16471000D02*
X11574625Y-16318500D01*
X11422125Y-16166000D01*
X11269625Y-16318500D01*
X11422125Y-16471000D01*
X11660250Y-12661000D02*
X11812750Y-12508500D01*
X11660250Y-12356000D01*
X11507750Y-12508500D01*
X11660250Y-12661000D01*
X11819000Y-10502000D02*
X11971500Y-10349500D01*
X11819000Y-10197000D01*
X11666500Y-10349500D01*
X11819000Y-10502000D01*
X12057125Y-16217000D02*
X12209625Y-16064500D01*
X12057125Y-15912000D01*
X11904625Y-16064500D01*
X12057125Y-16217000D01*
X12136500Y-8851000D02*
X12289000Y-8698500D01*
X12136500Y-8546000D01*
X11984000Y-8698500D01*
X12136500Y-8851000D01*
X12295250Y-12407000D02*
X12447750Y-12254500D01*
X12295250Y-12102000D01*
X12142750Y-12254500D01*
X12295250Y-12407000D01*
X12612750Y-14566000D02*
X12765250Y-14413500D01*
X12612750Y-14261000D01*
X12460250Y-14413500D01*
X12612750Y-14566000D01*
X12771500Y-8597000D02*
X12924000Y-8444500D01*
X12771500Y-8292000D01*
X12619000Y-8444500D01*
X12771500Y-8597000D01*
X13089000Y-10756000D02*
X13241500Y-10603500D01*
X13089000Y-10451000D01*
X12936500Y-10603500D01*
X13089000Y-10756000D01*
X13247750Y-14312000D02*
X13400250Y-14159500D01*
X13247750Y-14007000D01*
X13095250Y-14159500D01*
X13247750Y-14312000D01*
X13565250Y-12661000D02*
X13717750Y-12508500D01*
X13565250Y-12356000D01*
X13412750Y-12508500D01*
X13565250Y-12661000D01*
X13724000Y-10502000D02*
X13876500Y-10349500D01*
X13724000Y-10197000D01*
X13571500Y-10349500D01*
X13724000Y-10502000D01*
X14041500Y-8851000D02*
X14194000Y-8698500D01*
X14041500Y-8546000D01*
X13889000Y-8698500D01*
X14041500Y-8851000D01*
X14200250Y-12407000D02*
X14352750Y-12254500D01*
X14200250Y-12102000D01*
X14047750Y-12254500D01*
X14200250Y-12407000D01*
X14517750Y-14566000D02*
X14670250Y-14413500D01*
X14517750Y-14261000D01*
X14365250Y-14413500D01*
X14517750Y-14566000D01*
X14676500Y-8597000D02*
X14829000Y-8444500D01*
X14676500Y-8292000D01*
X14524000Y-8444500D01*
X14676500Y-8597000D01*
X14994000Y-10756000D02*
X15146500Y-10603500D01*
X14994000Y-10451000D01*
X14841500Y-10603500D01*
X14994000Y-10756000D01*
X15152750Y-14312000D02*
X15305250Y-14159500D01*
X15152750Y-14007000D01*
X15000250Y-14159500D01*
X15152750Y-14312000D01*
X15470250Y-12661000D02*
X15622750Y-12508500D01*
X15470250Y-12356000D01*
X15317750Y-12508500D01*
X15470250Y-12661000D01*
X15629000Y-10502000D02*
X15781500Y-10349500D01*
X15629000Y-10197000D01*
X15476500Y-10349500D01*
X15629000Y-10502000D01*
X15946500Y-8851000D02*
X16099000Y-8698500D01*
X15946500Y-8546000D01*
X15794000Y-8698500D01*
X15946500Y-8851000D01*
X16065875Y-19071000D02*
X16218375Y-18918500D01*
X16065875Y-18766000D01*
X15913375Y-18918500D01*
X16065875Y-19071000D01*
X16105250Y-12407000D02*
X16257750Y-12254500D01*
X16105250Y-12102000D01*
X15952750Y-12254500D01*
X16105250Y-12407000D01*
X16422750Y-14566000D02*
X16575250Y-14413500D01*
X16422750Y-14261000D01*
X16270250Y-14413500D01*
X16422750Y-14566000D01*
X16581500Y-8597000D02*
X16734000Y-8444500D01*
X16581500Y-8292000D01*
X16429000Y-8444500D01*
X16581500Y-8597000D01*
X16700875Y-18817000D02*
X16853375Y-18664500D01*
X16700875Y-18512000D01*
X16548375Y-18664500D01*
X16700875Y-18817000D01*
X16899000Y-10756000D02*
X17051500Y-10603500D01*
X16899000Y-10451000D01*
X16746500Y-10603500D01*
X16899000Y-10756000D01*
X17057750Y-14312000D02*
X17210250Y-14159500D01*
X17057750Y-14007000D01*
X16905250Y-14159500D01*
X17057750Y-14312000D01*
X17375250Y-12661000D02*
X17527750Y-12508500D01*
X17375250Y-12356000D01*
X17222750Y-12508500D01*
X17375250Y-12661000D01*
X17534000Y-10502000D02*
X17686500Y-10349500D01*
X17534000Y-10197000D01*
X17381500Y-10349500D01*
X17534000Y-10502000D01*
X17851500Y-8851000D02*
X18004000Y-8698500D01*
X17851500Y-8546000D01*
X17699000Y-8698500D01*
X17851500Y-8851000D01*
X18010250Y-12407000D02*
X18162750Y-12254500D01*
X18010250Y-12102000D01*
X17857750Y-12254500D01*
X18010250Y-12407000D01*
X18327750Y-14566000D02*
X18480250Y-14413500D01*
X18327750Y-14261000D01*
X18175250Y-14413500D01*
X18327750Y-14566000D01*
X18486500Y-8597000D02*
X18639000Y-8444500D01*
X18486500Y-8292000D01*
X18334000Y-8444500D01*
X18486500Y-8597000D01*
X18565875Y-16471000D02*
X18718375Y-16318500D01*
X18565875Y-16166000D01*
X18413375Y-16318500D01*
X18565875Y-16471000D01*
X18804000Y-10756000D02*
X18956500Y-10603500D01*
X18804000Y-10451000D01*
X18651500Y-10603500D01*
X18804000Y-10756000D01*
X18962750Y-14312000D02*
X19115250Y-14159500D01*
X18962750Y-14007000D01*
X18810250Y-14159500D01*
X18962750Y-14312000D01*
X19200875Y-16217000D02*
X19353375Y-16064500D01*
X19200875Y-15912000D01*
X19048375Y-16064500D01*
X19200875Y-16217000D01*
X19280250Y-12661000D02*
X19432750Y-12508500D01*
X19280250Y-12356000D01*
X19127750Y-12508500D01*
X19280250Y-12661000D01*
X19439000Y-10502000D02*
X19591500Y-10349500D01*
X19439000Y-10197000D01*
X19286500Y-10349500D01*
X19439000Y-10502000D01*
X19756500Y-8851000D02*
X19909000Y-8698500D01*
X19756500Y-8546000D01*
X19604000Y-8698500D01*
X19756500Y-8851000D01*
X19915250Y-12407000D02*
X20067750Y-12254500D01*
X19915250Y-12102000D01*
X19762750Y-12254500D01*
X19915250Y-12407000D01*
X20232750Y-14566000D02*
X20385250Y-14413500D01*
X20232750Y-14261000D01*
X20080250Y-14413500D01*
X20232750Y-14566000D01*
X20391500Y-8597000D02*
X20544000Y-8444500D01*
X20391500Y-8292000D01*
X20239000Y-8444500D01*
X20391500Y-8597000D01*
X20709000Y-10756000D02*
X20861500Y-10603500D01*
X20709000Y-10451000D01*
X20556500Y-10603500D01*
X20709000Y-10756000D01*
X20867750Y-14312000D02*
X21020250Y-14159500D01*
X20867750Y-14007000D01*
X20715250Y-14159500D01*
X20867750Y-14312000D01*
X21065875Y-19071000D02*
X21218375Y-18918500D01*
X21065875Y-18766000D01*
X20913375Y-18918500D01*
X21065875Y-19071000D01*
X21185250Y-12661000D02*
X21337750Y-12508500D01*
X21185250Y-12356000D01*
X21032750Y-12508500D01*
X21185250Y-12661000D01*
X21344000Y-10502000D02*
X21496500Y-10349500D01*
X21344000Y-10197000D01*
X21191500Y-10349500D01*
X21344000Y-10502000D01*
X21661500Y-8851000D02*
X21814000Y-8698500D01*
X21661500Y-8546000D01*
X21509000Y-8698500D01*
X21661500Y-8851000D01*
X21700875Y-18817000D02*
X21853375Y-18664500D01*
X21700875Y-18512000D01*
X21548375Y-18664500D01*
X21700875Y-18817000D01*
X21820250Y-12407000D02*
X21972750Y-12254500D01*
X21820250Y-12102000D01*
X21667750Y-12254500D01*
X21820250Y-12407000D01*
X22137750Y-14566000D02*
X22290250Y-14413500D01*
X22137750Y-14261000D01*
X21985250Y-14413500D01*
X22137750Y-14566000D01*
X22296500Y-8597000D02*
X22449000Y-8444500D01*
X22296500Y-8292000D01*
X22144000Y-8444500D01*
X22296500Y-8597000D01*
X22614000Y-10756000D02*
X22766500Y-10603500D01*
X22614000Y-10451000D01*
X22461500Y-10603500D01*
X22614000Y-10756000D01*
X22772750Y-14312000D02*
X22925250Y-14159500D01*
X22772750Y-14007000D01*
X22620250Y-14159500D01*
X22772750Y-14312000D01*
X23090250Y-12661000D02*
X23242750Y-12508500D01*
X23090250Y-12356000D01*
X22937750Y-12508500D01*
X23090250Y-12661000D01*
X23249000Y-10502000D02*
X23401500Y-10349500D01*
X23249000Y-10197000D01*
X23096500Y-10349500D01*
X23249000Y-10502000D01*
X23566500Y-8851000D02*
X23719000Y-8698500D01*
X23566500Y-8546000D01*
X23414000Y-8698500D01*
X23566500Y-8851000D01*
X23725250Y-12407000D02*
X23877750Y-12254500D01*
X23725250Y-12102000D01*
X23572750Y-12254500D01*
X23725250Y-12407000D01*
X24042750Y-14566000D02*
X24195250Y-14413500D01*
X24042750Y-14261000D01*
X23890250Y-14413500D01*
X24042750Y-14566000D01*
X24201500Y-8597000D02*
X24354000Y-8444500D01*
X24201500Y-8292000D01*
X24049000Y-8444500D01*
X24201500Y-8597000D01*
X24519000Y-10756000D02*
X24671500Y-10603500D01*
X24519000Y-10451000D01*
X24366500Y-10603500D01*
X24519000Y-10756000D01*
X24677750Y-14312000D02*
X24830250Y-14159500D01*
X24677750Y-14007000D01*
X24525250Y-14159500D01*
X24677750Y-14312000D01*
X24995250Y-12661000D02*
X25147750Y-12508500D01*
X24995250Y-12356000D01*
X24842750Y-12508500D01*
X24995250Y-12661000D01*
X25154000Y-10502000D02*
X25306500Y-10349500D01*
X25154000Y-10197000D01*
X25001500Y-10349500D01*
X25154000Y-10502000D01*
X25471500Y-16471000D02*
X25624000Y-16318500D01*
X25471500Y-16166000D01*
X25319000Y-16318500D01*
X25471500Y-16471000D01*
X25471500Y-8851000D02*
X25624000Y-8698500D01*
X25471500Y-8546000D01*
X25319000Y-8698500D01*
X25471500Y-8851000D01*
X25630250Y-12407000D02*
X25782750Y-12254500D01*
X25630250Y-12102000D01*
X25477750Y-12254500D01*
X25630250Y-12407000D01*
X25947750Y-14566000D02*
X26100250Y-14413500D01*
X25947750Y-14261000D01*
X25795250Y-14413500D01*
X25947750Y-14566000D01*
X26106500Y-16217000D02*
X26259000Y-16064500D01*
X26106500Y-15912000D01*
X25954000Y-16064500D01*
X26106500Y-16217000D01*
X26106500Y-8597000D02*
X26259000Y-8444500D01*
X26106500Y-8292000D01*
X25954000Y-8444500D01*
X26106500Y-8597000D01*
X26424000Y-10756000D02*
X26576500Y-10603500D01*
X26424000Y-10451000D01*
X26271500Y-10603500D01*
X26424000Y-10756000D01*
X26582750Y-14312000D02*
X26735250Y-14159500D01*
X26582750Y-14007000D01*
X26430250Y-14159500D01*
X26582750Y-14312000D01*
X26900250Y-12661000D02*
X27052750Y-12508500D01*
X26900250Y-12356000D01*
X26747750Y-12508500D01*
X26900250Y-12661000D01*
X27059000Y-10502000D02*
X27211500Y-10349500D01*
X27059000Y-10197000D01*
X26906500Y-10349500D01*
X27059000Y-10502000D01*
X27376500Y-8851000D02*
X27529000Y-8698500D01*
X27376500Y-8546000D01*
X27224000Y-8698500D01*
X27376500Y-8851000D01*
X27376500Y-16471000D02*
X27529000Y-16318500D01*
X27376500Y-16166000D01*
X27224000Y-16318500D01*
X27376500Y-16471000D01*
X27535250Y-12407000D02*
X27687750Y-12254500D01*
X27535250Y-12102000D01*
X27382750Y-12254500D01*
X27535250Y-12407000D01*
X27852750Y-14566000D02*
X28005250Y-14413500D01*
X27852750Y-14261000D01*
X27700250Y-14413500D01*
X27852750Y-14566000D01*
X28011500Y-8597000D02*
X28164000Y-8444500D01*
X28011500Y-8292000D01*
X27859000Y-8444500D01*
X28011500Y-8597000D01*
X28011500Y-16217000D02*
X28164000Y-16064500D01*
X28011500Y-15912000D01*
X27859000Y-16064500D01*
X28011500Y-16217000D01*
X28329000Y-10756000D02*
X28481500Y-10603500D01*
X28329000Y-10451000D01*
X28176500Y-10603500D01*
X28329000Y-10756000D01*
X28487750Y-14312000D02*
X28640250Y-14159500D01*
X28487750Y-14007000D01*
X28335250Y-14159500D01*
X28487750Y-14312000D01*
X28805250Y-12661000D02*
X28957750Y-12508500D01*
X28805250Y-12356000D01*
X28652750Y-12508500D01*
X28805250Y-12661000D01*
X28964000Y-10502000D02*
X29116500Y-10349500D01*
X28964000Y-10197000D01*
X28811500Y-10349500D01*
X28964000Y-10502000D01*
X29281500Y-8851000D02*
X29434000Y-8698500D01*
X29281500Y-8546000D01*
X29129000Y-8698500D01*
X29281500Y-8851000D01*
X29281500Y-16471000D02*
X29434000Y-16318500D01*
X29281500Y-16166000D01*
X29129000Y-16318500D01*
X29281500Y-16471000D01*
X29440250Y-12407000D02*
X29592750Y-12254500D01*
X29440250Y-12102000D01*
X29287750Y-12254500D01*
X29440250Y-12407000D01*
X29757750Y-14566000D02*
X29910250Y-14413500D01*
X29757750Y-14261000D01*
X29605250Y-14413500D01*
X29757750Y-14566000D01*
X29916500Y-8597000D02*
X30069000Y-8444500D01*
X29916500Y-8292000D01*
X29764000Y-8444500D01*
X29916500Y-8597000D01*
X29916500Y-16217000D02*
X30069000Y-16064500D01*
X29916500Y-15912000D01*
X29764000Y-16064500D01*
X29916500Y-16217000D01*
X30234000Y-10756000D02*
X30386500Y-10603500D01*
X30234000Y-10451000D01*
X30081500Y-10603500D01*
X30234000Y-10756000D01*
X30392750Y-14312000D02*
X30545250Y-14159500D01*
X30392750Y-14007000D01*
X30240250Y-14159500D01*
X30392750Y-14312000D01*
X30710250Y-12661000D02*
X30862750Y-12508500D01*
X30710250Y-12356000D01*
X30557750Y-12508500D01*
X30710250Y-12661000D01*
X30869000Y-10502000D02*
X31021500Y-10349500D01*
X30869000Y-10197000D01*
X30716500Y-10349500D01*
X30869000Y-10502000D01*
X31186500Y-8851000D02*
X31339000Y-8698500D01*
X31186500Y-8546000D01*
X31034000Y-8698500D01*
X31186500Y-8851000D01*
X31186500Y-16471000D02*
X31339000Y-16318500D01*
X31186500Y-16166000D01*
X31034000Y-16318500D01*
X31186500Y-16471000D01*
X31345250Y-12407000D02*
X31497750Y-12254500D01*
X31345250Y-12102000D01*
X31192750Y-12254500D01*
X31345250Y-12407000D01*
X31821500Y-8597000D02*
X31974000Y-8444500D01*
X31821500Y-8292000D01*
X31669000Y-8444500D01*
X31821500Y-8597000D01*
X31821500Y-16217000D02*
X31974000Y-16064500D01*
X31821500Y-15912000D01*
X31669000Y-16064500D01*
X31821500Y-16217000D01*
X32139000Y-10756000D02*
X32291500Y-10603500D01*
X32139000Y-10451000D01*
X31986500Y-10603500D01*
X32139000Y-10756000D01*
X32774000Y-10502000D02*
X32926500Y-10349500D01*
X32774000Y-10197000D01*
X32621500Y-10349500D01*
X32774000Y-10502000D01*
X33091500Y-16471000D02*
X33244000Y-16318500D01*
X33091500Y-16166000D01*
X32939000Y-16318500D01*
X33091500Y-16471000D01*
X33329625Y-14566000D02*
X33482125Y-14413500D01*
X33329625Y-14261000D01*
X33177125Y-14413500D01*
X33329625Y-14566000D01*
X33726500Y-16217000D02*
X33879000Y-16064500D01*
X33726500Y-15912000D01*
X33574000Y-16064500D01*
X33726500Y-16217000D01*
X33805875Y-12661000D02*
X33958375Y-12508500D01*
X33805875Y-12356000D01*
X33653375Y-12508500D01*
X33805875Y-12661000D01*
X33964625Y-14312000D02*
X34117125Y-14159500D01*
X33964625Y-14007000D01*
X33812125Y-14159500D01*
X33964625Y-14312000D01*
X34044000Y-8851000D02*
X34196500Y-8698500D01*
X34044000Y-8546000D01*
X33891500Y-8698500D01*
X34044000Y-8851000D01*
X34440875Y-12407000D02*
X34593375Y-12254500D01*
X34440875Y-12102000D01*
X34288375Y-12254500D01*
X34440875Y-12407000D01*
X34520250Y-10756000D02*
X34672750Y-10603500D01*
X34520250Y-10451000D01*
X34367750Y-10603500D01*
X34520250Y-10756000D01*
X34679000Y-8597000D02*
X34831500Y-8444500D01*
X34679000Y-8292000D01*
X34526500Y-8444500D01*
X34679000Y-8597000D01*
X34996500Y-16471000D02*
X35149000Y-16318500D01*
X34996500Y-16166000D01*
X34844000Y-16318500D01*
X34996500Y-16471000D01*
X35155250Y-10502000D02*
X35307750Y-10349500D01*
X35155250Y-10197000D01*
X35002750Y-10349500D01*
X35155250Y-10502000D01*
X35631500Y-16217000D02*
X35784000Y-16064500D01*
X35631500Y-15912000D01*
X35479000Y-16064500D01*
X35631500Y-16217000D01*
D17*
X8504935Y-15290610D02*
X8903715Y-15689390D01*
X8903715Y-15290610D02*
X8504935Y-15689390D01*
X8903715Y-15490000D02*
G75*
G03*
X8903715Y-15490000I-199390J0D01*
G01*
X10892535Y-15290610D02*
X11291315Y-15689390D01*
X11291315Y-15290610D02*
X10892535Y-15689390D01*
X11291315Y-15490000D02*
G75*
G03*
X11291315Y-15490000I-199390J0D01*
G01*
X13747485Y-17195610D02*
X14146265Y-17594390D01*
X14146265Y-17195610D02*
X13747485Y-17594390D01*
X14146265Y-17395000D02*
G75*
G03*
X14146265Y-17395000I-199390J0D01*
G01*
X23747485Y-17195610D02*
X24146265Y-17594390D01*
X24146265Y-17195610D02*
X23747485Y-17594390D01*
X24146265Y-17395000D02*
G75*
G03*
X24146265Y-17395000I-199390J0D01*
G01*
X32317435Y-15290610D02*
X32716215Y-15689390D01*
X32716215Y-15290610D02*
X32317435Y-15689390D01*
X32716215Y-15490000D02*
G75*
G03*
X32716215Y-15490000I-199390J0D01*
G01*
X32793685Y-13385610D02*
X33192465Y-13784390D01*
X33192465Y-13385610D02*
X32793685Y-13784390D01*
X33192465Y-13585000D02*
G75*
G03*
X33192465Y-13585000I-199390J0D01*
G01*
X33031810Y-9575610D02*
X33430590Y-9974390D01*
X33430590Y-9575610D02*
X33031810Y-9974390D01*
X33430590Y-9775000D02*
G75*
G03*
X33430590Y-9775000I-199390J0D01*
G01*
X34705035Y-15290610D02*
X35103815Y-15689390D01*
X35103815Y-15290610D02*
X34705035Y-15689390D01*
X35103815Y-15490000D02*
G75*
G03*
X35103815Y-15490000I-199390J0D01*
G01*
X35181285Y-13385610D02*
X35580065Y-13784390D01*
X35580065Y-13385610D02*
X35181285Y-13784390D01*
X35580065Y-13585000D02*
G75*
G03*
X35580065Y-13585000I-199390J0D01*
G01*
X35419410Y-9575610D02*
X35818190Y-9974390D01*
X35818190Y-9575610D02*
X35419410Y-9974390D01*
X35818190Y-9775000D02*
G75*
G03*
X35818190Y-9775000I-199390J0D01*
G01*
D18*
X6602500Y-10657500D02*
X7002500Y-11057500D01*
X7002500Y-10657500D02*
X6602500Y-11057500D01*
X6802500Y-10657500D02*
X6802500Y-11057500D01*
X6602500Y-10857500D02*
X7002500Y-10857500D01*
X6602500Y-12562500D02*
X7002500Y-12962500D01*
X7002500Y-12562500D02*
X6602500Y-12962500D01*
X6802500Y-12562500D02*
X6802500Y-12962500D01*
X6602500Y-12762500D02*
X7002500Y-12762500D01*
X6602500Y-14467500D02*
X7002500Y-14867500D01*
X7002500Y-14467500D02*
X6602500Y-14867500D01*
X6802500Y-14467500D02*
X6802500Y-14867500D01*
X6602500Y-14667500D02*
X7002500Y-14667500D01*
X6840625Y-16372500D02*
X7240625Y-16772500D01*
X7240625Y-16372500D02*
X6840625Y-16772500D01*
X7040625Y-16372500D02*
X7040625Y-16772500D01*
X6840625Y-16572500D02*
X7240625Y-16572500D01*
X8507500Y-8752500D02*
X8907500Y-9152500D01*
X8907500Y-8752500D02*
X8507500Y-9152500D01*
X8707500Y-8752500D02*
X8707500Y-9152500D01*
X8507500Y-8952500D02*
X8907500Y-8952500D01*
X8983750Y-10657500D02*
X9383750Y-11057500D01*
X9383750Y-10657500D02*
X8983750Y-11057500D01*
X9183750Y-10657500D02*
X9183750Y-11057500D01*
X8983750Y-10857500D02*
X9383750Y-10857500D01*
X9221875Y-12562500D02*
X9621875Y-12962500D01*
X9621875Y-12562500D02*
X9221875Y-12962500D01*
X9421875Y-12562500D02*
X9421875Y-12962500D01*
X9221875Y-12762500D02*
X9621875Y-12762500D01*
X9221875Y-16372500D02*
X9621875Y-16772500D01*
X9621875Y-16372500D02*
X9221875Y-16772500D01*
X9421875Y-16372500D02*
X9421875Y-16772500D01*
X9221875Y-16572500D02*
X9621875Y-16572500D01*
X9698125Y-14467500D02*
X10098125Y-14867500D01*
X10098125Y-14467500D02*
X9698125Y-14867500D01*
X9898125Y-14467500D02*
X9898125Y-14867500D01*
X9698125Y-14667500D02*
X10098125Y-14667500D01*
X10412500Y-8752500D02*
X10812500Y-9152500D01*
X10812500Y-8752500D02*
X10412500Y-9152500D01*
X10612500Y-8752500D02*
X10612500Y-9152500D01*
X10412500Y-8952500D02*
X10812500Y-8952500D01*
X11365000Y-10657500D02*
X11765000Y-11057500D01*
X11765000Y-10657500D02*
X11365000Y-11057500D01*
X11565000Y-10657500D02*
X11565000Y-11057500D01*
X11365000Y-10857500D02*
X11765000Y-10857500D01*
X11603125Y-16372500D02*
X12003125Y-16772500D01*
X12003125Y-16372500D02*
X11603125Y-16772500D01*
X11803125Y-16372500D02*
X11803125Y-16772500D01*
X11603125Y-16572500D02*
X12003125Y-16572500D01*
X11841250Y-12562500D02*
X12241250Y-12962500D01*
X12241250Y-12562500D02*
X11841250Y-12962500D01*
X12041250Y-12562500D02*
X12041250Y-12962500D01*
X11841250Y-12762500D02*
X12241250Y-12762500D01*
X12317500Y-8752500D02*
X12717500Y-9152500D01*
X12717500Y-8752500D02*
X12317500Y-9152500D01*
X12517500Y-8752500D02*
X12517500Y-9152500D01*
X12317500Y-8952500D02*
X12717500Y-8952500D01*
X12793750Y-14467500D02*
X13193750Y-14867500D01*
X13193750Y-14467500D02*
X12793750Y-14867500D01*
X12993750Y-14467500D02*
X12993750Y-14867500D01*
X12793750Y-14667500D02*
X13193750Y-14667500D01*
X13270000Y-10657500D02*
X13670000Y-11057500D01*
X13670000Y-10657500D02*
X13270000Y-11057500D01*
X13470000Y-10657500D02*
X13470000Y-11057500D01*
X13270000Y-10857500D02*
X13670000Y-10857500D01*
X13746250Y-12562500D02*
X14146250Y-12962500D01*
X14146250Y-12562500D02*
X13746250Y-12962500D01*
X13946250Y-12562500D02*
X13946250Y-12962500D01*
X13746250Y-12762500D02*
X14146250Y-12762500D01*
X14222500Y-8752500D02*
X14622500Y-9152500D01*
X14622500Y-8752500D02*
X14222500Y-9152500D01*
X14422500Y-8752500D02*
X14422500Y-9152500D01*
X14222500Y-8952500D02*
X14622500Y-8952500D01*
X14698750Y-14467500D02*
X15098750Y-14867500D01*
X15098750Y-14467500D02*
X14698750Y-14867500D01*
X14898750Y-14467500D02*
X14898750Y-14867500D01*
X14698750Y-14667500D02*
X15098750Y-14667500D01*
X15175000Y-10657500D02*
X15575000Y-11057500D01*
X15575000Y-10657500D02*
X15175000Y-11057500D01*
X15375000Y-10657500D02*
X15375000Y-11057500D01*
X15175000Y-10857500D02*
X15575000Y-10857500D01*
X15651250Y-12562500D02*
X16051250Y-12962500D01*
X16051250Y-12562500D02*
X15651250Y-12962500D01*
X15851250Y-12562500D02*
X15851250Y-12962500D01*
X15651250Y-12762500D02*
X16051250Y-12762500D01*
X16127500Y-8752500D02*
X16527500Y-9152500D01*
X16527500Y-8752500D02*
X16127500Y-9152500D01*
X16327500Y-8752500D02*
X16327500Y-9152500D01*
X16127500Y-8952500D02*
X16527500Y-8952500D01*
X16246875Y-18972500D02*
X16646875Y-19372500D01*
X16646875Y-18972500D02*
X16246875Y-19372500D01*
X16446875Y-18972500D02*
X16446875Y-19372500D01*
X16246875Y-19172500D02*
X16646875Y-19172500D01*
X16603750Y-14467500D02*
X17003750Y-14867500D01*
X17003750Y-14467500D02*
X16603750Y-14867500D01*
X16803750Y-14467500D02*
X16803750Y-14867500D01*
X16603750Y-14667500D02*
X17003750Y-14667500D01*
X17080000Y-10657500D02*
X17480000Y-11057500D01*
X17480000Y-10657500D02*
X17080000Y-11057500D01*
X17280000Y-10657500D02*
X17280000Y-11057500D01*
X17080000Y-10857500D02*
X17480000Y-10857500D01*
X17556250Y-12562500D02*
X17956250Y-12962500D01*
X17956250Y-12562500D02*
X17556250Y-12962500D01*
X17756250Y-12562500D02*
X17756250Y-12962500D01*
X17556250Y-12762500D02*
X17956250Y-12762500D01*
X18032500Y-8752500D02*
X18432500Y-9152500D01*
X18432500Y-8752500D02*
X18032500Y-9152500D01*
X18232500Y-8752500D02*
X18232500Y-9152500D01*
X18032500Y-8952500D02*
X18432500Y-8952500D01*
X18508750Y-14467500D02*
X18908750Y-14867500D01*
X18908750Y-14467500D02*
X18508750Y-14867500D01*
X18708750Y-14467500D02*
X18708750Y-14867500D01*
X18508750Y-14667500D02*
X18908750Y-14667500D01*
X18746875Y-16372500D02*
X19146875Y-16772500D01*
X19146875Y-16372500D02*
X18746875Y-16772500D01*
X18946875Y-16372500D02*
X18946875Y-16772500D01*
X18746875Y-16572500D02*
X19146875Y-16572500D01*
X18985000Y-10657500D02*
X19385000Y-11057500D01*
X19385000Y-10657500D02*
X18985000Y-11057500D01*
X19185000Y-10657500D02*
X19185000Y-11057500D01*
X18985000Y-10857500D02*
X19385000Y-10857500D01*
X19461250Y-12562500D02*
X19861250Y-12962500D01*
X19861250Y-12562500D02*
X19461250Y-12962500D01*
X19661250Y-12562500D02*
X19661250Y-12962500D01*
X19461250Y-12762500D02*
X19861250Y-12762500D01*
X19937500Y-8752500D02*
X20337500Y-9152500D01*
X20337500Y-8752500D02*
X19937500Y-9152500D01*
X20137500Y-8752500D02*
X20137500Y-9152500D01*
X19937500Y-8952500D02*
X20337500Y-8952500D01*
X20413750Y-14467500D02*
X20813750Y-14867500D01*
X20813750Y-14467500D02*
X20413750Y-14867500D01*
X20613750Y-14467500D02*
X20613750Y-14867500D01*
X20413750Y-14667500D02*
X20813750Y-14667500D01*
X20890000Y-10657500D02*
X21290000Y-11057500D01*
X21290000Y-10657500D02*
X20890000Y-11057500D01*
X21090000Y-10657500D02*
X21090000Y-11057500D01*
X20890000Y-10857500D02*
X21290000Y-10857500D01*
X21246875Y-18972500D02*
X21646875Y-19372500D01*
X21646875Y-18972500D02*
X21246875Y-19372500D01*
X21446875Y-18972500D02*
X21446875Y-19372500D01*
X21246875Y-19172500D02*
X21646875Y-19172500D01*
X21366250Y-12562500D02*
X21766250Y-12962500D01*
X21766250Y-12562500D02*
X21366250Y-12962500D01*
X21566250Y-12562500D02*
X21566250Y-12962500D01*
X21366250Y-12762500D02*
X21766250Y-12762500D01*
X21842500Y-8752500D02*
X22242500Y-9152500D01*
X22242500Y-8752500D02*
X21842500Y-9152500D01*
X22042500Y-8752500D02*
X22042500Y-9152500D01*
X21842500Y-8952500D02*
X22242500Y-8952500D01*
X22318750Y-14467500D02*
X22718750Y-14867500D01*
X22718750Y-14467500D02*
X22318750Y-14867500D01*
X22518750Y-14467500D02*
X22518750Y-14867500D01*
X22318750Y-14667500D02*
X22718750Y-14667500D01*
X22795000Y-10657500D02*
X23195000Y-11057500D01*
X23195000Y-10657500D02*
X22795000Y-11057500D01*
X22995000Y-10657500D02*
X22995000Y-11057500D01*
X22795000Y-10857500D02*
X23195000Y-10857500D01*
X23271250Y-12562500D02*
X23671250Y-12962500D01*
X23671250Y-12562500D02*
X23271250Y-12962500D01*
X23471250Y-12562500D02*
X23471250Y-12962500D01*
X23271250Y-12762500D02*
X23671250Y-12762500D01*
X23747500Y-8752500D02*
X24147500Y-9152500D01*
X24147500Y-8752500D02*
X23747500Y-9152500D01*
X23947500Y-8752500D02*
X23947500Y-9152500D01*
X23747500Y-8952500D02*
X24147500Y-8952500D01*
X24223750Y-14467500D02*
X24623750Y-14867500D01*
X24623750Y-14467500D02*
X24223750Y-14867500D01*
X24423750Y-14467500D02*
X24423750Y-14867500D01*
X24223750Y-14667500D02*
X24623750Y-14667500D01*
X24700000Y-10657500D02*
X25100000Y-11057500D01*
X25100000Y-10657500D02*
X24700000Y-11057500D01*
X24900000Y-10657500D02*
X24900000Y-11057500D01*
X24700000Y-10857500D02*
X25100000Y-10857500D01*
X25176250Y-12562500D02*
X25576250Y-12962500D01*
X25576250Y-12562500D02*
X25176250Y-12962500D01*
X25376250Y-12562500D02*
X25376250Y-12962500D01*
X25176250Y-12762500D02*
X25576250Y-12762500D01*
X25652500Y-16372500D02*
X26052500Y-16772500D01*
X26052500Y-16372500D02*
X25652500Y-16772500D01*
X25852500Y-16372500D02*
X25852500Y-16772500D01*
X25652500Y-16572500D02*
X26052500Y-16572500D01*
X25652500Y-8752500D02*
X26052500Y-9152500D01*
X26052500Y-8752500D02*
X25652500Y-9152500D01*
X25852500Y-8752500D02*
X25852500Y-9152500D01*
X25652500Y-8952500D02*
X26052500Y-8952500D01*
X26128750Y-14467500D02*
X26528750Y-14867500D01*
X26528750Y-14467500D02*
X26128750Y-14867500D01*
X26328750Y-14467500D02*
X26328750Y-14867500D01*
X26128750Y-14667500D02*
X26528750Y-14667500D01*
X26605000Y-10657500D02*
X27005000Y-11057500D01*
X27005000Y-10657500D02*
X26605000Y-11057500D01*
X26805000Y-10657500D02*
X26805000Y-11057500D01*
X26605000Y-10857500D02*
X27005000Y-10857500D01*
X27081250Y-12562500D02*
X27481250Y-12962500D01*
X27481250Y-12562500D02*
X27081250Y-12962500D01*
X27281250Y-12562500D02*
X27281250Y-12962500D01*
X27081250Y-12762500D02*
X27481250Y-12762500D01*
X27557500Y-8752500D02*
X27957500Y-9152500D01*
X27957500Y-8752500D02*
X27557500Y-9152500D01*
X27757500Y-8752500D02*
X27757500Y-9152500D01*
X27557500Y-8952500D02*
X27957500Y-8952500D01*
X27557500Y-16372500D02*
X27957500Y-16772500D01*
X27957500Y-16372500D02*
X27557500Y-16772500D01*
X27757500Y-16372500D02*
X27757500Y-16772500D01*
X27557500Y-16572500D02*
X27957500Y-16572500D01*
X28033750Y-14467500D02*
X28433750Y-14867500D01*
X28433750Y-14467500D02*
X28033750Y-14867500D01*
X28233750Y-14467500D02*
X28233750Y-14867500D01*
X28033750Y-14667500D02*
X28433750Y-14667500D01*
X28510000Y-10657500D02*
X28910000Y-11057500D01*
X28910000Y-10657500D02*
X28510000Y-11057500D01*
X28710000Y-10657500D02*
X28710000Y-11057500D01*
X28510000Y-10857500D02*
X28910000Y-10857500D01*
X28986250Y-12562500D02*
X29386250Y-12962500D01*
X29386250Y-12562500D02*
X28986250Y-12962500D01*
X29186250Y-12562500D02*
X29186250Y-12962500D01*
X28986250Y-12762500D02*
X29386250Y-12762500D01*
X29462500Y-8752500D02*
X29862500Y-9152500D01*
X29862500Y-8752500D02*
X29462500Y-9152500D01*
X29662500Y-8752500D02*
X29662500Y-9152500D01*
X29462500Y-8952500D02*
X29862500Y-8952500D01*
X29462500Y-16372500D02*
X29862500Y-16772500D01*
X29862500Y-16372500D02*
X29462500Y-16772500D01*
X29662500Y-16372500D02*
X29662500Y-16772500D01*
X29462500Y-16572500D02*
X29862500Y-16572500D01*
X29938750Y-14467500D02*
X30338750Y-14867500D01*
X30338750Y-14467500D02*
X29938750Y-14867500D01*
X30138750Y-14467500D02*
X30138750Y-14867500D01*
X29938750Y-14667500D02*
X30338750Y-14667500D01*
X30415000Y-10657500D02*
X30815000Y-11057500D01*
X30815000Y-10657500D02*
X30415000Y-11057500D01*
X30615000Y-10657500D02*
X30615000Y-11057500D01*
X30415000Y-10857500D02*
X30815000Y-10857500D01*
X30891250Y-12562500D02*
X31291250Y-12962500D01*
X31291250Y-12562500D02*
X30891250Y-12962500D01*
X31091250Y-12562500D02*
X31091250Y-12962500D01*
X30891250Y-12762500D02*
X31291250Y-12762500D01*
X31367500Y-8752500D02*
X31767500Y-9152500D01*
X31767500Y-8752500D02*
X31367500Y-9152500D01*
X31567500Y-8752500D02*
X31567500Y-9152500D01*
X31367500Y-8952500D02*
X31767500Y-8952500D01*
X31367500Y-16372500D02*
X31767500Y-16772500D01*
X31767500Y-16372500D02*
X31367500Y-16772500D01*
X31567500Y-16372500D02*
X31567500Y-16772500D01*
X31367500Y-16572500D02*
X31767500Y-16572500D01*
X32320000Y-10657500D02*
X32720000Y-11057500D01*
X32720000Y-10657500D02*
X32320000Y-11057500D01*
X32520000Y-10657500D02*
X32520000Y-11057500D01*
X32320000Y-10857500D02*
X32720000Y-10857500D01*
X33272500Y-16372500D02*
X33672500Y-16772500D01*
X33672500Y-16372500D02*
X33272500Y-16772500D01*
X33472500Y-16372500D02*
X33472500Y-16772500D01*
X33272500Y-16572500D02*
X33672500Y-16572500D01*
X33510625Y-14467500D02*
X33910625Y-14867500D01*
X33910625Y-14467500D02*
X33510625Y-14867500D01*
X33710625Y-14467500D02*
X33710625Y-14867500D01*
X33510625Y-14667500D02*
X33910625Y-14667500D01*
X33986875Y-12562500D02*
X34386875Y-12962500D01*
X34386875Y-12562500D02*
X33986875Y-12962500D01*
X34186875Y-12562500D02*
X34186875Y-12962500D01*
X33986875Y-12762500D02*
X34386875Y-12762500D01*
X34225000Y-8752500D02*
X34625000Y-9152500D01*
X34625000Y-8752500D02*
X34225000Y-9152500D01*
X34425000Y-8752500D02*
X34425000Y-9152500D01*
X34225000Y-8952500D02*
X34625000Y-8952500D01*
X34701250Y-10657500D02*
X35101250Y-11057500D01*
X35101250Y-10657500D02*
X34701250Y-11057500D01*
X34901250Y-10657500D02*
X34901250Y-11057500D01*
X34701250Y-10857500D02*
X35101250Y-10857500D01*
X35177500Y-16372500D02*
X35577500Y-16772500D01*
X35577500Y-16372500D02*
X35177500Y-16772500D01*
X35377500Y-16372500D02*
X35377500Y-16772500D01*
X35177500Y-16572500D02*
X35577500Y-16572500D01*
D11*
X5252619Y-21240476D02*
X5252619Y-21040476D01*
X5300238Y-21040476D01*
X5328810Y-21050000D01*
X5347857Y-21069048D01*
X5357381Y-21088095D01*
X5366905Y-21126190D01*
X5366905Y-21154762D01*
X5357381Y-21192857D01*
X5347857Y-21211905D01*
X5328810Y-21230952D01*
X5300238Y-21240476D01*
X5252619Y-21240476D01*
X5452619Y-21240476D02*
X5452619Y-21107143D01*
X5452619Y-21145238D02*
X5462143Y-21126190D01*
X5471667Y-21116667D01*
X5490714Y-21107143D01*
X5509762Y-21107143D01*
X5576429Y-21240476D02*
X5576429Y-21107143D01*
X5576429Y-21040476D02*
X5566905Y-21050000D01*
X5576429Y-21059524D01*
X5585952Y-21050000D01*
X5576429Y-21040476D01*
X5576429Y-21059524D01*
X5700238Y-21240476D02*
X5681190Y-21230952D01*
X5671667Y-21211905D01*
X5671667Y-21040476D01*
X5805000Y-21240476D02*
X5785952Y-21230952D01*
X5776428Y-21211905D01*
X5776428Y-21040476D01*
X6033571Y-21240476D02*
X6033571Y-21040476D01*
X6100238Y-21183333D01*
X6166905Y-21040476D01*
X6166905Y-21240476D01*
X6347857Y-21240476D02*
X6347857Y-21135714D01*
X6338333Y-21116667D01*
X6319286Y-21107143D01*
X6281190Y-21107143D01*
X6262143Y-21116667D01*
X6347857Y-21230952D02*
X6328809Y-21240476D01*
X6281190Y-21240476D01*
X6262143Y-21230952D01*
X6252619Y-21211905D01*
X6252619Y-21192857D01*
X6262143Y-21173810D01*
X6281190Y-21164286D01*
X6328809Y-21164286D01*
X6347857Y-21154762D01*
X6443095Y-21107143D02*
X6443095Y-21307143D01*
X6443095Y-21116667D02*
X6462143Y-21107143D01*
X6500238Y-21107143D01*
X6519286Y-21116667D01*
X6528809Y-21126190D01*
X6538333Y-21145238D01*
X6538333Y-21202381D01*
X6528809Y-21221429D01*
X6519286Y-21230952D01*
X6500238Y-21240476D01*
X6462143Y-21240476D01*
X6443095Y-21230952D01*
X6624048Y-21221429D02*
X6633571Y-21230952D01*
X6624048Y-21240476D01*
X6614524Y-21230952D01*
X6624048Y-21221429D01*
X6624048Y-21240476D01*
X6624048Y-21116667D02*
X6633571Y-21126190D01*
X6624048Y-21135714D01*
X6614524Y-21126190D01*
X6624048Y-21116667D01*
X6624048Y-21135714D01*
D12*
X4845000Y-21495000D02*
X4995000Y-21645000D01*
X4995000Y-21495000D02*
X4845000Y-21645000D01*
D11*
X5357381Y-21660476D02*
X5243095Y-21660476D01*
X5300238Y-21660476D02*
X5300238Y-21460476D01*
X5281190Y-21489048D01*
X5262143Y-21508095D01*
X5243095Y-21517619D01*
X5443095Y-21641429D02*
X5452619Y-21650952D01*
X5443095Y-21660476D01*
X5433571Y-21650952D01*
X5443095Y-21641429D01*
X5443095Y-21660476D01*
X5633571Y-21460476D02*
X5538333Y-21460476D01*
X5528810Y-21555714D01*
X5538333Y-21546190D01*
X5557381Y-21536667D01*
X5605000Y-21536667D01*
X5624048Y-21546190D01*
X5633571Y-21555714D01*
X5643095Y-21574762D01*
X5643095Y-21622381D01*
X5633571Y-21641429D01*
X5624048Y-21650952D01*
X5605000Y-21660476D01*
X5557381Y-21660476D01*
X5538333Y-21650952D01*
X5528810Y-21641429D01*
X5766905Y-21460476D02*
X5785952Y-21460476D01*
X5805000Y-21470000D01*
X5814524Y-21479524D01*
X5824048Y-21498571D01*
X5833571Y-21536667D01*
X5833571Y-21584286D01*
X5824048Y-21622381D01*
X5814524Y-21641429D01*
X5805000Y-21650952D01*
X5785952Y-21660476D01*
X5766905Y-21660476D01*
X5747857Y-21650952D01*
X5738333Y-21641429D01*
X5728809Y-21622381D01*
X5719286Y-21584286D01*
X5719286Y-21536667D01*
X5728809Y-21498571D01*
X5738333Y-21479524D01*
X5747857Y-21470000D01*
X5766905Y-21460476D01*
X5957381Y-21460476D02*
X5976428Y-21460476D01*
X5995476Y-21470000D01*
X6005000Y-21479524D01*
X6014524Y-21498571D01*
X6024048Y-21536667D01*
X6024048Y-21584286D01*
X6014524Y-21622381D01*
X6005000Y-21641429D01*
X5995476Y-21650952D01*
X5976428Y-21660476D01*
X5957381Y-21660476D01*
X5938333Y-21650952D01*
X5928809Y-21641429D01*
X5919286Y-21622381D01*
X5909762Y-21584286D01*
X5909762Y-21536667D01*
X5919286Y-21498571D01*
X5928809Y-21479524D01*
X5938333Y-21470000D01*
X5957381Y-21460476D01*
X6109762Y-21660476D02*
X6109762Y-21527143D01*
X6109762Y-21546190D02*
X6119286Y-21536667D01*
X6138333Y-21527143D01*
X6166905Y-21527143D01*
X6185952Y-21536667D01*
X6195476Y-21555714D01*
X6195476Y-21660476D01*
X6195476Y-21555714D02*
X6205000Y-21536667D01*
X6224048Y-21527143D01*
X6252619Y-21527143D01*
X6271667Y-21536667D01*
X6281190Y-21555714D01*
X6281190Y-21660476D01*
X6376428Y-21660476D02*
X6376428Y-21527143D01*
X6376428Y-21546190D02*
X6385952Y-21536667D01*
X6405000Y-21527143D01*
X6433571Y-21527143D01*
X6452619Y-21536667D01*
X6462143Y-21555714D01*
X6462143Y-21660476D01*
X6462143Y-21555714D02*
X6471667Y-21536667D01*
X6490714Y-21527143D01*
X6519286Y-21527143D01*
X6538333Y-21536667D01*
X6547857Y-21555714D01*
X6547857Y-21660476D01*
X6938333Y-21450952D02*
X6766905Y-21708095D01*
X7195476Y-21460476D02*
X7214524Y-21460476D01*
X7233571Y-21470000D01*
X7243095Y-21479524D01*
X7252619Y-21498571D01*
X7262143Y-21536667D01*
X7262143Y-21584286D01*
X7252619Y-21622381D01*
X7243095Y-21641429D01*
X7233571Y-21650952D01*
X7214524Y-21660476D01*
X7195476Y-21660476D01*
X7176428Y-21650952D01*
X7166905Y-21641429D01*
X7157381Y-21622381D01*
X7147857Y-21584286D01*
X7147857Y-21536667D01*
X7157381Y-21498571D01*
X7166905Y-21479524D01*
X7176428Y-21470000D01*
X7195476Y-21460476D01*
X7347857Y-21641429D02*
X7357381Y-21650952D01*
X7347857Y-21660476D01*
X7338333Y-21650952D01*
X7347857Y-21641429D01*
X7347857Y-21660476D01*
X7481190Y-21460476D02*
X7500238Y-21460476D01*
X7519286Y-21470000D01*
X7528809Y-21479524D01*
X7538333Y-21498571D01*
X7547857Y-21536667D01*
X7547857Y-21584286D01*
X7538333Y-21622381D01*
X7528809Y-21641429D01*
X7519286Y-21650952D01*
X7500238Y-21660476D01*
X7481190Y-21660476D01*
X7462143Y-21650952D01*
X7452619Y-21641429D01*
X7443095Y-21622381D01*
X7433571Y-21584286D01*
X7433571Y-21536667D01*
X7443095Y-21498571D01*
X7452619Y-21479524D01*
X7462143Y-21470000D01*
X7481190Y-21460476D01*
X7728809Y-21460476D02*
X7633571Y-21460476D01*
X7624048Y-21555714D01*
X7633571Y-21546190D01*
X7652619Y-21536667D01*
X7700238Y-21536667D01*
X7719286Y-21546190D01*
X7728809Y-21555714D01*
X7738333Y-21574762D01*
X7738333Y-21622381D01*
X7728809Y-21641429D01*
X7719286Y-21650952D01*
X7700238Y-21660476D01*
X7652619Y-21660476D01*
X7633571Y-21650952D01*
X7624048Y-21641429D01*
X7833571Y-21660476D02*
X7871667Y-21660476D01*
X7890714Y-21650952D01*
X7900238Y-21641429D01*
X7919286Y-21612857D01*
X7928809Y-21574762D01*
X7928809Y-21498571D01*
X7919286Y-21479524D01*
X7909762Y-21470000D01*
X7890714Y-21460476D01*
X7852619Y-21460476D01*
X7833571Y-21470000D01*
X7824048Y-21479524D01*
X7814524Y-21498571D01*
X7814524Y-21546190D01*
X7824048Y-21565238D01*
X7833571Y-21574762D01*
X7852619Y-21584286D01*
X7890714Y-21584286D01*
X7909762Y-21574762D01*
X7919286Y-21565238D01*
X7928809Y-21546190D01*
X8119286Y-21660476D02*
X8005000Y-21660476D01*
X8062143Y-21660476D02*
X8062143Y-21460476D01*
X8043095Y-21489048D01*
X8024048Y-21508095D01*
X8005000Y-21517619D01*
X8195476Y-21460476D02*
X8195476Y-21498571D01*
X8271667Y-21460476D02*
X8271667Y-21498571D01*
X8566905Y-21736667D02*
X8557381Y-21727143D01*
X8538333Y-21698571D01*
X8528810Y-21679524D01*
X8519286Y-21650952D01*
X8509762Y-21603333D01*
X8509762Y-21565238D01*
X8519286Y-21517619D01*
X8528810Y-21489048D01*
X8538333Y-21470000D01*
X8557381Y-21441429D01*
X8566905Y-21431905D01*
X8633571Y-21479524D02*
X8643095Y-21470000D01*
X8662143Y-21460476D01*
X8709762Y-21460476D01*
X8728810Y-21470000D01*
X8738333Y-21479524D01*
X8747857Y-21498571D01*
X8747857Y-21517619D01*
X8738333Y-21546190D01*
X8624048Y-21660476D01*
X8747857Y-21660476D01*
X8985952Y-21660476D02*
X8985952Y-21460476D01*
X9071667Y-21660476D02*
X9071667Y-21555714D01*
X9062143Y-21536667D01*
X9043095Y-21527143D01*
X9014524Y-21527143D01*
X8995476Y-21536667D01*
X8985952Y-21546190D01*
X9195476Y-21660476D02*
X9176429Y-21650952D01*
X9166905Y-21641429D01*
X9157381Y-21622381D01*
X9157381Y-21565238D01*
X9166905Y-21546190D01*
X9176429Y-21536667D01*
X9195476Y-21527143D01*
X9224048Y-21527143D01*
X9243095Y-21536667D01*
X9252619Y-21546190D01*
X9262143Y-21565238D01*
X9262143Y-21622381D01*
X9252619Y-21641429D01*
X9243095Y-21650952D01*
X9224048Y-21660476D01*
X9195476Y-21660476D01*
X9376429Y-21660476D02*
X9357381Y-21650952D01*
X9347857Y-21631905D01*
X9347857Y-21460476D01*
X9528810Y-21650952D02*
X9509762Y-21660476D01*
X9471667Y-21660476D01*
X9452619Y-21650952D01*
X9443095Y-21631905D01*
X9443095Y-21555714D01*
X9452619Y-21536667D01*
X9471667Y-21527143D01*
X9509762Y-21527143D01*
X9528810Y-21536667D01*
X9538333Y-21555714D01*
X9538333Y-21574762D01*
X9443095Y-21593810D01*
X9614524Y-21650952D02*
X9633571Y-21660476D01*
X9671667Y-21660476D01*
X9690714Y-21650952D01*
X9700238Y-21631905D01*
X9700238Y-21622381D01*
X9690714Y-21603333D01*
X9671667Y-21593810D01*
X9643095Y-21593810D01*
X9624048Y-21584286D01*
X9614524Y-21565238D01*
X9614524Y-21555714D01*
X9624048Y-21536667D01*
X9643095Y-21527143D01*
X9671667Y-21527143D01*
X9690714Y-21536667D01*
X9766905Y-21736667D02*
X9776429Y-21727143D01*
X9795476Y-21698571D01*
X9805000Y-21679524D01*
X9814524Y-21650952D01*
X9824048Y-21603333D01*
X9824048Y-21565238D01*
X9814524Y-21517619D01*
X9805000Y-21489048D01*
X9795476Y-21470000D01*
X9776429Y-21441429D01*
X9766905Y-21431905D01*
X10128810Y-21736667D02*
X10119286Y-21727143D01*
X10100238Y-21698571D01*
X10090714Y-21679524D01*
X10081190Y-21650952D01*
X10071667Y-21603333D01*
X10071667Y-21565238D01*
X10081190Y-21517619D01*
X10090714Y-21489048D01*
X10100238Y-21470000D01*
X10119286Y-21441429D01*
X10128810Y-21431905D01*
X10205000Y-21527143D02*
X10205000Y-21660476D01*
X10205000Y-21546190D02*
X10214524Y-21536667D01*
X10233571Y-21527143D01*
X10262143Y-21527143D01*
X10281190Y-21536667D01*
X10290714Y-21555714D01*
X10290714Y-21660476D01*
X10414524Y-21660476D02*
X10395476Y-21650952D01*
X10385952Y-21641429D01*
X10376429Y-21622381D01*
X10376429Y-21565238D01*
X10385952Y-21546190D01*
X10395476Y-21536667D01*
X10414524Y-21527143D01*
X10443095Y-21527143D01*
X10462143Y-21536667D01*
X10471667Y-21546190D01*
X10481190Y-21565238D01*
X10481190Y-21622381D01*
X10471667Y-21641429D01*
X10462143Y-21650952D01*
X10443095Y-21660476D01*
X10414524Y-21660476D01*
X10538333Y-21527143D02*
X10614524Y-21527143D01*
X10566905Y-21460476D02*
X10566905Y-21631905D01*
X10576429Y-21650952D01*
X10595476Y-21660476D01*
X10614524Y-21660476D01*
X10833571Y-21527143D02*
X10833571Y-21727143D01*
X10833571Y-21536667D02*
X10852619Y-21527143D01*
X10890714Y-21527143D01*
X10909762Y-21536667D01*
X10919286Y-21546190D01*
X10928810Y-21565238D01*
X10928810Y-21622381D01*
X10919286Y-21641429D01*
X10909762Y-21650952D01*
X10890714Y-21660476D01*
X10852619Y-21660476D01*
X10833571Y-21650952D01*
X11043095Y-21660476D02*
X11024048Y-21650952D01*
X11014524Y-21631905D01*
X11014524Y-21460476D01*
X11205000Y-21660476D02*
X11205000Y-21555714D01*
X11195476Y-21536667D01*
X11176429Y-21527143D01*
X11138333Y-21527143D01*
X11119286Y-21536667D01*
X11205000Y-21650952D02*
X11185952Y-21660476D01*
X11138333Y-21660476D01*
X11119286Y-21650952D01*
X11109762Y-21631905D01*
X11109762Y-21612857D01*
X11119286Y-21593810D01*
X11138333Y-21584286D01*
X11185952Y-21584286D01*
X11205000Y-21574762D01*
X11271667Y-21527143D02*
X11347857Y-21527143D01*
X11300238Y-21460476D02*
X11300238Y-21631905D01*
X11309762Y-21650952D01*
X11328809Y-21660476D01*
X11347857Y-21660476D01*
X11490714Y-21650952D02*
X11471667Y-21660476D01*
X11433571Y-21660476D01*
X11414524Y-21650952D01*
X11405000Y-21631905D01*
X11405000Y-21555714D01*
X11414524Y-21536667D01*
X11433571Y-21527143D01*
X11471667Y-21527143D01*
X11490714Y-21536667D01*
X11500238Y-21555714D01*
X11500238Y-21574762D01*
X11405000Y-21593810D01*
X11671667Y-21660476D02*
X11671667Y-21460476D01*
X11671667Y-21650952D02*
X11652619Y-21660476D01*
X11614524Y-21660476D01*
X11595476Y-21650952D01*
X11585952Y-21641429D01*
X11576428Y-21622381D01*
X11576428Y-21565238D01*
X11585952Y-21546190D01*
X11595476Y-21536667D01*
X11614524Y-21527143D01*
X11652619Y-21527143D01*
X11671667Y-21536667D01*
X11747857Y-21736667D02*
X11757381Y-21727143D01*
X11776428Y-21698571D01*
X11785952Y-21679524D01*
X11795476Y-21650952D01*
X11805000Y-21603333D01*
X11805000Y-21565238D01*
X11795476Y-21517619D01*
X11785952Y-21489048D01*
X11776428Y-21470000D01*
X11757381Y-21441429D01*
X11747857Y-21431905D01*
D13*
X4995000Y-21840000D02*
G75*
G03*
X4995000Y-21840000I-87500J0D01*
G01*
D11*
X5357381Y-21930476D02*
X5243095Y-21930476D01*
X5300238Y-21930476D02*
X5300238Y-21730476D01*
X5281190Y-21759048D01*
X5262143Y-21778095D01*
X5243095Y-21787619D01*
X5443095Y-21911429D02*
X5452619Y-21920952D01*
X5443095Y-21930476D01*
X5433571Y-21920952D01*
X5443095Y-21911429D01*
X5443095Y-21930476D01*
X5519286Y-21730476D02*
X5652619Y-21730476D01*
X5566905Y-21930476D01*
X5824048Y-21730476D02*
X5728809Y-21730476D01*
X5719286Y-21825714D01*
X5728809Y-21816190D01*
X5747857Y-21806667D01*
X5795476Y-21806667D01*
X5814524Y-21816190D01*
X5824048Y-21825714D01*
X5833571Y-21844762D01*
X5833571Y-21892381D01*
X5824048Y-21911429D01*
X5814524Y-21920952D01*
X5795476Y-21930476D01*
X5747857Y-21930476D01*
X5728809Y-21920952D01*
X5719286Y-21911429D01*
X5957381Y-21730476D02*
X5976428Y-21730476D01*
X5995476Y-21740000D01*
X6005000Y-21749524D01*
X6014524Y-21768571D01*
X6024048Y-21806667D01*
X6024048Y-21854286D01*
X6014524Y-21892381D01*
X6005000Y-21911429D01*
X5995476Y-21920952D01*
X5976428Y-21930476D01*
X5957381Y-21930476D01*
X5938333Y-21920952D01*
X5928809Y-21911429D01*
X5919286Y-21892381D01*
X5909762Y-21854286D01*
X5909762Y-21806667D01*
X5919286Y-21768571D01*
X5928809Y-21749524D01*
X5938333Y-21740000D01*
X5957381Y-21730476D01*
X6109762Y-21930476D02*
X6109762Y-21797143D01*
X6109762Y-21816190D02*
X6119286Y-21806667D01*
X6138333Y-21797143D01*
X6166905Y-21797143D01*
X6185952Y-21806667D01*
X6195476Y-21825714D01*
X6195476Y-21930476D01*
X6195476Y-21825714D02*
X6205000Y-21806667D01*
X6224048Y-21797143D01*
X6252619Y-21797143D01*
X6271667Y-21806667D01*
X6281190Y-21825714D01*
X6281190Y-21930476D01*
X6376428Y-21930476D02*
X6376428Y-21797143D01*
X6376428Y-21816190D02*
X6385952Y-21806667D01*
X6405000Y-21797143D01*
X6433571Y-21797143D01*
X6452619Y-21806667D01*
X6462143Y-21825714D01*
X6462143Y-21930476D01*
X6462143Y-21825714D02*
X6471667Y-21806667D01*
X6490714Y-21797143D01*
X6519286Y-21797143D01*
X6538333Y-21806667D01*
X6547857Y-21825714D01*
X6547857Y-21930476D01*
X6938333Y-21720952D02*
X6766905Y-21978095D01*
X7195476Y-21730476D02*
X7214524Y-21730476D01*
X7233571Y-21740000D01*
X7243095Y-21749524D01*
X7252619Y-21768571D01*
X7262143Y-21806667D01*
X7262143Y-21854286D01*
X7252619Y-21892381D01*
X7243095Y-21911429D01*
X7233571Y-21920952D01*
X7214524Y-21930476D01*
X7195476Y-21930476D01*
X7176428Y-21920952D01*
X7166905Y-21911429D01*
X7157381Y-21892381D01*
X7147857Y-21854286D01*
X7147857Y-21806667D01*
X7157381Y-21768571D01*
X7166905Y-21749524D01*
X7176428Y-21740000D01*
X7195476Y-21730476D01*
X7347857Y-21911429D02*
X7357381Y-21920952D01*
X7347857Y-21930476D01*
X7338333Y-21920952D01*
X7347857Y-21911429D01*
X7347857Y-21930476D01*
X7481190Y-21730476D02*
X7500238Y-21730476D01*
X7519286Y-21740000D01*
X7528809Y-21749524D01*
X7538333Y-21768571D01*
X7547857Y-21806667D01*
X7547857Y-21854286D01*
X7538333Y-21892381D01*
X7528809Y-21911429D01*
X7519286Y-21920952D01*
X7500238Y-21930476D01*
X7481190Y-21930476D01*
X7462143Y-21920952D01*
X7452619Y-21911429D01*
X7443095Y-21892381D01*
X7433571Y-21854286D01*
X7433571Y-21806667D01*
X7443095Y-21768571D01*
X7452619Y-21749524D01*
X7462143Y-21740000D01*
X7481190Y-21730476D01*
X7719286Y-21730476D02*
X7681190Y-21730476D01*
X7662143Y-21740000D01*
X7652619Y-21749524D01*
X7633571Y-21778095D01*
X7624048Y-21816190D01*
X7624048Y-21892381D01*
X7633571Y-21911429D01*
X7643095Y-21920952D01*
X7662143Y-21930476D01*
X7700238Y-21930476D01*
X7719286Y-21920952D01*
X7728809Y-21911429D01*
X7738333Y-21892381D01*
X7738333Y-21844762D01*
X7728809Y-21825714D01*
X7719286Y-21816190D01*
X7700238Y-21806667D01*
X7662143Y-21806667D01*
X7643095Y-21816190D01*
X7633571Y-21825714D01*
X7624048Y-21844762D01*
X7852619Y-21816190D02*
X7833571Y-21806667D01*
X7824048Y-21797143D01*
X7814524Y-21778095D01*
X7814524Y-21768571D01*
X7824048Y-21749524D01*
X7833571Y-21740000D01*
X7852619Y-21730476D01*
X7890714Y-21730476D01*
X7909762Y-21740000D01*
X7919286Y-21749524D01*
X7928809Y-21768571D01*
X7928809Y-21778095D01*
X7919286Y-21797143D01*
X7909762Y-21806667D01*
X7890714Y-21816190D01*
X7852619Y-21816190D01*
X7833571Y-21825714D01*
X7824048Y-21835238D01*
X7814524Y-21854286D01*
X7814524Y-21892381D01*
X7824048Y-21911429D01*
X7833571Y-21920952D01*
X7852619Y-21930476D01*
X7890714Y-21930476D01*
X7909762Y-21920952D01*
X7919286Y-21911429D01*
X7928809Y-21892381D01*
X7928809Y-21854286D01*
X7919286Y-21835238D01*
X7909762Y-21825714D01*
X7890714Y-21816190D01*
X8024048Y-21930476D02*
X8062143Y-21930476D01*
X8081190Y-21920952D01*
X8090714Y-21911429D01*
X8109762Y-21882857D01*
X8119286Y-21844762D01*
X8119286Y-21768571D01*
X8109762Y-21749524D01*
X8100238Y-21740000D01*
X8081190Y-21730476D01*
X8043095Y-21730476D01*
X8024048Y-21740000D01*
X8014524Y-21749524D01*
X8005000Y-21768571D01*
X8005000Y-21816190D01*
X8014524Y-21835238D01*
X8024048Y-21844762D01*
X8043095Y-21854286D01*
X8081190Y-21854286D01*
X8100238Y-21844762D01*
X8109762Y-21835238D01*
X8119286Y-21816190D01*
X8195476Y-21730476D02*
X8195476Y-21768571D01*
X8271667Y-21730476D02*
X8271667Y-21768571D01*
X8566905Y-22006667D02*
X8557381Y-21997143D01*
X8538333Y-21968571D01*
X8528810Y-21949524D01*
X8519286Y-21920952D01*
X8509762Y-21873333D01*
X8509762Y-21835238D01*
X8519286Y-21787619D01*
X8528810Y-21759048D01*
X8538333Y-21740000D01*
X8557381Y-21711429D01*
X8566905Y-21701905D01*
X8747857Y-21930476D02*
X8633571Y-21930476D01*
X8690714Y-21930476D02*
X8690714Y-21730476D01*
X8671667Y-21759048D01*
X8652619Y-21778095D01*
X8633571Y-21787619D01*
X8814524Y-21730476D02*
X8938333Y-21730476D01*
X8871667Y-21806667D01*
X8900238Y-21806667D01*
X8919286Y-21816190D01*
X8928810Y-21825714D01*
X8938333Y-21844762D01*
X8938333Y-21892381D01*
X8928810Y-21911429D01*
X8919286Y-21920952D01*
X8900238Y-21930476D01*
X8843095Y-21930476D01*
X8824048Y-21920952D01*
X8814524Y-21911429D01*
X9109762Y-21730476D02*
X9071667Y-21730476D01*
X9052619Y-21740000D01*
X9043095Y-21749524D01*
X9024048Y-21778095D01*
X9014524Y-21816190D01*
X9014524Y-21892381D01*
X9024048Y-21911429D01*
X9033571Y-21920952D01*
X9052619Y-21930476D01*
X9090714Y-21930476D01*
X9109762Y-21920952D01*
X9119286Y-21911429D01*
X9128810Y-21892381D01*
X9128810Y-21844762D01*
X9119286Y-21825714D01*
X9109762Y-21816190D01*
X9090714Y-21806667D01*
X9052619Y-21806667D01*
X9033571Y-21816190D01*
X9024048Y-21825714D01*
X9014524Y-21844762D01*
X9366905Y-21930476D02*
X9366905Y-21730476D01*
X9452619Y-21930476D02*
X9452619Y-21825714D01*
X9443095Y-21806667D01*
X9424048Y-21797143D01*
X9395476Y-21797143D01*
X9376429Y-21806667D01*
X9366905Y-21816190D01*
X9576429Y-21930476D02*
X9557381Y-21920952D01*
X9547857Y-21911429D01*
X9538333Y-21892381D01*
X9538333Y-21835238D01*
X9547857Y-21816190D01*
X9557381Y-21806667D01*
X9576429Y-21797143D01*
X9605000Y-21797143D01*
X9624048Y-21806667D01*
X9633571Y-21816190D01*
X9643095Y-21835238D01*
X9643095Y-21892381D01*
X9633571Y-21911429D01*
X9624048Y-21920952D01*
X9605000Y-21930476D01*
X9576429Y-21930476D01*
X9757381Y-21930476D02*
X9738333Y-21920952D01*
X9728810Y-21901905D01*
X9728810Y-21730476D01*
X9909762Y-21920952D02*
X9890714Y-21930476D01*
X9852619Y-21930476D01*
X9833571Y-21920952D01*
X9824048Y-21901905D01*
X9824048Y-21825714D01*
X9833571Y-21806667D01*
X9852619Y-21797143D01*
X9890714Y-21797143D01*
X9909762Y-21806667D01*
X9919286Y-21825714D01*
X9919286Y-21844762D01*
X9824048Y-21863810D01*
X9995476Y-21920952D02*
X10014524Y-21930476D01*
X10052619Y-21930476D01*
X10071667Y-21920952D01*
X10081190Y-21901905D01*
X10081190Y-21892381D01*
X10071667Y-21873333D01*
X10052619Y-21863810D01*
X10024048Y-21863810D01*
X10005000Y-21854286D01*
X9995476Y-21835238D01*
X9995476Y-21825714D01*
X10005000Y-21806667D01*
X10024048Y-21797143D01*
X10052619Y-21797143D01*
X10071667Y-21806667D01*
X10147857Y-22006667D02*
X10157381Y-21997143D01*
X10176429Y-21968571D01*
X10185952Y-21949524D01*
X10195476Y-21920952D01*
X10205000Y-21873333D01*
X10205000Y-21835238D01*
X10195476Y-21787619D01*
X10185952Y-21759048D01*
X10176429Y-21740000D01*
X10157381Y-21711429D01*
X10147857Y-21701905D01*
X10509762Y-22006667D02*
X10500238Y-21997143D01*
X10481190Y-21968571D01*
X10471667Y-21949524D01*
X10462143Y-21920952D01*
X10452619Y-21873333D01*
X10452619Y-21835238D01*
X10462143Y-21787619D01*
X10471667Y-21759048D01*
X10481190Y-21740000D01*
X10500238Y-21711429D01*
X10509762Y-21701905D01*
X10585952Y-21797143D02*
X10585952Y-21930476D01*
X10585952Y-21816190D02*
X10595476Y-21806667D01*
X10614524Y-21797143D01*
X10643095Y-21797143D01*
X10662143Y-21806667D01*
X10671667Y-21825714D01*
X10671667Y-21930476D01*
X10795476Y-21930476D02*
X10776429Y-21920952D01*
X10766905Y-21911429D01*
X10757381Y-21892381D01*
X10757381Y-21835238D01*
X10766905Y-21816190D01*
X10776429Y-21806667D01*
X10795476Y-21797143D01*
X10824048Y-21797143D01*
X10843095Y-21806667D01*
X10852619Y-21816190D01*
X10862143Y-21835238D01*
X10862143Y-21892381D01*
X10852619Y-21911429D01*
X10843095Y-21920952D01*
X10824048Y-21930476D01*
X10795476Y-21930476D01*
X10919286Y-21797143D02*
X10995476Y-21797143D01*
X10947857Y-21730476D02*
X10947857Y-21901905D01*
X10957381Y-21920952D01*
X10976429Y-21930476D01*
X10995476Y-21930476D01*
X11214524Y-21797143D02*
X11214524Y-21997143D01*
X11214524Y-21806667D02*
X11233571Y-21797143D01*
X11271667Y-21797143D01*
X11290714Y-21806667D01*
X11300238Y-21816190D01*
X11309762Y-21835238D01*
X11309762Y-21892381D01*
X11300238Y-21911429D01*
X11290714Y-21920952D01*
X11271667Y-21930476D01*
X11233571Y-21930476D01*
X11214524Y-21920952D01*
X11424048Y-21930476D02*
X11405000Y-21920952D01*
X11395476Y-21901905D01*
X11395476Y-21730476D01*
X11585952Y-21930476D02*
X11585952Y-21825714D01*
X11576428Y-21806667D01*
X11557381Y-21797143D01*
X11519286Y-21797143D01*
X11500238Y-21806667D01*
X11585952Y-21920952D02*
X11566905Y-21930476D01*
X11519286Y-21930476D01*
X11500238Y-21920952D01*
X11490714Y-21901905D01*
X11490714Y-21882857D01*
X11500238Y-21863810D01*
X11519286Y-21854286D01*
X11566905Y-21854286D01*
X11585952Y-21844762D01*
X11652619Y-21797143D02*
X11728809Y-21797143D01*
X11681190Y-21730476D02*
X11681190Y-21901905D01*
X11690714Y-21920952D01*
X11709762Y-21930476D01*
X11728809Y-21930476D01*
X11871667Y-21920952D02*
X11852619Y-21930476D01*
X11814524Y-21930476D01*
X11795476Y-21920952D01*
X11785952Y-21901905D01*
X11785952Y-21825714D01*
X11795476Y-21806667D01*
X11814524Y-21797143D01*
X11852619Y-21797143D01*
X11871667Y-21806667D01*
X11881190Y-21825714D01*
X11881190Y-21844762D01*
X11785952Y-21863810D01*
X12052619Y-21930476D02*
X12052619Y-21730476D01*
X12052619Y-21920952D02*
X12033571Y-21930476D01*
X11995476Y-21930476D01*
X11976428Y-21920952D01*
X11966905Y-21911429D01*
X11957381Y-21892381D01*
X11957381Y-21835238D01*
X11966905Y-21816190D01*
X11976428Y-21806667D01*
X11995476Y-21797143D01*
X12033571Y-21797143D01*
X12052619Y-21806667D01*
X12128809Y-22006667D02*
X12138333Y-21997143D01*
X12157381Y-21968571D01*
X12166905Y-21949524D01*
X12176428Y-21920952D01*
X12185952Y-21873333D01*
X12185952Y-21835238D01*
X12176428Y-21787619D01*
X12166905Y-21759048D01*
X12157381Y-21740000D01*
X12138333Y-21711429D01*
X12128809Y-21701905D01*
D14*
X4905000Y-22045000D02*
X4905000Y-22225000D01*
X4815000Y-22135000D02*
X4995000Y-22135000D01*
D11*
X5357381Y-22225476D02*
X5243095Y-22225476D01*
X5300238Y-22225476D02*
X5300238Y-22025476D01*
X5281190Y-22054048D01*
X5262143Y-22073095D01*
X5243095Y-22082619D01*
X5443095Y-22206429D02*
X5452619Y-22215952D01*
X5443095Y-22225476D01*
X5433571Y-22215952D01*
X5443095Y-22206429D01*
X5443095Y-22225476D01*
X5566905Y-22111190D02*
X5547857Y-22101667D01*
X5538333Y-22092143D01*
X5528810Y-22073095D01*
X5528810Y-22063571D01*
X5538333Y-22044524D01*
X5547857Y-22035000D01*
X5566905Y-22025476D01*
X5605000Y-22025476D01*
X5624048Y-22035000D01*
X5633571Y-22044524D01*
X5643095Y-22063571D01*
X5643095Y-22073095D01*
X5633571Y-22092143D01*
X5624048Y-22101667D01*
X5605000Y-22111190D01*
X5566905Y-22111190D01*
X5547857Y-22120714D01*
X5538333Y-22130238D01*
X5528810Y-22149286D01*
X5528810Y-22187381D01*
X5538333Y-22206429D01*
X5547857Y-22215952D01*
X5566905Y-22225476D01*
X5605000Y-22225476D01*
X5624048Y-22215952D01*
X5633571Y-22206429D01*
X5643095Y-22187381D01*
X5643095Y-22149286D01*
X5633571Y-22130238D01*
X5624048Y-22120714D01*
X5605000Y-22111190D01*
X5766905Y-22025476D02*
X5785952Y-22025476D01*
X5805000Y-22035000D01*
X5814524Y-22044524D01*
X5824048Y-22063571D01*
X5833571Y-22101667D01*
X5833571Y-22149286D01*
X5824048Y-22187381D01*
X5814524Y-22206429D01*
X5805000Y-22215952D01*
X5785952Y-22225476D01*
X5766905Y-22225476D01*
X5747857Y-22215952D01*
X5738333Y-22206429D01*
X5728809Y-22187381D01*
X5719286Y-22149286D01*
X5719286Y-22101667D01*
X5728809Y-22063571D01*
X5738333Y-22044524D01*
X5747857Y-22035000D01*
X5766905Y-22025476D01*
X5957381Y-22025476D02*
X5976428Y-22025476D01*
X5995476Y-22035000D01*
X6005000Y-22044524D01*
X6014524Y-22063571D01*
X6024048Y-22101667D01*
X6024048Y-22149286D01*
X6014524Y-22187381D01*
X6005000Y-22206429D01*
X5995476Y-22215952D01*
X5976428Y-22225476D01*
X5957381Y-22225476D01*
X5938333Y-22215952D01*
X5928809Y-22206429D01*
X5919286Y-22187381D01*
X5909762Y-22149286D01*
X5909762Y-22101667D01*
X5919286Y-22063571D01*
X5928809Y-22044524D01*
X5938333Y-22035000D01*
X5957381Y-22025476D01*
X6109762Y-22225476D02*
X6109762Y-22092143D01*
X6109762Y-22111190D02*
X6119286Y-22101667D01*
X6138333Y-22092143D01*
X6166905Y-22092143D01*
X6185952Y-22101667D01*
X6195476Y-22120714D01*
X6195476Y-22225476D01*
X6195476Y-22120714D02*
X6205000Y-22101667D01*
X6224048Y-22092143D01*
X6252619Y-22092143D01*
X6271667Y-22101667D01*
X6281190Y-22120714D01*
X6281190Y-22225476D01*
X6376428Y-22225476D02*
X6376428Y-22092143D01*
X6376428Y-22111190D02*
X6385952Y-22101667D01*
X6405000Y-22092143D01*
X6433571Y-22092143D01*
X6452619Y-22101667D01*
X6462143Y-22120714D01*
X6462143Y-22225476D01*
X6462143Y-22120714D02*
X6471667Y-22101667D01*
X6490714Y-22092143D01*
X6519286Y-22092143D01*
X6538333Y-22101667D01*
X6547857Y-22120714D01*
X6547857Y-22225476D01*
X6938333Y-22015952D02*
X6766905Y-22273095D01*
X7195476Y-22025476D02*
X7214524Y-22025476D01*
X7233571Y-22035000D01*
X7243095Y-22044524D01*
X7252619Y-22063571D01*
X7262143Y-22101667D01*
X7262143Y-22149286D01*
X7252619Y-22187381D01*
X7243095Y-22206429D01*
X7233571Y-22215952D01*
X7214524Y-22225476D01*
X7195476Y-22225476D01*
X7176428Y-22215952D01*
X7166905Y-22206429D01*
X7157381Y-22187381D01*
X7147857Y-22149286D01*
X7147857Y-22101667D01*
X7157381Y-22063571D01*
X7166905Y-22044524D01*
X7176428Y-22035000D01*
X7195476Y-22025476D01*
X7347857Y-22206429D02*
X7357381Y-22215952D01*
X7347857Y-22225476D01*
X7338333Y-22215952D01*
X7347857Y-22206429D01*
X7347857Y-22225476D01*
X7481190Y-22025476D02*
X7500238Y-22025476D01*
X7519286Y-22035000D01*
X7528809Y-22044524D01*
X7538333Y-22063571D01*
X7547857Y-22101667D01*
X7547857Y-22149286D01*
X7538333Y-22187381D01*
X7528809Y-22206429D01*
X7519286Y-22215952D01*
X7500238Y-22225476D01*
X7481190Y-22225476D01*
X7462143Y-22215952D01*
X7452619Y-22206429D01*
X7443095Y-22187381D01*
X7433571Y-22149286D01*
X7433571Y-22101667D01*
X7443095Y-22063571D01*
X7452619Y-22044524D01*
X7462143Y-22035000D01*
X7481190Y-22025476D01*
X7614524Y-22025476D02*
X7747857Y-22025476D01*
X7662143Y-22225476D01*
X7862143Y-22025476D02*
X7881190Y-22025476D01*
X7900238Y-22035000D01*
X7909762Y-22044524D01*
X7919286Y-22063571D01*
X7928809Y-22101667D01*
X7928809Y-22149286D01*
X7919286Y-22187381D01*
X7909762Y-22206429D01*
X7900238Y-22215952D01*
X7881190Y-22225476D01*
X7862143Y-22225476D01*
X7843095Y-22215952D01*
X7833571Y-22206429D01*
X7824048Y-22187381D01*
X7814524Y-22149286D01*
X7814524Y-22101667D01*
X7824048Y-22063571D01*
X7833571Y-22044524D01*
X7843095Y-22035000D01*
X7862143Y-22025476D01*
X8024048Y-22225476D02*
X8062143Y-22225476D01*
X8081190Y-22215952D01*
X8090714Y-22206429D01*
X8109762Y-22177857D01*
X8119286Y-22139762D01*
X8119286Y-22063571D01*
X8109762Y-22044524D01*
X8100238Y-22035000D01*
X8081190Y-22025476D01*
X8043095Y-22025476D01*
X8024048Y-22035000D01*
X8014524Y-22044524D01*
X8005000Y-22063571D01*
X8005000Y-22111190D01*
X8014524Y-22130238D01*
X8024048Y-22139762D01*
X8043095Y-22149286D01*
X8081190Y-22149286D01*
X8100238Y-22139762D01*
X8109762Y-22130238D01*
X8119286Y-22111190D01*
X8195476Y-22025476D02*
X8195476Y-22063571D01*
X8271667Y-22025476D02*
X8271667Y-22063571D01*
X8566905Y-22301667D02*
X8557381Y-22292143D01*
X8538333Y-22263571D01*
X8528810Y-22244524D01*
X8519286Y-22215952D01*
X8509762Y-22168333D01*
X8509762Y-22130238D01*
X8519286Y-22082619D01*
X8528810Y-22054048D01*
X8538333Y-22035000D01*
X8557381Y-22006429D01*
X8566905Y-21996905D01*
X8633571Y-22044524D02*
X8643095Y-22035000D01*
X8662143Y-22025476D01*
X8709762Y-22025476D01*
X8728810Y-22035000D01*
X8738333Y-22044524D01*
X8747857Y-22063571D01*
X8747857Y-22082619D01*
X8738333Y-22111190D01*
X8624048Y-22225476D01*
X8747857Y-22225476D01*
X8985952Y-22225476D02*
X8985952Y-22025476D01*
X9071667Y-22225476D02*
X9071667Y-22120714D01*
X9062143Y-22101667D01*
X9043095Y-22092143D01*
X9014524Y-22092143D01*
X8995476Y-22101667D01*
X8985952Y-22111190D01*
X9195476Y-22225476D02*
X9176429Y-22215952D01*
X9166905Y-22206429D01*
X9157381Y-22187381D01*
X9157381Y-22130238D01*
X9166905Y-22111190D01*
X9176429Y-22101667D01*
X9195476Y-22092143D01*
X9224048Y-22092143D01*
X9243095Y-22101667D01*
X9252619Y-22111190D01*
X9262143Y-22130238D01*
X9262143Y-22187381D01*
X9252619Y-22206429D01*
X9243095Y-22215952D01*
X9224048Y-22225476D01*
X9195476Y-22225476D01*
X9376429Y-22225476D02*
X9357381Y-22215952D01*
X9347857Y-22196905D01*
X9347857Y-22025476D01*
X9528810Y-22215952D02*
X9509762Y-22225476D01*
X9471667Y-22225476D01*
X9452619Y-22215952D01*
X9443095Y-22196905D01*
X9443095Y-22120714D01*
X9452619Y-22101667D01*
X9471667Y-22092143D01*
X9509762Y-22092143D01*
X9528810Y-22101667D01*
X9538333Y-22120714D01*
X9538333Y-22139762D01*
X9443095Y-22158810D01*
X9614524Y-22215952D02*
X9633571Y-22225476D01*
X9671667Y-22225476D01*
X9690714Y-22215952D01*
X9700238Y-22196905D01*
X9700238Y-22187381D01*
X9690714Y-22168333D01*
X9671667Y-22158810D01*
X9643095Y-22158810D01*
X9624048Y-22149286D01*
X9614524Y-22130238D01*
X9614524Y-22120714D01*
X9624048Y-22101667D01*
X9643095Y-22092143D01*
X9671667Y-22092143D01*
X9690714Y-22101667D01*
X9766905Y-22301667D02*
X9776429Y-22292143D01*
X9795476Y-22263571D01*
X9805000Y-22244524D01*
X9814524Y-22215952D01*
X9824048Y-22168333D01*
X9824048Y-22130238D01*
X9814524Y-22082619D01*
X9805000Y-22054048D01*
X9795476Y-22035000D01*
X9776429Y-22006429D01*
X9766905Y-21996905D01*
X10128810Y-22301667D02*
X10119286Y-22292143D01*
X10100238Y-22263571D01*
X10090714Y-22244524D01*
X10081190Y-22215952D01*
X10071667Y-22168333D01*
X10071667Y-22130238D01*
X10081190Y-22082619D01*
X10090714Y-22054048D01*
X10100238Y-22035000D01*
X10119286Y-22006429D01*
X10128810Y-21996905D01*
X10205000Y-22092143D02*
X10205000Y-22225476D01*
X10205000Y-22111190D02*
X10214524Y-22101667D01*
X10233571Y-22092143D01*
X10262143Y-22092143D01*
X10281190Y-22101667D01*
X10290714Y-22120714D01*
X10290714Y-22225476D01*
X10414524Y-22225476D02*
X10395476Y-22215952D01*
X10385952Y-22206429D01*
X10376429Y-22187381D01*
X10376429Y-22130238D01*
X10385952Y-22111190D01*
X10395476Y-22101667D01*
X10414524Y-22092143D01*
X10443095Y-22092143D01*
X10462143Y-22101667D01*
X10471667Y-22111190D01*
X10481190Y-22130238D01*
X10481190Y-22187381D01*
X10471667Y-22206429D01*
X10462143Y-22215952D01*
X10443095Y-22225476D01*
X10414524Y-22225476D01*
X10538333Y-22092143D02*
X10614524Y-22092143D01*
X10566905Y-22025476D02*
X10566905Y-22196905D01*
X10576429Y-22215952D01*
X10595476Y-22225476D01*
X10614524Y-22225476D01*
X10833571Y-22092143D02*
X10833571Y-22292143D01*
X10833571Y-22101667D02*
X10852619Y-22092143D01*
X10890714Y-22092143D01*
X10909762Y-22101667D01*
X10919286Y-22111190D01*
X10928810Y-22130238D01*
X10928810Y-22187381D01*
X10919286Y-22206429D01*
X10909762Y-22215952D01*
X10890714Y-22225476D01*
X10852619Y-22225476D01*
X10833571Y-22215952D01*
X11043095Y-22225476D02*
X11024048Y-22215952D01*
X11014524Y-22196905D01*
X11014524Y-22025476D01*
X11205000Y-22225476D02*
X11205000Y-22120714D01*
X11195476Y-22101667D01*
X11176429Y-22092143D01*
X11138333Y-22092143D01*
X11119286Y-22101667D01*
X11205000Y-22215952D02*
X11185952Y-22225476D01*
X11138333Y-22225476D01*
X11119286Y-22215952D01*
X11109762Y-22196905D01*
X11109762Y-22177857D01*
X11119286Y-22158810D01*
X11138333Y-22149286D01*
X11185952Y-22149286D01*
X11205000Y-22139762D01*
X11271667Y-22092143D02*
X11347857Y-22092143D01*
X11300238Y-22025476D02*
X11300238Y-22196905D01*
X11309762Y-22215952D01*
X11328809Y-22225476D01*
X11347857Y-22225476D01*
X11490714Y-22215952D02*
X11471667Y-22225476D01*
X11433571Y-22225476D01*
X11414524Y-22215952D01*
X11405000Y-22196905D01*
X11405000Y-22120714D01*
X11414524Y-22101667D01*
X11433571Y-22092143D01*
X11471667Y-22092143D01*
X11490714Y-22101667D01*
X11500238Y-22120714D01*
X11500238Y-22139762D01*
X11405000Y-22158810D01*
X11671667Y-22225476D02*
X11671667Y-22025476D01*
X11671667Y-22215952D02*
X11652619Y-22225476D01*
X11614524Y-22225476D01*
X11595476Y-22215952D01*
X11585952Y-22206429D01*
X11576428Y-22187381D01*
X11576428Y-22130238D01*
X11585952Y-22111190D01*
X11595476Y-22101667D01*
X11614524Y-22092143D01*
X11652619Y-22092143D01*
X11671667Y-22101667D01*
X11747857Y-22301667D02*
X11757381Y-22292143D01*
X11776428Y-22263571D01*
X11785952Y-22244524D01*
X11795476Y-22215952D01*
X11805000Y-22168333D01*
X11805000Y-22130238D01*
X11795476Y-22082619D01*
X11785952Y-22054048D01*
X11776428Y-22035000D01*
X11757381Y-22006429D01*
X11747857Y-21996905D01*
X4965711Y-22505711D02*
X4965711Y-22364289D01*
X4824289Y-22364289D01*
X4824289Y-22505711D01*
X4965711Y-22505711D01*
X5233571Y-22325476D02*
X5357381Y-22325476D01*
X5290714Y-22401667D01*
X5319286Y-22401667D01*
X5338333Y-22411190D01*
X5347857Y-22420714D01*
X5357381Y-22439762D01*
X5357381Y-22487381D01*
X5347857Y-22506428D01*
X5338333Y-22515952D01*
X5319286Y-22525476D01*
X5262143Y-22525476D01*
X5243095Y-22515952D01*
X5233571Y-22506428D01*
X5443095Y-22506428D02*
X5452619Y-22515952D01*
X5443095Y-22525476D01*
X5433571Y-22515952D01*
X5443095Y-22506428D01*
X5443095Y-22525476D01*
X5576429Y-22325476D02*
X5595476Y-22325476D01*
X5614524Y-22335000D01*
X5624048Y-22344524D01*
X5633571Y-22363571D01*
X5643095Y-22401667D01*
X5643095Y-22449286D01*
X5633571Y-22487381D01*
X5624048Y-22506428D01*
X5614524Y-22515952D01*
X5595476Y-22525476D01*
X5576429Y-22525476D01*
X5557381Y-22515952D01*
X5547857Y-22506428D01*
X5538333Y-22487381D01*
X5528810Y-22449286D01*
X5528810Y-22401667D01*
X5538333Y-22363571D01*
X5547857Y-22344524D01*
X5557381Y-22335000D01*
X5576429Y-22325476D01*
X5814524Y-22392143D02*
X5814524Y-22525476D01*
X5766905Y-22315952D02*
X5719286Y-22458809D01*
X5843095Y-22458809D01*
X5947857Y-22411190D02*
X5928809Y-22401667D01*
X5919286Y-22392143D01*
X5909762Y-22373095D01*
X5909762Y-22363571D01*
X5919286Y-22344524D01*
X5928809Y-22335000D01*
X5947857Y-22325476D01*
X5985952Y-22325476D01*
X6005000Y-22335000D01*
X6014524Y-22344524D01*
X6024048Y-22363571D01*
X6024048Y-22373095D01*
X6014524Y-22392143D01*
X6005000Y-22401667D01*
X5985952Y-22411190D01*
X5947857Y-22411190D01*
X5928809Y-22420714D01*
X5919286Y-22430238D01*
X5909762Y-22449286D01*
X5909762Y-22487381D01*
X5919286Y-22506428D01*
X5928809Y-22515952D01*
X5947857Y-22525476D01*
X5985952Y-22525476D01*
X6005000Y-22515952D01*
X6014524Y-22506428D01*
X6024048Y-22487381D01*
X6024048Y-22449286D01*
X6014524Y-22430238D01*
X6005000Y-22420714D01*
X5985952Y-22411190D01*
X6109762Y-22525476D02*
X6109762Y-22392143D01*
X6109762Y-22411190D02*
X6119286Y-22401667D01*
X6138333Y-22392143D01*
X6166905Y-22392143D01*
X6185952Y-22401667D01*
X6195476Y-22420714D01*
X6195476Y-22525476D01*
X6195476Y-22420714D02*
X6205000Y-22401667D01*
X6224048Y-22392143D01*
X6252619Y-22392143D01*
X6271667Y-22401667D01*
X6281190Y-22420714D01*
X6281190Y-22525476D01*
X6376428Y-22525476D02*
X6376428Y-22392143D01*
X6376428Y-22411190D02*
X6385952Y-22401667D01*
X6405000Y-22392143D01*
X6433571Y-22392143D01*
X6452619Y-22401667D01*
X6462143Y-22420714D01*
X6462143Y-22525476D01*
X6462143Y-22420714D02*
X6471667Y-22401667D01*
X6490714Y-22392143D01*
X6519286Y-22392143D01*
X6538333Y-22401667D01*
X6547857Y-22420714D01*
X6547857Y-22525476D01*
X6938333Y-22315952D02*
X6766905Y-22573095D01*
X7195476Y-22325476D02*
X7214524Y-22325476D01*
X7233571Y-22335000D01*
X7243095Y-22344524D01*
X7252619Y-22363571D01*
X7262143Y-22401667D01*
X7262143Y-22449286D01*
X7252619Y-22487381D01*
X7243095Y-22506428D01*
X7233571Y-22515952D01*
X7214524Y-22525476D01*
X7195476Y-22525476D01*
X7176428Y-22515952D01*
X7166905Y-22506428D01*
X7157381Y-22487381D01*
X7147857Y-22449286D01*
X7147857Y-22401667D01*
X7157381Y-22363571D01*
X7166905Y-22344524D01*
X7176428Y-22335000D01*
X7195476Y-22325476D01*
X7347857Y-22506428D02*
X7357381Y-22515952D01*
X7347857Y-22525476D01*
X7338333Y-22515952D01*
X7347857Y-22506428D01*
X7347857Y-22525476D01*
X7547857Y-22525476D02*
X7433571Y-22525476D01*
X7490714Y-22525476D02*
X7490714Y-22325476D01*
X7471667Y-22354048D01*
X7452619Y-22373095D01*
X7433571Y-22382619D01*
X7624048Y-22344524D02*
X7633571Y-22335000D01*
X7652619Y-22325476D01*
X7700238Y-22325476D01*
X7719286Y-22335000D01*
X7728809Y-22344524D01*
X7738333Y-22363571D01*
X7738333Y-22382619D01*
X7728809Y-22411190D01*
X7614524Y-22525476D01*
X7738333Y-22525476D01*
X7862143Y-22325476D02*
X7881190Y-22325476D01*
X7900238Y-22335000D01*
X7909762Y-22344524D01*
X7919286Y-22363571D01*
X7928809Y-22401667D01*
X7928809Y-22449286D01*
X7919286Y-22487381D01*
X7909762Y-22506428D01*
X7900238Y-22515952D01*
X7881190Y-22525476D01*
X7862143Y-22525476D01*
X7843095Y-22515952D01*
X7833571Y-22506428D01*
X7824048Y-22487381D01*
X7814524Y-22449286D01*
X7814524Y-22401667D01*
X7824048Y-22363571D01*
X7833571Y-22344524D01*
X7843095Y-22335000D01*
X7862143Y-22325476D01*
X8052619Y-22325476D02*
X8071667Y-22325476D01*
X8090714Y-22335000D01*
X8100238Y-22344524D01*
X8109762Y-22363571D01*
X8119286Y-22401667D01*
X8119286Y-22449286D01*
X8109762Y-22487381D01*
X8100238Y-22506428D01*
X8090714Y-22515952D01*
X8071667Y-22525476D01*
X8052619Y-22525476D01*
X8033571Y-22515952D01*
X8024048Y-22506428D01*
X8014524Y-22487381D01*
X8005000Y-22449286D01*
X8005000Y-22401667D01*
X8014524Y-22363571D01*
X8024048Y-22344524D01*
X8033571Y-22335000D01*
X8052619Y-22325476D01*
X8195476Y-22325476D02*
X8195476Y-22363571D01*
X8271667Y-22325476D02*
X8271667Y-22363571D01*
X8566905Y-22601667D02*
X8557381Y-22592143D01*
X8538333Y-22563571D01*
X8528810Y-22544524D01*
X8519286Y-22515952D01*
X8509762Y-22468333D01*
X8509762Y-22430238D01*
X8519286Y-22382619D01*
X8528810Y-22354048D01*
X8538333Y-22335000D01*
X8557381Y-22306429D01*
X8566905Y-22296905D01*
X8747857Y-22525476D02*
X8633571Y-22525476D01*
X8690714Y-22525476D02*
X8690714Y-22325476D01*
X8671667Y-22354048D01*
X8652619Y-22373095D01*
X8633571Y-22382619D01*
X8871667Y-22325476D02*
X8890714Y-22325476D01*
X8909762Y-22335000D01*
X8919286Y-22344524D01*
X8928810Y-22363571D01*
X8938333Y-22401667D01*
X8938333Y-22449286D01*
X8928810Y-22487381D01*
X8919286Y-22506428D01*
X8909762Y-22515952D01*
X8890714Y-22525476D01*
X8871667Y-22525476D01*
X8852619Y-22515952D01*
X8843095Y-22506428D01*
X8833571Y-22487381D01*
X8824048Y-22449286D01*
X8824048Y-22401667D01*
X8833571Y-22363571D01*
X8843095Y-22344524D01*
X8852619Y-22335000D01*
X8871667Y-22325476D01*
X9176429Y-22525476D02*
X9176429Y-22325476D01*
X9262143Y-22525476D02*
X9262143Y-22420714D01*
X9252619Y-22401667D01*
X9233571Y-22392143D01*
X9205000Y-22392143D01*
X9185952Y-22401667D01*
X9176429Y-22411190D01*
X9385952Y-22525476D02*
X9366905Y-22515952D01*
X9357381Y-22506428D01*
X9347857Y-22487381D01*
X9347857Y-22430238D01*
X9357381Y-22411190D01*
X9366905Y-22401667D01*
X9385952Y-22392143D01*
X9414524Y-22392143D01*
X9433571Y-22401667D01*
X9443095Y-22411190D01*
X9452619Y-22430238D01*
X9452619Y-22487381D01*
X9443095Y-22506428D01*
X9433571Y-22515952D01*
X9414524Y-22525476D01*
X9385952Y-22525476D01*
X9566905Y-22525476D02*
X9547857Y-22515952D01*
X9538333Y-22496905D01*
X9538333Y-22325476D01*
X9719286Y-22515952D02*
X9700238Y-22525476D01*
X9662143Y-22525476D01*
X9643095Y-22515952D01*
X9633571Y-22496905D01*
X9633571Y-22420714D01*
X9643095Y-22401667D01*
X9662143Y-22392143D01*
X9700238Y-22392143D01*
X9719286Y-22401667D01*
X9728810Y-22420714D01*
X9728810Y-22439762D01*
X9633571Y-22458809D01*
X9805000Y-22515952D02*
X9824048Y-22525476D01*
X9862143Y-22525476D01*
X9881190Y-22515952D01*
X9890714Y-22496905D01*
X9890714Y-22487381D01*
X9881190Y-22468333D01*
X9862143Y-22458809D01*
X9833571Y-22458809D01*
X9814524Y-22449286D01*
X9805000Y-22430238D01*
X9805000Y-22420714D01*
X9814524Y-22401667D01*
X9833571Y-22392143D01*
X9862143Y-22392143D01*
X9881190Y-22401667D01*
X9957381Y-22601667D02*
X9966905Y-22592143D01*
X9985952Y-22563571D01*
X9995476Y-22544524D01*
X10005000Y-22515952D01*
X10014524Y-22468333D01*
X10014524Y-22430238D01*
X10005000Y-22382619D01*
X9995476Y-22354048D01*
X9985952Y-22335000D01*
X9966905Y-22306429D01*
X9957381Y-22296905D01*
X10319286Y-22601667D02*
X10309762Y-22592143D01*
X10290714Y-22563571D01*
X10281190Y-22544524D01*
X10271667Y-22515952D01*
X10262143Y-22468333D01*
X10262143Y-22430238D01*
X10271667Y-22382619D01*
X10281190Y-22354048D01*
X10290714Y-22335000D01*
X10309762Y-22306429D01*
X10319286Y-22296905D01*
X10395476Y-22392143D02*
X10395476Y-22525476D01*
X10395476Y-22411190D02*
X10405000Y-22401667D01*
X10424048Y-22392143D01*
X10452619Y-22392143D01*
X10471667Y-22401667D01*
X10481190Y-22420714D01*
X10481190Y-22525476D01*
X10605000Y-22525476D02*
X10585952Y-22515952D01*
X10576429Y-22506428D01*
X10566905Y-22487381D01*
X10566905Y-22430238D01*
X10576429Y-22411190D01*
X10585952Y-22401667D01*
X10605000Y-22392143D01*
X10633571Y-22392143D01*
X10652619Y-22401667D01*
X10662143Y-22411190D01*
X10671667Y-22430238D01*
X10671667Y-22487381D01*
X10662143Y-22506428D01*
X10652619Y-22515952D01*
X10633571Y-22525476D01*
X10605000Y-22525476D01*
X10728810Y-22392143D02*
X10805000Y-22392143D01*
X10757381Y-22325476D02*
X10757381Y-22496905D01*
X10766905Y-22515952D01*
X10785952Y-22525476D01*
X10805000Y-22525476D01*
X11024048Y-22392143D02*
X11024048Y-22592143D01*
X11024048Y-22401667D02*
X11043095Y-22392143D01*
X11081190Y-22392143D01*
X11100238Y-22401667D01*
X11109762Y-22411190D01*
X11119286Y-22430238D01*
X11119286Y-22487381D01*
X11109762Y-22506428D01*
X11100238Y-22515952D01*
X11081190Y-22525476D01*
X11043095Y-22525476D01*
X11024048Y-22515952D01*
X11233571Y-22525476D02*
X11214524Y-22515952D01*
X11205000Y-22496905D01*
X11205000Y-22325476D01*
X11395476Y-22525476D02*
X11395476Y-22420714D01*
X11385952Y-22401667D01*
X11366905Y-22392143D01*
X11328809Y-22392143D01*
X11309762Y-22401667D01*
X11395476Y-22515952D02*
X11376428Y-22525476D01*
X11328809Y-22525476D01*
X11309762Y-22515952D01*
X11300238Y-22496905D01*
X11300238Y-22477857D01*
X11309762Y-22458809D01*
X11328809Y-22449286D01*
X11376428Y-22449286D01*
X11395476Y-22439762D01*
X11462143Y-22392143D02*
X11538333Y-22392143D01*
X11490714Y-22325476D02*
X11490714Y-22496905D01*
X11500238Y-22515952D01*
X11519286Y-22525476D01*
X11538333Y-22525476D01*
X11681190Y-22515952D02*
X11662143Y-22525476D01*
X11624048Y-22525476D01*
X11605000Y-22515952D01*
X11595476Y-22496905D01*
X11595476Y-22420714D01*
X11605000Y-22401667D01*
X11624048Y-22392143D01*
X11662143Y-22392143D01*
X11681190Y-22401667D01*
X11690714Y-22420714D01*
X11690714Y-22439762D01*
X11595476Y-22458809D01*
X11862143Y-22525476D02*
X11862143Y-22325476D01*
X11862143Y-22515952D02*
X11843095Y-22525476D01*
X11805000Y-22525476D01*
X11785952Y-22515952D01*
X11776428Y-22506428D01*
X11766905Y-22487381D01*
X11766905Y-22430238D01*
X11776428Y-22411190D01*
X11785952Y-22401667D01*
X11805000Y-22392143D01*
X11843095Y-22392143D01*
X11862143Y-22401667D01*
X11938333Y-22601667D02*
X11947857Y-22592143D01*
X11966905Y-22563571D01*
X11976428Y-22544524D01*
X11985952Y-22515952D01*
X11995476Y-22468333D01*
X11995476Y-22430238D01*
X11985952Y-22382619D01*
X11976428Y-22354048D01*
X11966905Y-22335000D01*
X11947857Y-22306429D01*
X11938333Y-22296905D01*
X4895000Y-22855000D02*
X4995000Y-22755000D01*
X4895000Y-22655000D01*
X4795000Y-22755000D01*
X4895000Y-22855000D01*
X5233571Y-22645476D02*
X5357381Y-22645476D01*
X5290714Y-22721667D01*
X5319286Y-22721667D01*
X5338333Y-22731190D01*
X5347857Y-22740714D01*
X5357381Y-22759762D01*
X5357381Y-22807381D01*
X5347857Y-22826428D01*
X5338333Y-22835952D01*
X5319286Y-22845476D01*
X5262143Y-22845476D01*
X5243095Y-22835952D01*
X5233571Y-22826428D01*
X5443095Y-22826428D02*
X5452619Y-22835952D01*
X5443095Y-22845476D01*
X5433571Y-22835952D01*
X5443095Y-22826428D01*
X5443095Y-22845476D01*
X5576429Y-22645476D02*
X5595476Y-22645476D01*
X5614524Y-22655000D01*
X5624048Y-22664524D01*
X5633571Y-22683571D01*
X5643095Y-22721667D01*
X5643095Y-22769286D01*
X5633571Y-22807381D01*
X5624048Y-22826428D01*
X5614524Y-22835952D01*
X5595476Y-22845476D01*
X5576429Y-22845476D01*
X5557381Y-22835952D01*
X5547857Y-22826428D01*
X5538333Y-22807381D01*
X5528810Y-22769286D01*
X5528810Y-22721667D01*
X5538333Y-22683571D01*
X5547857Y-22664524D01*
X5557381Y-22655000D01*
X5576429Y-22645476D01*
X5824048Y-22645476D02*
X5728809Y-22645476D01*
X5719286Y-22740714D01*
X5728809Y-22731190D01*
X5747857Y-22721667D01*
X5795476Y-22721667D01*
X5814524Y-22731190D01*
X5824048Y-22740714D01*
X5833571Y-22759762D01*
X5833571Y-22807381D01*
X5824048Y-22826428D01*
X5814524Y-22835952D01*
X5795476Y-22845476D01*
X5747857Y-22845476D01*
X5728809Y-22835952D01*
X5719286Y-22826428D01*
X5957381Y-22645476D02*
X5976428Y-22645476D01*
X5995476Y-22655000D01*
X6005000Y-22664524D01*
X6014524Y-22683571D01*
X6024048Y-22721667D01*
X6024048Y-22769286D01*
X6014524Y-22807381D01*
X6005000Y-22826428D01*
X5995476Y-22835952D01*
X5976428Y-22845476D01*
X5957381Y-22845476D01*
X5938333Y-22835952D01*
X5928809Y-22826428D01*
X5919286Y-22807381D01*
X5909762Y-22769286D01*
X5909762Y-22721667D01*
X5919286Y-22683571D01*
X5928809Y-22664524D01*
X5938333Y-22655000D01*
X5957381Y-22645476D01*
X6109762Y-22845476D02*
X6109762Y-22712143D01*
X6109762Y-22731190D02*
X6119286Y-22721667D01*
X6138333Y-22712143D01*
X6166905Y-22712143D01*
X6185952Y-22721667D01*
X6195476Y-22740714D01*
X6195476Y-22845476D01*
X6195476Y-22740714D02*
X6205000Y-22721667D01*
X6224048Y-22712143D01*
X6252619Y-22712143D01*
X6271667Y-22721667D01*
X6281190Y-22740714D01*
X6281190Y-22845476D01*
X6376428Y-22845476D02*
X6376428Y-22712143D01*
X6376428Y-22731190D02*
X6385952Y-22721667D01*
X6405000Y-22712143D01*
X6433571Y-22712143D01*
X6452619Y-22721667D01*
X6462143Y-22740714D01*
X6462143Y-22845476D01*
X6462143Y-22740714D02*
X6471667Y-22721667D01*
X6490714Y-22712143D01*
X6519286Y-22712143D01*
X6538333Y-22721667D01*
X6547857Y-22740714D01*
X6547857Y-22845476D01*
X6938333Y-22635952D02*
X6766905Y-22893095D01*
X7195476Y-22645476D02*
X7214524Y-22645476D01*
X7233571Y-22655000D01*
X7243095Y-22664524D01*
X7252619Y-22683571D01*
X7262143Y-22721667D01*
X7262143Y-22769286D01*
X7252619Y-22807381D01*
X7243095Y-22826428D01*
X7233571Y-22835952D01*
X7214524Y-22845476D01*
X7195476Y-22845476D01*
X7176428Y-22835952D01*
X7166905Y-22826428D01*
X7157381Y-22807381D01*
X7147857Y-22769286D01*
X7147857Y-22721667D01*
X7157381Y-22683571D01*
X7166905Y-22664524D01*
X7176428Y-22655000D01*
X7195476Y-22645476D01*
X7347857Y-22826428D02*
X7357381Y-22835952D01*
X7347857Y-22845476D01*
X7338333Y-22835952D01*
X7347857Y-22826428D01*
X7347857Y-22845476D01*
X7547857Y-22845476D02*
X7433571Y-22845476D01*
X7490714Y-22845476D02*
X7490714Y-22645476D01*
X7471667Y-22674048D01*
X7452619Y-22693095D01*
X7433571Y-22702619D01*
X7624048Y-22664524D02*
X7633571Y-22655000D01*
X7652619Y-22645476D01*
X7700238Y-22645476D01*
X7719286Y-22655000D01*
X7728809Y-22664524D01*
X7738333Y-22683571D01*
X7738333Y-22702619D01*
X7728809Y-22731190D01*
X7614524Y-22845476D01*
X7738333Y-22845476D01*
X7862143Y-22645476D02*
X7881190Y-22645476D01*
X7900238Y-22655000D01*
X7909762Y-22664524D01*
X7919286Y-22683571D01*
X7928809Y-22721667D01*
X7928809Y-22769286D01*
X7919286Y-22807381D01*
X7909762Y-22826428D01*
X7900238Y-22835952D01*
X7881190Y-22845476D01*
X7862143Y-22845476D01*
X7843095Y-22835952D01*
X7833571Y-22826428D01*
X7824048Y-22807381D01*
X7814524Y-22769286D01*
X7814524Y-22721667D01*
X7824048Y-22683571D01*
X7833571Y-22664524D01*
X7843095Y-22655000D01*
X7862143Y-22645476D01*
X8119286Y-22845476D02*
X8005000Y-22845476D01*
X8062143Y-22845476D02*
X8062143Y-22645476D01*
X8043095Y-22674048D01*
X8024048Y-22693095D01*
X8005000Y-22702619D01*
X8195476Y-22645476D02*
X8195476Y-22683571D01*
X8271667Y-22645476D02*
X8271667Y-22683571D01*
X8566905Y-22921667D02*
X8557381Y-22912143D01*
X8538333Y-22883571D01*
X8528810Y-22864524D01*
X8519286Y-22835952D01*
X8509762Y-22788333D01*
X8509762Y-22750238D01*
X8519286Y-22702619D01*
X8528810Y-22674048D01*
X8538333Y-22655000D01*
X8557381Y-22626428D01*
X8566905Y-22616905D01*
X8747857Y-22845476D02*
X8633571Y-22845476D01*
X8690714Y-22845476D02*
X8690714Y-22645476D01*
X8671667Y-22674048D01*
X8652619Y-22693095D01*
X8633571Y-22702619D01*
X8814524Y-22645476D02*
X8938333Y-22645476D01*
X8871667Y-22721667D01*
X8900238Y-22721667D01*
X8919286Y-22731190D01*
X8928810Y-22740714D01*
X8938333Y-22759762D01*
X8938333Y-22807381D01*
X8928810Y-22826428D01*
X8919286Y-22835952D01*
X8900238Y-22845476D01*
X8843095Y-22845476D01*
X8824048Y-22835952D01*
X8814524Y-22826428D01*
X9109762Y-22645476D02*
X9071667Y-22645476D01*
X9052619Y-22655000D01*
X9043095Y-22664524D01*
X9024048Y-22693095D01*
X9014524Y-22731190D01*
X9014524Y-22807381D01*
X9024048Y-22826428D01*
X9033571Y-22835952D01*
X9052619Y-22845476D01*
X9090714Y-22845476D01*
X9109762Y-22835952D01*
X9119286Y-22826428D01*
X9128810Y-22807381D01*
X9128810Y-22759762D01*
X9119286Y-22740714D01*
X9109762Y-22731190D01*
X9090714Y-22721667D01*
X9052619Y-22721667D01*
X9033571Y-22731190D01*
X9024048Y-22740714D01*
X9014524Y-22759762D01*
X9366905Y-22845476D02*
X9366905Y-22645476D01*
X9452619Y-22845476D02*
X9452619Y-22740714D01*
X9443095Y-22721667D01*
X9424048Y-22712143D01*
X9395476Y-22712143D01*
X9376429Y-22721667D01*
X9366905Y-22731190D01*
X9576429Y-22845476D02*
X9557381Y-22835952D01*
X9547857Y-22826428D01*
X9538333Y-22807381D01*
X9538333Y-22750238D01*
X9547857Y-22731190D01*
X9557381Y-22721667D01*
X9576429Y-22712143D01*
X9605000Y-22712143D01*
X9624048Y-22721667D01*
X9633571Y-22731190D01*
X9643095Y-22750238D01*
X9643095Y-22807381D01*
X9633571Y-22826428D01*
X9624048Y-22835952D01*
X9605000Y-22845476D01*
X9576429Y-22845476D01*
X9757381Y-22845476D02*
X9738333Y-22835952D01*
X9728810Y-22816905D01*
X9728810Y-22645476D01*
X9909762Y-22835952D02*
X9890714Y-22845476D01*
X9852619Y-22845476D01*
X9833571Y-22835952D01*
X9824048Y-22816905D01*
X9824048Y-22740714D01*
X9833571Y-22721667D01*
X9852619Y-22712143D01*
X9890714Y-22712143D01*
X9909762Y-22721667D01*
X9919286Y-22740714D01*
X9919286Y-22759762D01*
X9824048Y-22778809D01*
X9995476Y-22835952D02*
X10014524Y-22845476D01*
X10052619Y-22845476D01*
X10071667Y-22835952D01*
X10081190Y-22816905D01*
X10081190Y-22807381D01*
X10071667Y-22788333D01*
X10052619Y-22778809D01*
X10024048Y-22778809D01*
X10005000Y-22769286D01*
X9995476Y-22750238D01*
X9995476Y-22740714D01*
X10005000Y-22721667D01*
X10024048Y-22712143D01*
X10052619Y-22712143D01*
X10071667Y-22721667D01*
X10147857Y-22921667D02*
X10157381Y-22912143D01*
X10176429Y-22883571D01*
X10185952Y-22864524D01*
X10195476Y-22835952D01*
X10205000Y-22788333D01*
X10205000Y-22750238D01*
X10195476Y-22702619D01*
X10185952Y-22674048D01*
X10176429Y-22655000D01*
X10157381Y-22626428D01*
X10147857Y-22616905D01*
X10509762Y-22921667D02*
X10500238Y-22912143D01*
X10481190Y-22883571D01*
X10471667Y-22864524D01*
X10462143Y-22835952D01*
X10452619Y-22788333D01*
X10452619Y-22750238D01*
X10462143Y-22702619D01*
X10471667Y-22674048D01*
X10481190Y-22655000D01*
X10500238Y-22626428D01*
X10509762Y-22616905D01*
X10585952Y-22712143D02*
X10585952Y-22845476D01*
X10585952Y-22731190D02*
X10595476Y-22721667D01*
X10614524Y-22712143D01*
X10643095Y-22712143D01*
X10662143Y-22721667D01*
X10671667Y-22740714D01*
X10671667Y-22845476D01*
X10795476Y-22845476D02*
X10776429Y-22835952D01*
X10766905Y-22826428D01*
X10757381Y-22807381D01*
X10757381Y-22750238D01*
X10766905Y-22731190D01*
X10776429Y-22721667D01*
X10795476Y-22712143D01*
X10824048Y-22712143D01*
X10843095Y-22721667D01*
X10852619Y-22731190D01*
X10862143Y-22750238D01*
X10862143Y-22807381D01*
X10852619Y-22826428D01*
X10843095Y-22835952D01*
X10824048Y-22845476D01*
X10795476Y-22845476D01*
X10919286Y-22712143D02*
X10995476Y-22712143D01*
X10947857Y-22645476D02*
X10947857Y-22816905D01*
X10957381Y-22835952D01*
X10976429Y-22845476D01*
X10995476Y-22845476D01*
X11214524Y-22712143D02*
X11214524Y-22912143D01*
X11214524Y-22721667D02*
X11233571Y-22712143D01*
X11271667Y-22712143D01*
X11290714Y-22721667D01*
X11300238Y-22731190D01*
X11309762Y-22750238D01*
X11309762Y-22807381D01*
X11300238Y-22826428D01*
X11290714Y-22835952D01*
X11271667Y-22845476D01*
X11233571Y-22845476D01*
X11214524Y-22835952D01*
X11424048Y-22845476D02*
X11405000Y-22835952D01*
X11395476Y-22816905D01*
X11395476Y-22645476D01*
X11585952Y-22845476D02*
X11585952Y-22740714D01*
X11576428Y-22721667D01*
X11557381Y-22712143D01*
X11519286Y-22712143D01*
X11500238Y-22721667D01*
X11585952Y-22835952D02*
X11566905Y-22845476D01*
X11519286Y-22845476D01*
X11500238Y-22835952D01*
X11490714Y-22816905D01*
X11490714Y-22797857D01*
X11500238Y-22778809D01*
X11519286Y-22769286D01*
X11566905Y-22769286D01*
X11585952Y-22759762D01*
X11652619Y-22712143D02*
X11728809Y-22712143D01*
X11681190Y-22645476D02*
X11681190Y-22816905D01*
X11690714Y-22835952D01*
X11709762Y-22845476D01*
X11728809Y-22845476D01*
X11871667Y-22835952D02*
X11852619Y-22845476D01*
X11814524Y-22845476D01*
X11795476Y-22835952D01*
X11785952Y-22816905D01*
X11785952Y-22740714D01*
X11795476Y-22721667D01*
X11814524Y-22712143D01*
X11852619Y-22712143D01*
X11871667Y-22721667D01*
X11881190Y-22740714D01*
X11881190Y-22759762D01*
X11785952Y-22778809D01*
X12052619Y-22845476D02*
X12052619Y-22645476D01*
X12052619Y-22835952D02*
X12033571Y-22845476D01*
X11995476Y-22845476D01*
X11976428Y-22835952D01*
X11966905Y-22826428D01*
X11957381Y-22807381D01*
X11957381Y-22750238D01*
X11966905Y-22731190D01*
X11976428Y-22721667D01*
X11995476Y-22712143D01*
X12033571Y-22712143D01*
X12052619Y-22721667D01*
X12128809Y-22921667D02*
X12138333Y-22912143D01*
X12157381Y-22883571D01*
X12166905Y-22864524D01*
X12176428Y-22835952D01*
X12185952Y-22788333D01*
X12185952Y-22750238D01*
X12176428Y-22702619D01*
X12166905Y-22674048D01*
X12157381Y-22655000D01*
X12138333Y-22626428D01*
X12128809Y-22616905D01*
X4795000Y-22975000D02*
X4995000Y-23175000D01*
X4995000Y-22975000D02*
X4795000Y-23175000D01*
X4995000Y-23075000D02*
G75*
G03*
X4995000Y-23075000I-100000J0D01*
G01*
X5233571Y-22965476D02*
X5357381Y-22965476D01*
X5290714Y-23041667D01*
X5319286Y-23041667D01*
X5338333Y-23051190D01*
X5347857Y-23060714D01*
X5357381Y-23079762D01*
X5357381Y-23127381D01*
X5347857Y-23146428D01*
X5338333Y-23155952D01*
X5319286Y-23165476D01*
X5262143Y-23165476D01*
X5243095Y-23155952D01*
X5233571Y-23146428D01*
X5443095Y-23146428D02*
X5452619Y-23155952D01*
X5443095Y-23165476D01*
X5433571Y-23155952D01*
X5443095Y-23146428D01*
X5443095Y-23165476D01*
X5547857Y-23165476D02*
X5585952Y-23165476D01*
X5605000Y-23155952D01*
X5614524Y-23146428D01*
X5633571Y-23117857D01*
X5643095Y-23079762D01*
X5643095Y-23003571D01*
X5633571Y-22984524D01*
X5624048Y-22975000D01*
X5605000Y-22965476D01*
X5566905Y-22965476D01*
X5547857Y-22975000D01*
X5538333Y-22984524D01*
X5528810Y-23003571D01*
X5528810Y-23051190D01*
X5538333Y-23070238D01*
X5547857Y-23079762D01*
X5566905Y-23089286D01*
X5605000Y-23089286D01*
X5624048Y-23079762D01*
X5633571Y-23070238D01*
X5643095Y-23051190D01*
X5757381Y-23051190D02*
X5738333Y-23041667D01*
X5728809Y-23032143D01*
X5719286Y-23013095D01*
X5719286Y-23003571D01*
X5728809Y-22984524D01*
X5738333Y-22975000D01*
X5757381Y-22965476D01*
X5795476Y-22965476D01*
X5814524Y-22975000D01*
X5824048Y-22984524D01*
X5833571Y-23003571D01*
X5833571Y-23013095D01*
X5824048Y-23032143D01*
X5814524Y-23041667D01*
X5795476Y-23051190D01*
X5757381Y-23051190D01*
X5738333Y-23060714D01*
X5728809Y-23070238D01*
X5719286Y-23089286D01*
X5719286Y-23127381D01*
X5728809Y-23146428D01*
X5738333Y-23155952D01*
X5757381Y-23165476D01*
X5795476Y-23165476D01*
X5814524Y-23155952D01*
X5824048Y-23146428D01*
X5833571Y-23127381D01*
X5833571Y-23089286D01*
X5824048Y-23070238D01*
X5814524Y-23060714D01*
X5795476Y-23051190D01*
X5947857Y-23051190D02*
X5928809Y-23041667D01*
X5919286Y-23032143D01*
X5909762Y-23013095D01*
X5909762Y-23003571D01*
X5919286Y-22984524D01*
X5928809Y-22975000D01*
X5947857Y-22965476D01*
X5985952Y-22965476D01*
X6005000Y-22975000D01*
X6014524Y-22984524D01*
X6024048Y-23003571D01*
X6024048Y-23013095D01*
X6014524Y-23032143D01*
X6005000Y-23041667D01*
X5985952Y-23051190D01*
X5947857Y-23051190D01*
X5928809Y-23060714D01*
X5919286Y-23070238D01*
X5909762Y-23089286D01*
X5909762Y-23127381D01*
X5919286Y-23146428D01*
X5928809Y-23155952D01*
X5947857Y-23165476D01*
X5985952Y-23165476D01*
X6005000Y-23155952D01*
X6014524Y-23146428D01*
X6024048Y-23127381D01*
X6024048Y-23089286D01*
X6014524Y-23070238D01*
X6005000Y-23060714D01*
X5985952Y-23051190D01*
X6109762Y-23165476D02*
X6109762Y-23032143D01*
X6109762Y-23051190D02*
X6119286Y-23041667D01*
X6138333Y-23032143D01*
X6166905Y-23032143D01*
X6185952Y-23041667D01*
X6195476Y-23060714D01*
X6195476Y-23165476D01*
X6195476Y-23060714D02*
X6205000Y-23041667D01*
X6224048Y-23032143D01*
X6252619Y-23032143D01*
X6271667Y-23041667D01*
X6281190Y-23060714D01*
X6281190Y-23165476D01*
X6376428Y-23165476D02*
X6376428Y-23032143D01*
X6376428Y-23051190D02*
X6385952Y-23041667D01*
X6405000Y-23032143D01*
X6433571Y-23032143D01*
X6452619Y-23041667D01*
X6462143Y-23060714D01*
X6462143Y-23165476D01*
X6462143Y-23060714D02*
X6471667Y-23041667D01*
X6490714Y-23032143D01*
X6519286Y-23032143D01*
X6538333Y-23041667D01*
X6547857Y-23060714D01*
X6547857Y-23165476D01*
X6938333Y-22955952D02*
X6766905Y-23213095D01*
X7195476Y-22965476D02*
X7214524Y-22965476D01*
X7233571Y-22975000D01*
X7243095Y-22984524D01*
X7252619Y-23003571D01*
X7262143Y-23041667D01*
X7262143Y-23089286D01*
X7252619Y-23127381D01*
X7243095Y-23146428D01*
X7233571Y-23155952D01*
X7214524Y-23165476D01*
X7195476Y-23165476D01*
X7176428Y-23155952D01*
X7166905Y-23146428D01*
X7157381Y-23127381D01*
X7147857Y-23089286D01*
X7147857Y-23041667D01*
X7157381Y-23003571D01*
X7166905Y-22984524D01*
X7176428Y-22975000D01*
X7195476Y-22965476D01*
X7347857Y-23146428D02*
X7357381Y-23155952D01*
X7347857Y-23165476D01*
X7338333Y-23155952D01*
X7347857Y-23146428D01*
X7347857Y-23165476D01*
X7547857Y-23165476D02*
X7433571Y-23165476D01*
X7490714Y-23165476D02*
X7490714Y-22965476D01*
X7471667Y-22994048D01*
X7452619Y-23013095D01*
X7433571Y-23022619D01*
X7728809Y-22965476D02*
X7633571Y-22965476D01*
X7624048Y-23060714D01*
X7633571Y-23051190D01*
X7652619Y-23041667D01*
X7700238Y-23041667D01*
X7719286Y-23051190D01*
X7728809Y-23060714D01*
X7738333Y-23079762D01*
X7738333Y-23127381D01*
X7728809Y-23146428D01*
X7719286Y-23155952D01*
X7700238Y-23165476D01*
X7652619Y-23165476D01*
X7633571Y-23155952D01*
X7624048Y-23146428D01*
X7805000Y-22965476D02*
X7938333Y-22965476D01*
X7852619Y-23165476D01*
X8052619Y-22965476D02*
X8071667Y-22965476D01*
X8090714Y-22975000D01*
X8100238Y-22984524D01*
X8109762Y-23003571D01*
X8119286Y-23041667D01*
X8119286Y-23089286D01*
X8109762Y-23127381D01*
X8100238Y-23146428D01*
X8090714Y-23155952D01*
X8071667Y-23165476D01*
X8052619Y-23165476D01*
X8033571Y-23155952D01*
X8024048Y-23146428D01*
X8014524Y-23127381D01*
X8005000Y-23089286D01*
X8005000Y-23041667D01*
X8014524Y-23003571D01*
X8024048Y-22984524D01*
X8033571Y-22975000D01*
X8052619Y-22965476D01*
X8195476Y-22965476D02*
X8195476Y-23003571D01*
X8271667Y-22965476D02*
X8271667Y-23003571D01*
X8566905Y-23241667D02*
X8557381Y-23232143D01*
X8538333Y-23203571D01*
X8528810Y-23184524D01*
X8519286Y-23155952D01*
X8509762Y-23108333D01*
X8509762Y-23070238D01*
X8519286Y-23022619D01*
X8528810Y-22994048D01*
X8538333Y-22975000D01*
X8557381Y-22946428D01*
X8566905Y-22936905D01*
X8747857Y-23165476D02*
X8633571Y-23165476D01*
X8690714Y-23165476D02*
X8690714Y-22965476D01*
X8671667Y-22994048D01*
X8652619Y-23013095D01*
X8633571Y-23022619D01*
X8871667Y-22965476D02*
X8890714Y-22965476D01*
X8909762Y-22975000D01*
X8919286Y-22984524D01*
X8928810Y-23003571D01*
X8938333Y-23041667D01*
X8938333Y-23089286D01*
X8928810Y-23127381D01*
X8919286Y-23146428D01*
X8909762Y-23155952D01*
X8890714Y-23165476D01*
X8871667Y-23165476D01*
X8852619Y-23155952D01*
X8843095Y-23146428D01*
X8833571Y-23127381D01*
X8824048Y-23089286D01*
X8824048Y-23041667D01*
X8833571Y-23003571D01*
X8843095Y-22984524D01*
X8852619Y-22975000D01*
X8871667Y-22965476D01*
X9176429Y-23165476D02*
X9176429Y-22965476D01*
X9262143Y-23165476D02*
X9262143Y-23060714D01*
X9252619Y-23041667D01*
X9233571Y-23032143D01*
X9205000Y-23032143D01*
X9185952Y-23041667D01*
X9176429Y-23051190D01*
X9385952Y-23165476D02*
X9366905Y-23155952D01*
X9357381Y-23146428D01*
X9347857Y-23127381D01*
X9347857Y-23070238D01*
X9357381Y-23051190D01*
X9366905Y-23041667D01*
X9385952Y-23032143D01*
X9414524Y-23032143D01*
X9433571Y-23041667D01*
X9443095Y-23051190D01*
X9452619Y-23070238D01*
X9452619Y-23127381D01*
X9443095Y-23146428D01*
X9433571Y-23155952D01*
X9414524Y-23165476D01*
X9385952Y-23165476D01*
X9566905Y-23165476D02*
X9547857Y-23155952D01*
X9538333Y-23136905D01*
X9538333Y-22965476D01*
X9719286Y-23155952D02*
X9700238Y-23165476D01*
X9662143Y-23165476D01*
X9643095Y-23155952D01*
X9633571Y-23136905D01*
X9633571Y-23060714D01*
X9643095Y-23041667D01*
X9662143Y-23032143D01*
X9700238Y-23032143D01*
X9719286Y-23041667D01*
X9728810Y-23060714D01*
X9728810Y-23079762D01*
X9633571Y-23098809D01*
X9805000Y-23155952D02*
X9824048Y-23165476D01*
X9862143Y-23165476D01*
X9881190Y-23155952D01*
X9890714Y-23136905D01*
X9890714Y-23127381D01*
X9881190Y-23108333D01*
X9862143Y-23098809D01*
X9833571Y-23098809D01*
X9814524Y-23089286D01*
X9805000Y-23070238D01*
X9805000Y-23060714D01*
X9814524Y-23041667D01*
X9833571Y-23032143D01*
X9862143Y-23032143D01*
X9881190Y-23041667D01*
X9957381Y-23241667D02*
X9966905Y-23232143D01*
X9985952Y-23203571D01*
X9995476Y-23184524D01*
X10005000Y-23155952D01*
X10014524Y-23108333D01*
X10014524Y-23070238D01*
X10005000Y-23022619D01*
X9995476Y-22994048D01*
X9985952Y-22975000D01*
X9966905Y-22946428D01*
X9957381Y-22936905D01*
X10319286Y-23241667D02*
X10309762Y-23232143D01*
X10290714Y-23203571D01*
X10281190Y-23184524D01*
X10271667Y-23155952D01*
X10262143Y-23108333D01*
X10262143Y-23070238D01*
X10271667Y-23022619D01*
X10281190Y-22994048D01*
X10290714Y-22975000D01*
X10309762Y-22946428D01*
X10319286Y-22936905D01*
X10395476Y-23032143D02*
X10395476Y-23165476D01*
X10395476Y-23051190D02*
X10405000Y-23041667D01*
X10424048Y-23032143D01*
X10452619Y-23032143D01*
X10471667Y-23041667D01*
X10481190Y-23060714D01*
X10481190Y-23165476D01*
X10605000Y-23165476D02*
X10585952Y-23155952D01*
X10576429Y-23146428D01*
X10566905Y-23127381D01*
X10566905Y-23070238D01*
X10576429Y-23051190D01*
X10585952Y-23041667D01*
X10605000Y-23032143D01*
X10633571Y-23032143D01*
X10652619Y-23041667D01*
X10662143Y-23051190D01*
X10671667Y-23070238D01*
X10671667Y-23127381D01*
X10662143Y-23146428D01*
X10652619Y-23155952D01*
X10633571Y-23165476D01*
X10605000Y-23165476D01*
X10728810Y-23032143D02*
X10805000Y-23032143D01*
X10757381Y-22965476D02*
X10757381Y-23136905D01*
X10766905Y-23155952D01*
X10785952Y-23165476D01*
X10805000Y-23165476D01*
X11024048Y-23032143D02*
X11024048Y-23232143D01*
X11024048Y-23041667D02*
X11043095Y-23032143D01*
X11081190Y-23032143D01*
X11100238Y-23041667D01*
X11109762Y-23051190D01*
X11119286Y-23070238D01*
X11119286Y-23127381D01*
X11109762Y-23146428D01*
X11100238Y-23155952D01*
X11081190Y-23165476D01*
X11043095Y-23165476D01*
X11024048Y-23155952D01*
X11233571Y-23165476D02*
X11214524Y-23155952D01*
X11205000Y-23136905D01*
X11205000Y-22965476D01*
X11395476Y-23165476D02*
X11395476Y-23060714D01*
X11385952Y-23041667D01*
X11366905Y-23032143D01*
X11328809Y-23032143D01*
X11309762Y-23041667D01*
X11395476Y-23155952D02*
X11376428Y-23165476D01*
X11328809Y-23165476D01*
X11309762Y-23155952D01*
X11300238Y-23136905D01*
X11300238Y-23117857D01*
X11309762Y-23098809D01*
X11328809Y-23089286D01*
X11376428Y-23089286D01*
X11395476Y-23079762D01*
X11462143Y-23032143D02*
X11538333Y-23032143D01*
X11490714Y-22965476D02*
X11490714Y-23136905D01*
X11500238Y-23155952D01*
X11519286Y-23165476D01*
X11538333Y-23165476D01*
X11681190Y-23155952D02*
X11662143Y-23165476D01*
X11624048Y-23165476D01*
X11605000Y-23155952D01*
X11595476Y-23136905D01*
X11595476Y-23060714D01*
X11605000Y-23041667D01*
X11624048Y-23032143D01*
X11662143Y-23032143D01*
X11681190Y-23041667D01*
X11690714Y-23060714D01*
X11690714Y-23079762D01*
X11595476Y-23098809D01*
X11862143Y-23165476D02*
X11862143Y-22965476D01*
X11862143Y-23155952D02*
X11843095Y-23165476D01*
X11805000Y-23165476D01*
X11785952Y-23155952D01*
X11776428Y-23146428D01*
X11766905Y-23127381D01*
X11766905Y-23070238D01*
X11776428Y-23051190D01*
X11785952Y-23041667D01*
X11805000Y-23032143D01*
X11843095Y-23032143D01*
X11862143Y-23041667D01*
X11938333Y-23241667D02*
X11947857Y-23232143D01*
X11966905Y-23203571D01*
X11976428Y-23184524D01*
X11985952Y-23155952D01*
X11995476Y-23108333D01*
X11995476Y-23070238D01*
X11985952Y-23022619D01*
X11976428Y-22994048D01*
X11966905Y-22975000D01*
X11947857Y-22946428D01*
X11938333Y-22936905D01*
X4795000Y-23295000D02*
X4995000Y-23495000D01*
X4995000Y-23295000D02*
X4795000Y-23495000D01*
X4895000Y-23295000D02*
X4895000Y-23495000D01*
X4795000Y-23395000D02*
X4995000Y-23395000D01*
X5338333Y-23352143D02*
X5338333Y-23485476D01*
X5290714Y-23275952D02*
X5243095Y-23418809D01*
X5366905Y-23418809D01*
X5443095Y-23466428D02*
X5452619Y-23475952D01*
X5443095Y-23485476D01*
X5433571Y-23475952D01*
X5443095Y-23466428D01*
X5443095Y-23485476D01*
X5576429Y-23285476D02*
X5595476Y-23285476D01*
X5614524Y-23295000D01*
X5624048Y-23304524D01*
X5633571Y-23323571D01*
X5643095Y-23361667D01*
X5643095Y-23409286D01*
X5633571Y-23447381D01*
X5624048Y-23466428D01*
X5614524Y-23475952D01*
X5595476Y-23485476D01*
X5576429Y-23485476D01*
X5557381Y-23475952D01*
X5547857Y-23466428D01*
X5538333Y-23447381D01*
X5528810Y-23409286D01*
X5528810Y-23361667D01*
X5538333Y-23323571D01*
X5547857Y-23304524D01*
X5557381Y-23295000D01*
X5576429Y-23285476D01*
X5766905Y-23285476D02*
X5785952Y-23285476D01*
X5805000Y-23295000D01*
X5814524Y-23304524D01*
X5824048Y-23323571D01*
X5833571Y-23361667D01*
X5833571Y-23409286D01*
X5824048Y-23447381D01*
X5814524Y-23466428D01*
X5805000Y-23475952D01*
X5785952Y-23485476D01*
X5766905Y-23485476D01*
X5747857Y-23475952D01*
X5738333Y-23466428D01*
X5728809Y-23447381D01*
X5719286Y-23409286D01*
X5719286Y-23361667D01*
X5728809Y-23323571D01*
X5738333Y-23304524D01*
X5747857Y-23295000D01*
X5766905Y-23285476D01*
X5957381Y-23285476D02*
X5976428Y-23285476D01*
X5995476Y-23295000D01*
X6005000Y-23304524D01*
X6014524Y-23323571D01*
X6024048Y-23361667D01*
X6024048Y-23409286D01*
X6014524Y-23447381D01*
X6005000Y-23466428D01*
X5995476Y-23475952D01*
X5976428Y-23485476D01*
X5957381Y-23485476D01*
X5938333Y-23475952D01*
X5928809Y-23466428D01*
X5919286Y-23447381D01*
X5909762Y-23409286D01*
X5909762Y-23361667D01*
X5919286Y-23323571D01*
X5928809Y-23304524D01*
X5938333Y-23295000D01*
X5957381Y-23285476D01*
X6109762Y-23485476D02*
X6109762Y-23352143D01*
X6109762Y-23371190D02*
X6119286Y-23361667D01*
X6138333Y-23352143D01*
X6166905Y-23352143D01*
X6185952Y-23361667D01*
X6195476Y-23380714D01*
X6195476Y-23485476D01*
X6195476Y-23380714D02*
X6205000Y-23361667D01*
X6224048Y-23352143D01*
X6252619Y-23352143D01*
X6271667Y-23361667D01*
X6281190Y-23380714D01*
X6281190Y-23485476D01*
X6376428Y-23485476D02*
X6376428Y-23352143D01*
X6376428Y-23371190D02*
X6385952Y-23361667D01*
X6405000Y-23352143D01*
X6433571Y-23352143D01*
X6452619Y-23361667D01*
X6462143Y-23380714D01*
X6462143Y-23485476D01*
X6462143Y-23380714D02*
X6471667Y-23361667D01*
X6490714Y-23352143D01*
X6519286Y-23352143D01*
X6538333Y-23361667D01*
X6547857Y-23380714D01*
X6547857Y-23485476D01*
X6938333Y-23275952D02*
X6766905Y-23533095D01*
X7195476Y-23285476D02*
X7214524Y-23285476D01*
X7233571Y-23295000D01*
X7243095Y-23304524D01*
X7252619Y-23323571D01*
X7262143Y-23361667D01*
X7262143Y-23409286D01*
X7252619Y-23447381D01*
X7243095Y-23466428D01*
X7233571Y-23475952D01*
X7214524Y-23485476D01*
X7195476Y-23485476D01*
X7176428Y-23475952D01*
X7166905Y-23466428D01*
X7157381Y-23447381D01*
X7147857Y-23409286D01*
X7147857Y-23361667D01*
X7157381Y-23323571D01*
X7166905Y-23304524D01*
X7176428Y-23295000D01*
X7195476Y-23285476D01*
X7347857Y-23466428D02*
X7357381Y-23475952D01*
X7347857Y-23485476D01*
X7338333Y-23475952D01*
X7347857Y-23466428D01*
X7347857Y-23485476D01*
X7547857Y-23485476D02*
X7433571Y-23485476D01*
X7490714Y-23485476D02*
X7490714Y-23285476D01*
X7471667Y-23314048D01*
X7452619Y-23333095D01*
X7433571Y-23342619D01*
X7728809Y-23285476D02*
X7633571Y-23285476D01*
X7624048Y-23380714D01*
X7633571Y-23371190D01*
X7652619Y-23361667D01*
X7700238Y-23361667D01*
X7719286Y-23371190D01*
X7728809Y-23380714D01*
X7738333Y-23399762D01*
X7738333Y-23447381D01*
X7728809Y-23466428D01*
X7719286Y-23475952D01*
X7700238Y-23485476D01*
X7652619Y-23485476D01*
X7633571Y-23475952D01*
X7624048Y-23466428D01*
X7805000Y-23285476D02*
X7938333Y-23285476D01*
X7852619Y-23485476D01*
X8109762Y-23285476D02*
X8014524Y-23285476D01*
X8005000Y-23380714D01*
X8014524Y-23371190D01*
X8033571Y-23361667D01*
X8081190Y-23361667D01*
X8100238Y-23371190D01*
X8109762Y-23380714D01*
X8119286Y-23399762D01*
X8119286Y-23447381D01*
X8109762Y-23466428D01*
X8100238Y-23475952D01*
X8081190Y-23485476D01*
X8033571Y-23485476D01*
X8014524Y-23475952D01*
X8005000Y-23466428D01*
X8195476Y-23285476D02*
X8195476Y-23323571D01*
X8271667Y-23285476D02*
X8271667Y-23323571D01*
X8566905Y-23561667D02*
X8557381Y-23552143D01*
X8538333Y-23523571D01*
X8528810Y-23504524D01*
X8519286Y-23475952D01*
X8509762Y-23428333D01*
X8509762Y-23390238D01*
X8519286Y-23342619D01*
X8528810Y-23314048D01*
X8538333Y-23295000D01*
X8557381Y-23266428D01*
X8566905Y-23256905D01*
X8728810Y-23285476D02*
X8690714Y-23285476D01*
X8671667Y-23295000D01*
X8662143Y-23304524D01*
X8643095Y-23333095D01*
X8633571Y-23371190D01*
X8633571Y-23447381D01*
X8643095Y-23466428D01*
X8652619Y-23475952D01*
X8671667Y-23485476D01*
X8709762Y-23485476D01*
X8728810Y-23475952D01*
X8738333Y-23466428D01*
X8747857Y-23447381D01*
X8747857Y-23399762D01*
X8738333Y-23380714D01*
X8728810Y-23371190D01*
X8709762Y-23361667D01*
X8671667Y-23361667D01*
X8652619Y-23371190D01*
X8643095Y-23380714D01*
X8633571Y-23399762D01*
X8862143Y-23371190D02*
X8843095Y-23361667D01*
X8833571Y-23352143D01*
X8824048Y-23333095D01*
X8824048Y-23323571D01*
X8833571Y-23304524D01*
X8843095Y-23295000D01*
X8862143Y-23285476D01*
X8900238Y-23285476D01*
X8919286Y-23295000D01*
X8928810Y-23304524D01*
X8938333Y-23323571D01*
X8938333Y-23333095D01*
X8928810Y-23352143D01*
X8919286Y-23361667D01*
X8900238Y-23371190D01*
X8862143Y-23371190D01*
X8843095Y-23380714D01*
X8833571Y-23390238D01*
X8824048Y-23409286D01*
X8824048Y-23447381D01*
X8833571Y-23466428D01*
X8843095Y-23475952D01*
X8862143Y-23485476D01*
X8900238Y-23485476D01*
X8919286Y-23475952D01*
X8928810Y-23466428D01*
X8938333Y-23447381D01*
X8938333Y-23409286D01*
X8928810Y-23390238D01*
X8919286Y-23380714D01*
X8900238Y-23371190D01*
X9176429Y-23485476D02*
X9176429Y-23285476D01*
X9262143Y-23485476D02*
X9262143Y-23380714D01*
X9252619Y-23361667D01*
X9233571Y-23352143D01*
X9205000Y-23352143D01*
X9185952Y-23361667D01*
X9176429Y-23371190D01*
X9385952Y-23485476D02*
X9366905Y-23475952D01*
X9357381Y-23466428D01*
X9347857Y-23447381D01*
X9347857Y-23390238D01*
X9357381Y-23371190D01*
X9366905Y-23361667D01*
X9385952Y-23352143D01*
X9414524Y-23352143D01*
X9433571Y-23361667D01*
X9443095Y-23371190D01*
X9452619Y-23390238D01*
X9452619Y-23447381D01*
X9443095Y-23466428D01*
X9433571Y-23475952D01*
X9414524Y-23485476D01*
X9385952Y-23485476D01*
X9566905Y-23485476D02*
X9547857Y-23475952D01*
X9538333Y-23456905D01*
X9538333Y-23285476D01*
X9719286Y-23475952D02*
X9700238Y-23485476D01*
X9662143Y-23485476D01*
X9643095Y-23475952D01*
X9633571Y-23456905D01*
X9633571Y-23380714D01*
X9643095Y-23361667D01*
X9662143Y-23352143D01*
X9700238Y-23352143D01*
X9719286Y-23361667D01*
X9728810Y-23380714D01*
X9728810Y-23399762D01*
X9633571Y-23418809D01*
X9805000Y-23475952D02*
X9824048Y-23485476D01*
X9862143Y-23485476D01*
X9881190Y-23475952D01*
X9890714Y-23456905D01*
X9890714Y-23447381D01*
X9881190Y-23428333D01*
X9862143Y-23418809D01*
X9833571Y-23418809D01*
X9814524Y-23409286D01*
X9805000Y-23390238D01*
X9805000Y-23380714D01*
X9814524Y-23361667D01*
X9833571Y-23352143D01*
X9862143Y-23352143D01*
X9881190Y-23361667D01*
X9957381Y-23561667D02*
X9966905Y-23552143D01*
X9985952Y-23523571D01*
X9995476Y-23504524D01*
X10005000Y-23475952D01*
X10014524Y-23428333D01*
X10014524Y-23390238D01*
X10005000Y-23342619D01*
X9995476Y-23314048D01*
X9985952Y-23295000D01*
X9966905Y-23266428D01*
X9957381Y-23256905D01*
X10319286Y-23561667D02*
X10309762Y-23552143D01*
X10290714Y-23523571D01*
X10281190Y-23504524D01*
X10271667Y-23475952D01*
X10262143Y-23428333D01*
X10262143Y-23390238D01*
X10271667Y-23342619D01*
X10281190Y-23314048D01*
X10290714Y-23295000D01*
X10309762Y-23266428D01*
X10319286Y-23256905D01*
X10395476Y-23352143D02*
X10395476Y-23485476D01*
X10395476Y-23371190D02*
X10405000Y-23361667D01*
X10424048Y-23352143D01*
X10452619Y-23352143D01*
X10471667Y-23361667D01*
X10481190Y-23380714D01*
X10481190Y-23485476D01*
X10605000Y-23485476D02*
X10585952Y-23475952D01*
X10576429Y-23466428D01*
X10566905Y-23447381D01*
X10566905Y-23390238D01*
X10576429Y-23371190D01*
X10585952Y-23361667D01*
X10605000Y-23352143D01*
X10633571Y-23352143D01*
X10652619Y-23361667D01*
X10662143Y-23371190D01*
X10671667Y-23390238D01*
X10671667Y-23447381D01*
X10662143Y-23466428D01*
X10652619Y-23475952D01*
X10633571Y-23485476D01*
X10605000Y-23485476D01*
X10728810Y-23352143D02*
X10805000Y-23352143D01*
X10757381Y-23285476D02*
X10757381Y-23456905D01*
X10766905Y-23475952D01*
X10785952Y-23485476D01*
X10805000Y-23485476D01*
X11024048Y-23352143D02*
X11024048Y-23552143D01*
X11024048Y-23361667D02*
X11043095Y-23352143D01*
X11081190Y-23352143D01*
X11100238Y-23361667D01*
X11109762Y-23371190D01*
X11119286Y-23390238D01*
X11119286Y-23447381D01*
X11109762Y-23466428D01*
X11100238Y-23475952D01*
X11081190Y-23485476D01*
X11043095Y-23485476D01*
X11024048Y-23475952D01*
X11233571Y-23485476D02*
X11214524Y-23475952D01*
X11205000Y-23456905D01*
X11205000Y-23285476D01*
X11395476Y-23485476D02*
X11395476Y-23380714D01*
X11385952Y-23361667D01*
X11366905Y-23352143D01*
X11328809Y-23352143D01*
X11309762Y-23361667D01*
X11395476Y-23475952D02*
X11376428Y-23485476D01*
X11328809Y-23485476D01*
X11309762Y-23475952D01*
X11300238Y-23456905D01*
X11300238Y-23437857D01*
X11309762Y-23418809D01*
X11328809Y-23409286D01*
X11376428Y-23409286D01*
X11395476Y-23399762D01*
X11462143Y-23352143D02*
X11538333Y-23352143D01*
X11490714Y-23285476D02*
X11490714Y-23456905D01*
X11500238Y-23475952D01*
X11519286Y-23485476D01*
X11538333Y-23485476D01*
X11681190Y-23475952D02*
X11662143Y-23485476D01*
X11624048Y-23485476D01*
X11605000Y-23475952D01*
X11595476Y-23456905D01*
X11595476Y-23380714D01*
X11605000Y-23361667D01*
X11624048Y-23352143D01*
X11662143Y-23352143D01*
X11681190Y-23361667D01*
X11690714Y-23380714D01*
X11690714Y-23399762D01*
X11595476Y-23418809D01*
X11862143Y-23485476D02*
X11862143Y-23285476D01*
X11862143Y-23475952D02*
X11843095Y-23485476D01*
X11805000Y-23485476D01*
X11785952Y-23475952D01*
X11776428Y-23466428D01*
X11766905Y-23447381D01*
X11766905Y-23390238D01*
X11776428Y-23371190D01*
X11785952Y-23361667D01*
X11805000Y-23352143D01*
X11843095Y-23352143D01*
X11862143Y-23361667D01*
X11938333Y-23561667D02*
X11947857Y-23552143D01*
X11966905Y-23523571D01*
X11976428Y-23504524D01*
X11985952Y-23475952D01*
X11995476Y-23428333D01*
X11995476Y-23390238D01*
X11985952Y-23342619D01*
X11976428Y-23314048D01*
X11966905Y-23295000D01*
X11947857Y-23266428D01*
X11938333Y-23256905D01*
M02*
